G75*
%MOIN*%
%OFA0B0*%
%FSLAX25Y25*%
%IPPOS*%
%LPD*%
%AMOC8*
5,1,8,0,0,1.08239X$1,22.5*
%
%ADD10R,0.55000X0.30000*%
%ADD11R,0.15000X0.25000*%
%ADD12C,0.01300*%
%ADD13R,0.06299X0.05118*%
%ADD14OC8,0.10000*%
%ADD15OC8,0.15000*%
%ADD16C,0.06496*%
%ADD17R,0.04724X0.01575*%
%ADD18C,0.07087*%
%ADD19R,0.05118X0.05906*%
%ADD20R,0.05118X0.06299*%
%ADD21R,0.05512X0.04331*%
%ADD22R,0.04331X0.05512*%
%ADD23C,0.06000*%
%ADD24C,0.05000*%
%ADD25OC8,0.05000*%
%ADD26C,0.02400*%
%ADD27C,0.01600*%
%ADD28C,0.01100*%
%ADD29R,0.03562X0.03562*%
D10*
X0109667Y0191800D03*
D11*
X0109667Y0114300D03*
D12*
X0102167Y0071800D02*
X0102167Y0063050D01*
X0190186Y0121029D02*
X0191237Y0121029D01*
X0193338Y0118927D01*
X0193338Y0116825D02*
X0193338Y0121029D01*
X0196133Y0119978D02*
X0196133Y0118927D01*
X0200336Y0118927D01*
X0200336Y0119978D02*
X0199285Y0121029D01*
X0197184Y0121029D01*
X0196133Y0119978D01*
X0197184Y0116825D02*
X0199285Y0116825D01*
X0200336Y0117876D01*
X0200336Y0119978D01*
X0202900Y0121029D02*
X0205002Y0121029D01*
X0203951Y0122079D02*
X0203951Y0117876D01*
X0202900Y0116825D01*
X0207796Y0118927D02*
X0212000Y0118927D01*
X0212000Y0119978D02*
X0210949Y0121029D01*
X0208847Y0121029D01*
X0207796Y0119978D01*
X0207796Y0118927D01*
X0208847Y0116825D02*
X0210949Y0116825D01*
X0212000Y0117876D01*
X0212000Y0119978D01*
X0214794Y0119978D02*
X0214794Y0116825D01*
X0216896Y0116825D02*
X0216896Y0119978D01*
X0215845Y0121029D01*
X0214794Y0119978D01*
X0216896Y0119978D02*
X0217947Y0121029D01*
X0218998Y0121029D01*
X0218998Y0116825D01*
X0221561Y0116825D02*
X0223663Y0116825D01*
X0222612Y0116825D02*
X0222612Y0121029D01*
X0223663Y0121029D01*
X0222612Y0123130D02*
X0222612Y0124181D01*
X0226226Y0121029D02*
X0228328Y0121029D01*
X0227277Y0122079D02*
X0227277Y0117876D01*
X0226226Y0116825D01*
X0230892Y0116825D02*
X0232994Y0116825D01*
X0231943Y0116825D02*
X0231943Y0123130D01*
X0232994Y0123130D01*
X0235788Y0121029D02*
X0235788Y0116825D01*
X0238941Y0116825D01*
X0239992Y0117876D01*
X0239992Y0121029D01*
X0242786Y0119978D02*
X0242786Y0116825D01*
X0244888Y0116825D02*
X0244888Y0119978D01*
X0243837Y0121029D01*
X0242786Y0119978D01*
X0244888Y0119978D02*
X0245939Y0121029D01*
X0246990Y0121029D01*
X0246990Y0116825D01*
X0256782Y0117876D02*
X0257833Y0118927D01*
X0259935Y0118927D01*
X0260985Y0119978D01*
X0259935Y0121029D01*
X0256782Y0121029D01*
X0256782Y0117876D02*
X0257833Y0116825D01*
X0260985Y0116825D01*
X0264484Y0121029D02*
X0263434Y0122079D01*
X0263434Y0124181D01*
X0267279Y0121029D02*
X0270432Y0121029D01*
X0271482Y0119978D01*
X0271482Y0117876D01*
X0270432Y0116825D01*
X0267279Y0116825D01*
X0274277Y0118927D02*
X0278480Y0118927D01*
X0278480Y0119978D02*
X0277430Y0121029D01*
X0275328Y0121029D01*
X0274277Y0119978D01*
X0274277Y0118927D01*
X0275328Y0116825D02*
X0277430Y0116825D01*
X0278480Y0117876D01*
X0278480Y0119978D01*
X0281044Y0116825D02*
X0283146Y0116825D01*
X0282095Y0116825D02*
X0282095Y0123130D01*
X0283146Y0123130D01*
X0285940Y0119978D02*
X0286991Y0121029D01*
X0289093Y0121029D01*
X0290144Y0119978D01*
X0290144Y0117876D01*
X0289093Y0116825D01*
X0286991Y0116825D01*
X0285940Y0118927D02*
X0290144Y0118927D01*
X0285940Y0118927D02*
X0285940Y0119978D01*
X0292938Y0123130D02*
X0297142Y0123130D01*
X0295040Y0123130D02*
X0295040Y0116825D01*
D13*
X0304667Y0130560D03*
X0304667Y0138040D03*
X0304667Y0083040D03*
X0304667Y0075560D03*
X0180917Y0075560D03*
X0180917Y0083040D03*
X0180917Y0129310D03*
X0180917Y0136790D03*
X0059667Y0075540D03*
X0059667Y0068060D03*
X0059667Y0058040D03*
X0059667Y0050560D03*
X0027167Y0050560D03*
X0027167Y0058040D03*
X0027167Y0068060D03*
X0027167Y0075540D03*
X0027167Y0085560D03*
X0027167Y0093040D03*
D14*
X0109667Y0109300D03*
X0109667Y0119300D03*
X0129667Y0189300D03*
X0124667Y0199300D03*
X0094667Y0199300D03*
X0089667Y0189300D03*
D15*
X0109667Y0189300D03*
D16*
X0167167Y0193552D02*
X0167167Y0200048D01*
X0177167Y0200048D02*
X0177167Y0193552D01*
X0187167Y0193552D02*
X0187167Y0200048D01*
X0287167Y0200048D02*
X0287167Y0193552D01*
X0297167Y0193552D02*
X0297167Y0200048D01*
X0307167Y0200048D02*
X0307167Y0193552D01*
D17*
X0051488Y0058139D03*
X0051488Y0055580D03*
X0051488Y0053020D03*
X0051488Y0050461D03*
X0035346Y0050461D03*
X0035346Y0053020D03*
X0035346Y0055580D03*
X0035346Y0058139D03*
D18*
X0018210Y0084300D02*
X0011123Y0084300D01*
X0011123Y0094300D02*
X0018210Y0094300D01*
X0018210Y0109300D02*
X0011123Y0109300D01*
X0011123Y0119300D02*
X0018210Y0119300D01*
X0018210Y0139300D02*
X0011123Y0139300D01*
X0011123Y0149300D02*
X0018210Y0149300D01*
X0018210Y0164300D02*
X0011123Y0164300D01*
X0011123Y0174300D02*
X0018210Y0174300D01*
X0014667Y0193257D02*
X0014667Y0200343D01*
X0024667Y0200343D02*
X0024667Y0193257D01*
X0049667Y0193257D02*
X0049667Y0200343D01*
X0059667Y0200343D02*
X0059667Y0193257D01*
D19*
X0045907Y0068050D03*
X0038427Y0068050D03*
D20*
X0040927Y0084300D03*
X0048407Y0084300D03*
X0045927Y0109300D03*
X0053407Y0109300D03*
X0035907Y0109300D03*
X0028427Y0109300D03*
D21*
X0095917Y0070737D03*
X0095917Y0062863D03*
X0089667Y0033237D03*
X0089667Y0025363D03*
D22*
X0048604Y0100550D03*
X0040730Y0100550D03*
D23*
X0043417Y0021050D02*
X0043417Y0015050D01*
X0053417Y0015050D02*
X0053417Y0021050D01*
X0063417Y0021050D02*
X0063417Y0015050D01*
X0030917Y0015050D02*
X0030917Y0021050D01*
X0020917Y0021050D02*
X0020917Y0015050D01*
X0010917Y0015050D02*
X0010917Y0021050D01*
D24*
X0010917Y0018050D02*
X0012167Y0018050D01*
X0012167Y0029300D01*
X0012170Y0029542D01*
X0012179Y0029783D01*
X0012193Y0030024D01*
X0012214Y0030265D01*
X0012240Y0030505D01*
X0012272Y0030745D01*
X0012310Y0030984D01*
X0012353Y0031221D01*
X0012403Y0031458D01*
X0012458Y0031693D01*
X0012518Y0031927D01*
X0012585Y0032159D01*
X0012656Y0032390D01*
X0012734Y0032619D01*
X0012817Y0032846D01*
X0012905Y0033071D01*
X0012999Y0033294D01*
X0013098Y0033514D01*
X0013203Y0033732D01*
X0013312Y0033947D01*
X0013427Y0034160D01*
X0013547Y0034370D01*
X0013672Y0034576D01*
X0013802Y0034780D01*
X0013937Y0034981D01*
X0014077Y0035178D01*
X0014221Y0035372D01*
X0014370Y0035562D01*
X0014524Y0035748D01*
X0014682Y0035931D01*
X0014844Y0036110D01*
X0015011Y0036285D01*
X0015182Y0036456D01*
X0015357Y0036623D01*
X0015536Y0036785D01*
X0015719Y0036943D01*
X0015905Y0037097D01*
X0016095Y0037246D01*
X0016289Y0037390D01*
X0016486Y0037530D01*
X0016687Y0037665D01*
X0016891Y0037795D01*
X0017097Y0037920D01*
X0017307Y0038040D01*
X0017520Y0038155D01*
X0017735Y0038264D01*
X0017953Y0038369D01*
X0018173Y0038468D01*
X0018396Y0038562D01*
X0018621Y0038650D01*
X0018848Y0038733D01*
X0019077Y0038811D01*
X0019308Y0038882D01*
X0019540Y0038949D01*
X0019774Y0039009D01*
X0020009Y0039064D01*
X0020246Y0039114D01*
X0020483Y0039157D01*
X0020722Y0039195D01*
X0020962Y0039227D01*
X0021202Y0039253D01*
X0021443Y0039274D01*
X0021684Y0039288D01*
X0021925Y0039297D01*
X0022167Y0039300D01*
X0073417Y0039300D01*
X0073659Y0039303D01*
X0073900Y0039312D01*
X0074141Y0039326D01*
X0074382Y0039347D01*
X0074622Y0039373D01*
X0074862Y0039405D01*
X0075101Y0039443D01*
X0075338Y0039486D01*
X0075575Y0039536D01*
X0075810Y0039591D01*
X0076044Y0039651D01*
X0076276Y0039718D01*
X0076507Y0039789D01*
X0076736Y0039867D01*
X0076963Y0039950D01*
X0077188Y0040038D01*
X0077411Y0040132D01*
X0077631Y0040231D01*
X0077849Y0040336D01*
X0078064Y0040445D01*
X0078277Y0040560D01*
X0078487Y0040680D01*
X0078693Y0040805D01*
X0078897Y0040935D01*
X0079098Y0041070D01*
X0079295Y0041210D01*
X0079489Y0041354D01*
X0079679Y0041503D01*
X0079865Y0041657D01*
X0080048Y0041815D01*
X0080227Y0041977D01*
X0080402Y0042144D01*
X0080573Y0042315D01*
X0080740Y0042490D01*
X0080902Y0042669D01*
X0081060Y0042852D01*
X0081214Y0043038D01*
X0081363Y0043228D01*
X0081507Y0043422D01*
X0081647Y0043619D01*
X0081782Y0043820D01*
X0081912Y0044024D01*
X0082037Y0044230D01*
X0082157Y0044440D01*
X0082272Y0044653D01*
X0082381Y0044868D01*
X0082486Y0045086D01*
X0082585Y0045306D01*
X0082679Y0045529D01*
X0082767Y0045754D01*
X0082850Y0045981D01*
X0082928Y0046210D01*
X0082999Y0046441D01*
X0083066Y0046673D01*
X0083126Y0046907D01*
X0083181Y0047142D01*
X0083231Y0047379D01*
X0083274Y0047616D01*
X0083312Y0047855D01*
X0083344Y0048095D01*
X0083370Y0048335D01*
X0083391Y0048576D01*
X0083405Y0048817D01*
X0083414Y0049058D01*
X0083417Y0049300D01*
X0083417Y0051800D01*
X0083419Y0051898D01*
X0083425Y0051996D01*
X0083434Y0052094D01*
X0083448Y0052191D01*
X0083465Y0052288D01*
X0083486Y0052384D01*
X0083511Y0052479D01*
X0083539Y0052573D01*
X0083572Y0052665D01*
X0083607Y0052757D01*
X0083647Y0052847D01*
X0083689Y0052935D01*
X0083736Y0053022D01*
X0083785Y0053106D01*
X0083838Y0053189D01*
X0083894Y0053269D01*
X0083954Y0053348D01*
X0084016Y0053424D01*
X0084081Y0053497D01*
X0084149Y0053568D01*
X0084220Y0053636D01*
X0084293Y0053701D01*
X0084369Y0053763D01*
X0084448Y0053823D01*
X0084528Y0053879D01*
X0084611Y0053932D01*
X0084695Y0053981D01*
X0084782Y0054028D01*
X0084870Y0054070D01*
X0084960Y0054110D01*
X0085052Y0054145D01*
X0085144Y0054178D01*
X0085238Y0054206D01*
X0085333Y0054231D01*
X0085429Y0054252D01*
X0085526Y0054269D01*
X0085623Y0054283D01*
X0085721Y0054292D01*
X0085819Y0054298D01*
X0085917Y0054300D01*
X0086037Y0054302D01*
X0086157Y0054308D01*
X0086277Y0054317D01*
X0086397Y0054331D01*
X0086515Y0054348D01*
X0086634Y0054369D01*
X0086751Y0054394D01*
X0086868Y0054423D01*
X0086984Y0054455D01*
X0087099Y0054491D01*
X0087212Y0054531D01*
X0087324Y0054574D01*
X0087435Y0054621D01*
X0087544Y0054671D01*
X0087652Y0054725D01*
X0087757Y0054783D01*
X0087861Y0054843D01*
X0087963Y0054907D01*
X0088062Y0054974D01*
X0088160Y0055045D01*
X0088255Y0055118D01*
X0088348Y0055195D01*
X0088438Y0055274D01*
X0088526Y0055356D01*
X0088611Y0055441D01*
X0088693Y0055529D01*
X0088772Y0055619D01*
X0088849Y0055712D01*
X0088922Y0055807D01*
X0088993Y0055905D01*
X0089060Y0056004D01*
X0089124Y0056106D01*
X0089184Y0056210D01*
X0089242Y0056315D01*
X0089296Y0056423D01*
X0089346Y0056532D01*
X0089393Y0056643D01*
X0089436Y0056755D01*
X0089476Y0056868D01*
X0089512Y0056983D01*
X0089544Y0057099D01*
X0089573Y0057216D01*
X0089598Y0057333D01*
X0089619Y0057452D01*
X0089636Y0057570D01*
X0089650Y0057690D01*
X0089659Y0057810D01*
X0089665Y0057930D01*
X0089667Y0058050D01*
X0089667Y0081800D01*
X0089667Y0149300D01*
X0079667Y0151800D02*
X0069667Y0151800D01*
X0069425Y0151803D01*
X0069184Y0151812D01*
X0068943Y0151826D01*
X0068702Y0151847D01*
X0068462Y0151873D01*
X0068222Y0151905D01*
X0067983Y0151943D01*
X0067746Y0151986D01*
X0067509Y0152036D01*
X0067274Y0152091D01*
X0067040Y0152151D01*
X0066808Y0152218D01*
X0066577Y0152289D01*
X0066348Y0152367D01*
X0066121Y0152450D01*
X0065896Y0152538D01*
X0065673Y0152632D01*
X0065453Y0152731D01*
X0065235Y0152836D01*
X0065020Y0152945D01*
X0064807Y0153060D01*
X0064597Y0153180D01*
X0064391Y0153305D01*
X0064187Y0153435D01*
X0063986Y0153570D01*
X0063789Y0153710D01*
X0063595Y0153854D01*
X0063405Y0154003D01*
X0063219Y0154157D01*
X0063036Y0154315D01*
X0062857Y0154477D01*
X0062682Y0154644D01*
X0062511Y0154815D01*
X0062344Y0154990D01*
X0062182Y0155169D01*
X0062024Y0155352D01*
X0061870Y0155538D01*
X0061721Y0155728D01*
X0061577Y0155922D01*
X0061437Y0156119D01*
X0061302Y0156320D01*
X0061172Y0156524D01*
X0061047Y0156730D01*
X0060927Y0156940D01*
X0060812Y0157153D01*
X0060703Y0157368D01*
X0060598Y0157586D01*
X0060499Y0157806D01*
X0060405Y0158029D01*
X0060317Y0158254D01*
X0060234Y0158481D01*
X0060156Y0158710D01*
X0060085Y0158941D01*
X0060018Y0159173D01*
X0059958Y0159407D01*
X0059903Y0159642D01*
X0059853Y0159879D01*
X0059810Y0160116D01*
X0059772Y0160355D01*
X0059740Y0160595D01*
X0059714Y0160835D01*
X0059693Y0161076D01*
X0059679Y0161317D01*
X0059670Y0161558D01*
X0059667Y0161800D01*
X0059667Y0174300D01*
X0047167Y0174300D02*
X0014667Y0174300D01*
X0067167Y0161800D02*
X0102167Y0161800D01*
X0177167Y0161800D01*
X0177409Y0161803D01*
X0177650Y0161812D01*
X0177891Y0161826D01*
X0178132Y0161847D01*
X0178372Y0161873D01*
X0178612Y0161905D01*
X0178851Y0161943D01*
X0179088Y0161986D01*
X0179325Y0162036D01*
X0179560Y0162091D01*
X0179794Y0162151D01*
X0180026Y0162218D01*
X0180257Y0162289D01*
X0180486Y0162367D01*
X0180713Y0162450D01*
X0180938Y0162538D01*
X0181161Y0162632D01*
X0181381Y0162731D01*
X0181599Y0162836D01*
X0181814Y0162945D01*
X0182027Y0163060D01*
X0182237Y0163180D01*
X0182443Y0163305D01*
X0182647Y0163435D01*
X0182848Y0163570D01*
X0183045Y0163710D01*
X0183239Y0163854D01*
X0183429Y0164003D01*
X0183615Y0164157D01*
X0183798Y0164315D01*
X0183977Y0164477D01*
X0184152Y0164644D01*
X0184323Y0164815D01*
X0184490Y0164990D01*
X0184652Y0165169D01*
X0184810Y0165352D01*
X0184964Y0165538D01*
X0185113Y0165728D01*
X0185257Y0165922D01*
X0185397Y0166119D01*
X0185532Y0166320D01*
X0185662Y0166524D01*
X0185787Y0166730D01*
X0185907Y0166940D01*
X0186022Y0167153D01*
X0186131Y0167368D01*
X0186236Y0167586D01*
X0186335Y0167806D01*
X0186429Y0168029D01*
X0186517Y0168254D01*
X0186600Y0168481D01*
X0186678Y0168710D01*
X0186749Y0168941D01*
X0186816Y0169173D01*
X0186876Y0169407D01*
X0186931Y0169642D01*
X0186981Y0169879D01*
X0187024Y0170116D01*
X0187062Y0170355D01*
X0187094Y0170595D01*
X0187120Y0170835D01*
X0187141Y0171076D01*
X0187155Y0171317D01*
X0187164Y0171558D01*
X0187167Y0171800D01*
X0187167Y0196800D01*
X0247167Y0196800D01*
X0297167Y0196800D02*
X0297167Y0161800D01*
X0297164Y0161558D01*
X0297155Y0161317D01*
X0297141Y0161076D01*
X0297120Y0160835D01*
X0297094Y0160595D01*
X0297062Y0160355D01*
X0297024Y0160116D01*
X0296981Y0159879D01*
X0296931Y0159642D01*
X0296876Y0159407D01*
X0296816Y0159173D01*
X0296749Y0158941D01*
X0296678Y0158710D01*
X0296600Y0158481D01*
X0296517Y0158254D01*
X0296429Y0158029D01*
X0296335Y0157806D01*
X0296236Y0157586D01*
X0296131Y0157368D01*
X0296022Y0157153D01*
X0295907Y0156940D01*
X0295787Y0156730D01*
X0295662Y0156524D01*
X0295532Y0156320D01*
X0295397Y0156119D01*
X0295257Y0155922D01*
X0295113Y0155728D01*
X0294964Y0155538D01*
X0294810Y0155352D01*
X0294652Y0155169D01*
X0294490Y0154990D01*
X0294323Y0154815D01*
X0294152Y0154644D01*
X0293977Y0154477D01*
X0293798Y0154315D01*
X0293615Y0154157D01*
X0293429Y0154003D01*
X0293239Y0153854D01*
X0293045Y0153710D01*
X0292848Y0153570D01*
X0292647Y0153435D01*
X0292443Y0153305D01*
X0292237Y0153180D01*
X0292027Y0153060D01*
X0291814Y0152945D01*
X0291599Y0152836D01*
X0291381Y0152731D01*
X0291161Y0152632D01*
X0290938Y0152538D01*
X0290713Y0152450D01*
X0290486Y0152367D01*
X0290257Y0152289D01*
X0290026Y0152218D01*
X0289794Y0152151D01*
X0289560Y0152091D01*
X0289325Y0152036D01*
X0289088Y0151986D01*
X0288851Y0151943D01*
X0288612Y0151905D01*
X0288372Y0151873D01*
X0288132Y0151847D01*
X0287891Y0151826D01*
X0287650Y0151812D01*
X0287409Y0151803D01*
X0287167Y0151800D01*
X0234667Y0151800D01*
X0119667Y0151800D01*
X0119425Y0151797D01*
X0119184Y0151788D01*
X0118943Y0151774D01*
X0118702Y0151753D01*
X0118462Y0151727D01*
X0118222Y0151695D01*
X0117983Y0151657D01*
X0117746Y0151614D01*
X0117509Y0151564D01*
X0117274Y0151509D01*
X0117040Y0151449D01*
X0116808Y0151382D01*
X0116577Y0151311D01*
X0116348Y0151233D01*
X0116121Y0151150D01*
X0115896Y0151062D01*
X0115673Y0150968D01*
X0115453Y0150869D01*
X0115235Y0150764D01*
X0115020Y0150655D01*
X0114807Y0150540D01*
X0114597Y0150420D01*
X0114391Y0150295D01*
X0114187Y0150165D01*
X0113986Y0150030D01*
X0113789Y0149890D01*
X0113595Y0149746D01*
X0113405Y0149597D01*
X0113219Y0149443D01*
X0113036Y0149285D01*
X0112857Y0149123D01*
X0112682Y0148956D01*
X0112511Y0148785D01*
X0112344Y0148610D01*
X0112182Y0148431D01*
X0112024Y0148248D01*
X0111870Y0148062D01*
X0111721Y0147872D01*
X0111577Y0147678D01*
X0111437Y0147481D01*
X0111302Y0147280D01*
X0111172Y0147076D01*
X0111047Y0146870D01*
X0110927Y0146660D01*
X0110812Y0146447D01*
X0110703Y0146232D01*
X0110598Y0146014D01*
X0110499Y0145794D01*
X0110405Y0145571D01*
X0110317Y0145346D01*
X0110234Y0145119D01*
X0110156Y0144890D01*
X0110085Y0144659D01*
X0110018Y0144427D01*
X0109958Y0144193D01*
X0109903Y0143958D01*
X0109853Y0143721D01*
X0109810Y0143484D01*
X0109772Y0143245D01*
X0109740Y0143005D01*
X0109714Y0142765D01*
X0109693Y0142524D01*
X0109679Y0142283D01*
X0109670Y0142042D01*
X0109667Y0141800D01*
X0109667Y0119300D01*
X0109667Y0064300D01*
X0109667Y0056800D01*
X0109667Y0054300D01*
X0103417Y0058050D02*
X0095917Y0058050D01*
X0095917Y0060550D01*
X0103417Y0058050D02*
X0103573Y0058052D01*
X0103729Y0058058D01*
X0103884Y0058067D01*
X0104039Y0058081D01*
X0104194Y0058099D01*
X0104349Y0058120D01*
X0104502Y0058145D01*
X0104655Y0058174D01*
X0104808Y0058207D01*
X0104959Y0058243D01*
X0105110Y0058284D01*
X0105259Y0058328D01*
X0105408Y0058375D01*
X0105555Y0058427D01*
X0105700Y0058482D01*
X0105845Y0058541D01*
X0105988Y0058603D01*
X0106129Y0058669D01*
X0106268Y0058738D01*
X0106406Y0058811D01*
X0106542Y0058887D01*
X0106676Y0058967D01*
X0106808Y0059050D01*
X0106938Y0059136D01*
X0107065Y0059225D01*
X0107191Y0059318D01*
X0107314Y0059414D01*
X0107434Y0059512D01*
X0107553Y0059614D01*
X0107668Y0059718D01*
X0107781Y0059826D01*
X0107891Y0059936D01*
X0107999Y0060049D01*
X0108103Y0060164D01*
X0108205Y0060283D01*
X0108303Y0060403D01*
X0108399Y0060526D01*
X0108492Y0060652D01*
X0108581Y0060779D01*
X0108667Y0060909D01*
X0108750Y0061041D01*
X0108830Y0061175D01*
X0108906Y0061311D01*
X0108979Y0061449D01*
X0109048Y0061588D01*
X0109114Y0061729D01*
X0109176Y0061872D01*
X0109235Y0062017D01*
X0109290Y0062162D01*
X0109342Y0062309D01*
X0109389Y0062458D01*
X0109433Y0062607D01*
X0109474Y0062758D01*
X0109510Y0062909D01*
X0109543Y0063062D01*
X0109572Y0063215D01*
X0109597Y0063368D01*
X0109618Y0063523D01*
X0109636Y0063678D01*
X0109650Y0063833D01*
X0109659Y0063988D01*
X0109665Y0064144D01*
X0109667Y0064300D01*
X0109667Y0056800D02*
X0109670Y0056558D01*
X0109679Y0056317D01*
X0109693Y0056076D01*
X0109714Y0055835D01*
X0109740Y0055595D01*
X0109772Y0055355D01*
X0109810Y0055116D01*
X0109853Y0054879D01*
X0109903Y0054642D01*
X0109958Y0054407D01*
X0110018Y0054173D01*
X0110085Y0053941D01*
X0110156Y0053710D01*
X0110234Y0053481D01*
X0110317Y0053254D01*
X0110405Y0053029D01*
X0110499Y0052806D01*
X0110598Y0052586D01*
X0110703Y0052368D01*
X0110812Y0052153D01*
X0110927Y0051940D01*
X0111047Y0051730D01*
X0111172Y0051524D01*
X0111302Y0051320D01*
X0111437Y0051119D01*
X0111577Y0050922D01*
X0111721Y0050728D01*
X0111870Y0050538D01*
X0112024Y0050352D01*
X0112182Y0050169D01*
X0112344Y0049990D01*
X0112511Y0049815D01*
X0112682Y0049644D01*
X0112857Y0049477D01*
X0113036Y0049315D01*
X0113219Y0049157D01*
X0113405Y0049003D01*
X0113595Y0048854D01*
X0113789Y0048710D01*
X0113986Y0048570D01*
X0114187Y0048435D01*
X0114391Y0048305D01*
X0114597Y0048180D01*
X0114807Y0048060D01*
X0115020Y0047945D01*
X0115235Y0047836D01*
X0115453Y0047731D01*
X0115673Y0047632D01*
X0115896Y0047538D01*
X0116121Y0047450D01*
X0116348Y0047367D01*
X0116577Y0047289D01*
X0116808Y0047218D01*
X0117040Y0047151D01*
X0117274Y0047091D01*
X0117509Y0047036D01*
X0117746Y0046986D01*
X0117983Y0046943D01*
X0118222Y0046905D01*
X0118462Y0046873D01*
X0118702Y0046847D01*
X0118943Y0046826D01*
X0119184Y0046812D01*
X0119425Y0046803D01*
X0119667Y0046800D01*
X0160917Y0046800D01*
X0180917Y0083040D02*
X0180917Y0094300D01*
X0180920Y0094572D01*
X0180930Y0094844D01*
X0180947Y0095115D01*
X0180970Y0095386D01*
X0180999Y0095656D01*
X0181035Y0095926D01*
X0181078Y0096194D01*
X0181127Y0096461D01*
X0181182Y0096728D01*
X0181244Y0096992D01*
X0181312Y0097255D01*
X0181387Y0097517D01*
X0181468Y0097776D01*
X0181555Y0098034D01*
X0181648Y0098289D01*
X0181748Y0098542D01*
X0181853Y0098793D01*
X0181965Y0099041D01*
X0182082Y0099286D01*
X0182206Y0099528D01*
X0182335Y0099767D01*
X0182470Y0100003D01*
X0182610Y0100236D01*
X0182757Y0100465D01*
X0182908Y0100691D01*
X0183066Y0100913D01*
X0183228Y0101131D01*
X0183396Y0101345D01*
X0183568Y0101554D01*
X0183746Y0101760D01*
X0183929Y0101961D01*
X0184117Y0102158D01*
X0184309Y0102350D01*
X0184506Y0102538D01*
X0184707Y0102721D01*
X0184913Y0102899D01*
X0185122Y0103071D01*
X0185336Y0103239D01*
X0185554Y0103401D01*
X0185776Y0103559D01*
X0186002Y0103710D01*
X0186231Y0103857D01*
X0186464Y0103997D01*
X0186700Y0104132D01*
X0186939Y0104261D01*
X0187181Y0104385D01*
X0187426Y0104502D01*
X0187674Y0104614D01*
X0187925Y0104719D01*
X0188178Y0104819D01*
X0188433Y0104912D01*
X0188691Y0104999D01*
X0188950Y0105080D01*
X0189212Y0105155D01*
X0189475Y0105223D01*
X0189739Y0105285D01*
X0190006Y0105340D01*
X0190273Y0105389D01*
X0190541Y0105432D01*
X0190811Y0105468D01*
X0191081Y0105497D01*
X0191352Y0105520D01*
X0191623Y0105537D01*
X0191895Y0105547D01*
X0192167Y0105550D01*
X0317167Y0105550D01*
X0319667Y0105550D01*
X0319909Y0105553D01*
X0320150Y0105562D01*
X0320391Y0105576D01*
X0320632Y0105597D01*
X0320872Y0105623D01*
X0321112Y0105655D01*
X0321351Y0105693D01*
X0321588Y0105736D01*
X0321825Y0105786D01*
X0322060Y0105841D01*
X0322294Y0105901D01*
X0322526Y0105968D01*
X0322757Y0106039D01*
X0322986Y0106117D01*
X0323213Y0106200D01*
X0323438Y0106288D01*
X0323661Y0106382D01*
X0323881Y0106481D01*
X0324099Y0106586D01*
X0324314Y0106695D01*
X0324527Y0106810D01*
X0324737Y0106930D01*
X0324943Y0107055D01*
X0325147Y0107185D01*
X0325348Y0107320D01*
X0325545Y0107460D01*
X0325739Y0107604D01*
X0325929Y0107753D01*
X0326115Y0107907D01*
X0326298Y0108065D01*
X0326477Y0108227D01*
X0326652Y0108394D01*
X0326823Y0108565D01*
X0326990Y0108740D01*
X0327152Y0108919D01*
X0327310Y0109102D01*
X0327464Y0109288D01*
X0327613Y0109478D01*
X0327757Y0109672D01*
X0327897Y0109869D01*
X0328032Y0110070D01*
X0328162Y0110274D01*
X0328287Y0110480D01*
X0328407Y0110690D01*
X0328522Y0110903D01*
X0328631Y0111118D01*
X0328736Y0111336D01*
X0328835Y0111556D01*
X0328929Y0111779D01*
X0329017Y0112004D01*
X0329100Y0112231D01*
X0329178Y0112460D01*
X0329249Y0112691D01*
X0329316Y0112923D01*
X0329376Y0113157D01*
X0329431Y0113392D01*
X0329481Y0113629D01*
X0329524Y0113866D01*
X0329562Y0114105D01*
X0329594Y0114345D01*
X0329620Y0114585D01*
X0329641Y0114826D01*
X0329655Y0115067D01*
X0329664Y0115308D01*
X0329667Y0115550D01*
X0329667Y0186800D01*
X0329664Y0187042D01*
X0329655Y0187283D01*
X0329641Y0187524D01*
X0329620Y0187765D01*
X0329594Y0188005D01*
X0329562Y0188245D01*
X0329524Y0188484D01*
X0329481Y0188721D01*
X0329431Y0188958D01*
X0329376Y0189193D01*
X0329316Y0189427D01*
X0329249Y0189659D01*
X0329178Y0189890D01*
X0329100Y0190119D01*
X0329017Y0190346D01*
X0328929Y0190571D01*
X0328835Y0190794D01*
X0328736Y0191014D01*
X0328631Y0191232D01*
X0328522Y0191447D01*
X0328407Y0191660D01*
X0328287Y0191870D01*
X0328162Y0192076D01*
X0328032Y0192280D01*
X0327897Y0192481D01*
X0327757Y0192678D01*
X0327613Y0192872D01*
X0327464Y0193062D01*
X0327310Y0193248D01*
X0327152Y0193431D01*
X0326990Y0193610D01*
X0326823Y0193785D01*
X0326652Y0193956D01*
X0326477Y0194123D01*
X0326298Y0194285D01*
X0326115Y0194443D01*
X0325929Y0194597D01*
X0325739Y0194746D01*
X0325545Y0194890D01*
X0325348Y0195030D01*
X0325147Y0195165D01*
X0324943Y0195295D01*
X0324737Y0195420D01*
X0324527Y0195540D01*
X0324314Y0195655D01*
X0324099Y0195764D01*
X0323881Y0195869D01*
X0323661Y0195968D01*
X0323438Y0196062D01*
X0323213Y0196150D01*
X0322986Y0196233D01*
X0322757Y0196311D01*
X0322526Y0196382D01*
X0322294Y0196449D01*
X0322060Y0196509D01*
X0321825Y0196564D01*
X0321588Y0196614D01*
X0321351Y0196657D01*
X0321112Y0196695D01*
X0320872Y0196727D01*
X0320632Y0196753D01*
X0320391Y0196774D01*
X0320150Y0196788D01*
X0319909Y0196797D01*
X0319667Y0196800D01*
X0307167Y0196800D01*
X0304667Y0130560D02*
X0304667Y0118050D01*
X0304671Y0117748D01*
X0304682Y0117446D01*
X0304700Y0117145D01*
X0304725Y0116844D01*
X0304758Y0116543D01*
X0304798Y0116244D01*
X0304845Y0115946D01*
X0304900Y0115648D01*
X0304961Y0115353D01*
X0305030Y0115059D01*
X0305106Y0114766D01*
X0305189Y0114476D01*
X0305279Y0114187D01*
X0305376Y0113901D01*
X0305479Y0113617D01*
X0305590Y0113336D01*
X0305707Y0113058D01*
X0305831Y0112782D01*
X0305962Y0112510D01*
X0306099Y0112241D01*
X0306242Y0111975D01*
X0306392Y0111713D01*
X0306549Y0111454D01*
X0306711Y0111200D01*
X0306880Y0110949D01*
X0307054Y0110703D01*
X0307235Y0110460D01*
X0307421Y0110223D01*
X0307613Y0109989D01*
X0307811Y0109761D01*
X0308014Y0109537D01*
X0308222Y0109319D01*
X0308436Y0109105D01*
X0308654Y0108897D01*
X0308878Y0108694D01*
X0309106Y0108496D01*
X0309340Y0108304D01*
X0309577Y0108118D01*
X0309820Y0107937D01*
X0310066Y0107763D01*
X0310317Y0107594D01*
X0310571Y0107432D01*
X0310830Y0107275D01*
X0311092Y0107125D01*
X0311358Y0106982D01*
X0311627Y0106845D01*
X0311899Y0106714D01*
X0312175Y0106590D01*
X0312453Y0106473D01*
X0312734Y0106362D01*
X0313018Y0106259D01*
X0313304Y0106162D01*
X0313593Y0106072D01*
X0313883Y0105989D01*
X0314176Y0105913D01*
X0314470Y0105844D01*
X0314765Y0105783D01*
X0315063Y0105728D01*
X0315361Y0105681D01*
X0315660Y0105641D01*
X0315961Y0105608D01*
X0316262Y0105583D01*
X0316563Y0105565D01*
X0316865Y0105554D01*
X0317167Y0105550D01*
X0319667Y0105550D02*
X0319305Y0105546D01*
X0318942Y0105532D01*
X0318580Y0105511D01*
X0318219Y0105480D01*
X0317859Y0105441D01*
X0317500Y0105393D01*
X0317142Y0105336D01*
X0316785Y0105271D01*
X0316430Y0105197D01*
X0316077Y0105114D01*
X0315726Y0105023D01*
X0315378Y0104924D01*
X0315032Y0104816D01*
X0314688Y0104700D01*
X0314348Y0104575D01*
X0314011Y0104443D01*
X0313677Y0104302D01*
X0313346Y0104153D01*
X0313019Y0103996D01*
X0312696Y0103832D01*
X0312377Y0103660D01*
X0312063Y0103480D01*
X0311752Y0103292D01*
X0311447Y0103097D01*
X0311146Y0102895D01*
X0310850Y0102685D01*
X0310560Y0102469D01*
X0310274Y0102245D01*
X0309994Y0102015D01*
X0309720Y0101778D01*
X0309452Y0101534D01*
X0309189Y0101284D01*
X0308933Y0101028D01*
X0308683Y0100765D01*
X0308439Y0100497D01*
X0308202Y0100223D01*
X0307972Y0099943D01*
X0307748Y0099657D01*
X0307532Y0099367D01*
X0307322Y0099071D01*
X0307120Y0098770D01*
X0306925Y0098465D01*
X0306737Y0098154D01*
X0306557Y0097840D01*
X0306385Y0097521D01*
X0306221Y0097198D01*
X0306064Y0096871D01*
X0305915Y0096540D01*
X0305774Y0096206D01*
X0305642Y0095869D01*
X0305517Y0095529D01*
X0305401Y0095185D01*
X0305293Y0094839D01*
X0305194Y0094491D01*
X0305103Y0094140D01*
X0305020Y0093787D01*
X0304946Y0093432D01*
X0304881Y0093075D01*
X0304824Y0092717D01*
X0304776Y0092358D01*
X0304737Y0091998D01*
X0304706Y0091637D01*
X0304685Y0091275D01*
X0304671Y0090912D01*
X0304667Y0090550D01*
X0304667Y0083040D01*
X0192167Y0105550D02*
X0190917Y0105550D01*
X0192167Y0105550D02*
X0191895Y0105553D01*
X0191623Y0105563D01*
X0191352Y0105580D01*
X0191081Y0105603D01*
X0190811Y0105632D01*
X0190541Y0105668D01*
X0190273Y0105711D01*
X0190006Y0105760D01*
X0189739Y0105815D01*
X0189475Y0105877D01*
X0189212Y0105945D01*
X0188950Y0106020D01*
X0188691Y0106101D01*
X0188433Y0106188D01*
X0188178Y0106281D01*
X0187925Y0106381D01*
X0187674Y0106486D01*
X0187426Y0106598D01*
X0187181Y0106715D01*
X0186939Y0106839D01*
X0186700Y0106968D01*
X0186464Y0107103D01*
X0186231Y0107243D01*
X0186002Y0107390D01*
X0185776Y0107541D01*
X0185554Y0107699D01*
X0185336Y0107861D01*
X0185122Y0108029D01*
X0184913Y0108201D01*
X0184707Y0108379D01*
X0184506Y0108562D01*
X0184309Y0108750D01*
X0184117Y0108942D01*
X0183929Y0109139D01*
X0183746Y0109340D01*
X0183568Y0109546D01*
X0183396Y0109755D01*
X0183228Y0109969D01*
X0183066Y0110187D01*
X0182908Y0110409D01*
X0182757Y0110635D01*
X0182610Y0110864D01*
X0182470Y0111097D01*
X0182335Y0111333D01*
X0182206Y0111572D01*
X0182082Y0111814D01*
X0181965Y0112059D01*
X0181853Y0112307D01*
X0181748Y0112558D01*
X0181648Y0112811D01*
X0181555Y0113066D01*
X0181468Y0113324D01*
X0181387Y0113583D01*
X0181312Y0113845D01*
X0181244Y0114108D01*
X0181182Y0114372D01*
X0181127Y0114639D01*
X0181078Y0114906D01*
X0181035Y0115174D01*
X0180999Y0115444D01*
X0180970Y0115714D01*
X0180947Y0115985D01*
X0180930Y0116256D01*
X0180920Y0116528D01*
X0180917Y0116800D01*
X0180917Y0129310D01*
X0168417Y0123050D02*
X0168417Y0090550D01*
X0109667Y0054300D02*
X0109665Y0054119D01*
X0109658Y0053938D01*
X0109647Y0053757D01*
X0109632Y0053576D01*
X0109612Y0053396D01*
X0109588Y0053216D01*
X0109560Y0053037D01*
X0109527Y0052859D01*
X0109490Y0052682D01*
X0109449Y0052505D01*
X0109404Y0052330D01*
X0109354Y0052155D01*
X0109300Y0051982D01*
X0109242Y0051811D01*
X0109180Y0051640D01*
X0109113Y0051472D01*
X0109043Y0051305D01*
X0108969Y0051139D01*
X0108890Y0050976D01*
X0108808Y0050815D01*
X0108722Y0050655D01*
X0108632Y0050498D01*
X0108538Y0050343D01*
X0108441Y0050190D01*
X0108339Y0050040D01*
X0108235Y0049892D01*
X0108126Y0049746D01*
X0108015Y0049604D01*
X0107899Y0049464D01*
X0107781Y0049327D01*
X0107659Y0049192D01*
X0107534Y0049061D01*
X0107406Y0048933D01*
X0107275Y0048808D01*
X0107140Y0048686D01*
X0107003Y0048568D01*
X0106863Y0048452D01*
X0106721Y0048341D01*
X0106575Y0048232D01*
X0106427Y0048128D01*
X0106277Y0048026D01*
X0106124Y0047929D01*
X0105969Y0047835D01*
X0105812Y0047745D01*
X0105652Y0047659D01*
X0105491Y0047577D01*
X0105328Y0047498D01*
X0105162Y0047424D01*
X0104995Y0047354D01*
X0104827Y0047287D01*
X0104656Y0047225D01*
X0104485Y0047167D01*
X0104312Y0047113D01*
X0104137Y0047063D01*
X0103962Y0047018D01*
X0103785Y0046977D01*
X0103608Y0046940D01*
X0103430Y0046907D01*
X0103251Y0046879D01*
X0103071Y0046855D01*
X0102891Y0046835D01*
X0102710Y0046820D01*
X0102529Y0046809D01*
X0102348Y0046802D01*
X0102167Y0046800D01*
X0099667Y0046800D01*
X0099425Y0046797D01*
X0099184Y0046788D01*
X0098943Y0046774D01*
X0098702Y0046753D01*
X0098462Y0046727D01*
X0098222Y0046695D01*
X0097983Y0046657D01*
X0097746Y0046614D01*
X0097509Y0046564D01*
X0097274Y0046509D01*
X0097040Y0046449D01*
X0096808Y0046382D01*
X0096577Y0046311D01*
X0096348Y0046233D01*
X0096121Y0046150D01*
X0095896Y0046062D01*
X0095673Y0045968D01*
X0095453Y0045869D01*
X0095235Y0045764D01*
X0095020Y0045655D01*
X0094807Y0045540D01*
X0094597Y0045420D01*
X0094391Y0045295D01*
X0094187Y0045165D01*
X0093986Y0045030D01*
X0093789Y0044890D01*
X0093595Y0044746D01*
X0093405Y0044597D01*
X0093219Y0044443D01*
X0093036Y0044285D01*
X0092857Y0044123D01*
X0092682Y0043956D01*
X0092511Y0043785D01*
X0092344Y0043610D01*
X0092182Y0043431D01*
X0092024Y0043248D01*
X0091870Y0043062D01*
X0091721Y0042872D01*
X0091577Y0042678D01*
X0091437Y0042481D01*
X0091302Y0042280D01*
X0091172Y0042076D01*
X0091047Y0041870D01*
X0090927Y0041660D01*
X0090812Y0041447D01*
X0090703Y0041232D01*
X0090598Y0041014D01*
X0090499Y0040794D01*
X0090405Y0040571D01*
X0090317Y0040346D01*
X0090234Y0040119D01*
X0090156Y0039890D01*
X0090085Y0039659D01*
X0090018Y0039427D01*
X0089958Y0039193D01*
X0089903Y0038958D01*
X0089853Y0038721D01*
X0089810Y0038484D01*
X0089772Y0038245D01*
X0089740Y0038005D01*
X0089714Y0037765D01*
X0089693Y0037524D01*
X0089679Y0037283D01*
X0089670Y0037042D01*
X0089667Y0036800D01*
X0089667Y0034300D01*
X0083417Y0030550D02*
X0083419Y0030394D01*
X0083425Y0030238D01*
X0083434Y0030083D01*
X0083448Y0029928D01*
X0083466Y0029773D01*
X0083487Y0029618D01*
X0083512Y0029465D01*
X0083541Y0029312D01*
X0083574Y0029159D01*
X0083610Y0029008D01*
X0083651Y0028857D01*
X0083695Y0028708D01*
X0083742Y0028559D01*
X0083794Y0028412D01*
X0083849Y0028267D01*
X0083908Y0028122D01*
X0083970Y0027979D01*
X0084036Y0027838D01*
X0084105Y0027699D01*
X0084178Y0027561D01*
X0084254Y0027425D01*
X0084334Y0027291D01*
X0084417Y0027159D01*
X0084503Y0027029D01*
X0084592Y0026902D01*
X0084685Y0026776D01*
X0084781Y0026653D01*
X0084879Y0026533D01*
X0084981Y0026414D01*
X0085085Y0026299D01*
X0085193Y0026186D01*
X0085303Y0026076D01*
X0085416Y0025968D01*
X0085531Y0025864D01*
X0085650Y0025762D01*
X0085770Y0025664D01*
X0085893Y0025568D01*
X0086019Y0025475D01*
X0086146Y0025386D01*
X0086276Y0025300D01*
X0086408Y0025217D01*
X0086542Y0025137D01*
X0086678Y0025061D01*
X0086816Y0024988D01*
X0086955Y0024919D01*
X0087096Y0024853D01*
X0087239Y0024791D01*
X0087384Y0024732D01*
X0087529Y0024677D01*
X0087676Y0024625D01*
X0087825Y0024578D01*
X0087974Y0024534D01*
X0088125Y0024493D01*
X0088276Y0024457D01*
X0088429Y0024424D01*
X0088582Y0024395D01*
X0088735Y0024370D01*
X0088890Y0024349D01*
X0089045Y0024331D01*
X0089200Y0024317D01*
X0089355Y0024308D01*
X0089511Y0024302D01*
X0089667Y0024300D01*
X0083417Y0030550D02*
X0083417Y0049300D01*
X0095917Y0071800D02*
X0095917Y0075550D01*
X0095761Y0075552D01*
X0095605Y0075558D01*
X0095450Y0075567D01*
X0095295Y0075581D01*
X0095140Y0075599D01*
X0094985Y0075620D01*
X0094832Y0075645D01*
X0094679Y0075674D01*
X0094526Y0075707D01*
X0094375Y0075743D01*
X0094224Y0075784D01*
X0094075Y0075828D01*
X0093926Y0075875D01*
X0093779Y0075927D01*
X0093634Y0075982D01*
X0093489Y0076041D01*
X0093346Y0076103D01*
X0093205Y0076169D01*
X0093066Y0076238D01*
X0092928Y0076311D01*
X0092792Y0076387D01*
X0092658Y0076467D01*
X0092526Y0076550D01*
X0092396Y0076636D01*
X0092269Y0076725D01*
X0092143Y0076818D01*
X0092020Y0076914D01*
X0091900Y0077012D01*
X0091781Y0077114D01*
X0091666Y0077218D01*
X0091553Y0077326D01*
X0091443Y0077436D01*
X0091335Y0077549D01*
X0091231Y0077664D01*
X0091129Y0077783D01*
X0091031Y0077903D01*
X0090935Y0078026D01*
X0090842Y0078152D01*
X0090753Y0078279D01*
X0090667Y0078409D01*
X0090584Y0078541D01*
X0090504Y0078675D01*
X0090428Y0078811D01*
X0090355Y0078949D01*
X0090286Y0079088D01*
X0090220Y0079229D01*
X0090158Y0079372D01*
X0090099Y0079517D01*
X0090044Y0079662D01*
X0089992Y0079809D01*
X0089945Y0079958D01*
X0089901Y0080107D01*
X0089860Y0080258D01*
X0089824Y0080409D01*
X0089791Y0080562D01*
X0089762Y0080715D01*
X0089737Y0080868D01*
X0089716Y0081023D01*
X0089698Y0081178D01*
X0089684Y0081333D01*
X0089675Y0081488D01*
X0089669Y0081644D01*
X0089667Y0081800D01*
X0089667Y0149300D02*
X0089671Y0149602D01*
X0089682Y0149904D01*
X0089700Y0150205D01*
X0089725Y0150506D01*
X0089758Y0150807D01*
X0089798Y0151106D01*
X0089845Y0151404D01*
X0089900Y0151702D01*
X0089961Y0151997D01*
X0090030Y0152291D01*
X0090106Y0152584D01*
X0090189Y0152874D01*
X0090279Y0153163D01*
X0090376Y0153449D01*
X0090479Y0153733D01*
X0090590Y0154014D01*
X0090707Y0154292D01*
X0090831Y0154568D01*
X0090962Y0154840D01*
X0091099Y0155109D01*
X0091242Y0155375D01*
X0091392Y0155637D01*
X0091549Y0155896D01*
X0091711Y0156150D01*
X0091880Y0156401D01*
X0092054Y0156647D01*
X0092235Y0156890D01*
X0092421Y0157127D01*
X0092613Y0157361D01*
X0092811Y0157589D01*
X0093014Y0157813D01*
X0093222Y0158031D01*
X0093436Y0158245D01*
X0093654Y0158453D01*
X0093878Y0158656D01*
X0094106Y0158854D01*
X0094340Y0159046D01*
X0094577Y0159232D01*
X0094820Y0159413D01*
X0095066Y0159587D01*
X0095317Y0159756D01*
X0095571Y0159918D01*
X0095830Y0160075D01*
X0096092Y0160225D01*
X0096358Y0160368D01*
X0096627Y0160505D01*
X0096899Y0160636D01*
X0097175Y0160760D01*
X0097453Y0160877D01*
X0097734Y0160988D01*
X0098018Y0161091D01*
X0098304Y0161188D01*
X0098593Y0161278D01*
X0098883Y0161361D01*
X0099176Y0161437D01*
X0099470Y0161506D01*
X0099765Y0161567D01*
X0100063Y0161622D01*
X0100361Y0161669D01*
X0100660Y0161709D01*
X0100961Y0161742D01*
X0101262Y0161767D01*
X0101563Y0161785D01*
X0101865Y0161796D01*
X0102167Y0161800D01*
X0122167Y0196800D02*
X0124667Y0199300D01*
X0122167Y0196800D02*
X0167167Y0196800D01*
X0177167Y0196800D01*
D25*
X0247167Y0196800D03*
X0234667Y0151800D03*
X0174667Y0136800D03*
X0168417Y0123050D03*
X0168417Y0090550D03*
X0174667Y0075550D03*
X0312167Y0075550D03*
X0312167Y0138050D03*
D26*
X0313417Y0138040D01*
X0304667Y0138040D01*
X0304667Y0075560D02*
X0307167Y0075550D01*
X0312167Y0075550D01*
X0180917Y0075550D02*
X0180917Y0075560D01*
X0180917Y0075550D02*
X0174667Y0075550D01*
X0134667Y0066800D02*
X0114667Y0066800D01*
X0095917Y0070737D02*
X0095917Y0075550D01*
X0095917Y0070737D02*
X0094667Y0070737D01*
X0095917Y0062863D02*
X0095917Y0060550D01*
X0065292Y0063060D02*
X0065292Y0056800D01*
X0065292Y0056799D02*
X0065281Y0056656D01*
X0065267Y0056512D01*
X0065249Y0056369D01*
X0065227Y0056227D01*
X0065201Y0056085D01*
X0065171Y0055944D01*
X0065138Y0055804D01*
X0065100Y0055665D01*
X0065059Y0055527D01*
X0065015Y0055390D01*
X0064966Y0055254D01*
X0064914Y0055119D01*
X0064858Y0054987D01*
X0064799Y0054855D01*
X0064736Y0054726D01*
X0064670Y0054598D01*
X0064600Y0054471D01*
X0064527Y0054347D01*
X0064450Y0054225D01*
X0064370Y0054105D01*
X0064287Y0053987D01*
X0064201Y0053872D01*
X0064112Y0053759D01*
X0064019Y0053648D01*
X0063924Y0053540D01*
X0063826Y0053434D01*
X0063725Y0053332D01*
X0063621Y0053231D01*
X0063515Y0053134D01*
X0063406Y0053040D01*
X0063294Y0052949D01*
X0063180Y0052860D01*
X0063064Y0052775D01*
X0062945Y0052693D01*
X0062825Y0052615D01*
X0062702Y0052539D01*
X0062577Y0052467D01*
X0062450Y0052399D01*
X0062322Y0052333D01*
X0062191Y0052272D01*
X0062060Y0052214D01*
X0061926Y0052159D01*
X0061791Y0052108D01*
X0061655Y0052061D01*
X0061518Y0052017D01*
X0061379Y0051978D01*
X0061240Y0051941D01*
X0061099Y0051909D01*
X0060958Y0051881D01*
X0060816Y0051856D01*
X0060673Y0051835D01*
X0060530Y0051819D01*
X0060387Y0051806D01*
X0060243Y0051797D01*
X0060099Y0051791D01*
X0059955Y0051790D01*
X0059810Y0051793D01*
X0059666Y0051799D01*
X0059667Y0051800D02*
X0059667Y0050560D01*
X0065292Y0063060D02*
X0065281Y0063203D01*
X0065267Y0063347D01*
X0065249Y0063490D01*
X0065227Y0063632D01*
X0065201Y0063774D01*
X0065171Y0063915D01*
X0065138Y0064055D01*
X0065100Y0064194D01*
X0065059Y0064332D01*
X0065015Y0064469D01*
X0064966Y0064605D01*
X0064914Y0064740D01*
X0064858Y0064872D01*
X0064799Y0065004D01*
X0064736Y0065133D01*
X0064670Y0065261D01*
X0064600Y0065388D01*
X0064527Y0065512D01*
X0064450Y0065634D01*
X0064370Y0065754D01*
X0064287Y0065872D01*
X0064201Y0065987D01*
X0064112Y0066100D01*
X0064019Y0066211D01*
X0063924Y0066319D01*
X0063826Y0066425D01*
X0063725Y0066527D01*
X0063621Y0066628D01*
X0063515Y0066725D01*
X0063406Y0066819D01*
X0063294Y0066910D01*
X0063180Y0066999D01*
X0063064Y0067084D01*
X0062945Y0067166D01*
X0062825Y0067244D01*
X0062702Y0067320D01*
X0062577Y0067392D01*
X0062450Y0067460D01*
X0062322Y0067526D01*
X0062191Y0067587D01*
X0062060Y0067645D01*
X0061926Y0067700D01*
X0061791Y0067751D01*
X0061655Y0067798D01*
X0061518Y0067842D01*
X0061379Y0067881D01*
X0061240Y0067918D01*
X0061099Y0067950D01*
X0060958Y0067978D01*
X0060816Y0068003D01*
X0060673Y0068024D01*
X0060530Y0068040D01*
X0060387Y0068053D01*
X0060243Y0068062D01*
X0060099Y0068068D01*
X0059955Y0068069D01*
X0059810Y0068066D01*
X0059666Y0068060D01*
X0059667Y0074300D02*
X0053407Y0074300D01*
X0053267Y0074302D01*
X0053127Y0074308D01*
X0052987Y0074318D01*
X0052847Y0074331D01*
X0052708Y0074349D01*
X0052569Y0074371D01*
X0052432Y0074396D01*
X0052294Y0074425D01*
X0052158Y0074458D01*
X0052023Y0074495D01*
X0051889Y0074536D01*
X0051756Y0074581D01*
X0051624Y0074629D01*
X0051494Y0074681D01*
X0051365Y0074736D01*
X0051238Y0074795D01*
X0051112Y0074858D01*
X0050988Y0074924D01*
X0050867Y0074993D01*
X0050747Y0075066D01*
X0050629Y0075143D01*
X0050514Y0075222D01*
X0050400Y0075305D01*
X0050290Y0075391D01*
X0050181Y0075480D01*
X0050075Y0075572D01*
X0049972Y0075667D01*
X0049871Y0075764D01*
X0049774Y0075865D01*
X0049679Y0075968D01*
X0049587Y0076074D01*
X0049498Y0076183D01*
X0049412Y0076293D01*
X0049329Y0076407D01*
X0049250Y0076522D01*
X0049173Y0076640D01*
X0049100Y0076760D01*
X0049031Y0076881D01*
X0048965Y0077005D01*
X0048902Y0077131D01*
X0048843Y0077258D01*
X0048788Y0077387D01*
X0048736Y0077517D01*
X0048688Y0077649D01*
X0048643Y0077782D01*
X0048602Y0077916D01*
X0048565Y0078051D01*
X0048532Y0078187D01*
X0048503Y0078325D01*
X0048478Y0078462D01*
X0048456Y0078601D01*
X0048438Y0078740D01*
X0048425Y0078880D01*
X0048415Y0079020D01*
X0048409Y0079160D01*
X0048407Y0079300D01*
X0048407Y0084300D01*
X0049667Y0084300D01*
X0048407Y0084300D01*
X0049667Y0084300D02*
X0049807Y0084302D01*
X0049947Y0084308D01*
X0050087Y0084318D01*
X0050227Y0084331D01*
X0050366Y0084349D01*
X0050505Y0084371D01*
X0050642Y0084396D01*
X0050780Y0084425D01*
X0050916Y0084458D01*
X0051051Y0084495D01*
X0051185Y0084536D01*
X0051318Y0084581D01*
X0051450Y0084629D01*
X0051580Y0084681D01*
X0051709Y0084736D01*
X0051836Y0084795D01*
X0051962Y0084858D01*
X0052086Y0084924D01*
X0052207Y0084993D01*
X0052327Y0085066D01*
X0052445Y0085143D01*
X0052560Y0085222D01*
X0052674Y0085305D01*
X0052784Y0085391D01*
X0052893Y0085480D01*
X0052999Y0085572D01*
X0053102Y0085667D01*
X0053203Y0085764D01*
X0053300Y0085865D01*
X0053395Y0085968D01*
X0053487Y0086074D01*
X0053576Y0086183D01*
X0053662Y0086293D01*
X0053745Y0086407D01*
X0053824Y0086522D01*
X0053901Y0086640D01*
X0053974Y0086760D01*
X0054043Y0086881D01*
X0054109Y0087005D01*
X0054172Y0087131D01*
X0054231Y0087258D01*
X0054286Y0087387D01*
X0054338Y0087517D01*
X0054386Y0087649D01*
X0054431Y0087782D01*
X0054472Y0087916D01*
X0054509Y0088051D01*
X0054542Y0088187D01*
X0054571Y0088325D01*
X0054596Y0088462D01*
X0054618Y0088601D01*
X0054636Y0088740D01*
X0054649Y0088880D01*
X0054659Y0089020D01*
X0054665Y0089160D01*
X0054667Y0089300D01*
X0054667Y0109300D01*
X0053407Y0109300D01*
X0053407Y0193060D01*
X0053405Y0193180D01*
X0053399Y0193300D01*
X0053390Y0193419D01*
X0053376Y0193538D01*
X0053359Y0193657D01*
X0053338Y0193775D01*
X0053313Y0193892D01*
X0053285Y0194009D01*
X0053252Y0194124D01*
X0053216Y0194239D01*
X0053177Y0194352D01*
X0053134Y0194463D01*
X0053087Y0194574D01*
X0053037Y0194683D01*
X0052983Y0194790D01*
X0052926Y0194895D01*
X0052865Y0194999D01*
X0052801Y0195100D01*
X0052734Y0195200D01*
X0052664Y0195297D01*
X0052591Y0195392D01*
X0052515Y0195484D01*
X0052436Y0195574D01*
X0052354Y0195662D01*
X0052269Y0195747D01*
X0052181Y0195829D01*
X0052091Y0195908D01*
X0051999Y0195984D01*
X0051904Y0196057D01*
X0051807Y0196127D01*
X0051707Y0196194D01*
X0051606Y0196258D01*
X0051502Y0196319D01*
X0051397Y0196376D01*
X0051290Y0196430D01*
X0051181Y0196480D01*
X0051070Y0196527D01*
X0050959Y0196570D01*
X0050846Y0196609D01*
X0050731Y0196645D01*
X0050616Y0196678D01*
X0050499Y0196706D01*
X0050382Y0196731D01*
X0050264Y0196752D01*
X0050145Y0196769D01*
X0050026Y0196783D01*
X0049907Y0196792D01*
X0049787Y0196798D01*
X0049667Y0196800D01*
X0014667Y0119300D02*
X0009667Y0119300D01*
X0009527Y0119298D01*
X0009387Y0119292D01*
X0009247Y0119282D01*
X0009107Y0119269D01*
X0008968Y0119251D01*
X0008829Y0119229D01*
X0008692Y0119204D01*
X0008554Y0119175D01*
X0008418Y0119142D01*
X0008283Y0119105D01*
X0008149Y0119064D01*
X0008016Y0119019D01*
X0007884Y0118971D01*
X0007754Y0118919D01*
X0007625Y0118864D01*
X0007498Y0118805D01*
X0007372Y0118742D01*
X0007248Y0118676D01*
X0007127Y0118607D01*
X0007007Y0118534D01*
X0006889Y0118457D01*
X0006774Y0118378D01*
X0006660Y0118295D01*
X0006550Y0118209D01*
X0006441Y0118120D01*
X0006335Y0118028D01*
X0006232Y0117933D01*
X0006131Y0117836D01*
X0006034Y0117735D01*
X0005939Y0117632D01*
X0005847Y0117526D01*
X0005758Y0117417D01*
X0005672Y0117307D01*
X0005589Y0117193D01*
X0005510Y0117078D01*
X0005433Y0116960D01*
X0005360Y0116840D01*
X0005291Y0116719D01*
X0005225Y0116595D01*
X0005162Y0116469D01*
X0005103Y0116342D01*
X0005048Y0116213D01*
X0004996Y0116083D01*
X0004948Y0115951D01*
X0004903Y0115818D01*
X0004862Y0115684D01*
X0004825Y0115549D01*
X0004792Y0115413D01*
X0004763Y0115275D01*
X0004738Y0115138D01*
X0004716Y0114999D01*
X0004698Y0114860D01*
X0004685Y0114720D01*
X0004675Y0114580D01*
X0004669Y0114440D01*
X0004667Y0114300D01*
X0004667Y0099300D01*
X0029667Y0099300D01*
X0029807Y0099298D01*
X0029947Y0099292D01*
X0030087Y0099282D01*
X0030227Y0099269D01*
X0030366Y0099251D01*
X0030505Y0099229D01*
X0030642Y0099204D01*
X0030780Y0099175D01*
X0030916Y0099142D01*
X0031051Y0099105D01*
X0031185Y0099064D01*
X0031318Y0099019D01*
X0031450Y0098971D01*
X0031580Y0098919D01*
X0031709Y0098864D01*
X0031836Y0098805D01*
X0031962Y0098742D01*
X0032086Y0098676D01*
X0032207Y0098607D01*
X0032327Y0098534D01*
X0032445Y0098457D01*
X0032560Y0098378D01*
X0032674Y0098295D01*
X0032784Y0098209D01*
X0032893Y0098120D01*
X0032999Y0098028D01*
X0033102Y0097933D01*
X0033203Y0097836D01*
X0033300Y0097735D01*
X0033395Y0097632D01*
X0033487Y0097526D01*
X0033576Y0097417D01*
X0033662Y0097307D01*
X0033745Y0097193D01*
X0033824Y0097078D01*
X0033901Y0096960D01*
X0033974Y0096840D01*
X0034043Y0096719D01*
X0034109Y0096595D01*
X0034172Y0096469D01*
X0034231Y0096342D01*
X0034286Y0096213D01*
X0034338Y0096083D01*
X0034386Y0095951D01*
X0034431Y0095818D01*
X0034472Y0095684D01*
X0034509Y0095549D01*
X0034542Y0095413D01*
X0034571Y0095275D01*
X0034596Y0095138D01*
X0034618Y0094999D01*
X0034636Y0094860D01*
X0034649Y0094720D01*
X0034659Y0094580D01*
X0034665Y0094440D01*
X0034667Y0094300D01*
X0034669Y0094180D01*
X0034675Y0094060D01*
X0034684Y0093940D01*
X0034698Y0093820D01*
X0034715Y0093702D01*
X0034736Y0093583D01*
X0034761Y0093466D01*
X0034790Y0093349D01*
X0034822Y0093233D01*
X0034858Y0093118D01*
X0034898Y0093005D01*
X0034941Y0092893D01*
X0034988Y0092782D01*
X0035038Y0092673D01*
X0035092Y0092565D01*
X0035150Y0092460D01*
X0035210Y0092356D01*
X0035274Y0092254D01*
X0035341Y0092155D01*
X0035412Y0092057D01*
X0035485Y0091962D01*
X0035562Y0091869D01*
X0035641Y0091779D01*
X0035723Y0091691D01*
X0035808Y0091606D01*
X0035896Y0091524D01*
X0035986Y0091445D01*
X0036079Y0091368D01*
X0036174Y0091295D01*
X0036272Y0091224D01*
X0036371Y0091157D01*
X0036473Y0091093D01*
X0036577Y0091033D01*
X0036682Y0090975D01*
X0036790Y0090921D01*
X0036899Y0090871D01*
X0037010Y0090824D01*
X0037122Y0090781D01*
X0037235Y0090741D01*
X0037350Y0090705D01*
X0037466Y0090673D01*
X0037583Y0090644D01*
X0037700Y0090619D01*
X0037819Y0090598D01*
X0037937Y0090581D01*
X0038057Y0090567D01*
X0038177Y0090558D01*
X0038297Y0090552D01*
X0038417Y0090550D01*
X0044667Y0090550D01*
X0049657Y0090550D01*
X0040927Y0085560D02*
X0040927Y0084300D01*
X0040927Y0079300D01*
X0040925Y0079160D01*
X0040919Y0079020D01*
X0040909Y0078880D01*
X0040896Y0078740D01*
X0040878Y0078601D01*
X0040856Y0078462D01*
X0040831Y0078325D01*
X0040802Y0078187D01*
X0040769Y0078051D01*
X0040732Y0077916D01*
X0040691Y0077782D01*
X0040646Y0077649D01*
X0040598Y0077517D01*
X0040546Y0077387D01*
X0040491Y0077258D01*
X0040432Y0077131D01*
X0040369Y0077005D01*
X0040303Y0076881D01*
X0040234Y0076760D01*
X0040161Y0076640D01*
X0040084Y0076522D01*
X0040005Y0076407D01*
X0039922Y0076293D01*
X0039836Y0076183D01*
X0039747Y0076074D01*
X0039655Y0075968D01*
X0039560Y0075865D01*
X0039463Y0075764D01*
X0039362Y0075667D01*
X0039259Y0075572D01*
X0039153Y0075480D01*
X0039044Y0075391D01*
X0038934Y0075305D01*
X0038820Y0075222D01*
X0038705Y0075143D01*
X0038587Y0075066D01*
X0038467Y0074993D01*
X0038346Y0074924D01*
X0038222Y0074858D01*
X0038096Y0074795D01*
X0037969Y0074736D01*
X0037840Y0074681D01*
X0037710Y0074629D01*
X0037578Y0074581D01*
X0037445Y0074536D01*
X0037311Y0074495D01*
X0037176Y0074458D01*
X0037040Y0074425D01*
X0036902Y0074396D01*
X0036765Y0074371D01*
X0036626Y0074349D01*
X0036487Y0074331D01*
X0036347Y0074318D01*
X0036207Y0074308D01*
X0036067Y0074302D01*
X0035927Y0074300D01*
X0027167Y0074300D01*
X0027167Y0075540D01*
X0027167Y0085560D02*
X0014667Y0085560D01*
X0014667Y0084300D01*
X0014667Y0094300D02*
X0009667Y0094300D01*
X0014667Y0094300D02*
X0027167Y0094300D01*
X0027167Y0093040D01*
X0027167Y0085560D02*
X0040927Y0085560D01*
X0040927Y0084300D02*
X0039667Y0084300D01*
X0059667Y0075540D02*
X0059667Y0074300D01*
X0027167Y0068060D02*
X0027023Y0068066D01*
X0026878Y0068069D01*
X0026734Y0068068D01*
X0026590Y0068062D01*
X0026446Y0068053D01*
X0026303Y0068040D01*
X0026160Y0068024D01*
X0026017Y0068003D01*
X0025875Y0067978D01*
X0025734Y0067950D01*
X0025593Y0067918D01*
X0025454Y0067881D01*
X0025315Y0067842D01*
X0025178Y0067798D01*
X0025042Y0067751D01*
X0024907Y0067700D01*
X0024773Y0067645D01*
X0024642Y0067587D01*
X0024511Y0067526D01*
X0024383Y0067460D01*
X0024256Y0067392D01*
X0024131Y0067320D01*
X0024008Y0067244D01*
X0023888Y0067166D01*
X0023769Y0067084D01*
X0023653Y0066999D01*
X0023539Y0066910D01*
X0023427Y0066819D01*
X0023318Y0066725D01*
X0023212Y0066628D01*
X0023108Y0066527D01*
X0023007Y0066425D01*
X0022909Y0066319D01*
X0022814Y0066211D01*
X0022721Y0066100D01*
X0022632Y0065987D01*
X0022546Y0065872D01*
X0022463Y0065754D01*
X0022383Y0065634D01*
X0022306Y0065512D01*
X0022233Y0065388D01*
X0022163Y0065261D01*
X0022097Y0065133D01*
X0022034Y0065004D01*
X0021975Y0064872D01*
X0021919Y0064740D01*
X0021867Y0064605D01*
X0021818Y0064469D01*
X0021774Y0064332D01*
X0021733Y0064194D01*
X0021695Y0064055D01*
X0021662Y0063915D01*
X0021632Y0063774D01*
X0021606Y0063632D01*
X0021584Y0063490D01*
X0021566Y0063347D01*
X0021552Y0063203D01*
X0021541Y0063060D01*
X0021542Y0063060D02*
X0021542Y0056175D01*
X0021561Y0056037D01*
X0021584Y0055900D01*
X0021611Y0055764D01*
X0021641Y0055629D01*
X0021675Y0055494D01*
X0021713Y0055361D01*
X0021754Y0055228D01*
X0021800Y0055097D01*
X0021848Y0054967D01*
X0021901Y0054838D01*
X0021956Y0054711D01*
X0022016Y0054585D01*
X0022079Y0054461D01*
X0022145Y0054339D01*
X0022214Y0054219D01*
X0022287Y0054101D01*
X0022363Y0053985D01*
X0022442Y0053871D01*
X0022524Y0053759D01*
X0022610Y0053649D01*
X0022698Y0053542D01*
X0022789Y0053437D01*
X0022883Y0053335D01*
X0022980Y0053236D01*
X0023080Y0053139D01*
X0023182Y0053045D01*
X0023287Y0052954D01*
X0023394Y0052865D01*
X0023503Y0052780D01*
X0023615Y0052698D01*
X0023730Y0052619D01*
X0023846Y0052543D01*
X0023964Y0052470D01*
X0024084Y0052401D01*
X0024207Y0052335D01*
X0024330Y0052272D01*
X0024456Y0052213D01*
X0024583Y0052157D01*
X0024712Y0052105D01*
X0024842Y0052056D01*
X0024973Y0052011D01*
X0025106Y0051970D01*
X0025239Y0051932D01*
X0025374Y0051898D01*
X0025510Y0051868D01*
X0025646Y0051841D01*
X0025783Y0051819D01*
X0025920Y0051799D01*
X0026058Y0051784D01*
X0026197Y0051773D01*
X0026335Y0051765D01*
X0026474Y0051761D01*
X0026613Y0051762D01*
X0026752Y0051765D01*
X0026891Y0051773D01*
X0027029Y0051785D01*
X0027167Y0051800D01*
X0027167Y0050560D01*
X0025917Y0026800D02*
X0069667Y0026800D01*
X0069807Y0026798D01*
X0069947Y0026792D01*
X0070087Y0026782D01*
X0070227Y0026769D01*
X0070366Y0026751D01*
X0070505Y0026729D01*
X0070642Y0026704D01*
X0070780Y0026675D01*
X0070916Y0026642D01*
X0071051Y0026605D01*
X0071185Y0026564D01*
X0071318Y0026519D01*
X0071450Y0026471D01*
X0071580Y0026419D01*
X0071709Y0026364D01*
X0071836Y0026305D01*
X0071962Y0026242D01*
X0072086Y0026176D01*
X0072207Y0026107D01*
X0072327Y0026034D01*
X0072445Y0025957D01*
X0072560Y0025878D01*
X0072674Y0025795D01*
X0072784Y0025709D01*
X0072893Y0025620D01*
X0072999Y0025528D01*
X0073102Y0025433D01*
X0073203Y0025336D01*
X0073300Y0025235D01*
X0073395Y0025132D01*
X0073487Y0025026D01*
X0073576Y0024917D01*
X0073662Y0024807D01*
X0073745Y0024693D01*
X0073824Y0024578D01*
X0073901Y0024460D01*
X0073974Y0024340D01*
X0074043Y0024219D01*
X0074109Y0024095D01*
X0074172Y0023969D01*
X0074231Y0023842D01*
X0074286Y0023713D01*
X0074338Y0023583D01*
X0074386Y0023451D01*
X0074431Y0023318D01*
X0074472Y0023184D01*
X0074509Y0023049D01*
X0074542Y0022913D01*
X0074571Y0022775D01*
X0074596Y0022638D01*
X0074618Y0022499D01*
X0074636Y0022360D01*
X0074649Y0022220D01*
X0074659Y0022080D01*
X0074665Y0021940D01*
X0074667Y0021800D01*
X0074667Y0020550D01*
X0074669Y0020410D01*
X0074675Y0020270D01*
X0074685Y0020130D01*
X0074698Y0019990D01*
X0074716Y0019851D01*
X0074738Y0019712D01*
X0074763Y0019575D01*
X0074792Y0019437D01*
X0074825Y0019301D01*
X0074862Y0019166D01*
X0074903Y0019032D01*
X0074948Y0018899D01*
X0074996Y0018767D01*
X0075048Y0018637D01*
X0075103Y0018508D01*
X0075162Y0018381D01*
X0075225Y0018255D01*
X0075291Y0018131D01*
X0075360Y0018010D01*
X0075433Y0017890D01*
X0075510Y0017772D01*
X0075589Y0017657D01*
X0075672Y0017543D01*
X0075758Y0017433D01*
X0075847Y0017324D01*
X0075939Y0017218D01*
X0076034Y0017115D01*
X0076131Y0017014D01*
X0076232Y0016917D01*
X0076335Y0016822D01*
X0076441Y0016730D01*
X0076550Y0016641D01*
X0076660Y0016555D01*
X0076774Y0016472D01*
X0076889Y0016393D01*
X0077007Y0016316D01*
X0077127Y0016243D01*
X0077248Y0016174D01*
X0077372Y0016108D01*
X0077498Y0016045D01*
X0077625Y0015986D01*
X0077754Y0015931D01*
X0077884Y0015879D01*
X0078016Y0015831D01*
X0078149Y0015786D01*
X0078283Y0015745D01*
X0078418Y0015708D01*
X0078554Y0015675D01*
X0078692Y0015646D01*
X0078829Y0015621D01*
X0078968Y0015599D01*
X0079107Y0015581D01*
X0079247Y0015568D01*
X0079387Y0015558D01*
X0079527Y0015552D01*
X0079667Y0015550D01*
X0092167Y0015550D01*
X0089667Y0019300D02*
X0089667Y0024300D01*
X0089667Y0025363D01*
X0097167Y0020550D02*
X0097165Y0020410D01*
X0097159Y0020270D01*
X0097149Y0020130D01*
X0097136Y0019990D01*
X0097118Y0019851D01*
X0097096Y0019712D01*
X0097071Y0019575D01*
X0097042Y0019437D01*
X0097009Y0019301D01*
X0096972Y0019166D01*
X0096931Y0019032D01*
X0096886Y0018899D01*
X0096838Y0018767D01*
X0096786Y0018637D01*
X0096731Y0018508D01*
X0096672Y0018381D01*
X0096609Y0018255D01*
X0096543Y0018131D01*
X0096474Y0018010D01*
X0096401Y0017890D01*
X0096324Y0017772D01*
X0096245Y0017657D01*
X0096162Y0017543D01*
X0096076Y0017433D01*
X0095987Y0017324D01*
X0095895Y0017218D01*
X0095800Y0017115D01*
X0095703Y0017014D01*
X0095602Y0016917D01*
X0095499Y0016822D01*
X0095393Y0016730D01*
X0095284Y0016641D01*
X0095174Y0016555D01*
X0095060Y0016472D01*
X0094945Y0016393D01*
X0094827Y0016316D01*
X0094707Y0016243D01*
X0094586Y0016174D01*
X0094462Y0016108D01*
X0094336Y0016045D01*
X0094209Y0015986D01*
X0094080Y0015931D01*
X0093950Y0015879D01*
X0093818Y0015831D01*
X0093685Y0015786D01*
X0093551Y0015745D01*
X0093416Y0015708D01*
X0093280Y0015675D01*
X0093142Y0015646D01*
X0093005Y0015621D01*
X0092866Y0015599D01*
X0092727Y0015581D01*
X0092587Y0015568D01*
X0092447Y0015558D01*
X0092307Y0015552D01*
X0092167Y0015550D01*
X0097167Y0020550D02*
X0097167Y0034300D01*
X0097169Y0034440D01*
X0097175Y0034580D01*
X0097185Y0034720D01*
X0097198Y0034860D01*
X0097216Y0034999D01*
X0097238Y0035138D01*
X0097263Y0035275D01*
X0097292Y0035413D01*
X0097325Y0035549D01*
X0097362Y0035684D01*
X0097403Y0035818D01*
X0097448Y0035951D01*
X0097496Y0036083D01*
X0097548Y0036213D01*
X0097603Y0036342D01*
X0097662Y0036469D01*
X0097725Y0036595D01*
X0097791Y0036719D01*
X0097860Y0036840D01*
X0097933Y0036960D01*
X0098010Y0037078D01*
X0098089Y0037193D01*
X0098172Y0037307D01*
X0098258Y0037417D01*
X0098347Y0037526D01*
X0098439Y0037632D01*
X0098534Y0037735D01*
X0098631Y0037836D01*
X0098732Y0037933D01*
X0098835Y0038028D01*
X0098941Y0038120D01*
X0099050Y0038209D01*
X0099160Y0038295D01*
X0099274Y0038378D01*
X0099389Y0038457D01*
X0099507Y0038534D01*
X0099627Y0038607D01*
X0099748Y0038676D01*
X0099872Y0038742D01*
X0099998Y0038805D01*
X0100125Y0038864D01*
X0100254Y0038919D01*
X0100384Y0038971D01*
X0100516Y0039019D01*
X0100649Y0039064D01*
X0100783Y0039105D01*
X0100918Y0039142D01*
X0101054Y0039175D01*
X0101192Y0039204D01*
X0101329Y0039229D01*
X0101468Y0039251D01*
X0101607Y0039269D01*
X0101747Y0039282D01*
X0101887Y0039292D01*
X0102027Y0039298D01*
X0102167Y0039300D01*
X0109667Y0039300D01*
X0089667Y0040550D02*
X0089667Y0034300D01*
X0089667Y0033237D01*
X0109667Y0021800D02*
X0109667Y0016800D01*
X0114667Y0013050D02*
X0114665Y0012910D01*
X0114659Y0012770D01*
X0114649Y0012630D01*
X0114636Y0012490D01*
X0114618Y0012351D01*
X0114596Y0012212D01*
X0114571Y0012075D01*
X0114542Y0011937D01*
X0114509Y0011801D01*
X0114472Y0011666D01*
X0114431Y0011532D01*
X0114386Y0011399D01*
X0114338Y0011267D01*
X0114286Y0011137D01*
X0114231Y0011008D01*
X0114172Y0010881D01*
X0114109Y0010755D01*
X0114043Y0010631D01*
X0113974Y0010510D01*
X0113901Y0010390D01*
X0113824Y0010272D01*
X0113745Y0010157D01*
X0113662Y0010043D01*
X0113576Y0009933D01*
X0113487Y0009824D01*
X0113395Y0009718D01*
X0113300Y0009615D01*
X0113203Y0009514D01*
X0113102Y0009417D01*
X0112999Y0009322D01*
X0112893Y0009230D01*
X0112784Y0009141D01*
X0112674Y0009055D01*
X0112560Y0008972D01*
X0112445Y0008893D01*
X0112327Y0008816D01*
X0112207Y0008743D01*
X0112086Y0008674D01*
X0111962Y0008608D01*
X0111836Y0008545D01*
X0111709Y0008486D01*
X0111580Y0008431D01*
X0111450Y0008379D01*
X0111318Y0008331D01*
X0111185Y0008286D01*
X0111051Y0008245D01*
X0110916Y0008208D01*
X0110780Y0008175D01*
X0110642Y0008146D01*
X0110505Y0008121D01*
X0110366Y0008099D01*
X0110227Y0008081D01*
X0110087Y0008068D01*
X0109947Y0008058D01*
X0109807Y0008052D01*
X0109667Y0008050D01*
X0058417Y0008050D01*
X0058277Y0008052D01*
X0058137Y0008058D01*
X0057997Y0008068D01*
X0057857Y0008081D01*
X0057718Y0008099D01*
X0057579Y0008121D01*
X0057442Y0008146D01*
X0057304Y0008175D01*
X0057168Y0008208D01*
X0057033Y0008245D01*
X0056899Y0008286D01*
X0056766Y0008331D01*
X0056634Y0008379D01*
X0056504Y0008431D01*
X0056375Y0008486D01*
X0056248Y0008545D01*
X0056122Y0008608D01*
X0055998Y0008674D01*
X0055877Y0008743D01*
X0055757Y0008816D01*
X0055639Y0008893D01*
X0055524Y0008972D01*
X0055410Y0009055D01*
X0055300Y0009141D01*
X0055191Y0009230D01*
X0055085Y0009322D01*
X0054982Y0009417D01*
X0054881Y0009514D01*
X0054784Y0009615D01*
X0054689Y0009718D01*
X0054597Y0009824D01*
X0054508Y0009933D01*
X0054422Y0010043D01*
X0054339Y0010157D01*
X0054260Y0010272D01*
X0054183Y0010390D01*
X0054110Y0010510D01*
X0054041Y0010631D01*
X0053975Y0010755D01*
X0053912Y0010881D01*
X0053853Y0011008D01*
X0053798Y0011137D01*
X0053746Y0011267D01*
X0053698Y0011399D01*
X0053653Y0011532D01*
X0053612Y0011666D01*
X0053575Y0011801D01*
X0053542Y0011937D01*
X0053513Y0012075D01*
X0053488Y0012212D01*
X0053466Y0012351D01*
X0053448Y0012490D01*
X0053435Y0012630D01*
X0053425Y0012770D01*
X0053419Y0012910D01*
X0053417Y0013050D01*
X0053417Y0018050D01*
X0063417Y0018050D02*
X0063417Y0016800D01*
X0063419Y0016660D01*
X0063425Y0016520D01*
X0063435Y0016380D01*
X0063448Y0016240D01*
X0063466Y0016101D01*
X0063488Y0015962D01*
X0063513Y0015825D01*
X0063542Y0015687D01*
X0063575Y0015551D01*
X0063612Y0015416D01*
X0063653Y0015282D01*
X0063698Y0015149D01*
X0063746Y0015017D01*
X0063798Y0014887D01*
X0063853Y0014758D01*
X0063912Y0014631D01*
X0063975Y0014505D01*
X0064041Y0014381D01*
X0064110Y0014260D01*
X0064183Y0014140D01*
X0064260Y0014022D01*
X0064339Y0013907D01*
X0064422Y0013793D01*
X0064508Y0013683D01*
X0064597Y0013574D01*
X0064689Y0013468D01*
X0064784Y0013365D01*
X0064881Y0013264D01*
X0064982Y0013167D01*
X0065085Y0013072D01*
X0065191Y0012980D01*
X0065300Y0012891D01*
X0065410Y0012805D01*
X0065524Y0012722D01*
X0065639Y0012643D01*
X0065757Y0012566D01*
X0065877Y0012493D01*
X0065998Y0012424D01*
X0066122Y0012358D01*
X0066248Y0012295D01*
X0066375Y0012236D01*
X0066504Y0012181D01*
X0066634Y0012129D01*
X0066766Y0012081D01*
X0066899Y0012036D01*
X0067033Y0011995D01*
X0067168Y0011958D01*
X0067304Y0011925D01*
X0067442Y0011896D01*
X0067579Y0011871D01*
X0067718Y0011849D01*
X0067857Y0011831D01*
X0067997Y0011818D01*
X0068137Y0011808D01*
X0068277Y0011802D01*
X0068417Y0011800D01*
X0104667Y0011800D01*
X0104807Y0011802D01*
X0104947Y0011808D01*
X0105087Y0011818D01*
X0105227Y0011831D01*
X0105366Y0011849D01*
X0105505Y0011871D01*
X0105642Y0011896D01*
X0105780Y0011925D01*
X0105916Y0011958D01*
X0106051Y0011995D01*
X0106185Y0012036D01*
X0106318Y0012081D01*
X0106450Y0012129D01*
X0106580Y0012181D01*
X0106709Y0012236D01*
X0106836Y0012295D01*
X0106962Y0012358D01*
X0107086Y0012424D01*
X0107207Y0012493D01*
X0107327Y0012566D01*
X0107445Y0012643D01*
X0107560Y0012722D01*
X0107674Y0012805D01*
X0107784Y0012891D01*
X0107893Y0012980D01*
X0107999Y0013072D01*
X0108102Y0013167D01*
X0108203Y0013264D01*
X0108300Y0013365D01*
X0108395Y0013468D01*
X0108487Y0013574D01*
X0108576Y0013683D01*
X0108662Y0013793D01*
X0108745Y0013907D01*
X0108824Y0014022D01*
X0108901Y0014140D01*
X0108974Y0014260D01*
X0109043Y0014381D01*
X0109109Y0014505D01*
X0109172Y0014631D01*
X0109231Y0014758D01*
X0109286Y0014887D01*
X0109338Y0015017D01*
X0109386Y0015149D01*
X0109431Y0015282D01*
X0109472Y0015416D01*
X0109509Y0015551D01*
X0109542Y0015687D01*
X0109571Y0015825D01*
X0109596Y0015962D01*
X0109618Y0016101D01*
X0109636Y0016240D01*
X0109649Y0016380D01*
X0109659Y0016520D01*
X0109665Y0016660D01*
X0109667Y0016800D01*
X0114667Y0013050D02*
X0114667Y0021800D01*
X0119667Y0021800D02*
X0119667Y0009300D01*
X0119665Y0009160D01*
X0119659Y0009020D01*
X0119649Y0008880D01*
X0119636Y0008740D01*
X0119618Y0008601D01*
X0119596Y0008462D01*
X0119571Y0008325D01*
X0119542Y0008187D01*
X0119509Y0008051D01*
X0119472Y0007916D01*
X0119431Y0007782D01*
X0119386Y0007649D01*
X0119338Y0007517D01*
X0119286Y0007387D01*
X0119231Y0007258D01*
X0119172Y0007131D01*
X0119109Y0007005D01*
X0119043Y0006881D01*
X0118974Y0006760D01*
X0118901Y0006640D01*
X0118824Y0006522D01*
X0118745Y0006407D01*
X0118662Y0006293D01*
X0118576Y0006183D01*
X0118487Y0006074D01*
X0118395Y0005968D01*
X0118300Y0005865D01*
X0118203Y0005764D01*
X0118102Y0005667D01*
X0117999Y0005572D01*
X0117893Y0005480D01*
X0117784Y0005391D01*
X0117674Y0005305D01*
X0117560Y0005222D01*
X0117445Y0005143D01*
X0117327Y0005066D01*
X0117207Y0004993D01*
X0117086Y0004924D01*
X0116962Y0004858D01*
X0116836Y0004795D01*
X0116709Y0004736D01*
X0116580Y0004681D01*
X0116450Y0004629D01*
X0116318Y0004581D01*
X0116185Y0004536D01*
X0116051Y0004495D01*
X0115916Y0004458D01*
X0115780Y0004425D01*
X0115642Y0004396D01*
X0115505Y0004371D01*
X0115366Y0004349D01*
X0115227Y0004331D01*
X0115087Y0004318D01*
X0114947Y0004308D01*
X0114807Y0004302D01*
X0114667Y0004300D01*
X0048417Y0004300D01*
X0048277Y0004302D01*
X0048137Y0004308D01*
X0047997Y0004318D01*
X0047857Y0004331D01*
X0047718Y0004349D01*
X0047579Y0004371D01*
X0047442Y0004396D01*
X0047304Y0004425D01*
X0047168Y0004458D01*
X0047033Y0004495D01*
X0046899Y0004536D01*
X0046766Y0004581D01*
X0046634Y0004629D01*
X0046504Y0004681D01*
X0046375Y0004736D01*
X0046248Y0004795D01*
X0046122Y0004858D01*
X0045998Y0004924D01*
X0045877Y0004993D01*
X0045757Y0005066D01*
X0045639Y0005143D01*
X0045524Y0005222D01*
X0045410Y0005305D01*
X0045300Y0005391D01*
X0045191Y0005480D01*
X0045085Y0005572D01*
X0044982Y0005667D01*
X0044881Y0005764D01*
X0044784Y0005865D01*
X0044689Y0005968D01*
X0044597Y0006074D01*
X0044508Y0006183D01*
X0044422Y0006293D01*
X0044339Y0006407D01*
X0044260Y0006522D01*
X0044183Y0006640D01*
X0044110Y0006760D01*
X0044041Y0006881D01*
X0043975Y0007005D01*
X0043912Y0007131D01*
X0043853Y0007258D01*
X0043798Y0007387D01*
X0043746Y0007517D01*
X0043698Y0007649D01*
X0043653Y0007782D01*
X0043612Y0007916D01*
X0043575Y0008051D01*
X0043542Y0008187D01*
X0043513Y0008325D01*
X0043488Y0008462D01*
X0043466Y0008601D01*
X0043448Y0008740D01*
X0043435Y0008880D01*
X0043425Y0009020D01*
X0043419Y0009160D01*
X0043417Y0009300D01*
X0043417Y0018050D01*
X0025917Y0026800D02*
X0025777Y0026798D01*
X0025637Y0026792D01*
X0025497Y0026782D01*
X0025357Y0026769D01*
X0025218Y0026751D01*
X0025079Y0026729D01*
X0024942Y0026704D01*
X0024804Y0026675D01*
X0024668Y0026642D01*
X0024533Y0026605D01*
X0024399Y0026564D01*
X0024266Y0026519D01*
X0024134Y0026471D01*
X0024004Y0026419D01*
X0023875Y0026364D01*
X0023748Y0026305D01*
X0023622Y0026242D01*
X0023498Y0026176D01*
X0023377Y0026107D01*
X0023257Y0026034D01*
X0023139Y0025957D01*
X0023024Y0025878D01*
X0022910Y0025795D01*
X0022800Y0025709D01*
X0022691Y0025620D01*
X0022585Y0025528D01*
X0022482Y0025433D01*
X0022381Y0025336D01*
X0022284Y0025235D01*
X0022189Y0025132D01*
X0022097Y0025026D01*
X0022008Y0024917D01*
X0021922Y0024807D01*
X0021839Y0024693D01*
X0021760Y0024578D01*
X0021683Y0024460D01*
X0021610Y0024340D01*
X0021541Y0024219D01*
X0021475Y0024095D01*
X0021412Y0023969D01*
X0021353Y0023842D01*
X0021298Y0023713D01*
X0021246Y0023583D01*
X0021198Y0023451D01*
X0021153Y0023318D01*
X0021112Y0023184D01*
X0021075Y0023049D01*
X0021042Y0022913D01*
X0021013Y0022775D01*
X0020988Y0022638D01*
X0020966Y0022499D01*
X0020948Y0022360D01*
X0020935Y0022220D01*
X0020925Y0022080D01*
X0020919Y0021940D01*
X0020917Y0021800D01*
X0020917Y0018050D01*
X0117167Y0096800D02*
X0130917Y0096800D01*
X0174667Y0136800D02*
X0180917Y0136800D01*
X0180917Y0136790D01*
X0045927Y0109300D02*
X0035907Y0109300D01*
X0028427Y0109300D02*
X0014667Y0109300D01*
X0004667Y0099300D02*
X0004669Y0099160D01*
X0004675Y0099020D01*
X0004685Y0098880D01*
X0004698Y0098740D01*
X0004716Y0098601D01*
X0004738Y0098462D01*
X0004763Y0098325D01*
X0004792Y0098187D01*
X0004825Y0098051D01*
X0004862Y0097916D01*
X0004903Y0097782D01*
X0004948Y0097649D01*
X0004996Y0097517D01*
X0005048Y0097387D01*
X0005103Y0097258D01*
X0005162Y0097131D01*
X0005225Y0097005D01*
X0005291Y0096881D01*
X0005360Y0096760D01*
X0005433Y0096640D01*
X0005510Y0096522D01*
X0005589Y0096407D01*
X0005672Y0096293D01*
X0005758Y0096183D01*
X0005847Y0096074D01*
X0005939Y0095968D01*
X0006034Y0095865D01*
X0006131Y0095764D01*
X0006232Y0095667D01*
X0006335Y0095572D01*
X0006441Y0095480D01*
X0006550Y0095391D01*
X0006660Y0095305D01*
X0006774Y0095222D01*
X0006889Y0095143D01*
X0007007Y0095066D01*
X0007127Y0094993D01*
X0007248Y0094924D01*
X0007372Y0094858D01*
X0007498Y0094795D01*
X0007625Y0094736D01*
X0007754Y0094681D01*
X0007884Y0094629D01*
X0008016Y0094581D01*
X0008149Y0094536D01*
X0008283Y0094495D01*
X0008418Y0094458D01*
X0008554Y0094425D01*
X0008692Y0094396D01*
X0008829Y0094371D01*
X0008968Y0094349D01*
X0009107Y0094331D01*
X0009247Y0094318D01*
X0009387Y0094308D01*
X0009527Y0094302D01*
X0009667Y0094300D01*
X0147167Y0029300D02*
X0147167Y0016800D01*
D27*
X0041354Y0004200D02*
X0002167Y0004200D01*
X0002167Y0036800D01*
X0009292Y0036800D01*
X0008282Y0035051D01*
X0007267Y0031262D01*
X0007267Y0025037D01*
X0006339Y0024109D01*
X0005517Y0022124D01*
X0005517Y0013976D01*
X0006339Y0011991D01*
X0007858Y0010472D01*
X0009843Y0009650D01*
X0011991Y0009650D01*
X0013976Y0010472D01*
X0015495Y0011991D01*
X0015917Y0013010D01*
X0016339Y0011991D01*
X0017858Y0010472D01*
X0019843Y0009650D01*
X0021991Y0009650D01*
X0023976Y0010472D01*
X0025495Y0011991D01*
X0026262Y0013843D01*
X0026468Y0013207D01*
X0026811Y0012534D01*
X0027255Y0011923D01*
X0027790Y0011389D01*
X0028401Y0010945D01*
X0029074Y0010602D01*
X0029793Y0010368D01*
X0030539Y0010250D01*
X0030717Y0010250D01*
X0030717Y0017850D01*
X0031117Y0017850D01*
X0031117Y0018250D01*
X0035717Y0018250D01*
X0035717Y0021428D01*
X0035598Y0022174D01*
X0035365Y0022893D01*
X0035208Y0023200D01*
X0038462Y0023200D01*
X0038017Y0022124D01*
X0038017Y0013976D01*
X0038839Y0011991D01*
X0039817Y0011013D01*
X0039817Y0007589D01*
X0041126Y0004428D01*
X0041354Y0004200D01*
X0041126Y0004428D02*
X0041126Y0004428D01*
X0040890Y0004997D02*
X0002167Y0004997D01*
X0002167Y0006596D02*
X0040228Y0006596D01*
X0039817Y0008194D02*
X0002167Y0008194D01*
X0002167Y0009793D02*
X0009498Y0009793D01*
X0012335Y0009793D02*
X0019498Y0009793D01*
X0022335Y0009793D02*
X0039817Y0009793D01*
X0039439Y0011391D02*
X0034046Y0011391D01*
X0034044Y0011389D02*
X0034578Y0011923D01*
X0035022Y0012534D01*
X0035365Y0013207D01*
X0035598Y0013926D01*
X0035717Y0014672D01*
X0035717Y0017850D01*
X0031117Y0017850D01*
X0031117Y0010250D01*
X0031294Y0010250D01*
X0032041Y0010368D01*
X0032759Y0010602D01*
X0033432Y0010945D01*
X0034044Y0011389D01*
X0035254Y0012990D02*
X0038425Y0012990D01*
X0038017Y0014588D02*
X0035703Y0014588D01*
X0035717Y0016187D02*
X0038017Y0016187D01*
X0038017Y0017785D02*
X0035717Y0017785D01*
X0035717Y0019384D02*
X0038017Y0019384D01*
X0038017Y0020982D02*
X0035717Y0020982D01*
X0035466Y0022581D02*
X0038206Y0022581D01*
X0031117Y0017785D02*
X0030717Y0017785D01*
X0030717Y0016187D02*
X0031117Y0016187D01*
X0031117Y0014588D02*
X0030717Y0014588D01*
X0030717Y0012990D02*
X0031117Y0012990D01*
X0031117Y0011391D02*
X0030717Y0011391D01*
X0027787Y0011391D02*
X0024894Y0011391D01*
X0025908Y0012990D02*
X0026579Y0012990D01*
X0016939Y0011391D02*
X0014894Y0011391D01*
X0015908Y0012990D02*
X0015925Y0012990D01*
X0006939Y0011391D02*
X0002167Y0011391D01*
X0002167Y0012990D02*
X0005925Y0012990D01*
X0005517Y0014588D02*
X0002167Y0014588D01*
X0002167Y0016187D02*
X0005517Y0016187D01*
X0005517Y0017785D02*
X0002167Y0017785D01*
X0002167Y0019384D02*
X0005517Y0019384D01*
X0005517Y0020982D02*
X0002167Y0020982D01*
X0002167Y0022581D02*
X0005706Y0022581D01*
X0006409Y0024179D02*
X0002167Y0024179D01*
X0002167Y0025778D02*
X0007267Y0025778D01*
X0007267Y0027376D02*
X0002167Y0027376D01*
X0002167Y0028975D02*
X0007267Y0028975D01*
X0007267Y0030573D02*
X0002167Y0030573D01*
X0002167Y0032172D02*
X0007511Y0032172D01*
X0007939Y0033770D02*
X0002167Y0033770D01*
X0002167Y0035369D02*
X0008465Y0035369D01*
X0008282Y0035051D02*
X0008282Y0035051D01*
X0014017Y0041800D02*
X0002167Y0041800D01*
X0002167Y0209361D01*
X0085917Y0209361D01*
X0085917Y0209200D01*
X0081689Y0209200D01*
X0080807Y0208835D01*
X0080132Y0208159D01*
X0079767Y0207277D01*
X0079767Y0176323D01*
X0080132Y0175441D01*
X0080807Y0174765D01*
X0081689Y0174400D01*
X0085917Y0174400D01*
X0085917Y0166700D01*
X0066192Y0166700D01*
X0064391Y0165954D01*
X0064072Y0165635D01*
X0064026Y0165616D01*
X0063351Y0164941D01*
X0063332Y0164895D01*
X0063013Y0164576D01*
X0062267Y0162775D01*
X0062267Y0160825D01*
X0063013Y0159024D01*
X0063332Y0158705D01*
X0063351Y0158659D01*
X0064026Y0157984D01*
X0064072Y0157965D01*
X0064391Y0157646D01*
X0066192Y0156900D01*
X0085917Y0156900D01*
X0085917Y0155883D01*
X0084767Y0151591D01*
X0084767Y0059200D01*
X0084445Y0059200D01*
X0081725Y0058073D01*
X0080451Y0056800D01*
X0069667Y0056800D01*
X0069667Y0044200D01*
X0020205Y0044200D01*
X0016415Y0043185D01*
X0014017Y0041800D01*
X0016415Y0043185D02*
X0016415Y0043185D01*
X0017075Y0043361D02*
X0002167Y0043361D01*
X0002167Y0044960D02*
X0069667Y0044960D01*
X0069667Y0046558D02*
X0064768Y0046558D01*
X0064851Y0046641D02*
X0065216Y0047523D01*
X0065216Y0049872D01*
X0065980Y0050361D01*
X0067773Y0052546D01*
X0067773Y0052546D01*
X0068802Y0055178D01*
X0068850Y0055983D01*
X0068892Y0056084D01*
X0068892Y0056694D01*
X0068927Y0057303D01*
X0068892Y0057407D01*
X0068892Y0062453D01*
X0068927Y0062556D01*
X0068892Y0063166D01*
X0068892Y0063776D01*
X0068850Y0063877D01*
X0068781Y0065043D01*
X0067233Y0068236D01*
X0065216Y0070029D01*
X0065216Y0071096D01*
X0064925Y0071800D01*
X0065216Y0072504D01*
X0065216Y0078577D01*
X0064851Y0079459D01*
X0064176Y0080134D01*
X0063294Y0080499D01*
X0056040Y0080499D01*
X0055158Y0080134D01*
X0054482Y0079459D01*
X0054117Y0078577D01*
X0054117Y0077900D01*
X0053407Y0077900D01*
X0053134Y0077927D01*
X0052629Y0078136D01*
X0052243Y0078522D01*
X0052045Y0079000D01*
X0052325Y0079116D01*
X0053000Y0079791D01*
X0053366Y0080673D01*
X0053366Y0081524D01*
X0054538Y0082009D01*
X0056957Y0084428D01*
X0056957Y0084428D01*
X0058267Y0087589D01*
X0058267Y0105433D01*
X0058366Y0105673D01*
X0058366Y0112927D01*
X0058000Y0113809D01*
X0057325Y0114484D01*
X0057007Y0114616D01*
X0057007Y0187925D01*
X0058484Y0187313D01*
X0060849Y0187313D01*
X0063033Y0188218D01*
X0064705Y0189890D01*
X0065610Y0192074D01*
X0065610Y0201526D01*
X0064705Y0203710D01*
X0063033Y0205382D01*
X0060849Y0206287D01*
X0058484Y0206287D01*
X0056300Y0205382D01*
X0054667Y0203748D01*
X0053033Y0205382D01*
X0050849Y0206287D01*
X0048484Y0206287D01*
X0046300Y0205382D01*
X0044628Y0203710D01*
X0043723Y0201526D01*
X0043723Y0192074D01*
X0044628Y0189890D01*
X0046300Y0188218D01*
X0048484Y0187313D01*
X0049807Y0187313D01*
X0049807Y0114616D01*
X0049667Y0114558D01*
X0048963Y0114850D01*
X0042890Y0114850D01*
X0042008Y0114484D01*
X0041333Y0113809D01*
X0040967Y0112927D01*
X0040967Y0112900D01*
X0040866Y0112900D01*
X0040866Y0112927D01*
X0040500Y0113809D01*
X0039825Y0114484D01*
X0038943Y0114850D01*
X0032870Y0114850D01*
X0032167Y0114558D01*
X0031463Y0114850D01*
X0025390Y0114850D01*
X0024508Y0114484D01*
X0023833Y0113809D01*
X0023467Y0112927D01*
X0023467Y0112900D01*
X0023015Y0112900D01*
X0021577Y0114338D01*
X0020840Y0114643D01*
X0021010Y0114730D01*
X0021691Y0115224D01*
X0022286Y0115819D01*
X0022780Y0116499D01*
X0023162Y0117249D01*
X0023422Y0118049D01*
X0023553Y0118879D01*
X0023553Y0118919D01*
X0015048Y0118919D01*
X0015048Y0119681D01*
X0023553Y0119681D01*
X0023553Y0119721D01*
X0023422Y0120551D01*
X0023162Y0121351D01*
X0022780Y0122100D01*
X0022286Y0122781D01*
X0021691Y0123376D01*
X0021010Y0123870D01*
X0020261Y0124252D01*
X0019461Y0124512D01*
X0018630Y0124643D01*
X0015048Y0124643D01*
X0015048Y0119681D01*
X0014286Y0119681D01*
X0014286Y0124643D01*
X0010703Y0124643D01*
X0009872Y0124512D01*
X0009072Y0124252D01*
X0008323Y0123870D01*
X0007642Y0123376D01*
X0007048Y0122781D01*
X0006553Y0122100D01*
X0006172Y0121351D01*
X0005912Y0120551D01*
X0005780Y0119721D01*
X0005780Y0119681D01*
X0014285Y0119681D01*
X0014285Y0118919D01*
X0005780Y0118919D01*
X0005780Y0118879D01*
X0005912Y0118049D01*
X0006172Y0117249D01*
X0006553Y0116499D01*
X0007048Y0115819D01*
X0007642Y0115224D01*
X0008323Y0114730D01*
X0008493Y0114643D01*
X0007757Y0114338D01*
X0006085Y0112667D01*
X0005180Y0110482D01*
X0005180Y0108118D01*
X0006085Y0105933D01*
X0007757Y0104262D01*
X0009941Y0103357D01*
X0019392Y0103357D01*
X0021577Y0104262D01*
X0023015Y0105700D01*
X0023467Y0105700D01*
X0023467Y0105673D01*
X0023833Y0104791D01*
X0024508Y0104116D01*
X0025390Y0103750D01*
X0031463Y0103750D01*
X0032167Y0104042D01*
X0032870Y0103750D01*
X0036164Y0103750D01*
X0036164Y0097754D01*
X0035851Y0097441D01*
X0035486Y0096558D01*
X0035486Y0092041D01*
X0035851Y0091159D01*
X0036526Y0090484D01*
X0037408Y0090119D01*
X0041925Y0090119D01*
X0042807Y0090484D01*
X0043482Y0091159D01*
X0043848Y0092041D01*
X0043848Y0095591D01*
X0044254Y0095759D01*
X0044930Y0096435D01*
X0045024Y0096663D01*
X0045333Y0096354D01*
X0045744Y0096117D01*
X0046201Y0095994D01*
X0048321Y0095994D01*
X0048321Y0100267D01*
X0048886Y0100267D01*
X0048886Y0095994D01*
X0051006Y0095994D01*
X0051067Y0096010D01*
X0051067Y0089850D01*
X0045370Y0089850D01*
X0044667Y0089558D01*
X0043963Y0089850D01*
X0037890Y0089850D01*
X0037008Y0089484D01*
X0036684Y0089160D01*
X0032483Y0089160D01*
X0032351Y0089478D01*
X0032004Y0089825D01*
X0032116Y0090244D01*
X0032116Y0092561D01*
X0027646Y0092561D01*
X0027646Y0093520D01*
X0026687Y0093520D01*
X0026687Y0097399D01*
X0023780Y0097399D01*
X0023322Y0097277D01*
X0022912Y0097040D01*
X0022845Y0096973D01*
X0022780Y0097100D01*
X0022286Y0097781D01*
X0021691Y0098376D01*
X0021010Y0098870D01*
X0020261Y0099252D01*
X0019461Y0099512D01*
X0018630Y0099643D01*
X0015048Y0099643D01*
X0015048Y0094681D01*
X0014286Y0094681D01*
X0014286Y0099643D01*
X0010703Y0099643D01*
X0009872Y0099512D01*
X0009072Y0099252D01*
X0008323Y0098870D01*
X0007642Y0098376D01*
X0007048Y0097781D01*
X0006553Y0097100D01*
X0006172Y0096351D01*
X0005912Y0095551D01*
X0005780Y0094721D01*
X0005780Y0094681D01*
X0014285Y0094681D01*
X0014285Y0093919D01*
X0005780Y0093919D01*
X0005780Y0093879D01*
X0005912Y0093049D01*
X0006172Y0092249D01*
X0006553Y0091499D01*
X0007048Y0090819D01*
X0007642Y0090224D01*
X0008323Y0089730D01*
X0008493Y0089643D01*
X0007757Y0089338D01*
X0006085Y0087667D01*
X0005180Y0085482D01*
X0005180Y0083118D01*
X0006085Y0080933D01*
X0007757Y0079262D01*
X0009941Y0078357D01*
X0019392Y0078357D01*
X0021577Y0079262D01*
X0023099Y0080784D01*
X0023540Y0080601D01*
X0030794Y0080601D01*
X0031676Y0080966D01*
X0032351Y0081641D01*
X0032483Y0081960D01*
X0035967Y0081960D01*
X0035967Y0080673D01*
X0036333Y0079791D01*
X0037008Y0079116D01*
X0037288Y0079000D01*
X0037091Y0078522D01*
X0036704Y0078136D01*
X0036200Y0077927D01*
X0035927Y0077900D01*
X0032716Y0077900D01*
X0032716Y0078577D01*
X0032351Y0079459D01*
X0031676Y0080134D01*
X0030794Y0080499D01*
X0023540Y0080499D01*
X0022658Y0080134D01*
X0021982Y0079459D01*
X0021617Y0078577D01*
X0021617Y0072504D01*
X0021909Y0071800D01*
X0021617Y0071096D01*
X0021617Y0070029D01*
X0019601Y0068236D01*
X0018052Y0065043D01*
X0018052Y0065043D01*
X0017984Y0063877D01*
X0017942Y0063776D01*
X0017942Y0063166D01*
X0017906Y0062556D01*
X0017942Y0062453D01*
X0017942Y0056661D01*
X0017881Y0056439D01*
X0017942Y0055951D01*
X0017942Y0055459D01*
X0018030Y0055246D01*
X0018183Y0054023D01*
X0019881Y0051036D01*
X0019881Y0051036D01*
X0021617Y0049686D01*
X0021617Y0047523D01*
X0021982Y0046641D01*
X0022658Y0045966D01*
X0023540Y0045601D01*
X0030794Y0045601D01*
X0031676Y0045966D01*
X0032351Y0046641D01*
X0032613Y0047274D01*
X0034000Y0047274D01*
X0034030Y0047261D01*
X0035982Y0047261D01*
X0036013Y0047274D01*
X0038185Y0047274D01*
X0039067Y0047639D01*
X0039743Y0048315D01*
X0040108Y0049197D01*
X0040108Y0049820D01*
X0046725Y0049820D01*
X0046725Y0049197D01*
X0047091Y0048315D01*
X0047766Y0047639D01*
X0048648Y0047274D01*
X0050821Y0047274D01*
X0050851Y0047261D01*
X0054226Y0047261D01*
X0054482Y0046641D01*
X0055158Y0045966D01*
X0056040Y0045601D01*
X0063294Y0045601D01*
X0064176Y0045966D01*
X0064851Y0046641D01*
X0065216Y0048157D02*
X0069667Y0048157D01*
X0069667Y0049755D02*
X0065216Y0049755D01*
X0065980Y0050361D02*
X0065980Y0050361D01*
X0066795Y0051354D02*
X0069667Y0051354D01*
X0069667Y0052952D02*
X0067932Y0052952D01*
X0068557Y0054551D02*
X0069667Y0054551D01*
X0068802Y0055178D02*
X0068802Y0055178D01*
X0068892Y0056149D02*
X0069667Y0056149D01*
X0068892Y0057748D02*
X0081399Y0057748D01*
X0084445Y0059200D02*
X0084445Y0059200D01*
X0084767Y0059346D02*
X0068892Y0059346D01*
X0068892Y0060945D02*
X0084767Y0060945D01*
X0084767Y0062543D02*
X0068923Y0062543D01*
X0068834Y0064142D02*
X0084767Y0064142D01*
X0084767Y0065740D02*
X0068443Y0065740D01*
X0068781Y0065043D02*
X0068781Y0065043D01*
X0067668Y0067339D02*
X0084767Y0067339D01*
X0084767Y0068937D02*
X0066444Y0068937D01*
X0067233Y0068236D02*
X0067233Y0068236D01*
X0065216Y0070536D02*
X0084767Y0070536D01*
X0084767Y0072134D02*
X0065063Y0072134D01*
X0065216Y0073733D02*
X0084767Y0073733D01*
X0084767Y0075332D02*
X0065216Y0075332D01*
X0065216Y0076930D02*
X0084767Y0076930D01*
X0084767Y0078529D02*
X0065216Y0078529D01*
X0064183Y0080127D02*
X0084767Y0080127D01*
X0084767Y0081726D02*
X0053853Y0081726D01*
X0054538Y0082009D02*
X0054538Y0082009D01*
X0055853Y0083324D02*
X0084767Y0083324D01*
X0084767Y0084923D02*
X0057162Y0084923D01*
X0057824Y0086521D02*
X0084767Y0086521D01*
X0084767Y0088120D02*
X0058267Y0088120D01*
X0058267Y0089718D02*
X0084767Y0089718D01*
X0084767Y0091317D02*
X0058267Y0091317D01*
X0058267Y0092915D02*
X0084767Y0092915D01*
X0084767Y0094514D02*
X0058267Y0094514D01*
X0058267Y0096112D02*
X0084767Y0096112D01*
X0084767Y0097711D02*
X0058267Y0097711D01*
X0058267Y0099309D02*
X0084767Y0099309D01*
X0084767Y0100908D02*
X0058267Y0100908D01*
X0058267Y0102506D02*
X0084767Y0102506D01*
X0084767Y0104105D02*
X0058267Y0104105D01*
X0058366Y0105703D02*
X0084767Y0105703D01*
X0084767Y0107302D02*
X0058366Y0107302D01*
X0058366Y0108900D02*
X0084767Y0108900D01*
X0084767Y0110499D02*
X0058366Y0110499D01*
X0058366Y0112097D02*
X0084767Y0112097D01*
X0084767Y0113696D02*
X0058047Y0113696D01*
X0057007Y0115294D02*
X0084767Y0115294D01*
X0084767Y0116893D02*
X0057007Y0116893D01*
X0057007Y0118491D02*
X0084767Y0118491D01*
X0084767Y0120090D02*
X0057007Y0120090D01*
X0057007Y0121688D02*
X0084767Y0121688D01*
X0084767Y0123287D02*
X0057007Y0123287D01*
X0057007Y0124885D02*
X0084767Y0124885D01*
X0084767Y0126484D02*
X0057007Y0126484D01*
X0057007Y0128082D02*
X0084767Y0128082D01*
X0084767Y0129681D02*
X0057007Y0129681D01*
X0057007Y0131279D02*
X0084767Y0131279D01*
X0084767Y0132878D02*
X0057007Y0132878D01*
X0057007Y0134476D02*
X0084767Y0134476D01*
X0084767Y0136075D02*
X0057007Y0136075D01*
X0057007Y0137673D02*
X0084767Y0137673D01*
X0084767Y0139272D02*
X0057007Y0139272D01*
X0057007Y0140870D02*
X0084767Y0140870D01*
X0084767Y0142469D02*
X0057007Y0142469D01*
X0057007Y0144068D02*
X0084767Y0144068D01*
X0084767Y0145666D02*
X0057007Y0145666D01*
X0057007Y0147265D02*
X0084767Y0147265D01*
X0084767Y0148863D02*
X0057007Y0148863D01*
X0057007Y0150462D02*
X0084767Y0150462D01*
X0084892Y0152060D02*
X0057007Y0152060D01*
X0057007Y0153659D02*
X0085321Y0153659D01*
X0085749Y0155257D02*
X0057007Y0155257D01*
X0057007Y0156856D02*
X0085917Y0156856D01*
X0095145Y0152208D02*
X0094632Y0150292D01*
X0094567Y0149300D01*
X0094567Y0081800D01*
X0094583Y0081589D01*
X0094714Y0081187D01*
X0094962Y0080845D01*
X0095304Y0080597D01*
X0095705Y0080467D01*
X0095917Y0080450D01*
X0096891Y0080450D01*
X0098692Y0079704D01*
X0099012Y0079385D01*
X0099057Y0079366D01*
X0099732Y0078691D01*
X0099751Y0078645D01*
X0100071Y0078326D01*
X0100817Y0076525D01*
X0100817Y0075981D01*
X0104425Y0075981D01*
X0105307Y0075616D01*
X0105982Y0074941D01*
X0106348Y0074058D01*
X0106348Y0069541D01*
X0105982Y0068659D01*
X0105307Y0067984D01*
X0105217Y0067947D01*
X0105217Y0066903D01*
X0105307Y0066866D01*
X0105982Y0066191D01*
X0106348Y0065308D01*
X0106348Y0060791D01*
X0105982Y0059909D01*
X0105307Y0059234D01*
X0104425Y0058869D01*
X0099908Y0058869D01*
X0099441Y0059063D01*
X0099367Y0059020D01*
X0098910Y0058898D01*
X0096199Y0058898D01*
X0096199Y0062580D01*
X0095634Y0062580D01*
X0095634Y0058898D01*
X0094567Y0058898D01*
X0094567Y0056329D01*
X0093250Y0053150D01*
X0093250Y0053150D01*
X0090816Y0050717D01*
X0090816Y0050717D01*
X0088317Y0049681D01*
X0088317Y0037202D01*
X0089384Y0037202D01*
X0089384Y0033520D01*
X0089949Y0033520D01*
X0089949Y0037202D01*
X0092660Y0037202D01*
X0093117Y0037080D01*
X0093528Y0036843D01*
X0093799Y0036572D01*
X0094876Y0039171D01*
X0094876Y0039172D01*
X0094876Y0039172D01*
X0097295Y0041591D01*
X0097295Y0041591D01*
X0100456Y0042900D01*
X0106310Y0042900D01*
X0106526Y0043116D01*
X0107408Y0043481D01*
X0111925Y0043481D01*
X0112807Y0043116D01*
X0113482Y0042441D01*
X0113848Y0041558D01*
X0113848Y0037041D01*
X0113482Y0036159D01*
X0112807Y0035484D01*
X0111925Y0035119D01*
X0107408Y0035119D01*
X0106526Y0035484D01*
X0106310Y0035700D01*
X0102167Y0035700D01*
X0101894Y0035673D01*
X0101389Y0035464D01*
X0101003Y0035078D01*
X0100794Y0034573D01*
X0100767Y0034300D01*
X0100767Y0018839D01*
X0099457Y0015678D01*
X0099457Y0015678D01*
X0099179Y0015400D01*
X0104667Y0015400D01*
X0104940Y0015427D01*
X0105444Y0015636D01*
X0105831Y0016022D01*
X0106040Y0016527D01*
X0106067Y0016800D01*
X0106067Y0018444D01*
X0105851Y0018659D01*
X0105486Y0019541D01*
X0105486Y0024058D01*
X0105851Y0024941D01*
X0106526Y0025616D01*
X0107408Y0025981D01*
X0111925Y0025981D01*
X0112167Y0025881D01*
X0112408Y0025981D01*
X0116925Y0025981D01*
X0117167Y0025881D01*
X0117408Y0025981D01*
X0121925Y0025981D01*
X0122807Y0025616D01*
X0123482Y0024941D01*
X0123848Y0024058D01*
X0123848Y0019541D01*
X0123482Y0018659D01*
X0123267Y0018444D01*
X0123267Y0007589D01*
X0121957Y0004428D01*
X0121957Y0004428D01*
X0121729Y0004200D01*
X0333467Y0004200D01*
X0333467Y0109654D01*
X0331590Y0106401D01*
X0331590Y0106401D01*
X0328815Y0103627D01*
X0328815Y0103627D01*
X0325418Y0101665D01*
X0325418Y0101665D01*
X0321628Y0100650D01*
X0319667Y0100650D01*
X0318348Y0100564D01*
X0315802Y0099881D01*
X0313518Y0098563D01*
X0313518Y0098563D01*
X0311654Y0096698D01*
X0310335Y0094415D01*
X0309653Y0091868D01*
X0309567Y0090550D01*
X0309567Y0087243D01*
X0309851Y0086959D01*
X0310216Y0086077D01*
X0310216Y0080450D01*
X0314196Y0080450D01*
X0317067Y0077580D01*
X0317067Y0073520D01*
X0314196Y0070650D01*
X0310137Y0070650D01*
X0309498Y0071289D01*
X0309176Y0070966D01*
X0308294Y0070601D01*
X0301040Y0070601D01*
X0300158Y0070966D01*
X0299482Y0071641D01*
X0299117Y0072523D01*
X0299117Y0078596D01*
X0299409Y0079300D01*
X0299117Y0080004D01*
X0299117Y0086077D01*
X0299482Y0086959D01*
X0299767Y0087243D01*
X0299767Y0093170D01*
X0301123Y0098231D01*
X0302519Y0100650D01*
X0192167Y0100650D01*
X0191338Y0100596D01*
X0189737Y0100167D01*
X0188301Y0099338D01*
X0187129Y0098166D01*
X0186300Y0096730D01*
X0185871Y0095129D01*
X0185817Y0094300D01*
X0185817Y0087243D01*
X0186101Y0086959D01*
X0186466Y0086077D01*
X0186466Y0080004D01*
X0186175Y0079300D01*
X0186466Y0078596D01*
X0186466Y0072523D01*
X0186101Y0071641D01*
X0185426Y0070966D01*
X0184544Y0070601D01*
X0177290Y0070601D01*
X0176835Y0070789D01*
X0176696Y0070650D01*
X0172637Y0070650D01*
X0169767Y0073520D01*
X0169767Y0077580D01*
X0172637Y0080450D01*
X0175367Y0080450D01*
X0175367Y0086077D01*
X0175732Y0086959D01*
X0176017Y0087243D01*
X0176017Y0096426D01*
X0177117Y0100534D01*
X0177117Y0100534D01*
X0179243Y0104216D01*
X0179243Y0104216D01*
X0180577Y0105550D01*
X0179243Y0106884D01*
X0179243Y0106884D01*
X0177117Y0110566D01*
X0177117Y0110566D01*
X0176017Y0114674D01*
X0176017Y0125107D01*
X0175732Y0125391D01*
X0175367Y0126273D01*
X0175367Y0131900D01*
X0172637Y0131900D01*
X0169767Y0134770D01*
X0169767Y0138830D01*
X0172637Y0141700D01*
X0176696Y0141700D01*
X0176835Y0141561D01*
X0177290Y0141749D01*
X0184544Y0141749D01*
X0185426Y0141384D01*
X0186101Y0140709D01*
X0186466Y0139827D01*
X0186466Y0133754D01*
X0186175Y0133050D01*
X0186466Y0132346D01*
X0186466Y0126273D01*
X0186101Y0125391D01*
X0185817Y0125107D01*
X0185817Y0116800D01*
X0185871Y0115971D01*
X0186300Y0114370D01*
X0187129Y0112934D01*
X0188301Y0111762D01*
X0189737Y0110933D01*
X0191338Y0110504D01*
X0192167Y0110450D01*
X0301463Y0110450D01*
X0300952Y0111334D01*
X0300952Y0111334D01*
X0299767Y0115759D01*
X0299767Y0121498D01*
X0299727Y0121403D01*
X0298869Y0120545D01*
X0298090Y0120222D01*
X0298090Y0116218D01*
X0297626Y0115097D01*
X0296768Y0114239D01*
X0295647Y0113775D01*
X0294433Y0113775D01*
X0293312Y0114239D01*
X0292454Y0115097D01*
X0292227Y0115646D01*
X0291871Y0115290D01*
X0290820Y0114239D01*
X0289699Y0113775D01*
X0286384Y0113775D01*
X0285263Y0114239D01*
X0285068Y0114434D01*
X0284873Y0114239D01*
X0283752Y0113775D01*
X0280437Y0113775D01*
X0279316Y0114239D01*
X0279237Y0114319D01*
X0279157Y0114239D01*
X0278036Y0113775D01*
X0274721Y0113775D01*
X0273600Y0114239D01*
X0272880Y0114960D01*
X0272159Y0114239D01*
X0271038Y0113775D01*
X0266672Y0113775D01*
X0265551Y0114239D01*
X0264693Y0115097D01*
X0264229Y0116218D01*
X0264229Y0117432D01*
X0264455Y0117979D01*
X0263878Y0117979D01*
X0263795Y0118013D01*
X0264035Y0117432D01*
X0264035Y0116218D01*
X0263571Y0115097D01*
X0262713Y0114239D01*
X0261592Y0113775D01*
X0257226Y0113775D01*
X0256105Y0114239D01*
X0255054Y0115290D01*
X0254196Y0116148D01*
X0253732Y0117269D01*
X0253732Y0118483D01*
X0254134Y0119452D01*
X0253732Y0120422D01*
X0253732Y0121635D01*
X0254196Y0122756D01*
X0255054Y0123614D01*
X0256175Y0124079D01*
X0260384Y0124079D01*
X0260384Y0124788D01*
X0260848Y0125909D01*
X0261706Y0126767D01*
X0262827Y0127231D01*
X0264040Y0127231D01*
X0265161Y0126767D01*
X0266019Y0125909D01*
X0266484Y0124788D01*
X0266484Y0124000D01*
X0266672Y0124079D01*
X0271038Y0124079D01*
X0272159Y0123614D01*
X0272880Y0122894D01*
X0273600Y0123614D01*
X0274721Y0124079D01*
X0278036Y0124079D01*
X0279045Y0123661D01*
X0279045Y0123737D01*
X0279509Y0124858D01*
X0280367Y0125716D01*
X0281488Y0126180D01*
X0283752Y0126180D01*
X0284873Y0125716D01*
X0285731Y0124858D01*
X0286103Y0123962D01*
X0286384Y0124079D01*
X0289699Y0124079D01*
X0289981Y0123962D01*
X0290352Y0124858D01*
X0291210Y0125716D01*
X0292331Y0126180D01*
X0297748Y0126180D01*
X0298869Y0125716D01*
X0299727Y0124858D01*
X0299767Y0124763D01*
X0299767Y0126357D01*
X0299482Y0126641D01*
X0299117Y0127523D01*
X0299117Y0133596D01*
X0299409Y0134300D01*
X0299117Y0135004D01*
X0299117Y0141077D01*
X0299482Y0141959D01*
X0300158Y0142634D01*
X0301040Y0142999D01*
X0308294Y0142999D01*
X0309176Y0142634D01*
X0309498Y0142311D01*
X0310137Y0142950D01*
X0314196Y0142950D01*
X0317067Y0140080D01*
X0317067Y0136020D01*
X0314196Y0133150D01*
X0310216Y0133150D01*
X0310216Y0127523D01*
X0309851Y0126641D01*
X0309567Y0126357D01*
X0309567Y0118050D01*
X0309632Y0117058D01*
X0310145Y0115142D01*
X0311137Y0113423D01*
X0312540Y0112021D01*
X0314258Y0111029D01*
X0316175Y0110515D01*
X0317167Y0110450D01*
X0319667Y0110450D01*
X0320332Y0110494D01*
X0321618Y0110838D01*
X0322771Y0111504D01*
X0323713Y0112445D01*
X0324378Y0113598D01*
X0324723Y0114884D01*
X0324767Y0115550D01*
X0324767Y0186800D01*
X0324723Y0187466D01*
X0324378Y0188752D01*
X0323713Y0189905D01*
X0322771Y0190846D01*
X0321618Y0191512D01*
X0320332Y0191856D01*
X0319667Y0191900D01*
X0312596Y0191900D01*
X0311955Y0190353D01*
X0310366Y0188764D01*
X0308290Y0187904D01*
X0306043Y0187904D01*
X0303967Y0188764D01*
X0302378Y0190353D01*
X0301850Y0191629D01*
X0301845Y0191614D01*
X0301484Y0190906D01*
X0301017Y0190263D01*
X0300455Y0189702D01*
X0299812Y0189234D01*
X0299104Y0188874D01*
X0298349Y0188628D01*
X0297564Y0188504D01*
X0297449Y0188504D01*
X0297449Y0196517D01*
X0296884Y0196517D01*
X0296884Y0188504D01*
X0296769Y0188504D01*
X0295985Y0188628D01*
X0295229Y0188874D01*
X0294521Y0189234D01*
X0293878Y0189702D01*
X0293316Y0190263D01*
X0292849Y0190906D01*
X0292488Y0191614D01*
X0292484Y0191629D01*
X0291955Y0190353D01*
X0290366Y0188764D01*
X0288290Y0187904D01*
X0286043Y0187904D01*
X0283967Y0188764D01*
X0282378Y0190353D01*
X0281519Y0192428D01*
X0281519Y0201171D01*
X0282378Y0203247D01*
X0283967Y0204836D01*
X0286043Y0205696D01*
X0288290Y0205696D01*
X0290366Y0204836D01*
X0291955Y0203247D01*
X0292484Y0201971D01*
X0292488Y0201986D01*
X0292849Y0202694D01*
X0293316Y0203337D01*
X0293878Y0203898D01*
X0294521Y0204365D01*
X0295229Y0204726D01*
X0295985Y0204972D01*
X0296769Y0205096D01*
X0296884Y0205096D01*
X0296884Y0197083D01*
X0297449Y0197083D01*
X0297449Y0205096D01*
X0297564Y0205096D01*
X0298349Y0204972D01*
X0299104Y0204726D01*
X0299812Y0204365D01*
X0300455Y0203898D01*
X0301017Y0203337D01*
X0301484Y0202694D01*
X0301845Y0201986D01*
X0301850Y0201971D01*
X0302378Y0203247D01*
X0303967Y0204836D01*
X0306043Y0205696D01*
X0308290Y0205696D01*
X0310366Y0204836D01*
X0311955Y0203247D01*
X0312596Y0201700D01*
X0321628Y0201700D01*
X0325418Y0200685D01*
X0325418Y0200685D01*
X0328815Y0198723D01*
X0328815Y0198723D01*
X0328815Y0198723D01*
X0331590Y0195949D01*
X0331590Y0195949D01*
X0333467Y0192696D01*
X0333467Y0209361D01*
X0089667Y0209361D01*
X0089667Y0209200D01*
X0137644Y0209200D01*
X0138526Y0208835D01*
X0139201Y0208159D01*
X0139567Y0207277D01*
X0139567Y0201700D01*
X0161738Y0201700D01*
X0162378Y0203247D01*
X0163967Y0204836D01*
X0166043Y0205696D01*
X0168290Y0205696D01*
X0170366Y0204836D01*
X0171955Y0203247D01*
X0172167Y0202736D01*
X0172378Y0203247D01*
X0173967Y0204836D01*
X0176043Y0205696D01*
X0178290Y0205696D01*
X0180366Y0204836D01*
X0181955Y0203247D01*
X0182167Y0202736D01*
X0182378Y0203247D01*
X0183967Y0204836D01*
X0186043Y0205696D01*
X0188290Y0205696D01*
X0190366Y0204836D01*
X0191955Y0203247D01*
X0192596Y0201700D01*
X0249196Y0201700D01*
X0249942Y0200954D01*
X0249942Y0200954D01*
X0251321Y0199576D01*
X0251321Y0199576D01*
X0252067Y0198830D01*
X0252067Y0194770D01*
X0251321Y0194024D01*
X0251321Y0194024D01*
X0249942Y0192646D01*
X0249942Y0192646D01*
X0249196Y0191900D01*
X0192596Y0191900D01*
X0192067Y0190623D01*
X0192067Y0169838D01*
X0191051Y0166049D01*
X0191051Y0166049D01*
X0189090Y0162651D01*
X0189090Y0162651D01*
X0186315Y0159877D01*
X0186315Y0159877D01*
X0182918Y0157915D01*
X0182918Y0157915D01*
X0179128Y0156900D01*
X0102167Y0156900D01*
X0101175Y0156835D01*
X0099258Y0156321D01*
X0097540Y0155329D01*
X0096137Y0153927D01*
X0095145Y0152208D01*
X0095105Y0152060D02*
X0324767Y0152060D01*
X0324767Y0150462D02*
X0094677Y0150462D01*
X0094567Y0148863D02*
X0324767Y0148863D01*
X0324767Y0147265D02*
X0094567Y0147265D01*
X0094567Y0145666D02*
X0324767Y0145666D01*
X0324767Y0144068D02*
X0094567Y0144068D01*
X0094567Y0142469D02*
X0299993Y0142469D01*
X0299117Y0140870D02*
X0185939Y0140870D01*
X0186466Y0139272D02*
X0299117Y0139272D01*
X0299117Y0137673D02*
X0186466Y0137673D01*
X0186466Y0136075D02*
X0299117Y0136075D01*
X0299335Y0134476D02*
X0186466Y0134476D01*
X0186246Y0132878D02*
X0299117Y0132878D01*
X0299117Y0131279D02*
X0186466Y0131279D01*
X0186466Y0129681D02*
X0299117Y0129681D01*
X0299117Y0128082D02*
X0186466Y0128082D01*
X0186466Y0126484D02*
X0220601Y0126484D01*
X0220884Y0126767D02*
X0220026Y0125909D01*
X0219562Y0124788D01*
X0219562Y0124079D01*
X0217340Y0124079D01*
X0216896Y0123895D01*
X0216452Y0124079D01*
X0215238Y0124079D01*
X0214117Y0123614D01*
X0213397Y0122894D01*
X0212676Y0123614D01*
X0211555Y0124079D01*
X0208240Y0124079D01*
X0207119Y0123614D01*
X0206924Y0123419D01*
X0206729Y0123614D01*
X0206593Y0123671D01*
X0206536Y0123807D01*
X0205678Y0124665D01*
X0204557Y0125129D01*
X0203344Y0125129D01*
X0202223Y0124665D01*
X0201365Y0123807D01*
X0201309Y0123671D01*
X0201172Y0123614D01*
X0201093Y0123535D01*
X0201013Y0123614D01*
X0199892Y0124079D01*
X0196577Y0124079D01*
X0195456Y0123614D01*
X0195261Y0123419D01*
X0195066Y0123614D01*
X0193945Y0124079D01*
X0192732Y0124079D01*
X0192288Y0123895D01*
X0191843Y0124079D01*
X0189579Y0124079D01*
X0188458Y0123614D01*
X0187600Y0122756D01*
X0187136Y0121635D01*
X0187136Y0120422D01*
X0187600Y0119301D01*
X0188458Y0118443D01*
X0189579Y0117979D01*
X0189973Y0117979D01*
X0190288Y0117663D01*
X0190288Y0116218D01*
X0190753Y0115097D01*
X0191611Y0114239D01*
X0192732Y0113775D01*
X0193945Y0113775D01*
X0195066Y0114239D01*
X0195261Y0114434D01*
X0195456Y0114239D01*
X0196577Y0113775D01*
X0199892Y0113775D01*
X0201013Y0114239D01*
X0201093Y0114319D01*
X0201172Y0114239D01*
X0202293Y0113775D01*
X0203507Y0113775D01*
X0204628Y0114239D01*
X0206034Y0115646D01*
X0206261Y0115097D01*
X0207119Y0114239D01*
X0208240Y0113775D01*
X0211555Y0113775D01*
X0212676Y0114239D01*
X0212871Y0114434D01*
X0213066Y0114239D01*
X0214187Y0113775D01*
X0215401Y0113775D01*
X0215845Y0113959D01*
X0216289Y0113775D01*
X0217503Y0113775D01*
X0217947Y0113959D01*
X0218391Y0113775D01*
X0219604Y0113775D01*
X0220279Y0114055D01*
X0220954Y0113775D01*
X0224270Y0113775D01*
X0224945Y0114055D01*
X0225620Y0113775D01*
X0226833Y0113775D01*
X0227954Y0114239D01*
X0228559Y0114844D01*
X0229164Y0114239D01*
X0230285Y0113775D01*
X0233600Y0113775D01*
X0234391Y0114102D01*
X0235181Y0113775D01*
X0239547Y0113775D01*
X0240668Y0114239D01*
X0240863Y0114434D01*
X0241058Y0114239D01*
X0242179Y0113775D01*
X0243393Y0113775D01*
X0243837Y0113959D01*
X0244281Y0113775D01*
X0245494Y0113775D01*
X0245939Y0113959D01*
X0246383Y0113775D01*
X0247596Y0113775D01*
X0248717Y0114239D01*
X0249575Y0115097D01*
X0250040Y0116218D01*
X0250040Y0121635D01*
X0249575Y0122756D01*
X0248717Y0123614D01*
X0247596Y0124079D01*
X0245332Y0124079D01*
X0244888Y0123895D01*
X0244444Y0124079D01*
X0243230Y0124079D01*
X0242109Y0123614D01*
X0241914Y0123419D01*
X0241719Y0123614D01*
X0240598Y0124079D01*
X0239385Y0124079D01*
X0238264Y0123614D01*
X0237890Y0123240D01*
X0237516Y0123614D01*
X0236395Y0124079D01*
X0235902Y0124079D01*
X0235579Y0124858D01*
X0234721Y0125716D01*
X0233600Y0126180D01*
X0231336Y0126180D01*
X0230215Y0125716D01*
X0229357Y0124858D01*
X0229197Y0124473D01*
X0229005Y0124665D01*
X0227884Y0125129D01*
X0226671Y0125129D01*
X0225662Y0124712D01*
X0225662Y0124788D01*
X0225198Y0125909D01*
X0224340Y0126767D01*
X0223219Y0127231D01*
X0222005Y0127231D01*
X0220884Y0126767D01*
X0219602Y0124885D02*
X0205147Y0124885D01*
X0202755Y0124885D02*
X0185817Y0124885D01*
X0185817Y0123287D02*
X0188131Y0123287D01*
X0187158Y0121688D02*
X0185817Y0121688D01*
X0185817Y0120090D02*
X0187273Y0120090D01*
X0188410Y0118491D02*
X0185817Y0118491D01*
X0185817Y0116893D02*
X0190288Y0116893D01*
X0190671Y0115294D02*
X0186052Y0115294D01*
X0186689Y0113696D02*
X0300320Y0113696D01*
X0299891Y0115294D02*
X0297707Y0115294D01*
X0298090Y0116893D02*
X0299767Y0116893D01*
X0299767Y0118491D02*
X0298090Y0118491D01*
X0298090Y0120090D02*
X0299767Y0120090D01*
X0299700Y0124885D02*
X0299767Y0124885D01*
X0299640Y0126484D02*
X0265444Y0126484D01*
X0266443Y0124885D02*
X0279536Y0124885D01*
X0285704Y0124885D02*
X0290380Y0124885D01*
X0291875Y0115294D02*
X0292373Y0115294D01*
X0300748Y0112097D02*
X0187966Y0112097D01*
X0191422Y0110499D02*
X0301435Y0110499D01*
X0310104Y0115294D02*
X0324750Y0115294D01*
X0324767Y0116893D02*
X0309676Y0116893D01*
X0309567Y0118491D02*
X0324767Y0118491D01*
X0324767Y0120090D02*
X0309567Y0120090D01*
X0309567Y0121688D02*
X0324767Y0121688D01*
X0324767Y0123287D02*
X0309567Y0123287D01*
X0309567Y0124885D02*
X0324767Y0124885D01*
X0324767Y0126484D02*
X0309693Y0126484D01*
X0310216Y0128082D02*
X0324767Y0128082D01*
X0324767Y0129681D02*
X0310216Y0129681D01*
X0310216Y0131279D02*
X0324767Y0131279D01*
X0324767Y0132878D02*
X0310216Y0132878D01*
X0315523Y0134476D02*
X0324767Y0134476D01*
X0324767Y0136075D02*
X0317067Y0136075D01*
X0317067Y0137673D02*
X0324767Y0137673D01*
X0324767Y0139272D02*
X0317067Y0139272D01*
X0316276Y0140870D02*
X0324767Y0140870D01*
X0324767Y0142469D02*
X0314677Y0142469D01*
X0309656Y0142469D02*
X0309341Y0142469D01*
X0324767Y0153659D02*
X0095982Y0153659D01*
X0097468Y0155257D02*
X0324767Y0155257D01*
X0324767Y0156856D02*
X0101489Y0156856D01*
X0085917Y0168045D02*
X0057007Y0168045D01*
X0057007Y0166447D02*
X0065580Y0166447D01*
X0063285Y0164848D02*
X0057007Y0164848D01*
X0057007Y0163250D02*
X0062463Y0163250D01*
X0062267Y0161651D02*
X0057007Y0161651D01*
X0057007Y0160053D02*
X0062587Y0160053D01*
X0063556Y0158454D02*
X0057007Y0158454D01*
X0049807Y0158454D02*
X0019627Y0158454D01*
X0019392Y0158357D02*
X0021577Y0159262D01*
X0023248Y0160933D01*
X0024153Y0163118D01*
X0024153Y0165482D01*
X0023248Y0167667D01*
X0021577Y0169338D01*
X0020840Y0169643D01*
X0021010Y0169730D01*
X0021691Y0170224D01*
X0022286Y0170819D01*
X0022780Y0171499D01*
X0023162Y0172249D01*
X0023422Y0173049D01*
X0023553Y0173879D01*
X0023553Y0173919D01*
X0015048Y0173919D01*
X0015048Y0174681D01*
X0023553Y0174681D01*
X0023553Y0174721D01*
X0023422Y0175551D01*
X0023162Y0176351D01*
X0022780Y0177100D01*
X0022286Y0177781D01*
X0021691Y0178376D01*
X0021010Y0178870D01*
X0020261Y0179252D01*
X0019461Y0179512D01*
X0018630Y0179643D01*
X0015048Y0179643D01*
X0015048Y0174681D01*
X0014286Y0174681D01*
X0014286Y0179643D01*
X0010703Y0179643D01*
X0009872Y0179512D01*
X0009072Y0179252D01*
X0008323Y0178870D01*
X0007642Y0178376D01*
X0007048Y0177781D01*
X0006553Y0177100D01*
X0006172Y0176351D01*
X0005912Y0175551D01*
X0005780Y0174721D01*
X0005780Y0174681D01*
X0014285Y0174681D01*
X0014285Y0173919D01*
X0005780Y0173919D01*
X0005780Y0173879D01*
X0005912Y0173049D01*
X0006172Y0172249D01*
X0006553Y0171499D01*
X0007048Y0170819D01*
X0007642Y0170224D01*
X0008323Y0169730D01*
X0008493Y0169643D01*
X0007757Y0169338D01*
X0006085Y0167667D01*
X0005180Y0165482D01*
X0005180Y0163118D01*
X0006085Y0160933D01*
X0007757Y0159262D01*
X0009941Y0158357D01*
X0019392Y0158357D01*
X0022368Y0160053D02*
X0049807Y0160053D01*
X0049807Y0161651D02*
X0023546Y0161651D01*
X0024153Y0163250D02*
X0049807Y0163250D01*
X0049807Y0164848D02*
X0024153Y0164848D01*
X0023754Y0166447D02*
X0049807Y0166447D01*
X0049807Y0168045D02*
X0022870Y0168045D01*
X0020841Y0169644D02*
X0049807Y0169644D01*
X0049807Y0171242D02*
X0022593Y0171242D01*
X0023354Y0172841D02*
X0049807Y0172841D01*
X0049807Y0174439D02*
X0015048Y0174439D01*
X0014285Y0174439D02*
X0002167Y0174439D01*
X0002167Y0172841D02*
X0005979Y0172841D01*
X0006740Y0171242D02*
X0002167Y0171242D01*
X0002167Y0169644D02*
X0008492Y0169644D01*
X0006463Y0168045D02*
X0002167Y0168045D01*
X0002167Y0166447D02*
X0005580Y0166447D01*
X0005180Y0164848D02*
X0002167Y0164848D01*
X0002167Y0163250D02*
X0005180Y0163250D01*
X0005788Y0161651D02*
X0002167Y0161651D01*
X0002167Y0160053D02*
X0006966Y0160053D01*
X0009706Y0158454D02*
X0002167Y0158454D01*
X0002167Y0156856D02*
X0049807Y0156856D01*
X0049807Y0155257D02*
X0002167Y0155257D01*
X0002167Y0153659D02*
X0008032Y0153659D01*
X0008323Y0153870D02*
X0007642Y0153376D01*
X0007048Y0152781D01*
X0006553Y0152100D01*
X0006172Y0151351D01*
X0005912Y0150551D01*
X0005780Y0149721D01*
X0005780Y0149681D01*
X0014285Y0149681D01*
X0014285Y0148919D01*
X0005780Y0148919D01*
X0005780Y0148879D01*
X0005912Y0148049D01*
X0006172Y0147249D01*
X0006553Y0146499D01*
X0007048Y0145819D01*
X0007642Y0145224D01*
X0008323Y0144730D01*
X0008493Y0144643D01*
X0007757Y0144338D01*
X0006085Y0142667D01*
X0005180Y0140482D01*
X0005180Y0138118D01*
X0006085Y0135933D01*
X0007757Y0134262D01*
X0009941Y0133357D01*
X0019392Y0133357D01*
X0021577Y0134262D01*
X0023248Y0135933D01*
X0024153Y0138118D01*
X0024153Y0140482D01*
X0023248Y0142667D01*
X0021577Y0144338D01*
X0020840Y0144643D01*
X0021010Y0144730D01*
X0021691Y0145224D01*
X0022286Y0145819D01*
X0022780Y0146499D01*
X0023162Y0147249D01*
X0023422Y0148049D01*
X0023553Y0148879D01*
X0023553Y0148919D01*
X0015048Y0148919D01*
X0015048Y0149681D01*
X0023553Y0149681D01*
X0023553Y0149721D01*
X0023422Y0150551D01*
X0023162Y0151351D01*
X0022780Y0152100D01*
X0022286Y0152781D01*
X0021691Y0153376D01*
X0021010Y0153870D01*
X0020261Y0154252D01*
X0019461Y0154512D01*
X0018630Y0154643D01*
X0015048Y0154643D01*
X0015048Y0149681D01*
X0014286Y0149681D01*
X0014286Y0154643D01*
X0010703Y0154643D01*
X0009872Y0154512D01*
X0009072Y0154252D01*
X0008323Y0153870D01*
X0006533Y0152060D02*
X0002167Y0152060D01*
X0002167Y0150462D02*
X0005897Y0150462D01*
X0005783Y0148863D02*
X0002167Y0148863D01*
X0002167Y0147265D02*
X0006166Y0147265D01*
X0007201Y0145666D02*
X0002167Y0145666D01*
X0002167Y0144068D02*
X0007486Y0144068D01*
X0006003Y0142469D02*
X0002167Y0142469D01*
X0002167Y0140870D02*
X0005341Y0140870D01*
X0005180Y0139272D02*
X0002167Y0139272D01*
X0002167Y0137673D02*
X0005364Y0137673D01*
X0006026Y0136075D02*
X0002167Y0136075D01*
X0002167Y0134476D02*
X0007542Y0134476D01*
X0002167Y0132878D02*
X0049807Y0132878D01*
X0049807Y0134476D02*
X0021792Y0134476D01*
X0023307Y0136075D02*
X0049807Y0136075D01*
X0049807Y0137673D02*
X0023969Y0137673D01*
X0024153Y0139272D02*
X0049807Y0139272D01*
X0049807Y0140870D02*
X0023992Y0140870D01*
X0023330Y0142469D02*
X0049807Y0142469D01*
X0049807Y0144068D02*
X0021848Y0144068D01*
X0022133Y0145666D02*
X0049807Y0145666D01*
X0049807Y0147265D02*
X0023167Y0147265D01*
X0023551Y0148863D02*
X0049807Y0148863D01*
X0049807Y0150462D02*
X0023436Y0150462D01*
X0022801Y0152060D02*
X0049807Y0152060D01*
X0049807Y0153659D02*
X0021301Y0153659D01*
X0015048Y0153659D02*
X0014286Y0153659D01*
X0014286Y0152060D02*
X0015048Y0152060D01*
X0015048Y0150462D02*
X0014286Y0150462D01*
X0002167Y0131279D02*
X0049807Y0131279D01*
X0049807Y0129681D02*
X0002167Y0129681D01*
X0002167Y0128082D02*
X0049807Y0128082D01*
X0049807Y0126484D02*
X0002167Y0126484D01*
X0002167Y0124885D02*
X0049807Y0124885D01*
X0049807Y0123287D02*
X0021780Y0123287D01*
X0022990Y0121688D02*
X0049807Y0121688D01*
X0049807Y0120090D02*
X0023495Y0120090D01*
X0023492Y0118491D02*
X0049807Y0118491D01*
X0049807Y0116893D02*
X0022980Y0116893D01*
X0021761Y0115294D02*
X0049807Y0115294D01*
X0041286Y0113696D02*
X0040547Y0113696D01*
X0023786Y0113696D02*
X0022219Y0113696D01*
X0015048Y0120090D02*
X0014286Y0120090D01*
X0014286Y0121688D02*
X0015048Y0121688D01*
X0015048Y0123287D02*
X0014286Y0123287D01*
X0007554Y0123287D02*
X0002167Y0123287D01*
X0002167Y0121688D02*
X0006343Y0121688D01*
X0005839Y0120090D02*
X0002167Y0120090D01*
X0002167Y0118491D02*
X0005842Y0118491D01*
X0006353Y0116893D02*
X0002167Y0116893D01*
X0002167Y0115294D02*
X0007572Y0115294D01*
X0007114Y0113696D02*
X0002167Y0113696D01*
X0002167Y0112097D02*
X0005849Y0112097D01*
X0005187Y0110499D02*
X0002167Y0110499D01*
X0002167Y0108900D02*
X0005180Y0108900D01*
X0005518Y0107302D02*
X0002167Y0107302D01*
X0002167Y0105703D02*
X0006315Y0105703D01*
X0008135Y0104105D02*
X0002167Y0104105D01*
X0002167Y0102506D02*
X0036164Y0102506D01*
X0036164Y0100908D02*
X0002167Y0100908D01*
X0002167Y0099309D02*
X0009249Y0099309D01*
X0006997Y0097711D02*
X0002167Y0097711D01*
X0002167Y0096112D02*
X0006094Y0096112D01*
X0005955Y0092915D02*
X0002167Y0092915D01*
X0002167Y0091317D02*
X0006686Y0091317D01*
X0008346Y0089718D02*
X0002167Y0089718D01*
X0002167Y0088120D02*
X0006538Y0088120D01*
X0005610Y0086521D02*
X0002167Y0086521D01*
X0002167Y0084923D02*
X0005180Y0084923D01*
X0005180Y0083324D02*
X0002167Y0083324D01*
X0002167Y0081726D02*
X0005757Y0081726D01*
X0006891Y0080127D02*
X0002167Y0080127D01*
X0002167Y0078529D02*
X0009526Y0078529D01*
X0002167Y0076930D02*
X0021617Y0076930D01*
X0021617Y0075332D02*
X0002167Y0075332D01*
X0002167Y0073733D02*
X0021617Y0073733D01*
X0021770Y0072134D02*
X0002167Y0072134D01*
X0002167Y0070536D02*
X0021617Y0070536D01*
X0020389Y0068937D02*
X0002167Y0068937D01*
X0002167Y0067339D02*
X0019165Y0067339D01*
X0019601Y0068236D02*
X0019601Y0068236D01*
X0018390Y0065740D02*
X0002167Y0065740D01*
X0002167Y0064142D02*
X0017999Y0064142D01*
X0017910Y0062543D02*
X0002167Y0062543D01*
X0002167Y0060945D02*
X0017942Y0060945D01*
X0017942Y0059346D02*
X0002167Y0059346D01*
X0002167Y0057748D02*
X0017942Y0057748D01*
X0017917Y0056149D02*
X0002167Y0056149D01*
X0002167Y0054551D02*
X0018117Y0054551D01*
X0018183Y0054023D02*
X0018183Y0054023D01*
X0018792Y0052952D02*
X0002167Y0052952D01*
X0002167Y0051354D02*
X0019701Y0051354D01*
X0021528Y0049755D02*
X0002167Y0049755D01*
X0002167Y0048157D02*
X0021617Y0048157D01*
X0022065Y0046558D02*
X0002167Y0046558D01*
X0027167Y0050560D02*
X0034667Y0050560D01*
X0034667Y0050461D01*
X0035346Y0050461D01*
X0035346Y0050560D02*
X0034667Y0050560D01*
X0035346Y0053020D02*
X0044667Y0053020D01*
X0044667Y0056870D01*
X0044139Y0059106D02*
X0042167Y0063050D01*
X0038427Y0068050D01*
X0043386Y0067570D02*
X0045427Y0067570D01*
X0046386Y0067570D01*
X0046386Y0063297D01*
X0048703Y0063297D01*
X0049161Y0063420D01*
X0049236Y0063463D01*
X0049236Y0061326D01*
X0048648Y0061326D01*
X0047766Y0060961D01*
X0047115Y0060309D01*
X0045427Y0063684D01*
X0045427Y0067570D01*
X0045427Y0068530D01*
X0045427Y0072803D01*
X0043111Y0072803D01*
X0042692Y0072691D01*
X0042345Y0073037D01*
X0041978Y0073189D01*
X0043217Y0074428D01*
X0043217Y0074428D01*
X0044526Y0077589D01*
X0044526Y0078984D01*
X0044667Y0079042D01*
X0044807Y0078984D01*
X0044807Y0077589D01*
X0046116Y0074428D01*
X0047742Y0072803D01*
X0046386Y0072803D01*
X0046386Y0068530D01*
X0045427Y0068530D01*
X0043386Y0068530D01*
X0043386Y0067570D01*
X0044667Y0068050D02*
X0044667Y0079300D01*
X0044526Y0078529D02*
X0044807Y0078529D01*
X0045080Y0076930D02*
X0044253Y0076930D01*
X0043591Y0075332D02*
X0045742Y0075332D01*
X0046116Y0074428D02*
X0046116Y0074428D01*
X0046812Y0073733D02*
X0042522Y0073733D01*
X0045427Y0072134D02*
X0046386Y0072134D01*
X0046386Y0070536D02*
X0045427Y0070536D01*
X0045427Y0068937D02*
X0046386Y0068937D01*
X0046386Y0068530D02*
X0050266Y0068530D01*
X0050266Y0071240D01*
X0050250Y0071299D01*
X0051696Y0070700D01*
X0052691Y0070700D01*
X0054117Y0070700D01*
X0054117Y0065981D01*
X0051158Y0065981D01*
X0050276Y0065616D01*
X0050266Y0065605D01*
X0050266Y0067570D01*
X0046386Y0067570D01*
X0046386Y0068530D01*
X0045907Y0068050D02*
X0047157Y0068050D01*
X0047167Y0061800D01*
X0047167Y0066800D01*
X0045907Y0068050D01*
X0045427Y0067339D02*
X0046386Y0067339D01*
X0047167Y0066800D02*
X0047167Y0068050D01*
X0044667Y0068050D01*
X0045427Y0065740D02*
X0046386Y0065740D01*
X0046386Y0064142D02*
X0045427Y0064142D01*
X0045998Y0062543D02*
X0049236Y0062543D01*
X0047750Y0060945D02*
X0046797Y0060945D01*
X0047167Y0061800D02*
X0047167Y0055580D01*
X0051488Y0055580D01*
X0051488Y0058139D02*
X0053417Y0058139D01*
X0053417Y0061800D01*
X0053417Y0058139D02*
X0059667Y0058139D01*
X0059667Y0058040D01*
X0051488Y0053020D02*
X0044667Y0053020D01*
X0046725Y0049755D02*
X0040108Y0049755D01*
X0039585Y0048157D02*
X0047248Y0048157D01*
X0051488Y0050461D02*
X0059667Y0050461D01*
X0059667Y0050560D01*
X0054565Y0046558D02*
X0032268Y0046558D01*
X0035346Y0055580D02*
X0039667Y0055580D01*
X0040917Y0056800D01*
X0044667Y0056870D02*
X0044665Y0057006D01*
X0044660Y0057143D01*
X0044650Y0057279D01*
X0044637Y0057414D01*
X0044621Y0057550D01*
X0044600Y0057685D01*
X0044576Y0057819D01*
X0044548Y0057952D01*
X0044517Y0058085D01*
X0044482Y0058217D01*
X0044444Y0058348D01*
X0044402Y0058477D01*
X0044356Y0058606D01*
X0044307Y0058733D01*
X0044254Y0058859D01*
X0044198Y0058983D01*
X0044139Y0059106D01*
X0035346Y0058139D02*
X0027167Y0058139D01*
X0027167Y0058040D01*
X0050266Y0065740D02*
X0050577Y0065740D01*
X0050266Y0067339D02*
X0054117Y0067339D01*
X0054117Y0068937D02*
X0050266Y0068937D01*
X0050266Y0070536D02*
X0054117Y0070536D01*
X0054117Y0078529D02*
X0052240Y0078529D01*
X0053140Y0080127D02*
X0055151Y0080127D01*
X0049657Y0090550D02*
X0048417Y0090550D01*
X0048417Y0099300D01*
X0048604Y0100550D01*
X0048321Y0099309D02*
X0048886Y0099309D01*
X0048886Y0097711D02*
X0048321Y0097711D01*
X0048321Y0096112D02*
X0048886Y0096112D01*
X0051067Y0094514D02*
X0043848Y0094514D01*
X0043848Y0092915D02*
X0051067Y0092915D01*
X0051067Y0091317D02*
X0043547Y0091317D01*
X0044667Y0090550D02*
X0044667Y0089300D01*
X0045053Y0089718D02*
X0044280Y0089718D01*
X0039667Y0094300D02*
X0039667Y0101800D01*
X0040730Y0101800D01*
X0040730Y0100550D01*
X0036164Y0099309D02*
X0020085Y0099309D01*
X0022337Y0097711D02*
X0036121Y0097711D01*
X0035486Y0096112D02*
X0032042Y0096112D01*
X0031994Y0096294D02*
X0031757Y0096704D01*
X0031421Y0097040D01*
X0031011Y0097277D01*
X0030553Y0097399D01*
X0027646Y0097399D01*
X0027646Y0093520D01*
X0032116Y0093520D01*
X0032116Y0095836D01*
X0031994Y0096294D01*
X0032116Y0094514D02*
X0035486Y0094514D01*
X0035486Y0092915D02*
X0027646Y0092915D01*
X0027646Y0094514D02*
X0026687Y0094514D01*
X0026687Y0096112D02*
X0027646Y0096112D01*
X0032116Y0091317D02*
X0035786Y0091317D01*
X0037573Y0089718D02*
X0032111Y0089718D01*
X0032386Y0081726D02*
X0035967Y0081726D01*
X0036194Y0080127D02*
X0031683Y0080127D01*
X0032716Y0078529D02*
X0037093Y0078529D01*
X0022651Y0080127D02*
X0022442Y0080127D01*
X0021617Y0078529D02*
X0019807Y0078529D01*
X0014285Y0094514D02*
X0002167Y0094514D01*
X0014286Y0096112D02*
X0015048Y0096112D01*
X0015048Y0097711D02*
X0014286Y0097711D01*
X0014286Y0099309D02*
X0015048Y0099309D01*
X0021198Y0104105D02*
X0024535Y0104105D01*
X0044607Y0096112D02*
X0045761Y0096112D01*
X0094567Y0096112D02*
X0112986Y0096112D01*
X0112986Y0094541D02*
X0113351Y0093659D01*
X0114026Y0092984D01*
X0114908Y0092619D01*
X0119425Y0092619D01*
X0120307Y0092984D01*
X0120523Y0093200D01*
X0127560Y0093200D01*
X0127776Y0092984D01*
X0128658Y0092619D01*
X0133175Y0092619D01*
X0134057Y0092984D01*
X0134732Y0093659D01*
X0135098Y0094541D01*
X0135098Y0099058D01*
X0134732Y0099941D01*
X0134057Y0100616D01*
X0133175Y0100981D01*
X0128658Y0100981D01*
X0127776Y0100616D01*
X0127560Y0100400D01*
X0120523Y0100400D01*
X0120307Y0100616D01*
X0119425Y0100981D01*
X0119567Y0101323D01*
X0119567Y0127277D01*
X0119201Y0128159D01*
X0118526Y0128835D01*
X0117644Y0129200D01*
X0101689Y0129200D01*
X0100807Y0128835D01*
X0100132Y0128159D01*
X0099767Y0127277D01*
X0099767Y0101323D01*
X0100132Y0100441D01*
X0100807Y0099765D01*
X0101689Y0099400D01*
X0113127Y0099400D01*
X0112986Y0099058D01*
X0112986Y0094541D01*
X0112997Y0094514D02*
X0094567Y0094514D01*
X0094567Y0092915D02*
X0114193Y0092915D01*
X0112986Y0097711D02*
X0094567Y0097711D01*
X0094567Y0099309D02*
X0113089Y0099309D01*
X0119602Y0100908D02*
X0128481Y0100908D01*
X0133352Y0100908D02*
X0163517Y0100908D01*
X0163517Y0102506D02*
X0119567Y0102506D01*
X0119567Y0104105D02*
X0163517Y0104105D01*
X0163517Y0105703D02*
X0119567Y0105703D01*
X0119567Y0107302D02*
X0163517Y0107302D01*
X0163517Y0108900D02*
X0119567Y0108900D01*
X0119567Y0110499D02*
X0163517Y0110499D01*
X0163517Y0112097D02*
X0119567Y0112097D01*
X0119567Y0113696D02*
X0163517Y0113696D01*
X0163517Y0115294D02*
X0119567Y0115294D01*
X0119567Y0116893D02*
X0163517Y0116893D01*
X0163517Y0118491D02*
X0119567Y0118491D01*
X0119567Y0120090D02*
X0163517Y0120090D01*
X0163517Y0121688D02*
X0119567Y0121688D01*
X0119567Y0123287D02*
X0163517Y0123287D01*
X0163517Y0124885D02*
X0119567Y0124885D01*
X0119567Y0126484D02*
X0164921Y0126484D01*
X0164263Y0125826D02*
X0164263Y0125826D01*
X0163517Y0125080D01*
X0163517Y0088520D01*
X0166387Y0085650D01*
X0170446Y0085650D01*
X0173317Y0088520D01*
X0173317Y0124025D01*
X0173317Y0125080D01*
X0172571Y0125826D01*
X0171192Y0127204D01*
X0170446Y0127950D01*
X0166387Y0127950D01*
X0165641Y0127204D01*
X0164263Y0125826D01*
X0165641Y0127204D02*
X0165641Y0127204D01*
X0171192Y0127204D02*
X0171192Y0127204D01*
X0171912Y0126484D02*
X0175367Y0126484D01*
X0175367Y0128082D02*
X0119233Y0128082D01*
X0100100Y0128082D02*
X0094567Y0128082D01*
X0094567Y0126484D02*
X0099767Y0126484D01*
X0099767Y0124885D02*
X0094567Y0124885D01*
X0094567Y0123287D02*
X0099767Y0123287D01*
X0099767Y0121688D02*
X0094567Y0121688D01*
X0094567Y0120090D02*
X0099767Y0120090D01*
X0099767Y0118491D02*
X0094567Y0118491D01*
X0094567Y0116893D02*
X0099767Y0116893D01*
X0099767Y0115294D02*
X0094567Y0115294D01*
X0094567Y0113696D02*
X0099767Y0113696D01*
X0099767Y0112097D02*
X0094567Y0112097D01*
X0094567Y0110499D02*
X0099767Y0110499D01*
X0099767Y0108900D02*
X0094567Y0108900D01*
X0094567Y0107302D02*
X0099767Y0107302D01*
X0099767Y0105703D02*
X0094567Y0105703D01*
X0094567Y0104105D02*
X0099767Y0104105D01*
X0099767Y0102506D02*
X0094567Y0102506D01*
X0094567Y0100908D02*
X0099939Y0100908D01*
X0094567Y0091317D02*
X0163517Y0091317D01*
X0163517Y0092915D02*
X0133890Y0092915D01*
X0135086Y0094514D02*
X0163517Y0094514D01*
X0163517Y0096112D02*
X0135098Y0096112D01*
X0135098Y0097711D02*
X0163517Y0097711D01*
X0163517Y0099309D02*
X0134994Y0099309D01*
X0127943Y0092915D02*
X0120140Y0092915D01*
X0099868Y0078529D02*
X0170716Y0078529D01*
X0169767Y0076930D02*
X0100649Y0076930D01*
X0097671Y0080127D02*
X0172314Y0080127D01*
X0175367Y0081726D02*
X0094573Y0081726D01*
X0094567Y0083324D02*
X0175367Y0083324D01*
X0175367Y0084923D02*
X0094567Y0084923D01*
X0094567Y0086521D02*
X0165516Y0086521D01*
X0163917Y0088120D02*
X0094567Y0088120D01*
X0094567Y0089718D02*
X0163517Y0089718D01*
X0171317Y0086521D02*
X0175551Y0086521D01*
X0176017Y0088120D02*
X0172916Y0088120D01*
X0173317Y0089718D02*
X0176017Y0089718D01*
X0176017Y0091317D02*
X0173317Y0091317D01*
X0173317Y0092915D02*
X0176017Y0092915D01*
X0176017Y0094514D02*
X0173317Y0094514D01*
X0173317Y0096112D02*
X0176017Y0096112D01*
X0176361Y0097711D02*
X0173317Y0097711D01*
X0173317Y0099309D02*
X0176789Y0099309D01*
X0177333Y0100908D02*
X0173317Y0100908D01*
X0173317Y0102506D02*
X0178256Y0102506D01*
X0179179Y0104105D02*
X0173317Y0104105D01*
X0173317Y0105703D02*
X0180424Y0105703D01*
X0179002Y0107302D02*
X0173317Y0107302D01*
X0173317Y0108900D02*
X0178079Y0108900D01*
X0177156Y0110499D02*
X0173317Y0110499D01*
X0173317Y0112097D02*
X0176707Y0112097D01*
X0176279Y0113696D02*
X0173317Y0113696D01*
X0173317Y0115294D02*
X0176017Y0115294D01*
X0176017Y0116893D02*
X0173317Y0116893D01*
X0173317Y0118491D02*
X0176017Y0118491D01*
X0176017Y0120090D02*
X0173317Y0120090D01*
X0173317Y0121688D02*
X0176017Y0121688D01*
X0176017Y0123287D02*
X0173317Y0123287D01*
X0173317Y0124885D02*
X0176017Y0124885D01*
X0172571Y0125826D02*
X0172571Y0125826D01*
X0175367Y0129681D02*
X0094567Y0129681D01*
X0094567Y0131279D02*
X0175367Y0131279D01*
X0171659Y0132878D02*
X0094567Y0132878D01*
X0094567Y0134476D02*
X0170061Y0134476D01*
X0169767Y0136075D02*
X0094567Y0136075D01*
X0094567Y0137673D02*
X0169767Y0137673D01*
X0170209Y0139272D02*
X0094567Y0139272D01*
X0094567Y0140870D02*
X0171808Y0140870D01*
X0183851Y0158454D02*
X0324767Y0158454D01*
X0324767Y0160053D02*
X0186491Y0160053D01*
X0188090Y0161651D02*
X0324767Y0161651D01*
X0324767Y0163250D02*
X0189435Y0163250D01*
X0190358Y0164848D02*
X0324767Y0164848D01*
X0324767Y0166447D02*
X0191158Y0166447D01*
X0191586Y0168045D02*
X0324767Y0168045D01*
X0324767Y0169644D02*
X0192014Y0169644D01*
X0192067Y0171242D02*
X0324767Y0171242D01*
X0324767Y0172841D02*
X0192067Y0172841D01*
X0192067Y0174439D02*
X0324767Y0174439D01*
X0324767Y0176038D02*
X0192067Y0176038D01*
X0192067Y0177636D02*
X0324767Y0177636D01*
X0324767Y0179235D02*
X0192067Y0179235D01*
X0192067Y0180833D02*
X0324767Y0180833D01*
X0324767Y0182432D02*
X0192067Y0182432D01*
X0192067Y0184030D02*
X0324767Y0184030D01*
X0324767Y0185629D02*
X0192067Y0185629D01*
X0192067Y0187227D02*
X0324739Y0187227D01*
X0324336Y0188826D02*
X0310428Y0188826D01*
X0311985Y0190424D02*
X0323193Y0190424D01*
X0332010Y0195220D02*
X0333467Y0195220D01*
X0333467Y0196818D02*
X0330720Y0196818D01*
X0329122Y0198417D02*
X0333467Y0198417D01*
X0333467Y0200015D02*
X0326577Y0200015D01*
X0321950Y0201614D02*
X0333467Y0201614D01*
X0333467Y0203212D02*
X0311969Y0203212D01*
X0310391Y0204811D02*
X0333467Y0204811D01*
X0333467Y0206409D02*
X0139567Y0206409D01*
X0139567Y0204811D02*
X0163942Y0204811D01*
X0162364Y0203212D02*
X0139567Y0203212D01*
X0139264Y0208008D02*
X0333467Y0208008D01*
X0333467Y0193621D02*
X0332933Y0193621D01*
X0303905Y0188826D02*
X0298957Y0188826D01*
X0297449Y0188826D02*
X0296884Y0188826D01*
X0295376Y0188826D02*
X0290428Y0188826D01*
X0291985Y0190424D02*
X0293199Y0190424D01*
X0296884Y0190424D02*
X0297449Y0190424D01*
X0297449Y0192023D02*
X0296884Y0192023D01*
X0296884Y0193621D02*
X0297449Y0193621D01*
X0297449Y0195220D02*
X0296884Y0195220D01*
X0296884Y0198417D02*
X0297449Y0198417D01*
X0297449Y0200015D02*
X0296884Y0200015D01*
X0296884Y0201614D02*
X0297449Y0201614D01*
X0297449Y0203212D02*
X0296884Y0203212D01*
X0296884Y0204811D02*
X0297449Y0204811D01*
X0298844Y0204811D02*
X0303942Y0204811D01*
X0302364Y0203212D02*
X0301107Y0203212D01*
X0295490Y0204811D02*
X0290391Y0204811D01*
X0291969Y0203212D02*
X0293226Y0203212D01*
X0283942Y0204811D02*
X0190391Y0204811D01*
X0191969Y0203212D02*
X0282364Y0203212D01*
X0281702Y0201614D02*
X0249282Y0201614D01*
X0250881Y0200015D02*
X0281519Y0200015D01*
X0281519Y0198417D02*
X0252067Y0198417D01*
X0252067Y0196818D02*
X0281519Y0196818D01*
X0281519Y0195220D02*
X0252067Y0195220D01*
X0250918Y0193621D02*
X0281519Y0193621D01*
X0281687Y0192023D02*
X0249319Y0192023D01*
X0282349Y0190424D02*
X0192067Y0190424D01*
X0192067Y0188826D02*
X0283905Y0188826D01*
X0301134Y0190424D02*
X0302349Y0190424D01*
X0261423Y0126484D02*
X0224623Y0126484D01*
X0225622Y0124885D02*
X0226081Y0124885D01*
X0228473Y0124885D02*
X0229384Y0124885D01*
X0235552Y0124885D02*
X0260424Y0124885D01*
X0254727Y0123287D02*
X0249045Y0123287D01*
X0250018Y0121688D02*
X0253754Y0121688D01*
X0253869Y0120090D02*
X0250040Y0120090D01*
X0250040Y0118491D02*
X0253736Y0118491D01*
X0253888Y0116893D02*
X0250040Y0116893D01*
X0249657Y0115294D02*
X0255050Y0115294D01*
X0263653Y0115294D02*
X0264612Y0115294D01*
X0264229Y0116893D02*
X0264035Y0116893D01*
X0272487Y0123287D02*
X0273273Y0123287D01*
X0237937Y0123287D02*
X0237843Y0123287D01*
X0213790Y0123287D02*
X0213004Y0123287D01*
X0206180Y0115294D02*
X0205683Y0115294D01*
X0188272Y0099309D02*
X0301745Y0099309D01*
X0300983Y0097711D02*
X0186866Y0097711D01*
X0186134Y0096112D02*
X0300555Y0096112D01*
X0300127Y0094514D02*
X0185831Y0094514D01*
X0185817Y0092915D02*
X0299767Y0092915D01*
X0299767Y0091317D02*
X0185817Y0091317D01*
X0185817Y0089718D02*
X0299767Y0089718D01*
X0299767Y0088120D02*
X0185817Y0088120D01*
X0186282Y0086521D02*
X0299301Y0086521D01*
X0299117Y0084923D02*
X0186466Y0084923D01*
X0186466Y0083324D02*
X0299117Y0083324D01*
X0299117Y0081726D02*
X0186466Y0081726D01*
X0186466Y0080127D02*
X0299117Y0080127D01*
X0299117Y0078529D02*
X0186466Y0078529D01*
X0186466Y0076930D02*
X0299117Y0076930D01*
X0299117Y0075332D02*
X0186466Y0075332D01*
X0186466Y0073733D02*
X0299117Y0073733D01*
X0299278Y0072134D02*
X0186305Y0072134D01*
X0171153Y0072134D02*
X0135098Y0072134D01*
X0135098Y0070981D02*
X0135098Y0074058D01*
X0134732Y0074941D01*
X0134057Y0075616D01*
X0133175Y0075981D01*
X0128658Y0075981D01*
X0127776Y0075616D01*
X0127160Y0075000D01*
X0118423Y0075000D01*
X0117807Y0075616D01*
X0116925Y0075981D01*
X0112408Y0075981D01*
X0111526Y0075616D01*
X0110851Y0074941D01*
X0110486Y0074058D01*
X0110486Y0069541D01*
X0110586Y0069300D01*
X0110486Y0069058D01*
X0110486Y0064541D01*
X0110851Y0063659D01*
X0111526Y0062984D01*
X0112408Y0062619D01*
X0116925Y0062619D01*
X0117807Y0062984D01*
X0118023Y0063200D01*
X0131310Y0063200D01*
X0131526Y0062984D01*
X0132408Y0062619D01*
X0136925Y0062619D01*
X0137807Y0062984D01*
X0138482Y0063659D01*
X0138848Y0064541D01*
X0138848Y0069058D01*
X0138482Y0069941D01*
X0137807Y0070616D01*
X0136925Y0070981D01*
X0135098Y0070981D01*
X0137887Y0070536D02*
X0333467Y0070536D01*
X0333467Y0072134D02*
X0315681Y0072134D01*
X0317067Y0073733D02*
X0333467Y0073733D01*
X0333467Y0075332D02*
X0317067Y0075332D01*
X0317067Y0076930D02*
X0333467Y0076930D01*
X0333467Y0078529D02*
X0316118Y0078529D01*
X0314519Y0080127D02*
X0333467Y0080127D01*
X0333467Y0081726D02*
X0310216Y0081726D01*
X0310216Y0083324D02*
X0333467Y0083324D01*
X0333467Y0084923D02*
X0310216Y0084923D01*
X0310032Y0086521D02*
X0333467Y0086521D01*
X0333467Y0088120D02*
X0309567Y0088120D01*
X0309567Y0089718D02*
X0333467Y0089718D01*
X0333467Y0091317D02*
X0309617Y0091317D01*
X0309934Y0092915D02*
X0333467Y0092915D01*
X0333467Y0094514D02*
X0310392Y0094514D01*
X0311315Y0096112D02*
X0333467Y0096112D01*
X0333467Y0097711D02*
X0312666Y0097711D01*
X0314811Y0099309D02*
X0333467Y0099309D01*
X0333467Y0100908D02*
X0322590Y0100908D01*
X0326874Y0102506D02*
X0333467Y0102506D01*
X0333467Y0104105D02*
X0329293Y0104105D01*
X0330892Y0105703D02*
X0333467Y0105703D01*
X0333467Y0107302D02*
X0332110Y0107302D01*
X0333032Y0108900D02*
X0333467Y0108900D01*
X0324405Y0113696D02*
X0310980Y0113696D01*
X0312463Y0112097D02*
X0323365Y0112097D01*
X0320352Y0110499D02*
X0316422Y0110499D01*
X0333467Y0068937D02*
X0138848Y0068937D01*
X0138848Y0067339D02*
X0333467Y0067339D01*
X0333467Y0065740D02*
X0138848Y0065740D01*
X0138682Y0064142D02*
X0333467Y0064142D01*
X0333467Y0062543D02*
X0106348Y0062543D01*
X0106348Y0060945D02*
X0333467Y0060945D01*
X0333467Y0059346D02*
X0105419Y0059346D01*
X0106348Y0064142D02*
X0110651Y0064142D01*
X0110486Y0065740D02*
X0106169Y0065740D01*
X0105217Y0067339D02*
X0110486Y0067339D01*
X0110486Y0068937D02*
X0106098Y0068937D01*
X0106348Y0070536D02*
X0110486Y0070536D01*
X0110486Y0072134D02*
X0106348Y0072134D01*
X0106348Y0073733D02*
X0110486Y0073733D01*
X0111242Y0075332D02*
X0105591Y0075332D01*
X0114667Y0071800D02*
X0130917Y0071800D01*
X0135098Y0073733D02*
X0169767Y0073733D01*
X0169767Y0075332D02*
X0134341Y0075332D01*
X0127492Y0075332D02*
X0118091Y0075332D01*
X0096199Y0062543D02*
X0095634Y0062543D01*
X0095634Y0060945D02*
X0096199Y0060945D01*
X0096199Y0059346D02*
X0095634Y0059346D01*
X0094567Y0057748D02*
X0333467Y0057748D01*
X0333467Y0056149D02*
X0094492Y0056149D01*
X0093830Y0054551D02*
X0333467Y0054551D01*
X0333467Y0052952D02*
X0093052Y0052952D01*
X0091453Y0051354D02*
X0333467Y0051354D01*
X0333467Y0049755D02*
X0088495Y0049755D01*
X0088317Y0048157D02*
X0333467Y0048157D01*
X0333467Y0046558D02*
X0088317Y0046558D01*
X0088317Y0044960D02*
X0333467Y0044960D01*
X0333467Y0043361D02*
X0112214Y0043361D01*
X0113763Y0041763D02*
X0333467Y0041763D01*
X0333467Y0040164D02*
X0113848Y0040164D01*
X0113848Y0038566D02*
X0333467Y0038566D01*
X0333467Y0036967D02*
X0113817Y0036967D01*
X0112528Y0035369D02*
X0333467Y0035369D01*
X0333467Y0033770D02*
X0100767Y0033770D01*
X0100767Y0032172D02*
X0143240Y0032172D01*
X0143351Y0032441D02*
X0142986Y0031558D01*
X0142986Y0027041D01*
X0143351Y0026159D01*
X0143567Y0025944D01*
X0143567Y0020156D01*
X0143351Y0019941D01*
X0142986Y0019058D01*
X0142986Y0014541D01*
X0143351Y0013659D01*
X0144026Y0012984D01*
X0144908Y0012619D01*
X0149425Y0012619D01*
X0150307Y0012984D01*
X0150982Y0013659D01*
X0151348Y0014541D01*
X0151348Y0019058D01*
X0150982Y0019941D01*
X0150767Y0020156D01*
X0150767Y0025944D01*
X0150982Y0026159D01*
X0151348Y0027041D01*
X0151348Y0031558D01*
X0150982Y0032441D01*
X0150307Y0033116D01*
X0149425Y0033481D01*
X0144908Y0033481D01*
X0144026Y0033116D01*
X0143351Y0032441D01*
X0142986Y0030573D02*
X0100767Y0030573D01*
X0100767Y0028975D02*
X0142986Y0028975D01*
X0142986Y0027376D02*
X0100767Y0027376D01*
X0100767Y0025778D02*
X0106917Y0025778D01*
X0105536Y0024179D02*
X0100767Y0024179D01*
X0100767Y0022581D02*
X0105486Y0022581D01*
X0105486Y0020982D02*
X0100767Y0020982D01*
X0100767Y0019384D02*
X0105551Y0019384D01*
X0106067Y0017785D02*
X0100330Y0017785D01*
X0099668Y0016187D02*
X0105899Y0016187D01*
X0123267Y0016187D02*
X0142986Y0016187D01*
X0142986Y0017785D02*
X0123267Y0017785D01*
X0123782Y0019384D02*
X0143120Y0019384D01*
X0143567Y0020982D02*
X0123848Y0020982D01*
X0123848Y0022581D02*
X0143567Y0022581D01*
X0143567Y0024179D02*
X0123798Y0024179D01*
X0122416Y0025778D02*
X0143567Y0025778D01*
X0150767Y0025778D02*
X0333467Y0025778D01*
X0333467Y0027376D02*
X0151348Y0027376D01*
X0151348Y0028975D02*
X0333467Y0028975D01*
X0333467Y0030573D02*
X0151348Y0030573D01*
X0151094Y0032172D02*
X0333467Y0032172D01*
X0333467Y0024179D02*
X0150767Y0024179D01*
X0150767Y0022581D02*
X0333467Y0022581D01*
X0333467Y0020982D02*
X0150767Y0020982D01*
X0151213Y0019384D02*
X0333467Y0019384D01*
X0333467Y0017785D02*
X0151348Y0017785D01*
X0151348Y0016187D02*
X0333467Y0016187D01*
X0333467Y0014588D02*
X0151348Y0014588D01*
X0150313Y0012990D02*
X0333467Y0012990D01*
X0333467Y0011391D02*
X0123267Y0011391D01*
X0123267Y0009793D02*
X0333467Y0009793D01*
X0333467Y0008194D02*
X0123267Y0008194D01*
X0122855Y0006596D02*
X0333467Y0006596D01*
X0333467Y0004997D02*
X0122193Y0004997D01*
X0123267Y0012990D02*
X0144021Y0012990D01*
X0142986Y0014588D02*
X0123267Y0014588D01*
X0106805Y0035369D02*
X0101294Y0035369D01*
X0095869Y0040164D02*
X0088317Y0040164D01*
X0088317Y0038566D02*
X0094625Y0038566D01*
X0093963Y0036967D02*
X0093312Y0036967D01*
X0089949Y0036967D02*
X0089384Y0036967D01*
X0089384Y0035369D02*
X0089949Y0035369D01*
X0089949Y0033770D02*
X0089384Y0033770D01*
X0088317Y0041763D02*
X0097711Y0041763D01*
X0088317Y0043361D02*
X0107119Y0043361D01*
X0085917Y0169644D02*
X0057007Y0169644D01*
X0057007Y0171242D02*
X0085917Y0171242D01*
X0085917Y0172841D02*
X0057007Y0172841D01*
X0057007Y0174439D02*
X0081595Y0174439D01*
X0079885Y0176038D02*
X0057007Y0176038D01*
X0057007Y0177636D02*
X0079767Y0177636D01*
X0079767Y0179235D02*
X0057007Y0179235D01*
X0057007Y0180833D02*
X0079767Y0180833D01*
X0079767Y0182432D02*
X0057007Y0182432D01*
X0057007Y0184030D02*
X0079767Y0184030D01*
X0079767Y0185629D02*
X0057007Y0185629D01*
X0057007Y0187227D02*
X0079767Y0187227D01*
X0079767Y0188826D02*
X0063641Y0188826D01*
X0064926Y0190424D02*
X0079767Y0190424D01*
X0079767Y0192023D02*
X0065589Y0192023D01*
X0065610Y0193621D02*
X0079767Y0193621D01*
X0079767Y0195220D02*
X0065610Y0195220D01*
X0065610Y0196818D02*
X0079767Y0196818D01*
X0079767Y0198417D02*
X0065610Y0198417D01*
X0065610Y0200015D02*
X0079767Y0200015D01*
X0079767Y0201614D02*
X0065573Y0201614D01*
X0064911Y0203212D02*
X0079767Y0203212D01*
X0079767Y0204811D02*
X0063604Y0204811D01*
X0055729Y0204811D02*
X0053604Y0204811D01*
X0045729Y0204811D02*
X0028604Y0204811D01*
X0028033Y0205382D02*
X0029705Y0203710D01*
X0030610Y0201526D01*
X0030610Y0192074D01*
X0029705Y0189890D01*
X0028033Y0188218D01*
X0025849Y0187313D01*
X0023484Y0187313D01*
X0021300Y0188218D01*
X0019667Y0189852D01*
X0018033Y0188218D01*
X0015849Y0187313D01*
X0013484Y0187313D01*
X0011300Y0188218D01*
X0009628Y0189890D01*
X0008723Y0192074D01*
X0008723Y0201526D01*
X0009628Y0203710D01*
X0011300Y0205382D01*
X0013484Y0206287D01*
X0015849Y0206287D01*
X0018033Y0205382D01*
X0019667Y0203748D01*
X0021300Y0205382D01*
X0023484Y0206287D01*
X0025849Y0206287D01*
X0028033Y0205382D01*
X0029911Y0203212D02*
X0044422Y0203212D01*
X0043760Y0201614D02*
X0030573Y0201614D01*
X0030610Y0200015D02*
X0043723Y0200015D01*
X0043723Y0198417D02*
X0030610Y0198417D01*
X0030610Y0196818D02*
X0043723Y0196818D01*
X0043723Y0195220D02*
X0030610Y0195220D01*
X0030610Y0193621D02*
X0043723Y0193621D01*
X0043745Y0192023D02*
X0030589Y0192023D01*
X0029926Y0190424D02*
X0044407Y0190424D01*
X0045692Y0188826D02*
X0028641Y0188826D01*
X0020692Y0188826D02*
X0018641Y0188826D01*
X0010692Y0188826D02*
X0002167Y0188826D01*
X0002167Y0190424D02*
X0009407Y0190424D01*
X0008745Y0192023D02*
X0002167Y0192023D01*
X0002167Y0193621D02*
X0008723Y0193621D01*
X0008723Y0195220D02*
X0002167Y0195220D01*
X0002167Y0196818D02*
X0008723Y0196818D01*
X0008723Y0198417D02*
X0002167Y0198417D01*
X0002167Y0200015D02*
X0008723Y0200015D01*
X0008760Y0201614D02*
X0002167Y0201614D01*
X0002167Y0203212D02*
X0009422Y0203212D01*
X0010729Y0204811D02*
X0002167Y0204811D01*
X0002167Y0206409D02*
X0079767Y0206409D01*
X0080069Y0208008D02*
X0002167Y0208008D01*
X0018604Y0204811D02*
X0020729Y0204811D01*
X0002167Y0187227D02*
X0049807Y0187227D01*
X0049807Y0185629D02*
X0002167Y0185629D01*
X0002167Y0184030D02*
X0049807Y0184030D01*
X0049807Y0182432D02*
X0002167Y0182432D01*
X0002167Y0180833D02*
X0049807Y0180833D01*
X0049807Y0179235D02*
X0020295Y0179235D01*
X0022391Y0177636D02*
X0049807Y0177636D01*
X0049807Y0176038D02*
X0023264Y0176038D01*
X0015048Y0176038D02*
X0014286Y0176038D01*
X0014286Y0177636D02*
X0015048Y0177636D01*
X0015048Y0179235D02*
X0014286Y0179235D01*
X0009039Y0179235D02*
X0002167Y0179235D01*
X0002167Y0177636D02*
X0006943Y0177636D01*
X0006070Y0176038D02*
X0002167Y0176038D01*
X0170391Y0204811D02*
X0173942Y0204811D01*
X0172364Y0203212D02*
X0171969Y0203212D01*
X0180391Y0204811D02*
X0183942Y0204811D01*
X0182364Y0203212D02*
X0181969Y0203212D01*
D28*
X0044667Y0089300D02*
X0044667Y0079300D01*
D29*
X0049657Y0090550D03*
X0039667Y0094300D03*
X0047167Y0061800D03*
X0053417Y0061800D03*
X0040917Y0056800D03*
X0089667Y0040550D03*
X0109667Y0039300D03*
X0109667Y0021800D03*
X0114667Y0021800D03*
X0119667Y0021800D03*
X0147167Y0016800D03*
X0147167Y0029300D03*
X0160917Y0046800D03*
X0134667Y0066800D03*
X0130917Y0071800D03*
X0114667Y0071800D03*
X0114667Y0066800D03*
X0102167Y0063050D03*
X0095917Y0058050D03*
X0102167Y0071800D03*
X0095917Y0075550D03*
X0117167Y0096800D03*
X0130917Y0096800D03*
X0079667Y0151800D03*
X0067167Y0161800D03*
X0059667Y0174300D03*
X0047167Y0174300D03*
X0089667Y0019300D03*
M02*
