G75*
%MOIN*%
%OFA0B0*%
%FSLAX25Y25*%
%IPPOS*%
%LPD*%
%AMOC8*
5,1,8,0,0,1.08239X$1,22.5*
%
%ADD10R,0.07099X0.05918*%
%ADD11OC8,0.10800*%
%ADD12OC8,0.15800*%
%ADD13C,0.07296*%
%ADD14R,0.05524X0.02375*%
%ADD15C,0.07887*%
%ADD16R,0.05918X0.06706*%
%ADD17R,0.05918X0.07099*%
%ADD18R,0.06312X0.05131*%
%ADD19R,0.05131X0.06312*%
%ADD20C,0.06800*%
%ADD21OC8,0.05800*%
%ADD22R,0.04362X0.04362*%
D10*
X0027167Y0050560D03*
X0027167Y0058040D03*
X0027167Y0068060D03*
X0027167Y0075540D03*
X0027167Y0085560D03*
X0027167Y0093040D03*
X0059667Y0075540D03*
X0059667Y0068060D03*
X0059667Y0058040D03*
X0059667Y0050560D03*
X0180917Y0075560D03*
X0180917Y0083040D03*
X0180917Y0129310D03*
X0180917Y0136790D03*
X0304667Y0138040D03*
X0304667Y0130560D03*
X0304667Y0083040D03*
X0304667Y0075560D03*
D11*
X0129667Y0189300D03*
X0124667Y0199300D03*
X0094667Y0199300D03*
X0089667Y0189300D03*
X0109667Y0119300D03*
X0109667Y0109300D03*
D12*
X0109667Y0189300D03*
D13*
X0167167Y0193552D02*
X0167167Y0200048D01*
X0177167Y0200048D02*
X0177167Y0193552D01*
X0187167Y0193552D02*
X0187167Y0200048D01*
X0287167Y0200048D02*
X0287167Y0193552D01*
X0297167Y0193552D02*
X0297167Y0200048D01*
X0307167Y0200048D02*
X0307167Y0193552D01*
D14*
X0051488Y0058139D03*
X0051488Y0055580D03*
X0051488Y0053020D03*
X0051488Y0050461D03*
X0035346Y0050461D03*
X0035346Y0053020D03*
X0035346Y0055580D03*
X0035346Y0058139D03*
D15*
X0018210Y0084300D02*
X0011123Y0084300D01*
X0011123Y0094300D02*
X0018210Y0094300D01*
X0018210Y0109300D02*
X0011123Y0109300D01*
X0011123Y0119300D02*
X0018210Y0119300D01*
X0018210Y0139300D02*
X0011123Y0139300D01*
X0011123Y0149300D02*
X0018210Y0149300D01*
X0018210Y0164300D02*
X0011123Y0164300D01*
X0011123Y0174300D02*
X0018210Y0174300D01*
X0014667Y0193257D02*
X0014667Y0200343D01*
X0024667Y0200343D02*
X0024667Y0193257D01*
X0049667Y0193257D02*
X0049667Y0200343D01*
X0059667Y0200343D02*
X0059667Y0193257D01*
D16*
X0045907Y0068050D03*
X0038427Y0068050D03*
D17*
X0040927Y0084300D03*
X0048407Y0084300D03*
X0045927Y0109300D03*
X0053407Y0109300D03*
X0035907Y0109300D03*
X0028427Y0109300D03*
D18*
X0095917Y0070737D03*
X0095917Y0062863D03*
X0089667Y0033237D03*
X0089667Y0025363D03*
D19*
X0048604Y0100550D03*
X0040730Y0100550D03*
D20*
X0010917Y0021050D02*
X0010917Y0015050D01*
X0020917Y0015050D02*
X0020917Y0021050D01*
X0030917Y0021050D02*
X0030917Y0015050D01*
X0043417Y0015050D02*
X0043417Y0021050D01*
X0053417Y0021050D02*
X0053417Y0015050D01*
X0063417Y0015050D02*
X0063417Y0021050D01*
D21*
X0168417Y0090550D03*
X0174667Y0075550D03*
X0168417Y0123050D03*
X0174667Y0136800D03*
X0234667Y0151800D03*
X0247167Y0196800D03*
X0312167Y0138050D03*
X0312167Y0075550D03*
D22*
X0160917Y0046800D03*
X0147167Y0029300D03*
X0147167Y0016800D03*
X0119667Y0021800D03*
X0114667Y0021800D03*
X0109667Y0021800D03*
X0089667Y0019300D03*
X0089667Y0040550D03*
X0109667Y0039300D03*
X0095917Y0058050D03*
X0102167Y0063050D03*
X0114667Y0066800D03*
X0114667Y0071800D03*
X0102167Y0071800D03*
X0095917Y0075550D03*
X0117167Y0096800D03*
X0130917Y0096800D03*
X0130917Y0071800D03*
X0134667Y0066800D03*
X0053417Y0061800D03*
X0047167Y0061800D03*
X0040917Y0056800D03*
X0049657Y0090550D03*
X0039667Y0094300D03*
X0079667Y0151800D03*
X0067167Y0161800D03*
X0059667Y0174300D03*
X0047167Y0174300D03*
M02*
