G75*
%MOIN*%
%OFA0B0*%
%FSLAX25Y25*%
%IPPOS*%
%LPD*%
%AMOC8*
5,1,8,0,0,1.08239X$1,22.5*
%
%ADD10C,0.02400*%
%ADD11C,0.00600*%
%ADD12C,0.00500*%
%ADD13C,0.02200*%
%ADD14C,0.00400*%
%ADD15C,0.00300*%
%ADD16R,0.00591X0.01181*%
%ADD17R,0.01181X0.01181*%
%ADD18C,0.01000*%
%ADD19C,0.00800*%
%ADD20C,0.01575*%
%ADD21R,0.02000X0.02000*%
D10*
X0089667Y0023050D02*
X0089667Y0036800D01*
D11*
X0068417Y0023050D02*
X0038417Y0023050D01*
X0038417Y0013050D01*
X0038417Y0010550D01*
X0068417Y0010550D01*
X0068417Y0013050D01*
X0038417Y0013050D01*
X0035917Y0013050D02*
X0035917Y0010550D01*
X0005917Y0010550D01*
X0005917Y0013050D01*
X0005917Y0023050D01*
X0035917Y0023050D01*
X0035917Y0013050D01*
X0005917Y0013050D01*
X0068417Y0013050D02*
X0068417Y0023050D01*
X0010336Y0079221D02*
X0010336Y0099379D01*
X0010336Y0104221D02*
X0010336Y0124379D01*
X0010336Y0134221D02*
X0010336Y0154379D01*
X0010336Y0159221D02*
X0010336Y0179379D01*
X0009588Y0201131D02*
X0029745Y0201131D01*
X0044588Y0201131D02*
X0064745Y0201131D01*
X0083667Y0200300D02*
X0088667Y0200300D01*
X0083667Y0200300D02*
X0083667Y0134300D01*
X0135667Y0134300D01*
X0135667Y0200300D01*
X0130167Y0200300D01*
X0118667Y0200300D02*
X0100667Y0200300D01*
X0101167Y0190300D02*
X0095667Y0190300D01*
X0118167Y0190300D02*
X0123667Y0190300D01*
X0148586Y0189418D02*
X0149654Y0188350D01*
X0153924Y0188350D01*
X0154992Y0189418D01*
X0154992Y0191553D01*
X0153924Y0192620D01*
X0149654Y0192620D01*
X0148586Y0191553D01*
X0148586Y0189418D01*
X0148586Y0194795D02*
X0148586Y0199066D01*
X0148586Y0201241D02*
X0148586Y0205511D01*
X0151789Y0203376D02*
X0151789Y0201241D01*
X0154992Y0201241D02*
X0148586Y0201241D01*
X0151789Y0196931D02*
X0151789Y0194795D01*
X0154992Y0194795D02*
X0148586Y0194795D01*
X0199836Y0194678D02*
X0199836Y0192543D01*
X0200904Y0191475D01*
X0205174Y0191475D01*
X0206242Y0192543D01*
X0206242Y0194678D01*
X0205174Y0195745D01*
X0200904Y0195745D01*
X0199836Y0194678D01*
X0199836Y0197920D02*
X0206242Y0202191D01*
X0199836Y0202191D01*
X0199836Y0197920D02*
X0206242Y0197920D01*
X0083469Y0179001D02*
X0082586Y0178363D01*
X0081719Y0177705D01*
X0080868Y0177026D01*
X0080033Y0176327D01*
X0079216Y0175608D01*
X0078415Y0174869D01*
X0077633Y0174112D01*
X0076869Y0173336D01*
X0076124Y0172542D01*
X0075398Y0171731D01*
X0074691Y0170902D01*
X0074005Y0170057D01*
X0073339Y0169196D01*
X0072694Y0168319D01*
X0072070Y0167426D01*
X0071467Y0166519D01*
X0070887Y0165598D01*
X0070329Y0164663D01*
X0069793Y0163716D01*
X0069280Y0162755D01*
X0068790Y0161783D01*
X0068323Y0160799D01*
X0067881Y0159804D01*
X0067462Y0158799D01*
X0067067Y0157784D01*
X0066697Y0156760D01*
X0066351Y0155728D01*
X0066030Y0154687D01*
X0065734Y0153639D01*
X0065464Y0152585D01*
X0065218Y0151524D01*
X0064998Y0150458D01*
X0064804Y0149386D01*
X0064635Y0148311D01*
X0064492Y0147231D01*
X0064375Y0146149D01*
X0064284Y0145064D01*
X0064219Y0143977D01*
X0064180Y0142889D01*
X0064167Y0141800D01*
X0135605Y0180995D02*
X0136540Y0180360D01*
X0137460Y0179702D01*
X0138363Y0179023D01*
X0139250Y0178322D01*
X0140120Y0177600D01*
X0140972Y0176857D01*
X0141806Y0176094D01*
X0142622Y0175311D01*
X0143418Y0174509D01*
X0144195Y0173687D01*
X0144952Y0172848D01*
X0145689Y0171990D01*
X0146404Y0171115D01*
X0147099Y0170223D01*
X0147772Y0169314D01*
X0148422Y0168390D01*
X0149051Y0167450D01*
X0149656Y0166496D01*
X0150238Y0165527D01*
X0150797Y0164544D01*
X0151333Y0163548D01*
X0151844Y0162540D01*
X0152330Y0161519D01*
X0152792Y0160488D01*
X0153229Y0159445D01*
X0153641Y0158392D01*
X0154027Y0157330D01*
X0154388Y0156258D01*
X0154723Y0155179D01*
X0155031Y0154091D01*
X0155314Y0152996D01*
X0155570Y0151895D01*
X0155800Y0150788D01*
X0156002Y0149676D01*
X0156178Y0148559D01*
X0156328Y0147439D01*
X0156450Y0146315D01*
X0156545Y0145189D01*
X0156613Y0144060D01*
X0156653Y0142930D01*
X0156667Y0141800D01*
X0156653Y0140656D01*
X0156611Y0139512D01*
X0156542Y0138369D01*
X0156444Y0137229D01*
X0156319Y0136091D01*
X0156166Y0134957D01*
X0155986Y0133826D01*
X0155778Y0132701D01*
X0155543Y0131581D01*
X0155280Y0130467D01*
X0154991Y0129359D01*
X0154674Y0128259D01*
X0154331Y0127167D01*
X0153962Y0126084D01*
X0153566Y0125010D01*
X0153144Y0123946D01*
X0152696Y0122893D01*
X0152223Y0121851D01*
X0151725Y0120820D01*
X0151201Y0119802D01*
X0150653Y0118797D01*
X0150081Y0117806D01*
X0149485Y0116829D01*
X0148865Y0115867D01*
X0148222Y0114920D01*
X0147556Y0113989D01*
X0146867Y0113075D01*
X0146157Y0112177D01*
X0145425Y0111298D01*
X0144671Y0110436D01*
X0143897Y0109593D01*
X0143103Y0108769D01*
X0142288Y0107965D01*
X0141455Y0107180D01*
X0140602Y0106416D01*
X0139732Y0105674D01*
X0138843Y0104952D01*
X0137937Y0104253D01*
X0137014Y0103575D01*
X0136075Y0102921D01*
X0135121Y0102289D01*
X0134151Y0101681D01*
X0133167Y0101097D01*
X0132169Y0100537D01*
X0131157Y0100001D01*
X0130133Y0099490D01*
X0129097Y0099004D01*
X0128049Y0098544D01*
X0126990Y0098109D01*
X0125921Y0097700D01*
X0124842Y0097317D01*
X0123755Y0096961D01*
X0122659Y0096631D01*
X0121555Y0096328D01*
X0120444Y0096052D01*
X0119327Y0095803D01*
X0118204Y0095582D01*
X0117076Y0095388D01*
X0115944Y0095221D01*
X0114807Y0095082D01*
X0113668Y0094971D01*
X0112527Y0094887D01*
X0111384Y0094831D01*
X0110239Y0094803D01*
X0109095Y0094803D01*
X0107950Y0094831D01*
X0106807Y0094887D01*
X0105666Y0094971D01*
X0104527Y0095082D01*
X0103390Y0095221D01*
X0102258Y0095388D01*
X0101130Y0095582D01*
X0100007Y0095803D01*
X0098890Y0096052D01*
X0097779Y0096328D01*
X0096675Y0096631D01*
X0095579Y0096961D01*
X0094492Y0097317D01*
X0093413Y0097700D01*
X0092344Y0098109D01*
X0091285Y0098544D01*
X0090237Y0099004D01*
X0089201Y0099490D01*
X0088177Y0100001D01*
X0087165Y0100537D01*
X0086167Y0101097D01*
X0085183Y0101681D01*
X0084213Y0102289D01*
X0083259Y0102921D01*
X0082320Y0103575D01*
X0081397Y0104253D01*
X0080491Y0104952D01*
X0079602Y0105674D01*
X0078732Y0106416D01*
X0077879Y0107180D01*
X0077046Y0107965D01*
X0076231Y0108769D01*
X0075437Y0109593D01*
X0074663Y0110436D01*
X0073909Y0111298D01*
X0073177Y0112177D01*
X0072467Y0113075D01*
X0071778Y0113989D01*
X0071112Y0114920D01*
X0070469Y0115867D01*
X0069849Y0116829D01*
X0069253Y0117806D01*
X0068681Y0118797D01*
X0068133Y0119802D01*
X0067609Y0120820D01*
X0067111Y0121851D01*
X0066638Y0122893D01*
X0066190Y0123946D01*
X0065768Y0125010D01*
X0065372Y0126084D01*
X0065003Y0127167D01*
X0064660Y0128259D01*
X0064343Y0129359D01*
X0064054Y0130467D01*
X0063791Y0131581D01*
X0063556Y0132701D01*
X0063348Y0133826D01*
X0063168Y0134957D01*
X0063015Y0136091D01*
X0062890Y0137229D01*
X0062792Y0138369D01*
X0062723Y0139512D01*
X0062681Y0140656D01*
X0062667Y0141800D01*
X0062681Y0142927D01*
X0062721Y0144052D01*
X0062788Y0145177D01*
X0062883Y0146300D01*
X0063004Y0147420D01*
X0063152Y0148537D01*
X0063327Y0149649D01*
X0063529Y0150758D01*
X0063757Y0151861D01*
X0064011Y0152959D01*
X0064291Y0154050D01*
X0064598Y0155134D01*
X0064931Y0156210D01*
X0065289Y0157278D01*
X0065673Y0158338D01*
X0066082Y0159387D01*
X0066516Y0160427D01*
X0066974Y0161456D01*
X0067458Y0162473D01*
X0067966Y0163479D01*
X0068497Y0164472D01*
X0069052Y0165453D01*
X0069631Y0166419D01*
X0070233Y0167372D01*
X0070857Y0168310D01*
X0071503Y0169232D01*
X0072172Y0170139D01*
X0072862Y0171030D01*
X0073573Y0171903D01*
X0074305Y0172760D01*
X0075057Y0173599D01*
X0075829Y0174419D01*
X0076621Y0175221D01*
X0077431Y0176003D01*
X0078260Y0176766D01*
X0079107Y0177509D01*
X0079972Y0178231D01*
X0080854Y0178932D01*
X0081752Y0179612D01*
X0082666Y0180270D01*
X0083596Y0180906D01*
X0064167Y0141800D02*
X0064180Y0140692D01*
X0064221Y0139585D01*
X0064288Y0138479D01*
X0064383Y0137375D01*
X0064504Y0136273D01*
X0064652Y0135175D01*
X0064827Y0134081D01*
X0065028Y0132991D01*
X0065256Y0131907D01*
X0065510Y0130828D01*
X0065790Y0129756D01*
X0066096Y0128691D01*
X0066428Y0127634D01*
X0066786Y0126586D01*
X0067169Y0125546D01*
X0067578Y0124516D01*
X0068011Y0123496D01*
X0068469Y0122487D01*
X0068952Y0121490D01*
X0069458Y0120504D01*
X0069989Y0119531D01*
X0070543Y0118572D01*
X0071120Y0117626D01*
X0071720Y0116695D01*
X0072343Y0115778D01*
X0072987Y0114877D01*
X0073654Y0113992D01*
X0074342Y0113123D01*
X0075051Y0112271D01*
X0075780Y0111437D01*
X0076529Y0110621D01*
X0077298Y0109823D01*
X0078087Y0109044D01*
X0078894Y0108285D01*
X0079719Y0107546D01*
X0080562Y0106827D01*
X0081422Y0106128D01*
X0082299Y0105451D01*
X0083192Y0104795D01*
X0084101Y0104162D01*
X0085025Y0103550D01*
X0085964Y0102962D01*
X0086917Y0102396D01*
X0087883Y0101854D01*
X0088862Y0101335D01*
X0089854Y0100840D01*
X0090857Y0100370D01*
X0091872Y0099924D01*
X0092897Y0099503D01*
X0093932Y0099108D01*
X0094976Y0098737D01*
X0096029Y0098392D01*
X0097090Y0098073D01*
X0098159Y0097779D01*
X0099234Y0097512D01*
X0100315Y0097271D01*
X0101403Y0097057D01*
X0102495Y0096869D01*
X0103591Y0096708D01*
X0104691Y0096573D01*
X0105793Y0096465D01*
X0106899Y0096384D01*
X0108005Y0096330D01*
X0109113Y0096303D01*
X0110221Y0096303D01*
X0111329Y0096330D01*
X0112435Y0096384D01*
X0113541Y0096465D01*
X0114643Y0096573D01*
X0115743Y0096708D01*
X0116839Y0096869D01*
X0117931Y0097057D01*
X0119019Y0097271D01*
X0120100Y0097512D01*
X0121175Y0097779D01*
X0122244Y0098073D01*
X0123305Y0098392D01*
X0124358Y0098737D01*
X0125402Y0099108D01*
X0126437Y0099503D01*
X0127462Y0099924D01*
X0128477Y0100370D01*
X0129480Y0100840D01*
X0130472Y0101335D01*
X0131451Y0101854D01*
X0132417Y0102396D01*
X0133370Y0102962D01*
X0134309Y0103550D01*
X0135233Y0104162D01*
X0136142Y0104795D01*
X0137035Y0105451D01*
X0137912Y0106128D01*
X0138772Y0106827D01*
X0139615Y0107546D01*
X0140440Y0108285D01*
X0141247Y0109044D01*
X0142036Y0109823D01*
X0142805Y0110621D01*
X0143554Y0111437D01*
X0144283Y0112271D01*
X0144992Y0113123D01*
X0145680Y0113992D01*
X0146347Y0114877D01*
X0146991Y0115778D01*
X0147614Y0116695D01*
X0148214Y0117626D01*
X0148791Y0118572D01*
X0149345Y0119531D01*
X0149876Y0120504D01*
X0150382Y0121490D01*
X0150865Y0122487D01*
X0151323Y0123496D01*
X0151756Y0124516D01*
X0152165Y0125546D01*
X0152548Y0126586D01*
X0152906Y0127634D01*
X0153238Y0128691D01*
X0153544Y0129756D01*
X0153824Y0130828D01*
X0154078Y0131907D01*
X0154306Y0132991D01*
X0154507Y0134081D01*
X0154682Y0135175D01*
X0154830Y0136273D01*
X0154951Y0137375D01*
X0155046Y0138479D01*
X0155113Y0139585D01*
X0155154Y0140692D01*
X0155167Y0141800D01*
X0155154Y0142899D01*
X0155114Y0143998D01*
X0155047Y0145096D01*
X0154955Y0146191D01*
X0154835Y0147284D01*
X0154689Y0148374D01*
X0154517Y0149460D01*
X0154319Y0150542D01*
X0154095Y0151618D01*
X0153845Y0152689D01*
X0153568Y0153754D01*
X0153267Y0154811D01*
X0152940Y0155861D01*
X0152587Y0156902D01*
X0152210Y0157935D01*
X0151807Y0158959D01*
X0151380Y0159972D01*
X0150929Y0160975D01*
X0150454Y0161966D01*
X0149954Y0162946D01*
X0149431Y0163913D01*
X0148885Y0164868D01*
X0148317Y0165809D01*
X0147725Y0166736D01*
X0147111Y0167648D01*
X0146476Y0168545D01*
X0145819Y0169427D01*
X0145140Y0170293D01*
X0144442Y0171142D01*
X0143722Y0171973D01*
X0142983Y0172787D01*
X0142225Y0173583D01*
X0141447Y0174361D01*
X0140651Y0175119D01*
X0139837Y0175858D01*
X0139005Y0176578D01*
X0138156Y0177276D01*
X0137290Y0177954D01*
X0136408Y0178611D01*
X0135511Y0179247D01*
X0319211Y0182725D02*
X0325617Y0182725D01*
X0325617Y0186995D01*
X0325617Y0189170D02*
X0325617Y0191306D01*
X0325617Y0190238D02*
X0319211Y0190238D01*
X0319211Y0189170D02*
X0319211Y0191306D01*
X0320279Y0193467D02*
X0324549Y0193467D01*
X0325617Y0194535D01*
X0325617Y0196670D01*
X0324549Y0197738D01*
X0322414Y0197738D01*
X0322414Y0195603D01*
X0320279Y0197738D02*
X0319211Y0196670D01*
X0319211Y0194535D01*
X0320279Y0193467D01*
X0319211Y0199913D02*
X0325617Y0199913D01*
X0322414Y0199913D02*
X0322414Y0204183D01*
X0319211Y0204183D02*
X0325617Y0204183D01*
X0325617Y0208494D02*
X0319211Y0208494D01*
X0319211Y0210629D02*
X0319211Y0206358D01*
D12*
X0329667Y0181800D02*
X0329667Y0044300D01*
X0157167Y0044300D01*
X0157167Y0181800D01*
X0329667Y0181800D01*
X0314667Y0149300D02*
X0314667Y0140550D01*
X0314667Y0125550D01*
X0322167Y0125550D01*
X0322167Y0140550D01*
X0314667Y0140550D01*
X0314667Y0149300D02*
X0169667Y0149300D01*
X0169667Y0049300D01*
X0314667Y0049300D01*
X0314667Y0071800D01*
X0314667Y0086800D01*
X0322167Y0086800D01*
X0322167Y0071800D01*
X0314667Y0071800D01*
X0314667Y0086800D02*
X0314667Y0125550D01*
X0172167Y0125550D02*
X0172167Y0140550D01*
X0164667Y0140550D01*
X0164667Y0125550D01*
X0172167Y0125550D01*
X0144417Y0132050D02*
X0144417Y0134302D01*
X0143666Y0135053D01*
X0142915Y0135053D01*
X0142165Y0134302D01*
X0142165Y0132050D01*
X0144417Y0132050D02*
X0139913Y0132050D01*
X0139913Y0134302D01*
X0140663Y0135053D01*
X0141414Y0135053D01*
X0142165Y0134302D01*
X0140663Y0136654D02*
X0139913Y0137405D01*
X0139913Y0138906D01*
X0140663Y0139656D01*
X0141414Y0139656D01*
X0144417Y0136654D01*
X0144417Y0139656D01*
X0142165Y0141258D02*
X0142165Y0144260D01*
X0143666Y0145862D02*
X0144417Y0146612D01*
X0144417Y0148114D01*
X0143666Y0148864D01*
X0142915Y0148864D01*
X0142165Y0148114D01*
X0142165Y0147363D01*
X0142165Y0148114D02*
X0141414Y0148864D01*
X0140663Y0148864D01*
X0139913Y0148114D01*
X0139913Y0146612D01*
X0140663Y0145862D01*
X0139913Y0143510D02*
X0142165Y0141258D01*
X0144417Y0143510D02*
X0139913Y0143510D01*
X0140663Y0150466D02*
X0139913Y0151216D01*
X0139913Y0152718D01*
X0140663Y0153468D01*
X0143666Y0150466D01*
X0144417Y0151216D01*
X0144417Y0152718D01*
X0143666Y0153468D01*
X0140663Y0153468D01*
X0139913Y0155070D02*
X0143666Y0155070D01*
X0144417Y0155820D01*
X0144417Y0157322D01*
X0143666Y0158072D01*
X0139913Y0158072D01*
X0139913Y0159674D02*
X0144417Y0162676D01*
X0139913Y0162676D01*
X0139913Y0164277D02*
X0139913Y0165779D01*
X0139913Y0165028D02*
X0144417Y0165028D01*
X0144417Y0164277D02*
X0144417Y0165779D01*
X0144417Y0159674D02*
X0139913Y0159674D01*
X0140663Y0150466D02*
X0143666Y0150466D01*
X0127404Y0152801D02*
X0126654Y0152050D01*
X0125152Y0152050D01*
X0124402Y0152801D01*
X0122834Y0152801D02*
X0122083Y0152801D01*
X0122083Y0152050D01*
X0122834Y0152050D01*
X0122834Y0152801D01*
X0122834Y0152050D02*
X0121332Y0150549D01*
X0119731Y0152801D02*
X0118980Y0152050D01*
X0117479Y0152050D01*
X0116728Y0152801D01*
X0119731Y0155803D01*
X0119731Y0152801D01*
X0116728Y0152801D02*
X0116728Y0155803D01*
X0117479Y0156554D01*
X0118980Y0156554D01*
X0119731Y0155803D01*
X0124402Y0155803D02*
X0125152Y0156554D01*
X0126654Y0156554D01*
X0127404Y0155803D01*
X0127404Y0155053D01*
X0126654Y0154302D01*
X0127404Y0153551D01*
X0127404Y0152801D01*
X0126654Y0154302D02*
X0125903Y0154302D01*
X0125931Y0149054D02*
X0124429Y0149054D01*
X0123679Y0148303D01*
X0123679Y0147553D01*
X0124429Y0146802D01*
X0125931Y0146802D01*
X0126681Y0146051D01*
X0126681Y0145301D01*
X0125931Y0144550D01*
X0124429Y0144550D01*
X0123679Y0145301D01*
X0123679Y0146051D01*
X0124429Y0146802D01*
X0125931Y0146802D02*
X0126681Y0147553D01*
X0126681Y0148303D01*
X0125931Y0149054D01*
X0122111Y0145301D02*
X0121360Y0145301D01*
X0121360Y0144550D01*
X0122111Y0144550D01*
X0122111Y0145301D01*
X0122111Y0144550D02*
X0120609Y0143049D01*
X0118404Y0140803D02*
X0115402Y0137801D01*
X0116152Y0137050D01*
X0117654Y0137050D01*
X0118404Y0137801D01*
X0118404Y0140803D01*
X0117654Y0141554D01*
X0116152Y0141554D01*
X0115402Y0140803D01*
X0115402Y0137801D01*
X0113800Y0137050D02*
X0110798Y0137050D01*
X0113800Y0140053D01*
X0113800Y0140803D01*
X0113050Y0141554D01*
X0111548Y0141554D01*
X0110798Y0140803D01*
X0109196Y0140053D02*
X0106194Y0137050D01*
X0104592Y0137801D02*
X0104592Y0139302D01*
X0103842Y0140053D01*
X0103091Y0140053D01*
X0101590Y0139302D01*
X0101590Y0141554D01*
X0104592Y0141554D01*
X0106194Y0140053D02*
X0109196Y0137050D01*
X0104592Y0137801D02*
X0103842Y0137050D01*
X0102341Y0137050D01*
X0101590Y0137801D01*
X0100022Y0137801D02*
X0099271Y0137801D01*
X0099271Y0137050D01*
X0100022Y0137050D01*
X0100022Y0137801D01*
X0100022Y0137050D02*
X0098521Y0135549D01*
X0096773Y0131554D02*
X0097523Y0130803D01*
X0094521Y0127801D01*
X0095271Y0127050D01*
X0096773Y0127050D01*
X0097523Y0127801D01*
X0097523Y0130803D01*
X0096773Y0131554D02*
X0095271Y0131554D01*
X0094521Y0130803D01*
X0094521Y0127801D01*
X0092919Y0127050D02*
X0089917Y0127050D01*
X0091418Y0127050D02*
X0091418Y0131554D01*
X0089917Y0130053D01*
X0093917Y0137050D02*
X0093917Y0137801D01*
X0096919Y0140803D01*
X0096919Y0141554D01*
X0093917Y0141554D01*
X0092919Y0144550D02*
X0089917Y0144550D01*
X0091418Y0144550D02*
X0091418Y0149054D01*
X0089917Y0147553D01*
X0094521Y0148303D02*
X0094521Y0145301D01*
X0097523Y0148303D01*
X0097523Y0145301D01*
X0096773Y0144550D01*
X0095271Y0144550D01*
X0094521Y0145301D01*
X0094521Y0148303D02*
X0095271Y0149054D01*
X0096773Y0149054D01*
X0097523Y0148303D01*
X0099875Y0145301D02*
X0099875Y0144550D01*
X0100626Y0144550D01*
X0100626Y0145301D01*
X0099875Y0145301D01*
X0100626Y0144550D02*
X0099125Y0143049D01*
X0102194Y0144550D02*
X0105196Y0147553D01*
X0105196Y0148303D01*
X0104446Y0149054D01*
X0102944Y0149054D01*
X0102194Y0148303D01*
X0106798Y0147553D02*
X0109800Y0144550D01*
X0111402Y0144550D02*
X0114404Y0144550D01*
X0112903Y0144550D02*
X0112903Y0149054D01*
X0111402Y0147553D01*
X0109800Y0147553D02*
X0106798Y0144550D01*
X0105196Y0144550D02*
X0102194Y0144550D01*
X0103667Y0152050D02*
X0102917Y0152801D01*
X0105919Y0155803D01*
X0105919Y0152801D01*
X0105169Y0152050D01*
X0103667Y0152050D01*
X0102917Y0152801D02*
X0102917Y0155803D01*
X0103667Y0156554D01*
X0105169Y0156554D01*
X0105919Y0155803D01*
X0107521Y0155053D02*
X0110523Y0152050D01*
X0112125Y0152050D02*
X0115127Y0155053D01*
X0115127Y0155803D01*
X0114376Y0156554D01*
X0112875Y0156554D01*
X0112125Y0155803D01*
X0110523Y0155053D02*
X0107521Y0152050D01*
X0112125Y0152050D02*
X0115127Y0152050D01*
X0116006Y0149054D02*
X0119008Y0149054D01*
X0119008Y0148303D01*
X0116006Y0145301D01*
X0116006Y0144550D01*
X0123075Y0140803D02*
X0123825Y0141554D01*
X0125327Y0141554D01*
X0126077Y0140803D01*
X0126077Y0140053D01*
X0125327Y0139302D01*
X0126077Y0138551D01*
X0126077Y0137801D01*
X0125327Y0137050D01*
X0123825Y0137050D01*
X0123075Y0137801D01*
X0121507Y0137801D02*
X0120756Y0137801D01*
X0120756Y0137050D01*
X0121507Y0137050D01*
X0121507Y0137801D01*
X0121507Y0137050D02*
X0120006Y0135549D01*
X0118257Y0131554D02*
X0119008Y0130803D01*
X0116006Y0127801D01*
X0116756Y0127050D01*
X0118257Y0127050D01*
X0119008Y0127801D01*
X0119008Y0130803D01*
X0118257Y0131554D02*
X0116756Y0131554D01*
X0116006Y0130803D01*
X0116006Y0127801D01*
X0114404Y0127050D02*
X0111402Y0127050D01*
X0114404Y0130053D01*
X0114404Y0130803D01*
X0113654Y0131554D01*
X0112152Y0131554D01*
X0111402Y0130803D01*
X0109800Y0130053D02*
X0106798Y0127050D01*
X0105196Y0127050D02*
X0102194Y0127050D01*
X0105196Y0130053D01*
X0105196Y0130803D01*
X0104446Y0131554D01*
X0102944Y0131554D01*
X0102194Y0130803D01*
X0100626Y0127801D02*
X0099875Y0127801D01*
X0099875Y0127050D01*
X0100626Y0127050D01*
X0100626Y0127801D01*
X0100626Y0127050D02*
X0099125Y0125549D01*
X0106798Y0130053D02*
X0109800Y0127050D01*
X0120609Y0125549D02*
X0122111Y0127050D01*
X0121360Y0127050D01*
X0121360Y0127801D01*
X0122111Y0127801D01*
X0122111Y0127050D01*
X0123679Y0127801D02*
X0124429Y0127050D01*
X0125931Y0127050D01*
X0126681Y0127801D01*
X0126681Y0128551D01*
X0125931Y0129302D01*
X0125180Y0129302D01*
X0125931Y0129302D02*
X0126681Y0130053D01*
X0126681Y0130803D01*
X0125931Y0131554D01*
X0124429Y0131554D01*
X0123679Y0130803D01*
X0124576Y0139302D02*
X0125327Y0139302D01*
X0117566Y0162050D02*
X0119068Y0163551D01*
X0119068Y0166554D01*
X0116065Y0166554D02*
X0116065Y0163551D01*
X0117566Y0162050D01*
X0114464Y0162801D02*
X0113713Y0162050D01*
X0112212Y0162050D01*
X0111461Y0162801D01*
X0109910Y0162801D02*
X0109910Y0162050D01*
X0109159Y0162050D01*
X0109159Y0162801D01*
X0109910Y0162801D01*
X0107591Y0162050D02*
X0106841Y0162801D01*
X0106841Y0165803D01*
X0107591Y0165053D02*
X0106090Y0165053D01*
X0103771Y0165053D02*
X0103771Y0162050D01*
X0103021Y0162050D02*
X0104522Y0162050D01*
X0103771Y0165053D02*
X0103021Y0165053D01*
X0103771Y0166554D02*
X0103771Y0167304D01*
X0098417Y0166554D02*
X0098417Y0162050D01*
X0101419Y0162050D01*
X0111461Y0165803D02*
X0112212Y0166554D01*
X0113713Y0166554D01*
X0114464Y0165803D01*
X0114464Y0165053D01*
X0113713Y0164302D01*
X0114464Y0163551D01*
X0114464Y0162801D01*
X0113713Y0164302D02*
X0112962Y0164302D01*
X0097523Y0206050D02*
X0094521Y0206050D01*
X0096022Y0206050D02*
X0096022Y0210554D01*
X0094521Y0209053D01*
X0092919Y0209803D02*
X0092169Y0210554D01*
X0090667Y0210554D01*
X0089917Y0209803D01*
X0089917Y0206801D01*
X0090667Y0206050D01*
X0092169Y0206050D01*
X0092919Y0206801D01*
X0092919Y0208302D01*
X0091418Y0208302D01*
X0164667Y0086800D02*
X0164667Y0071800D01*
X0172167Y0071800D01*
X0172167Y0086800D01*
X0164667Y0086800D01*
X0161675Y0033611D02*
X0187659Y0033611D01*
X0187659Y0009989D01*
X0161675Y0009989D01*
X0161675Y0033611D01*
X0170730Y0021800D02*
X0170732Y0021925D01*
X0170738Y0022050D01*
X0170748Y0022174D01*
X0170762Y0022298D01*
X0170779Y0022422D01*
X0170801Y0022545D01*
X0170827Y0022667D01*
X0170856Y0022789D01*
X0170889Y0022909D01*
X0170927Y0023028D01*
X0170967Y0023147D01*
X0171012Y0023263D01*
X0171060Y0023378D01*
X0171112Y0023492D01*
X0171168Y0023604D01*
X0171227Y0023714D01*
X0171289Y0023822D01*
X0171355Y0023929D01*
X0171424Y0024033D01*
X0171497Y0024134D01*
X0171572Y0024234D01*
X0171651Y0024331D01*
X0171733Y0024425D01*
X0171818Y0024517D01*
X0171905Y0024606D01*
X0171996Y0024692D01*
X0172089Y0024775D01*
X0172185Y0024856D01*
X0172283Y0024933D01*
X0172383Y0025007D01*
X0172486Y0025078D01*
X0172591Y0025145D01*
X0172699Y0025210D01*
X0172808Y0025270D01*
X0172919Y0025328D01*
X0173032Y0025381D01*
X0173146Y0025431D01*
X0173262Y0025478D01*
X0173379Y0025520D01*
X0173498Y0025559D01*
X0173618Y0025595D01*
X0173739Y0025626D01*
X0173861Y0025654D01*
X0173983Y0025677D01*
X0174107Y0025697D01*
X0174231Y0025713D01*
X0174355Y0025725D01*
X0174480Y0025733D01*
X0174605Y0025737D01*
X0174729Y0025737D01*
X0174854Y0025733D01*
X0174979Y0025725D01*
X0175103Y0025713D01*
X0175227Y0025697D01*
X0175351Y0025677D01*
X0175473Y0025654D01*
X0175595Y0025626D01*
X0175716Y0025595D01*
X0175836Y0025559D01*
X0175955Y0025520D01*
X0176072Y0025478D01*
X0176188Y0025431D01*
X0176302Y0025381D01*
X0176415Y0025328D01*
X0176526Y0025270D01*
X0176636Y0025210D01*
X0176743Y0025145D01*
X0176848Y0025078D01*
X0176951Y0025007D01*
X0177051Y0024933D01*
X0177149Y0024856D01*
X0177245Y0024775D01*
X0177338Y0024692D01*
X0177429Y0024606D01*
X0177516Y0024517D01*
X0177601Y0024425D01*
X0177683Y0024331D01*
X0177762Y0024234D01*
X0177837Y0024134D01*
X0177910Y0024033D01*
X0177979Y0023929D01*
X0178045Y0023822D01*
X0178107Y0023714D01*
X0178166Y0023604D01*
X0178222Y0023492D01*
X0178274Y0023378D01*
X0178322Y0023263D01*
X0178367Y0023147D01*
X0178407Y0023028D01*
X0178445Y0022909D01*
X0178478Y0022789D01*
X0178507Y0022667D01*
X0178533Y0022545D01*
X0178555Y0022422D01*
X0178572Y0022298D01*
X0178586Y0022174D01*
X0178596Y0022050D01*
X0178602Y0021925D01*
X0178604Y0021800D01*
X0178602Y0021675D01*
X0178596Y0021550D01*
X0178586Y0021426D01*
X0178572Y0021302D01*
X0178555Y0021178D01*
X0178533Y0021055D01*
X0178507Y0020933D01*
X0178478Y0020811D01*
X0178445Y0020691D01*
X0178407Y0020572D01*
X0178367Y0020453D01*
X0178322Y0020337D01*
X0178274Y0020222D01*
X0178222Y0020108D01*
X0178166Y0019996D01*
X0178107Y0019886D01*
X0178045Y0019778D01*
X0177979Y0019671D01*
X0177910Y0019567D01*
X0177837Y0019466D01*
X0177762Y0019366D01*
X0177683Y0019269D01*
X0177601Y0019175D01*
X0177516Y0019083D01*
X0177429Y0018994D01*
X0177338Y0018908D01*
X0177245Y0018825D01*
X0177149Y0018744D01*
X0177051Y0018667D01*
X0176951Y0018593D01*
X0176848Y0018522D01*
X0176743Y0018455D01*
X0176635Y0018390D01*
X0176526Y0018330D01*
X0176415Y0018272D01*
X0176302Y0018219D01*
X0176188Y0018169D01*
X0176072Y0018122D01*
X0175955Y0018080D01*
X0175836Y0018041D01*
X0175716Y0018005D01*
X0175595Y0017974D01*
X0175473Y0017946D01*
X0175351Y0017923D01*
X0175227Y0017903D01*
X0175103Y0017887D01*
X0174979Y0017875D01*
X0174854Y0017867D01*
X0174729Y0017863D01*
X0174605Y0017863D01*
X0174480Y0017867D01*
X0174355Y0017875D01*
X0174231Y0017887D01*
X0174107Y0017903D01*
X0173983Y0017923D01*
X0173861Y0017946D01*
X0173739Y0017974D01*
X0173618Y0018005D01*
X0173498Y0018041D01*
X0173379Y0018080D01*
X0173262Y0018122D01*
X0173146Y0018169D01*
X0173032Y0018219D01*
X0172919Y0018272D01*
X0172808Y0018330D01*
X0172698Y0018390D01*
X0172591Y0018455D01*
X0172486Y0018522D01*
X0172383Y0018593D01*
X0172283Y0018667D01*
X0172185Y0018744D01*
X0172089Y0018825D01*
X0171996Y0018908D01*
X0171905Y0018994D01*
X0171818Y0019083D01*
X0171733Y0019175D01*
X0171651Y0019269D01*
X0171572Y0019366D01*
X0171497Y0019466D01*
X0171424Y0019567D01*
X0171355Y0019671D01*
X0171289Y0019778D01*
X0171227Y0019886D01*
X0171168Y0019996D01*
X0171112Y0020108D01*
X0171060Y0020222D01*
X0171012Y0020337D01*
X0170967Y0020453D01*
X0170927Y0020572D01*
X0170889Y0020691D01*
X0170856Y0020811D01*
X0170827Y0020933D01*
X0170801Y0021055D01*
X0170779Y0021178D01*
X0170762Y0021302D01*
X0170748Y0021426D01*
X0170738Y0021550D01*
X0170732Y0021675D01*
X0170730Y0021800D01*
X0168748Y0021800D02*
X0168750Y0021954D01*
X0168756Y0022107D01*
X0168766Y0022261D01*
X0168780Y0022414D01*
X0168798Y0022566D01*
X0168820Y0022718D01*
X0168845Y0022870D01*
X0168875Y0023021D01*
X0168909Y0023171D01*
X0168946Y0023320D01*
X0168988Y0023468D01*
X0169033Y0023614D01*
X0169082Y0023760D01*
X0169135Y0023904D01*
X0169191Y0024047D01*
X0169251Y0024189D01*
X0169315Y0024329D01*
X0169383Y0024467D01*
X0169454Y0024603D01*
X0169528Y0024737D01*
X0169606Y0024870D01*
X0169688Y0025000D01*
X0169772Y0025128D01*
X0169860Y0025254D01*
X0169952Y0025378D01*
X0170046Y0025499D01*
X0170144Y0025618D01*
X0170244Y0025734D01*
X0170348Y0025847D01*
X0170455Y0025958D01*
X0170564Y0026066D01*
X0170676Y0026171D01*
X0170791Y0026273D01*
X0170908Y0026372D01*
X0171028Y0026468D01*
X0171151Y0026561D01*
X0171275Y0026651D01*
X0171403Y0026737D01*
X0171532Y0026821D01*
X0171663Y0026900D01*
X0171797Y0026976D01*
X0171932Y0027049D01*
X0172069Y0027118D01*
X0172208Y0027184D01*
X0172349Y0027246D01*
X0172491Y0027304D01*
X0172635Y0027359D01*
X0172780Y0027410D01*
X0172926Y0027457D01*
X0173073Y0027500D01*
X0173222Y0027540D01*
X0173371Y0027575D01*
X0173522Y0027607D01*
X0173673Y0027635D01*
X0173825Y0027659D01*
X0173977Y0027679D01*
X0174130Y0027695D01*
X0174283Y0027707D01*
X0174437Y0027715D01*
X0174590Y0027719D01*
X0174744Y0027719D01*
X0174897Y0027715D01*
X0175051Y0027707D01*
X0175204Y0027695D01*
X0175357Y0027679D01*
X0175509Y0027659D01*
X0175661Y0027635D01*
X0175812Y0027607D01*
X0175963Y0027575D01*
X0176112Y0027540D01*
X0176261Y0027500D01*
X0176408Y0027457D01*
X0176554Y0027410D01*
X0176699Y0027359D01*
X0176843Y0027304D01*
X0176985Y0027246D01*
X0177126Y0027184D01*
X0177265Y0027118D01*
X0177402Y0027049D01*
X0177537Y0026976D01*
X0177671Y0026900D01*
X0177802Y0026821D01*
X0177931Y0026737D01*
X0178059Y0026651D01*
X0178183Y0026561D01*
X0178306Y0026468D01*
X0178426Y0026372D01*
X0178543Y0026273D01*
X0178658Y0026171D01*
X0178770Y0026066D01*
X0178879Y0025958D01*
X0178986Y0025847D01*
X0179090Y0025734D01*
X0179190Y0025618D01*
X0179288Y0025499D01*
X0179382Y0025378D01*
X0179474Y0025254D01*
X0179562Y0025128D01*
X0179646Y0025000D01*
X0179728Y0024870D01*
X0179806Y0024737D01*
X0179880Y0024603D01*
X0179951Y0024467D01*
X0180019Y0024329D01*
X0180083Y0024189D01*
X0180143Y0024047D01*
X0180199Y0023904D01*
X0180252Y0023760D01*
X0180301Y0023614D01*
X0180346Y0023468D01*
X0180388Y0023320D01*
X0180425Y0023171D01*
X0180459Y0023021D01*
X0180489Y0022870D01*
X0180514Y0022718D01*
X0180536Y0022566D01*
X0180554Y0022414D01*
X0180568Y0022261D01*
X0180578Y0022107D01*
X0180584Y0021954D01*
X0180586Y0021800D01*
X0180584Y0021646D01*
X0180578Y0021493D01*
X0180568Y0021339D01*
X0180554Y0021186D01*
X0180536Y0021034D01*
X0180514Y0020882D01*
X0180489Y0020730D01*
X0180459Y0020579D01*
X0180425Y0020429D01*
X0180388Y0020280D01*
X0180346Y0020132D01*
X0180301Y0019986D01*
X0180252Y0019840D01*
X0180199Y0019696D01*
X0180143Y0019553D01*
X0180083Y0019411D01*
X0180019Y0019271D01*
X0179951Y0019133D01*
X0179880Y0018997D01*
X0179806Y0018863D01*
X0179728Y0018730D01*
X0179646Y0018600D01*
X0179562Y0018472D01*
X0179474Y0018346D01*
X0179382Y0018222D01*
X0179288Y0018101D01*
X0179190Y0017982D01*
X0179090Y0017866D01*
X0178986Y0017753D01*
X0178879Y0017642D01*
X0178770Y0017534D01*
X0178658Y0017429D01*
X0178543Y0017327D01*
X0178426Y0017228D01*
X0178306Y0017132D01*
X0178183Y0017039D01*
X0178059Y0016949D01*
X0177931Y0016863D01*
X0177802Y0016779D01*
X0177671Y0016700D01*
X0177537Y0016624D01*
X0177402Y0016551D01*
X0177265Y0016482D01*
X0177126Y0016416D01*
X0176985Y0016354D01*
X0176843Y0016296D01*
X0176699Y0016241D01*
X0176554Y0016190D01*
X0176408Y0016143D01*
X0176261Y0016100D01*
X0176112Y0016060D01*
X0175963Y0016025D01*
X0175812Y0015993D01*
X0175661Y0015965D01*
X0175509Y0015941D01*
X0175357Y0015921D01*
X0175204Y0015905D01*
X0175051Y0015893D01*
X0174897Y0015885D01*
X0174744Y0015881D01*
X0174590Y0015881D01*
X0174437Y0015885D01*
X0174283Y0015893D01*
X0174130Y0015905D01*
X0173977Y0015921D01*
X0173825Y0015941D01*
X0173673Y0015965D01*
X0173522Y0015993D01*
X0173371Y0016025D01*
X0173222Y0016060D01*
X0173073Y0016100D01*
X0172926Y0016143D01*
X0172780Y0016190D01*
X0172635Y0016241D01*
X0172491Y0016296D01*
X0172349Y0016354D01*
X0172208Y0016416D01*
X0172069Y0016482D01*
X0171932Y0016551D01*
X0171797Y0016624D01*
X0171663Y0016700D01*
X0171532Y0016779D01*
X0171403Y0016863D01*
X0171275Y0016949D01*
X0171151Y0017039D01*
X0171028Y0017132D01*
X0170908Y0017228D01*
X0170791Y0017327D01*
X0170676Y0017429D01*
X0170564Y0017534D01*
X0170455Y0017642D01*
X0170348Y0017753D01*
X0170244Y0017866D01*
X0170144Y0017982D01*
X0170046Y0018101D01*
X0169952Y0018222D01*
X0169860Y0018346D01*
X0169772Y0018472D01*
X0169688Y0018600D01*
X0169606Y0018730D01*
X0169528Y0018863D01*
X0169454Y0018997D01*
X0169383Y0019133D01*
X0169315Y0019271D01*
X0169251Y0019411D01*
X0169191Y0019553D01*
X0169135Y0019696D01*
X0169082Y0019840D01*
X0169033Y0019986D01*
X0168988Y0020132D01*
X0168946Y0020280D01*
X0168909Y0020429D01*
X0168875Y0020579D01*
X0168845Y0020730D01*
X0168820Y0020882D01*
X0168798Y0021034D01*
X0168780Y0021186D01*
X0168766Y0021339D01*
X0168756Y0021493D01*
X0168750Y0021646D01*
X0168748Y0021800D01*
X0206675Y0009989D02*
X0206675Y0033611D01*
X0232659Y0033611D01*
X0232659Y0009989D01*
X0206675Y0009989D01*
X0215730Y0021800D02*
X0215732Y0021925D01*
X0215738Y0022050D01*
X0215748Y0022174D01*
X0215762Y0022298D01*
X0215779Y0022422D01*
X0215801Y0022545D01*
X0215827Y0022667D01*
X0215856Y0022789D01*
X0215889Y0022909D01*
X0215927Y0023028D01*
X0215967Y0023147D01*
X0216012Y0023263D01*
X0216060Y0023378D01*
X0216112Y0023492D01*
X0216168Y0023604D01*
X0216227Y0023714D01*
X0216289Y0023822D01*
X0216355Y0023929D01*
X0216424Y0024033D01*
X0216497Y0024134D01*
X0216572Y0024234D01*
X0216651Y0024331D01*
X0216733Y0024425D01*
X0216818Y0024517D01*
X0216905Y0024606D01*
X0216996Y0024692D01*
X0217089Y0024775D01*
X0217185Y0024856D01*
X0217283Y0024933D01*
X0217383Y0025007D01*
X0217486Y0025078D01*
X0217591Y0025145D01*
X0217699Y0025210D01*
X0217808Y0025270D01*
X0217919Y0025328D01*
X0218032Y0025381D01*
X0218146Y0025431D01*
X0218262Y0025478D01*
X0218379Y0025520D01*
X0218498Y0025559D01*
X0218618Y0025595D01*
X0218739Y0025626D01*
X0218861Y0025654D01*
X0218983Y0025677D01*
X0219107Y0025697D01*
X0219231Y0025713D01*
X0219355Y0025725D01*
X0219480Y0025733D01*
X0219605Y0025737D01*
X0219729Y0025737D01*
X0219854Y0025733D01*
X0219979Y0025725D01*
X0220103Y0025713D01*
X0220227Y0025697D01*
X0220351Y0025677D01*
X0220473Y0025654D01*
X0220595Y0025626D01*
X0220716Y0025595D01*
X0220836Y0025559D01*
X0220955Y0025520D01*
X0221072Y0025478D01*
X0221188Y0025431D01*
X0221302Y0025381D01*
X0221415Y0025328D01*
X0221526Y0025270D01*
X0221636Y0025210D01*
X0221743Y0025145D01*
X0221848Y0025078D01*
X0221951Y0025007D01*
X0222051Y0024933D01*
X0222149Y0024856D01*
X0222245Y0024775D01*
X0222338Y0024692D01*
X0222429Y0024606D01*
X0222516Y0024517D01*
X0222601Y0024425D01*
X0222683Y0024331D01*
X0222762Y0024234D01*
X0222837Y0024134D01*
X0222910Y0024033D01*
X0222979Y0023929D01*
X0223045Y0023822D01*
X0223107Y0023714D01*
X0223166Y0023604D01*
X0223222Y0023492D01*
X0223274Y0023378D01*
X0223322Y0023263D01*
X0223367Y0023147D01*
X0223407Y0023028D01*
X0223445Y0022909D01*
X0223478Y0022789D01*
X0223507Y0022667D01*
X0223533Y0022545D01*
X0223555Y0022422D01*
X0223572Y0022298D01*
X0223586Y0022174D01*
X0223596Y0022050D01*
X0223602Y0021925D01*
X0223604Y0021800D01*
X0223602Y0021675D01*
X0223596Y0021550D01*
X0223586Y0021426D01*
X0223572Y0021302D01*
X0223555Y0021178D01*
X0223533Y0021055D01*
X0223507Y0020933D01*
X0223478Y0020811D01*
X0223445Y0020691D01*
X0223407Y0020572D01*
X0223367Y0020453D01*
X0223322Y0020337D01*
X0223274Y0020222D01*
X0223222Y0020108D01*
X0223166Y0019996D01*
X0223107Y0019886D01*
X0223045Y0019778D01*
X0222979Y0019671D01*
X0222910Y0019567D01*
X0222837Y0019466D01*
X0222762Y0019366D01*
X0222683Y0019269D01*
X0222601Y0019175D01*
X0222516Y0019083D01*
X0222429Y0018994D01*
X0222338Y0018908D01*
X0222245Y0018825D01*
X0222149Y0018744D01*
X0222051Y0018667D01*
X0221951Y0018593D01*
X0221848Y0018522D01*
X0221743Y0018455D01*
X0221635Y0018390D01*
X0221526Y0018330D01*
X0221415Y0018272D01*
X0221302Y0018219D01*
X0221188Y0018169D01*
X0221072Y0018122D01*
X0220955Y0018080D01*
X0220836Y0018041D01*
X0220716Y0018005D01*
X0220595Y0017974D01*
X0220473Y0017946D01*
X0220351Y0017923D01*
X0220227Y0017903D01*
X0220103Y0017887D01*
X0219979Y0017875D01*
X0219854Y0017867D01*
X0219729Y0017863D01*
X0219605Y0017863D01*
X0219480Y0017867D01*
X0219355Y0017875D01*
X0219231Y0017887D01*
X0219107Y0017903D01*
X0218983Y0017923D01*
X0218861Y0017946D01*
X0218739Y0017974D01*
X0218618Y0018005D01*
X0218498Y0018041D01*
X0218379Y0018080D01*
X0218262Y0018122D01*
X0218146Y0018169D01*
X0218032Y0018219D01*
X0217919Y0018272D01*
X0217808Y0018330D01*
X0217698Y0018390D01*
X0217591Y0018455D01*
X0217486Y0018522D01*
X0217383Y0018593D01*
X0217283Y0018667D01*
X0217185Y0018744D01*
X0217089Y0018825D01*
X0216996Y0018908D01*
X0216905Y0018994D01*
X0216818Y0019083D01*
X0216733Y0019175D01*
X0216651Y0019269D01*
X0216572Y0019366D01*
X0216497Y0019466D01*
X0216424Y0019567D01*
X0216355Y0019671D01*
X0216289Y0019778D01*
X0216227Y0019886D01*
X0216168Y0019996D01*
X0216112Y0020108D01*
X0216060Y0020222D01*
X0216012Y0020337D01*
X0215967Y0020453D01*
X0215927Y0020572D01*
X0215889Y0020691D01*
X0215856Y0020811D01*
X0215827Y0020933D01*
X0215801Y0021055D01*
X0215779Y0021178D01*
X0215762Y0021302D01*
X0215748Y0021426D01*
X0215738Y0021550D01*
X0215732Y0021675D01*
X0215730Y0021800D01*
X0213748Y0021800D02*
X0213750Y0021954D01*
X0213756Y0022107D01*
X0213766Y0022261D01*
X0213780Y0022414D01*
X0213798Y0022566D01*
X0213820Y0022718D01*
X0213845Y0022870D01*
X0213875Y0023021D01*
X0213909Y0023171D01*
X0213946Y0023320D01*
X0213988Y0023468D01*
X0214033Y0023614D01*
X0214082Y0023760D01*
X0214135Y0023904D01*
X0214191Y0024047D01*
X0214251Y0024189D01*
X0214315Y0024329D01*
X0214383Y0024467D01*
X0214454Y0024603D01*
X0214528Y0024737D01*
X0214606Y0024870D01*
X0214688Y0025000D01*
X0214772Y0025128D01*
X0214860Y0025254D01*
X0214952Y0025378D01*
X0215046Y0025499D01*
X0215144Y0025618D01*
X0215244Y0025734D01*
X0215348Y0025847D01*
X0215455Y0025958D01*
X0215564Y0026066D01*
X0215676Y0026171D01*
X0215791Y0026273D01*
X0215908Y0026372D01*
X0216028Y0026468D01*
X0216151Y0026561D01*
X0216275Y0026651D01*
X0216403Y0026737D01*
X0216532Y0026821D01*
X0216663Y0026900D01*
X0216797Y0026976D01*
X0216932Y0027049D01*
X0217069Y0027118D01*
X0217208Y0027184D01*
X0217349Y0027246D01*
X0217491Y0027304D01*
X0217635Y0027359D01*
X0217780Y0027410D01*
X0217926Y0027457D01*
X0218073Y0027500D01*
X0218222Y0027540D01*
X0218371Y0027575D01*
X0218522Y0027607D01*
X0218673Y0027635D01*
X0218825Y0027659D01*
X0218977Y0027679D01*
X0219130Y0027695D01*
X0219283Y0027707D01*
X0219437Y0027715D01*
X0219590Y0027719D01*
X0219744Y0027719D01*
X0219897Y0027715D01*
X0220051Y0027707D01*
X0220204Y0027695D01*
X0220357Y0027679D01*
X0220509Y0027659D01*
X0220661Y0027635D01*
X0220812Y0027607D01*
X0220963Y0027575D01*
X0221112Y0027540D01*
X0221261Y0027500D01*
X0221408Y0027457D01*
X0221554Y0027410D01*
X0221699Y0027359D01*
X0221843Y0027304D01*
X0221985Y0027246D01*
X0222126Y0027184D01*
X0222265Y0027118D01*
X0222402Y0027049D01*
X0222537Y0026976D01*
X0222671Y0026900D01*
X0222802Y0026821D01*
X0222931Y0026737D01*
X0223059Y0026651D01*
X0223183Y0026561D01*
X0223306Y0026468D01*
X0223426Y0026372D01*
X0223543Y0026273D01*
X0223658Y0026171D01*
X0223770Y0026066D01*
X0223879Y0025958D01*
X0223986Y0025847D01*
X0224090Y0025734D01*
X0224190Y0025618D01*
X0224288Y0025499D01*
X0224382Y0025378D01*
X0224474Y0025254D01*
X0224562Y0025128D01*
X0224646Y0025000D01*
X0224728Y0024870D01*
X0224806Y0024737D01*
X0224880Y0024603D01*
X0224951Y0024467D01*
X0225019Y0024329D01*
X0225083Y0024189D01*
X0225143Y0024047D01*
X0225199Y0023904D01*
X0225252Y0023760D01*
X0225301Y0023614D01*
X0225346Y0023468D01*
X0225388Y0023320D01*
X0225425Y0023171D01*
X0225459Y0023021D01*
X0225489Y0022870D01*
X0225514Y0022718D01*
X0225536Y0022566D01*
X0225554Y0022414D01*
X0225568Y0022261D01*
X0225578Y0022107D01*
X0225584Y0021954D01*
X0225586Y0021800D01*
X0225584Y0021646D01*
X0225578Y0021493D01*
X0225568Y0021339D01*
X0225554Y0021186D01*
X0225536Y0021034D01*
X0225514Y0020882D01*
X0225489Y0020730D01*
X0225459Y0020579D01*
X0225425Y0020429D01*
X0225388Y0020280D01*
X0225346Y0020132D01*
X0225301Y0019986D01*
X0225252Y0019840D01*
X0225199Y0019696D01*
X0225143Y0019553D01*
X0225083Y0019411D01*
X0225019Y0019271D01*
X0224951Y0019133D01*
X0224880Y0018997D01*
X0224806Y0018863D01*
X0224728Y0018730D01*
X0224646Y0018600D01*
X0224562Y0018472D01*
X0224474Y0018346D01*
X0224382Y0018222D01*
X0224288Y0018101D01*
X0224190Y0017982D01*
X0224090Y0017866D01*
X0223986Y0017753D01*
X0223879Y0017642D01*
X0223770Y0017534D01*
X0223658Y0017429D01*
X0223543Y0017327D01*
X0223426Y0017228D01*
X0223306Y0017132D01*
X0223183Y0017039D01*
X0223059Y0016949D01*
X0222931Y0016863D01*
X0222802Y0016779D01*
X0222671Y0016700D01*
X0222537Y0016624D01*
X0222402Y0016551D01*
X0222265Y0016482D01*
X0222126Y0016416D01*
X0221985Y0016354D01*
X0221843Y0016296D01*
X0221699Y0016241D01*
X0221554Y0016190D01*
X0221408Y0016143D01*
X0221261Y0016100D01*
X0221112Y0016060D01*
X0220963Y0016025D01*
X0220812Y0015993D01*
X0220661Y0015965D01*
X0220509Y0015941D01*
X0220357Y0015921D01*
X0220204Y0015905D01*
X0220051Y0015893D01*
X0219897Y0015885D01*
X0219744Y0015881D01*
X0219590Y0015881D01*
X0219437Y0015885D01*
X0219283Y0015893D01*
X0219130Y0015905D01*
X0218977Y0015921D01*
X0218825Y0015941D01*
X0218673Y0015965D01*
X0218522Y0015993D01*
X0218371Y0016025D01*
X0218222Y0016060D01*
X0218073Y0016100D01*
X0217926Y0016143D01*
X0217780Y0016190D01*
X0217635Y0016241D01*
X0217491Y0016296D01*
X0217349Y0016354D01*
X0217208Y0016416D01*
X0217069Y0016482D01*
X0216932Y0016551D01*
X0216797Y0016624D01*
X0216663Y0016700D01*
X0216532Y0016779D01*
X0216403Y0016863D01*
X0216275Y0016949D01*
X0216151Y0017039D01*
X0216028Y0017132D01*
X0215908Y0017228D01*
X0215791Y0017327D01*
X0215676Y0017429D01*
X0215564Y0017534D01*
X0215455Y0017642D01*
X0215348Y0017753D01*
X0215244Y0017866D01*
X0215144Y0017982D01*
X0215046Y0018101D01*
X0214952Y0018222D01*
X0214860Y0018346D01*
X0214772Y0018472D01*
X0214688Y0018600D01*
X0214606Y0018730D01*
X0214528Y0018863D01*
X0214454Y0018997D01*
X0214383Y0019133D01*
X0214315Y0019271D01*
X0214251Y0019411D01*
X0214191Y0019553D01*
X0214135Y0019696D01*
X0214082Y0019840D01*
X0214033Y0019986D01*
X0213988Y0020132D01*
X0213946Y0020280D01*
X0213909Y0020429D01*
X0213875Y0020579D01*
X0213845Y0020730D01*
X0213820Y0020882D01*
X0213798Y0021034D01*
X0213780Y0021186D01*
X0213766Y0021339D01*
X0213756Y0021493D01*
X0213750Y0021646D01*
X0213748Y0021800D01*
X0251675Y0009989D02*
X0251675Y0033611D01*
X0277659Y0033611D01*
X0277659Y0009989D01*
X0251675Y0009989D01*
X0260730Y0021800D02*
X0260732Y0021925D01*
X0260738Y0022050D01*
X0260748Y0022174D01*
X0260762Y0022298D01*
X0260779Y0022422D01*
X0260801Y0022545D01*
X0260827Y0022667D01*
X0260856Y0022789D01*
X0260889Y0022909D01*
X0260927Y0023028D01*
X0260967Y0023147D01*
X0261012Y0023263D01*
X0261060Y0023378D01*
X0261112Y0023492D01*
X0261168Y0023604D01*
X0261227Y0023714D01*
X0261289Y0023822D01*
X0261355Y0023929D01*
X0261424Y0024033D01*
X0261497Y0024134D01*
X0261572Y0024234D01*
X0261651Y0024331D01*
X0261733Y0024425D01*
X0261818Y0024517D01*
X0261905Y0024606D01*
X0261996Y0024692D01*
X0262089Y0024775D01*
X0262185Y0024856D01*
X0262283Y0024933D01*
X0262383Y0025007D01*
X0262486Y0025078D01*
X0262591Y0025145D01*
X0262699Y0025210D01*
X0262808Y0025270D01*
X0262919Y0025328D01*
X0263032Y0025381D01*
X0263146Y0025431D01*
X0263262Y0025478D01*
X0263379Y0025520D01*
X0263498Y0025559D01*
X0263618Y0025595D01*
X0263739Y0025626D01*
X0263861Y0025654D01*
X0263983Y0025677D01*
X0264107Y0025697D01*
X0264231Y0025713D01*
X0264355Y0025725D01*
X0264480Y0025733D01*
X0264605Y0025737D01*
X0264729Y0025737D01*
X0264854Y0025733D01*
X0264979Y0025725D01*
X0265103Y0025713D01*
X0265227Y0025697D01*
X0265351Y0025677D01*
X0265473Y0025654D01*
X0265595Y0025626D01*
X0265716Y0025595D01*
X0265836Y0025559D01*
X0265955Y0025520D01*
X0266072Y0025478D01*
X0266188Y0025431D01*
X0266302Y0025381D01*
X0266415Y0025328D01*
X0266526Y0025270D01*
X0266636Y0025210D01*
X0266743Y0025145D01*
X0266848Y0025078D01*
X0266951Y0025007D01*
X0267051Y0024933D01*
X0267149Y0024856D01*
X0267245Y0024775D01*
X0267338Y0024692D01*
X0267429Y0024606D01*
X0267516Y0024517D01*
X0267601Y0024425D01*
X0267683Y0024331D01*
X0267762Y0024234D01*
X0267837Y0024134D01*
X0267910Y0024033D01*
X0267979Y0023929D01*
X0268045Y0023822D01*
X0268107Y0023714D01*
X0268166Y0023604D01*
X0268222Y0023492D01*
X0268274Y0023378D01*
X0268322Y0023263D01*
X0268367Y0023147D01*
X0268407Y0023028D01*
X0268445Y0022909D01*
X0268478Y0022789D01*
X0268507Y0022667D01*
X0268533Y0022545D01*
X0268555Y0022422D01*
X0268572Y0022298D01*
X0268586Y0022174D01*
X0268596Y0022050D01*
X0268602Y0021925D01*
X0268604Y0021800D01*
X0268602Y0021675D01*
X0268596Y0021550D01*
X0268586Y0021426D01*
X0268572Y0021302D01*
X0268555Y0021178D01*
X0268533Y0021055D01*
X0268507Y0020933D01*
X0268478Y0020811D01*
X0268445Y0020691D01*
X0268407Y0020572D01*
X0268367Y0020453D01*
X0268322Y0020337D01*
X0268274Y0020222D01*
X0268222Y0020108D01*
X0268166Y0019996D01*
X0268107Y0019886D01*
X0268045Y0019778D01*
X0267979Y0019671D01*
X0267910Y0019567D01*
X0267837Y0019466D01*
X0267762Y0019366D01*
X0267683Y0019269D01*
X0267601Y0019175D01*
X0267516Y0019083D01*
X0267429Y0018994D01*
X0267338Y0018908D01*
X0267245Y0018825D01*
X0267149Y0018744D01*
X0267051Y0018667D01*
X0266951Y0018593D01*
X0266848Y0018522D01*
X0266743Y0018455D01*
X0266635Y0018390D01*
X0266526Y0018330D01*
X0266415Y0018272D01*
X0266302Y0018219D01*
X0266188Y0018169D01*
X0266072Y0018122D01*
X0265955Y0018080D01*
X0265836Y0018041D01*
X0265716Y0018005D01*
X0265595Y0017974D01*
X0265473Y0017946D01*
X0265351Y0017923D01*
X0265227Y0017903D01*
X0265103Y0017887D01*
X0264979Y0017875D01*
X0264854Y0017867D01*
X0264729Y0017863D01*
X0264605Y0017863D01*
X0264480Y0017867D01*
X0264355Y0017875D01*
X0264231Y0017887D01*
X0264107Y0017903D01*
X0263983Y0017923D01*
X0263861Y0017946D01*
X0263739Y0017974D01*
X0263618Y0018005D01*
X0263498Y0018041D01*
X0263379Y0018080D01*
X0263262Y0018122D01*
X0263146Y0018169D01*
X0263032Y0018219D01*
X0262919Y0018272D01*
X0262808Y0018330D01*
X0262698Y0018390D01*
X0262591Y0018455D01*
X0262486Y0018522D01*
X0262383Y0018593D01*
X0262283Y0018667D01*
X0262185Y0018744D01*
X0262089Y0018825D01*
X0261996Y0018908D01*
X0261905Y0018994D01*
X0261818Y0019083D01*
X0261733Y0019175D01*
X0261651Y0019269D01*
X0261572Y0019366D01*
X0261497Y0019466D01*
X0261424Y0019567D01*
X0261355Y0019671D01*
X0261289Y0019778D01*
X0261227Y0019886D01*
X0261168Y0019996D01*
X0261112Y0020108D01*
X0261060Y0020222D01*
X0261012Y0020337D01*
X0260967Y0020453D01*
X0260927Y0020572D01*
X0260889Y0020691D01*
X0260856Y0020811D01*
X0260827Y0020933D01*
X0260801Y0021055D01*
X0260779Y0021178D01*
X0260762Y0021302D01*
X0260748Y0021426D01*
X0260738Y0021550D01*
X0260732Y0021675D01*
X0260730Y0021800D01*
X0258748Y0021800D02*
X0258750Y0021954D01*
X0258756Y0022107D01*
X0258766Y0022261D01*
X0258780Y0022414D01*
X0258798Y0022566D01*
X0258820Y0022718D01*
X0258845Y0022870D01*
X0258875Y0023021D01*
X0258909Y0023171D01*
X0258946Y0023320D01*
X0258988Y0023468D01*
X0259033Y0023614D01*
X0259082Y0023760D01*
X0259135Y0023904D01*
X0259191Y0024047D01*
X0259251Y0024189D01*
X0259315Y0024329D01*
X0259383Y0024467D01*
X0259454Y0024603D01*
X0259528Y0024737D01*
X0259606Y0024870D01*
X0259688Y0025000D01*
X0259772Y0025128D01*
X0259860Y0025254D01*
X0259952Y0025378D01*
X0260046Y0025499D01*
X0260144Y0025618D01*
X0260244Y0025734D01*
X0260348Y0025847D01*
X0260455Y0025958D01*
X0260564Y0026066D01*
X0260676Y0026171D01*
X0260791Y0026273D01*
X0260908Y0026372D01*
X0261028Y0026468D01*
X0261151Y0026561D01*
X0261275Y0026651D01*
X0261403Y0026737D01*
X0261532Y0026821D01*
X0261663Y0026900D01*
X0261797Y0026976D01*
X0261932Y0027049D01*
X0262069Y0027118D01*
X0262208Y0027184D01*
X0262349Y0027246D01*
X0262491Y0027304D01*
X0262635Y0027359D01*
X0262780Y0027410D01*
X0262926Y0027457D01*
X0263073Y0027500D01*
X0263222Y0027540D01*
X0263371Y0027575D01*
X0263522Y0027607D01*
X0263673Y0027635D01*
X0263825Y0027659D01*
X0263977Y0027679D01*
X0264130Y0027695D01*
X0264283Y0027707D01*
X0264437Y0027715D01*
X0264590Y0027719D01*
X0264744Y0027719D01*
X0264897Y0027715D01*
X0265051Y0027707D01*
X0265204Y0027695D01*
X0265357Y0027679D01*
X0265509Y0027659D01*
X0265661Y0027635D01*
X0265812Y0027607D01*
X0265963Y0027575D01*
X0266112Y0027540D01*
X0266261Y0027500D01*
X0266408Y0027457D01*
X0266554Y0027410D01*
X0266699Y0027359D01*
X0266843Y0027304D01*
X0266985Y0027246D01*
X0267126Y0027184D01*
X0267265Y0027118D01*
X0267402Y0027049D01*
X0267537Y0026976D01*
X0267671Y0026900D01*
X0267802Y0026821D01*
X0267931Y0026737D01*
X0268059Y0026651D01*
X0268183Y0026561D01*
X0268306Y0026468D01*
X0268426Y0026372D01*
X0268543Y0026273D01*
X0268658Y0026171D01*
X0268770Y0026066D01*
X0268879Y0025958D01*
X0268986Y0025847D01*
X0269090Y0025734D01*
X0269190Y0025618D01*
X0269288Y0025499D01*
X0269382Y0025378D01*
X0269474Y0025254D01*
X0269562Y0025128D01*
X0269646Y0025000D01*
X0269728Y0024870D01*
X0269806Y0024737D01*
X0269880Y0024603D01*
X0269951Y0024467D01*
X0270019Y0024329D01*
X0270083Y0024189D01*
X0270143Y0024047D01*
X0270199Y0023904D01*
X0270252Y0023760D01*
X0270301Y0023614D01*
X0270346Y0023468D01*
X0270388Y0023320D01*
X0270425Y0023171D01*
X0270459Y0023021D01*
X0270489Y0022870D01*
X0270514Y0022718D01*
X0270536Y0022566D01*
X0270554Y0022414D01*
X0270568Y0022261D01*
X0270578Y0022107D01*
X0270584Y0021954D01*
X0270586Y0021800D01*
X0270584Y0021646D01*
X0270578Y0021493D01*
X0270568Y0021339D01*
X0270554Y0021186D01*
X0270536Y0021034D01*
X0270514Y0020882D01*
X0270489Y0020730D01*
X0270459Y0020579D01*
X0270425Y0020429D01*
X0270388Y0020280D01*
X0270346Y0020132D01*
X0270301Y0019986D01*
X0270252Y0019840D01*
X0270199Y0019696D01*
X0270143Y0019553D01*
X0270083Y0019411D01*
X0270019Y0019271D01*
X0269951Y0019133D01*
X0269880Y0018997D01*
X0269806Y0018863D01*
X0269728Y0018730D01*
X0269646Y0018600D01*
X0269562Y0018472D01*
X0269474Y0018346D01*
X0269382Y0018222D01*
X0269288Y0018101D01*
X0269190Y0017982D01*
X0269090Y0017866D01*
X0268986Y0017753D01*
X0268879Y0017642D01*
X0268770Y0017534D01*
X0268658Y0017429D01*
X0268543Y0017327D01*
X0268426Y0017228D01*
X0268306Y0017132D01*
X0268183Y0017039D01*
X0268059Y0016949D01*
X0267931Y0016863D01*
X0267802Y0016779D01*
X0267671Y0016700D01*
X0267537Y0016624D01*
X0267402Y0016551D01*
X0267265Y0016482D01*
X0267126Y0016416D01*
X0266985Y0016354D01*
X0266843Y0016296D01*
X0266699Y0016241D01*
X0266554Y0016190D01*
X0266408Y0016143D01*
X0266261Y0016100D01*
X0266112Y0016060D01*
X0265963Y0016025D01*
X0265812Y0015993D01*
X0265661Y0015965D01*
X0265509Y0015941D01*
X0265357Y0015921D01*
X0265204Y0015905D01*
X0265051Y0015893D01*
X0264897Y0015885D01*
X0264744Y0015881D01*
X0264590Y0015881D01*
X0264437Y0015885D01*
X0264283Y0015893D01*
X0264130Y0015905D01*
X0263977Y0015921D01*
X0263825Y0015941D01*
X0263673Y0015965D01*
X0263522Y0015993D01*
X0263371Y0016025D01*
X0263222Y0016060D01*
X0263073Y0016100D01*
X0262926Y0016143D01*
X0262780Y0016190D01*
X0262635Y0016241D01*
X0262491Y0016296D01*
X0262349Y0016354D01*
X0262208Y0016416D01*
X0262069Y0016482D01*
X0261932Y0016551D01*
X0261797Y0016624D01*
X0261663Y0016700D01*
X0261532Y0016779D01*
X0261403Y0016863D01*
X0261275Y0016949D01*
X0261151Y0017039D01*
X0261028Y0017132D01*
X0260908Y0017228D01*
X0260791Y0017327D01*
X0260676Y0017429D01*
X0260564Y0017534D01*
X0260455Y0017642D01*
X0260348Y0017753D01*
X0260244Y0017866D01*
X0260144Y0017982D01*
X0260046Y0018101D01*
X0259952Y0018222D01*
X0259860Y0018346D01*
X0259772Y0018472D01*
X0259688Y0018600D01*
X0259606Y0018730D01*
X0259528Y0018863D01*
X0259454Y0018997D01*
X0259383Y0019133D01*
X0259315Y0019271D01*
X0259251Y0019411D01*
X0259191Y0019553D01*
X0259135Y0019696D01*
X0259082Y0019840D01*
X0259033Y0019986D01*
X0258988Y0020132D01*
X0258946Y0020280D01*
X0258909Y0020429D01*
X0258875Y0020579D01*
X0258845Y0020730D01*
X0258820Y0020882D01*
X0258798Y0021034D01*
X0258780Y0021186D01*
X0258766Y0021339D01*
X0258756Y0021493D01*
X0258750Y0021646D01*
X0258748Y0021800D01*
X0296675Y0009989D02*
X0296675Y0033611D01*
X0322659Y0033611D01*
X0322659Y0009989D01*
X0296675Y0009989D01*
X0305730Y0021800D02*
X0305732Y0021925D01*
X0305738Y0022050D01*
X0305748Y0022174D01*
X0305762Y0022298D01*
X0305779Y0022422D01*
X0305801Y0022545D01*
X0305827Y0022667D01*
X0305856Y0022789D01*
X0305889Y0022909D01*
X0305927Y0023028D01*
X0305967Y0023147D01*
X0306012Y0023263D01*
X0306060Y0023378D01*
X0306112Y0023492D01*
X0306168Y0023604D01*
X0306227Y0023714D01*
X0306289Y0023822D01*
X0306355Y0023929D01*
X0306424Y0024033D01*
X0306497Y0024134D01*
X0306572Y0024234D01*
X0306651Y0024331D01*
X0306733Y0024425D01*
X0306818Y0024517D01*
X0306905Y0024606D01*
X0306996Y0024692D01*
X0307089Y0024775D01*
X0307185Y0024856D01*
X0307283Y0024933D01*
X0307383Y0025007D01*
X0307486Y0025078D01*
X0307591Y0025145D01*
X0307699Y0025210D01*
X0307808Y0025270D01*
X0307919Y0025328D01*
X0308032Y0025381D01*
X0308146Y0025431D01*
X0308262Y0025478D01*
X0308379Y0025520D01*
X0308498Y0025559D01*
X0308618Y0025595D01*
X0308739Y0025626D01*
X0308861Y0025654D01*
X0308983Y0025677D01*
X0309107Y0025697D01*
X0309231Y0025713D01*
X0309355Y0025725D01*
X0309480Y0025733D01*
X0309605Y0025737D01*
X0309729Y0025737D01*
X0309854Y0025733D01*
X0309979Y0025725D01*
X0310103Y0025713D01*
X0310227Y0025697D01*
X0310351Y0025677D01*
X0310473Y0025654D01*
X0310595Y0025626D01*
X0310716Y0025595D01*
X0310836Y0025559D01*
X0310955Y0025520D01*
X0311072Y0025478D01*
X0311188Y0025431D01*
X0311302Y0025381D01*
X0311415Y0025328D01*
X0311526Y0025270D01*
X0311636Y0025210D01*
X0311743Y0025145D01*
X0311848Y0025078D01*
X0311951Y0025007D01*
X0312051Y0024933D01*
X0312149Y0024856D01*
X0312245Y0024775D01*
X0312338Y0024692D01*
X0312429Y0024606D01*
X0312516Y0024517D01*
X0312601Y0024425D01*
X0312683Y0024331D01*
X0312762Y0024234D01*
X0312837Y0024134D01*
X0312910Y0024033D01*
X0312979Y0023929D01*
X0313045Y0023822D01*
X0313107Y0023714D01*
X0313166Y0023604D01*
X0313222Y0023492D01*
X0313274Y0023378D01*
X0313322Y0023263D01*
X0313367Y0023147D01*
X0313407Y0023028D01*
X0313445Y0022909D01*
X0313478Y0022789D01*
X0313507Y0022667D01*
X0313533Y0022545D01*
X0313555Y0022422D01*
X0313572Y0022298D01*
X0313586Y0022174D01*
X0313596Y0022050D01*
X0313602Y0021925D01*
X0313604Y0021800D01*
X0313602Y0021675D01*
X0313596Y0021550D01*
X0313586Y0021426D01*
X0313572Y0021302D01*
X0313555Y0021178D01*
X0313533Y0021055D01*
X0313507Y0020933D01*
X0313478Y0020811D01*
X0313445Y0020691D01*
X0313407Y0020572D01*
X0313367Y0020453D01*
X0313322Y0020337D01*
X0313274Y0020222D01*
X0313222Y0020108D01*
X0313166Y0019996D01*
X0313107Y0019886D01*
X0313045Y0019778D01*
X0312979Y0019671D01*
X0312910Y0019567D01*
X0312837Y0019466D01*
X0312762Y0019366D01*
X0312683Y0019269D01*
X0312601Y0019175D01*
X0312516Y0019083D01*
X0312429Y0018994D01*
X0312338Y0018908D01*
X0312245Y0018825D01*
X0312149Y0018744D01*
X0312051Y0018667D01*
X0311951Y0018593D01*
X0311848Y0018522D01*
X0311743Y0018455D01*
X0311635Y0018390D01*
X0311526Y0018330D01*
X0311415Y0018272D01*
X0311302Y0018219D01*
X0311188Y0018169D01*
X0311072Y0018122D01*
X0310955Y0018080D01*
X0310836Y0018041D01*
X0310716Y0018005D01*
X0310595Y0017974D01*
X0310473Y0017946D01*
X0310351Y0017923D01*
X0310227Y0017903D01*
X0310103Y0017887D01*
X0309979Y0017875D01*
X0309854Y0017867D01*
X0309729Y0017863D01*
X0309605Y0017863D01*
X0309480Y0017867D01*
X0309355Y0017875D01*
X0309231Y0017887D01*
X0309107Y0017903D01*
X0308983Y0017923D01*
X0308861Y0017946D01*
X0308739Y0017974D01*
X0308618Y0018005D01*
X0308498Y0018041D01*
X0308379Y0018080D01*
X0308262Y0018122D01*
X0308146Y0018169D01*
X0308032Y0018219D01*
X0307919Y0018272D01*
X0307808Y0018330D01*
X0307698Y0018390D01*
X0307591Y0018455D01*
X0307486Y0018522D01*
X0307383Y0018593D01*
X0307283Y0018667D01*
X0307185Y0018744D01*
X0307089Y0018825D01*
X0306996Y0018908D01*
X0306905Y0018994D01*
X0306818Y0019083D01*
X0306733Y0019175D01*
X0306651Y0019269D01*
X0306572Y0019366D01*
X0306497Y0019466D01*
X0306424Y0019567D01*
X0306355Y0019671D01*
X0306289Y0019778D01*
X0306227Y0019886D01*
X0306168Y0019996D01*
X0306112Y0020108D01*
X0306060Y0020222D01*
X0306012Y0020337D01*
X0305967Y0020453D01*
X0305927Y0020572D01*
X0305889Y0020691D01*
X0305856Y0020811D01*
X0305827Y0020933D01*
X0305801Y0021055D01*
X0305779Y0021178D01*
X0305762Y0021302D01*
X0305748Y0021426D01*
X0305738Y0021550D01*
X0305732Y0021675D01*
X0305730Y0021800D01*
X0303748Y0021800D02*
X0303750Y0021954D01*
X0303756Y0022107D01*
X0303766Y0022261D01*
X0303780Y0022414D01*
X0303798Y0022566D01*
X0303820Y0022718D01*
X0303845Y0022870D01*
X0303875Y0023021D01*
X0303909Y0023171D01*
X0303946Y0023320D01*
X0303988Y0023468D01*
X0304033Y0023614D01*
X0304082Y0023760D01*
X0304135Y0023904D01*
X0304191Y0024047D01*
X0304251Y0024189D01*
X0304315Y0024329D01*
X0304383Y0024467D01*
X0304454Y0024603D01*
X0304528Y0024737D01*
X0304606Y0024870D01*
X0304688Y0025000D01*
X0304772Y0025128D01*
X0304860Y0025254D01*
X0304952Y0025378D01*
X0305046Y0025499D01*
X0305144Y0025618D01*
X0305244Y0025734D01*
X0305348Y0025847D01*
X0305455Y0025958D01*
X0305564Y0026066D01*
X0305676Y0026171D01*
X0305791Y0026273D01*
X0305908Y0026372D01*
X0306028Y0026468D01*
X0306151Y0026561D01*
X0306275Y0026651D01*
X0306403Y0026737D01*
X0306532Y0026821D01*
X0306663Y0026900D01*
X0306797Y0026976D01*
X0306932Y0027049D01*
X0307069Y0027118D01*
X0307208Y0027184D01*
X0307349Y0027246D01*
X0307491Y0027304D01*
X0307635Y0027359D01*
X0307780Y0027410D01*
X0307926Y0027457D01*
X0308073Y0027500D01*
X0308222Y0027540D01*
X0308371Y0027575D01*
X0308522Y0027607D01*
X0308673Y0027635D01*
X0308825Y0027659D01*
X0308977Y0027679D01*
X0309130Y0027695D01*
X0309283Y0027707D01*
X0309437Y0027715D01*
X0309590Y0027719D01*
X0309744Y0027719D01*
X0309897Y0027715D01*
X0310051Y0027707D01*
X0310204Y0027695D01*
X0310357Y0027679D01*
X0310509Y0027659D01*
X0310661Y0027635D01*
X0310812Y0027607D01*
X0310963Y0027575D01*
X0311112Y0027540D01*
X0311261Y0027500D01*
X0311408Y0027457D01*
X0311554Y0027410D01*
X0311699Y0027359D01*
X0311843Y0027304D01*
X0311985Y0027246D01*
X0312126Y0027184D01*
X0312265Y0027118D01*
X0312402Y0027049D01*
X0312537Y0026976D01*
X0312671Y0026900D01*
X0312802Y0026821D01*
X0312931Y0026737D01*
X0313059Y0026651D01*
X0313183Y0026561D01*
X0313306Y0026468D01*
X0313426Y0026372D01*
X0313543Y0026273D01*
X0313658Y0026171D01*
X0313770Y0026066D01*
X0313879Y0025958D01*
X0313986Y0025847D01*
X0314090Y0025734D01*
X0314190Y0025618D01*
X0314288Y0025499D01*
X0314382Y0025378D01*
X0314474Y0025254D01*
X0314562Y0025128D01*
X0314646Y0025000D01*
X0314728Y0024870D01*
X0314806Y0024737D01*
X0314880Y0024603D01*
X0314951Y0024467D01*
X0315019Y0024329D01*
X0315083Y0024189D01*
X0315143Y0024047D01*
X0315199Y0023904D01*
X0315252Y0023760D01*
X0315301Y0023614D01*
X0315346Y0023468D01*
X0315388Y0023320D01*
X0315425Y0023171D01*
X0315459Y0023021D01*
X0315489Y0022870D01*
X0315514Y0022718D01*
X0315536Y0022566D01*
X0315554Y0022414D01*
X0315568Y0022261D01*
X0315578Y0022107D01*
X0315584Y0021954D01*
X0315586Y0021800D01*
X0315584Y0021646D01*
X0315578Y0021493D01*
X0315568Y0021339D01*
X0315554Y0021186D01*
X0315536Y0021034D01*
X0315514Y0020882D01*
X0315489Y0020730D01*
X0315459Y0020579D01*
X0315425Y0020429D01*
X0315388Y0020280D01*
X0315346Y0020132D01*
X0315301Y0019986D01*
X0315252Y0019840D01*
X0315199Y0019696D01*
X0315143Y0019553D01*
X0315083Y0019411D01*
X0315019Y0019271D01*
X0314951Y0019133D01*
X0314880Y0018997D01*
X0314806Y0018863D01*
X0314728Y0018730D01*
X0314646Y0018600D01*
X0314562Y0018472D01*
X0314474Y0018346D01*
X0314382Y0018222D01*
X0314288Y0018101D01*
X0314190Y0017982D01*
X0314090Y0017866D01*
X0313986Y0017753D01*
X0313879Y0017642D01*
X0313770Y0017534D01*
X0313658Y0017429D01*
X0313543Y0017327D01*
X0313426Y0017228D01*
X0313306Y0017132D01*
X0313183Y0017039D01*
X0313059Y0016949D01*
X0312931Y0016863D01*
X0312802Y0016779D01*
X0312671Y0016700D01*
X0312537Y0016624D01*
X0312402Y0016551D01*
X0312265Y0016482D01*
X0312126Y0016416D01*
X0311985Y0016354D01*
X0311843Y0016296D01*
X0311699Y0016241D01*
X0311554Y0016190D01*
X0311408Y0016143D01*
X0311261Y0016100D01*
X0311112Y0016060D01*
X0310963Y0016025D01*
X0310812Y0015993D01*
X0310661Y0015965D01*
X0310509Y0015941D01*
X0310357Y0015921D01*
X0310204Y0015905D01*
X0310051Y0015893D01*
X0309897Y0015885D01*
X0309744Y0015881D01*
X0309590Y0015881D01*
X0309437Y0015885D01*
X0309283Y0015893D01*
X0309130Y0015905D01*
X0308977Y0015921D01*
X0308825Y0015941D01*
X0308673Y0015965D01*
X0308522Y0015993D01*
X0308371Y0016025D01*
X0308222Y0016060D01*
X0308073Y0016100D01*
X0307926Y0016143D01*
X0307780Y0016190D01*
X0307635Y0016241D01*
X0307491Y0016296D01*
X0307349Y0016354D01*
X0307208Y0016416D01*
X0307069Y0016482D01*
X0306932Y0016551D01*
X0306797Y0016624D01*
X0306663Y0016700D01*
X0306532Y0016779D01*
X0306403Y0016863D01*
X0306275Y0016949D01*
X0306151Y0017039D01*
X0306028Y0017132D01*
X0305908Y0017228D01*
X0305791Y0017327D01*
X0305676Y0017429D01*
X0305564Y0017534D01*
X0305455Y0017642D01*
X0305348Y0017753D01*
X0305244Y0017866D01*
X0305144Y0017982D01*
X0305046Y0018101D01*
X0304952Y0018222D01*
X0304860Y0018346D01*
X0304772Y0018472D01*
X0304688Y0018600D01*
X0304606Y0018730D01*
X0304528Y0018863D01*
X0304454Y0018997D01*
X0304383Y0019133D01*
X0304315Y0019271D01*
X0304251Y0019411D01*
X0304191Y0019553D01*
X0304135Y0019696D01*
X0304082Y0019840D01*
X0304033Y0019986D01*
X0303988Y0020132D01*
X0303946Y0020280D01*
X0303909Y0020429D01*
X0303875Y0020579D01*
X0303845Y0020730D01*
X0303820Y0020882D01*
X0303798Y0021034D01*
X0303780Y0021186D01*
X0303766Y0021339D01*
X0303756Y0021493D01*
X0303750Y0021646D01*
X0303748Y0021800D01*
D13*
X0279471Y0095400D02*
X0276869Y0095400D01*
X0275568Y0096701D01*
X0280773Y0101906D01*
X0280773Y0096701D01*
X0279471Y0095400D01*
X0275568Y0096701D02*
X0275568Y0101906D01*
X0276869Y0103207D01*
X0279471Y0103207D01*
X0280773Y0101906D01*
X0271565Y0095400D02*
X0266360Y0095400D01*
X0268962Y0095400D02*
X0268962Y0103207D01*
X0266360Y0100604D01*
X0262357Y0100604D02*
X0262357Y0101906D01*
X0261056Y0103207D01*
X0258454Y0103207D01*
X0257152Y0101906D01*
X0259755Y0099303D02*
X0261056Y0099303D01*
X0262357Y0098002D01*
X0262357Y0096701D01*
X0261056Y0095400D01*
X0258454Y0095400D01*
X0257152Y0096701D01*
X0253149Y0096701D02*
X0253149Y0098002D01*
X0251848Y0099303D01*
X0250547Y0099303D01*
X0251848Y0099303D02*
X0253149Y0100604D01*
X0253149Y0101906D01*
X0251848Y0103207D01*
X0249246Y0103207D01*
X0247945Y0101906D01*
X0247945Y0096701D02*
X0249246Y0095400D01*
X0251848Y0095400D01*
X0253149Y0096701D01*
X0261056Y0099303D02*
X0262357Y0100604D01*
X0234733Y0100604D02*
X0234733Y0095400D01*
X0234733Y0099303D02*
X0229529Y0099303D01*
X0229529Y0100604D02*
X0232131Y0103207D01*
X0234733Y0100604D01*
X0229529Y0100604D02*
X0229529Y0095400D01*
X0225992Y0095400D02*
X0223390Y0095400D01*
X0224691Y0095400D02*
X0224691Y0103207D01*
X0223390Y0103207D02*
X0225992Y0103207D01*
X0219387Y0103207D02*
X0214182Y0098002D01*
X0215483Y0099303D02*
X0219387Y0095400D01*
X0214182Y0095400D02*
X0214182Y0103207D01*
X0210179Y0101906D02*
X0208878Y0103207D01*
X0206276Y0103207D01*
X0204975Y0101906D01*
X0204975Y0096701D01*
X0206276Y0095400D01*
X0208878Y0095400D01*
X0210179Y0096701D01*
X0210179Y0101906D01*
X0200971Y0103207D02*
X0200971Y0095400D01*
X0195767Y0103207D01*
X0195767Y0095400D01*
D14*
X0011751Y0009404D02*
X0011751Y0004800D01*
X0011751Y0006335D02*
X0014053Y0006335D01*
X0014820Y0007102D01*
X0014820Y0008637D01*
X0014053Y0009404D01*
X0011751Y0009404D01*
X0016355Y0009404D02*
X0018657Y0009404D01*
X0019424Y0008637D01*
X0019424Y0007102D01*
X0018657Y0006335D01*
X0016355Y0006335D01*
X0017889Y0006335D02*
X0019424Y0004800D01*
X0020959Y0005567D02*
X0021726Y0004800D01*
X0023261Y0004800D01*
X0024028Y0005567D01*
X0024028Y0008637D01*
X0023261Y0009404D01*
X0021726Y0009404D01*
X0020959Y0008637D01*
X0020959Y0005567D01*
X0025563Y0005567D02*
X0026330Y0004800D01*
X0027865Y0004800D01*
X0028632Y0005567D01*
X0028632Y0007102D01*
X0027097Y0007102D01*
X0025563Y0008637D02*
X0025563Y0005567D01*
X0025563Y0008637D02*
X0026330Y0009404D01*
X0027865Y0009404D01*
X0028632Y0008637D01*
X0016355Y0009404D02*
X0016355Y0004800D01*
X0047890Y0004800D02*
X0047890Y0009404D01*
X0050191Y0009404D01*
X0050959Y0008637D01*
X0050959Y0007102D01*
X0050191Y0006335D01*
X0047890Y0006335D01*
X0052493Y0004800D02*
X0054028Y0004800D01*
X0053261Y0004800D02*
X0053261Y0009404D01*
X0054028Y0009404D02*
X0052493Y0009404D01*
X0055563Y0009404D02*
X0058632Y0004800D01*
X0058632Y0009404D01*
X0055563Y0009404D02*
X0055563Y0004800D01*
X0081738Y0009160D02*
X0083272Y0007625D01*
X0086342Y0007625D01*
X0084040Y0007625D02*
X0084040Y0010694D01*
X0083272Y0010694D02*
X0086342Y0010694D01*
X0083272Y0010694D02*
X0081738Y0009160D01*
X0081738Y0012229D02*
X0081738Y0015298D01*
X0081738Y0013764D02*
X0086342Y0013764D01*
X0081738Y0016833D02*
X0081738Y0019902D01*
X0081738Y0018367D02*
X0086342Y0018367D01*
X0086342Y0021437D02*
X0086342Y0022971D01*
X0086342Y0022204D02*
X0081738Y0022204D01*
X0081738Y0021437D02*
X0081738Y0022971D01*
X0081738Y0024506D02*
X0086342Y0027575D01*
X0081738Y0027575D01*
X0081738Y0029110D02*
X0082505Y0029110D01*
X0084040Y0030645D01*
X0086342Y0030645D01*
X0084040Y0030645D02*
X0082505Y0032179D01*
X0081738Y0032179D01*
X0083272Y0033714D02*
X0081738Y0035249D01*
X0086342Y0035249D01*
X0086342Y0036783D02*
X0086342Y0033714D01*
X0085574Y0038318D02*
X0084040Y0038318D01*
X0084040Y0040620D01*
X0084807Y0041387D01*
X0085574Y0041387D01*
X0086342Y0040620D01*
X0086342Y0039085D01*
X0085574Y0038318D01*
X0084040Y0038318D02*
X0082505Y0039852D01*
X0081738Y0041387D01*
X0083272Y0042922D02*
X0081738Y0044456D01*
X0086342Y0044456D01*
X0086342Y0042922D02*
X0086342Y0045991D01*
X0085574Y0047526D02*
X0084040Y0047526D01*
X0084040Y0049828D01*
X0084807Y0050595D01*
X0085574Y0050595D01*
X0086342Y0049828D01*
X0086342Y0048293D01*
X0085574Y0047526D01*
X0084040Y0047526D02*
X0082505Y0049060D01*
X0081738Y0050595D01*
X0060904Y0069331D02*
X0060136Y0068563D01*
X0057067Y0068563D01*
X0056300Y0069331D01*
X0056300Y0070865D01*
X0057067Y0071633D01*
X0058602Y0073167D02*
X0056300Y0075469D01*
X0060904Y0075469D01*
X0058602Y0076237D02*
X0058602Y0073167D01*
X0060136Y0071633D02*
X0060904Y0070865D01*
X0060904Y0069331D01*
X0060904Y0077771D02*
X0060904Y0078539D01*
X0060136Y0078539D01*
X0060136Y0077771D01*
X0060904Y0077771D01*
X0060904Y0080073D02*
X0060904Y0083142D01*
X0060904Y0081608D02*
X0056300Y0081608D01*
X0057834Y0080073D01*
X0058759Y0094500D02*
X0060294Y0094500D01*
X0061061Y0095267D01*
X0062596Y0094500D02*
X0065665Y0097569D01*
X0065665Y0098337D01*
X0064898Y0099104D01*
X0063363Y0099104D01*
X0062596Y0098337D01*
X0061061Y0098337D02*
X0060294Y0099104D01*
X0058759Y0099104D01*
X0057992Y0098337D01*
X0057992Y0095267D01*
X0058759Y0094500D01*
X0062596Y0094500D02*
X0065665Y0094500D01*
X0067200Y0094500D02*
X0067967Y0094500D01*
X0067967Y0095267D01*
X0067200Y0095267D01*
X0067200Y0094500D01*
X0069501Y0094500D02*
X0072571Y0094500D01*
X0071036Y0094500D02*
X0071036Y0099104D01*
X0069501Y0097569D01*
X0068842Y0105292D02*
X0064238Y0105292D01*
X0064238Y0107594D01*
X0065005Y0108361D01*
X0066540Y0108361D01*
X0067307Y0107594D01*
X0067307Y0105292D01*
X0067307Y0106827D02*
X0068842Y0108361D01*
X0068074Y0109896D02*
X0068842Y0110663D01*
X0068842Y0112198D01*
X0068074Y0112965D01*
X0066540Y0112965D01*
X0065772Y0112198D01*
X0065772Y0111431D01*
X0066540Y0109896D01*
X0064238Y0109896D01*
X0064238Y0112965D01*
X0053815Y0127000D02*
X0054582Y0127767D01*
X0054582Y0128535D01*
X0053815Y0129302D01*
X0051513Y0129302D01*
X0051513Y0127767D01*
X0052280Y0127000D01*
X0053815Y0127000D01*
X0051513Y0129302D02*
X0053047Y0130837D01*
X0054582Y0131604D01*
X0049978Y0130837D02*
X0049978Y0129302D01*
X0049211Y0128535D01*
X0046909Y0128535D01*
X0048443Y0128535D02*
X0049978Y0127000D01*
X0046909Y0127000D02*
X0046909Y0131604D01*
X0049211Y0131604D01*
X0049978Y0130837D01*
X0039582Y0130837D02*
X0039582Y0130069D01*
X0038815Y0129302D01*
X0037280Y0129302D01*
X0036513Y0130069D01*
X0036513Y0130837D01*
X0037280Y0131604D01*
X0038815Y0131604D01*
X0039582Y0130837D01*
X0038815Y0129302D02*
X0039582Y0128535D01*
X0039582Y0127767D01*
X0038815Y0127000D01*
X0037280Y0127000D01*
X0036513Y0127767D01*
X0036513Y0128535D01*
X0037280Y0129302D01*
X0034978Y0129302D02*
X0034211Y0128535D01*
X0031909Y0128535D01*
X0033443Y0128535D02*
X0034978Y0127000D01*
X0034978Y0129302D02*
X0034978Y0130837D01*
X0034211Y0131604D01*
X0031909Y0131604D01*
X0031909Y0127000D01*
X0031738Y0138188D02*
X0031738Y0140490D01*
X0032505Y0141257D01*
X0034040Y0141257D01*
X0034807Y0140490D01*
X0034807Y0138188D01*
X0036342Y0138188D02*
X0031738Y0138188D01*
X0034807Y0139723D02*
X0036342Y0141257D01*
X0036342Y0142792D02*
X0036342Y0145861D01*
X0036342Y0144327D02*
X0031738Y0144327D01*
X0033272Y0142792D01*
X0032505Y0147396D02*
X0031738Y0148163D01*
X0031738Y0149698D01*
X0032505Y0150465D01*
X0033272Y0150465D01*
X0036342Y0147396D01*
X0036342Y0150465D01*
X0039180Y0148479D02*
X0041482Y0148479D01*
X0042249Y0147712D01*
X0042249Y0146177D01*
X0041482Y0145410D01*
X0039180Y0145410D01*
X0040714Y0145410D02*
X0042249Y0143875D01*
X0043784Y0143875D02*
X0046853Y0143875D01*
X0045318Y0143875D02*
X0045318Y0148479D01*
X0043784Y0146944D01*
X0039180Y0148479D02*
X0039180Y0143875D01*
X0048388Y0143875D02*
X0051457Y0143875D01*
X0049922Y0143875D02*
X0049922Y0148479D01*
X0048388Y0146944D01*
X0047936Y0169500D02*
X0046401Y0171035D01*
X0047169Y0171035D02*
X0044867Y0171035D01*
X0044867Y0169500D02*
X0044867Y0174104D01*
X0047169Y0174104D01*
X0047936Y0173337D01*
X0047936Y0171802D01*
X0047169Y0171035D01*
X0049471Y0172569D02*
X0051005Y0174104D01*
X0051005Y0169500D01*
X0049471Y0169500D02*
X0052540Y0169500D01*
X0054075Y0170267D02*
X0057144Y0173337D01*
X0057144Y0170267D01*
X0056376Y0169500D01*
X0054842Y0169500D01*
X0054075Y0170267D01*
X0054075Y0173337D01*
X0054842Y0174104D01*
X0056376Y0174104D01*
X0057144Y0173337D01*
X0067367Y0182000D02*
X0067367Y0186604D01*
X0069669Y0186604D01*
X0070436Y0185837D01*
X0070436Y0184302D01*
X0069669Y0183535D01*
X0067367Y0183535D01*
X0068901Y0183535D02*
X0070436Y0182000D01*
X0071971Y0182000D02*
X0075040Y0185069D01*
X0075040Y0185837D01*
X0074273Y0186604D01*
X0072738Y0186604D01*
X0071971Y0185837D01*
X0076575Y0185837D02*
X0077342Y0186604D01*
X0078876Y0186604D01*
X0079644Y0185837D01*
X0079644Y0185069D01*
X0076575Y0182000D01*
X0079644Y0182000D01*
X0075040Y0182000D02*
X0071971Y0182000D01*
X0054644Y0185267D02*
X0053876Y0184500D01*
X0052342Y0184500D01*
X0051575Y0185267D01*
X0051575Y0186802D02*
X0053109Y0187569D01*
X0053876Y0187569D01*
X0054644Y0186802D01*
X0054644Y0185267D01*
X0051575Y0186802D02*
X0051575Y0189104D01*
X0054644Y0189104D01*
X0048505Y0189104D02*
X0048505Y0184500D01*
X0046971Y0184500D02*
X0050040Y0184500D01*
X0046971Y0187569D02*
X0048505Y0189104D01*
X0045436Y0188337D02*
X0045436Y0186802D01*
X0044669Y0186035D01*
X0042367Y0186035D01*
X0043901Y0186035D02*
X0045436Y0184500D01*
X0042367Y0184500D02*
X0042367Y0189104D01*
X0044669Y0189104D01*
X0045436Y0188337D01*
X0046936Y0204000D02*
X0045401Y0205535D01*
X0046169Y0205535D02*
X0043867Y0205535D01*
X0043867Y0204000D02*
X0043867Y0208604D01*
X0046169Y0208604D01*
X0046936Y0207837D01*
X0046936Y0206302D01*
X0046169Y0205535D01*
X0048471Y0206302D02*
X0050005Y0206302D01*
X0048471Y0208604D02*
X0048471Y0204000D01*
X0051540Y0204000D01*
X0053075Y0204767D02*
X0053842Y0204000D01*
X0055376Y0204000D01*
X0056144Y0204767D01*
X0056144Y0205535D01*
X0055376Y0206302D01*
X0053842Y0206302D01*
X0053075Y0207069D01*
X0053075Y0207837D01*
X0053842Y0208604D01*
X0055376Y0208604D01*
X0056144Y0207837D01*
X0057678Y0208604D02*
X0059980Y0208604D01*
X0060748Y0207837D01*
X0060748Y0207069D01*
X0059980Y0206302D01*
X0057678Y0206302D01*
X0057678Y0204000D02*
X0057678Y0208604D01*
X0059980Y0206302D02*
X0060748Y0205535D01*
X0060748Y0204767D01*
X0059980Y0204000D01*
X0057678Y0204000D01*
X0051540Y0208604D02*
X0048471Y0208604D01*
X0025748Y0207069D02*
X0025748Y0204000D01*
X0025748Y0206302D02*
X0022678Y0206302D01*
X0022678Y0207069D02*
X0024213Y0208604D01*
X0025748Y0207069D01*
X0022678Y0207069D02*
X0022678Y0204000D01*
X0021144Y0204767D02*
X0020376Y0204000D01*
X0018842Y0204000D01*
X0018075Y0204767D01*
X0018842Y0206302D02*
X0020376Y0206302D01*
X0021144Y0205535D01*
X0021144Y0204767D01*
X0018842Y0206302D02*
X0018075Y0207069D01*
X0018075Y0207837D01*
X0018842Y0208604D01*
X0020376Y0208604D01*
X0021144Y0207837D01*
X0016540Y0208604D02*
X0013471Y0208604D01*
X0013471Y0204000D01*
X0016540Y0204000D01*
X0015005Y0206302D02*
X0013471Y0206302D01*
X0011936Y0206302D02*
X0011169Y0205535D01*
X0008867Y0205535D01*
X0010401Y0205535D02*
X0011936Y0204000D01*
X0011936Y0206302D02*
X0011936Y0207837D01*
X0011169Y0208604D01*
X0008867Y0208604D01*
X0008867Y0204000D01*
X0007467Y0179985D02*
X0004397Y0179985D01*
X0002863Y0178450D01*
X0004397Y0176916D01*
X0007467Y0176916D01*
X0005165Y0176916D02*
X0005165Y0179985D01*
X0002863Y0175381D02*
X0002863Y0172312D01*
X0002863Y0173846D02*
X0007467Y0173846D01*
X0007467Y0170777D02*
X0007467Y0167708D01*
X0002863Y0167708D01*
X0003630Y0166173D02*
X0002863Y0165406D01*
X0002863Y0163871D01*
X0003630Y0163104D01*
X0006699Y0163104D01*
X0007467Y0163871D01*
X0007467Y0165406D01*
X0006699Y0166173D01*
X0003630Y0166173D01*
X0002863Y0161569D02*
X0005932Y0161569D01*
X0007467Y0160035D01*
X0005932Y0158500D01*
X0002863Y0158500D01*
X0004397Y0150381D02*
X0007467Y0150381D01*
X0005165Y0150381D02*
X0005165Y0147312D01*
X0004397Y0147312D02*
X0002863Y0148846D01*
X0004397Y0150381D01*
X0004397Y0147312D02*
X0007467Y0147312D01*
X0005932Y0145010D02*
X0005932Y0142708D01*
X0007467Y0142708D02*
X0002863Y0142708D01*
X0002863Y0145010D01*
X0003630Y0145777D01*
X0005165Y0145777D01*
X0005932Y0145010D01*
X0007467Y0141173D02*
X0002863Y0141173D01*
X0004397Y0139639D01*
X0002863Y0138104D01*
X0007467Y0138104D01*
X0007467Y0136569D02*
X0004397Y0136569D01*
X0002863Y0135035D01*
X0004397Y0133500D01*
X0007467Y0133500D01*
X0005165Y0133500D02*
X0005165Y0136569D01*
X0005932Y0124985D02*
X0006699Y0124985D01*
X0007467Y0124218D01*
X0007467Y0121916D01*
X0002863Y0121916D01*
X0002863Y0124218D01*
X0003630Y0124985D01*
X0004397Y0124985D01*
X0005165Y0124218D01*
X0005165Y0121916D01*
X0005165Y0124218D02*
X0005932Y0124985D01*
X0002863Y0120381D02*
X0002863Y0117312D01*
X0002863Y0118846D02*
X0007467Y0118846D01*
X0007467Y0115777D02*
X0007467Y0112708D01*
X0002863Y0112708D01*
X0003630Y0111173D02*
X0002863Y0110406D01*
X0002863Y0108871D01*
X0003630Y0108104D01*
X0006699Y0108104D01*
X0007467Y0108871D01*
X0007467Y0110406D01*
X0006699Y0111173D01*
X0003630Y0111173D01*
X0002863Y0106569D02*
X0005932Y0106569D01*
X0007467Y0105035D01*
X0005932Y0103500D01*
X0002863Y0103500D01*
X0003630Y0095381D02*
X0004397Y0095381D01*
X0005165Y0094614D01*
X0005165Y0092312D01*
X0005165Y0090777D02*
X0005932Y0090010D01*
X0005932Y0087708D01*
X0007467Y0087708D02*
X0002863Y0087708D01*
X0002863Y0090010D01*
X0003630Y0090777D01*
X0005165Y0090777D01*
X0007467Y0092312D02*
X0007467Y0094614D01*
X0006699Y0095381D01*
X0005932Y0095381D01*
X0005165Y0094614D01*
X0003630Y0095381D02*
X0002863Y0094614D01*
X0002863Y0092312D01*
X0007467Y0092312D01*
X0007467Y0086173D02*
X0002863Y0086173D01*
X0004397Y0084639D01*
X0002863Y0083104D01*
X0007467Y0083104D01*
X0007467Y0081569D02*
X0004397Y0081569D01*
X0002863Y0080035D01*
X0004397Y0078500D01*
X0007467Y0078500D01*
X0005165Y0078500D02*
X0005165Y0081569D01*
X0023784Y0095750D02*
X0023784Y0100354D01*
X0026086Y0100354D01*
X0026853Y0099587D01*
X0026853Y0098052D01*
X0026086Y0097285D01*
X0023784Y0097285D01*
X0025318Y0097285D02*
X0026853Y0095750D01*
X0028388Y0095750D02*
X0028388Y0096517D01*
X0031457Y0099587D01*
X0031457Y0100354D01*
X0028388Y0100354D01*
X0027367Y0169500D02*
X0027367Y0174104D01*
X0029669Y0174104D01*
X0030436Y0173337D01*
X0030436Y0171802D01*
X0029669Y0171035D01*
X0027367Y0171035D01*
X0028901Y0171035D02*
X0030436Y0169500D01*
X0031971Y0170267D02*
X0032738Y0169500D01*
X0034273Y0169500D01*
X0035040Y0170267D01*
X0035040Y0173337D01*
X0034273Y0174104D01*
X0032738Y0174104D01*
X0031971Y0173337D01*
X0031971Y0172569D01*
X0032738Y0171802D01*
X0035040Y0171802D01*
X0158613Y0141864D02*
X0158613Y0140329D01*
X0159380Y0139562D01*
X0159380Y0138027D02*
X0158613Y0137260D01*
X0158613Y0134958D01*
X0163217Y0134958D01*
X0163217Y0137260D01*
X0162449Y0138027D01*
X0159380Y0138027D01*
X0163217Y0139562D02*
X0160147Y0142631D01*
X0159380Y0142631D01*
X0158613Y0141864D01*
X0163217Y0142631D02*
X0163217Y0139562D01*
X0163217Y0133423D02*
X0163217Y0130354D01*
X0158613Y0130354D01*
X0158613Y0133423D01*
X0160915Y0131889D02*
X0160915Y0130354D01*
X0163217Y0128819D02*
X0163217Y0125750D01*
X0158613Y0125750D01*
X0163217Y0086381D02*
X0163217Y0083312D01*
X0163217Y0084846D02*
X0158613Y0084846D01*
X0160147Y0083312D01*
X0159380Y0081777D02*
X0158613Y0081010D01*
X0158613Y0078708D01*
X0163217Y0078708D01*
X0163217Y0081010D01*
X0162449Y0081777D01*
X0159380Y0081777D01*
X0158613Y0077173D02*
X0158613Y0074104D01*
X0163217Y0074104D01*
X0163217Y0077173D01*
X0160915Y0075639D02*
X0160915Y0074104D01*
X0163217Y0072569D02*
X0163217Y0069500D01*
X0158613Y0069500D01*
X0168633Y0040324D02*
X0167866Y0039557D01*
X0167866Y0038790D01*
X0168633Y0038022D01*
X0170168Y0038022D01*
X0170935Y0037255D01*
X0170935Y0036488D01*
X0170168Y0035720D01*
X0168633Y0035720D01*
X0167866Y0036488D01*
X0172470Y0035720D02*
X0174004Y0037255D01*
X0175539Y0035720D01*
X0175539Y0040324D01*
X0177074Y0038790D02*
X0178608Y0040324D01*
X0178608Y0035720D01*
X0177074Y0035720D02*
X0180143Y0035720D01*
X0172470Y0035720D02*
X0172470Y0040324D01*
X0170935Y0039557D02*
X0170168Y0040324D01*
X0168633Y0040324D01*
X0212866Y0039557D02*
X0212866Y0038790D01*
X0213633Y0038022D01*
X0215168Y0038022D01*
X0215935Y0037255D01*
X0215935Y0036488D01*
X0215168Y0035720D01*
X0213633Y0035720D01*
X0212866Y0036488D01*
X0212866Y0039557D02*
X0213633Y0040324D01*
X0215168Y0040324D01*
X0215935Y0039557D01*
X0217470Y0040324D02*
X0217470Y0035720D01*
X0219004Y0037255D01*
X0220539Y0035720D01*
X0220539Y0040324D01*
X0222074Y0039557D02*
X0222841Y0040324D01*
X0224376Y0040324D01*
X0225143Y0039557D01*
X0225143Y0038790D01*
X0222074Y0035720D01*
X0225143Y0035720D01*
X0257866Y0036488D02*
X0258633Y0035720D01*
X0260168Y0035720D01*
X0260935Y0036488D01*
X0260935Y0037255D01*
X0260168Y0038022D01*
X0258633Y0038022D01*
X0257866Y0038790D01*
X0257866Y0039557D01*
X0258633Y0040324D01*
X0260168Y0040324D01*
X0260935Y0039557D01*
X0262470Y0040324D02*
X0262470Y0035720D01*
X0264004Y0037255D01*
X0265539Y0035720D01*
X0265539Y0040324D01*
X0267074Y0039557D02*
X0267841Y0040324D01*
X0269376Y0040324D01*
X0270143Y0039557D01*
X0270143Y0038790D01*
X0269376Y0038022D01*
X0270143Y0037255D01*
X0270143Y0036488D01*
X0269376Y0035720D01*
X0267841Y0035720D01*
X0267074Y0036488D01*
X0268608Y0038022D02*
X0269376Y0038022D01*
X0302866Y0038790D02*
X0303633Y0038022D01*
X0305168Y0038022D01*
X0305935Y0037255D01*
X0305935Y0036488D01*
X0305168Y0035720D01*
X0303633Y0035720D01*
X0302866Y0036488D01*
X0302866Y0038790D02*
X0302866Y0039557D01*
X0303633Y0040324D01*
X0305168Y0040324D01*
X0305935Y0039557D01*
X0307470Y0040324D02*
X0307470Y0035720D01*
X0309004Y0037255D01*
X0310539Y0035720D01*
X0310539Y0040324D01*
X0312074Y0038022D02*
X0315143Y0038022D01*
X0314376Y0035720D02*
X0314376Y0040324D01*
X0312074Y0038022D01*
X0323613Y0069834D02*
X0328217Y0069834D01*
X0328217Y0072904D01*
X0328217Y0074438D02*
X0323613Y0074438D01*
X0323613Y0077507D01*
X0323613Y0079042D02*
X0323613Y0081344D01*
X0324380Y0082111D01*
X0327449Y0082111D01*
X0328217Y0081344D01*
X0328217Y0079042D01*
X0323613Y0079042D01*
X0325915Y0075973D02*
X0325915Y0074438D01*
X0328217Y0074438D02*
X0328217Y0077507D01*
X0325915Y0083646D02*
X0325915Y0086715D01*
X0328217Y0085948D02*
X0323613Y0085948D01*
X0325915Y0083646D01*
X0323613Y0123250D02*
X0328217Y0123250D01*
X0328217Y0126319D01*
X0328217Y0127854D02*
X0323613Y0127854D01*
X0323613Y0130923D01*
X0323613Y0132458D02*
X0323613Y0134760D01*
X0324380Y0135527D01*
X0327449Y0135527D01*
X0328217Y0134760D01*
X0328217Y0132458D01*
X0323613Y0132458D01*
X0328217Y0130923D02*
X0328217Y0127854D01*
X0325915Y0127854D02*
X0325915Y0129389D01*
X0327449Y0137062D02*
X0328217Y0137829D01*
X0328217Y0139364D01*
X0327449Y0140131D01*
X0326682Y0140131D01*
X0325915Y0139364D01*
X0325915Y0138596D01*
X0325915Y0139364D02*
X0325147Y0140131D01*
X0324380Y0140131D01*
X0323613Y0139364D01*
X0323613Y0137829D01*
X0324380Y0137062D01*
X0264467Y0153201D02*
X0263266Y0154402D01*
X0260864Y0154402D01*
X0261464Y0155683D02*
X0260864Y0156284D01*
X0260864Y0157485D01*
X0261464Y0158085D01*
X0261464Y0159366D02*
X0263866Y0159366D01*
X0264467Y0159967D01*
X0264467Y0161168D01*
X0263866Y0161768D01*
X0261464Y0161768D02*
X0260864Y0161168D01*
X0260864Y0159967D01*
X0261464Y0159366D01*
X0259467Y0159366D02*
X0255864Y0159366D01*
X0254467Y0160541D02*
X0250864Y0160541D01*
X0250864Y0158139D02*
X0254467Y0160541D01*
X0255864Y0161768D02*
X0258266Y0159366D01*
X0257665Y0159967D02*
X0259467Y0161768D01*
X0259467Y0158085D02*
X0259467Y0155683D01*
X0255864Y0155683D01*
X0254467Y0155683D02*
X0254467Y0156884D01*
X0254467Y0156284D02*
X0250864Y0156284D01*
X0250864Y0156884D02*
X0250864Y0155683D01*
X0251464Y0154402D02*
X0250864Y0153802D01*
X0250864Y0152000D01*
X0254467Y0152000D01*
X0254467Y0153802D01*
X0253866Y0154402D01*
X0251464Y0154402D01*
X0249467Y0153802D02*
X0249467Y0152000D01*
X0245864Y0152000D01*
X0245864Y0153802D01*
X0246464Y0154402D01*
X0248866Y0154402D01*
X0249467Y0153802D01*
X0248866Y0155683D02*
X0246464Y0155683D01*
X0245864Y0156284D01*
X0245864Y0157485D01*
X0246464Y0158085D01*
X0244467Y0158085D02*
X0244467Y0155683D01*
X0240864Y0155683D01*
X0240864Y0158085D01*
X0239467Y0157485D02*
X0238866Y0158085D01*
X0239467Y0157485D02*
X0239467Y0156284D01*
X0238866Y0155683D01*
X0236464Y0155683D01*
X0235864Y0156284D01*
X0235864Y0157485D01*
X0236464Y0158085D01*
X0236464Y0159366D02*
X0238866Y0159366D01*
X0239467Y0159967D01*
X0239467Y0161168D01*
X0238866Y0161768D01*
X0236464Y0161768D02*
X0235864Y0161168D01*
X0235864Y0159967D01*
X0236464Y0159366D01*
X0234467Y0159366D02*
X0234467Y0161168D01*
X0233866Y0161768D01*
X0231464Y0161768D01*
X0230864Y0161168D01*
X0230864Y0159366D01*
X0234467Y0159366D01*
X0234467Y0158085D02*
X0230864Y0158085D01*
X0229467Y0158085D02*
X0227065Y0158085D01*
X0225864Y0156884D01*
X0227065Y0155683D01*
X0229467Y0155683D01*
X0230864Y0155683D02*
X0234467Y0158085D01*
X0234467Y0155683D02*
X0230864Y0155683D01*
X0231464Y0154402D02*
X0230864Y0153802D01*
X0230864Y0152601D01*
X0231464Y0152000D01*
X0233866Y0152000D01*
X0234467Y0152601D01*
X0234467Y0153802D01*
X0233866Y0154402D01*
X0232665Y0154402D01*
X0232665Y0153201D01*
X0229467Y0153802D02*
X0228866Y0154402D01*
X0229467Y0153802D02*
X0229467Y0152601D01*
X0228866Y0152000D01*
X0226464Y0152000D01*
X0225864Y0152601D01*
X0225864Y0153802D01*
X0226464Y0154402D01*
X0227665Y0155683D02*
X0227665Y0158085D01*
X0228266Y0159366D02*
X0228266Y0161168D01*
X0227665Y0161768D01*
X0226464Y0161768D01*
X0225864Y0161168D01*
X0225864Y0159366D01*
X0229467Y0159366D01*
X0224467Y0160567D02*
X0220864Y0160567D01*
X0220864Y0159366D02*
X0220864Y0161768D01*
X0221464Y0158085D02*
X0220864Y0157485D01*
X0220864Y0156284D01*
X0221464Y0155683D01*
X0222065Y0155683D01*
X0222665Y0156284D01*
X0222665Y0157485D01*
X0223266Y0158085D01*
X0223866Y0158085D01*
X0224467Y0157485D01*
X0224467Y0156284D01*
X0223866Y0155683D01*
X0224467Y0154402D02*
X0223266Y0153201D01*
X0223266Y0153802D02*
X0223266Y0152000D01*
X0224467Y0152000D02*
X0220864Y0152000D01*
X0220864Y0153802D01*
X0221464Y0154402D01*
X0222665Y0154402D01*
X0223266Y0153802D01*
X0235864Y0154402D02*
X0238266Y0154402D01*
X0239467Y0153201D01*
X0238266Y0152000D01*
X0235864Y0152000D01*
X0240864Y0152601D02*
X0241464Y0152000D01*
X0243866Y0152000D01*
X0244467Y0152601D01*
X0244467Y0153802D01*
X0243866Y0154402D01*
X0242665Y0155683D02*
X0242665Y0156884D01*
X0241464Y0154402D02*
X0240864Y0153802D01*
X0240864Y0152601D01*
X0248866Y0155683D02*
X0249467Y0156284D01*
X0249467Y0157485D01*
X0248866Y0158085D01*
X0250864Y0158139D02*
X0254467Y0158139D01*
X0256464Y0154402D02*
X0255864Y0153802D01*
X0255864Y0152601D01*
X0256464Y0152000D01*
X0258866Y0152000D01*
X0259467Y0152601D01*
X0259467Y0153802D01*
X0258866Y0154402D01*
X0261464Y0155683D02*
X0263866Y0155683D01*
X0264467Y0156284D01*
X0264467Y0157485D01*
X0263866Y0158085D01*
X0264467Y0153201D02*
X0263266Y0152000D01*
X0260864Y0152000D01*
X0232540Y0178250D02*
X0230238Y0178250D01*
X0229471Y0179017D01*
X0229471Y0181319D01*
X0232540Y0181319D02*
X0232540Y0178250D01*
X0227936Y0178250D02*
X0224867Y0178250D01*
X0226401Y0178250D02*
X0226401Y0182854D01*
X0224867Y0181319D01*
X0225634Y0193250D02*
X0227169Y0193250D01*
X0227936Y0194017D01*
X0229471Y0194017D02*
X0230238Y0193250D01*
X0231773Y0193250D01*
X0232540Y0194017D01*
X0232540Y0194785D01*
X0231773Y0195552D01*
X0229471Y0195552D01*
X0229471Y0194017D01*
X0229471Y0195552D02*
X0231005Y0197087D01*
X0232540Y0197854D01*
X0227936Y0197087D02*
X0227169Y0197854D01*
X0225634Y0197854D01*
X0224867Y0197087D01*
X0224867Y0194017D01*
X0225634Y0193250D01*
X0098217Y0028367D02*
X0098217Y0025298D01*
X0098217Y0026833D02*
X0093613Y0026833D01*
X0095147Y0025298D01*
X0094380Y0023764D02*
X0093613Y0022996D01*
X0093613Y0021462D01*
X0094380Y0020694D01*
X0097449Y0020694D01*
X0098217Y0021462D01*
X0098217Y0022996D01*
X0097449Y0023764D01*
X0098217Y0019160D02*
X0098217Y0017625D01*
X0098217Y0018392D02*
X0093613Y0018392D01*
X0093613Y0017625D02*
X0093613Y0019160D01*
X0086342Y0024506D02*
X0081738Y0024506D01*
D15*
X0046407Y0041637D02*
X0045789Y0041020D01*
X0044555Y0041020D01*
X0043938Y0041637D01*
X0042723Y0041637D02*
X0042106Y0041020D01*
X0040872Y0041020D01*
X0040255Y0041637D01*
X0040255Y0044106D01*
X0040872Y0044723D01*
X0042106Y0044723D01*
X0042723Y0044106D01*
X0043938Y0044106D02*
X0044555Y0044723D01*
X0045789Y0044723D01*
X0046407Y0044106D01*
X0046407Y0043489D01*
X0045789Y0042871D01*
X0046407Y0042254D01*
X0046407Y0041637D01*
X0045789Y0042871D02*
X0045172Y0042871D01*
X0055970Y0053316D02*
X0058439Y0053316D01*
X0060888Y0053316D02*
X0060888Y0057019D01*
X0062122Y0057019D02*
X0059653Y0057019D01*
X0055970Y0057019D02*
X0055970Y0053316D01*
X0063336Y0053933D02*
X0063336Y0056402D01*
X0063954Y0057019D01*
X0065188Y0057019D01*
X0065805Y0056402D01*
X0067020Y0055168D02*
X0068871Y0055168D01*
X0069488Y0054551D01*
X0069488Y0053933D01*
X0068871Y0053316D01*
X0067637Y0053316D01*
X0067020Y0053933D01*
X0067020Y0055168D01*
X0068254Y0056402D01*
X0069488Y0057019D01*
X0070703Y0056402D02*
X0070703Y0055785D01*
X0071320Y0055168D01*
X0073172Y0055168D01*
X0073172Y0056402D02*
X0073172Y0053933D01*
X0072554Y0053316D01*
X0071320Y0053316D01*
X0070703Y0053933D01*
X0074386Y0053316D02*
X0076855Y0053316D01*
X0078069Y0053316D02*
X0080538Y0053316D01*
X0079303Y0053316D02*
X0079303Y0057019D01*
X0078069Y0055785D01*
X0075620Y0057019D02*
X0075620Y0053316D01*
X0074386Y0055785D02*
X0075620Y0057019D01*
X0073172Y0056402D02*
X0072554Y0057019D01*
X0071320Y0057019D01*
X0070703Y0056402D01*
X0065805Y0053933D02*
X0065188Y0053316D01*
X0063954Y0053316D01*
X0063336Y0053933D01*
X0063263Y0062487D02*
X0063263Y0066191D01*
X0063880Y0066191D02*
X0062645Y0066191D01*
X0065101Y0065573D02*
X0065101Y0063105D01*
X0065718Y0062487D01*
X0066952Y0062487D01*
X0067570Y0063105D01*
X0068784Y0064339D02*
X0070636Y0066191D01*
X0070636Y0062487D01*
X0071253Y0064339D02*
X0068784Y0064339D01*
X0067570Y0065573D02*
X0066952Y0066191D01*
X0065718Y0066191D01*
X0065101Y0065573D01*
X0063880Y0062487D02*
X0062645Y0062487D01*
X0055399Y0064501D02*
X0052931Y0064501D01*
X0054165Y0063267D02*
X0054165Y0065736D01*
X0065872Y0080395D02*
X0067106Y0080395D01*
X0067723Y0081012D01*
X0068938Y0082246D02*
X0071407Y0082246D01*
X0070789Y0080395D02*
X0070789Y0084098D01*
X0068938Y0082246D01*
X0067723Y0083481D02*
X0067106Y0084098D01*
X0065872Y0084098D01*
X0065255Y0083481D01*
X0065255Y0081012D01*
X0065872Y0080395D01*
X0077845Y0081394D02*
X0077845Y0077691D01*
X0080314Y0077691D01*
X0082763Y0077691D02*
X0082763Y0081394D01*
X0083997Y0081394D02*
X0081528Y0081394D01*
X0085211Y0080777D02*
X0085211Y0078308D01*
X0085829Y0077691D01*
X0087063Y0077691D01*
X0087680Y0078308D01*
X0088895Y0077691D02*
X0091363Y0080160D01*
X0091363Y0080777D01*
X0090746Y0081394D01*
X0089512Y0081394D01*
X0088895Y0080777D01*
X0087680Y0080777D02*
X0087063Y0081394D01*
X0085829Y0081394D01*
X0085211Y0080777D01*
X0088895Y0077691D02*
X0091363Y0077691D01*
X0092578Y0079543D02*
X0095047Y0079543D01*
X0096261Y0078308D02*
X0096261Y0080777D01*
X0096878Y0081394D01*
X0098112Y0081394D01*
X0098730Y0080777D01*
X0096261Y0078308D01*
X0096878Y0077691D01*
X0098112Y0077691D01*
X0098730Y0078308D01*
X0098730Y0080777D01*
X0099944Y0080777D02*
X0100561Y0081394D01*
X0101796Y0081394D01*
X0102413Y0080777D01*
X0102413Y0080160D01*
X0099944Y0077691D01*
X0102413Y0077691D01*
X0094429Y0077691D02*
X0094429Y0081394D01*
X0092578Y0079543D01*
X0091909Y0068691D02*
X0091909Y0066839D01*
X0093143Y0067456D01*
X0093761Y0067456D01*
X0094378Y0066839D01*
X0094378Y0065605D01*
X0093761Y0064987D01*
X0092526Y0064987D01*
X0091909Y0065605D01*
X0090695Y0065605D02*
X0090077Y0064987D01*
X0088843Y0064987D01*
X0088226Y0065605D01*
X0088226Y0068073D01*
X0088843Y0068691D01*
X0090077Y0068691D01*
X0090695Y0068073D01*
X0091909Y0068691D02*
X0094378Y0068691D01*
X0087005Y0068691D02*
X0085770Y0068691D01*
X0086388Y0068691D02*
X0086388Y0064987D01*
X0087005Y0064987D02*
X0085770Y0064987D01*
X0048128Y0106862D02*
X0045659Y0106862D01*
X0048128Y0109331D01*
X0048128Y0109948D01*
X0047511Y0110566D01*
X0046276Y0110566D01*
X0045659Y0109948D01*
X0044445Y0109948D02*
X0043827Y0110566D01*
X0042593Y0110566D01*
X0041976Y0109948D01*
X0041976Y0107480D01*
X0042593Y0106862D01*
X0043827Y0106862D01*
X0044445Y0107480D01*
X0040755Y0106862D02*
X0039520Y0106862D01*
X0040138Y0106862D02*
X0040138Y0110566D01*
X0040755Y0110566D02*
X0039520Y0110566D01*
X0038990Y0116584D02*
X0040224Y0116584D01*
X0040841Y0117201D01*
X0042056Y0116584D02*
X0044524Y0116584D01*
X0043290Y0116584D02*
X0043290Y0120287D01*
X0042056Y0119053D01*
X0040841Y0119670D02*
X0040224Y0120287D01*
X0038990Y0120287D01*
X0038372Y0119670D01*
X0038372Y0117201D01*
X0038990Y0116584D01*
X0035924Y0116584D02*
X0035924Y0120287D01*
X0037158Y0120287D02*
X0034689Y0120287D01*
X0031006Y0120287D02*
X0031006Y0116584D01*
X0033475Y0116584D01*
X0045739Y0117201D02*
X0046356Y0116584D01*
X0047590Y0116584D01*
X0048207Y0117201D01*
X0048207Y0119670D01*
X0047590Y0120287D01*
X0046356Y0120287D01*
X0045739Y0119670D01*
X0045739Y0119053D01*
X0046356Y0118435D01*
X0048207Y0118435D01*
X0049422Y0119053D02*
X0050039Y0118435D01*
X0051891Y0118435D01*
X0051891Y0117201D02*
X0051891Y0119670D01*
X0051273Y0120287D01*
X0050039Y0120287D01*
X0049422Y0119670D01*
X0049422Y0119053D01*
X0049422Y0117201D02*
X0050039Y0116584D01*
X0051273Y0116584D01*
X0051891Y0117201D01*
X0053105Y0116584D02*
X0055574Y0119053D01*
X0055574Y0119670D01*
X0054957Y0120287D01*
X0053722Y0120287D01*
X0053105Y0119670D01*
X0053105Y0116584D02*
X0055574Y0116584D01*
X0163567Y0125052D02*
X0166035Y0125052D01*
X0164801Y0126286D02*
X0164801Y0123817D01*
X0171118Y0088536D02*
X0171118Y0086067D01*
X0169884Y0087302D02*
X0172352Y0087302D01*
X0313567Y0125052D02*
X0316035Y0125052D01*
X0314801Y0126286D02*
X0314801Y0123817D01*
X0321118Y0088536D02*
X0321118Y0086067D01*
X0319884Y0087302D02*
X0322352Y0087302D01*
D16*
X0320779Y0078709D03*
X0316054Y0078709D03*
X0316054Y0133641D03*
X0320779Y0133641D03*
X0170779Y0133641D03*
X0166054Y0133641D03*
X0166054Y0078709D03*
X0170779Y0078709D03*
D17*
X0168417Y0078709D03*
X0168417Y0133641D03*
X0318417Y0133641D03*
X0318417Y0078709D03*
D18*
X0120667Y0114300D02*
X0115667Y0114300D01*
X0020375Y0103788D02*
X0008958Y0103788D01*
X0008958Y0124812D01*
X0020375Y0124812D01*
X0020375Y0103788D01*
X0020375Y0099812D02*
X0008958Y0099812D01*
X0008958Y0078788D01*
X0020375Y0078788D01*
X0020375Y0099812D01*
X0020375Y0133788D02*
X0008958Y0133788D01*
X0008958Y0154812D01*
X0020375Y0154812D01*
X0020375Y0133788D01*
X0020375Y0158788D02*
X0008958Y0158788D01*
X0008958Y0179812D01*
X0020375Y0179812D01*
X0020375Y0158788D01*
X0030178Y0191091D02*
X0009155Y0191091D01*
X0009155Y0202509D01*
X0030178Y0202509D01*
X0030178Y0191091D01*
X0044155Y0191091D02*
X0044155Y0202509D01*
X0065178Y0202509D01*
X0065178Y0191091D01*
X0044155Y0191091D01*
X0107167Y0177800D02*
X0112167Y0177800D01*
X0109667Y0180300D02*
X0109667Y0175300D01*
D19*
X0157167Y0186800D02*
X0157167Y0206800D01*
X0197167Y0206800D01*
X0197167Y0186800D01*
X0157167Y0186800D01*
X0049322Y0115206D02*
X0037511Y0115206D01*
X0037511Y0103394D02*
X0049322Y0103394D01*
X0083761Y0072706D02*
X0095572Y0072706D01*
X0095572Y0060894D02*
X0083761Y0060894D01*
X0073072Y0058394D02*
X0061261Y0058394D01*
X0061261Y0070206D02*
X0073072Y0070206D01*
X0277167Y0186800D02*
X0277167Y0206800D01*
X0317167Y0206800D01*
X0317167Y0186800D01*
X0277167Y0186800D01*
D20*
X0085139Y0070737D03*
X0062639Y0068237D03*
X0038889Y0113828D03*
D21*
X0043417Y0018050D03*
X0053417Y0018050D03*
X0063417Y0018050D03*
X0030917Y0018050D03*
X0020917Y0018050D03*
X0010917Y0018050D03*
M02*
