G75*
%MOIN*%
%OFA0B0*%
%FSLAX25Y25*%
%IPPOS*%
%LPD*%
%AMOC8*
5,1,8,0,0,1.08239X$1,22.5*
%
%ADD10R,0.02500X0.10000*%
%ADD11R,0.04724X0.04724*%
%ADD12R,0.05118X0.05906*%
%ADD13OC8,0.10000*%
%ADD14OC8,0.15000*%
%ADD15R,0.12598X0.04724*%
%ADD16C,0.06496*%
%ADD17R,0.04724X0.01575*%
%ADD18R,0.03543X0.01220*%
%ADD19R,0.02362X0.08661*%
%ADD20R,0.06299X0.05118*%
%ADD21R,0.05118X0.06299*%
%ADD22C,0.07087*%
%ADD23R,0.05906X0.07677*%
%ADD24R,0.04331X0.05512*%
%ADD25C,0.06000*%
%ADD26OC8,0.05000*%
%ADD27C,0.02400*%
%ADD28C,0.01600*%
%ADD29C,0.01300*%
%ADD30R,0.03562X0.03562*%
%ADD31C,0.05000*%
D10*
X0227167Y0171800D03*
X0230917Y0171800D03*
X0234667Y0171800D03*
X0238417Y0171800D03*
X0242167Y0171800D03*
X0245917Y0171800D03*
X0249667Y0171800D03*
X0253417Y0171800D03*
X0257167Y0171800D03*
D11*
X0318417Y0137184D03*
X0318417Y0128916D03*
X0318417Y0083434D03*
X0318417Y0075166D03*
X0168417Y0075166D03*
X0168417Y0083434D03*
X0168417Y0128916D03*
X0168417Y0137184D03*
D12*
X0225927Y0188050D03*
X0233407Y0188050D03*
X0053407Y0096800D03*
X0045927Y0096800D03*
D13*
X0109667Y0109300D03*
X0109667Y0119300D03*
X0129667Y0189300D03*
X0124667Y0199300D03*
X0094667Y0199300D03*
X0089667Y0189300D03*
D14*
X0109667Y0189300D03*
D15*
X0161281Y0029674D03*
X0161281Y0013926D03*
X0188052Y0013926D03*
X0206281Y0013926D03*
X0206281Y0029674D03*
X0188052Y0029674D03*
X0233052Y0029674D03*
X0251281Y0029674D03*
X0251281Y0013926D03*
X0233052Y0013926D03*
X0278052Y0013926D03*
X0296281Y0013926D03*
X0296281Y0029674D03*
X0278052Y0029674D03*
X0323052Y0029674D03*
X0323052Y0013926D03*
D16*
X0307167Y0193552D02*
X0307167Y0200048D01*
X0297167Y0200048D02*
X0297167Y0193552D01*
X0287167Y0193552D02*
X0287167Y0200048D01*
X0187167Y0200048D02*
X0187167Y0193552D01*
X0177167Y0193552D02*
X0177167Y0200048D01*
X0167167Y0200048D02*
X0167167Y0193552D01*
D17*
X0051488Y0113139D03*
X0051488Y0110580D03*
X0051488Y0108020D03*
X0051488Y0105461D03*
X0035346Y0105461D03*
X0035346Y0108020D03*
X0035346Y0110580D03*
X0035346Y0113139D03*
D18*
X0081596Y0070737D03*
X0081596Y0068769D03*
X0081596Y0066800D03*
X0081596Y0064831D03*
X0081596Y0062863D03*
X0075238Y0062331D03*
X0075238Y0060363D03*
X0075238Y0064300D03*
X0075238Y0066269D03*
X0075238Y0068237D03*
X0059096Y0068237D03*
X0059096Y0066269D03*
X0059096Y0064300D03*
X0059096Y0062331D03*
X0059096Y0060363D03*
X0097738Y0062863D03*
X0097738Y0064831D03*
X0097738Y0066800D03*
X0097738Y0068769D03*
X0097738Y0070737D03*
D19*
X0099667Y0047410D03*
X0104667Y0047410D03*
X0109667Y0047410D03*
X0114667Y0047410D03*
X0119667Y0047410D03*
X0124667Y0047410D03*
X0129667Y0047410D03*
X0134667Y0047410D03*
X0094667Y0047410D03*
X0089667Y0047410D03*
X0089667Y0011190D03*
X0094667Y0011190D03*
X0099667Y0011190D03*
X0104667Y0011190D03*
X0109667Y0011190D03*
X0114667Y0011190D03*
X0119667Y0011190D03*
X0124667Y0011190D03*
X0129667Y0011190D03*
X0134667Y0011190D03*
D20*
X0059667Y0105560D03*
X0059667Y0113040D03*
X0059667Y0123060D03*
X0059667Y0130540D03*
X0027167Y0130540D03*
X0027167Y0123060D03*
X0027167Y0113040D03*
X0027167Y0105560D03*
X0027167Y0140560D03*
X0027167Y0148040D03*
X0037167Y0190560D03*
X0037167Y0198040D03*
X0072167Y0198040D03*
X0072167Y0190560D03*
D21*
X0053407Y0164300D03*
X0045927Y0164300D03*
X0035907Y0164300D03*
X0028427Y0164300D03*
X0040927Y0139300D03*
X0048407Y0139300D03*
D22*
X0018210Y0139300D02*
X0011123Y0139300D01*
X0011123Y0149300D02*
X0018210Y0149300D01*
X0018210Y0164300D02*
X0011123Y0164300D01*
X0011123Y0174300D02*
X0018210Y0174300D01*
X0014667Y0193257D02*
X0014667Y0200343D01*
X0024667Y0200343D02*
X0024667Y0193257D01*
X0049667Y0193257D02*
X0049667Y0200343D01*
X0059667Y0200343D02*
X0059667Y0193257D01*
X0018210Y0119300D02*
X0011123Y0119300D01*
X0011123Y0109300D02*
X0018210Y0109300D01*
X0018210Y0094300D02*
X0011123Y0094300D01*
X0011123Y0084300D02*
X0018210Y0084300D01*
D23*
X0052167Y0082213D03*
X0052167Y0071387D03*
D24*
X0064480Y0075550D03*
X0072354Y0075550D03*
X0047354Y0049300D03*
X0039480Y0049300D03*
D25*
X0043417Y0021050D02*
X0043417Y0015050D01*
X0053417Y0015050D02*
X0053417Y0021050D01*
X0063417Y0021050D02*
X0063417Y0015050D01*
X0030917Y0015050D02*
X0030917Y0021050D01*
X0020917Y0021050D02*
X0020917Y0015050D01*
X0010917Y0015050D02*
X0010917Y0021050D01*
D26*
X0168417Y0090550D03*
X0174667Y0075550D03*
X0168417Y0123050D03*
X0174667Y0136800D03*
X0234667Y0151800D03*
X0247167Y0196800D03*
X0312167Y0138050D03*
X0312167Y0075550D03*
D27*
X0313417Y0075166D01*
X0318417Y0075166D01*
X0318417Y0083434D02*
X0318417Y0094300D01*
X0318414Y0094542D01*
X0318405Y0094783D01*
X0318391Y0095024D01*
X0318370Y0095265D01*
X0318344Y0095505D01*
X0318312Y0095745D01*
X0318274Y0095984D01*
X0318231Y0096221D01*
X0318181Y0096458D01*
X0318126Y0096693D01*
X0318066Y0096927D01*
X0317999Y0097159D01*
X0317928Y0097390D01*
X0317850Y0097619D01*
X0317767Y0097846D01*
X0317679Y0098071D01*
X0317585Y0098294D01*
X0317486Y0098514D01*
X0317381Y0098732D01*
X0317272Y0098947D01*
X0317157Y0099160D01*
X0317037Y0099370D01*
X0316912Y0099576D01*
X0316782Y0099780D01*
X0316647Y0099981D01*
X0316507Y0100178D01*
X0316363Y0100372D01*
X0316214Y0100562D01*
X0316060Y0100748D01*
X0315902Y0100931D01*
X0315740Y0101110D01*
X0315573Y0101285D01*
X0315402Y0101456D01*
X0315227Y0101623D01*
X0315048Y0101785D01*
X0314865Y0101943D01*
X0314679Y0102097D01*
X0314489Y0102246D01*
X0314295Y0102390D01*
X0314098Y0102530D01*
X0313897Y0102665D01*
X0313693Y0102795D01*
X0313487Y0102920D01*
X0313277Y0103040D01*
X0313064Y0103155D01*
X0312849Y0103264D01*
X0312631Y0103369D01*
X0312411Y0103468D01*
X0312188Y0103562D01*
X0311963Y0103650D01*
X0311736Y0103733D01*
X0311507Y0103811D01*
X0311276Y0103882D01*
X0311044Y0103949D01*
X0310810Y0104009D01*
X0310575Y0104064D01*
X0310338Y0104114D01*
X0310101Y0104157D01*
X0309862Y0104195D01*
X0309622Y0104227D01*
X0309382Y0104253D01*
X0309141Y0104274D01*
X0308900Y0104288D01*
X0308659Y0104297D01*
X0308417Y0104300D01*
X0307167Y0104300D01*
X0262167Y0104300D01*
X0262027Y0104302D01*
X0261887Y0104308D01*
X0261747Y0104318D01*
X0261607Y0104331D01*
X0261468Y0104349D01*
X0261329Y0104371D01*
X0261192Y0104396D01*
X0261054Y0104425D01*
X0260918Y0104458D01*
X0260783Y0104495D01*
X0260649Y0104536D01*
X0260516Y0104581D01*
X0260384Y0104629D01*
X0260254Y0104681D01*
X0260125Y0104736D01*
X0259998Y0104795D01*
X0259872Y0104858D01*
X0259748Y0104924D01*
X0259627Y0104993D01*
X0259507Y0105066D01*
X0259389Y0105143D01*
X0259274Y0105222D01*
X0259160Y0105305D01*
X0259050Y0105391D01*
X0258941Y0105480D01*
X0258835Y0105572D01*
X0258732Y0105667D01*
X0258631Y0105764D01*
X0258534Y0105865D01*
X0258439Y0105968D01*
X0258347Y0106074D01*
X0258258Y0106183D01*
X0258172Y0106293D01*
X0258089Y0106407D01*
X0258010Y0106522D01*
X0257933Y0106640D01*
X0257860Y0106760D01*
X0257791Y0106881D01*
X0257725Y0107005D01*
X0257662Y0107131D01*
X0257603Y0107258D01*
X0257548Y0107387D01*
X0257496Y0107517D01*
X0257448Y0107649D01*
X0257403Y0107782D01*
X0257362Y0107916D01*
X0257325Y0108051D01*
X0257292Y0108187D01*
X0257263Y0108325D01*
X0257238Y0108462D01*
X0257216Y0108601D01*
X0257198Y0108740D01*
X0257185Y0108880D01*
X0257175Y0109020D01*
X0257169Y0109160D01*
X0257167Y0109300D01*
X0257167Y0171800D01*
X0257167Y0191800D01*
X0257165Y0191940D01*
X0257159Y0192080D01*
X0257149Y0192220D01*
X0257136Y0192360D01*
X0257118Y0192499D01*
X0257096Y0192638D01*
X0257071Y0192775D01*
X0257042Y0192913D01*
X0257009Y0193049D01*
X0256972Y0193184D01*
X0256931Y0193318D01*
X0256886Y0193451D01*
X0256838Y0193583D01*
X0256786Y0193713D01*
X0256731Y0193842D01*
X0256672Y0193969D01*
X0256609Y0194095D01*
X0256543Y0194219D01*
X0256474Y0194340D01*
X0256401Y0194460D01*
X0256324Y0194578D01*
X0256245Y0194693D01*
X0256162Y0194807D01*
X0256076Y0194917D01*
X0255987Y0195026D01*
X0255895Y0195132D01*
X0255800Y0195235D01*
X0255703Y0195336D01*
X0255602Y0195433D01*
X0255499Y0195528D01*
X0255393Y0195620D01*
X0255284Y0195709D01*
X0255174Y0195795D01*
X0255060Y0195878D01*
X0254945Y0195957D01*
X0254827Y0196034D01*
X0254707Y0196107D01*
X0254586Y0196176D01*
X0254462Y0196242D01*
X0254336Y0196305D01*
X0254209Y0196364D01*
X0254080Y0196419D01*
X0253950Y0196471D01*
X0253818Y0196519D01*
X0253685Y0196564D01*
X0253551Y0196605D01*
X0253416Y0196642D01*
X0253280Y0196675D01*
X0253142Y0196704D01*
X0253005Y0196729D01*
X0252866Y0196751D01*
X0252727Y0196769D01*
X0252587Y0196782D01*
X0252447Y0196792D01*
X0252307Y0196798D01*
X0252167Y0196800D01*
X0247167Y0196800D01*
X0243417Y0196800D01*
X0243277Y0196798D01*
X0243137Y0196792D01*
X0242997Y0196782D01*
X0242857Y0196769D01*
X0242718Y0196751D01*
X0242579Y0196729D01*
X0242442Y0196704D01*
X0242304Y0196675D01*
X0242168Y0196642D01*
X0242033Y0196605D01*
X0241899Y0196564D01*
X0241766Y0196519D01*
X0241634Y0196471D01*
X0241504Y0196419D01*
X0241375Y0196364D01*
X0241248Y0196305D01*
X0241122Y0196242D01*
X0240998Y0196176D01*
X0240877Y0196107D01*
X0240757Y0196034D01*
X0240639Y0195957D01*
X0240524Y0195878D01*
X0240410Y0195795D01*
X0240300Y0195709D01*
X0240191Y0195620D01*
X0240085Y0195528D01*
X0239982Y0195433D01*
X0239881Y0195336D01*
X0239784Y0195235D01*
X0239689Y0195132D01*
X0239597Y0195026D01*
X0239508Y0194917D01*
X0239422Y0194807D01*
X0239339Y0194693D01*
X0239260Y0194578D01*
X0239183Y0194460D01*
X0239110Y0194340D01*
X0239041Y0194219D01*
X0238975Y0194095D01*
X0238912Y0193969D01*
X0238853Y0193842D01*
X0238798Y0193713D01*
X0238746Y0193583D01*
X0238698Y0193451D01*
X0238653Y0193318D01*
X0238612Y0193184D01*
X0238575Y0193049D01*
X0238542Y0192913D01*
X0238513Y0192775D01*
X0238488Y0192638D01*
X0238466Y0192499D01*
X0238448Y0192360D01*
X0238435Y0192220D01*
X0238425Y0192080D01*
X0238419Y0191940D01*
X0238417Y0191800D01*
X0238417Y0171800D01*
X0242167Y0171800D02*
X0242167Y0118050D01*
X0242165Y0117910D01*
X0242159Y0117770D01*
X0242149Y0117630D01*
X0242136Y0117490D01*
X0242118Y0117351D01*
X0242096Y0117212D01*
X0242071Y0117075D01*
X0242042Y0116937D01*
X0242009Y0116801D01*
X0241972Y0116666D01*
X0241931Y0116532D01*
X0241886Y0116399D01*
X0241838Y0116267D01*
X0241786Y0116137D01*
X0241731Y0116008D01*
X0241672Y0115881D01*
X0241609Y0115755D01*
X0241543Y0115631D01*
X0241474Y0115510D01*
X0241401Y0115390D01*
X0241324Y0115272D01*
X0241245Y0115157D01*
X0241162Y0115043D01*
X0241076Y0114933D01*
X0240987Y0114824D01*
X0240895Y0114718D01*
X0240800Y0114615D01*
X0240703Y0114514D01*
X0240602Y0114417D01*
X0240499Y0114322D01*
X0240393Y0114230D01*
X0240284Y0114141D01*
X0240174Y0114055D01*
X0240060Y0113972D01*
X0239945Y0113893D01*
X0239827Y0113816D01*
X0239707Y0113743D01*
X0239586Y0113674D01*
X0239462Y0113608D01*
X0239336Y0113545D01*
X0239209Y0113486D01*
X0239080Y0113431D01*
X0238950Y0113379D01*
X0238818Y0113331D01*
X0238685Y0113286D01*
X0238551Y0113245D01*
X0238416Y0113208D01*
X0238280Y0113175D01*
X0238142Y0113146D01*
X0238005Y0113121D01*
X0237866Y0113099D01*
X0237727Y0113081D01*
X0237587Y0113068D01*
X0237447Y0113058D01*
X0237307Y0113052D01*
X0237167Y0113050D01*
X0134667Y0113050D01*
X0134667Y0108050D02*
X0240917Y0108050D01*
X0244667Y0104300D02*
X0244807Y0104302D01*
X0244947Y0104308D01*
X0245087Y0104318D01*
X0245227Y0104331D01*
X0245366Y0104349D01*
X0245505Y0104371D01*
X0245642Y0104396D01*
X0245780Y0104425D01*
X0245916Y0104458D01*
X0246051Y0104495D01*
X0246185Y0104536D01*
X0246318Y0104581D01*
X0246450Y0104629D01*
X0246580Y0104681D01*
X0246709Y0104736D01*
X0246836Y0104795D01*
X0246962Y0104858D01*
X0247086Y0104924D01*
X0247207Y0104993D01*
X0247327Y0105066D01*
X0247445Y0105143D01*
X0247560Y0105222D01*
X0247674Y0105305D01*
X0247784Y0105391D01*
X0247893Y0105480D01*
X0247999Y0105572D01*
X0248102Y0105667D01*
X0248203Y0105764D01*
X0248300Y0105865D01*
X0248395Y0105968D01*
X0248487Y0106074D01*
X0248576Y0106183D01*
X0248662Y0106293D01*
X0248745Y0106407D01*
X0248824Y0106522D01*
X0248901Y0106640D01*
X0248974Y0106760D01*
X0249043Y0106881D01*
X0249109Y0107005D01*
X0249172Y0107131D01*
X0249231Y0107258D01*
X0249286Y0107387D01*
X0249338Y0107517D01*
X0249386Y0107649D01*
X0249431Y0107782D01*
X0249472Y0107916D01*
X0249509Y0108051D01*
X0249542Y0108187D01*
X0249571Y0108325D01*
X0249596Y0108462D01*
X0249618Y0108601D01*
X0249636Y0108740D01*
X0249649Y0108880D01*
X0249659Y0109020D01*
X0249665Y0109160D01*
X0249667Y0109300D01*
X0249667Y0171800D01*
X0253417Y0171800D02*
X0253417Y0071800D01*
X0253415Y0071660D01*
X0253409Y0071520D01*
X0253399Y0071380D01*
X0253386Y0071240D01*
X0253368Y0071101D01*
X0253346Y0070962D01*
X0253321Y0070825D01*
X0253292Y0070687D01*
X0253259Y0070551D01*
X0253222Y0070416D01*
X0253181Y0070282D01*
X0253136Y0070149D01*
X0253088Y0070017D01*
X0253036Y0069887D01*
X0252981Y0069758D01*
X0252922Y0069631D01*
X0252859Y0069505D01*
X0252793Y0069381D01*
X0252724Y0069260D01*
X0252651Y0069140D01*
X0252574Y0069022D01*
X0252495Y0068907D01*
X0252412Y0068793D01*
X0252326Y0068683D01*
X0252237Y0068574D01*
X0252145Y0068468D01*
X0252050Y0068365D01*
X0251953Y0068264D01*
X0251852Y0068167D01*
X0251749Y0068072D01*
X0251643Y0067980D01*
X0251534Y0067891D01*
X0251424Y0067805D01*
X0251310Y0067722D01*
X0251195Y0067643D01*
X0251077Y0067566D01*
X0250957Y0067493D01*
X0250836Y0067424D01*
X0250712Y0067358D01*
X0250586Y0067295D01*
X0250459Y0067236D01*
X0250330Y0067181D01*
X0250200Y0067129D01*
X0250068Y0067081D01*
X0249935Y0067036D01*
X0249801Y0066995D01*
X0249666Y0066958D01*
X0249530Y0066925D01*
X0249392Y0066896D01*
X0249255Y0066871D01*
X0249116Y0066849D01*
X0248977Y0066831D01*
X0248837Y0066818D01*
X0248697Y0066808D01*
X0248557Y0066802D01*
X0248417Y0066800D01*
X0134667Y0066800D01*
X0134667Y0047410D02*
X0134667Y0036800D01*
X0134669Y0036660D01*
X0134675Y0036520D01*
X0134685Y0036380D01*
X0134698Y0036240D01*
X0134716Y0036101D01*
X0134738Y0035962D01*
X0134763Y0035825D01*
X0134792Y0035687D01*
X0134825Y0035551D01*
X0134862Y0035416D01*
X0134903Y0035282D01*
X0134948Y0035149D01*
X0134996Y0035017D01*
X0135048Y0034887D01*
X0135103Y0034758D01*
X0135162Y0034631D01*
X0135225Y0034505D01*
X0135291Y0034381D01*
X0135360Y0034260D01*
X0135433Y0034140D01*
X0135510Y0034022D01*
X0135589Y0033907D01*
X0135672Y0033793D01*
X0135758Y0033683D01*
X0135847Y0033574D01*
X0135939Y0033468D01*
X0136034Y0033365D01*
X0136131Y0033264D01*
X0136232Y0033167D01*
X0136335Y0033072D01*
X0136441Y0032980D01*
X0136550Y0032891D01*
X0136660Y0032805D01*
X0136774Y0032722D01*
X0136889Y0032643D01*
X0137007Y0032566D01*
X0137127Y0032493D01*
X0137248Y0032424D01*
X0137372Y0032358D01*
X0137498Y0032295D01*
X0137625Y0032236D01*
X0137754Y0032181D01*
X0137884Y0032129D01*
X0138016Y0032081D01*
X0138149Y0032036D01*
X0138283Y0031995D01*
X0138418Y0031958D01*
X0138554Y0031925D01*
X0138692Y0031896D01*
X0138829Y0031871D01*
X0138968Y0031849D01*
X0139107Y0031831D01*
X0139247Y0031818D01*
X0139387Y0031808D01*
X0139527Y0031802D01*
X0139667Y0031800D01*
X0147167Y0031800D01*
X0147167Y0029300D01*
X0161281Y0029674D02*
X0188052Y0029674D01*
X0206281Y0029674D01*
X0233052Y0029674D01*
X0251281Y0029674D01*
X0251281Y0029300D01*
X0249667Y0029300D01*
X0249667Y0029674D01*
X0251281Y0029674D01*
X0278052Y0029674D01*
X0296281Y0029674D01*
X0323052Y0029674D01*
X0323052Y0013926D02*
X0299667Y0013926D01*
X0296281Y0013926D01*
X0294667Y0008926D02*
X0294667Y0006800D01*
X0294665Y0006702D01*
X0294659Y0006604D01*
X0294650Y0006506D01*
X0294636Y0006409D01*
X0294619Y0006312D01*
X0294598Y0006216D01*
X0294573Y0006121D01*
X0294545Y0006027D01*
X0294512Y0005935D01*
X0294477Y0005843D01*
X0294437Y0005753D01*
X0294395Y0005665D01*
X0294348Y0005578D01*
X0294299Y0005494D01*
X0294246Y0005411D01*
X0294190Y0005331D01*
X0294130Y0005252D01*
X0294068Y0005176D01*
X0294003Y0005103D01*
X0293935Y0005032D01*
X0293864Y0004964D01*
X0293791Y0004899D01*
X0293715Y0004837D01*
X0293636Y0004777D01*
X0293556Y0004721D01*
X0293473Y0004668D01*
X0293389Y0004619D01*
X0293302Y0004572D01*
X0293214Y0004530D01*
X0293124Y0004490D01*
X0293032Y0004455D01*
X0292940Y0004422D01*
X0292846Y0004394D01*
X0292751Y0004369D01*
X0292655Y0004348D01*
X0292558Y0004331D01*
X0292461Y0004317D01*
X0292363Y0004308D01*
X0292265Y0004302D01*
X0292167Y0004300D01*
X0129667Y0004300D01*
X0129527Y0004302D01*
X0129387Y0004308D01*
X0129247Y0004318D01*
X0129107Y0004331D01*
X0128968Y0004349D01*
X0128829Y0004371D01*
X0128692Y0004396D01*
X0128554Y0004425D01*
X0128418Y0004458D01*
X0128283Y0004495D01*
X0128149Y0004536D01*
X0128016Y0004581D01*
X0127884Y0004629D01*
X0127754Y0004681D01*
X0127625Y0004736D01*
X0127498Y0004795D01*
X0127372Y0004858D01*
X0127248Y0004924D01*
X0127127Y0004993D01*
X0127007Y0005066D01*
X0126889Y0005143D01*
X0126774Y0005222D01*
X0126660Y0005305D01*
X0126550Y0005391D01*
X0126441Y0005480D01*
X0126335Y0005572D01*
X0126232Y0005667D01*
X0126131Y0005764D01*
X0126034Y0005865D01*
X0125939Y0005968D01*
X0125847Y0006074D01*
X0125758Y0006183D01*
X0125672Y0006293D01*
X0125589Y0006407D01*
X0125510Y0006522D01*
X0125433Y0006640D01*
X0125360Y0006760D01*
X0125291Y0006881D01*
X0125225Y0007005D01*
X0125162Y0007131D01*
X0125103Y0007258D01*
X0125048Y0007387D01*
X0124996Y0007517D01*
X0124948Y0007649D01*
X0124903Y0007782D01*
X0124862Y0007916D01*
X0124825Y0008051D01*
X0124792Y0008187D01*
X0124763Y0008325D01*
X0124738Y0008462D01*
X0124716Y0008601D01*
X0124698Y0008740D01*
X0124685Y0008880D01*
X0124675Y0009020D01*
X0124669Y0009160D01*
X0124667Y0009300D01*
X0124667Y0011190D01*
X0119667Y0011190D02*
X0119667Y0021800D01*
X0114667Y0021800D02*
X0114667Y0011190D01*
X0109667Y0011190D02*
X0109667Y0021800D01*
X0089667Y0019300D02*
X0089667Y0011190D01*
X0129667Y0011190D02*
X0129667Y0016800D01*
X0129669Y0016940D01*
X0129675Y0017080D01*
X0129685Y0017220D01*
X0129698Y0017360D01*
X0129716Y0017499D01*
X0129738Y0017638D01*
X0129763Y0017775D01*
X0129792Y0017913D01*
X0129825Y0018049D01*
X0129862Y0018184D01*
X0129903Y0018318D01*
X0129948Y0018451D01*
X0129996Y0018583D01*
X0130048Y0018713D01*
X0130103Y0018842D01*
X0130162Y0018969D01*
X0130225Y0019095D01*
X0130291Y0019219D01*
X0130360Y0019340D01*
X0130433Y0019460D01*
X0130510Y0019578D01*
X0130589Y0019693D01*
X0130672Y0019807D01*
X0130758Y0019917D01*
X0130847Y0020026D01*
X0130939Y0020132D01*
X0131034Y0020235D01*
X0131131Y0020336D01*
X0131232Y0020433D01*
X0131335Y0020528D01*
X0131441Y0020620D01*
X0131550Y0020709D01*
X0131660Y0020795D01*
X0131774Y0020878D01*
X0131889Y0020957D01*
X0132007Y0021034D01*
X0132127Y0021107D01*
X0132248Y0021176D01*
X0132372Y0021242D01*
X0132498Y0021305D01*
X0132625Y0021364D01*
X0132754Y0021419D01*
X0132884Y0021471D01*
X0133016Y0021519D01*
X0133149Y0021564D01*
X0133283Y0021605D01*
X0133418Y0021642D01*
X0133554Y0021675D01*
X0133692Y0021704D01*
X0133829Y0021729D01*
X0133968Y0021751D01*
X0134107Y0021769D01*
X0134247Y0021782D01*
X0134387Y0021792D01*
X0134527Y0021798D01*
X0134667Y0021800D01*
X0244667Y0021800D01*
X0244765Y0021798D01*
X0244863Y0021792D01*
X0244961Y0021783D01*
X0245058Y0021769D01*
X0245155Y0021752D01*
X0245251Y0021731D01*
X0245346Y0021706D01*
X0245440Y0021678D01*
X0245532Y0021645D01*
X0245624Y0021610D01*
X0245714Y0021570D01*
X0245802Y0021528D01*
X0245889Y0021481D01*
X0245973Y0021432D01*
X0246056Y0021379D01*
X0246136Y0021323D01*
X0246215Y0021263D01*
X0246291Y0021201D01*
X0246364Y0021136D01*
X0246435Y0021068D01*
X0246503Y0020997D01*
X0246568Y0020924D01*
X0246630Y0020848D01*
X0246690Y0020769D01*
X0246746Y0020689D01*
X0246799Y0020606D01*
X0246848Y0020522D01*
X0246895Y0020435D01*
X0246937Y0020347D01*
X0246977Y0020257D01*
X0247012Y0020165D01*
X0247045Y0020073D01*
X0247073Y0019979D01*
X0247098Y0019884D01*
X0247119Y0019788D01*
X0247136Y0019691D01*
X0247150Y0019594D01*
X0247159Y0019496D01*
X0247165Y0019398D01*
X0247167Y0019300D01*
X0247167Y0018040D01*
X0247169Y0017913D01*
X0247175Y0017787D01*
X0247185Y0017660D01*
X0247198Y0017534D01*
X0247216Y0017409D01*
X0247237Y0017284D01*
X0247262Y0017160D01*
X0247291Y0017037D01*
X0247324Y0016914D01*
X0247361Y0016793D01*
X0247401Y0016673D01*
X0247445Y0016554D01*
X0247492Y0016436D01*
X0247544Y0016321D01*
X0247598Y0016206D01*
X0247657Y0016094D01*
X0247718Y0015983D01*
X0247783Y0015874D01*
X0247852Y0015768D01*
X0247923Y0015663D01*
X0247998Y0015561D01*
X0248076Y0015461D01*
X0248157Y0015363D01*
X0248241Y0015268D01*
X0248328Y0015176D01*
X0248417Y0015087D01*
X0248509Y0015000D01*
X0248604Y0014916D01*
X0248702Y0014835D01*
X0248802Y0014757D01*
X0248904Y0014682D01*
X0249009Y0014611D01*
X0249115Y0014542D01*
X0249224Y0014477D01*
X0249335Y0014416D01*
X0249447Y0014357D01*
X0249562Y0014303D01*
X0249677Y0014251D01*
X0249795Y0014204D01*
X0249914Y0014160D01*
X0250034Y0014120D01*
X0250155Y0014083D01*
X0250278Y0014050D01*
X0250401Y0014021D01*
X0250525Y0013996D01*
X0250650Y0013975D01*
X0250775Y0013957D01*
X0250901Y0013944D01*
X0251028Y0013934D01*
X0251154Y0013928D01*
X0251281Y0013926D01*
X0278052Y0013926D01*
X0294667Y0008926D02*
X0294669Y0009066D01*
X0294675Y0009206D01*
X0294685Y0009346D01*
X0294698Y0009486D01*
X0294716Y0009625D01*
X0294738Y0009764D01*
X0294763Y0009901D01*
X0294792Y0010039D01*
X0294825Y0010175D01*
X0294862Y0010310D01*
X0294903Y0010444D01*
X0294948Y0010577D01*
X0294996Y0010709D01*
X0295048Y0010839D01*
X0295103Y0010968D01*
X0295162Y0011095D01*
X0295225Y0011221D01*
X0295291Y0011345D01*
X0295360Y0011466D01*
X0295433Y0011586D01*
X0295510Y0011704D01*
X0295589Y0011819D01*
X0295672Y0011933D01*
X0295758Y0012043D01*
X0295847Y0012152D01*
X0295939Y0012258D01*
X0296034Y0012361D01*
X0296131Y0012462D01*
X0296232Y0012559D01*
X0296335Y0012654D01*
X0296441Y0012746D01*
X0296550Y0012835D01*
X0296660Y0012921D01*
X0296774Y0013004D01*
X0296889Y0013083D01*
X0297007Y0013160D01*
X0297127Y0013233D01*
X0297248Y0013302D01*
X0297372Y0013368D01*
X0297498Y0013431D01*
X0297625Y0013490D01*
X0297754Y0013545D01*
X0297884Y0013597D01*
X0298016Y0013645D01*
X0298149Y0013690D01*
X0298283Y0013731D01*
X0298418Y0013768D01*
X0298554Y0013801D01*
X0298692Y0013830D01*
X0298829Y0013855D01*
X0298968Y0013877D01*
X0299107Y0013895D01*
X0299247Y0013908D01*
X0299387Y0013918D01*
X0299527Y0013924D01*
X0299667Y0013926D01*
X0251281Y0013926D02*
X0249667Y0013926D01*
X0234667Y0013926D02*
X0234667Y0014300D01*
X0233052Y0014300D01*
X0233052Y0013926D01*
X0234667Y0013926D01*
X0233052Y0013926D02*
X0206281Y0013926D01*
X0206279Y0013791D01*
X0206273Y0013657D01*
X0206263Y0013523D01*
X0206250Y0013389D01*
X0206232Y0013256D01*
X0206211Y0013123D01*
X0206185Y0012991D01*
X0206156Y0012859D01*
X0206123Y0012729D01*
X0206087Y0012599D01*
X0206046Y0012471D01*
X0206002Y0012344D01*
X0205954Y0012218D01*
X0205903Y0012094D01*
X0205848Y0011971D01*
X0205789Y0011850D01*
X0205727Y0011730D01*
X0205661Y0011613D01*
X0205592Y0011497D01*
X0205520Y0011384D01*
X0205444Y0011273D01*
X0205366Y0011164D01*
X0205284Y0011057D01*
X0205199Y0010952D01*
X0205111Y0010851D01*
X0205020Y0010751D01*
X0204926Y0010655D01*
X0204830Y0010561D01*
X0204730Y0010470D01*
X0204629Y0010382D01*
X0204524Y0010297D01*
X0204417Y0010215D01*
X0204308Y0010137D01*
X0204197Y0010061D01*
X0204084Y0009989D01*
X0203968Y0009920D01*
X0203851Y0009854D01*
X0203731Y0009792D01*
X0203610Y0009733D01*
X0203487Y0009678D01*
X0203363Y0009627D01*
X0203237Y0009579D01*
X0203110Y0009535D01*
X0202982Y0009494D01*
X0202852Y0009458D01*
X0202722Y0009425D01*
X0202590Y0009396D01*
X0202458Y0009370D01*
X0202325Y0009349D01*
X0202192Y0009331D01*
X0202058Y0009318D01*
X0201924Y0009308D01*
X0201790Y0009302D01*
X0201655Y0009300D01*
X0134667Y0009300D01*
X0134667Y0011190D01*
X0147167Y0014300D02*
X0161281Y0014300D01*
X0161281Y0013926D01*
X0188052Y0013926D01*
X0147167Y0014300D02*
X0147167Y0016800D01*
X0109667Y0039300D02*
X0109667Y0047410D01*
X0089667Y0047410D02*
X0089667Y0040550D01*
X0074667Y0075550D02*
X0072354Y0075550D01*
X0067167Y0075550D02*
X0065917Y0075550D01*
X0067167Y0075550D02*
X0067167Y0161800D01*
X0067167Y0179300D01*
X0067167Y0189300D01*
X0072167Y0189300D01*
X0072167Y0190560D02*
X0068427Y0190560D01*
X0068359Y0190558D01*
X0068291Y0190553D01*
X0068223Y0190543D01*
X0068156Y0190531D01*
X0068090Y0190514D01*
X0068025Y0190494D01*
X0067961Y0190471D01*
X0067898Y0190444D01*
X0067837Y0190413D01*
X0067777Y0190380D01*
X0067720Y0190343D01*
X0067664Y0190303D01*
X0067611Y0190260D01*
X0067560Y0190215D01*
X0067512Y0190167D01*
X0067467Y0190116D01*
X0067424Y0190063D01*
X0067384Y0190007D01*
X0067347Y0189950D01*
X0067314Y0189890D01*
X0067283Y0189829D01*
X0067256Y0189766D01*
X0067233Y0189702D01*
X0067213Y0189637D01*
X0067196Y0189571D01*
X0067184Y0189504D01*
X0067174Y0189436D01*
X0067169Y0189368D01*
X0067167Y0189300D01*
X0059667Y0186800D02*
X0045917Y0186800D01*
X0045819Y0186802D01*
X0045721Y0186808D01*
X0045623Y0186817D01*
X0045526Y0186831D01*
X0045429Y0186848D01*
X0045333Y0186869D01*
X0045238Y0186894D01*
X0045144Y0186922D01*
X0045052Y0186955D01*
X0044960Y0186990D01*
X0044870Y0187030D01*
X0044782Y0187072D01*
X0044695Y0187119D01*
X0044611Y0187168D01*
X0044528Y0187221D01*
X0044448Y0187277D01*
X0044369Y0187337D01*
X0044293Y0187399D01*
X0044220Y0187464D01*
X0044149Y0187532D01*
X0044081Y0187603D01*
X0044016Y0187676D01*
X0043954Y0187752D01*
X0043894Y0187831D01*
X0043838Y0187911D01*
X0043785Y0187994D01*
X0043736Y0188078D01*
X0043689Y0188165D01*
X0043647Y0188253D01*
X0043607Y0188343D01*
X0043572Y0188435D01*
X0043539Y0188527D01*
X0043511Y0188621D01*
X0043486Y0188716D01*
X0043465Y0188812D01*
X0043448Y0188909D01*
X0043434Y0189006D01*
X0043425Y0189104D01*
X0043419Y0189202D01*
X0043417Y0189300D01*
X0043415Y0189368D01*
X0043410Y0189436D01*
X0043400Y0189504D01*
X0043388Y0189571D01*
X0043371Y0189637D01*
X0043351Y0189702D01*
X0043328Y0189766D01*
X0043301Y0189829D01*
X0043270Y0189890D01*
X0043237Y0189950D01*
X0043200Y0190007D01*
X0043160Y0190063D01*
X0043117Y0190116D01*
X0043072Y0190167D01*
X0043024Y0190215D01*
X0042973Y0190260D01*
X0042920Y0190303D01*
X0042864Y0190343D01*
X0042807Y0190380D01*
X0042747Y0190413D01*
X0042686Y0190444D01*
X0042623Y0190471D01*
X0042559Y0190494D01*
X0042494Y0190514D01*
X0042428Y0190531D01*
X0042361Y0190543D01*
X0042293Y0190553D01*
X0042225Y0190558D01*
X0042157Y0190560D01*
X0037167Y0190560D01*
X0037167Y0196800D02*
X0024667Y0196800D01*
X0014667Y0196800D02*
X0014667Y0186800D01*
X0014669Y0186660D01*
X0014675Y0186520D01*
X0014685Y0186380D01*
X0014698Y0186240D01*
X0014716Y0186101D01*
X0014738Y0185962D01*
X0014763Y0185825D01*
X0014792Y0185687D01*
X0014825Y0185551D01*
X0014862Y0185416D01*
X0014903Y0185282D01*
X0014948Y0185149D01*
X0014996Y0185017D01*
X0015048Y0184887D01*
X0015103Y0184758D01*
X0015162Y0184631D01*
X0015225Y0184505D01*
X0015291Y0184381D01*
X0015360Y0184260D01*
X0015433Y0184140D01*
X0015510Y0184022D01*
X0015589Y0183907D01*
X0015672Y0183793D01*
X0015758Y0183683D01*
X0015847Y0183574D01*
X0015939Y0183468D01*
X0016034Y0183365D01*
X0016131Y0183264D01*
X0016232Y0183167D01*
X0016335Y0183072D01*
X0016441Y0182980D01*
X0016550Y0182891D01*
X0016660Y0182805D01*
X0016774Y0182722D01*
X0016889Y0182643D01*
X0017007Y0182566D01*
X0017127Y0182493D01*
X0017248Y0182424D01*
X0017372Y0182358D01*
X0017498Y0182295D01*
X0017625Y0182236D01*
X0017754Y0182181D01*
X0017884Y0182129D01*
X0018016Y0182081D01*
X0018149Y0182036D01*
X0018283Y0181995D01*
X0018418Y0181958D01*
X0018554Y0181925D01*
X0018692Y0181896D01*
X0018829Y0181871D01*
X0018968Y0181849D01*
X0019107Y0181831D01*
X0019247Y0181818D01*
X0019387Y0181808D01*
X0019527Y0181802D01*
X0019667Y0181800D01*
X0019807Y0181798D01*
X0019947Y0181792D01*
X0020087Y0181782D01*
X0020227Y0181769D01*
X0020366Y0181751D01*
X0020505Y0181729D01*
X0020642Y0181704D01*
X0020780Y0181675D01*
X0020916Y0181642D01*
X0021051Y0181605D01*
X0021185Y0181564D01*
X0021318Y0181519D01*
X0021450Y0181471D01*
X0021580Y0181419D01*
X0021709Y0181364D01*
X0021836Y0181305D01*
X0021962Y0181242D01*
X0022086Y0181176D01*
X0022207Y0181107D01*
X0022327Y0181034D01*
X0022445Y0180957D01*
X0022560Y0180878D01*
X0022674Y0180795D01*
X0022784Y0180709D01*
X0022893Y0180620D01*
X0022999Y0180528D01*
X0023102Y0180433D01*
X0023203Y0180336D01*
X0023300Y0180235D01*
X0023395Y0180132D01*
X0023487Y0180026D01*
X0023576Y0179917D01*
X0023662Y0179807D01*
X0023745Y0179693D01*
X0023824Y0179578D01*
X0023901Y0179460D01*
X0023974Y0179340D01*
X0024043Y0179219D01*
X0024109Y0179095D01*
X0024172Y0178969D01*
X0024231Y0178842D01*
X0024286Y0178713D01*
X0024338Y0178583D01*
X0024386Y0178451D01*
X0024431Y0178318D01*
X0024472Y0178184D01*
X0024509Y0178049D01*
X0024542Y0177913D01*
X0024571Y0177775D01*
X0024596Y0177638D01*
X0024618Y0177499D01*
X0024636Y0177360D01*
X0024649Y0177220D01*
X0024659Y0177080D01*
X0024665Y0176940D01*
X0024667Y0176800D01*
X0024667Y0174300D01*
X0024669Y0174160D01*
X0024675Y0174020D01*
X0024685Y0173880D01*
X0024698Y0173740D01*
X0024716Y0173601D01*
X0024738Y0173462D01*
X0024763Y0173325D01*
X0024792Y0173187D01*
X0024825Y0173051D01*
X0024862Y0172916D01*
X0024903Y0172782D01*
X0024948Y0172649D01*
X0024996Y0172517D01*
X0025048Y0172387D01*
X0025103Y0172258D01*
X0025162Y0172131D01*
X0025225Y0172005D01*
X0025291Y0171881D01*
X0025360Y0171760D01*
X0025433Y0171640D01*
X0025510Y0171522D01*
X0025589Y0171407D01*
X0025672Y0171293D01*
X0025758Y0171183D01*
X0025847Y0171074D01*
X0025939Y0170968D01*
X0026034Y0170865D01*
X0026131Y0170764D01*
X0026232Y0170667D01*
X0026335Y0170572D01*
X0026441Y0170480D01*
X0026550Y0170391D01*
X0026660Y0170305D01*
X0026774Y0170222D01*
X0026889Y0170143D01*
X0027007Y0170066D01*
X0027127Y0169993D01*
X0027248Y0169924D01*
X0027372Y0169858D01*
X0027498Y0169795D01*
X0027625Y0169736D01*
X0027754Y0169681D01*
X0027884Y0169629D01*
X0028016Y0169581D01*
X0028149Y0169536D01*
X0028283Y0169495D01*
X0028418Y0169458D01*
X0028554Y0169425D01*
X0028692Y0169396D01*
X0028829Y0169371D01*
X0028968Y0169349D01*
X0029107Y0169331D01*
X0029247Y0169318D01*
X0029387Y0169308D01*
X0029527Y0169302D01*
X0029667Y0169300D01*
X0053407Y0169300D01*
X0053407Y0164300D01*
X0054667Y0164300D01*
X0054667Y0144300D01*
X0054665Y0144160D01*
X0054659Y0144020D01*
X0054649Y0143880D01*
X0054636Y0143740D01*
X0054618Y0143601D01*
X0054596Y0143462D01*
X0054571Y0143325D01*
X0054542Y0143187D01*
X0054509Y0143051D01*
X0054472Y0142916D01*
X0054431Y0142782D01*
X0054386Y0142649D01*
X0054338Y0142517D01*
X0054286Y0142387D01*
X0054231Y0142258D01*
X0054172Y0142131D01*
X0054109Y0142005D01*
X0054043Y0141881D01*
X0053974Y0141760D01*
X0053901Y0141640D01*
X0053824Y0141522D01*
X0053745Y0141407D01*
X0053662Y0141293D01*
X0053576Y0141183D01*
X0053487Y0141074D01*
X0053395Y0140968D01*
X0053300Y0140865D01*
X0053203Y0140764D01*
X0053102Y0140667D01*
X0052999Y0140572D01*
X0052893Y0140480D01*
X0052784Y0140391D01*
X0052674Y0140305D01*
X0052560Y0140222D01*
X0052445Y0140143D01*
X0052327Y0140066D01*
X0052207Y0139993D01*
X0052086Y0139924D01*
X0051962Y0139858D01*
X0051836Y0139795D01*
X0051709Y0139736D01*
X0051580Y0139681D01*
X0051450Y0139629D01*
X0051318Y0139581D01*
X0051185Y0139536D01*
X0051051Y0139495D01*
X0050916Y0139458D01*
X0050780Y0139425D01*
X0050642Y0139396D01*
X0050505Y0139371D01*
X0050366Y0139349D01*
X0050227Y0139331D01*
X0050087Y0139318D01*
X0049947Y0139308D01*
X0049807Y0139302D01*
X0049667Y0139300D01*
X0048407Y0139300D01*
X0048407Y0135540D01*
X0048409Y0135400D01*
X0048415Y0135260D01*
X0048425Y0135120D01*
X0048438Y0134980D01*
X0048456Y0134841D01*
X0048478Y0134702D01*
X0048503Y0134565D01*
X0048532Y0134427D01*
X0048565Y0134291D01*
X0048602Y0134156D01*
X0048643Y0134022D01*
X0048688Y0133889D01*
X0048736Y0133757D01*
X0048788Y0133627D01*
X0048843Y0133498D01*
X0048902Y0133371D01*
X0048965Y0133245D01*
X0049031Y0133121D01*
X0049100Y0133000D01*
X0049173Y0132880D01*
X0049250Y0132762D01*
X0049329Y0132647D01*
X0049412Y0132533D01*
X0049498Y0132423D01*
X0049587Y0132314D01*
X0049679Y0132208D01*
X0049774Y0132105D01*
X0049871Y0132004D01*
X0049972Y0131907D01*
X0050075Y0131812D01*
X0050181Y0131720D01*
X0050290Y0131631D01*
X0050400Y0131545D01*
X0050514Y0131462D01*
X0050629Y0131383D01*
X0050747Y0131306D01*
X0050867Y0131233D01*
X0050988Y0131164D01*
X0051112Y0131098D01*
X0051238Y0131035D01*
X0051365Y0130976D01*
X0051494Y0130921D01*
X0051624Y0130869D01*
X0051756Y0130821D01*
X0051889Y0130776D01*
X0052023Y0130735D01*
X0052158Y0130698D01*
X0052294Y0130665D01*
X0052432Y0130636D01*
X0052569Y0130611D01*
X0052708Y0130589D01*
X0052847Y0130571D01*
X0052987Y0130558D01*
X0053127Y0130548D01*
X0053267Y0130542D01*
X0053407Y0130540D01*
X0059667Y0130540D01*
X0059667Y0123060D02*
X0059667Y0113040D01*
X0035927Y0130540D02*
X0027167Y0130540D01*
X0035927Y0130540D02*
X0036067Y0130542D01*
X0036207Y0130548D01*
X0036347Y0130558D01*
X0036487Y0130571D01*
X0036626Y0130589D01*
X0036765Y0130611D01*
X0036902Y0130636D01*
X0037040Y0130665D01*
X0037176Y0130698D01*
X0037311Y0130735D01*
X0037445Y0130776D01*
X0037578Y0130821D01*
X0037710Y0130869D01*
X0037840Y0130921D01*
X0037969Y0130976D01*
X0038096Y0131035D01*
X0038222Y0131098D01*
X0038346Y0131164D01*
X0038467Y0131233D01*
X0038587Y0131306D01*
X0038705Y0131383D01*
X0038820Y0131462D01*
X0038934Y0131545D01*
X0039044Y0131631D01*
X0039153Y0131720D01*
X0039259Y0131812D01*
X0039362Y0131907D01*
X0039463Y0132004D01*
X0039560Y0132105D01*
X0039655Y0132208D01*
X0039747Y0132314D01*
X0039836Y0132423D01*
X0039922Y0132533D01*
X0040005Y0132647D01*
X0040084Y0132762D01*
X0040161Y0132880D01*
X0040234Y0133000D01*
X0040303Y0133121D01*
X0040369Y0133245D01*
X0040432Y0133371D01*
X0040491Y0133498D01*
X0040546Y0133627D01*
X0040598Y0133757D01*
X0040646Y0133889D01*
X0040691Y0134022D01*
X0040732Y0134156D01*
X0040769Y0134291D01*
X0040802Y0134427D01*
X0040831Y0134565D01*
X0040856Y0134702D01*
X0040878Y0134841D01*
X0040896Y0134980D01*
X0040909Y0135120D01*
X0040919Y0135260D01*
X0040925Y0135400D01*
X0040927Y0135540D01*
X0040927Y0139300D01*
X0040927Y0140560D01*
X0027167Y0140560D01*
X0027167Y0140550D01*
X0014667Y0140550D01*
X0014667Y0139300D01*
X0027167Y0139300D02*
X0027167Y0140550D01*
X0027167Y0148040D02*
X0027167Y0149300D01*
X0014667Y0149300D01*
X0004667Y0149300D01*
X0004667Y0119300D01*
X0004667Y0099300D01*
X0004669Y0099160D01*
X0004675Y0099020D01*
X0004685Y0098880D01*
X0004698Y0098740D01*
X0004716Y0098601D01*
X0004738Y0098462D01*
X0004763Y0098325D01*
X0004792Y0098187D01*
X0004825Y0098051D01*
X0004862Y0097916D01*
X0004903Y0097782D01*
X0004948Y0097649D01*
X0004996Y0097517D01*
X0005048Y0097387D01*
X0005103Y0097258D01*
X0005162Y0097131D01*
X0005225Y0097005D01*
X0005291Y0096881D01*
X0005360Y0096760D01*
X0005433Y0096640D01*
X0005510Y0096522D01*
X0005589Y0096407D01*
X0005672Y0096293D01*
X0005758Y0096183D01*
X0005847Y0096074D01*
X0005939Y0095968D01*
X0006034Y0095865D01*
X0006131Y0095764D01*
X0006232Y0095667D01*
X0006335Y0095572D01*
X0006441Y0095480D01*
X0006550Y0095391D01*
X0006660Y0095305D01*
X0006774Y0095222D01*
X0006889Y0095143D01*
X0007007Y0095066D01*
X0007127Y0094993D01*
X0007248Y0094924D01*
X0007372Y0094858D01*
X0007498Y0094795D01*
X0007625Y0094736D01*
X0007754Y0094681D01*
X0007884Y0094629D01*
X0008016Y0094581D01*
X0008149Y0094536D01*
X0008283Y0094495D01*
X0008418Y0094458D01*
X0008554Y0094425D01*
X0008692Y0094396D01*
X0008829Y0094371D01*
X0008968Y0094349D01*
X0009107Y0094331D01*
X0009247Y0094318D01*
X0009387Y0094308D01*
X0009527Y0094302D01*
X0009667Y0094300D01*
X0014667Y0094300D01*
X0027167Y0113040D02*
X0027167Y0123060D01*
X0014667Y0119300D02*
X0004667Y0119300D01*
X0004667Y0149300D02*
X0004667Y0169300D01*
X0004669Y0169440D01*
X0004675Y0169580D01*
X0004685Y0169720D01*
X0004698Y0169860D01*
X0004716Y0169999D01*
X0004738Y0170138D01*
X0004763Y0170275D01*
X0004792Y0170413D01*
X0004825Y0170549D01*
X0004862Y0170684D01*
X0004903Y0170818D01*
X0004948Y0170951D01*
X0004996Y0171083D01*
X0005048Y0171213D01*
X0005103Y0171342D01*
X0005162Y0171469D01*
X0005225Y0171595D01*
X0005291Y0171719D01*
X0005360Y0171840D01*
X0005433Y0171960D01*
X0005510Y0172078D01*
X0005589Y0172193D01*
X0005672Y0172307D01*
X0005758Y0172417D01*
X0005847Y0172526D01*
X0005939Y0172632D01*
X0006034Y0172735D01*
X0006131Y0172836D01*
X0006232Y0172933D01*
X0006335Y0173028D01*
X0006441Y0173120D01*
X0006550Y0173209D01*
X0006660Y0173295D01*
X0006774Y0173378D01*
X0006889Y0173457D01*
X0007007Y0173534D01*
X0007127Y0173607D01*
X0007248Y0173676D01*
X0007372Y0173742D01*
X0007498Y0173805D01*
X0007625Y0173864D01*
X0007754Y0173919D01*
X0007884Y0173971D01*
X0008016Y0174019D01*
X0008149Y0174064D01*
X0008283Y0174105D01*
X0008418Y0174142D01*
X0008554Y0174175D01*
X0008692Y0174204D01*
X0008829Y0174229D01*
X0008968Y0174251D01*
X0009107Y0174269D01*
X0009247Y0174282D01*
X0009387Y0174292D01*
X0009527Y0174298D01*
X0009667Y0174300D01*
X0014667Y0174300D01*
X0014667Y0164300D02*
X0028427Y0164300D01*
X0035907Y0164300D02*
X0045927Y0164300D01*
X0053407Y0169300D02*
X0053417Y0169300D01*
X0067167Y0179300D02*
X0067165Y0179481D01*
X0067158Y0179662D01*
X0067147Y0179843D01*
X0067132Y0180024D01*
X0067112Y0180204D01*
X0067088Y0180384D01*
X0067060Y0180563D01*
X0067027Y0180741D01*
X0066990Y0180918D01*
X0066949Y0181095D01*
X0066904Y0181270D01*
X0066854Y0181445D01*
X0066800Y0181618D01*
X0066742Y0181789D01*
X0066680Y0181960D01*
X0066613Y0182128D01*
X0066543Y0182295D01*
X0066469Y0182461D01*
X0066390Y0182624D01*
X0066308Y0182785D01*
X0066222Y0182945D01*
X0066132Y0183102D01*
X0066038Y0183257D01*
X0065941Y0183410D01*
X0065839Y0183560D01*
X0065735Y0183708D01*
X0065626Y0183854D01*
X0065515Y0183996D01*
X0065399Y0184136D01*
X0065281Y0184273D01*
X0065159Y0184408D01*
X0065034Y0184539D01*
X0064906Y0184667D01*
X0064775Y0184792D01*
X0064640Y0184914D01*
X0064503Y0185032D01*
X0064363Y0185148D01*
X0064221Y0185259D01*
X0064075Y0185368D01*
X0063927Y0185472D01*
X0063777Y0185574D01*
X0063624Y0185671D01*
X0063469Y0185765D01*
X0063312Y0185855D01*
X0063152Y0185941D01*
X0062991Y0186023D01*
X0062828Y0186102D01*
X0062662Y0186176D01*
X0062495Y0186246D01*
X0062327Y0186313D01*
X0062156Y0186375D01*
X0061985Y0186433D01*
X0061812Y0186487D01*
X0061637Y0186537D01*
X0061462Y0186582D01*
X0061285Y0186623D01*
X0061108Y0186660D01*
X0060930Y0186693D01*
X0060751Y0186721D01*
X0060571Y0186745D01*
X0060391Y0186765D01*
X0060210Y0186780D01*
X0060029Y0186791D01*
X0059848Y0186798D01*
X0059667Y0186800D01*
X0059667Y0196800D02*
X0072167Y0196800D01*
X0072167Y0198040D01*
X0037167Y0198040D02*
X0037167Y0196800D01*
X0109667Y0119300D02*
X0109667Y0114300D01*
X0132167Y0096800D02*
X0132265Y0096802D01*
X0132363Y0096808D01*
X0132461Y0096817D01*
X0132558Y0096831D01*
X0132655Y0096848D01*
X0132751Y0096869D01*
X0132846Y0096894D01*
X0132940Y0096922D01*
X0133032Y0096955D01*
X0133124Y0096990D01*
X0133214Y0097030D01*
X0133302Y0097072D01*
X0133389Y0097119D01*
X0133473Y0097168D01*
X0133556Y0097221D01*
X0133636Y0097277D01*
X0133715Y0097337D01*
X0133791Y0097399D01*
X0133864Y0097464D01*
X0133935Y0097532D01*
X0134003Y0097603D01*
X0134068Y0097676D01*
X0134130Y0097752D01*
X0134190Y0097831D01*
X0134246Y0097911D01*
X0134299Y0097994D01*
X0134348Y0098078D01*
X0134395Y0098165D01*
X0134437Y0098253D01*
X0134477Y0098343D01*
X0134512Y0098435D01*
X0134545Y0098527D01*
X0134573Y0098621D01*
X0134598Y0098716D01*
X0134619Y0098812D01*
X0134636Y0098909D01*
X0134650Y0099006D01*
X0134659Y0099104D01*
X0134665Y0099202D01*
X0134667Y0099300D01*
X0132167Y0096800D02*
X0130917Y0096800D01*
X0134667Y0099300D02*
X0134669Y0099440D01*
X0134675Y0099580D01*
X0134685Y0099720D01*
X0134698Y0099860D01*
X0134716Y0099999D01*
X0134738Y0100138D01*
X0134763Y0100275D01*
X0134792Y0100413D01*
X0134825Y0100549D01*
X0134862Y0100684D01*
X0134903Y0100818D01*
X0134948Y0100951D01*
X0134996Y0101083D01*
X0135048Y0101213D01*
X0135103Y0101342D01*
X0135162Y0101469D01*
X0135225Y0101595D01*
X0135291Y0101719D01*
X0135360Y0101840D01*
X0135433Y0101960D01*
X0135510Y0102078D01*
X0135589Y0102193D01*
X0135672Y0102307D01*
X0135758Y0102417D01*
X0135847Y0102526D01*
X0135939Y0102632D01*
X0136034Y0102735D01*
X0136131Y0102836D01*
X0136232Y0102933D01*
X0136335Y0103028D01*
X0136441Y0103120D01*
X0136550Y0103209D01*
X0136660Y0103295D01*
X0136774Y0103378D01*
X0136889Y0103457D01*
X0137007Y0103534D01*
X0137127Y0103607D01*
X0137248Y0103676D01*
X0137372Y0103742D01*
X0137498Y0103805D01*
X0137625Y0103864D01*
X0137754Y0103919D01*
X0137884Y0103971D01*
X0138016Y0104019D01*
X0138149Y0104064D01*
X0138283Y0104105D01*
X0138418Y0104142D01*
X0138554Y0104175D01*
X0138692Y0104204D01*
X0138829Y0104229D01*
X0138968Y0104251D01*
X0139107Y0104269D01*
X0139247Y0104282D01*
X0139387Y0104292D01*
X0139527Y0104298D01*
X0139667Y0104300D01*
X0244667Y0104300D01*
X0245917Y0113050D02*
X0245917Y0171800D01*
X0234667Y0171800D02*
X0234667Y0188050D01*
X0233407Y0188050D01*
X0225927Y0188050D02*
X0225927Y0180550D01*
X0230917Y0180550D01*
X0230917Y0171800D01*
X0234667Y0171800D02*
X0234667Y0151800D01*
X0227167Y0171800D02*
X0227167Y0123050D01*
X0227165Y0122910D01*
X0227159Y0122770D01*
X0227149Y0122630D01*
X0227136Y0122490D01*
X0227118Y0122351D01*
X0227096Y0122212D01*
X0227071Y0122075D01*
X0227042Y0121937D01*
X0227009Y0121801D01*
X0226972Y0121666D01*
X0226931Y0121532D01*
X0226886Y0121399D01*
X0226838Y0121267D01*
X0226786Y0121137D01*
X0226731Y0121008D01*
X0226672Y0120881D01*
X0226609Y0120755D01*
X0226543Y0120631D01*
X0226474Y0120510D01*
X0226401Y0120390D01*
X0226324Y0120272D01*
X0226245Y0120157D01*
X0226162Y0120043D01*
X0226076Y0119933D01*
X0225987Y0119824D01*
X0225895Y0119718D01*
X0225800Y0119615D01*
X0225703Y0119514D01*
X0225602Y0119417D01*
X0225499Y0119322D01*
X0225393Y0119230D01*
X0225284Y0119141D01*
X0225174Y0119055D01*
X0225060Y0118972D01*
X0224945Y0118893D01*
X0224827Y0118816D01*
X0224707Y0118743D01*
X0224586Y0118674D01*
X0224462Y0118608D01*
X0224336Y0118545D01*
X0224209Y0118486D01*
X0224080Y0118431D01*
X0223950Y0118379D01*
X0223818Y0118331D01*
X0223685Y0118286D01*
X0223551Y0118245D01*
X0223416Y0118208D01*
X0223280Y0118175D01*
X0223142Y0118146D01*
X0223005Y0118121D01*
X0222866Y0118099D01*
X0222727Y0118081D01*
X0222587Y0118068D01*
X0222447Y0118058D01*
X0222307Y0118052D01*
X0222167Y0118050D01*
X0134667Y0118050D01*
X0168417Y0137184D02*
X0173417Y0137184D01*
X0174667Y0136800D01*
X0240917Y0108050D02*
X0241057Y0108052D01*
X0241197Y0108058D01*
X0241337Y0108068D01*
X0241477Y0108081D01*
X0241616Y0108099D01*
X0241755Y0108121D01*
X0241892Y0108146D01*
X0242030Y0108175D01*
X0242166Y0108208D01*
X0242301Y0108245D01*
X0242435Y0108286D01*
X0242568Y0108331D01*
X0242700Y0108379D01*
X0242830Y0108431D01*
X0242959Y0108486D01*
X0243086Y0108545D01*
X0243212Y0108608D01*
X0243336Y0108674D01*
X0243457Y0108743D01*
X0243577Y0108816D01*
X0243695Y0108893D01*
X0243810Y0108972D01*
X0243924Y0109055D01*
X0244034Y0109141D01*
X0244143Y0109230D01*
X0244249Y0109322D01*
X0244352Y0109417D01*
X0244453Y0109514D01*
X0244550Y0109615D01*
X0244645Y0109718D01*
X0244737Y0109824D01*
X0244826Y0109933D01*
X0244912Y0110043D01*
X0244995Y0110157D01*
X0245074Y0110272D01*
X0245151Y0110390D01*
X0245224Y0110510D01*
X0245293Y0110631D01*
X0245359Y0110755D01*
X0245422Y0110881D01*
X0245481Y0111008D01*
X0245536Y0111137D01*
X0245588Y0111267D01*
X0245636Y0111399D01*
X0245681Y0111532D01*
X0245722Y0111666D01*
X0245759Y0111801D01*
X0245792Y0111937D01*
X0245821Y0112075D01*
X0245846Y0112212D01*
X0245868Y0112351D01*
X0245886Y0112490D01*
X0245899Y0112630D01*
X0245909Y0112770D01*
X0245915Y0112910D01*
X0245917Y0113050D01*
X0307167Y0104300D02*
X0307439Y0104303D01*
X0307711Y0104313D01*
X0307982Y0104330D01*
X0308253Y0104353D01*
X0308523Y0104382D01*
X0308793Y0104418D01*
X0309061Y0104461D01*
X0309328Y0104510D01*
X0309595Y0104565D01*
X0309859Y0104627D01*
X0310122Y0104695D01*
X0310384Y0104770D01*
X0310643Y0104851D01*
X0310901Y0104938D01*
X0311156Y0105031D01*
X0311409Y0105131D01*
X0311660Y0105236D01*
X0311908Y0105348D01*
X0312153Y0105465D01*
X0312395Y0105589D01*
X0312634Y0105718D01*
X0312870Y0105853D01*
X0313103Y0105993D01*
X0313332Y0106140D01*
X0313558Y0106291D01*
X0313780Y0106449D01*
X0313998Y0106611D01*
X0314212Y0106779D01*
X0314421Y0106951D01*
X0314627Y0107129D01*
X0314828Y0107312D01*
X0315025Y0107500D01*
X0315217Y0107692D01*
X0315405Y0107889D01*
X0315588Y0108090D01*
X0315766Y0108296D01*
X0315938Y0108505D01*
X0316106Y0108719D01*
X0316268Y0108937D01*
X0316426Y0109159D01*
X0316577Y0109385D01*
X0316724Y0109614D01*
X0316864Y0109847D01*
X0316999Y0110083D01*
X0317128Y0110322D01*
X0317252Y0110564D01*
X0317369Y0110809D01*
X0317481Y0111057D01*
X0317586Y0111308D01*
X0317686Y0111561D01*
X0317779Y0111816D01*
X0317866Y0112074D01*
X0317947Y0112333D01*
X0318022Y0112595D01*
X0318090Y0112858D01*
X0318152Y0113122D01*
X0318207Y0113389D01*
X0318256Y0113656D01*
X0318299Y0113924D01*
X0318335Y0114194D01*
X0318364Y0114464D01*
X0318387Y0114735D01*
X0318404Y0115006D01*
X0318414Y0115278D01*
X0318417Y0115550D01*
X0318417Y0128916D01*
X0318417Y0137184D02*
X0318417Y0138050D01*
X0312167Y0138050D01*
X0174667Y0075550D02*
X0174667Y0075166D01*
X0168417Y0075166D01*
D28*
X0002167Y0036800D02*
X0002167Y0004200D01*
X0083170Y0004200D01*
X0082715Y0004655D01*
X0082715Y0004655D01*
X0081467Y0007669D01*
X0081467Y0021800D01*
X0081432Y0022151D01*
X0081163Y0022800D01*
X0080667Y0023297D01*
X0080018Y0023565D01*
X0079667Y0023600D01*
X0068205Y0023600D01*
X0068817Y0022124D01*
X0068817Y0013976D01*
X0067995Y0011991D01*
X0066476Y0010472D01*
X0064491Y0009650D01*
X0062343Y0009650D01*
X0060358Y0010472D01*
X0058839Y0011991D01*
X0058417Y0013010D01*
X0057995Y0011991D01*
X0056476Y0010472D01*
X0054491Y0009650D01*
X0052343Y0009650D01*
X0050358Y0010472D01*
X0048839Y0011991D01*
X0048417Y0013010D01*
X0047995Y0011991D01*
X0046476Y0010472D01*
X0044491Y0009650D01*
X0042343Y0009650D01*
X0040358Y0010472D01*
X0038839Y0011991D01*
X0038017Y0013976D01*
X0038017Y0022124D01*
X0038839Y0024109D01*
X0040358Y0025628D01*
X0042343Y0026450D01*
X0044491Y0026450D01*
X0046476Y0025628D01*
X0047995Y0024109D01*
X0048417Y0023090D01*
X0048839Y0024109D01*
X0050358Y0025628D01*
X0052343Y0026450D01*
X0054491Y0026450D01*
X0056476Y0025628D01*
X0057995Y0024109D01*
X0058417Y0023090D01*
X0058839Y0024109D01*
X0058976Y0024246D01*
X0057522Y0024848D01*
X0057522Y0024848D01*
X0055215Y0027155D01*
X0055215Y0027155D01*
X0053967Y0030169D01*
X0053967Y0036800D01*
X0037816Y0036800D01*
X0035418Y0035415D01*
X0035418Y0035415D01*
X0031628Y0034400D01*
X0022167Y0034400D01*
X0021501Y0034356D01*
X0020215Y0034012D01*
X0019062Y0033346D01*
X0018121Y0032405D01*
X0017455Y0031252D01*
X0017110Y0029966D01*
X0017067Y0029300D01*
X0017067Y0024837D01*
X0017858Y0025628D01*
X0019843Y0026450D01*
X0021991Y0026450D01*
X0023976Y0025628D01*
X0025495Y0024109D01*
X0026262Y0022257D01*
X0026468Y0022893D01*
X0026811Y0023566D01*
X0027255Y0024177D01*
X0027790Y0024711D01*
X0028401Y0025155D01*
X0029074Y0025498D01*
X0029793Y0025732D01*
X0030539Y0025850D01*
X0030717Y0025850D01*
X0030717Y0018250D01*
X0031117Y0018250D01*
X0035717Y0018250D01*
X0035717Y0021428D01*
X0035598Y0022174D01*
X0035365Y0022893D01*
X0035022Y0023566D01*
X0034578Y0024177D01*
X0034044Y0024711D01*
X0033432Y0025155D01*
X0032759Y0025498D01*
X0032041Y0025732D01*
X0031294Y0025850D01*
X0031117Y0025850D01*
X0031117Y0018250D01*
X0031117Y0017850D01*
X0035717Y0017850D01*
X0035717Y0014672D01*
X0035598Y0013926D01*
X0035365Y0013207D01*
X0035022Y0012534D01*
X0034578Y0011923D01*
X0034044Y0011389D01*
X0033432Y0010945D01*
X0032759Y0010602D01*
X0032041Y0010368D01*
X0031294Y0010250D01*
X0031117Y0010250D01*
X0031117Y0017850D01*
X0030717Y0017850D01*
X0030717Y0010250D01*
X0030539Y0010250D01*
X0029793Y0010368D01*
X0029074Y0010602D01*
X0028401Y0010945D01*
X0027790Y0011389D01*
X0027255Y0011923D01*
X0026811Y0012534D01*
X0026468Y0013207D01*
X0026262Y0013843D01*
X0025495Y0011991D01*
X0023976Y0010472D01*
X0021991Y0009650D01*
X0019843Y0009650D01*
X0017858Y0010472D01*
X0016339Y0011991D01*
X0015917Y0013010D01*
X0015495Y0011991D01*
X0013976Y0010472D01*
X0011991Y0009650D01*
X0009843Y0009650D01*
X0007858Y0010472D01*
X0006339Y0011991D01*
X0005517Y0013976D01*
X0005517Y0022124D01*
X0006339Y0024109D01*
X0007267Y0025037D01*
X0007267Y0031262D01*
X0008282Y0035051D01*
X0008282Y0035051D01*
X0009292Y0036800D01*
X0002167Y0036800D01*
X0002167Y0035369D02*
X0008465Y0035369D01*
X0007939Y0033770D02*
X0002167Y0033770D01*
X0002167Y0032172D02*
X0007511Y0032172D01*
X0007267Y0030573D02*
X0002167Y0030573D01*
X0002167Y0028975D02*
X0007267Y0028975D01*
X0007267Y0027376D02*
X0002167Y0027376D01*
X0002167Y0025778D02*
X0007267Y0025778D01*
X0006409Y0024179D02*
X0002167Y0024179D01*
X0002167Y0022581D02*
X0005706Y0022581D01*
X0005517Y0020982D02*
X0002167Y0020982D01*
X0002167Y0019384D02*
X0005517Y0019384D01*
X0005517Y0017785D02*
X0002167Y0017785D01*
X0002167Y0016187D02*
X0005517Y0016187D01*
X0005517Y0014588D02*
X0002167Y0014588D01*
X0002167Y0012990D02*
X0005925Y0012990D01*
X0006939Y0011391D02*
X0002167Y0011391D01*
X0002167Y0009793D02*
X0009498Y0009793D01*
X0012335Y0009793D02*
X0019498Y0009793D01*
X0022335Y0009793D02*
X0041998Y0009793D01*
X0044835Y0009793D02*
X0051998Y0009793D01*
X0054835Y0009793D02*
X0061998Y0009793D01*
X0064835Y0009793D02*
X0081467Y0009793D01*
X0081467Y0011391D02*
X0067394Y0011391D01*
X0068408Y0012990D02*
X0081467Y0012990D01*
X0081467Y0014588D02*
X0068817Y0014588D01*
X0068817Y0016187D02*
X0081467Y0016187D01*
X0081467Y0017785D02*
X0068817Y0017785D01*
X0068817Y0019384D02*
X0081467Y0019384D01*
X0081467Y0020982D02*
X0068817Y0020982D01*
X0068628Y0022581D02*
X0081254Y0022581D01*
X0084667Y0021800D02*
X0084665Y0021940D01*
X0084659Y0022080D01*
X0084649Y0022220D01*
X0084636Y0022360D01*
X0084618Y0022499D01*
X0084596Y0022638D01*
X0084571Y0022775D01*
X0084542Y0022913D01*
X0084509Y0023049D01*
X0084472Y0023184D01*
X0084431Y0023318D01*
X0084386Y0023451D01*
X0084338Y0023583D01*
X0084286Y0023713D01*
X0084231Y0023842D01*
X0084172Y0023969D01*
X0084109Y0024095D01*
X0084043Y0024219D01*
X0083974Y0024340D01*
X0083901Y0024460D01*
X0083824Y0024578D01*
X0083745Y0024693D01*
X0083662Y0024807D01*
X0083576Y0024917D01*
X0083487Y0025026D01*
X0083395Y0025132D01*
X0083300Y0025235D01*
X0083203Y0025336D01*
X0083102Y0025433D01*
X0082999Y0025528D01*
X0082893Y0025620D01*
X0082784Y0025709D01*
X0082674Y0025795D01*
X0082560Y0025878D01*
X0082445Y0025957D01*
X0082327Y0026034D01*
X0082207Y0026107D01*
X0082086Y0026176D01*
X0081962Y0026242D01*
X0081836Y0026305D01*
X0081709Y0026364D01*
X0081580Y0026419D01*
X0081450Y0026471D01*
X0081318Y0026519D01*
X0081185Y0026564D01*
X0081051Y0026605D01*
X0080916Y0026642D01*
X0080780Y0026675D01*
X0080642Y0026704D01*
X0080505Y0026729D01*
X0080366Y0026751D01*
X0080227Y0026769D01*
X0080087Y0026782D01*
X0079947Y0026792D01*
X0079807Y0026798D01*
X0079667Y0026800D01*
X0062167Y0026800D01*
X0058909Y0024179D02*
X0057924Y0024179D01*
X0056592Y0025778D02*
X0056114Y0025778D01*
X0055123Y0027376D02*
X0017067Y0027376D01*
X0017067Y0025778D02*
X0018219Y0025778D01*
X0023614Y0025778D02*
X0030082Y0025778D01*
X0030717Y0025778D02*
X0031117Y0025778D01*
X0031751Y0025778D02*
X0040719Y0025778D01*
X0038909Y0024179D02*
X0034576Y0024179D01*
X0035466Y0022581D02*
X0038206Y0022581D01*
X0038017Y0020982D02*
X0035717Y0020982D01*
X0035717Y0019384D02*
X0038017Y0019384D01*
X0038017Y0017785D02*
X0035717Y0017785D01*
X0035717Y0016187D02*
X0038017Y0016187D01*
X0038017Y0014588D02*
X0035703Y0014588D01*
X0035254Y0012990D02*
X0038425Y0012990D01*
X0039439Y0011391D02*
X0034046Y0011391D01*
X0031117Y0011391D02*
X0030717Y0011391D01*
X0030717Y0012990D02*
X0031117Y0012990D01*
X0031117Y0014588D02*
X0030717Y0014588D01*
X0030717Y0016187D02*
X0031117Y0016187D01*
X0031117Y0017785D02*
X0030717Y0017785D01*
X0030717Y0019384D02*
X0031117Y0019384D01*
X0031117Y0020982D02*
X0030717Y0020982D01*
X0030717Y0022581D02*
X0031117Y0022581D01*
X0031117Y0024179D02*
X0030717Y0024179D01*
X0027258Y0024179D02*
X0025424Y0024179D01*
X0026128Y0022581D02*
X0026367Y0022581D01*
X0017067Y0028975D02*
X0054461Y0028975D01*
X0053967Y0030573D02*
X0017273Y0030573D01*
X0017986Y0032172D02*
X0053967Y0032172D01*
X0053967Y0033770D02*
X0019797Y0033770D01*
X0014017Y0041800D02*
X0002167Y0041800D01*
X0002167Y0209361D01*
X0085917Y0209361D01*
X0085917Y0196015D01*
X0082267Y0192365D01*
X0082267Y0186235D01*
X0085917Y0182585D01*
X0085917Y0073787D01*
X0080989Y0073787D01*
X0080893Y0073747D01*
X0079347Y0073747D01*
X0078465Y0073382D01*
X0077790Y0072707D01*
X0077424Y0071825D01*
X0077424Y0071287D01*
X0075509Y0071287D01*
X0075624Y0071354D01*
X0075959Y0071689D01*
X0076196Y0072099D01*
X0076319Y0072557D01*
X0076319Y0075267D01*
X0072636Y0075267D01*
X0072636Y0071101D01*
X0072106Y0070882D01*
X0071431Y0070207D01*
X0071066Y0069325D01*
X0071066Y0067149D01*
X0071431Y0066268D01*
X0071066Y0065388D01*
X0071066Y0065381D01*
X0070367Y0065381D01*
X0070367Y0070994D01*
X0072071Y0070994D01*
X0072071Y0075267D01*
X0072636Y0075267D01*
X0072636Y0075833D01*
X0072071Y0075833D01*
X0072071Y0080106D01*
X0070767Y0080106D01*
X0070767Y0158444D01*
X0070982Y0158659D01*
X0071348Y0159541D01*
X0071348Y0164058D01*
X0070982Y0164941D01*
X0070767Y0165156D01*
X0070767Y0185601D01*
X0075794Y0185601D01*
X0076676Y0185966D01*
X0077351Y0186641D01*
X0077716Y0187523D01*
X0077716Y0193596D01*
X0077425Y0194300D01*
X0077716Y0195004D01*
X0077716Y0201077D01*
X0077351Y0201959D01*
X0076676Y0202634D01*
X0075794Y0202999D01*
X0068540Y0202999D01*
X0067658Y0202634D01*
X0066982Y0201959D01*
X0066617Y0201077D01*
X0066617Y0200400D01*
X0065610Y0200400D01*
X0065610Y0201526D01*
X0064705Y0203710D01*
X0063033Y0205382D01*
X0060849Y0206287D01*
X0058484Y0206287D01*
X0056300Y0205382D01*
X0054667Y0203748D01*
X0053033Y0205382D01*
X0050849Y0206287D01*
X0048484Y0206287D01*
X0046300Y0205382D01*
X0044628Y0203710D01*
X0043723Y0201526D01*
X0043723Y0193911D01*
X0043123Y0194160D01*
X0042483Y0194160D01*
X0042425Y0194300D01*
X0042716Y0195004D01*
X0042716Y0201077D01*
X0042351Y0201959D01*
X0041676Y0202634D01*
X0040794Y0202999D01*
X0033540Y0202999D01*
X0032658Y0202634D01*
X0031982Y0201959D01*
X0031617Y0201077D01*
X0031617Y0200400D01*
X0030610Y0200400D01*
X0030610Y0201526D01*
X0029705Y0203710D01*
X0028033Y0205382D01*
X0025849Y0206287D01*
X0023484Y0206287D01*
X0021300Y0205382D01*
X0019667Y0203748D01*
X0018033Y0205382D01*
X0015849Y0206287D01*
X0013484Y0206287D01*
X0011300Y0205382D01*
X0009628Y0203710D01*
X0008723Y0201526D01*
X0008723Y0192074D01*
X0009628Y0189890D01*
X0011067Y0188452D01*
X0011067Y0185089D01*
X0012376Y0181928D01*
X0014795Y0179509D01*
X0014795Y0179509D01*
X0015048Y0179405D01*
X0015048Y0174681D01*
X0014286Y0174681D01*
X0014286Y0179643D01*
X0010703Y0179643D01*
X0009872Y0179512D01*
X0009072Y0179252D01*
X0008323Y0178870D01*
X0007642Y0178376D01*
X0007048Y0177781D01*
X0006553Y0177100D01*
X0006172Y0176351D01*
X0005912Y0175551D01*
X0005780Y0174721D01*
X0005780Y0174681D01*
X0014285Y0174681D01*
X0014285Y0173919D01*
X0005780Y0173919D01*
X0005780Y0173879D01*
X0005912Y0173049D01*
X0006172Y0172249D01*
X0006553Y0171499D01*
X0007048Y0170819D01*
X0007642Y0170224D01*
X0008323Y0169730D01*
X0008493Y0169643D01*
X0007757Y0169338D01*
X0006085Y0167667D01*
X0005180Y0165482D01*
X0005180Y0163118D01*
X0006085Y0160933D01*
X0007757Y0159262D01*
X0009941Y0158357D01*
X0019392Y0158357D01*
X0021577Y0159262D01*
X0023015Y0160700D01*
X0023467Y0160700D01*
X0023467Y0160673D01*
X0023833Y0159791D01*
X0024508Y0159116D01*
X0025390Y0158750D01*
X0031463Y0158750D01*
X0032167Y0159042D01*
X0032870Y0158750D01*
X0038943Y0158750D01*
X0039825Y0159116D01*
X0040500Y0159791D01*
X0040866Y0160673D01*
X0040866Y0160700D01*
X0040967Y0160700D01*
X0040967Y0160673D01*
X0041333Y0159791D01*
X0042008Y0159116D01*
X0042890Y0158750D01*
X0048963Y0158750D01*
X0049667Y0159042D01*
X0050370Y0158750D01*
X0051067Y0158750D01*
X0051067Y0144850D01*
X0045370Y0144850D01*
X0044667Y0144558D01*
X0043963Y0144850D01*
X0037890Y0144850D01*
X0037008Y0144484D01*
X0036684Y0144160D01*
X0032483Y0144160D01*
X0032351Y0144478D01*
X0032004Y0144825D01*
X0032116Y0145244D01*
X0032116Y0147561D01*
X0027646Y0147561D01*
X0027646Y0148520D01*
X0026687Y0148520D01*
X0026687Y0152399D01*
X0023780Y0152399D01*
X0023322Y0152277D01*
X0022912Y0152040D01*
X0022845Y0151973D01*
X0022780Y0152100D01*
X0022286Y0152781D01*
X0021691Y0153376D01*
X0021010Y0153870D01*
X0020261Y0154252D01*
X0019461Y0154512D01*
X0018630Y0154643D01*
X0015048Y0154643D01*
X0015048Y0149681D01*
X0014286Y0149681D01*
X0014286Y0154643D01*
X0010703Y0154643D01*
X0009872Y0154512D01*
X0009072Y0154252D01*
X0008323Y0153870D01*
X0007642Y0153376D01*
X0007048Y0152781D01*
X0006553Y0152100D01*
X0006172Y0151351D01*
X0005912Y0150551D01*
X0005780Y0149721D01*
X0005780Y0149681D01*
X0014285Y0149681D01*
X0014285Y0148919D01*
X0005780Y0148919D01*
X0005780Y0148879D01*
X0005912Y0148049D01*
X0006172Y0147249D01*
X0006553Y0146499D01*
X0007048Y0145819D01*
X0007642Y0145224D01*
X0008323Y0144730D01*
X0008493Y0144643D01*
X0007757Y0144338D01*
X0006085Y0142667D01*
X0005180Y0140482D01*
X0005180Y0138118D01*
X0006085Y0135933D01*
X0007757Y0134262D01*
X0009941Y0133357D01*
X0019392Y0133357D01*
X0021577Y0134262D01*
X0023099Y0135784D01*
X0023540Y0135601D01*
X0030794Y0135601D01*
X0031676Y0135966D01*
X0032351Y0136641D01*
X0032483Y0136960D01*
X0035967Y0136960D01*
X0035967Y0135673D01*
X0036333Y0134791D01*
X0036726Y0134398D01*
X0036704Y0134376D01*
X0036200Y0134167D01*
X0035927Y0134140D01*
X0032483Y0134140D01*
X0032351Y0134459D01*
X0031676Y0135134D01*
X0030794Y0135499D01*
X0023540Y0135499D01*
X0022658Y0135134D01*
X0021982Y0134459D01*
X0021617Y0133577D01*
X0021617Y0127504D01*
X0021909Y0126800D01*
X0021617Y0126096D01*
X0021617Y0123429D01*
X0021010Y0123870D01*
X0020261Y0124252D01*
X0019461Y0124512D01*
X0018630Y0124643D01*
X0015048Y0124643D01*
X0015048Y0119681D01*
X0014286Y0119681D01*
X0014286Y0124643D01*
X0010703Y0124643D01*
X0009872Y0124512D01*
X0009072Y0124252D01*
X0008323Y0123870D01*
X0007642Y0123376D01*
X0007048Y0122781D01*
X0006553Y0122100D01*
X0006172Y0121351D01*
X0005912Y0120551D01*
X0005780Y0119721D01*
X0005780Y0119681D01*
X0014285Y0119681D01*
X0014285Y0118919D01*
X0005780Y0118919D01*
X0005780Y0118879D01*
X0005912Y0118049D01*
X0006172Y0117249D01*
X0006553Y0116499D01*
X0007048Y0115819D01*
X0007642Y0115224D01*
X0008323Y0114730D01*
X0008493Y0114643D01*
X0007757Y0114338D01*
X0006085Y0112667D01*
X0005180Y0110482D01*
X0005180Y0108118D01*
X0006085Y0105933D01*
X0007757Y0104262D01*
X0009941Y0103357D01*
X0019392Y0103357D01*
X0021577Y0104262D01*
X0021617Y0104302D01*
X0021617Y0102523D01*
X0021982Y0101641D01*
X0022658Y0100966D01*
X0023540Y0100601D01*
X0030794Y0100601D01*
X0031676Y0100966D01*
X0032351Y0101641D01*
X0032608Y0102261D01*
X0035982Y0102261D01*
X0036013Y0102274D01*
X0036467Y0102274D01*
X0036467Y0098056D01*
X0035851Y0097441D01*
X0035486Y0096558D01*
X0035486Y0096496D01*
X0035159Y0096308D01*
X0035159Y0096308D01*
X0035159Y0096308D01*
X0033967Y0094242D01*
X0033967Y0048663D01*
X0034431Y0047543D01*
X0034378Y0047348D01*
X0033713Y0046195D01*
X0032771Y0045254D01*
X0031618Y0044588D01*
X0030332Y0044244D01*
X0029667Y0044200D01*
X0020205Y0044200D01*
X0016415Y0043185D01*
X0014017Y0041800D01*
X0017075Y0043361D02*
X0002167Y0043361D01*
X0002167Y0044960D02*
X0032262Y0044960D01*
X0033922Y0046558D02*
X0002167Y0046558D01*
X0002167Y0048157D02*
X0034177Y0048157D01*
X0033967Y0049755D02*
X0002167Y0049755D01*
X0002167Y0051354D02*
X0033967Y0051354D01*
X0033967Y0052952D02*
X0002167Y0052952D01*
X0002167Y0054551D02*
X0033967Y0054551D01*
X0033967Y0056149D02*
X0002167Y0056149D01*
X0002167Y0057748D02*
X0033967Y0057748D01*
X0033967Y0059346D02*
X0002167Y0059346D01*
X0002167Y0060945D02*
X0033967Y0060945D01*
X0033967Y0062543D02*
X0002167Y0062543D01*
X0002167Y0064142D02*
X0033967Y0064142D01*
X0033967Y0065740D02*
X0002167Y0065740D01*
X0002167Y0067339D02*
X0033967Y0067339D01*
X0033967Y0068937D02*
X0002167Y0068937D01*
X0002167Y0070536D02*
X0033967Y0070536D01*
X0033967Y0072134D02*
X0002167Y0072134D01*
X0002167Y0073733D02*
X0033967Y0073733D01*
X0033967Y0075332D02*
X0002167Y0075332D01*
X0002167Y0076930D02*
X0033967Y0076930D01*
X0033967Y0078529D02*
X0019807Y0078529D01*
X0019392Y0078357D02*
X0021577Y0079262D01*
X0023248Y0080933D01*
X0024153Y0083118D01*
X0024153Y0085482D01*
X0023248Y0087667D01*
X0021577Y0089338D01*
X0020840Y0089643D01*
X0021010Y0089730D01*
X0021691Y0090224D01*
X0022286Y0090819D01*
X0022780Y0091499D01*
X0023162Y0092249D01*
X0023422Y0093049D01*
X0023553Y0093879D01*
X0023553Y0093919D01*
X0015048Y0093919D01*
X0015048Y0094681D01*
X0023553Y0094681D01*
X0023553Y0094721D01*
X0023422Y0095551D01*
X0023162Y0096351D01*
X0022780Y0097100D01*
X0022286Y0097781D01*
X0021691Y0098376D01*
X0021010Y0098870D01*
X0020261Y0099252D01*
X0019461Y0099512D01*
X0018630Y0099643D01*
X0015048Y0099643D01*
X0015048Y0094681D01*
X0014286Y0094681D01*
X0014286Y0099643D01*
X0010703Y0099643D01*
X0009872Y0099512D01*
X0009072Y0099252D01*
X0008323Y0098870D01*
X0007642Y0098376D01*
X0007048Y0097781D01*
X0006553Y0097100D01*
X0006172Y0096351D01*
X0005912Y0095551D01*
X0005780Y0094721D01*
X0005780Y0094681D01*
X0014285Y0094681D01*
X0014285Y0093919D01*
X0005780Y0093919D01*
X0005780Y0093879D01*
X0005912Y0093049D01*
X0006172Y0092249D01*
X0006553Y0091499D01*
X0007048Y0090819D01*
X0007642Y0090224D01*
X0008323Y0089730D01*
X0008493Y0089643D01*
X0007757Y0089338D01*
X0006085Y0087667D01*
X0005180Y0085482D01*
X0005180Y0083118D01*
X0006085Y0080933D01*
X0007757Y0079262D01*
X0009941Y0078357D01*
X0019392Y0078357D01*
X0022442Y0080127D02*
X0033967Y0080127D01*
X0033967Y0081726D02*
X0023577Y0081726D01*
X0024153Y0083324D02*
X0033967Y0083324D01*
X0033967Y0084923D02*
X0024153Y0084923D01*
X0023723Y0086521D02*
X0033967Y0086521D01*
X0033967Y0088120D02*
X0022795Y0088120D01*
X0020987Y0089718D02*
X0033967Y0089718D01*
X0033967Y0091317D02*
X0022647Y0091317D01*
X0023378Y0092915D02*
X0033967Y0092915D01*
X0034123Y0094514D02*
X0015048Y0094514D01*
X0014285Y0094514D02*
X0002167Y0094514D01*
X0002167Y0096112D02*
X0006094Y0096112D01*
X0006997Y0097711D02*
X0002167Y0097711D01*
X0002167Y0099309D02*
X0009249Y0099309D01*
X0008135Y0104105D02*
X0002167Y0104105D01*
X0002167Y0105703D02*
X0006315Y0105703D01*
X0005518Y0107302D02*
X0002167Y0107302D01*
X0002167Y0108900D02*
X0005180Y0108900D01*
X0005187Y0110499D02*
X0002167Y0110499D01*
X0002167Y0112097D02*
X0005849Y0112097D01*
X0007114Y0113696D02*
X0002167Y0113696D01*
X0002167Y0115294D02*
X0007572Y0115294D01*
X0006353Y0116893D02*
X0002167Y0116893D01*
X0002167Y0118491D02*
X0005842Y0118491D01*
X0005839Y0120090D02*
X0002167Y0120090D01*
X0002167Y0121688D02*
X0006343Y0121688D01*
X0007554Y0123287D02*
X0002167Y0123287D01*
X0002167Y0124885D02*
X0021617Y0124885D01*
X0021778Y0126484D02*
X0002167Y0126484D01*
X0002167Y0128082D02*
X0021617Y0128082D01*
X0021617Y0129681D02*
X0002167Y0129681D01*
X0002167Y0131279D02*
X0021617Y0131279D01*
X0021617Y0132878D02*
X0002167Y0132878D01*
X0002167Y0134476D02*
X0007542Y0134476D01*
X0006026Y0136075D02*
X0002167Y0136075D01*
X0002167Y0137673D02*
X0005364Y0137673D01*
X0005180Y0139272D02*
X0002167Y0139272D01*
X0002167Y0140870D02*
X0005341Y0140870D01*
X0006003Y0142469D02*
X0002167Y0142469D01*
X0002167Y0144068D02*
X0007486Y0144068D01*
X0007201Y0145666D02*
X0002167Y0145666D01*
X0002167Y0147265D02*
X0006166Y0147265D01*
X0005783Y0148863D02*
X0002167Y0148863D01*
X0002167Y0150462D02*
X0005897Y0150462D01*
X0006533Y0152060D02*
X0002167Y0152060D01*
X0002167Y0153659D02*
X0008032Y0153659D01*
X0009706Y0158454D02*
X0002167Y0158454D01*
X0002167Y0156856D02*
X0051067Y0156856D01*
X0051067Y0158454D02*
X0019627Y0158454D01*
X0022368Y0160053D02*
X0023724Y0160053D01*
X0021301Y0153659D02*
X0051067Y0153659D01*
X0051067Y0155257D02*
X0002167Y0155257D01*
X0002167Y0160053D02*
X0006966Y0160053D01*
X0005788Y0161651D02*
X0002167Y0161651D01*
X0002167Y0163250D02*
X0005180Y0163250D01*
X0005180Y0164848D02*
X0002167Y0164848D01*
X0002167Y0166447D02*
X0005580Y0166447D01*
X0006463Y0168045D02*
X0002167Y0168045D01*
X0002167Y0169644D02*
X0008492Y0169644D01*
X0006740Y0171242D02*
X0002167Y0171242D01*
X0002167Y0172841D02*
X0005979Y0172841D01*
X0006070Y0176038D02*
X0002167Y0176038D01*
X0002167Y0177636D02*
X0006943Y0177636D01*
X0009039Y0179235D02*
X0002167Y0179235D01*
X0002167Y0180833D02*
X0013471Y0180833D01*
X0012376Y0181928D02*
X0012376Y0181928D01*
X0012167Y0182432D02*
X0002167Y0182432D01*
X0002167Y0184030D02*
X0011505Y0184030D01*
X0011067Y0185629D02*
X0002167Y0185629D01*
X0002167Y0187227D02*
X0011067Y0187227D01*
X0010692Y0188826D02*
X0002167Y0188826D01*
X0002167Y0190424D02*
X0009407Y0190424D01*
X0008745Y0192023D02*
X0002167Y0192023D01*
X0002167Y0193621D02*
X0008723Y0193621D01*
X0008723Y0195220D02*
X0002167Y0195220D01*
X0002167Y0196818D02*
X0008723Y0196818D01*
X0008723Y0198417D02*
X0002167Y0198417D01*
X0002167Y0200015D02*
X0008723Y0200015D01*
X0008760Y0201614D02*
X0002167Y0201614D01*
X0002167Y0203212D02*
X0009422Y0203212D01*
X0010729Y0204811D02*
X0002167Y0204811D01*
X0002167Y0206409D02*
X0085917Y0206409D01*
X0085917Y0204811D02*
X0063604Y0204811D01*
X0064911Y0203212D02*
X0085917Y0203212D01*
X0085917Y0201614D02*
X0077494Y0201614D01*
X0077716Y0200015D02*
X0085917Y0200015D01*
X0085917Y0198417D02*
X0077716Y0198417D01*
X0077716Y0196818D02*
X0085917Y0196818D01*
X0085121Y0195220D02*
X0077716Y0195220D01*
X0077706Y0193621D02*
X0083523Y0193621D01*
X0082267Y0192023D02*
X0077716Y0192023D01*
X0077716Y0190424D02*
X0082267Y0190424D01*
X0082267Y0188826D02*
X0077716Y0188826D01*
X0077594Y0187227D02*
X0082267Y0187227D01*
X0082873Y0185629D02*
X0075861Y0185629D01*
X0072167Y0189300D02*
X0072167Y0190560D01*
X0070767Y0184030D02*
X0084471Y0184030D01*
X0085917Y0182432D02*
X0070767Y0182432D01*
X0070767Y0180833D02*
X0085917Y0180833D01*
X0085917Y0179235D02*
X0070767Y0179235D01*
X0070767Y0177636D02*
X0085917Y0177636D01*
X0085917Y0176038D02*
X0070767Y0176038D01*
X0070767Y0174439D02*
X0085917Y0174439D01*
X0085917Y0172841D02*
X0070767Y0172841D01*
X0070767Y0171242D02*
X0085917Y0171242D01*
X0085917Y0169644D02*
X0070767Y0169644D01*
X0070767Y0168045D02*
X0085917Y0168045D01*
X0085917Y0166447D02*
X0070767Y0166447D01*
X0071021Y0164848D02*
X0085917Y0164848D01*
X0085917Y0163250D02*
X0071348Y0163250D01*
X0071348Y0161651D02*
X0085917Y0161651D01*
X0085917Y0160053D02*
X0071348Y0160053D01*
X0070777Y0158454D02*
X0085917Y0158454D01*
X0085917Y0156856D02*
X0070767Y0156856D01*
X0070767Y0155257D02*
X0085917Y0155257D01*
X0085917Y0153659D02*
X0070767Y0153659D01*
X0070767Y0152060D02*
X0085917Y0152060D01*
X0085917Y0150462D02*
X0070767Y0150462D01*
X0070767Y0148863D02*
X0085917Y0148863D01*
X0085917Y0147265D02*
X0070767Y0147265D01*
X0070767Y0145666D02*
X0085917Y0145666D01*
X0085917Y0144068D02*
X0070767Y0144068D01*
X0070767Y0142469D02*
X0085917Y0142469D01*
X0085917Y0140870D02*
X0070767Y0140870D01*
X0070767Y0139272D02*
X0085917Y0139272D01*
X0085917Y0137673D02*
X0070767Y0137673D01*
X0070767Y0136075D02*
X0085917Y0136075D01*
X0085917Y0134476D02*
X0070767Y0134476D01*
X0070767Y0132878D02*
X0085917Y0132878D01*
X0085917Y0131279D02*
X0070767Y0131279D01*
X0070767Y0129681D02*
X0085917Y0129681D01*
X0085917Y0128082D02*
X0070767Y0128082D01*
X0070767Y0126484D02*
X0085917Y0126484D01*
X0085917Y0124885D02*
X0070767Y0124885D01*
X0070767Y0123287D02*
X0085917Y0123287D01*
X0085917Y0121688D02*
X0070767Y0121688D01*
X0070767Y0120090D02*
X0085917Y0120090D01*
X0085917Y0118491D02*
X0070767Y0118491D01*
X0070767Y0116893D02*
X0085917Y0116893D01*
X0085917Y0115294D02*
X0070767Y0115294D01*
X0070767Y0113696D02*
X0085917Y0113696D01*
X0085917Y0112097D02*
X0070767Y0112097D01*
X0070767Y0110499D02*
X0085917Y0110499D01*
X0085917Y0108900D02*
X0070767Y0108900D01*
X0070767Y0107302D02*
X0085917Y0107302D01*
X0085917Y0105703D02*
X0070767Y0105703D01*
X0070767Y0104105D02*
X0085917Y0104105D01*
X0085917Y0102506D02*
X0070767Y0102506D01*
X0070767Y0100908D02*
X0085917Y0100908D01*
X0085917Y0099309D02*
X0070767Y0099309D01*
X0070767Y0097711D02*
X0085917Y0097711D01*
X0085917Y0096112D02*
X0070767Y0096112D01*
X0070767Y0094514D02*
X0085917Y0094514D01*
X0085917Y0092915D02*
X0070767Y0092915D01*
X0070767Y0091317D02*
X0085917Y0091317D01*
X0085917Y0089718D02*
X0070767Y0089718D01*
X0070767Y0088120D02*
X0085917Y0088120D01*
X0085917Y0086521D02*
X0070767Y0086521D01*
X0070767Y0084923D02*
X0085917Y0084923D01*
X0085917Y0083324D02*
X0070767Y0083324D01*
X0070767Y0081726D02*
X0085917Y0081726D01*
X0085917Y0080127D02*
X0070767Y0080127D01*
X0072636Y0080106D02*
X0072636Y0075833D01*
X0076319Y0075833D01*
X0076319Y0078543D01*
X0076196Y0079001D01*
X0075959Y0079411D01*
X0075624Y0079746D01*
X0075214Y0079983D01*
X0074756Y0080106D01*
X0072636Y0080106D01*
X0072636Y0078529D02*
X0072071Y0078529D01*
X0072071Y0076930D02*
X0072636Y0076930D01*
X0072071Y0075833D02*
X0070767Y0075833D01*
X0070767Y0075267D01*
X0072071Y0075267D01*
X0072071Y0075833D01*
X0072354Y0075550D02*
X0070917Y0075550D01*
X0070917Y0066269D01*
X0071212Y0065740D02*
X0070367Y0065740D01*
X0070367Y0067339D02*
X0071066Y0067339D01*
X0071066Y0068937D02*
X0070367Y0068937D01*
X0070367Y0070536D02*
X0071761Y0070536D01*
X0072071Y0072134D02*
X0072636Y0072134D01*
X0072636Y0073733D02*
X0072071Y0073733D01*
X0072071Y0075332D02*
X0070767Y0075332D01*
X0072636Y0075332D02*
X0085917Y0075332D01*
X0085917Y0076930D02*
X0076319Y0076930D01*
X0076319Y0078529D02*
X0085917Y0078529D01*
X0089667Y0078529D02*
X0092034Y0078529D01*
X0092101Y0078691D02*
X0091736Y0077808D01*
X0091736Y0073787D01*
X0089667Y0073787D01*
X0089667Y0181900D01*
X0092732Y0181900D01*
X0097067Y0186235D01*
X0097067Y0191900D01*
X0097732Y0191900D01*
X0102067Y0196235D01*
X0102067Y0202365D01*
X0097732Y0206700D01*
X0091601Y0206700D01*
X0089667Y0204765D01*
X0089667Y0209361D01*
X0333467Y0209361D01*
X0333467Y0004200D01*
X0297692Y0004200D01*
X0298267Y0005587D01*
X0298267Y0008926D01*
X0298290Y0009164D01*
X0303057Y0009164D01*
X0303940Y0009529D01*
X0304615Y0010204D01*
X0304665Y0010326D01*
X0314668Y0010326D01*
X0314719Y0010204D01*
X0315394Y0009529D01*
X0316276Y0009164D01*
X0329829Y0009164D01*
X0330711Y0009529D01*
X0331386Y0010204D01*
X0331752Y0011086D01*
X0331752Y0016766D01*
X0331386Y0017648D01*
X0330711Y0018323D01*
X0329829Y0018688D01*
X0316276Y0018688D01*
X0315394Y0018323D01*
X0314719Y0017648D01*
X0314668Y0017526D01*
X0304665Y0017526D01*
X0304615Y0017648D01*
X0303940Y0018323D01*
X0303057Y0018688D01*
X0289504Y0018688D01*
X0288622Y0018323D01*
X0287947Y0017648D01*
X0287582Y0016766D01*
X0287582Y0011086D01*
X0287947Y0010204D01*
X0288622Y0009529D01*
X0289504Y0009164D01*
X0291067Y0009164D01*
X0291067Y0007900D01*
X0207262Y0007900D01*
X0208526Y0009164D01*
X0213057Y0009164D01*
X0213940Y0009529D01*
X0214615Y0010204D01*
X0214665Y0010326D01*
X0224668Y0010326D01*
X0224719Y0010204D01*
X0225394Y0009529D01*
X0226276Y0009164D01*
X0239829Y0009164D01*
X0240711Y0009529D01*
X0241386Y0010204D01*
X0241752Y0011086D01*
X0241752Y0016766D01*
X0241386Y0017648D01*
X0240834Y0018200D01*
X0243499Y0018200D01*
X0242947Y0017648D01*
X0242582Y0016766D01*
X0242582Y0011086D01*
X0242947Y0010204D01*
X0243622Y0009529D01*
X0244504Y0009164D01*
X0258057Y0009164D01*
X0258940Y0009529D01*
X0259615Y0010204D01*
X0259665Y0010326D01*
X0269668Y0010326D01*
X0269719Y0010204D01*
X0270394Y0009529D01*
X0271276Y0009164D01*
X0284829Y0009164D01*
X0285711Y0009529D01*
X0286386Y0010204D01*
X0286752Y0011086D01*
X0286752Y0016766D01*
X0286386Y0017648D01*
X0285711Y0018323D01*
X0284829Y0018688D01*
X0271276Y0018688D01*
X0270394Y0018323D01*
X0269719Y0017648D01*
X0269668Y0017526D01*
X0259665Y0017526D01*
X0259615Y0017648D01*
X0258940Y0018323D01*
X0258057Y0018688D01*
X0250767Y0018688D01*
X0250767Y0020513D01*
X0249838Y0022755D01*
X0249838Y0022755D01*
X0248122Y0024471D01*
X0245880Y0025400D01*
X0150104Y0025400D01*
X0150307Y0025484D01*
X0150982Y0026159D01*
X0151348Y0027041D01*
X0151348Y0031558D01*
X0150982Y0032441D01*
X0150667Y0032755D01*
X0150219Y0033839D01*
X0149206Y0034852D01*
X0147883Y0035400D01*
X0139667Y0035400D01*
X0139394Y0035427D01*
X0138889Y0035636D01*
X0138503Y0036022D01*
X0138294Y0036527D01*
X0138267Y0036800D01*
X0138267Y0048126D01*
X0138248Y0048172D01*
X0138248Y0052218D01*
X0137882Y0053100D01*
X0137207Y0053776D01*
X0136325Y0054141D01*
X0133008Y0054141D01*
X0132867Y0054082D01*
X0132867Y0062619D01*
X0136925Y0062619D01*
X0137807Y0062984D01*
X0138023Y0063200D01*
X0250127Y0063200D01*
X0253288Y0064509D01*
X0255707Y0066928D01*
X0255707Y0066928D01*
X0257017Y0070089D01*
X0257017Y0102288D01*
X0257295Y0102009D01*
X0257295Y0102009D01*
X0260456Y0100700D01*
X0308417Y0100700D01*
X0309418Y0100621D01*
X0311322Y0100002D01*
X0312942Y0098825D01*
X0314119Y0097206D01*
X0314738Y0095301D01*
X0314817Y0094300D01*
X0314817Y0087881D01*
X0314695Y0087831D01*
X0314020Y0087156D01*
X0313654Y0086273D01*
X0313654Y0080594D01*
X0313714Y0080450D01*
X0310137Y0080450D01*
X0307267Y0077580D01*
X0307267Y0073520D01*
X0310137Y0070650D01*
X0314196Y0070650D01*
X0314505Y0070959D01*
X0314695Y0070769D01*
X0315577Y0070404D01*
X0321256Y0070404D01*
X0322138Y0070769D01*
X0322813Y0071444D01*
X0323179Y0072327D01*
X0323179Y0078006D01*
X0322813Y0078888D01*
X0322401Y0079300D01*
X0322813Y0079712D01*
X0323179Y0080594D01*
X0323179Y0086273D01*
X0322813Y0087156D01*
X0322138Y0087831D01*
X0322017Y0087881D01*
X0322017Y0096454D01*
X0320685Y0100551D01*
X0320685Y0100551D01*
X0318153Y0104037D01*
X0317285Y0104667D01*
X0319050Y0106432D01*
X0321005Y0109818D01*
X0322017Y0113595D01*
X0322017Y0124469D01*
X0322138Y0124519D01*
X0322813Y0125194D01*
X0323179Y0126077D01*
X0323179Y0131756D01*
X0322813Y0132638D01*
X0322401Y0133050D01*
X0322813Y0133462D01*
X0323179Y0134344D01*
X0323179Y0140023D01*
X0322813Y0140906D01*
X0322138Y0141581D01*
X0321256Y0141946D01*
X0315577Y0141946D01*
X0315311Y0141836D01*
X0314196Y0142950D01*
X0310137Y0142950D01*
X0307267Y0140080D01*
X0307267Y0136020D01*
X0310137Y0133150D01*
X0314196Y0133150D01*
X0314264Y0133218D01*
X0314432Y0133050D01*
X0314020Y0132638D01*
X0313654Y0131756D01*
X0313654Y0126077D01*
X0314020Y0125194D01*
X0314695Y0124519D01*
X0314817Y0124469D01*
X0314817Y0115550D01*
X0314751Y0114551D01*
X0314234Y0112622D01*
X0313236Y0110893D01*
X0311824Y0109481D01*
X0310094Y0108482D01*
X0308165Y0107965D01*
X0307167Y0107900D01*
X0262167Y0107900D01*
X0261894Y0107927D01*
X0261389Y0108136D01*
X0261003Y0108522D01*
X0260794Y0109027D01*
X0260767Y0109300D01*
X0260767Y0166202D01*
X0260817Y0166323D01*
X0260817Y0177277D01*
X0260767Y0177398D01*
X0260767Y0193511D01*
X0259457Y0196671D01*
X0259457Y0196672D01*
X0257038Y0199091D01*
X0253877Y0200400D01*
X0250496Y0200400D01*
X0249196Y0201700D01*
X0245137Y0201700D01*
X0243837Y0200400D01*
X0241706Y0200400D01*
X0238545Y0199091D01*
X0236126Y0196672D01*
X0236126Y0196671D01*
X0234817Y0193511D01*
X0234817Y0192803D01*
X0233886Y0192803D01*
X0233886Y0188530D01*
X0232927Y0188530D01*
X0232927Y0192803D01*
X0230611Y0192803D01*
X0230192Y0192691D01*
X0229845Y0193037D01*
X0228963Y0193403D01*
X0222890Y0193403D01*
X0222008Y0193037D01*
X0221333Y0192362D01*
X0220967Y0191480D01*
X0220967Y0184620D01*
X0221333Y0183738D01*
X0222008Y0183063D01*
X0222327Y0182931D01*
X0222327Y0179834D01*
X0222875Y0178511D01*
X0223690Y0177695D01*
X0223517Y0177277D01*
X0223517Y0166323D01*
X0223567Y0166202D01*
X0223567Y0123050D01*
X0223540Y0122777D01*
X0223331Y0122272D01*
X0222944Y0121886D01*
X0222440Y0121677D01*
X0222167Y0121650D01*
X0173317Y0121650D01*
X0173317Y0124016D01*
X0179128Y0124016D01*
X0179128Y0124016D01*
X0182918Y0125032D01*
X0186315Y0126993D01*
X0189090Y0129767D01*
X0191051Y0133165D01*
X0192067Y0136955D01*
X0192067Y0190623D01*
X0192815Y0192428D01*
X0192815Y0201171D01*
X0191955Y0203247D01*
X0190366Y0204836D01*
X0188290Y0205696D01*
X0186043Y0205696D01*
X0183967Y0204836D01*
X0182378Y0203247D01*
X0182167Y0202736D01*
X0181955Y0203247D01*
X0180366Y0204836D01*
X0178290Y0205696D01*
X0176043Y0205696D01*
X0173967Y0204836D01*
X0172378Y0203247D01*
X0172167Y0202736D01*
X0171955Y0203247D01*
X0170366Y0204836D01*
X0168290Y0205696D01*
X0166043Y0205696D01*
X0163967Y0204836D01*
X0162378Y0203247D01*
X0161519Y0201171D01*
X0161519Y0192428D01*
X0162378Y0190353D01*
X0163967Y0188764D01*
X0166043Y0187904D01*
X0168290Y0187904D01*
X0170366Y0188764D01*
X0171955Y0190353D01*
X0172167Y0190864D01*
X0172378Y0190353D01*
X0173967Y0188764D01*
X0176043Y0187904D01*
X0178290Y0187904D01*
X0180366Y0188764D01*
X0181955Y0190353D01*
X0182167Y0190864D01*
X0182267Y0190623D01*
X0182267Y0138916D01*
X0182223Y0138250D01*
X0181878Y0136964D01*
X0181213Y0135811D01*
X0180271Y0134870D01*
X0179118Y0134204D01*
X0178958Y0134161D01*
X0179567Y0134770D01*
X0179567Y0138830D01*
X0176696Y0141700D01*
X0172637Y0141700D01*
X0172328Y0141391D01*
X0172138Y0141581D01*
X0171256Y0141946D01*
X0165577Y0141946D01*
X0164695Y0141581D01*
X0164020Y0140906D01*
X0163654Y0140023D01*
X0163654Y0134344D01*
X0164020Y0133462D01*
X0164432Y0133050D01*
X0164020Y0132638D01*
X0163654Y0131756D01*
X0163654Y0130223D01*
X0163517Y0129891D01*
X0163517Y0121650D01*
X0133951Y0121650D01*
X0132985Y0121250D01*
X0124286Y0121250D01*
X0121272Y0120002D01*
X0118965Y0117695D01*
X0118965Y0117695D01*
X0117717Y0114681D01*
X0117717Y0100981D01*
X0114908Y0100981D01*
X0114026Y0100616D01*
X0113351Y0099941D01*
X0112986Y0099058D01*
X0112986Y0094541D01*
X0113351Y0093659D01*
X0114026Y0092984D01*
X0114908Y0092619D01*
X0115217Y0092619D01*
X0115217Y0075981D01*
X0112408Y0075981D01*
X0111526Y0075616D01*
X0110851Y0074941D01*
X0110813Y0074850D01*
X0106020Y0074850D01*
X0105982Y0074941D01*
X0105307Y0075616D01*
X0104425Y0075981D01*
X0100098Y0075981D01*
X0100098Y0077808D01*
X0099732Y0078691D01*
X0099057Y0079366D01*
X0098175Y0079731D01*
X0093658Y0079731D01*
X0092776Y0079366D01*
X0092101Y0078691D01*
X0091736Y0076930D02*
X0089667Y0076930D01*
X0089667Y0075332D02*
X0091736Y0075332D01*
X0100098Y0076930D02*
X0115217Y0076930D01*
X0115217Y0078529D02*
X0099799Y0078529D01*
X0105591Y0075332D02*
X0111242Y0075332D01*
X0115217Y0080127D02*
X0089667Y0080127D01*
X0089667Y0081726D02*
X0115217Y0081726D01*
X0115217Y0083324D02*
X0089667Y0083324D01*
X0089667Y0084923D02*
X0115217Y0084923D01*
X0115217Y0086521D02*
X0089667Y0086521D01*
X0089667Y0088120D02*
X0115217Y0088120D01*
X0115217Y0089718D02*
X0089667Y0089718D01*
X0089667Y0091317D02*
X0115217Y0091317D01*
X0114193Y0092915D02*
X0089667Y0092915D01*
X0089667Y0094514D02*
X0112997Y0094514D01*
X0112986Y0096112D02*
X0089667Y0096112D01*
X0089667Y0097711D02*
X0112986Y0097711D01*
X0113089Y0099309D02*
X0089667Y0099309D01*
X0089667Y0100908D02*
X0114731Y0100908D01*
X0113338Y0102506D02*
X0117717Y0102506D01*
X0117717Y0104105D02*
X0114937Y0104105D01*
X0116535Y0105703D02*
X0117717Y0105703D01*
X0117067Y0106235D02*
X0112732Y0101900D01*
X0106601Y0101900D01*
X0102267Y0106235D01*
X0102267Y0112365D01*
X0104626Y0114724D01*
X0102867Y0116483D01*
X0102867Y0119000D01*
X0109367Y0119000D01*
X0109367Y0119600D01*
X0109367Y0126100D01*
X0106850Y0126100D01*
X0102867Y0122117D01*
X0102867Y0119600D01*
X0109367Y0119600D01*
X0109967Y0119600D01*
X0116467Y0119600D01*
X0116467Y0122117D01*
X0112483Y0126100D01*
X0109967Y0126100D01*
X0109967Y0119600D01*
X0109967Y0119000D01*
X0116467Y0119000D01*
X0116467Y0116483D01*
X0114708Y0114724D01*
X0117067Y0112365D01*
X0117067Y0106235D01*
X0117067Y0107302D02*
X0117717Y0107302D01*
X0117717Y0108900D02*
X0117067Y0108900D01*
X0117067Y0110499D02*
X0117717Y0110499D01*
X0117717Y0112097D02*
X0117067Y0112097D01*
X0117717Y0113696D02*
X0115736Y0113696D01*
X0115278Y0115294D02*
X0117971Y0115294D01*
X0118633Y0116893D02*
X0116467Y0116893D01*
X0116467Y0118491D02*
X0119761Y0118491D01*
X0121272Y0120002D02*
X0121272Y0120002D01*
X0121485Y0120090D02*
X0116467Y0120090D01*
X0116467Y0121688D02*
X0163517Y0121688D01*
X0163517Y0123287D02*
X0115296Y0123287D01*
X0113698Y0124885D02*
X0163517Y0124885D01*
X0163517Y0126484D02*
X0089667Y0126484D01*
X0089667Y0128082D02*
X0163517Y0128082D01*
X0163517Y0129681D02*
X0089667Y0129681D01*
X0089667Y0131279D02*
X0163654Y0131279D01*
X0164260Y0132878D02*
X0089667Y0132878D01*
X0089667Y0134476D02*
X0163654Y0134476D01*
X0163654Y0136075D02*
X0089667Y0136075D01*
X0089667Y0137673D02*
X0163654Y0137673D01*
X0163654Y0139272D02*
X0089667Y0139272D01*
X0089667Y0140870D02*
X0164005Y0140870D01*
X0177526Y0140870D02*
X0182267Y0140870D01*
X0182267Y0139272D02*
X0179124Y0139272D01*
X0179567Y0137673D02*
X0182068Y0137673D01*
X0181365Y0136075D02*
X0179567Y0136075D01*
X0179590Y0134476D02*
X0179273Y0134476D01*
X0187405Y0128082D02*
X0223567Y0128082D01*
X0223567Y0126484D02*
X0185433Y0126484D01*
X0182372Y0124885D02*
X0223567Y0124885D01*
X0223567Y0123287D02*
X0173317Y0123287D01*
X0173317Y0121688D02*
X0222467Y0121688D01*
X0227929Y0116650D02*
X0229457Y0118178D01*
X0229457Y0118178D01*
X0230767Y0121339D01*
X0230767Y0164400D01*
X0232644Y0164400D01*
X0233526Y0164765D01*
X0233761Y0165000D01*
X0234667Y0165000D01*
X0235573Y0165000D01*
X0235807Y0164765D01*
X0236689Y0164400D01*
X0238567Y0164400D01*
X0238567Y0118050D01*
X0238540Y0117777D01*
X0238331Y0117272D01*
X0237944Y0116886D01*
X0237440Y0116677D01*
X0237167Y0116650D01*
X0227929Y0116650D01*
X0228172Y0116893D02*
X0237951Y0116893D01*
X0238567Y0118491D02*
X0229587Y0118491D01*
X0230249Y0120090D02*
X0238567Y0120090D01*
X0238567Y0121688D02*
X0230767Y0121688D01*
X0230767Y0123287D02*
X0238567Y0123287D01*
X0238567Y0124885D02*
X0230767Y0124885D01*
X0230767Y0126484D02*
X0238567Y0126484D01*
X0238567Y0128082D02*
X0230767Y0128082D01*
X0230767Y0129681D02*
X0238567Y0129681D01*
X0238567Y0131279D02*
X0230767Y0131279D01*
X0230767Y0132878D02*
X0238567Y0132878D01*
X0238567Y0134476D02*
X0230767Y0134476D01*
X0230767Y0136075D02*
X0238567Y0136075D01*
X0238567Y0137673D02*
X0230767Y0137673D01*
X0230767Y0139272D02*
X0238567Y0139272D01*
X0238567Y0140870D02*
X0230767Y0140870D01*
X0230767Y0142469D02*
X0238567Y0142469D01*
X0238567Y0144068D02*
X0230767Y0144068D01*
X0230767Y0145666D02*
X0238567Y0145666D01*
X0238567Y0147265D02*
X0230767Y0147265D01*
X0230767Y0148863D02*
X0238567Y0148863D01*
X0238567Y0150462D02*
X0230767Y0150462D01*
X0230767Y0152060D02*
X0238567Y0152060D01*
X0238567Y0153659D02*
X0230767Y0153659D01*
X0230767Y0155257D02*
X0238567Y0155257D01*
X0238567Y0156856D02*
X0230767Y0156856D01*
X0230767Y0158454D02*
X0238567Y0158454D01*
X0238567Y0160053D02*
X0230767Y0160053D01*
X0230767Y0161651D02*
X0238567Y0161651D01*
X0238567Y0163250D02*
X0230767Y0163250D01*
X0233609Y0164848D02*
X0235724Y0164848D01*
X0234667Y0165000D02*
X0234667Y0171800D01*
X0234667Y0171800D01*
X0234667Y0178600D01*
X0234817Y0178600D01*
X0234817Y0183297D01*
X0233886Y0183297D01*
X0233886Y0187570D01*
X0232927Y0187570D01*
X0232927Y0183614D01*
X0232956Y0183602D01*
X0233969Y0182589D01*
X0234517Y0181266D01*
X0234517Y0178600D01*
X0234667Y0178600D01*
X0234667Y0171800D01*
X0234667Y0171800D01*
X0234667Y0165000D01*
X0234667Y0166447D02*
X0234667Y0166447D01*
X0234667Y0168045D02*
X0234667Y0168045D01*
X0234667Y0169644D02*
X0234667Y0169644D01*
X0234667Y0171242D02*
X0234667Y0171242D01*
X0234667Y0172841D02*
X0234667Y0172841D01*
X0234667Y0174439D02*
X0234667Y0174439D01*
X0234667Y0176038D02*
X0234667Y0176038D01*
X0234667Y0177636D02*
X0234667Y0177636D01*
X0234517Y0179235D02*
X0234817Y0179235D01*
X0234817Y0180833D02*
X0234517Y0180833D01*
X0234817Y0182432D02*
X0234034Y0182432D01*
X0233886Y0184030D02*
X0232927Y0184030D01*
X0232927Y0185629D02*
X0233886Y0185629D01*
X0233886Y0187227D02*
X0232927Y0187227D01*
X0233886Y0187570D02*
X0234817Y0187570D01*
X0234817Y0188530D01*
X0233886Y0188530D01*
X0233886Y0187570D01*
X0233886Y0188826D02*
X0232927Y0188826D01*
X0232927Y0190424D02*
X0233886Y0190424D01*
X0233886Y0192023D02*
X0232927Y0192023D01*
X0234863Y0193621D02*
X0192815Y0193621D01*
X0192815Y0195220D02*
X0235525Y0195220D01*
X0236273Y0196818D02*
X0192815Y0196818D01*
X0192815Y0198417D02*
X0237871Y0198417D01*
X0238545Y0199091D02*
X0238545Y0199091D01*
X0240778Y0200015D02*
X0192815Y0200015D01*
X0192631Y0201614D02*
X0245051Y0201614D01*
X0249282Y0201614D02*
X0281702Y0201614D01*
X0281519Y0201171D02*
X0281519Y0192428D01*
X0282378Y0190353D01*
X0283967Y0188764D01*
X0286043Y0187904D01*
X0288290Y0187904D01*
X0290366Y0188764D01*
X0291955Y0190353D01*
X0292484Y0191629D01*
X0292488Y0191614D01*
X0292849Y0190906D01*
X0293316Y0190263D01*
X0293878Y0189702D01*
X0294521Y0189234D01*
X0295229Y0188874D01*
X0295985Y0188628D01*
X0296769Y0188504D01*
X0296884Y0188504D01*
X0296884Y0196517D01*
X0297449Y0196517D01*
X0297449Y0188504D01*
X0297564Y0188504D01*
X0298349Y0188628D01*
X0299104Y0188874D01*
X0299812Y0189234D01*
X0300455Y0189702D01*
X0301017Y0190263D01*
X0301484Y0190906D01*
X0301845Y0191614D01*
X0301850Y0191629D01*
X0302378Y0190353D01*
X0303967Y0188764D01*
X0306043Y0187904D01*
X0308290Y0187904D01*
X0310366Y0188764D01*
X0311955Y0190353D01*
X0312815Y0192428D01*
X0312815Y0201171D01*
X0311955Y0203247D01*
X0310366Y0204836D01*
X0308290Y0205696D01*
X0306043Y0205696D01*
X0303967Y0204836D01*
X0302378Y0203247D01*
X0301850Y0201971D01*
X0301845Y0201986D01*
X0301484Y0202694D01*
X0301017Y0203337D01*
X0300455Y0203898D01*
X0299812Y0204365D01*
X0299104Y0204726D01*
X0298349Y0204972D01*
X0297564Y0205096D01*
X0297449Y0205096D01*
X0297449Y0197083D01*
X0296884Y0197083D01*
X0296884Y0205096D01*
X0296769Y0205096D01*
X0295985Y0204972D01*
X0295229Y0204726D01*
X0294521Y0204365D01*
X0293878Y0203898D01*
X0293316Y0203337D01*
X0292849Y0202694D01*
X0292488Y0201986D01*
X0292484Y0201971D01*
X0291955Y0203247D01*
X0290366Y0204836D01*
X0288290Y0205696D01*
X0286043Y0205696D01*
X0283967Y0204836D01*
X0282378Y0203247D01*
X0281519Y0201171D01*
X0281519Y0200015D02*
X0254806Y0200015D01*
X0257038Y0199091D02*
X0257038Y0199091D01*
X0257712Y0198417D02*
X0281519Y0198417D01*
X0281519Y0196818D02*
X0259311Y0196818D01*
X0260059Y0195220D02*
X0281519Y0195220D01*
X0281519Y0193621D02*
X0260721Y0193621D01*
X0260767Y0192023D02*
X0281687Y0192023D01*
X0282349Y0190424D02*
X0260767Y0190424D01*
X0260767Y0188826D02*
X0283905Y0188826D01*
X0290428Y0188826D02*
X0295376Y0188826D01*
X0296884Y0188826D02*
X0297449Y0188826D01*
X0298957Y0188826D02*
X0303905Y0188826D01*
X0302349Y0190424D02*
X0301134Y0190424D01*
X0297449Y0190424D02*
X0296884Y0190424D01*
X0296884Y0192023D02*
X0297449Y0192023D01*
X0297449Y0193621D02*
X0296884Y0193621D01*
X0296884Y0195220D02*
X0297449Y0195220D01*
X0297449Y0198417D02*
X0296884Y0198417D01*
X0296884Y0200015D02*
X0297449Y0200015D01*
X0297449Y0201614D02*
X0296884Y0201614D01*
X0296884Y0203212D02*
X0297449Y0203212D01*
X0297449Y0204811D02*
X0296884Y0204811D01*
X0295490Y0204811D02*
X0290391Y0204811D01*
X0291969Y0203212D02*
X0293226Y0203212D01*
X0298844Y0204811D02*
X0303942Y0204811D01*
X0302364Y0203212D02*
X0301107Y0203212D01*
X0310391Y0204811D02*
X0333467Y0204811D01*
X0333467Y0206409D02*
X0128022Y0206409D01*
X0127732Y0206700D02*
X0121601Y0206700D01*
X0117267Y0202365D01*
X0117267Y0196235D01*
X0121601Y0191900D01*
X0122267Y0191900D01*
X0122267Y0186235D01*
X0126601Y0181900D01*
X0132732Y0181900D01*
X0137067Y0186235D01*
X0137067Y0192365D01*
X0132732Y0196700D01*
X0132067Y0196700D01*
X0132067Y0202365D01*
X0127732Y0206700D01*
X0129621Y0204811D02*
X0163942Y0204811D01*
X0162364Y0203212D02*
X0131219Y0203212D01*
X0132067Y0201614D02*
X0161702Y0201614D01*
X0161519Y0200015D02*
X0132067Y0200015D01*
X0132067Y0198417D02*
X0161519Y0198417D01*
X0161519Y0196818D02*
X0132067Y0196818D01*
X0134212Y0195220D02*
X0161519Y0195220D01*
X0161519Y0193621D02*
X0135810Y0193621D01*
X0137067Y0192023D02*
X0161687Y0192023D01*
X0162349Y0190424D02*
X0137067Y0190424D01*
X0137067Y0188826D02*
X0163905Y0188826D01*
X0170428Y0188826D02*
X0173905Y0188826D01*
X0172349Y0190424D02*
X0171985Y0190424D01*
X0180428Y0188826D02*
X0182267Y0188826D01*
X0182267Y0190424D02*
X0181985Y0190424D01*
X0182267Y0187227D02*
X0137067Y0187227D01*
X0136461Y0185629D02*
X0182267Y0185629D01*
X0182267Y0184030D02*
X0134862Y0184030D01*
X0133264Y0182432D02*
X0182267Y0182432D01*
X0182267Y0180833D02*
X0115201Y0180833D01*
X0113767Y0179400D02*
X0119567Y0185199D01*
X0119567Y0193401D01*
X0113767Y0199200D01*
X0105566Y0199200D01*
X0099767Y0193401D01*
X0099767Y0185199D01*
X0105566Y0179400D01*
X0113767Y0179400D01*
X0116799Y0182432D02*
X0126070Y0182432D01*
X0124471Y0184030D02*
X0118398Y0184030D01*
X0119567Y0185629D02*
X0122873Y0185629D01*
X0122267Y0187227D02*
X0119567Y0187227D01*
X0119567Y0188826D02*
X0122267Y0188826D01*
X0122267Y0190424D02*
X0119567Y0190424D01*
X0119567Y0192023D02*
X0121479Y0192023D01*
X0119880Y0193621D02*
X0119346Y0193621D01*
X0118282Y0195220D02*
X0117747Y0195220D01*
X0117267Y0196818D02*
X0116149Y0196818D01*
X0117267Y0198417D02*
X0114550Y0198417D01*
X0117267Y0200015D02*
X0102067Y0200015D01*
X0102067Y0198417D02*
X0104783Y0198417D01*
X0103184Y0196818D02*
X0102067Y0196818D01*
X0101586Y0195220D02*
X0101052Y0195220D01*
X0099987Y0193621D02*
X0099453Y0193621D01*
X0099767Y0192023D02*
X0097855Y0192023D01*
X0097067Y0190424D02*
X0099767Y0190424D01*
X0099767Y0188826D02*
X0097067Y0188826D01*
X0097067Y0187227D02*
X0099767Y0187227D01*
X0099767Y0185629D02*
X0096461Y0185629D01*
X0094862Y0184030D02*
X0100936Y0184030D01*
X0102534Y0182432D02*
X0093264Y0182432D01*
X0089667Y0180833D02*
X0104133Y0180833D01*
X0089667Y0179235D02*
X0182267Y0179235D01*
X0182267Y0177636D02*
X0089667Y0177636D01*
X0089667Y0176038D02*
X0182267Y0176038D01*
X0182267Y0174439D02*
X0089667Y0174439D01*
X0089667Y0172841D02*
X0182267Y0172841D01*
X0182267Y0171242D02*
X0089667Y0171242D01*
X0089667Y0169644D02*
X0182267Y0169644D01*
X0182267Y0168045D02*
X0089667Y0168045D01*
X0089667Y0166447D02*
X0182267Y0166447D01*
X0182267Y0164848D02*
X0089667Y0164848D01*
X0089667Y0163250D02*
X0182267Y0163250D01*
X0182267Y0161651D02*
X0089667Y0161651D01*
X0089667Y0160053D02*
X0182267Y0160053D01*
X0182267Y0158454D02*
X0089667Y0158454D01*
X0089667Y0156856D02*
X0182267Y0156856D01*
X0182267Y0155257D02*
X0089667Y0155257D01*
X0089667Y0153659D02*
X0182267Y0153659D01*
X0182267Y0152060D02*
X0089667Y0152060D01*
X0089667Y0150462D02*
X0182267Y0150462D01*
X0182267Y0148863D02*
X0089667Y0148863D01*
X0089667Y0147265D02*
X0182267Y0147265D01*
X0182267Y0145666D02*
X0089667Y0145666D01*
X0089667Y0144068D02*
X0182267Y0144068D01*
X0182267Y0142469D02*
X0089667Y0142469D01*
X0063567Y0142469D02*
X0058217Y0142469D01*
X0058267Y0142589D02*
X0058267Y0160433D01*
X0058366Y0160673D01*
X0058366Y0167927D01*
X0058000Y0168809D01*
X0057325Y0169484D01*
X0057017Y0169612D01*
X0057017Y0170016D01*
X0056469Y0171339D01*
X0055456Y0172352D01*
X0054133Y0172900D01*
X0029667Y0172900D01*
X0029394Y0172927D01*
X0028889Y0173136D01*
X0028503Y0173522D01*
X0028294Y0174027D01*
X0028267Y0174300D01*
X0028267Y0178511D01*
X0026957Y0181671D01*
X0026957Y0181672D01*
X0024538Y0184091D01*
X0021377Y0185400D01*
X0019667Y0185400D01*
X0019394Y0185427D01*
X0018889Y0185636D01*
X0018503Y0186022D01*
X0018294Y0186527D01*
X0018267Y0186800D01*
X0018267Y0188452D01*
X0019667Y0189852D01*
X0021300Y0188218D01*
X0023484Y0187313D01*
X0025849Y0187313D01*
X0028033Y0188218D01*
X0029705Y0189890D01*
X0030610Y0192074D01*
X0030610Y0193200D01*
X0031617Y0193200D01*
X0031617Y0187523D01*
X0031982Y0186641D01*
X0032658Y0185966D01*
X0033540Y0185601D01*
X0040794Y0185601D01*
X0040932Y0185658D01*
X0042461Y0184129D01*
X0042461Y0184129D01*
X0044703Y0183200D01*
X0059667Y0183200D01*
X0060277Y0183152D01*
X0061437Y0182775D01*
X0062424Y0182058D01*
X0063142Y0181071D01*
X0063519Y0179910D01*
X0063567Y0179300D01*
X0063567Y0165156D01*
X0063351Y0164941D01*
X0062986Y0164058D01*
X0062986Y0159541D01*
X0063351Y0158659D01*
X0063567Y0158444D01*
X0063567Y0135386D01*
X0063294Y0135499D01*
X0056040Y0135499D01*
X0055158Y0135134D01*
X0054482Y0134459D01*
X0054350Y0134140D01*
X0053407Y0134140D01*
X0053134Y0134167D01*
X0052629Y0134376D01*
X0052607Y0134398D01*
X0053000Y0134791D01*
X0053366Y0135673D01*
X0053366Y0136524D01*
X0054538Y0137009D01*
X0056957Y0139428D01*
X0056957Y0139428D01*
X0058267Y0142589D01*
X0058267Y0144068D02*
X0063567Y0144068D01*
X0063567Y0145666D02*
X0058267Y0145666D01*
X0058267Y0147265D02*
X0063567Y0147265D01*
X0063567Y0148863D02*
X0058267Y0148863D01*
X0058267Y0150462D02*
X0063567Y0150462D01*
X0063567Y0152060D02*
X0058267Y0152060D01*
X0058267Y0153659D02*
X0063567Y0153659D01*
X0063567Y0155257D02*
X0058267Y0155257D01*
X0058267Y0156856D02*
X0063567Y0156856D01*
X0063556Y0158454D02*
X0058267Y0158454D01*
X0058267Y0160053D02*
X0062986Y0160053D01*
X0062986Y0161651D02*
X0058366Y0161651D01*
X0058366Y0163250D02*
X0062986Y0163250D01*
X0063313Y0164848D02*
X0058366Y0164848D01*
X0058366Y0166447D02*
X0063567Y0166447D01*
X0063567Y0168045D02*
X0058317Y0168045D01*
X0057017Y0169644D02*
X0063567Y0169644D01*
X0063567Y0171242D02*
X0056509Y0171242D01*
X0054276Y0172841D02*
X0063567Y0172841D01*
X0063567Y0174439D02*
X0028267Y0174439D01*
X0028267Y0176038D02*
X0063567Y0176038D01*
X0063567Y0177636D02*
X0028267Y0177636D01*
X0027967Y0179235D02*
X0063567Y0179235D01*
X0063219Y0180833D02*
X0027305Y0180833D01*
X0026197Y0182432D02*
X0061910Y0182432D01*
X0042699Y0184030D02*
X0024599Y0184030D01*
X0024538Y0184091D02*
X0024538Y0184091D01*
X0024538Y0184091D01*
X0018906Y0185629D02*
X0033472Y0185629D01*
X0031740Y0187227D02*
X0018267Y0187227D01*
X0018641Y0188826D02*
X0020692Y0188826D01*
X0028641Y0188826D02*
X0031617Y0188826D01*
X0031617Y0190424D02*
X0029926Y0190424D01*
X0030589Y0192023D02*
X0031617Y0192023D01*
X0040861Y0185629D02*
X0040961Y0185629D01*
X0042716Y0195220D02*
X0043723Y0195220D01*
X0043723Y0196818D02*
X0042716Y0196818D01*
X0042716Y0198417D02*
X0043723Y0198417D01*
X0043723Y0200015D02*
X0042716Y0200015D01*
X0042494Y0201614D02*
X0043760Y0201614D01*
X0044422Y0203212D02*
X0029911Y0203212D01*
X0030573Y0201614D02*
X0031840Y0201614D01*
X0028604Y0204811D02*
X0045729Y0204811D01*
X0053604Y0204811D02*
X0055729Y0204811D01*
X0065573Y0201614D02*
X0066840Y0201614D01*
X0085917Y0208008D02*
X0002167Y0208008D01*
X0018604Y0204811D02*
X0020729Y0204811D01*
X0015048Y0179235D02*
X0014286Y0179235D01*
X0014286Y0177636D02*
X0015048Y0177636D01*
X0015048Y0176038D02*
X0014286Y0176038D01*
X0014285Y0174439D02*
X0002167Y0174439D01*
X0014286Y0153659D02*
X0015048Y0153659D01*
X0015048Y0152060D02*
X0014286Y0152060D01*
X0014286Y0150462D02*
X0015048Y0150462D01*
X0022801Y0152060D02*
X0022947Y0152060D01*
X0026687Y0152060D02*
X0027646Y0152060D01*
X0027646Y0152399D02*
X0027646Y0148520D01*
X0032116Y0148520D01*
X0032116Y0150836D01*
X0031994Y0151294D01*
X0031757Y0151704D01*
X0031421Y0152040D01*
X0031011Y0152277D01*
X0030553Y0152399D01*
X0027646Y0152399D01*
X0027646Y0150462D02*
X0026687Y0150462D01*
X0026687Y0148863D02*
X0027646Y0148863D01*
X0032116Y0148863D02*
X0051067Y0148863D01*
X0051067Y0147265D02*
X0032116Y0147265D01*
X0032116Y0145666D02*
X0051067Y0145666D01*
X0051067Y0150462D02*
X0032116Y0150462D01*
X0031386Y0152060D02*
X0051067Y0152060D01*
X0041224Y0160053D02*
X0040609Y0160053D01*
X0057555Y0140870D02*
X0063567Y0140870D01*
X0063567Y0139272D02*
X0056801Y0139272D01*
X0055202Y0137673D02*
X0063567Y0137673D01*
X0063567Y0136075D02*
X0053366Y0136075D01*
X0054538Y0137009D02*
X0054538Y0137009D01*
X0054500Y0134476D02*
X0052686Y0134476D01*
X0036647Y0134476D02*
X0032333Y0134476D01*
X0031785Y0136075D02*
X0035967Y0136075D01*
X0022000Y0134476D02*
X0021791Y0134476D01*
X0015048Y0123287D02*
X0014286Y0123287D01*
X0014286Y0121688D02*
X0015048Y0121688D01*
X0015048Y0120090D02*
X0014286Y0120090D01*
X0027167Y0113139D02*
X0027167Y0113040D01*
X0027167Y0113139D02*
X0035346Y0113139D01*
X0035346Y0110580D02*
X0039696Y0110580D01*
X0040917Y0110580D01*
X0039696Y0110580D02*
X0039687Y0110579D01*
X0039678Y0110574D01*
X0039672Y0110568D01*
X0039667Y0110559D01*
X0039666Y0110550D01*
X0039667Y0110550D02*
X0048417Y0110550D01*
X0045917Y0110580D02*
X0051488Y0110580D01*
X0051488Y0113139D02*
X0059667Y0113139D01*
X0059667Y0113040D01*
X0051488Y0108020D02*
X0048417Y0108020D01*
X0048349Y0108018D01*
X0048282Y0108013D01*
X0048215Y0108004D01*
X0048148Y0107991D01*
X0048083Y0107974D01*
X0048018Y0107955D01*
X0047954Y0107931D01*
X0047892Y0107904D01*
X0047831Y0107874D01*
X0047773Y0107841D01*
X0047716Y0107805D01*
X0047661Y0107765D01*
X0047608Y0107723D01*
X0047557Y0107677D01*
X0047510Y0107630D01*
X0047464Y0107579D01*
X0047422Y0107526D01*
X0047382Y0107471D01*
X0047346Y0107414D01*
X0047313Y0107356D01*
X0047283Y0107295D01*
X0047256Y0107233D01*
X0047232Y0107169D01*
X0047213Y0107104D01*
X0047196Y0107039D01*
X0047183Y0106972D01*
X0047174Y0106905D01*
X0047169Y0106838D01*
X0047167Y0106770D01*
X0047167Y0103050D01*
X0047091Y0103315D02*
X0047766Y0102639D01*
X0048648Y0102274D01*
X0050821Y0102274D01*
X0050851Y0102261D01*
X0054226Y0102261D01*
X0054482Y0101641D01*
X0054571Y0101553D01*
X0053886Y0101553D01*
X0053886Y0097280D01*
X0052927Y0097280D01*
X0052927Y0101553D01*
X0050611Y0101553D01*
X0050192Y0101441D01*
X0049845Y0101787D01*
X0048963Y0102153D01*
X0046617Y0102153D01*
X0046617Y0107350D01*
X0046984Y0107350D01*
X0046725Y0106726D01*
X0046725Y0104197D01*
X0047091Y0103315D01*
X0046763Y0104105D02*
X0046617Y0104105D01*
X0046617Y0105703D02*
X0046725Y0105703D01*
X0046617Y0107302D02*
X0046964Y0107302D01*
X0045917Y0110580D02*
X0045819Y0110578D01*
X0045721Y0110572D01*
X0045623Y0110563D01*
X0045526Y0110549D01*
X0045429Y0110532D01*
X0045333Y0110511D01*
X0045238Y0110486D01*
X0045144Y0110458D01*
X0045052Y0110425D01*
X0044960Y0110390D01*
X0044870Y0110350D01*
X0044782Y0110308D01*
X0044695Y0110261D01*
X0044611Y0110212D01*
X0044528Y0110159D01*
X0044448Y0110103D01*
X0044369Y0110043D01*
X0044293Y0109981D01*
X0044220Y0109916D01*
X0044149Y0109848D01*
X0044081Y0109777D01*
X0044016Y0109704D01*
X0043954Y0109628D01*
X0043894Y0109549D01*
X0043838Y0109469D01*
X0043785Y0109386D01*
X0043736Y0109302D01*
X0043689Y0109215D01*
X0043647Y0109127D01*
X0043607Y0109037D01*
X0043572Y0108945D01*
X0043539Y0108853D01*
X0043511Y0108759D01*
X0043486Y0108664D01*
X0043465Y0108568D01*
X0043448Y0108471D01*
X0043434Y0108374D01*
X0043425Y0108276D01*
X0043419Y0108178D01*
X0043417Y0108080D01*
X0043417Y0098050D01*
X0043419Y0097982D01*
X0043424Y0097915D01*
X0043433Y0097848D01*
X0043446Y0097781D01*
X0043463Y0097716D01*
X0043482Y0097651D01*
X0043506Y0097587D01*
X0043533Y0097525D01*
X0043563Y0097464D01*
X0043596Y0097406D01*
X0043632Y0097349D01*
X0043672Y0097294D01*
X0043714Y0097241D01*
X0043760Y0097190D01*
X0043807Y0097143D01*
X0043858Y0097097D01*
X0043911Y0097055D01*
X0043966Y0097015D01*
X0044023Y0096979D01*
X0044081Y0096946D01*
X0044142Y0096916D01*
X0044204Y0096889D01*
X0044268Y0096865D01*
X0044333Y0096846D01*
X0044398Y0096829D01*
X0044465Y0096816D01*
X0044532Y0096807D01*
X0044599Y0096802D01*
X0044667Y0096800D01*
X0045927Y0096800D01*
X0049657Y0090550D02*
X0049778Y0090552D01*
X0049898Y0090558D01*
X0050018Y0090567D01*
X0050138Y0090581D01*
X0050257Y0090598D01*
X0050376Y0090619D01*
X0050494Y0090644D01*
X0050611Y0090673D01*
X0050727Y0090706D01*
X0050842Y0090742D01*
X0050955Y0090782D01*
X0051068Y0090825D01*
X0051179Y0090872D01*
X0051288Y0090923D01*
X0051396Y0090977D01*
X0051502Y0091034D01*
X0051606Y0091095D01*
X0051708Y0091160D01*
X0051808Y0091227D01*
X0051905Y0091298D01*
X0052001Y0091371D01*
X0052094Y0091448D01*
X0052184Y0091528D01*
X0052272Y0091610D01*
X0052357Y0091695D01*
X0052439Y0091783D01*
X0052519Y0091874D01*
X0052595Y0091967D01*
X0052669Y0092063D01*
X0052739Y0092161D01*
X0052807Y0092261D01*
X0052871Y0092363D01*
X0052931Y0092467D01*
X0052989Y0092573D01*
X0053042Y0092681D01*
X0053093Y0092790D01*
X0053140Y0092901D01*
X0053183Y0093014D01*
X0053223Y0093128D01*
X0053259Y0093243D01*
X0053291Y0093359D01*
X0053319Y0093476D01*
X0053344Y0093594D01*
X0053365Y0093712D01*
X0053382Y0093832D01*
X0053395Y0093952D01*
X0053405Y0094072D01*
X0053410Y0094192D01*
X0053412Y0094313D01*
X0053412Y0094312D02*
X0053407Y0096800D01*
X0053600Y0100484D01*
X0053886Y0100908D02*
X0052927Y0100908D01*
X0053600Y0100484D02*
X0053602Y0100554D01*
X0053600Y0100624D01*
X0053594Y0100694D01*
X0053584Y0100763D01*
X0053570Y0100832D01*
X0053552Y0100899D01*
X0053531Y0100966D01*
X0053506Y0101031D01*
X0053477Y0101095D01*
X0053445Y0101157D01*
X0053409Y0101217D01*
X0053370Y0101276D01*
X0053328Y0101331D01*
X0053282Y0101385D01*
X0053234Y0101435D01*
X0053183Y0101483D01*
X0053130Y0101528D01*
X0053074Y0101570D01*
X0053016Y0101609D01*
X0052955Y0101645D01*
X0052893Y0101677D01*
X0052829Y0101705D01*
X0052764Y0101730D01*
X0052697Y0101751D01*
X0052630Y0101769D01*
X0052561Y0101782D01*
X0052492Y0101792D01*
X0052422Y0101798D01*
X0052352Y0101800D01*
X0048417Y0101800D01*
X0048087Y0102506D02*
X0046617Y0102506D01*
X0047167Y0103050D02*
X0047169Y0102982D01*
X0047174Y0102915D01*
X0047183Y0102848D01*
X0047196Y0102781D01*
X0047213Y0102716D01*
X0047232Y0102651D01*
X0047256Y0102587D01*
X0047283Y0102525D01*
X0047313Y0102464D01*
X0047346Y0102406D01*
X0047382Y0102349D01*
X0047422Y0102294D01*
X0047464Y0102241D01*
X0047510Y0102190D01*
X0047557Y0102143D01*
X0047608Y0102097D01*
X0047661Y0102055D01*
X0047716Y0102015D01*
X0047773Y0101979D01*
X0047831Y0101946D01*
X0047892Y0101916D01*
X0047954Y0101889D01*
X0048018Y0101865D01*
X0048083Y0101846D01*
X0048148Y0101829D01*
X0048215Y0101816D01*
X0048282Y0101807D01*
X0048349Y0101802D01*
X0048417Y0101800D01*
X0051488Y0105461D02*
X0059096Y0105461D01*
X0059667Y0104300D01*
X0059667Y0069300D01*
X0064480Y0075550D02*
X0065917Y0075550D01*
X0067167Y0075550D02*
X0067167Y0064300D01*
X0063417Y0059925D02*
X0063417Y0035550D01*
X0057167Y0031800D02*
X0057169Y0031660D01*
X0057175Y0031520D01*
X0057185Y0031380D01*
X0057198Y0031240D01*
X0057216Y0031101D01*
X0057238Y0030962D01*
X0057263Y0030825D01*
X0057292Y0030687D01*
X0057325Y0030551D01*
X0057362Y0030416D01*
X0057403Y0030282D01*
X0057448Y0030149D01*
X0057496Y0030017D01*
X0057548Y0029887D01*
X0057603Y0029758D01*
X0057662Y0029631D01*
X0057725Y0029505D01*
X0057791Y0029381D01*
X0057860Y0029260D01*
X0057933Y0029140D01*
X0058010Y0029022D01*
X0058089Y0028907D01*
X0058172Y0028793D01*
X0058258Y0028683D01*
X0058347Y0028574D01*
X0058439Y0028468D01*
X0058534Y0028365D01*
X0058631Y0028264D01*
X0058732Y0028167D01*
X0058835Y0028072D01*
X0058941Y0027980D01*
X0059050Y0027891D01*
X0059160Y0027805D01*
X0059274Y0027722D01*
X0059389Y0027643D01*
X0059507Y0027566D01*
X0059627Y0027493D01*
X0059748Y0027424D01*
X0059872Y0027358D01*
X0059998Y0027295D01*
X0060125Y0027236D01*
X0060254Y0027181D01*
X0060384Y0027129D01*
X0060516Y0027081D01*
X0060649Y0027036D01*
X0060783Y0026995D01*
X0060918Y0026958D01*
X0061054Y0026925D01*
X0061192Y0026896D01*
X0061329Y0026871D01*
X0061468Y0026849D01*
X0061607Y0026831D01*
X0061747Y0026818D01*
X0061887Y0026808D01*
X0062027Y0026802D01*
X0062167Y0026800D01*
X0057167Y0031800D02*
X0057167Y0059300D01*
X0053967Y0057619D02*
X0053967Y0041800D01*
X0042542Y0041800D01*
X0043551Y0043549D01*
X0043992Y0045195D01*
X0044083Y0045104D01*
X0044494Y0044867D01*
X0044951Y0044744D01*
X0047071Y0044744D01*
X0047071Y0049017D01*
X0047636Y0049017D01*
X0047636Y0044744D01*
X0049756Y0044744D01*
X0050214Y0044867D01*
X0050624Y0045104D01*
X0050959Y0045439D01*
X0051196Y0045849D01*
X0051319Y0046307D01*
X0051319Y0049017D01*
X0047636Y0049017D01*
X0047636Y0049583D01*
X0047071Y0049583D01*
X0047071Y0053856D01*
X0044951Y0053856D01*
X0044797Y0053814D01*
X0045098Y0054541D01*
X0045098Y0059058D01*
X0044732Y0059941D01*
X0044057Y0060616D01*
X0043175Y0060981D01*
X0040367Y0060981D01*
X0040367Y0090119D01*
X0041925Y0090119D01*
X0042807Y0090484D01*
X0043482Y0091159D01*
X0043602Y0091447D01*
X0048963Y0091447D01*
X0049845Y0091813D01*
X0050192Y0092159D01*
X0050611Y0092047D01*
X0052927Y0092047D01*
X0052927Y0096320D01*
X0053886Y0096320D01*
X0053886Y0092047D01*
X0056203Y0092047D01*
X0056467Y0092118D01*
X0056467Y0087250D01*
X0056225Y0087492D01*
X0055814Y0087729D01*
X0055356Y0087852D01*
X0052843Y0087852D01*
X0052843Y0082890D01*
X0051490Y0082890D01*
X0051490Y0081537D01*
X0047414Y0081537D01*
X0047414Y0078138D01*
X0047537Y0077680D01*
X0047774Y0077270D01*
X0047819Y0077224D01*
X0047179Y0076585D01*
X0046814Y0075703D01*
X0046814Y0067071D01*
X0047179Y0066189D01*
X0047854Y0065513D01*
X0048737Y0065148D01*
X0049808Y0065148D01*
X0049601Y0064941D01*
X0049236Y0064058D01*
X0049236Y0059541D01*
X0049601Y0058659D01*
X0050276Y0057984D01*
X0051158Y0057619D01*
X0053967Y0057619D01*
X0053967Y0056149D02*
X0045098Y0056149D01*
X0045098Y0054551D02*
X0053967Y0054551D01*
X0053967Y0052952D02*
X0051080Y0052952D01*
X0051196Y0052751D02*
X0050959Y0053161D01*
X0050624Y0053496D01*
X0050214Y0053733D01*
X0049756Y0053856D01*
X0047636Y0053856D01*
X0047636Y0049583D01*
X0051319Y0049583D01*
X0051319Y0052293D01*
X0051196Y0052751D01*
X0051319Y0051354D02*
X0053967Y0051354D01*
X0053967Y0049755D02*
X0051319Y0049755D01*
X0051319Y0048157D02*
X0053967Y0048157D01*
X0053967Y0046558D02*
X0051319Y0046558D01*
X0050375Y0044960D02*
X0053967Y0044960D01*
X0053967Y0043361D02*
X0043443Y0043361D01*
X0043551Y0043549D02*
X0043551Y0043549D01*
X0043929Y0044960D02*
X0044332Y0044960D01*
X0047071Y0044960D02*
X0047636Y0044960D01*
X0047636Y0046558D02*
X0047071Y0046558D01*
X0047071Y0048157D02*
X0047636Y0048157D01*
X0047354Y0049300D02*
X0047167Y0049300D01*
X0047167Y0061800D01*
X0049236Y0062543D02*
X0040367Y0062543D01*
X0040367Y0064142D02*
X0049270Y0064142D01*
X0047627Y0065740D02*
X0040367Y0065740D01*
X0040367Y0067339D02*
X0046814Y0067339D01*
X0046814Y0068937D02*
X0040367Y0068937D01*
X0040367Y0070536D02*
X0046814Y0070536D01*
X0046814Y0072134D02*
X0040367Y0072134D01*
X0040367Y0073733D02*
X0046814Y0073733D01*
X0046814Y0075332D02*
X0040367Y0075332D01*
X0040367Y0076930D02*
X0047525Y0076930D01*
X0047414Y0078529D02*
X0040367Y0078529D01*
X0040367Y0080127D02*
X0047414Y0080127D01*
X0047414Y0082890D02*
X0051490Y0082890D01*
X0051490Y0087852D01*
X0048977Y0087852D01*
X0048519Y0087729D01*
X0048109Y0087492D01*
X0047774Y0087157D01*
X0047537Y0086747D01*
X0047414Y0086289D01*
X0047414Y0082890D01*
X0047414Y0083324D02*
X0040367Y0083324D01*
X0040367Y0081726D02*
X0051490Y0081726D01*
X0052167Y0081800D02*
X0052167Y0082213D01*
X0052167Y0088040D01*
X0052843Y0086521D02*
X0051490Y0086521D01*
X0051490Y0084923D02*
X0052843Y0084923D01*
X0052843Y0083324D02*
X0051490Y0083324D01*
X0047414Y0084923D02*
X0040367Y0084923D01*
X0040367Y0086521D02*
X0047476Y0086521D01*
X0049657Y0090550D02*
X0049756Y0090548D01*
X0049854Y0090542D01*
X0049952Y0090533D01*
X0050050Y0090519D01*
X0050147Y0090502D01*
X0050243Y0090481D01*
X0050338Y0090456D01*
X0050433Y0090427D01*
X0050526Y0090395D01*
X0050618Y0090359D01*
X0050708Y0090319D01*
X0050797Y0090276D01*
X0050883Y0090230D01*
X0050968Y0090180D01*
X0051051Y0090127D01*
X0051132Y0090071D01*
X0051211Y0090011D01*
X0051287Y0089949D01*
X0051361Y0089883D01*
X0051432Y0089815D01*
X0051500Y0089744D01*
X0051566Y0089670D01*
X0051628Y0089594D01*
X0051688Y0089515D01*
X0051744Y0089434D01*
X0051797Y0089351D01*
X0051847Y0089266D01*
X0051893Y0089180D01*
X0051936Y0089091D01*
X0051976Y0089001D01*
X0052012Y0088909D01*
X0052044Y0088816D01*
X0052073Y0088721D01*
X0052098Y0088626D01*
X0052119Y0088530D01*
X0052136Y0088433D01*
X0052150Y0088335D01*
X0052159Y0088237D01*
X0052165Y0088139D01*
X0052167Y0088040D01*
X0056467Y0088120D02*
X0040367Y0088120D01*
X0040367Y0089718D02*
X0056467Y0089718D01*
X0056467Y0091317D02*
X0043547Y0091317D01*
X0039667Y0094300D02*
X0038417Y0094300D01*
X0039667Y0094300D02*
X0039667Y0106770D01*
X0039665Y0106838D01*
X0039660Y0106905D01*
X0039651Y0106972D01*
X0039638Y0107039D01*
X0039621Y0107104D01*
X0039602Y0107169D01*
X0039578Y0107233D01*
X0039551Y0107295D01*
X0039521Y0107356D01*
X0039488Y0107414D01*
X0039452Y0107471D01*
X0039412Y0107526D01*
X0039370Y0107579D01*
X0039324Y0107630D01*
X0039277Y0107677D01*
X0039226Y0107723D01*
X0039173Y0107765D01*
X0039118Y0107805D01*
X0039061Y0107841D01*
X0039003Y0107874D01*
X0038942Y0107904D01*
X0038880Y0107931D01*
X0038816Y0107955D01*
X0038751Y0107974D01*
X0038686Y0107991D01*
X0038619Y0108004D01*
X0038552Y0108013D01*
X0038485Y0108018D01*
X0038417Y0108020D01*
X0035346Y0108020D01*
X0035346Y0105461D02*
X0027167Y0105461D01*
X0027167Y0105560D01*
X0021617Y0104105D02*
X0021198Y0104105D01*
X0021624Y0102506D02*
X0002167Y0102506D01*
X0002167Y0100908D02*
X0022799Y0100908D01*
X0020085Y0099309D02*
X0036467Y0099309D01*
X0036467Y0100908D02*
X0031535Y0100908D01*
X0036121Y0097711D02*
X0022337Y0097711D01*
X0023239Y0096112D02*
X0035046Y0096112D01*
X0037167Y0093050D02*
X0037167Y0049300D01*
X0039480Y0049300D01*
X0039480Y0056800D01*
X0040917Y0056800D01*
X0045098Y0057748D02*
X0050847Y0057748D01*
X0049316Y0059346D02*
X0044978Y0059346D01*
X0043262Y0060945D02*
X0049236Y0060945D01*
X0047636Y0052952D02*
X0047071Y0052952D01*
X0047071Y0051354D02*
X0047636Y0051354D01*
X0047636Y0049755D02*
X0047071Y0049755D01*
X0053967Y0035369D02*
X0035244Y0035369D01*
X0046114Y0025778D02*
X0050719Y0025778D01*
X0048909Y0024179D02*
X0047924Y0024179D01*
X0048408Y0012990D02*
X0048425Y0012990D01*
X0049439Y0011391D02*
X0047394Y0011391D01*
X0057394Y0011391D02*
X0059439Y0011391D01*
X0058425Y0012990D02*
X0058408Y0012990D01*
X0081467Y0008194D02*
X0002167Y0008194D01*
X0002167Y0006596D02*
X0081911Y0006596D01*
X0082573Y0004997D02*
X0002167Y0004997D01*
X0014894Y0011391D02*
X0016939Y0011391D01*
X0015925Y0012990D02*
X0015908Y0012990D01*
X0024894Y0011391D02*
X0027787Y0011391D01*
X0026579Y0012990D02*
X0025908Y0012990D01*
X0068417Y0030550D02*
X0089667Y0030550D01*
X0089807Y0030548D01*
X0089947Y0030542D01*
X0090087Y0030532D01*
X0090227Y0030519D01*
X0090366Y0030501D01*
X0090505Y0030479D01*
X0090642Y0030454D01*
X0090780Y0030425D01*
X0090916Y0030392D01*
X0091051Y0030355D01*
X0091185Y0030314D01*
X0091318Y0030269D01*
X0091450Y0030221D01*
X0091580Y0030169D01*
X0091709Y0030114D01*
X0091836Y0030055D01*
X0091962Y0029992D01*
X0092086Y0029926D01*
X0092207Y0029857D01*
X0092327Y0029784D01*
X0092445Y0029707D01*
X0092560Y0029628D01*
X0092674Y0029545D01*
X0092784Y0029459D01*
X0092893Y0029370D01*
X0092999Y0029278D01*
X0093102Y0029183D01*
X0093203Y0029086D01*
X0093300Y0028985D01*
X0093395Y0028882D01*
X0093487Y0028776D01*
X0093576Y0028667D01*
X0093662Y0028557D01*
X0093745Y0028443D01*
X0093824Y0028328D01*
X0093901Y0028210D01*
X0093974Y0028090D01*
X0094043Y0027969D01*
X0094109Y0027845D01*
X0094172Y0027719D01*
X0094231Y0027592D01*
X0094286Y0027463D01*
X0094338Y0027333D01*
X0094386Y0027201D01*
X0094431Y0027068D01*
X0094472Y0026934D01*
X0094509Y0026799D01*
X0094542Y0026663D01*
X0094571Y0026525D01*
X0094596Y0026388D01*
X0094618Y0026249D01*
X0094636Y0026110D01*
X0094649Y0025970D01*
X0094659Y0025830D01*
X0094665Y0025690D01*
X0094667Y0025550D01*
X0094667Y0011190D01*
X0099667Y0009300D02*
X0099665Y0009160D01*
X0099659Y0009020D01*
X0099649Y0008880D01*
X0099636Y0008740D01*
X0099618Y0008601D01*
X0099596Y0008462D01*
X0099571Y0008325D01*
X0099542Y0008187D01*
X0099509Y0008051D01*
X0099472Y0007916D01*
X0099431Y0007782D01*
X0099386Y0007649D01*
X0099338Y0007517D01*
X0099286Y0007387D01*
X0099231Y0007258D01*
X0099172Y0007131D01*
X0099109Y0007005D01*
X0099043Y0006881D01*
X0098974Y0006760D01*
X0098901Y0006640D01*
X0098824Y0006522D01*
X0098745Y0006407D01*
X0098662Y0006293D01*
X0098576Y0006183D01*
X0098487Y0006074D01*
X0098395Y0005968D01*
X0098300Y0005865D01*
X0098203Y0005764D01*
X0098102Y0005667D01*
X0097999Y0005572D01*
X0097893Y0005480D01*
X0097784Y0005391D01*
X0097674Y0005305D01*
X0097560Y0005222D01*
X0097445Y0005143D01*
X0097327Y0005066D01*
X0097207Y0004993D01*
X0097086Y0004924D01*
X0096962Y0004858D01*
X0096836Y0004795D01*
X0096709Y0004736D01*
X0096580Y0004681D01*
X0096450Y0004629D01*
X0096318Y0004581D01*
X0096185Y0004536D01*
X0096051Y0004495D01*
X0095916Y0004458D01*
X0095780Y0004425D01*
X0095642Y0004396D01*
X0095505Y0004371D01*
X0095366Y0004349D01*
X0095227Y0004331D01*
X0095087Y0004318D01*
X0094947Y0004308D01*
X0094807Y0004302D01*
X0094667Y0004300D01*
X0089667Y0004300D01*
X0089527Y0004302D01*
X0089387Y0004308D01*
X0089247Y0004318D01*
X0089107Y0004331D01*
X0088968Y0004349D01*
X0088829Y0004371D01*
X0088692Y0004396D01*
X0088554Y0004425D01*
X0088418Y0004458D01*
X0088283Y0004495D01*
X0088149Y0004536D01*
X0088016Y0004581D01*
X0087884Y0004629D01*
X0087754Y0004681D01*
X0087625Y0004736D01*
X0087498Y0004795D01*
X0087372Y0004858D01*
X0087248Y0004924D01*
X0087127Y0004993D01*
X0087007Y0005066D01*
X0086889Y0005143D01*
X0086774Y0005222D01*
X0086660Y0005305D01*
X0086550Y0005391D01*
X0086441Y0005480D01*
X0086335Y0005572D01*
X0086232Y0005667D01*
X0086131Y0005764D01*
X0086034Y0005865D01*
X0085939Y0005968D01*
X0085847Y0006074D01*
X0085758Y0006183D01*
X0085672Y0006293D01*
X0085589Y0006407D01*
X0085510Y0006522D01*
X0085433Y0006640D01*
X0085360Y0006760D01*
X0085291Y0006881D01*
X0085225Y0007005D01*
X0085162Y0007131D01*
X0085103Y0007258D01*
X0085048Y0007387D01*
X0084996Y0007517D01*
X0084948Y0007649D01*
X0084903Y0007782D01*
X0084862Y0007916D01*
X0084825Y0008051D01*
X0084792Y0008187D01*
X0084763Y0008325D01*
X0084738Y0008462D01*
X0084716Y0008601D01*
X0084698Y0008740D01*
X0084685Y0008880D01*
X0084675Y0009020D01*
X0084669Y0009160D01*
X0084667Y0009300D01*
X0084667Y0021800D01*
X0077167Y0034300D02*
X0099667Y0034300D01*
X0099807Y0034298D01*
X0099947Y0034292D01*
X0100087Y0034282D01*
X0100227Y0034269D01*
X0100366Y0034251D01*
X0100505Y0034229D01*
X0100642Y0034204D01*
X0100780Y0034175D01*
X0100916Y0034142D01*
X0101051Y0034105D01*
X0101185Y0034064D01*
X0101318Y0034019D01*
X0101450Y0033971D01*
X0101580Y0033919D01*
X0101709Y0033864D01*
X0101836Y0033805D01*
X0101962Y0033742D01*
X0102086Y0033676D01*
X0102207Y0033607D01*
X0102327Y0033534D01*
X0102445Y0033457D01*
X0102560Y0033378D01*
X0102674Y0033295D01*
X0102784Y0033209D01*
X0102893Y0033120D01*
X0102999Y0033028D01*
X0103102Y0032933D01*
X0103203Y0032836D01*
X0103300Y0032735D01*
X0103395Y0032632D01*
X0103487Y0032526D01*
X0103576Y0032417D01*
X0103662Y0032307D01*
X0103745Y0032193D01*
X0103824Y0032078D01*
X0103901Y0031960D01*
X0103974Y0031840D01*
X0104043Y0031719D01*
X0104109Y0031595D01*
X0104172Y0031469D01*
X0104231Y0031342D01*
X0104286Y0031213D01*
X0104338Y0031083D01*
X0104386Y0030951D01*
X0104431Y0030818D01*
X0104472Y0030684D01*
X0104509Y0030549D01*
X0104542Y0030413D01*
X0104571Y0030275D01*
X0104596Y0030138D01*
X0104618Y0029999D01*
X0104636Y0029860D01*
X0104649Y0029720D01*
X0104659Y0029580D01*
X0104665Y0029440D01*
X0104667Y0029300D01*
X0104667Y0011190D01*
X0099667Y0011190D02*
X0099667Y0009300D01*
X0068417Y0030550D02*
X0068277Y0030552D01*
X0068137Y0030558D01*
X0067997Y0030568D01*
X0067857Y0030581D01*
X0067718Y0030599D01*
X0067579Y0030621D01*
X0067442Y0030646D01*
X0067304Y0030675D01*
X0067168Y0030708D01*
X0067033Y0030745D01*
X0066899Y0030786D01*
X0066766Y0030831D01*
X0066634Y0030879D01*
X0066504Y0030931D01*
X0066375Y0030986D01*
X0066248Y0031045D01*
X0066122Y0031108D01*
X0065998Y0031174D01*
X0065877Y0031243D01*
X0065757Y0031316D01*
X0065639Y0031393D01*
X0065524Y0031472D01*
X0065410Y0031555D01*
X0065300Y0031641D01*
X0065191Y0031730D01*
X0065085Y0031822D01*
X0064982Y0031917D01*
X0064881Y0032014D01*
X0064784Y0032115D01*
X0064689Y0032218D01*
X0064597Y0032324D01*
X0064508Y0032433D01*
X0064422Y0032543D01*
X0064339Y0032657D01*
X0064260Y0032772D01*
X0064183Y0032890D01*
X0064110Y0033010D01*
X0064041Y0033131D01*
X0063975Y0033255D01*
X0063912Y0033381D01*
X0063853Y0033508D01*
X0063798Y0033637D01*
X0063746Y0033767D01*
X0063698Y0033899D01*
X0063653Y0034032D01*
X0063612Y0034166D01*
X0063575Y0034301D01*
X0063542Y0034437D01*
X0063513Y0034575D01*
X0063488Y0034712D01*
X0063466Y0034851D01*
X0063448Y0034990D01*
X0063435Y0035130D01*
X0063425Y0035270D01*
X0063419Y0035410D01*
X0063417Y0035550D01*
X0072167Y0039300D02*
X0072167Y0059300D01*
X0075367Y0054300D02*
X0089667Y0054300D01*
X0089667Y0067687D01*
X0093566Y0067687D01*
X0093566Y0063744D01*
X0093931Y0062862D01*
X0094166Y0062627D01*
X0094166Y0062016D01*
X0094289Y0061558D01*
X0094526Y0061148D01*
X0094861Y0060812D01*
X0095271Y0060575D01*
X0095729Y0060453D01*
X0097737Y0060453D01*
X0097737Y0061781D01*
X0097738Y0061781D01*
X0097738Y0060453D01*
X0097758Y0060453D01*
X0097334Y0060029D01*
X0096467Y0057934D01*
X0096467Y0054082D01*
X0096325Y0054141D01*
X0093008Y0054141D01*
X0092126Y0053776D01*
X0091686Y0053335D01*
X0091543Y0053418D01*
X0091085Y0053541D01*
X0089667Y0053541D01*
X0089667Y0047410D01*
X0089667Y0041280D01*
X0091085Y0041280D01*
X0091543Y0041402D01*
X0091653Y0041466D01*
X0092334Y0039821D01*
X0093938Y0038218D01*
X0095671Y0037500D01*
X0077167Y0037500D01*
X0076815Y0037535D01*
X0076167Y0037803D01*
X0075670Y0038300D01*
X0075401Y0038949D01*
X0075367Y0039300D01*
X0075367Y0054300D01*
X0075367Y0052952D02*
X0087151Y0052952D01*
X0087045Y0052846D02*
X0086808Y0052436D01*
X0086686Y0051978D01*
X0086686Y0047410D01*
X0086686Y0042843D01*
X0086808Y0042385D01*
X0087045Y0041974D01*
X0087380Y0041639D01*
X0087791Y0041402D01*
X0088249Y0041280D01*
X0089667Y0041280D01*
X0089667Y0047410D01*
X0089667Y0047410D01*
X0089667Y0047410D01*
X0086686Y0047410D01*
X0089667Y0047410D01*
X0089667Y0047410D01*
X0089667Y0053541D01*
X0088249Y0053541D01*
X0087791Y0053418D01*
X0087380Y0053181D01*
X0087045Y0052846D01*
X0086686Y0051354D02*
X0075367Y0051354D01*
X0075367Y0049755D02*
X0086686Y0049755D01*
X0086686Y0048157D02*
X0075367Y0048157D01*
X0075367Y0046558D02*
X0086686Y0046558D01*
X0086686Y0044960D02*
X0075367Y0044960D01*
X0075367Y0043361D02*
X0086686Y0043361D01*
X0087257Y0041763D02*
X0075367Y0041763D01*
X0075367Y0040164D02*
X0092192Y0040164D01*
X0092334Y0039821D02*
X0092334Y0039821D01*
X0093590Y0038566D02*
X0075560Y0038566D01*
X0072167Y0039300D02*
X0072169Y0039160D01*
X0072175Y0039020D01*
X0072185Y0038880D01*
X0072198Y0038740D01*
X0072216Y0038601D01*
X0072238Y0038462D01*
X0072263Y0038325D01*
X0072292Y0038187D01*
X0072325Y0038051D01*
X0072362Y0037916D01*
X0072403Y0037782D01*
X0072448Y0037649D01*
X0072496Y0037517D01*
X0072548Y0037387D01*
X0072603Y0037258D01*
X0072662Y0037131D01*
X0072725Y0037005D01*
X0072791Y0036881D01*
X0072860Y0036760D01*
X0072933Y0036640D01*
X0073010Y0036522D01*
X0073089Y0036407D01*
X0073172Y0036293D01*
X0073258Y0036183D01*
X0073347Y0036074D01*
X0073439Y0035968D01*
X0073534Y0035865D01*
X0073631Y0035764D01*
X0073732Y0035667D01*
X0073835Y0035572D01*
X0073941Y0035480D01*
X0074050Y0035391D01*
X0074160Y0035305D01*
X0074274Y0035222D01*
X0074389Y0035143D01*
X0074507Y0035066D01*
X0074627Y0034993D01*
X0074748Y0034924D01*
X0074872Y0034858D01*
X0074998Y0034795D01*
X0075125Y0034736D01*
X0075254Y0034681D01*
X0075384Y0034629D01*
X0075516Y0034581D01*
X0075649Y0034536D01*
X0075783Y0034495D01*
X0075918Y0034458D01*
X0076054Y0034425D01*
X0076192Y0034396D01*
X0076329Y0034371D01*
X0076468Y0034349D01*
X0076607Y0034331D01*
X0076747Y0034318D01*
X0076887Y0034308D01*
X0077027Y0034302D01*
X0077167Y0034300D01*
X0089667Y0041763D02*
X0089667Y0041763D01*
X0089667Y0043361D02*
X0089667Y0043361D01*
X0089667Y0044960D02*
X0089667Y0044960D01*
X0089667Y0046558D02*
X0089667Y0046558D01*
X0089667Y0048157D02*
X0089667Y0048157D01*
X0089667Y0049755D02*
X0089667Y0049755D01*
X0089667Y0051354D02*
X0089667Y0051354D01*
X0089667Y0052952D02*
X0089667Y0052952D01*
X0089667Y0054551D02*
X0096467Y0054551D01*
X0096467Y0056149D02*
X0089667Y0056149D01*
X0089667Y0057748D02*
X0096467Y0057748D01*
X0097052Y0059346D02*
X0089667Y0059346D01*
X0089667Y0060945D02*
X0094728Y0060945D01*
X0094166Y0062543D02*
X0089667Y0062543D01*
X0089667Y0064142D02*
X0093566Y0064142D01*
X0093566Y0065740D02*
X0089667Y0065740D01*
X0089667Y0067339D02*
X0093566Y0067339D01*
X0097737Y0060945D02*
X0097738Y0060945D01*
X0097334Y0060029D02*
X0097334Y0060029D01*
X0099667Y0056800D02*
X0099667Y0047410D01*
X0104667Y0047410D02*
X0104667Y0051800D01*
X0104669Y0051898D01*
X0104675Y0051996D01*
X0104684Y0052094D01*
X0104698Y0052191D01*
X0104715Y0052288D01*
X0104736Y0052384D01*
X0104761Y0052479D01*
X0104789Y0052573D01*
X0104822Y0052665D01*
X0104857Y0052757D01*
X0104897Y0052847D01*
X0104939Y0052935D01*
X0104986Y0053022D01*
X0105035Y0053106D01*
X0105088Y0053189D01*
X0105144Y0053269D01*
X0105204Y0053348D01*
X0105266Y0053424D01*
X0105331Y0053497D01*
X0105399Y0053568D01*
X0105470Y0053636D01*
X0105543Y0053701D01*
X0105619Y0053763D01*
X0105698Y0053823D01*
X0105778Y0053879D01*
X0105861Y0053932D01*
X0105945Y0053981D01*
X0106032Y0054028D01*
X0106120Y0054070D01*
X0106210Y0054110D01*
X0106302Y0054145D01*
X0106394Y0054178D01*
X0106488Y0054206D01*
X0106583Y0054231D01*
X0106679Y0054252D01*
X0106776Y0054269D01*
X0106873Y0054283D01*
X0106971Y0054292D01*
X0107069Y0054298D01*
X0107167Y0054300D01*
X0115917Y0054300D01*
X0116015Y0054302D01*
X0116113Y0054308D01*
X0116211Y0054317D01*
X0116308Y0054331D01*
X0116405Y0054348D01*
X0116501Y0054369D01*
X0116596Y0054394D01*
X0116690Y0054422D01*
X0116782Y0054455D01*
X0116874Y0054490D01*
X0116964Y0054530D01*
X0117052Y0054572D01*
X0117139Y0054619D01*
X0117223Y0054668D01*
X0117306Y0054721D01*
X0117386Y0054777D01*
X0117465Y0054837D01*
X0117541Y0054899D01*
X0117614Y0054964D01*
X0117685Y0055032D01*
X0117753Y0055103D01*
X0117818Y0055176D01*
X0117880Y0055252D01*
X0117940Y0055331D01*
X0117996Y0055411D01*
X0118049Y0055494D01*
X0118098Y0055578D01*
X0118145Y0055665D01*
X0118187Y0055753D01*
X0118227Y0055843D01*
X0118262Y0055935D01*
X0118295Y0056027D01*
X0118323Y0056121D01*
X0118348Y0056216D01*
X0118369Y0056312D01*
X0118386Y0056409D01*
X0118400Y0056506D01*
X0118409Y0056604D01*
X0118415Y0056702D01*
X0118417Y0056800D01*
X0118417Y0096800D01*
X0117167Y0096800D01*
X0127167Y0103050D02*
X0127167Y0053050D01*
X0132867Y0054551D02*
X0333467Y0054551D01*
X0333467Y0056149D02*
X0132867Y0056149D01*
X0132867Y0057748D02*
X0333467Y0057748D01*
X0333467Y0059346D02*
X0132867Y0059346D01*
X0132867Y0060945D02*
X0333467Y0060945D01*
X0333467Y0062543D02*
X0132867Y0062543D01*
X0137944Y0052952D02*
X0333467Y0052952D01*
X0333467Y0051354D02*
X0138248Y0051354D01*
X0138248Y0049755D02*
X0333467Y0049755D01*
X0333467Y0048157D02*
X0138254Y0048157D01*
X0138267Y0046558D02*
X0333467Y0046558D01*
X0333467Y0044960D02*
X0138267Y0044960D01*
X0138267Y0043361D02*
X0333467Y0043361D01*
X0333467Y0041763D02*
X0138267Y0041763D01*
X0138267Y0040164D02*
X0333467Y0040164D01*
X0333467Y0038566D02*
X0138267Y0038566D01*
X0138267Y0036967D02*
X0333467Y0036967D01*
X0333467Y0035369D02*
X0147958Y0035369D01*
X0150247Y0033770D02*
X0154498Y0033770D01*
X0154287Y0033714D02*
X0153876Y0033477D01*
X0153541Y0033141D01*
X0153304Y0032731D01*
X0153182Y0032273D01*
X0153182Y0030055D01*
X0160900Y0030055D01*
X0160900Y0033836D01*
X0154745Y0033836D01*
X0154287Y0033714D01*
X0153182Y0032172D02*
X0151094Y0032172D01*
X0151348Y0030573D02*
X0153182Y0030573D01*
X0153182Y0029293D02*
X0153182Y0027075D01*
X0153304Y0026617D01*
X0153541Y0026207D01*
X0153876Y0025871D01*
X0154287Y0025634D01*
X0154745Y0025512D01*
X0160900Y0025512D01*
X0160900Y0029293D01*
X0161662Y0029293D01*
X0161662Y0030055D01*
X0169380Y0030055D01*
X0169380Y0032273D01*
X0169257Y0032731D01*
X0169020Y0033141D01*
X0168685Y0033477D01*
X0168275Y0033714D01*
X0167817Y0033836D01*
X0161662Y0033836D01*
X0161662Y0030055D01*
X0160900Y0030055D01*
X0160900Y0029293D01*
X0153182Y0029293D01*
X0153182Y0028975D02*
X0151348Y0028975D01*
X0151348Y0027376D02*
X0153182Y0027376D01*
X0154039Y0025778D02*
X0150601Y0025778D01*
X0160900Y0025778D02*
X0161662Y0025778D01*
X0161662Y0025512D02*
X0167817Y0025512D01*
X0168275Y0025634D01*
X0168685Y0025871D01*
X0169020Y0026207D01*
X0169257Y0026617D01*
X0169380Y0027075D01*
X0169380Y0029293D01*
X0161662Y0029293D01*
X0161662Y0025512D01*
X0161662Y0027376D02*
X0160900Y0027376D01*
X0160900Y0028975D02*
X0161662Y0028975D01*
X0161662Y0030573D02*
X0160900Y0030573D01*
X0160900Y0032172D02*
X0161662Y0032172D01*
X0161662Y0033770D02*
X0160900Y0033770D01*
X0168063Y0033770D02*
X0181270Y0033770D01*
X0181058Y0033714D02*
X0180648Y0033477D01*
X0180313Y0033141D01*
X0180076Y0032731D01*
X0179953Y0032273D01*
X0179953Y0030055D01*
X0187671Y0030055D01*
X0187671Y0029293D01*
X0179953Y0029293D01*
X0179953Y0027075D01*
X0180076Y0026617D01*
X0180313Y0026207D01*
X0180648Y0025871D01*
X0181058Y0025634D01*
X0181516Y0025512D01*
X0187671Y0025512D01*
X0187671Y0029293D01*
X0188434Y0029293D01*
X0188434Y0030055D01*
X0196152Y0030055D01*
X0196152Y0032273D01*
X0196029Y0032731D01*
X0195792Y0033141D01*
X0195457Y0033477D01*
X0195046Y0033714D01*
X0194589Y0033836D01*
X0188434Y0033836D01*
X0188434Y0030055D01*
X0187671Y0030055D01*
X0187671Y0033836D01*
X0181516Y0033836D01*
X0181058Y0033714D01*
X0179953Y0032172D02*
X0169380Y0032172D01*
X0169380Y0030573D02*
X0179953Y0030573D01*
X0179953Y0028975D02*
X0169380Y0028975D01*
X0169380Y0027376D02*
X0179953Y0027376D01*
X0180810Y0025778D02*
X0168523Y0025778D01*
X0187671Y0025778D02*
X0188434Y0025778D01*
X0188434Y0025512D02*
X0194589Y0025512D01*
X0195046Y0025634D01*
X0195457Y0025871D01*
X0195792Y0026207D01*
X0196029Y0026617D01*
X0196152Y0027075D01*
X0196152Y0029293D01*
X0188434Y0029293D01*
X0188434Y0025512D01*
X0188434Y0027376D02*
X0187671Y0027376D01*
X0187671Y0028975D02*
X0188434Y0028975D01*
X0188434Y0030573D02*
X0187671Y0030573D01*
X0187671Y0032172D02*
X0188434Y0032172D01*
X0188434Y0033770D02*
X0187671Y0033770D01*
X0194835Y0033770D02*
X0199498Y0033770D01*
X0199287Y0033714D02*
X0198876Y0033477D01*
X0198541Y0033141D01*
X0198304Y0032731D01*
X0198182Y0032273D01*
X0198182Y0030055D01*
X0205900Y0030055D01*
X0205900Y0033836D01*
X0199745Y0033836D01*
X0199287Y0033714D01*
X0198182Y0032172D02*
X0196152Y0032172D01*
X0196152Y0030573D02*
X0198182Y0030573D01*
X0198182Y0029293D02*
X0198182Y0027075D01*
X0198304Y0026617D01*
X0198541Y0026207D01*
X0198876Y0025871D01*
X0199287Y0025634D01*
X0199745Y0025512D01*
X0205900Y0025512D01*
X0205900Y0029293D01*
X0206662Y0029293D01*
X0206662Y0030055D01*
X0214380Y0030055D01*
X0214380Y0032273D01*
X0214257Y0032731D01*
X0214020Y0033141D01*
X0213685Y0033477D01*
X0213275Y0033714D01*
X0212817Y0033836D01*
X0206662Y0033836D01*
X0206662Y0030055D01*
X0205900Y0030055D01*
X0205900Y0029293D01*
X0198182Y0029293D01*
X0198182Y0028975D02*
X0196152Y0028975D01*
X0196152Y0027376D02*
X0198182Y0027376D01*
X0199039Y0025778D02*
X0195294Y0025778D01*
X0205900Y0025778D02*
X0206662Y0025778D01*
X0206662Y0025512D02*
X0212817Y0025512D01*
X0213275Y0025634D01*
X0213685Y0025871D01*
X0214020Y0026207D01*
X0214257Y0026617D01*
X0214380Y0027075D01*
X0214380Y0029293D01*
X0206662Y0029293D01*
X0206662Y0025512D01*
X0206662Y0027376D02*
X0205900Y0027376D01*
X0205900Y0028975D02*
X0206662Y0028975D01*
X0206662Y0030573D02*
X0205900Y0030573D01*
X0205900Y0032172D02*
X0206662Y0032172D01*
X0206662Y0033770D02*
X0205900Y0033770D01*
X0213063Y0033770D02*
X0226270Y0033770D01*
X0226058Y0033714D02*
X0225648Y0033477D01*
X0225313Y0033141D01*
X0225076Y0032731D01*
X0224953Y0032273D01*
X0224953Y0030055D01*
X0232671Y0030055D01*
X0232671Y0029293D01*
X0224953Y0029293D01*
X0224953Y0027075D01*
X0225076Y0026617D01*
X0225313Y0026207D01*
X0225648Y0025871D01*
X0226058Y0025634D01*
X0226516Y0025512D01*
X0232671Y0025512D01*
X0232671Y0029293D01*
X0233434Y0029293D01*
X0233434Y0030055D01*
X0241152Y0030055D01*
X0241152Y0032273D01*
X0241029Y0032731D01*
X0240792Y0033141D01*
X0240457Y0033477D01*
X0240046Y0033714D01*
X0239589Y0033836D01*
X0233434Y0033836D01*
X0233434Y0030055D01*
X0232671Y0030055D01*
X0232671Y0033836D01*
X0226516Y0033836D01*
X0226058Y0033714D01*
X0224953Y0032172D02*
X0214380Y0032172D01*
X0214380Y0030573D02*
X0224953Y0030573D01*
X0224953Y0028975D02*
X0214380Y0028975D01*
X0214380Y0027376D02*
X0224953Y0027376D01*
X0225810Y0025778D02*
X0213523Y0025778D01*
X0232671Y0025778D02*
X0233434Y0025778D01*
X0233434Y0025512D02*
X0239589Y0025512D01*
X0240046Y0025634D01*
X0240457Y0025871D01*
X0240792Y0026207D01*
X0241029Y0026617D01*
X0241152Y0027075D01*
X0241152Y0029293D01*
X0233434Y0029293D01*
X0233434Y0025512D01*
X0233434Y0027376D02*
X0232671Y0027376D01*
X0232671Y0028975D02*
X0233434Y0028975D01*
X0233434Y0030573D02*
X0232671Y0030573D01*
X0232671Y0032172D02*
X0233434Y0032172D01*
X0233434Y0033770D02*
X0232671Y0033770D01*
X0239835Y0033770D02*
X0244498Y0033770D01*
X0244287Y0033714D02*
X0243876Y0033477D01*
X0243541Y0033141D01*
X0243304Y0032731D01*
X0243182Y0032273D01*
X0243182Y0030055D01*
X0250900Y0030055D01*
X0250900Y0033836D01*
X0244745Y0033836D01*
X0244287Y0033714D01*
X0243182Y0032172D02*
X0241152Y0032172D01*
X0241152Y0030573D02*
X0243182Y0030573D01*
X0243182Y0029293D02*
X0243182Y0027075D01*
X0243304Y0026617D01*
X0243541Y0026207D01*
X0243876Y0025871D01*
X0244287Y0025634D01*
X0244745Y0025512D01*
X0250900Y0025512D01*
X0250900Y0029293D01*
X0251662Y0029293D01*
X0251662Y0030055D01*
X0259380Y0030055D01*
X0259380Y0032273D01*
X0259257Y0032731D01*
X0259020Y0033141D01*
X0258685Y0033477D01*
X0258275Y0033714D01*
X0257817Y0033836D01*
X0251662Y0033836D01*
X0251662Y0030055D01*
X0250900Y0030055D01*
X0250900Y0029293D01*
X0243182Y0029293D01*
X0243182Y0028975D02*
X0241152Y0028975D01*
X0241152Y0027376D02*
X0243182Y0027376D01*
X0244039Y0025778D02*
X0240294Y0025778D01*
X0248122Y0024471D02*
X0248122Y0024471D01*
X0248414Y0024179D02*
X0333467Y0024179D01*
X0333467Y0022581D02*
X0249910Y0022581D01*
X0250572Y0020982D02*
X0333467Y0020982D01*
X0333467Y0019384D02*
X0250767Y0019384D01*
X0243084Y0017785D02*
X0241249Y0017785D01*
X0241752Y0016187D02*
X0242582Y0016187D01*
X0242582Y0014588D02*
X0241752Y0014588D01*
X0241752Y0012990D02*
X0242582Y0012990D01*
X0242582Y0011391D02*
X0241752Y0011391D01*
X0240975Y0009793D02*
X0243359Y0009793D01*
X0259203Y0009793D02*
X0270130Y0009793D01*
X0269856Y0017785D02*
X0259477Y0017785D01*
X0257817Y0025512D02*
X0251662Y0025512D01*
X0251662Y0029293D01*
X0259380Y0029293D01*
X0259380Y0027075D01*
X0259257Y0026617D01*
X0259020Y0026207D01*
X0258685Y0025871D01*
X0258275Y0025634D01*
X0257817Y0025512D01*
X0258523Y0025778D02*
X0270810Y0025778D01*
X0270648Y0025871D02*
X0271058Y0025634D01*
X0271516Y0025512D01*
X0277671Y0025512D01*
X0277671Y0029293D01*
X0269953Y0029293D01*
X0269953Y0027075D01*
X0270076Y0026617D01*
X0270313Y0026207D01*
X0270648Y0025871D01*
X0269953Y0027376D02*
X0259380Y0027376D01*
X0259380Y0028975D02*
X0269953Y0028975D01*
X0269953Y0030055D02*
X0277671Y0030055D01*
X0277671Y0029293D01*
X0278434Y0029293D01*
X0278434Y0030055D01*
X0286152Y0030055D01*
X0286152Y0032273D01*
X0286029Y0032731D01*
X0285792Y0033141D01*
X0285457Y0033477D01*
X0285046Y0033714D01*
X0284589Y0033836D01*
X0278434Y0033836D01*
X0278434Y0030055D01*
X0277671Y0030055D01*
X0277671Y0033836D01*
X0271516Y0033836D01*
X0271058Y0033714D01*
X0270648Y0033477D01*
X0270313Y0033141D01*
X0270076Y0032731D01*
X0269953Y0032273D01*
X0269953Y0030055D01*
X0269953Y0030573D02*
X0259380Y0030573D01*
X0259380Y0032172D02*
X0269953Y0032172D01*
X0271270Y0033770D02*
X0258063Y0033770D01*
X0251662Y0033770D02*
X0250900Y0033770D01*
X0250900Y0032172D02*
X0251662Y0032172D01*
X0251662Y0030573D02*
X0250900Y0030573D01*
X0250900Y0028975D02*
X0251662Y0028975D01*
X0251662Y0027376D02*
X0250900Y0027376D01*
X0250900Y0025778D02*
X0251662Y0025778D01*
X0277671Y0025778D02*
X0278434Y0025778D01*
X0278434Y0025512D02*
X0284589Y0025512D01*
X0285046Y0025634D01*
X0285457Y0025871D01*
X0285792Y0026207D01*
X0286029Y0026617D01*
X0286152Y0027075D01*
X0286152Y0029293D01*
X0278434Y0029293D01*
X0278434Y0025512D01*
X0278434Y0027376D02*
X0277671Y0027376D01*
X0277671Y0028975D02*
X0278434Y0028975D01*
X0278434Y0030573D02*
X0277671Y0030573D01*
X0277671Y0032172D02*
X0278434Y0032172D01*
X0278434Y0033770D02*
X0277671Y0033770D01*
X0284835Y0033770D02*
X0289498Y0033770D01*
X0289287Y0033714D02*
X0288876Y0033477D01*
X0288541Y0033141D01*
X0288304Y0032731D01*
X0288182Y0032273D01*
X0288182Y0030055D01*
X0295900Y0030055D01*
X0295900Y0033836D01*
X0289745Y0033836D01*
X0289287Y0033714D01*
X0288182Y0032172D02*
X0286152Y0032172D01*
X0286152Y0030573D02*
X0288182Y0030573D01*
X0288182Y0029293D02*
X0288182Y0027075D01*
X0288304Y0026617D01*
X0288541Y0026207D01*
X0288876Y0025871D01*
X0289287Y0025634D01*
X0289745Y0025512D01*
X0295900Y0025512D01*
X0295900Y0029293D01*
X0296662Y0029293D01*
X0296662Y0030055D01*
X0304380Y0030055D01*
X0304380Y0032273D01*
X0304257Y0032731D01*
X0304020Y0033141D01*
X0303685Y0033477D01*
X0303275Y0033714D01*
X0302817Y0033836D01*
X0296662Y0033836D01*
X0296662Y0030055D01*
X0295900Y0030055D01*
X0295900Y0029293D01*
X0288182Y0029293D01*
X0288182Y0028975D02*
X0286152Y0028975D01*
X0286152Y0027376D02*
X0288182Y0027376D01*
X0289039Y0025778D02*
X0285294Y0025778D01*
X0286249Y0017785D02*
X0288084Y0017785D01*
X0287582Y0016187D02*
X0286752Y0016187D01*
X0286752Y0014588D02*
X0287582Y0014588D01*
X0287582Y0012990D02*
X0286752Y0012990D01*
X0286752Y0011391D02*
X0287582Y0011391D01*
X0288359Y0009793D02*
X0285975Y0009793D01*
X0291067Y0008194D02*
X0207556Y0008194D01*
X0214203Y0009793D02*
X0225130Y0009793D01*
X0295900Y0025778D02*
X0296662Y0025778D01*
X0296662Y0025512D02*
X0302817Y0025512D01*
X0303275Y0025634D01*
X0303685Y0025871D01*
X0304020Y0026207D01*
X0304257Y0026617D01*
X0304380Y0027075D01*
X0304380Y0029293D01*
X0296662Y0029293D01*
X0296662Y0025512D01*
X0296662Y0027376D02*
X0295900Y0027376D01*
X0295900Y0028975D02*
X0296662Y0028975D01*
X0296662Y0030573D02*
X0295900Y0030573D01*
X0295900Y0032172D02*
X0296662Y0032172D01*
X0296662Y0033770D02*
X0295900Y0033770D01*
X0303063Y0033770D02*
X0316270Y0033770D01*
X0316058Y0033714D02*
X0315648Y0033477D01*
X0315313Y0033141D01*
X0315076Y0032731D01*
X0314953Y0032273D01*
X0314953Y0030055D01*
X0322671Y0030055D01*
X0322671Y0029293D01*
X0314953Y0029293D01*
X0314953Y0027075D01*
X0315076Y0026617D01*
X0315313Y0026207D01*
X0315648Y0025871D01*
X0316058Y0025634D01*
X0316516Y0025512D01*
X0322671Y0025512D01*
X0322671Y0029293D01*
X0323434Y0029293D01*
X0323434Y0030055D01*
X0331152Y0030055D01*
X0331152Y0032273D01*
X0331029Y0032731D01*
X0330792Y0033141D01*
X0330457Y0033477D01*
X0330046Y0033714D01*
X0329589Y0033836D01*
X0323434Y0033836D01*
X0323434Y0030055D01*
X0322671Y0030055D01*
X0322671Y0033836D01*
X0316516Y0033836D01*
X0316058Y0033714D01*
X0314953Y0032172D02*
X0304380Y0032172D01*
X0304380Y0030573D02*
X0314953Y0030573D01*
X0314953Y0028975D02*
X0304380Y0028975D01*
X0304380Y0027376D02*
X0314953Y0027376D01*
X0315810Y0025778D02*
X0303523Y0025778D01*
X0304477Y0017785D02*
X0314856Y0017785D01*
X0322671Y0025778D02*
X0323434Y0025778D01*
X0323434Y0025512D02*
X0329589Y0025512D01*
X0330046Y0025634D01*
X0330457Y0025871D01*
X0330792Y0026207D01*
X0331029Y0026617D01*
X0331152Y0027075D01*
X0331152Y0029293D01*
X0323434Y0029293D01*
X0323434Y0025512D01*
X0323434Y0027376D02*
X0322671Y0027376D01*
X0322671Y0028975D02*
X0323434Y0028975D01*
X0323434Y0030573D02*
X0322671Y0030573D01*
X0322671Y0032172D02*
X0323434Y0032172D01*
X0323434Y0033770D02*
X0322671Y0033770D01*
X0329835Y0033770D02*
X0333467Y0033770D01*
X0333467Y0032172D02*
X0331152Y0032172D01*
X0331152Y0030573D02*
X0333467Y0030573D01*
X0333467Y0028975D02*
X0331152Y0028975D01*
X0331152Y0027376D02*
X0333467Y0027376D01*
X0333467Y0025778D02*
X0330294Y0025778D01*
X0331249Y0017785D02*
X0333467Y0017785D01*
X0333467Y0016187D02*
X0331752Y0016187D01*
X0331752Y0014588D02*
X0333467Y0014588D01*
X0333467Y0012990D02*
X0331752Y0012990D01*
X0331752Y0011391D02*
X0333467Y0011391D01*
X0333467Y0009793D02*
X0330975Y0009793D01*
X0333467Y0008194D02*
X0298267Y0008194D01*
X0298267Y0006596D02*
X0333467Y0006596D01*
X0333467Y0004997D02*
X0298022Y0004997D01*
X0304203Y0009793D02*
X0315130Y0009793D01*
X0333467Y0064142D02*
X0252401Y0064142D01*
X0253288Y0064509D02*
X0253288Y0064509D01*
X0254519Y0065740D02*
X0333467Y0065740D01*
X0333467Y0067339D02*
X0255877Y0067339D01*
X0256540Y0068937D02*
X0333467Y0068937D01*
X0333467Y0070536D02*
X0321575Y0070536D01*
X0323099Y0072134D02*
X0333467Y0072134D01*
X0333467Y0073733D02*
X0323179Y0073733D01*
X0323179Y0075332D02*
X0333467Y0075332D01*
X0333467Y0076930D02*
X0323179Y0076930D01*
X0322962Y0078529D02*
X0333467Y0078529D01*
X0333467Y0080127D02*
X0322985Y0080127D01*
X0323179Y0081726D02*
X0333467Y0081726D01*
X0333467Y0083324D02*
X0323179Y0083324D01*
X0323179Y0084923D02*
X0333467Y0084923D01*
X0333467Y0086521D02*
X0323076Y0086521D01*
X0322017Y0088120D02*
X0333467Y0088120D01*
X0333467Y0089718D02*
X0322017Y0089718D01*
X0322017Y0091317D02*
X0333467Y0091317D01*
X0333467Y0092915D02*
X0322017Y0092915D01*
X0322017Y0094514D02*
X0333467Y0094514D01*
X0333467Y0096112D02*
X0322017Y0096112D01*
X0321608Y0097711D02*
X0333467Y0097711D01*
X0333467Y0099309D02*
X0321089Y0099309D01*
X0320426Y0100908D02*
X0333467Y0100908D01*
X0333467Y0102506D02*
X0319265Y0102506D01*
X0318153Y0104037D02*
X0318153Y0104037D01*
X0318153Y0104037D01*
X0318059Y0104105D02*
X0333467Y0104105D01*
X0333467Y0105703D02*
X0318321Y0105703D01*
X0319050Y0106432D02*
X0319050Y0106432D01*
X0319050Y0106432D01*
X0319552Y0107302D02*
X0333467Y0107302D01*
X0333467Y0108900D02*
X0320475Y0108900D01*
X0321005Y0109818D02*
X0321005Y0109818D01*
X0321187Y0110499D02*
X0333467Y0110499D01*
X0333467Y0112097D02*
X0321615Y0112097D01*
X0322017Y0113696D02*
X0333467Y0113696D01*
X0333467Y0115294D02*
X0322017Y0115294D01*
X0322017Y0116893D02*
X0333467Y0116893D01*
X0333467Y0118491D02*
X0322017Y0118491D01*
X0322017Y0120090D02*
X0333467Y0120090D01*
X0333467Y0121688D02*
X0322017Y0121688D01*
X0322017Y0123287D02*
X0333467Y0123287D01*
X0333467Y0124885D02*
X0322504Y0124885D01*
X0323179Y0126484D02*
X0333467Y0126484D01*
X0333467Y0128082D02*
X0323179Y0128082D01*
X0323179Y0129681D02*
X0333467Y0129681D01*
X0333467Y0131279D02*
X0323179Y0131279D01*
X0322573Y0132878D02*
X0333467Y0132878D01*
X0333467Y0134476D02*
X0323179Y0134476D01*
X0323179Y0136075D02*
X0333467Y0136075D01*
X0333467Y0137673D02*
X0323179Y0137673D01*
X0323179Y0139272D02*
X0333467Y0139272D01*
X0333467Y0140870D02*
X0322828Y0140870D01*
X0314677Y0142469D02*
X0333467Y0142469D01*
X0333467Y0144068D02*
X0260767Y0144068D01*
X0260767Y0145666D02*
X0333467Y0145666D01*
X0333467Y0147265D02*
X0260767Y0147265D01*
X0260767Y0148863D02*
X0333467Y0148863D01*
X0333467Y0150462D02*
X0260767Y0150462D01*
X0260767Y0152060D02*
X0333467Y0152060D01*
X0333467Y0153659D02*
X0260767Y0153659D01*
X0260767Y0155257D02*
X0333467Y0155257D01*
X0333467Y0156856D02*
X0260767Y0156856D01*
X0260767Y0158454D02*
X0333467Y0158454D01*
X0333467Y0160053D02*
X0260767Y0160053D01*
X0260767Y0161651D02*
X0333467Y0161651D01*
X0333467Y0163250D02*
X0260767Y0163250D01*
X0260767Y0164848D02*
X0333467Y0164848D01*
X0333467Y0166447D02*
X0260817Y0166447D01*
X0260817Y0168045D02*
X0333467Y0168045D01*
X0333467Y0169644D02*
X0260817Y0169644D01*
X0260817Y0171242D02*
X0333467Y0171242D01*
X0333467Y0172841D02*
X0260817Y0172841D01*
X0260817Y0174439D02*
X0333467Y0174439D01*
X0333467Y0176038D02*
X0260817Y0176038D01*
X0260767Y0177636D02*
X0333467Y0177636D01*
X0333467Y0179235D02*
X0260767Y0179235D01*
X0260767Y0180833D02*
X0333467Y0180833D01*
X0333467Y0182432D02*
X0260767Y0182432D01*
X0260767Y0184030D02*
X0333467Y0184030D01*
X0333467Y0185629D02*
X0260767Y0185629D01*
X0260767Y0187227D02*
X0333467Y0187227D01*
X0333467Y0188826D02*
X0310428Y0188826D01*
X0311985Y0190424D02*
X0333467Y0190424D01*
X0333467Y0192023D02*
X0312647Y0192023D01*
X0312815Y0193621D02*
X0333467Y0193621D01*
X0333467Y0195220D02*
X0312815Y0195220D01*
X0312815Y0196818D02*
X0333467Y0196818D01*
X0333467Y0198417D02*
X0312815Y0198417D01*
X0312815Y0200015D02*
X0333467Y0200015D01*
X0333467Y0201614D02*
X0312631Y0201614D01*
X0311969Y0203212D02*
X0333467Y0203212D01*
X0333467Y0208008D02*
X0089667Y0208008D01*
X0089667Y0206409D02*
X0091311Y0206409D01*
X0089712Y0204811D02*
X0089667Y0204811D01*
X0098022Y0206409D02*
X0121311Y0206409D01*
X0119712Y0204811D02*
X0099621Y0204811D01*
X0101219Y0203212D02*
X0118114Y0203212D01*
X0117267Y0201614D02*
X0102067Y0201614D01*
X0170391Y0204811D02*
X0173942Y0204811D01*
X0172364Y0203212D02*
X0171969Y0203212D01*
X0180391Y0204811D02*
X0183942Y0204811D01*
X0182364Y0203212D02*
X0181969Y0203212D01*
X0190391Y0204811D02*
X0283942Y0204811D01*
X0282364Y0203212D02*
X0191969Y0203212D01*
X0192647Y0192023D02*
X0221192Y0192023D01*
X0220967Y0190424D02*
X0192067Y0190424D01*
X0192067Y0188826D02*
X0220967Y0188826D01*
X0220967Y0187227D02*
X0192067Y0187227D01*
X0192067Y0185629D02*
X0220967Y0185629D01*
X0221212Y0184030D02*
X0192067Y0184030D01*
X0192067Y0182432D02*
X0222327Y0182432D01*
X0222327Y0180833D02*
X0192067Y0180833D01*
X0192067Y0179235D02*
X0222575Y0179235D01*
X0223665Y0177636D02*
X0192067Y0177636D01*
X0192067Y0176038D02*
X0223517Y0176038D01*
X0223517Y0174439D02*
X0192067Y0174439D01*
X0192067Y0172841D02*
X0223517Y0172841D01*
X0223517Y0171242D02*
X0192067Y0171242D01*
X0192067Y0169644D02*
X0223517Y0169644D01*
X0223517Y0168045D02*
X0192067Y0168045D01*
X0192067Y0166447D02*
X0223517Y0166447D01*
X0223567Y0164848D02*
X0192067Y0164848D01*
X0192067Y0163250D02*
X0223567Y0163250D01*
X0223567Y0161651D02*
X0192067Y0161651D01*
X0192067Y0160053D02*
X0223567Y0160053D01*
X0223567Y0158454D02*
X0192067Y0158454D01*
X0192067Y0156856D02*
X0223567Y0156856D01*
X0223567Y0155257D02*
X0192067Y0155257D01*
X0192067Y0153659D02*
X0223567Y0153659D01*
X0223567Y0152060D02*
X0192067Y0152060D01*
X0192067Y0150462D02*
X0223567Y0150462D01*
X0223567Y0148863D02*
X0192067Y0148863D01*
X0192067Y0147265D02*
X0223567Y0147265D01*
X0223567Y0145666D02*
X0192067Y0145666D01*
X0192067Y0144068D02*
X0223567Y0144068D01*
X0223567Y0142469D02*
X0192067Y0142469D01*
X0192067Y0140870D02*
X0223567Y0140870D01*
X0223567Y0139272D02*
X0192067Y0139272D01*
X0192067Y0137673D02*
X0223567Y0137673D01*
X0223567Y0136075D02*
X0191831Y0136075D01*
X0191403Y0134476D02*
X0223567Y0134476D01*
X0223567Y0132878D02*
X0190886Y0132878D01*
X0191051Y0133165D02*
X0191051Y0133165D01*
X0189963Y0131279D02*
X0223567Y0131279D01*
X0223567Y0129681D02*
X0189003Y0129681D01*
X0189090Y0129767D02*
X0189090Y0129767D01*
X0134667Y0118050D02*
X0125917Y0118050D01*
X0125777Y0118048D01*
X0125637Y0118042D01*
X0125497Y0118032D01*
X0125357Y0118019D01*
X0125218Y0118001D01*
X0125079Y0117979D01*
X0124942Y0117954D01*
X0124804Y0117925D01*
X0124668Y0117892D01*
X0124533Y0117855D01*
X0124399Y0117814D01*
X0124266Y0117769D01*
X0124134Y0117721D01*
X0124004Y0117669D01*
X0123875Y0117614D01*
X0123748Y0117555D01*
X0123622Y0117492D01*
X0123498Y0117426D01*
X0123377Y0117357D01*
X0123257Y0117284D01*
X0123139Y0117207D01*
X0123024Y0117128D01*
X0122910Y0117045D01*
X0122800Y0116959D01*
X0122691Y0116870D01*
X0122585Y0116778D01*
X0122482Y0116683D01*
X0122381Y0116586D01*
X0122284Y0116485D01*
X0122189Y0116382D01*
X0122097Y0116276D01*
X0122008Y0116167D01*
X0121922Y0116057D01*
X0121839Y0115943D01*
X0121760Y0115828D01*
X0121683Y0115710D01*
X0121610Y0115590D01*
X0121541Y0115469D01*
X0121475Y0115345D01*
X0121412Y0115219D01*
X0121353Y0115092D01*
X0121298Y0114963D01*
X0121246Y0114833D01*
X0121198Y0114701D01*
X0121153Y0114568D01*
X0121112Y0114434D01*
X0121075Y0114299D01*
X0121042Y0114163D01*
X0121013Y0114025D01*
X0120988Y0113888D01*
X0120966Y0113749D01*
X0120948Y0113610D01*
X0120935Y0113470D01*
X0120925Y0113330D01*
X0120919Y0113190D01*
X0120917Y0113050D01*
X0120917Y0047410D01*
X0119667Y0047410D01*
X0124667Y0047410D02*
X0124667Y0108050D01*
X0124669Y0108190D01*
X0124675Y0108330D01*
X0124685Y0108470D01*
X0124698Y0108610D01*
X0124716Y0108749D01*
X0124738Y0108888D01*
X0124763Y0109025D01*
X0124792Y0109163D01*
X0124825Y0109299D01*
X0124862Y0109434D01*
X0124903Y0109568D01*
X0124948Y0109701D01*
X0124996Y0109833D01*
X0125048Y0109963D01*
X0125103Y0110092D01*
X0125162Y0110219D01*
X0125225Y0110345D01*
X0125291Y0110469D01*
X0125360Y0110590D01*
X0125433Y0110710D01*
X0125510Y0110828D01*
X0125589Y0110943D01*
X0125672Y0111057D01*
X0125758Y0111167D01*
X0125847Y0111276D01*
X0125939Y0111382D01*
X0126034Y0111485D01*
X0126131Y0111586D01*
X0126232Y0111683D01*
X0126335Y0111778D01*
X0126441Y0111870D01*
X0126550Y0111959D01*
X0126660Y0112045D01*
X0126774Y0112128D01*
X0126889Y0112207D01*
X0127007Y0112284D01*
X0127127Y0112357D01*
X0127248Y0112426D01*
X0127372Y0112492D01*
X0127498Y0112555D01*
X0127625Y0112614D01*
X0127754Y0112669D01*
X0127884Y0112721D01*
X0128016Y0112769D01*
X0128149Y0112814D01*
X0128283Y0112855D01*
X0128418Y0112892D01*
X0128554Y0112925D01*
X0128692Y0112954D01*
X0128829Y0112979D01*
X0128968Y0113001D01*
X0129107Y0113019D01*
X0129247Y0113032D01*
X0129387Y0113042D01*
X0129527Y0113048D01*
X0129667Y0113050D01*
X0134667Y0113050D01*
X0134667Y0108050D02*
X0132167Y0108050D01*
X0132027Y0108048D01*
X0131887Y0108042D01*
X0131747Y0108032D01*
X0131607Y0108019D01*
X0131468Y0108001D01*
X0131329Y0107979D01*
X0131192Y0107954D01*
X0131054Y0107925D01*
X0130918Y0107892D01*
X0130783Y0107855D01*
X0130649Y0107814D01*
X0130516Y0107769D01*
X0130384Y0107721D01*
X0130254Y0107669D01*
X0130125Y0107614D01*
X0129998Y0107555D01*
X0129872Y0107492D01*
X0129748Y0107426D01*
X0129627Y0107357D01*
X0129507Y0107284D01*
X0129389Y0107207D01*
X0129274Y0107128D01*
X0129160Y0107045D01*
X0129050Y0106959D01*
X0128941Y0106870D01*
X0128835Y0106778D01*
X0128732Y0106683D01*
X0128631Y0106586D01*
X0128534Y0106485D01*
X0128439Y0106382D01*
X0128347Y0106276D01*
X0128258Y0106167D01*
X0128172Y0106057D01*
X0128089Y0105943D01*
X0128010Y0105828D01*
X0127933Y0105710D01*
X0127860Y0105590D01*
X0127791Y0105469D01*
X0127725Y0105345D01*
X0127662Y0105219D01*
X0127603Y0105092D01*
X0127548Y0104963D01*
X0127496Y0104833D01*
X0127448Y0104701D01*
X0127403Y0104568D01*
X0127362Y0104434D01*
X0127325Y0104299D01*
X0127292Y0104163D01*
X0127263Y0104025D01*
X0127238Y0103888D01*
X0127216Y0103749D01*
X0127198Y0103610D01*
X0127185Y0103470D01*
X0127175Y0103330D01*
X0127169Y0103190D01*
X0127167Y0103050D01*
X0105995Y0102506D02*
X0089667Y0102506D01*
X0089667Y0104105D02*
X0104397Y0104105D01*
X0102798Y0105703D02*
X0089667Y0105703D01*
X0089667Y0107302D02*
X0102267Y0107302D01*
X0102267Y0108900D02*
X0089667Y0108900D01*
X0089667Y0110499D02*
X0102267Y0110499D01*
X0102267Y0112097D02*
X0089667Y0112097D01*
X0089667Y0113696D02*
X0103597Y0113696D01*
X0104056Y0115294D02*
X0089667Y0115294D01*
X0089667Y0116893D02*
X0102867Y0116893D01*
X0102867Y0118491D02*
X0089667Y0118491D01*
X0089667Y0120090D02*
X0102867Y0120090D01*
X0102867Y0121688D02*
X0089667Y0121688D01*
X0089667Y0123287D02*
X0104037Y0123287D01*
X0105635Y0124885D02*
X0089667Y0124885D01*
X0109367Y0124885D02*
X0109967Y0124885D01*
X0109967Y0123287D02*
X0109367Y0123287D01*
X0109367Y0121688D02*
X0109967Y0121688D01*
X0109967Y0120090D02*
X0109367Y0120090D01*
X0059667Y0105560D02*
X0059667Y0105461D01*
X0051488Y0105461D01*
X0052927Y0099309D02*
X0053886Y0099309D01*
X0053886Y0097711D02*
X0052927Y0097711D01*
X0052927Y0096112D02*
X0053886Y0096112D01*
X0053886Y0094514D02*
X0052927Y0094514D01*
X0052927Y0092915D02*
X0053886Y0092915D01*
X0038417Y0094300D02*
X0038349Y0094298D01*
X0038282Y0094293D01*
X0038215Y0094284D01*
X0038148Y0094271D01*
X0038083Y0094254D01*
X0038018Y0094235D01*
X0037954Y0094211D01*
X0037892Y0094184D01*
X0037831Y0094154D01*
X0037773Y0094121D01*
X0037716Y0094085D01*
X0037661Y0094045D01*
X0037608Y0094003D01*
X0037557Y0093957D01*
X0037510Y0093910D01*
X0037464Y0093859D01*
X0037422Y0093806D01*
X0037382Y0093751D01*
X0037346Y0093694D01*
X0037313Y0093636D01*
X0037283Y0093575D01*
X0037256Y0093513D01*
X0037232Y0093449D01*
X0037213Y0093384D01*
X0037196Y0093319D01*
X0037183Y0093252D01*
X0037174Y0093185D01*
X0037169Y0093118D01*
X0037167Y0093050D01*
X0015048Y0096112D02*
X0014286Y0096112D01*
X0014286Y0097711D02*
X0015048Y0097711D01*
X0015048Y0099309D02*
X0014286Y0099309D01*
X0005955Y0092915D02*
X0002167Y0092915D01*
X0002167Y0091317D02*
X0006686Y0091317D01*
X0008346Y0089718D02*
X0002167Y0089718D01*
X0002167Y0088120D02*
X0006538Y0088120D01*
X0005610Y0086521D02*
X0002167Y0086521D01*
X0002167Y0084923D02*
X0005180Y0084923D01*
X0005180Y0083324D02*
X0002167Y0083324D01*
X0002167Y0081726D02*
X0005757Y0081726D01*
X0006891Y0080127D02*
X0002167Y0080127D01*
X0002167Y0078529D02*
X0009526Y0078529D01*
X0040917Y0110580D02*
X0041015Y0110578D01*
X0041113Y0110572D01*
X0041211Y0110563D01*
X0041308Y0110549D01*
X0041405Y0110532D01*
X0041501Y0110511D01*
X0041596Y0110486D01*
X0041690Y0110458D01*
X0041782Y0110425D01*
X0041874Y0110390D01*
X0041964Y0110350D01*
X0042052Y0110308D01*
X0042139Y0110261D01*
X0042223Y0110212D01*
X0042306Y0110159D01*
X0042386Y0110103D01*
X0042465Y0110043D01*
X0042541Y0109981D01*
X0042614Y0109916D01*
X0042685Y0109848D01*
X0042753Y0109777D01*
X0042818Y0109704D01*
X0042880Y0109628D01*
X0042940Y0109549D01*
X0042996Y0109469D01*
X0043049Y0109386D01*
X0043098Y0109302D01*
X0043145Y0109215D01*
X0043187Y0109127D01*
X0043227Y0109037D01*
X0043262Y0108945D01*
X0043295Y0108853D01*
X0043323Y0108759D01*
X0043348Y0108664D01*
X0043369Y0108568D01*
X0043386Y0108471D01*
X0043400Y0108374D01*
X0043409Y0108276D01*
X0043415Y0108178D01*
X0043417Y0108080D01*
X0076319Y0073733D02*
X0079312Y0073733D01*
X0077552Y0072134D02*
X0076206Y0072134D01*
X0102167Y0059300D02*
X0104667Y0059300D01*
X0107167Y0056800D02*
X0107265Y0056802D01*
X0107363Y0056808D01*
X0107461Y0056817D01*
X0107558Y0056831D01*
X0107655Y0056848D01*
X0107751Y0056869D01*
X0107846Y0056894D01*
X0107940Y0056922D01*
X0108032Y0056955D01*
X0108124Y0056990D01*
X0108214Y0057030D01*
X0108302Y0057072D01*
X0108389Y0057119D01*
X0108473Y0057168D01*
X0108556Y0057221D01*
X0108636Y0057277D01*
X0108715Y0057337D01*
X0108791Y0057399D01*
X0108864Y0057464D01*
X0108935Y0057532D01*
X0109003Y0057603D01*
X0109068Y0057676D01*
X0109130Y0057752D01*
X0109190Y0057831D01*
X0109246Y0057911D01*
X0109299Y0057994D01*
X0109348Y0058078D01*
X0109395Y0058165D01*
X0109437Y0058253D01*
X0109477Y0058343D01*
X0109512Y0058435D01*
X0109545Y0058527D01*
X0109573Y0058621D01*
X0109598Y0058716D01*
X0109619Y0058812D01*
X0109636Y0058909D01*
X0109650Y0059006D01*
X0109659Y0059104D01*
X0109665Y0059202D01*
X0109667Y0059300D01*
X0109667Y0061800D01*
X0107167Y0061800D02*
X0107167Y0065550D01*
X0107167Y0061800D02*
X0107165Y0061702D01*
X0107159Y0061604D01*
X0107150Y0061506D01*
X0107136Y0061409D01*
X0107119Y0061312D01*
X0107098Y0061216D01*
X0107073Y0061121D01*
X0107045Y0061027D01*
X0107012Y0060935D01*
X0106977Y0060843D01*
X0106937Y0060753D01*
X0106895Y0060665D01*
X0106848Y0060578D01*
X0106799Y0060494D01*
X0106746Y0060411D01*
X0106690Y0060331D01*
X0106630Y0060252D01*
X0106568Y0060176D01*
X0106503Y0060103D01*
X0106435Y0060032D01*
X0106364Y0059964D01*
X0106291Y0059899D01*
X0106215Y0059837D01*
X0106136Y0059777D01*
X0106056Y0059721D01*
X0105973Y0059668D01*
X0105889Y0059619D01*
X0105802Y0059572D01*
X0105714Y0059530D01*
X0105624Y0059490D01*
X0105532Y0059455D01*
X0105440Y0059422D01*
X0105346Y0059394D01*
X0105251Y0059369D01*
X0105155Y0059348D01*
X0105058Y0059331D01*
X0104961Y0059317D01*
X0104863Y0059308D01*
X0104765Y0059302D01*
X0104667Y0059300D01*
X0104667Y0056800D02*
X0107167Y0056800D01*
X0104667Y0056800D02*
X0104569Y0056798D01*
X0104471Y0056792D01*
X0104373Y0056783D01*
X0104276Y0056769D01*
X0104179Y0056752D01*
X0104083Y0056731D01*
X0103988Y0056706D01*
X0103894Y0056678D01*
X0103802Y0056645D01*
X0103710Y0056610D01*
X0103620Y0056570D01*
X0103532Y0056528D01*
X0103445Y0056481D01*
X0103361Y0056432D01*
X0103278Y0056379D01*
X0103198Y0056323D01*
X0103119Y0056263D01*
X0103043Y0056201D01*
X0102970Y0056136D01*
X0102899Y0056068D01*
X0102831Y0055997D01*
X0102766Y0055924D01*
X0102704Y0055848D01*
X0102644Y0055769D01*
X0102588Y0055689D01*
X0102535Y0055606D01*
X0102486Y0055522D01*
X0102439Y0055435D01*
X0102397Y0055347D01*
X0102357Y0055257D01*
X0102322Y0055165D01*
X0102289Y0055073D01*
X0102261Y0054979D01*
X0102236Y0054884D01*
X0102215Y0054788D01*
X0102198Y0054691D01*
X0102184Y0054594D01*
X0102175Y0054496D01*
X0102169Y0054398D01*
X0102167Y0054300D01*
X0102167Y0053050D01*
X0099667Y0056800D02*
X0099669Y0056898D01*
X0099675Y0056996D01*
X0099684Y0057094D01*
X0099698Y0057191D01*
X0099715Y0057288D01*
X0099736Y0057384D01*
X0099761Y0057479D01*
X0099789Y0057573D01*
X0099822Y0057665D01*
X0099857Y0057757D01*
X0099897Y0057847D01*
X0099939Y0057935D01*
X0099986Y0058022D01*
X0100035Y0058106D01*
X0100088Y0058189D01*
X0100144Y0058269D01*
X0100204Y0058348D01*
X0100266Y0058424D01*
X0100331Y0058497D01*
X0100399Y0058568D01*
X0100470Y0058636D01*
X0100543Y0058701D01*
X0100619Y0058763D01*
X0100698Y0058823D01*
X0100778Y0058879D01*
X0100861Y0058932D01*
X0100945Y0058981D01*
X0101032Y0059028D01*
X0101120Y0059070D01*
X0101210Y0059110D01*
X0101302Y0059145D01*
X0101394Y0059178D01*
X0101488Y0059206D01*
X0101583Y0059231D01*
X0101679Y0059252D01*
X0101776Y0059269D01*
X0101873Y0059283D01*
X0101971Y0059292D01*
X0102069Y0059298D01*
X0102167Y0059300D01*
X0109667Y0061800D02*
X0109669Y0061940D01*
X0109675Y0062080D01*
X0109685Y0062220D01*
X0109698Y0062360D01*
X0109716Y0062499D01*
X0109738Y0062638D01*
X0109763Y0062775D01*
X0109792Y0062913D01*
X0109825Y0063049D01*
X0109862Y0063184D01*
X0109903Y0063318D01*
X0109948Y0063451D01*
X0109996Y0063583D01*
X0110048Y0063713D01*
X0110103Y0063842D01*
X0110162Y0063969D01*
X0110225Y0064095D01*
X0110291Y0064219D01*
X0110360Y0064340D01*
X0110433Y0064460D01*
X0110510Y0064578D01*
X0110589Y0064693D01*
X0110672Y0064807D01*
X0110758Y0064917D01*
X0110847Y0065026D01*
X0110939Y0065132D01*
X0111034Y0065235D01*
X0111131Y0065336D01*
X0111232Y0065433D01*
X0111335Y0065528D01*
X0111441Y0065620D01*
X0111550Y0065709D01*
X0111660Y0065795D01*
X0111774Y0065878D01*
X0111889Y0065957D01*
X0112007Y0066034D01*
X0112127Y0066107D01*
X0112248Y0066176D01*
X0112372Y0066242D01*
X0112498Y0066305D01*
X0112625Y0066364D01*
X0112754Y0066419D01*
X0112884Y0066471D01*
X0113016Y0066519D01*
X0113149Y0066564D01*
X0113283Y0066605D01*
X0113418Y0066642D01*
X0113554Y0066675D01*
X0113692Y0066704D01*
X0113829Y0066729D01*
X0113968Y0066751D01*
X0114107Y0066769D01*
X0114247Y0066782D01*
X0114387Y0066792D01*
X0114527Y0066798D01*
X0114667Y0066800D01*
X0129667Y0071800D02*
X0130917Y0071800D01*
X0129667Y0071800D02*
X0129667Y0047410D01*
X0127167Y0041800D02*
X0127165Y0041732D01*
X0127160Y0041665D01*
X0127151Y0041598D01*
X0127138Y0041531D01*
X0127121Y0041466D01*
X0127102Y0041401D01*
X0127078Y0041337D01*
X0127051Y0041275D01*
X0127021Y0041214D01*
X0126988Y0041156D01*
X0126952Y0041099D01*
X0126912Y0041044D01*
X0126870Y0040991D01*
X0126824Y0040940D01*
X0126777Y0040893D01*
X0126726Y0040847D01*
X0126673Y0040805D01*
X0126618Y0040765D01*
X0126561Y0040729D01*
X0126503Y0040696D01*
X0126442Y0040666D01*
X0126380Y0040639D01*
X0126316Y0040615D01*
X0126251Y0040596D01*
X0126186Y0040579D01*
X0126119Y0040566D01*
X0126052Y0040557D01*
X0125985Y0040552D01*
X0125917Y0040550D01*
X0117167Y0040550D01*
X0117069Y0040552D01*
X0116971Y0040558D01*
X0116873Y0040567D01*
X0116776Y0040581D01*
X0116679Y0040598D01*
X0116583Y0040619D01*
X0116488Y0040644D01*
X0116394Y0040672D01*
X0116302Y0040705D01*
X0116210Y0040740D01*
X0116120Y0040780D01*
X0116032Y0040822D01*
X0115945Y0040869D01*
X0115861Y0040918D01*
X0115778Y0040971D01*
X0115698Y0041027D01*
X0115619Y0041087D01*
X0115543Y0041149D01*
X0115470Y0041214D01*
X0115399Y0041282D01*
X0115331Y0041353D01*
X0115266Y0041426D01*
X0115204Y0041502D01*
X0115144Y0041581D01*
X0115088Y0041661D01*
X0115035Y0041744D01*
X0114986Y0041828D01*
X0114939Y0041915D01*
X0114897Y0042003D01*
X0114857Y0042093D01*
X0114822Y0042185D01*
X0114789Y0042277D01*
X0114761Y0042371D01*
X0114736Y0042466D01*
X0114715Y0042562D01*
X0114698Y0042659D01*
X0114684Y0042756D01*
X0114675Y0042854D01*
X0114669Y0042952D01*
X0114667Y0043050D01*
X0114667Y0047410D01*
X0102167Y0041800D02*
X0102165Y0041732D01*
X0102160Y0041665D01*
X0102151Y0041598D01*
X0102138Y0041531D01*
X0102121Y0041466D01*
X0102102Y0041401D01*
X0102078Y0041337D01*
X0102051Y0041275D01*
X0102021Y0041214D01*
X0101988Y0041156D01*
X0101952Y0041099D01*
X0101912Y0041044D01*
X0101870Y0040991D01*
X0101824Y0040940D01*
X0101777Y0040893D01*
X0101726Y0040847D01*
X0101673Y0040805D01*
X0101618Y0040765D01*
X0101561Y0040729D01*
X0101503Y0040696D01*
X0101442Y0040666D01*
X0101380Y0040639D01*
X0101316Y0040615D01*
X0101251Y0040596D01*
X0101186Y0040579D01*
X0101119Y0040566D01*
X0101052Y0040557D01*
X0100985Y0040552D01*
X0100917Y0040550D01*
X0097167Y0040550D01*
X0097069Y0040552D01*
X0096971Y0040558D01*
X0096873Y0040567D01*
X0096776Y0040581D01*
X0096679Y0040598D01*
X0096583Y0040619D01*
X0096488Y0040644D01*
X0096394Y0040672D01*
X0096302Y0040705D01*
X0096210Y0040740D01*
X0096120Y0040780D01*
X0096032Y0040822D01*
X0095945Y0040869D01*
X0095861Y0040918D01*
X0095778Y0040971D01*
X0095698Y0041027D01*
X0095619Y0041087D01*
X0095543Y0041149D01*
X0095470Y0041214D01*
X0095399Y0041282D01*
X0095331Y0041353D01*
X0095266Y0041426D01*
X0095204Y0041502D01*
X0095144Y0041581D01*
X0095088Y0041661D01*
X0095035Y0041744D01*
X0094986Y0041828D01*
X0094939Y0041915D01*
X0094897Y0042003D01*
X0094857Y0042093D01*
X0094822Y0042185D01*
X0094789Y0042277D01*
X0094761Y0042371D01*
X0094736Y0042466D01*
X0094715Y0042562D01*
X0094698Y0042659D01*
X0094684Y0042756D01*
X0094675Y0042854D01*
X0094669Y0042952D01*
X0094667Y0043050D01*
X0094667Y0047410D01*
X0093938Y0038218D02*
X0093938Y0038218D01*
X0020205Y0044200D02*
X0020205Y0044200D01*
X0257017Y0070536D02*
X0315258Y0070536D01*
X0308653Y0072134D02*
X0257017Y0072134D01*
X0257017Y0073733D02*
X0307267Y0073733D01*
X0307267Y0075332D02*
X0257017Y0075332D01*
X0257017Y0076930D02*
X0307267Y0076930D01*
X0308216Y0078529D02*
X0257017Y0078529D01*
X0257017Y0080127D02*
X0309814Y0080127D01*
X0313654Y0081726D02*
X0257017Y0081726D01*
X0257017Y0083324D02*
X0313654Y0083324D01*
X0313654Y0084923D02*
X0257017Y0084923D01*
X0257017Y0086521D02*
X0313757Y0086521D01*
X0314817Y0088120D02*
X0257017Y0088120D01*
X0257017Y0089718D02*
X0314817Y0089718D01*
X0314817Y0091317D02*
X0257017Y0091317D01*
X0257017Y0092915D02*
X0314817Y0092915D01*
X0314800Y0094514D02*
X0257017Y0094514D01*
X0257017Y0096112D02*
X0314474Y0096112D01*
X0313752Y0097711D02*
X0257017Y0097711D01*
X0257017Y0099309D02*
X0312276Y0099309D01*
X0310818Y0108900D02*
X0260846Y0108900D01*
X0260767Y0110499D02*
X0312842Y0110499D01*
X0313931Y0112097D02*
X0260767Y0112097D01*
X0260767Y0113696D02*
X0314522Y0113696D01*
X0314800Y0115294D02*
X0260767Y0115294D01*
X0260767Y0116893D02*
X0314817Y0116893D01*
X0314817Y0118491D02*
X0260767Y0118491D01*
X0260767Y0120090D02*
X0314817Y0120090D01*
X0314817Y0121688D02*
X0260767Y0121688D01*
X0260767Y0123287D02*
X0314817Y0123287D01*
X0314329Y0124885D02*
X0260767Y0124885D01*
X0260767Y0126484D02*
X0313654Y0126484D01*
X0313654Y0128082D02*
X0260767Y0128082D01*
X0260767Y0129681D02*
X0313654Y0129681D01*
X0313654Y0131279D02*
X0260767Y0131279D01*
X0260767Y0132878D02*
X0314260Y0132878D01*
X0308811Y0134476D02*
X0260767Y0134476D01*
X0260767Y0136075D02*
X0307267Y0136075D01*
X0307267Y0137673D02*
X0260767Y0137673D01*
X0260767Y0139272D02*
X0307267Y0139272D01*
X0308058Y0140870D02*
X0260767Y0140870D01*
X0260767Y0142469D02*
X0309656Y0142469D01*
X0259955Y0100908D02*
X0257017Y0100908D01*
X0291985Y0190424D02*
X0293199Y0190424D01*
D29*
X0114667Y0071800D02*
X0102167Y0071800D01*
X0097738Y0070737D02*
X0095917Y0070737D01*
X0095917Y0075550D01*
X0095917Y0070737D02*
X0081596Y0070737D01*
X0081596Y0068769D01*
X0081596Y0066800D02*
X0078417Y0066800D01*
X0078415Y0066875D01*
X0078409Y0066950D01*
X0078399Y0067025D01*
X0078386Y0067099D01*
X0078368Y0067172D01*
X0078347Y0067244D01*
X0078322Y0067315D01*
X0078293Y0067384D01*
X0078260Y0067452D01*
X0078224Y0067519D01*
X0078185Y0067583D01*
X0078143Y0067645D01*
X0078097Y0067704D01*
X0078048Y0067762D01*
X0077996Y0067816D01*
X0077942Y0067868D01*
X0077884Y0067917D01*
X0077825Y0067963D01*
X0077763Y0068005D01*
X0077699Y0068044D01*
X0077632Y0068080D01*
X0077564Y0068113D01*
X0077495Y0068142D01*
X0077424Y0068167D01*
X0077352Y0068188D01*
X0077279Y0068206D01*
X0077205Y0068219D01*
X0077130Y0068229D01*
X0077055Y0068235D01*
X0076980Y0068237D01*
X0075238Y0068237D01*
X0075238Y0066269D02*
X0070917Y0066269D01*
X0067167Y0063581D02*
X0067169Y0063513D01*
X0067174Y0063446D01*
X0067183Y0063379D01*
X0067196Y0063312D01*
X0067213Y0063247D01*
X0067232Y0063182D01*
X0067256Y0063118D01*
X0067283Y0063056D01*
X0067313Y0062995D01*
X0067346Y0062937D01*
X0067382Y0062880D01*
X0067422Y0062825D01*
X0067464Y0062772D01*
X0067510Y0062721D01*
X0067557Y0062674D01*
X0067608Y0062628D01*
X0067661Y0062586D01*
X0067716Y0062546D01*
X0067773Y0062510D01*
X0067831Y0062477D01*
X0067892Y0062447D01*
X0067954Y0062420D01*
X0068018Y0062396D01*
X0068083Y0062377D01*
X0068148Y0062360D01*
X0068215Y0062347D01*
X0068282Y0062338D01*
X0068349Y0062333D01*
X0068417Y0062331D01*
X0075238Y0062331D01*
X0075238Y0060363D02*
X0073230Y0060363D01*
X0073166Y0060361D01*
X0073102Y0060355D01*
X0073038Y0060346D01*
X0072976Y0060332D01*
X0072914Y0060315D01*
X0072853Y0060294D01*
X0072794Y0060269D01*
X0072736Y0060241D01*
X0072680Y0060210D01*
X0072626Y0060175D01*
X0072574Y0060137D01*
X0072525Y0060096D01*
X0072478Y0060052D01*
X0072434Y0060005D01*
X0072393Y0059956D01*
X0072355Y0059904D01*
X0072320Y0059850D01*
X0072289Y0059794D01*
X0072261Y0059736D01*
X0072236Y0059677D01*
X0072215Y0059616D01*
X0072198Y0059554D01*
X0072184Y0059492D01*
X0072175Y0059428D01*
X0072169Y0059364D01*
X0072167Y0059300D01*
X0075238Y0064300D02*
X0077885Y0064300D01*
X0077929Y0064302D01*
X0077972Y0064307D01*
X0078015Y0064316D01*
X0078057Y0064329D01*
X0078098Y0064345D01*
X0078138Y0064364D01*
X0078175Y0064386D01*
X0078211Y0064412D01*
X0078245Y0064440D01*
X0078276Y0064471D01*
X0078304Y0064505D01*
X0078330Y0064541D01*
X0078352Y0064578D01*
X0078371Y0064618D01*
X0078387Y0064659D01*
X0078400Y0064701D01*
X0078409Y0064744D01*
X0078414Y0064787D01*
X0078416Y0064831D01*
X0078417Y0064831D02*
X0081596Y0064831D01*
X0081596Y0062863D02*
X0095917Y0062863D01*
X0095917Y0058050D01*
X0102167Y0053050D02*
X0102167Y0041800D01*
X0127167Y0041800D02*
X0127167Y0053050D01*
X0109667Y0061800D02*
X0109667Y0066800D01*
X0109665Y0066886D01*
X0109660Y0066972D01*
X0109650Y0067057D01*
X0109637Y0067142D01*
X0109620Y0067226D01*
X0109600Y0067310D01*
X0109576Y0067392D01*
X0109548Y0067473D01*
X0109517Y0067554D01*
X0109483Y0067632D01*
X0109445Y0067709D01*
X0109403Y0067785D01*
X0109359Y0067858D01*
X0109311Y0067929D01*
X0109260Y0067999D01*
X0109206Y0068066D01*
X0109150Y0068130D01*
X0109090Y0068192D01*
X0109028Y0068252D01*
X0108964Y0068308D01*
X0108897Y0068362D01*
X0108827Y0068413D01*
X0108756Y0068461D01*
X0108683Y0068505D01*
X0108607Y0068547D01*
X0108530Y0068585D01*
X0108452Y0068619D01*
X0108371Y0068650D01*
X0108290Y0068678D01*
X0108208Y0068702D01*
X0108124Y0068722D01*
X0108040Y0068739D01*
X0107955Y0068752D01*
X0107870Y0068762D01*
X0107784Y0068767D01*
X0107698Y0068769D01*
X0097738Y0068769D01*
X0097738Y0066800D02*
X0105917Y0066800D01*
X0105985Y0066798D01*
X0106052Y0066793D01*
X0106119Y0066784D01*
X0106186Y0066771D01*
X0106251Y0066754D01*
X0106316Y0066735D01*
X0106380Y0066711D01*
X0106442Y0066684D01*
X0106503Y0066654D01*
X0106561Y0066621D01*
X0106618Y0066585D01*
X0106673Y0066545D01*
X0106726Y0066503D01*
X0106777Y0066457D01*
X0106824Y0066410D01*
X0106870Y0066359D01*
X0106912Y0066306D01*
X0106952Y0066251D01*
X0106988Y0066194D01*
X0107021Y0066136D01*
X0107051Y0066075D01*
X0107078Y0066013D01*
X0107102Y0065949D01*
X0107121Y0065884D01*
X0107138Y0065819D01*
X0107151Y0065752D01*
X0107160Y0065685D01*
X0107165Y0065618D01*
X0107167Y0065550D01*
X0102167Y0064831D02*
X0102167Y0063050D01*
X0102167Y0064831D02*
X0097738Y0064831D01*
X0097738Y0062863D02*
X0095917Y0062863D01*
X0067167Y0063581D02*
X0067167Y0064300D01*
X0061010Y0062331D02*
X0059096Y0062331D01*
X0059096Y0060363D02*
X0057167Y0060363D01*
X0057167Y0059300D01*
X0053417Y0061800D02*
X0053419Y0061898D01*
X0053425Y0061996D01*
X0053434Y0062094D01*
X0053448Y0062191D01*
X0053465Y0062288D01*
X0053486Y0062384D01*
X0053511Y0062479D01*
X0053539Y0062573D01*
X0053572Y0062665D01*
X0053607Y0062757D01*
X0053647Y0062847D01*
X0053689Y0062935D01*
X0053736Y0063022D01*
X0053785Y0063106D01*
X0053838Y0063189D01*
X0053894Y0063269D01*
X0053954Y0063348D01*
X0054016Y0063424D01*
X0054081Y0063497D01*
X0054149Y0063568D01*
X0054220Y0063636D01*
X0054293Y0063701D01*
X0054369Y0063763D01*
X0054448Y0063823D01*
X0054528Y0063879D01*
X0054611Y0063932D01*
X0054695Y0063981D01*
X0054782Y0064028D01*
X0054870Y0064070D01*
X0054960Y0064110D01*
X0055052Y0064145D01*
X0055144Y0064178D01*
X0055238Y0064206D01*
X0055333Y0064231D01*
X0055429Y0064252D01*
X0055526Y0064269D01*
X0055623Y0064283D01*
X0055721Y0064292D01*
X0055819Y0064298D01*
X0055917Y0064300D01*
X0059096Y0064300D01*
X0059096Y0066269D02*
X0057167Y0066269D01*
X0059096Y0068237D02*
X0059667Y0068237D01*
X0059667Y0069300D01*
X0057167Y0066269D02*
X0057027Y0066271D01*
X0056887Y0066277D01*
X0056747Y0066287D01*
X0056607Y0066300D01*
X0056468Y0066318D01*
X0056329Y0066340D01*
X0056192Y0066365D01*
X0056054Y0066394D01*
X0055918Y0066427D01*
X0055783Y0066464D01*
X0055649Y0066505D01*
X0055516Y0066550D01*
X0055384Y0066598D01*
X0055254Y0066650D01*
X0055125Y0066705D01*
X0054998Y0066764D01*
X0054872Y0066827D01*
X0054748Y0066893D01*
X0054627Y0066962D01*
X0054507Y0067035D01*
X0054389Y0067112D01*
X0054274Y0067191D01*
X0054160Y0067274D01*
X0054050Y0067360D01*
X0053941Y0067449D01*
X0053835Y0067541D01*
X0053732Y0067636D01*
X0053631Y0067733D01*
X0053534Y0067834D01*
X0053439Y0067937D01*
X0053347Y0068043D01*
X0053258Y0068152D01*
X0053172Y0068262D01*
X0053089Y0068376D01*
X0053010Y0068491D01*
X0052933Y0068609D01*
X0052860Y0068729D01*
X0052791Y0068850D01*
X0052725Y0068974D01*
X0052662Y0069100D01*
X0052603Y0069227D01*
X0052548Y0069356D01*
X0052496Y0069486D01*
X0052448Y0069618D01*
X0052403Y0069751D01*
X0052362Y0069885D01*
X0052325Y0070020D01*
X0052292Y0070156D01*
X0052263Y0070294D01*
X0052238Y0070431D01*
X0052216Y0070570D01*
X0052198Y0070709D01*
X0052185Y0070849D01*
X0052175Y0070989D01*
X0052169Y0071129D01*
X0052167Y0071269D01*
X0052167Y0071387D01*
X0061010Y0062331D02*
X0061107Y0062329D01*
X0061204Y0062323D01*
X0061300Y0062313D01*
X0061396Y0062300D01*
X0061491Y0062282D01*
X0061586Y0062261D01*
X0061679Y0062236D01*
X0061772Y0062207D01*
X0061863Y0062175D01*
X0061953Y0062138D01*
X0062041Y0062099D01*
X0062128Y0062055D01*
X0062213Y0062009D01*
X0062296Y0061959D01*
X0062377Y0061905D01*
X0062455Y0061848D01*
X0062532Y0061789D01*
X0062605Y0061726D01*
X0062677Y0061660D01*
X0062745Y0061592D01*
X0062811Y0061520D01*
X0062874Y0061447D01*
X0062933Y0061370D01*
X0062990Y0061292D01*
X0063044Y0061211D01*
X0063094Y0061128D01*
X0063140Y0061043D01*
X0063184Y0060956D01*
X0063223Y0060868D01*
X0063260Y0060778D01*
X0063292Y0060687D01*
X0063321Y0060594D01*
X0063346Y0060501D01*
X0063367Y0060406D01*
X0063385Y0060311D01*
X0063398Y0060215D01*
X0063408Y0060119D01*
X0063414Y0060022D01*
X0063416Y0059925D01*
D30*
X0053417Y0061800D03*
X0047167Y0061800D03*
X0040917Y0056800D03*
X0089667Y0040550D03*
X0109667Y0039300D03*
X0109667Y0021800D03*
X0114667Y0021800D03*
X0119667Y0021800D03*
X0147167Y0016800D03*
X0147167Y0029300D03*
X0160917Y0046800D03*
X0134667Y0066800D03*
X0130917Y0071800D03*
X0114667Y0071800D03*
X0114667Y0066800D03*
X0102167Y0063050D03*
X0095917Y0058050D03*
X0102167Y0071800D03*
X0095917Y0075550D03*
X0117167Y0096800D03*
X0130917Y0096800D03*
X0049657Y0090550D03*
X0039667Y0094300D03*
X0079667Y0151800D03*
X0067167Y0161800D03*
X0059667Y0174300D03*
X0047167Y0174300D03*
X0089667Y0019300D03*
D31*
X0047354Y0039300D02*
X0047354Y0049300D01*
X0039667Y0049300D02*
X0039480Y0049300D01*
X0039667Y0049300D02*
X0039664Y0049058D01*
X0039655Y0048817D01*
X0039641Y0048576D01*
X0039620Y0048335D01*
X0039594Y0048095D01*
X0039562Y0047855D01*
X0039524Y0047616D01*
X0039481Y0047379D01*
X0039431Y0047142D01*
X0039376Y0046907D01*
X0039316Y0046673D01*
X0039249Y0046441D01*
X0039178Y0046210D01*
X0039100Y0045981D01*
X0039017Y0045754D01*
X0038929Y0045529D01*
X0038835Y0045306D01*
X0038736Y0045086D01*
X0038631Y0044868D01*
X0038522Y0044653D01*
X0038407Y0044440D01*
X0038287Y0044230D01*
X0038162Y0044024D01*
X0038032Y0043820D01*
X0037897Y0043619D01*
X0037757Y0043422D01*
X0037613Y0043228D01*
X0037464Y0043038D01*
X0037310Y0042852D01*
X0037152Y0042669D01*
X0036990Y0042490D01*
X0036823Y0042315D01*
X0036652Y0042144D01*
X0036477Y0041977D01*
X0036298Y0041815D01*
X0036115Y0041657D01*
X0035929Y0041503D01*
X0035739Y0041354D01*
X0035545Y0041210D01*
X0035348Y0041070D01*
X0035147Y0040935D01*
X0034943Y0040805D01*
X0034737Y0040680D01*
X0034527Y0040560D01*
X0034314Y0040445D01*
X0034099Y0040336D01*
X0033881Y0040231D01*
X0033661Y0040132D01*
X0033438Y0040038D01*
X0033213Y0039950D01*
X0032986Y0039867D01*
X0032757Y0039789D01*
X0032526Y0039718D01*
X0032294Y0039651D01*
X0032060Y0039591D01*
X0031825Y0039536D01*
X0031588Y0039486D01*
X0031351Y0039443D01*
X0031112Y0039405D01*
X0030872Y0039373D01*
X0030632Y0039347D01*
X0030391Y0039326D01*
X0030150Y0039312D01*
X0029909Y0039303D01*
X0029667Y0039300D01*
X0022167Y0039300D01*
X0021925Y0039297D01*
X0021684Y0039288D01*
X0021443Y0039274D01*
X0021202Y0039253D01*
X0020962Y0039227D01*
X0020722Y0039195D01*
X0020483Y0039157D01*
X0020246Y0039114D01*
X0020009Y0039064D01*
X0019774Y0039009D01*
X0019540Y0038949D01*
X0019308Y0038882D01*
X0019077Y0038811D01*
X0018848Y0038733D01*
X0018621Y0038650D01*
X0018396Y0038562D01*
X0018173Y0038468D01*
X0017953Y0038369D01*
X0017735Y0038264D01*
X0017520Y0038155D01*
X0017307Y0038040D01*
X0017097Y0037920D01*
X0016891Y0037795D01*
X0016687Y0037665D01*
X0016486Y0037530D01*
X0016289Y0037390D01*
X0016095Y0037246D01*
X0015905Y0037097D01*
X0015719Y0036943D01*
X0015536Y0036785D01*
X0015357Y0036623D01*
X0015182Y0036456D01*
X0015011Y0036285D01*
X0014844Y0036110D01*
X0014682Y0035931D01*
X0014524Y0035748D01*
X0014370Y0035562D01*
X0014221Y0035372D01*
X0014077Y0035178D01*
X0013937Y0034981D01*
X0013802Y0034780D01*
X0013672Y0034576D01*
X0013547Y0034370D01*
X0013427Y0034160D01*
X0013312Y0033947D01*
X0013203Y0033732D01*
X0013098Y0033514D01*
X0012999Y0033294D01*
X0012905Y0033071D01*
X0012817Y0032846D01*
X0012734Y0032619D01*
X0012656Y0032390D01*
X0012585Y0032159D01*
X0012518Y0031927D01*
X0012458Y0031693D01*
X0012403Y0031458D01*
X0012353Y0031221D01*
X0012310Y0030984D01*
X0012272Y0030745D01*
X0012240Y0030505D01*
X0012214Y0030265D01*
X0012193Y0030024D01*
X0012179Y0029783D01*
X0012170Y0029542D01*
X0012167Y0029300D01*
X0012167Y0018050D01*
X0010917Y0018050D01*
X0030917Y0018050D02*
X0032167Y0018050D01*
X0032167Y0024113D01*
X0032169Y0024256D01*
X0032175Y0024399D01*
X0032185Y0024541D01*
X0032198Y0024684D01*
X0032216Y0024825D01*
X0032238Y0024967D01*
X0032263Y0025107D01*
X0032293Y0025247D01*
X0032326Y0025386D01*
X0032363Y0025524D01*
X0032404Y0025661D01*
X0032448Y0025797D01*
X0032496Y0025932D01*
X0032548Y0026065D01*
X0032604Y0026197D01*
X0032663Y0026327D01*
X0032726Y0026455D01*
X0032792Y0026582D01*
X0032862Y0026707D01*
X0032935Y0026829D01*
X0033012Y0026950D01*
X0033091Y0027069D01*
X0033174Y0027185D01*
X0033261Y0027299D01*
X0033350Y0027410D01*
X0033442Y0027520D01*
X0033538Y0027626D01*
X0033636Y0027730D01*
X0033737Y0027831D01*
X0033841Y0027929D01*
X0033947Y0028025D01*
X0034057Y0028117D01*
X0034168Y0028206D01*
X0034282Y0028293D01*
X0034398Y0028376D01*
X0034517Y0028455D01*
X0034638Y0028532D01*
X0034761Y0028605D01*
X0034885Y0028675D01*
X0035012Y0028741D01*
X0035140Y0028804D01*
X0035270Y0028863D01*
X0035402Y0028919D01*
X0035535Y0028971D01*
X0035670Y0029019D01*
X0035806Y0029063D01*
X0035943Y0029104D01*
X0036081Y0029141D01*
X0036220Y0029174D01*
X0036360Y0029204D01*
X0036500Y0029229D01*
X0036642Y0029251D01*
X0036783Y0029269D01*
X0036926Y0029282D01*
X0037068Y0029292D01*
X0037211Y0029298D01*
X0037354Y0029300D01*
X0037596Y0029303D01*
X0037837Y0029312D01*
X0038078Y0029326D01*
X0038319Y0029347D01*
X0038559Y0029373D01*
X0038799Y0029405D01*
X0039038Y0029443D01*
X0039275Y0029486D01*
X0039512Y0029536D01*
X0039747Y0029591D01*
X0039981Y0029651D01*
X0040213Y0029718D01*
X0040444Y0029789D01*
X0040673Y0029867D01*
X0040900Y0029950D01*
X0041125Y0030038D01*
X0041348Y0030132D01*
X0041568Y0030231D01*
X0041786Y0030336D01*
X0042001Y0030445D01*
X0042214Y0030560D01*
X0042424Y0030680D01*
X0042630Y0030805D01*
X0042834Y0030935D01*
X0043035Y0031070D01*
X0043232Y0031210D01*
X0043426Y0031354D01*
X0043616Y0031503D01*
X0043802Y0031657D01*
X0043985Y0031815D01*
X0044164Y0031977D01*
X0044339Y0032144D01*
X0044510Y0032315D01*
X0044677Y0032490D01*
X0044839Y0032669D01*
X0044997Y0032852D01*
X0045151Y0033038D01*
X0045300Y0033228D01*
X0045444Y0033422D01*
X0045584Y0033619D01*
X0045719Y0033820D01*
X0045849Y0034024D01*
X0045974Y0034230D01*
X0046094Y0034440D01*
X0046209Y0034653D01*
X0046318Y0034868D01*
X0046423Y0035086D01*
X0046522Y0035306D01*
X0046616Y0035529D01*
X0046704Y0035754D01*
X0046787Y0035981D01*
X0046865Y0036210D01*
X0046936Y0036441D01*
X0047003Y0036673D01*
X0047063Y0036907D01*
X0047118Y0037142D01*
X0047168Y0037379D01*
X0047211Y0037616D01*
X0047249Y0037855D01*
X0047281Y0038095D01*
X0047307Y0038335D01*
X0047328Y0038576D01*
X0047342Y0038817D01*
X0047351Y0039058D01*
X0047354Y0039300D01*
X0074667Y0076800D02*
X0074667Y0106800D01*
X0074671Y0107102D01*
X0074682Y0107404D01*
X0074700Y0107705D01*
X0074725Y0108006D01*
X0074758Y0108307D01*
X0074798Y0108606D01*
X0074845Y0108904D01*
X0074900Y0109202D01*
X0074961Y0109497D01*
X0075030Y0109791D01*
X0075106Y0110084D01*
X0075189Y0110374D01*
X0075279Y0110663D01*
X0075376Y0110949D01*
X0075479Y0111233D01*
X0075590Y0111514D01*
X0075707Y0111792D01*
X0075831Y0112068D01*
X0075962Y0112340D01*
X0076099Y0112609D01*
X0076242Y0112875D01*
X0076392Y0113137D01*
X0076549Y0113396D01*
X0076711Y0113650D01*
X0076880Y0113901D01*
X0077054Y0114147D01*
X0077235Y0114390D01*
X0077421Y0114627D01*
X0077613Y0114861D01*
X0077811Y0115089D01*
X0078014Y0115313D01*
X0078222Y0115531D01*
X0078436Y0115745D01*
X0078654Y0115953D01*
X0078878Y0116156D01*
X0079106Y0116354D01*
X0079340Y0116546D01*
X0079577Y0116732D01*
X0079820Y0116913D01*
X0080066Y0117087D01*
X0080317Y0117256D01*
X0080571Y0117418D01*
X0080830Y0117575D01*
X0081092Y0117725D01*
X0081358Y0117868D01*
X0081627Y0118005D01*
X0081899Y0118136D01*
X0082175Y0118260D01*
X0082453Y0118377D01*
X0082734Y0118488D01*
X0083018Y0118591D01*
X0083304Y0118688D01*
X0083593Y0118778D01*
X0083883Y0118861D01*
X0084176Y0118937D01*
X0084470Y0119006D01*
X0084765Y0119067D01*
X0085063Y0119122D01*
X0085361Y0119169D01*
X0085660Y0119209D01*
X0085961Y0119242D01*
X0086262Y0119267D01*
X0086563Y0119285D01*
X0086865Y0119296D01*
X0087167Y0119300D01*
X0097167Y0119300D01*
X0109667Y0119300D01*
X0087167Y0119300D02*
X0084667Y0119300D01*
X0087167Y0119300D02*
X0086865Y0119304D01*
X0086563Y0119315D01*
X0086262Y0119333D01*
X0085961Y0119358D01*
X0085660Y0119391D01*
X0085361Y0119431D01*
X0085063Y0119478D01*
X0084765Y0119533D01*
X0084470Y0119594D01*
X0084176Y0119663D01*
X0083883Y0119739D01*
X0083593Y0119822D01*
X0083304Y0119912D01*
X0083018Y0120009D01*
X0082734Y0120112D01*
X0082453Y0120223D01*
X0082175Y0120340D01*
X0081899Y0120464D01*
X0081627Y0120595D01*
X0081358Y0120732D01*
X0081092Y0120875D01*
X0080830Y0121025D01*
X0080571Y0121182D01*
X0080317Y0121344D01*
X0080066Y0121513D01*
X0079820Y0121687D01*
X0079577Y0121868D01*
X0079340Y0122054D01*
X0079106Y0122246D01*
X0078878Y0122444D01*
X0078654Y0122647D01*
X0078436Y0122855D01*
X0078222Y0123069D01*
X0078014Y0123287D01*
X0077811Y0123511D01*
X0077613Y0123739D01*
X0077421Y0123973D01*
X0077235Y0124210D01*
X0077054Y0124453D01*
X0076880Y0124699D01*
X0076711Y0124950D01*
X0076549Y0125204D01*
X0076392Y0125463D01*
X0076242Y0125725D01*
X0076099Y0125991D01*
X0075962Y0126260D01*
X0075831Y0126532D01*
X0075707Y0126808D01*
X0075590Y0127086D01*
X0075479Y0127367D01*
X0075376Y0127651D01*
X0075279Y0127937D01*
X0075189Y0128226D01*
X0075106Y0128516D01*
X0075030Y0128809D01*
X0074961Y0129103D01*
X0074900Y0129398D01*
X0074845Y0129696D01*
X0074798Y0129994D01*
X0074758Y0130293D01*
X0074725Y0130594D01*
X0074700Y0130895D01*
X0074682Y0131196D01*
X0074671Y0131498D01*
X0074667Y0131800D01*
X0074667Y0151800D01*
X0079667Y0151800D01*
X0059667Y0174300D02*
X0047167Y0174300D01*
X0168417Y0128916D02*
X0168417Y0123050D01*
X0168417Y0128916D02*
X0177167Y0128916D01*
X0177409Y0128919D01*
X0177650Y0128928D01*
X0177891Y0128942D01*
X0178132Y0128963D01*
X0178372Y0128989D01*
X0178612Y0129021D01*
X0178851Y0129059D01*
X0179088Y0129102D01*
X0179325Y0129152D01*
X0179560Y0129207D01*
X0179794Y0129267D01*
X0180026Y0129334D01*
X0180257Y0129405D01*
X0180486Y0129483D01*
X0180713Y0129566D01*
X0180938Y0129654D01*
X0181161Y0129748D01*
X0181381Y0129847D01*
X0181599Y0129952D01*
X0181814Y0130061D01*
X0182027Y0130176D01*
X0182237Y0130296D01*
X0182443Y0130421D01*
X0182647Y0130551D01*
X0182848Y0130686D01*
X0183045Y0130826D01*
X0183239Y0130970D01*
X0183429Y0131119D01*
X0183615Y0131273D01*
X0183798Y0131431D01*
X0183977Y0131593D01*
X0184152Y0131760D01*
X0184323Y0131931D01*
X0184490Y0132106D01*
X0184652Y0132285D01*
X0184810Y0132468D01*
X0184964Y0132654D01*
X0185113Y0132844D01*
X0185257Y0133038D01*
X0185397Y0133235D01*
X0185532Y0133436D01*
X0185662Y0133640D01*
X0185787Y0133846D01*
X0185907Y0134056D01*
X0186022Y0134269D01*
X0186131Y0134484D01*
X0186236Y0134702D01*
X0186335Y0134922D01*
X0186429Y0135145D01*
X0186517Y0135370D01*
X0186600Y0135597D01*
X0186678Y0135826D01*
X0186749Y0136057D01*
X0186816Y0136289D01*
X0186876Y0136523D01*
X0186931Y0136758D01*
X0186981Y0136995D01*
X0187024Y0137232D01*
X0187062Y0137471D01*
X0187094Y0137711D01*
X0187120Y0137951D01*
X0187141Y0138192D01*
X0187155Y0138433D01*
X0187164Y0138674D01*
X0187167Y0138916D01*
X0187167Y0196800D01*
X0168417Y0090550D02*
X0168417Y0083434D01*
X0161281Y0046800D02*
X0161281Y0029674D01*
X0161281Y0046800D02*
X0160917Y0046800D01*
M02*
