%
M48
M72
T01C0.02362
T02C0.04000
T03C0.04331
T04C0.04400
T05C0.04724
T06C0.07100
%
T01
X312167Y75550
X312167Y138050
X247167Y196800
X234667Y151800
X174667Y136800
X168417Y123050
X130917Y96800
X117167Y96800
X95917Y75550
X102167Y71800
X114667Y71800
X114667Y66800
X102167Y63050
X95917Y58050
X89667Y40550
X109667Y39300
X109667Y21800
X114667Y21800
X119667Y21800
X147167Y16800
X147167Y29300
X160917Y46800
X134667Y66800
X130917Y71800
X168417Y90550
X174667Y75550
X89667Y19300
X40917Y56800
X47167Y61800
X53417Y61800
X49657Y90550
X39667Y94300
X79667Y151800
X67167Y161800
X59667Y174300
X47167Y174300
T02
X10917Y18050
X20917Y18050
X30917Y18050
X43417Y18050
X53417Y18050
X63417Y18050
T03
X307167Y196800
X297167Y196800
X287167Y196800
X187167Y196800
X177167Y196800
X167167Y196800
T04
X109667Y109300
X109667Y119300
X129667Y189300
X124667Y199300
X94667Y199300
X89667Y189300
T05
X59667Y196800
X49667Y196800
X24667Y196800
X14667Y196800
X14667Y174300
X14667Y164300
X14667Y149300
X14667Y139300
X14667Y119300
X14667Y109300
X14667Y94300
X14667Y84300
T06
X109667Y189300
M30
