G75*
%MOIN*%
%OFA0B0*%
%FSLAX25Y25*%
%IPPOS*%
%LPD*%
%AMOC8*
5,1,8,0,0,1.08239X$1,22.5*
%
%ADD10C,0.01300*%
%ADD11R,0.45000X0.15000*%
%ADD12C,0.00400*%
%ADD13C,0.00800*%
%ADD14C,0.01575*%
%ADD15C,0.00300*%
D10*
X0192713Y0117450D02*
X0192713Y0121654D01*
X0190612Y0121654D02*
X0189561Y0121654D01*
X0190612Y0121654D02*
X0192713Y0119552D01*
X0195508Y0119552D02*
X0199711Y0119552D01*
X0199711Y0120603D02*
X0198660Y0121654D01*
X0196559Y0121654D01*
X0195508Y0120603D01*
X0195508Y0119552D01*
X0196559Y0117450D02*
X0198660Y0117450D01*
X0199711Y0118501D01*
X0199711Y0120603D01*
X0202275Y0121654D02*
X0204377Y0121654D01*
X0203326Y0122704D02*
X0203326Y0118501D01*
X0202275Y0117450D01*
X0207171Y0119552D02*
X0211375Y0119552D01*
X0211375Y0120603D02*
X0210324Y0121654D01*
X0208222Y0121654D01*
X0207171Y0120603D01*
X0207171Y0119552D01*
X0208222Y0117450D02*
X0210324Y0117450D01*
X0211375Y0118501D01*
X0211375Y0120603D01*
X0214169Y0120603D02*
X0214169Y0117450D01*
X0216271Y0117450D02*
X0216271Y0120603D01*
X0215220Y0121654D01*
X0214169Y0120603D01*
X0216271Y0120603D02*
X0217322Y0121654D01*
X0218373Y0121654D01*
X0218373Y0117450D01*
X0220936Y0117450D02*
X0223038Y0117450D01*
X0221987Y0117450D02*
X0221987Y0121654D01*
X0223038Y0121654D01*
X0221987Y0123755D02*
X0221987Y0124806D01*
X0225601Y0121654D02*
X0227703Y0121654D01*
X0226652Y0122704D02*
X0226652Y0118501D01*
X0225601Y0117450D01*
X0230267Y0117450D02*
X0232369Y0117450D01*
X0231318Y0117450D02*
X0231318Y0123755D01*
X0232369Y0123755D01*
X0235163Y0121654D02*
X0235163Y0117450D01*
X0238316Y0117450D01*
X0239367Y0118501D01*
X0239367Y0121654D01*
X0242161Y0120603D02*
X0242161Y0117450D01*
X0244263Y0117450D02*
X0244263Y0120603D01*
X0243212Y0121654D01*
X0242161Y0120603D01*
X0244263Y0120603D02*
X0245314Y0121654D01*
X0246365Y0121654D01*
X0246365Y0117450D01*
X0256157Y0118501D02*
X0257208Y0119552D01*
X0259310Y0119552D01*
X0260360Y0120603D01*
X0259310Y0121654D01*
X0256157Y0121654D01*
X0256157Y0118501D02*
X0257208Y0117450D01*
X0260360Y0117450D01*
X0263859Y0121654D02*
X0262809Y0122704D01*
X0262809Y0124806D01*
X0266654Y0121654D02*
X0269807Y0121654D01*
X0270857Y0120603D01*
X0270857Y0118501D01*
X0269807Y0117450D01*
X0266654Y0117450D01*
X0273652Y0119552D02*
X0277855Y0119552D01*
X0277855Y0120603D02*
X0276805Y0121654D01*
X0274703Y0121654D01*
X0273652Y0120603D01*
X0273652Y0119552D01*
X0274703Y0117450D02*
X0276805Y0117450D01*
X0277855Y0118501D01*
X0277855Y0120603D01*
X0280419Y0117450D02*
X0282521Y0117450D01*
X0281470Y0117450D02*
X0281470Y0123755D01*
X0282521Y0123755D01*
X0285315Y0120603D02*
X0286366Y0121654D01*
X0288468Y0121654D01*
X0289519Y0120603D01*
X0289519Y0118501D01*
X0288468Y0117450D01*
X0286366Y0117450D01*
X0285315Y0119552D02*
X0289519Y0119552D01*
X0285315Y0119552D02*
X0285315Y0120603D01*
X0292313Y0123755D02*
X0296517Y0123755D01*
X0294415Y0123755D02*
X0294415Y0117450D01*
X0291517Y0091255D02*
X0289415Y0089154D01*
X0287313Y0091255D01*
X0287313Y0084950D01*
X0284519Y0086001D02*
X0283468Y0087052D01*
X0280315Y0087052D01*
X0280315Y0088103D02*
X0280315Y0084950D01*
X0283468Y0084950D01*
X0284519Y0086001D01*
X0281366Y0089154D02*
X0280315Y0088103D01*
X0281366Y0089154D02*
X0283468Y0089154D01*
X0277521Y0089154D02*
X0273317Y0084950D01*
X0277521Y0084950D02*
X0273317Y0089154D01*
X0263525Y0089154D02*
X0261423Y0084950D01*
X0259321Y0089154D01*
X0256527Y0088103D02*
X0256527Y0086001D01*
X0255476Y0084950D01*
X0253374Y0084950D01*
X0252323Y0086001D01*
X0252323Y0088103D01*
X0253374Y0089154D01*
X0255476Y0089154D01*
X0256527Y0088103D01*
X0249529Y0091255D02*
X0248478Y0091255D01*
X0248478Y0084950D01*
X0249529Y0084950D02*
X0247427Y0084950D01*
X0243813Y0086001D02*
X0242762Y0084950D01*
X0243813Y0086001D02*
X0243813Y0090204D01*
X0244864Y0089154D02*
X0242762Y0089154D01*
X0240198Y0089154D02*
X0240198Y0088103D01*
X0239147Y0088103D01*
X0239147Y0089154D01*
X0240198Y0089154D01*
X0240198Y0086001D02*
X0240198Y0084950D01*
X0239147Y0084950D01*
X0239147Y0086001D01*
X0240198Y0086001D01*
X0240031Y0069154D02*
X0240031Y0068103D01*
X0238980Y0068103D01*
X0238980Y0069154D01*
X0240031Y0069154D01*
X0242825Y0068103D02*
X0242825Y0066001D01*
X0243876Y0064950D01*
X0247029Y0064950D01*
X0247029Y0062848D02*
X0247029Y0069154D01*
X0243876Y0069154D01*
X0242825Y0068103D01*
X0240031Y0066001D02*
X0240031Y0064950D01*
X0238980Y0064950D01*
X0238980Y0066001D01*
X0240031Y0066001D01*
X0249823Y0064950D02*
X0249823Y0068103D01*
X0250874Y0069154D01*
X0251925Y0068103D01*
X0251925Y0064950D01*
X0254027Y0064950D02*
X0254027Y0069154D01*
X0252976Y0069154D01*
X0251925Y0068103D01*
X0256821Y0068103D02*
X0256821Y0064950D01*
X0259974Y0064950D01*
X0261025Y0066001D01*
X0259974Y0067052D01*
X0256821Y0067052D01*
X0256821Y0068103D02*
X0257872Y0069154D01*
X0259974Y0069154D01*
X0270817Y0069154D02*
X0275021Y0064950D01*
X0277815Y0064950D02*
X0280968Y0064950D01*
X0282019Y0066001D01*
X0280968Y0067052D01*
X0277815Y0067052D01*
X0277815Y0068103D02*
X0277815Y0064950D01*
X0277815Y0068103D02*
X0278866Y0069154D01*
X0280968Y0069154D01*
X0275021Y0069154D02*
X0270817Y0064950D01*
X0284813Y0064950D02*
X0284813Y0071255D01*
X0286915Y0069154D01*
X0289017Y0071255D01*
X0289017Y0064950D01*
X0291517Y0084950D02*
X0291517Y0091255D01*
D11*
X0214667Y0086800D03*
X0214667Y0066800D03*
D12*
X0190721Y0074500D02*
X0190721Y0076802D01*
X0189953Y0077569D01*
X0188419Y0077569D01*
X0187651Y0076802D01*
X0187651Y0074500D01*
X0186117Y0074500D02*
X0190721Y0074500D01*
X0187651Y0076035D02*
X0186117Y0077569D01*
X0186117Y0079104D02*
X0186117Y0082173D01*
X0186117Y0080639D02*
X0190721Y0080639D01*
X0189186Y0079104D01*
X0190721Y0128250D02*
X0186117Y0128250D01*
X0187651Y0128250D02*
X0187651Y0130552D01*
X0188419Y0131319D01*
X0189953Y0131319D01*
X0190721Y0130552D01*
X0190721Y0128250D01*
X0187651Y0129785D02*
X0186117Y0131319D01*
X0186117Y0132854D02*
X0189186Y0135923D01*
X0189953Y0135923D01*
X0190721Y0135156D01*
X0190721Y0133621D01*
X0189953Y0132854D01*
X0186117Y0132854D02*
X0186117Y0135923D01*
X0294867Y0137198D02*
X0299471Y0137198D01*
X0297169Y0134896D01*
X0297169Y0137965D01*
X0297169Y0133361D02*
X0296401Y0132594D01*
X0296401Y0130292D01*
X0294867Y0130292D02*
X0299471Y0130292D01*
X0299471Y0132594D01*
X0298703Y0133361D01*
X0297169Y0133361D01*
X0296401Y0131827D02*
X0294867Y0133361D01*
X0295634Y0082965D02*
X0294867Y0082198D01*
X0294867Y0080663D01*
X0295634Y0079896D01*
X0294867Y0078361D02*
X0296401Y0076827D01*
X0296401Y0077594D02*
X0296401Y0075292D01*
X0294867Y0075292D02*
X0299471Y0075292D01*
X0299471Y0077594D01*
X0298703Y0078361D01*
X0297169Y0078361D01*
X0296401Y0077594D01*
X0298703Y0079896D02*
X0299471Y0080663D01*
X0299471Y0082198D01*
X0298703Y0082965D01*
X0297936Y0082965D01*
X0297169Y0082198D01*
X0296401Y0082965D01*
X0295634Y0082965D01*
X0297169Y0082198D02*
X0297169Y0081431D01*
X0069471Y0078510D02*
X0067169Y0076208D01*
X0067169Y0079277D01*
X0064867Y0078510D02*
X0069471Y0078510D01*
X0066967Y0082000D02*
X0066967Y0086604D01*
X0064665Y0086604D01*
X0063897Y0085837D01*
X0063897Y0084302D01*
X0064665Y0083535D01*
X0066967Y0083535D01*
X0065432Y0083535D02*
X0063897Y0082000D01*
X0062363Y0082000D02*
X0059293Y0085069D01*
X0059293Y0085837D01*
X0060061Y0086604D01*
X0061595Y0086604D01*
X0062363Y0085837D01*
X0057759Y0085837D02*
X0057759Y0082767D01*
X0054690Y0085837D01*
X0054690Y0082767D01*
X0055457Y0082000D01*
X0056991Y0082000D01*
X0057759Y0082767D01*
X0059293Y0082000D02*
X0062363Y0082000D01*
X0057759Y0085837D02*
X0056991Y0086604D01*
X0055457Y0086604D01*
X0054690Y0085837D01*
X0049813Y0077854D02*
X0050580Y0077087D01*
X0050580Y0074017D01*
X0049813Y0073250D01*
X0048278Y0073250D01*
X0047511Y0074017D01*
X0045977Y0074017D02*
X0045209Y0073250D01*
X0043675Y0073250D01*
X0042907Y0074017D01*
X0042907Y0074785D01*
X0043675Y0075552D01*
X0044442Y0075552D01*
X0043675Y0075552D02*
X0042907Y0076319D01*
X0042907Y0077087D01*
X0043675Y0077854D01*
X0045209Y0077854D01*
X0045977Y0077087D01*
X0047511Y0077087D02*
X0048278Y0077854D01*
X0049813Y0077854D01*
X0041373Y0074017D02*
X0040605Y0074017D01*
X0040605Y0073250D01*
X0041373Y0073250D01*
X0041373Y0074017D01*
X0039071Y0073250D02*
X0036001Y0073250D01*
X0037536Y0073250D02*
X0037536Y0077854D01*
X0039071Y0076319D01*
X0036971Y0084500D02*
X0032367Y0084500D01*
X0033901Y0084500D02*
X0033901Y0086802D01*
X0034669Y0087569D01*
X0036203Y0087569D01*
X0036971Y0086802D01*
X0036971Y0084500D01*
X0033901Y0086035D02*
X0032367Y0087569D01*
X0032367Y0089104D02*
X0035436Y0092173D01*
X0036203Y0092173D01*
X0036971Y0091406D01*
X0036971Y0089871D01*
X0036203Y0089104D01*
X0032367Y0089104D02*
X0032367Y0092173D01*
X0032367Y0093708D02*
X0032367Y0096777D01*
X0032367Y0095242D02*
X0036971Y0095242D01*
X0035436Y0093708D01*
X0021971Y0086035D02*
X0017367Y0086035D01*
X0017367Y0087569D02*
X0017367Y0084500D01*
X0020436Y0084500D02*
X0021971Y0086035D01*
X0021828Y0078027D02*
X0018759Y0074958D01*
X0017992Y0074958D01*
X0017992Y0073423D02*
X0017992Y0070354D01*
X0017992Y0071889D02*
X0022596Y0071889D01*
X0021061Y0070354D01*
X0021828Y0068819D02*
X0020294Y0068819D01*
X0019526Y0068052D01*
X0019526Y0065750D01*
X0017992Y0065750D02*
X0022596Y0065750D01*
X0022596Y0068052D01*
X0021828Y0068819D01*
X0019526Y0067285D02*
X0017992Y0068819D01*
X0022596Y0074958D02*
X0022596Y0078027D01*
X0021828Y0078027D01*
X0021971Y0060465D02*
X0021203Y0058931D01*
X0019669Y0057396D01*
X0019669Y0059698D01*
X0018901Y0060465D01*
X0018134Y0060465D01*
X0017367Y0059698D01*
X0017367Y0058163D01*
X0018134Y0057396D01*
X0019669Y0057396D01*
X0017367Y0055861D02*
X0017367Y0052792D01*
X0017367Y0051257D02*
X0018901Y0049723D01*
X0018901Y0050490D02*
X0018901Y0048188D01*
X0017367Y0048188D02*
X0021971Y0048188D01*
X0021971Y0050490D01*
X0021203Y0051257D01*
X0019669Y0051257D01*
X0018901Y0050490D01*
X0020436Y0052792D02*
X0021971Y0054327D01*
X0017367Y0054327D01*
X0064867Y0054327D02*
X0069471Y0054327D01*
X0067936Y0052792D01*
X0068703Y0051257D02*
X0067169Y0051257D01*
X0066401Y0050490D01*
X0066401Y0048188D01*
X0064867Y0048188D02*
X0069471Y0048188D01*
X0069471Y0050490D01*
X0068703Y0051257D01*
X0066401Y0049723D02*
X0064867Y0051257D01*
X0064867Y0052792D02*
X0064867Y0055861D01*
X0065634Y0057396D02*
X0064867Y0058163D01*
X0064867Y0059698D01*
X0065634Y0060465D01*
X0066401Y0060465D01*
X0067169Y0059698D01*
X0067169Y0058931D01*
X0067169Y0059698D02*
X0067936Y0060465D01*
X0068703Y0060465D01*
X0069471Y0059698D01*
X0069471Y0058163D01*
X0068703Y0057396D01*
X0069471Y0067000D02*
X0064867Y0067000D01*
X0066401Y0067000D02*
X0066401Y0069302D01*
X0067169Y0070069D01*
X0068703Y0070069D01*
X0069471Y0069302D01*
X0069471Y0067000D01*
X0066401Y0068535D02*
X0064867Y0070069D01*
X0064867Y0071604D02*
X0064867Y0074673D01*
X0064867Y0073139D02*
X0069471Y0073139D01*
X0067936Y0071604D01*
X0055778Y0114500D02*
X0055778Y0119104D01*
X0053477Y0119104D01*
X0052709Y0118337D01*
X0052709Y0116802D01*
X0053477Y0116035D01*
X0055778Y0116035D01*
X0054244Y0116035D02*
X0052709Y0114500D01*
X0051175Y0114500D02*
X0048105Y0114500D01*
X0049640Y0114500D02*
X0049640Y0119104D01*
X0051175Y0117569D01*
X0046571Y0117569D02*
X0045803Y0116802D01*
X0043501Y0116802D01*
X0043501Y0118337D02*
X0044269Y0119104D01*
X0045803Y0119104D01*
X0046571Y0118337D01*
X0046571Y0117569D01*
X0046571Y0115267D02*
X0045803Y0114500D01*
X0044269Y0114500D01*
X0043501Y0115267D01*
X0043501Y0118337D01*
X0038278Y0119104D02*
X0038278Y0114500D01*
X0038278Y0116035D02*
X0035977Y0116035D01*
X0035209Y0116802D01*
X0035209Y0118337D01*
X0035977Y0119104D01*
X0038278Y0119104D01*
X0036744Y0116035D02*
X0035209Y0114500D01*
X0033675Y0114500D02*
X0030605Y0114500D01*
X0032140Y0114500D02*
X0032140Y0119104D01*
X0033675Y0117569D01*
X0029071Y0117569D02*
X0029071Y0118337D01*
X0028303Y0119104D01*
X0026769Y0119104D01*
X0026001Y0118337D01*
X0026001Y0117569D01*
X0026769Y0116802D01*
X0028303Y0116802D01*
X0029071Y0117569D01*
X0028303Y0116802D02*
X0029071Y0116035D01*
X0029071Y0115267D01*
X0028303Y0114500D01*
X0026769Y0114500D01*
X0026001Y0115267D01*
X0026001Y0116035D01*
X0026769Y0116802D01*
D13*
X0037511Y0060206D02*
X0049322Y0060206D01*
X0049322Y0048394D02*
X0037511Y0048394D01*
D14*
X0038889Y0049772D03*
D15*
X0034353Y0042209D02*
X0031885Y0042209D01*
X0034353Y0042209D02*
X0031885Y0044678D01*
X0031885Y0045295D01*
X0032502Y0045912D01*
X0033736Y0045912D01*
X0034353Y0045295D01*
X0035568Y0045295D02*
X0036185Y0045912D01*
X0037419Y0045912D01*
X0038037Y0045295D01*
X0038037Y0044678D01*
X0037419Y0044060D01*
X0035568Y0044060D01*
X0035568Y0042826D02*
X0035568Y0045295D01*
X0035568Y0042826D02*
X0036185Y0042209D01*
X0037419Y0042209D01*
X0038037Y0042826D01*
X0039251Y0042826D02*
X0039251Y0045295D01*
X0039868Y0045912D01*
X0041102Y0045912D01*
X0041720Y0045295D01*
X0041720Y0044678D01*
X0041102Y0044060D01*
X0039251Y0044060D01*
X0039251Y0042826D02*
X0039868Y0042209D01*
X0041102Y0042209D01*
X0041720Y0042826D01*
X0042934Y0042209D02*
X0045403Y0042209D01*
X0044168Y0042209D02*
X0044168Y0045912D01*
X0045403Y0044678D01*
X0046617Y0045295D02*
X0047234Y0045912D01*
X0048469Y0045912D01*
X0049086Y0045295D01*
X0049086Y0042826D01*
X0048469Y0042209D01*
X0047234Y0042209D01*
X0046617Y0042826D01*
X0050300Y0045912D02*
X0052769Y0045912D01*
X0051535Y0045912D02*
X0051535Y0042209D01*
X0053983Y0042209D02*
X0056452Y0042209D01*
X0056452Y0045912D01*
X0048417Y0049913D02*
X0047183Y0049913D01*
X0047800Y0049913D02*
X0047800Y0053616D01*
X0048417Y0053616D02*
X0047183Y0053616D01*
X0045962Y0052999D02*
X0045962Y0050530D01*
X0045345Y0049913D01*
X0044110Y0049913D01*
X0043493Y0050530D01*
X0042279Y0050530D02*
X0041661Y0049913D01*
X0040427Y0049913D01*
X0039810Y0050530D01*
X0039810Y0051147D01*
X0040427Y0051764D01*
X0041044Y0051764D01*
X0040427Y0051764D02*
X0039810Y0052381D01*
X0039810Y0052999D01*
X0040427Y0053616D01*
X0041661Y0053616D01*
X0042279Y0052999D01*
X0043493Y0052999D02*
X0044110Y0053616D01*
X0045345Y0053616D01*
X0045962Y0052999D01*
X0087372Y0063513D02*
X0087372Y0064747D01*
X0087989Y0065364D01*
X0087989Y0066579D02*
X0087372Y0067196D01*
X0087372Y0068430D01*
X0087989Y0069048D01*
X0089223Y0069048D01*
X0089841Y0068430D01*
X0089841Y0067813D01*
X0089223Y0066579D01*
X0091075Y0066579D01*
X0091075Y0069048D01*
X0090458Y0065364D02*
X0091075Y0064747D01*
X0091075Y0063513D01*
X0090458Y0062896D01*
X0087989Y0062896D01*
X0087372Y0063513D01*
X0094512Y0032290D02*
X0094512Y0029821D01*
X0094512Y0031056D02*
X0098215Y0031056D01*
X0096980Y0029821D01*
X0097598Y0028607D02*
X0098215Y0027990D01*
X0098215Y0026755D01*
X0097598Y0026138D01*
X0095129Y0026138D01*
X0094512Y0026755D01*
X0094512Y0027990D01*
X0095129Y0028607D01*
X0059829Y0098255D02*
X0058594Y0098255D01*
X0057977Y0098872D01*
X0056763Y0098255D02*
X0054294Y0100724D01*
X0054294Y0101341D01*
X0054911Y0101958D01*
X0056146Y0101958D01*
X0056763Y0101341D01*
X0057977Y0101341D02*
X0058594Y0101958D01*
X0059829Y0101958D01*
X0060446Y0101341D01*
X0060446Y0098872D01*
X0059829Y0098255D01*
X0056763Y0098255D02*
X0054294Y0098255D01*
M02*
