G75*
%MOIN*%
%OFA0B0*%
%FSLAX25Y25*%
%IPPOS*%
%LPD*%
%AMOC8*
5,1,8,0,0,1.08239X$1,22.5*
%
%ADD10R,0.03300X0.10800*%
%ADD11C,0.06800*%
%ADD12R,0.05524X0.05524*%
%ADD13R,0.05918X0.06706*%
%ADD14OC8,0.10800*%
%ADD15OC8,0.15800*%
%ADD16R,0.13398X0.05524*%
%ADD17C,0.07296*%
%ADD18R,0.05524X0.02375*%
%ADD19R,0.04343X0.02020*%
%ADD20R,0.03162X0.09461*%
%ADD21R,0.05918X0.07099*%
%ADD22R,0.07099X0.05918*%
%ADD23C,0.07887*%
%ADD24C,0.06800*%
%ADD25C,0.05800*%
%ADD26R,0.07100X0.05400*%
%ADD27R,0.07200X0.00600*%
%ADD28OC8,0.05800*%
%ADD29R,0.04362X0.04362*%
%ADD30R,0.04800X0.04800*%
%ADD31R,0.06400X0.06400*%
D10*
X0226800Y0171800D03*
X0230550Y0171800D03*
X0234300Y0171800D03*
X0238050Y0171800D03*
X0241800Y0171800D03*
X0245550Y0171800D03*
X0249300Y0171800D03*
X0253050Y0171800D03*
X0256800Y0171800D03*
D11*
X0174300Y0156800D03*
X0309300Y0056800D03*
D12*
X0318050Y0075166D03*
X0318050Y0083434D03*
X0318050Y0128916D03*
X0318050Y0137184D03*
X0168050Y0137184D03*
X0168050Y0128916D03*
X0168050Y0083434D03*
X0168050Y0075166D03*
D13*
X0053665Y0073675D03*
X0046185Y0073675D03*
X0049290Y0110550D03*
X0041810Y0110550D03*
X0225560Y0188050D03*
X0233040Y0188050D03*
D14*
X0129300Y0189300D03*
X0124300Y0199300D03*
X0094300Y0199300D03*
X0089300Y0189300D03*
X0109300Y0119300D03*
X0109300Y0109300D03*
D15*
X0109300Y0189300D03*
D16*
X0160914Y0029674D03*
X0160914Y0013926D03*
X0187686Y0013926D03*
X0205914Y0013926D03*
X0205914Y0029674D03*
X0187686Y0029674D03*
X0232686Y0029674D03*
X0250914Y0029674D03*
X0250914Y0013926D03*
X0232686Y0013926D03*
X0277686Y0013926D03*
X0295914Y0013926D03*
X0295914Y0029674D03*
X0277686Y0029674D03*
X0322686Y0029674D03*
X0322686Y0013926D03*
D17*
X0306800Y0193552D02*
X0306800Y0200048D01*
X0296800Y0200048D02*
X0296800Y0193552D01*
X0286800Y0193552D02*
X0286800Y0200048D01*
X0186800Y0200048D02*
X0186800Y0193552D01*
X0176800Y0193552D02*
X0176800Y0200048D01*
X0166800Y0200048D02*
X0166800Y0193552D01*
D18*
X0052996Y0123764D03*
X0052996Y0121205D03*
X0052996Y0118645D03*
X0052996Y0116086D03*
X0036854Y0116086D03*
X0036854Y0118645D03*
X0036854Y0121205D03*
X0036854Y0123764D03*
X0041229Y0087514D03*
X0041229Y0084955D03*
X0041229Y0082395D03*
X0041229Y0079836D03*
X0057371Y0079836D03*
X0057371Y0082395D03*
X0057371Y0084955D03*
X0057371Y0087514D03*
D19*
X0071229Y0087331D03*
X0071229Y0085363D03*
X0071229Y0089300D03*
X0071229Y0091269D03*
X0071229Y0093237D03*
X0087371Y0093237D03*
X0087371Y0091269D03*
X0087371Y0089300D03*
X0087371Y0087331D03*
X0087371Y0085363D03*
D20*
X0096800Y0047410D03*
X0101800Y0047410D03*
X0106800Y0047410D03*
X0111800Y0047410D03*
X0116800Y0047410D03*
X0121800Y0047410D03*
X0126800Y0047410D03*
X0131800Y0047410D03*
X0136800Y0047410D03*
X0141800Y0047410D03*
X0141800Y0011190D03*
X0136800Y0011190D03*
X0131800Y0011190D03*
X0126800Y0011190D03*
X0121800Y0011190D03*
X0116800Y0011190D03*
X0111800Y0011190D03*
X0106800Y0011190D03*
X0101800Y0011190D03*
X0096800Y0011190D03*
D21*
X0053040Y0093675D03*
X0045560Y0093675D03*
X0048060Y0102425D03*
X0055540Y0102425D03*
X0036165Y0102425D03*
X0028685Y0102425D03*
X0039310Y0139300D03*
X0046790Y0139300D03*
X0036790Y0164300D03*
X0029310Y0164300D03*
D22*
X0046800Y0164290D03*
X0046800Y0156810D03*
X0029300Y0148040D03*
X0029300Y0140560D03*
X0062425Y0172435D03*
X0062425Y0179915D03*
X0039300Y0185560D03*
X0039300Y0193040D03*
X0029300Y0093040D03*
X0029300Y0085560D03*
D23*
X0020343Y0084300D02*
X0013257Y0084300D01*
X0013257Y0094300D02*
X0020343Y0094300D01*
X0020343Y0109300D02*
X0013257Y0109300D01*
X0013257Y0119300D02*
X0020343Y0119300D01*
X0020343Y0139300D02*
X0013257Y0139300D01*
X0013257Y0149300D02*
X0020343Y0149300D01*
X0020343Y0164300D02*
X0013257Y0164300D01*
X0013257Y0174300D02*
X0020343Y0174300D01*
X0016800Y0188257D02*
X0016800Y0195343D01*
X0026800Y0195343D02*
X0026800Y0188257D01*
X0051800Y0188257D02*
X0051800Y0195343D01*
X0061800Y0195343D02*
X0061800Y0188257D01*
D24*
X0010550Y0021050D02*
X0010550Y0015050D01*
X0020550Y0015050D02*
X0020550Y0021050D01*
X0030550Y0021050D02*
X0030550Y0015050D01*
X0043050Y0015050D02*
X0043050Y0021050D01*
X0053050Y0021050D02*
X0053050Y0015050D01*
X0063050Y0015050D02*
X0063050Y0021050D01*
D25*
X0109925Y0057425D03*
X0144300Y0074300D03*
X0154300Y0074300D03*
X0154300Y0084300D03*
X0144300Y0084300D03*
X0144300Y0094300D03*
X0154300Y0094300D03*
X0063675Y0083050D03*
X0059925Y0093675D03*
X0038675Y0093675D03*
X0061800Y0112425D03*
X0040550Y0129300D03*
X0030550Y0129300D03*
X0216800Y0186800D03*
D26*
X0036800Y0052300D03*
X0036800Y0046300D03*
X0025550Y0046300D03*
X0025550Y0052300D03*
D27*
X0025550Y0049300D03*
X0036800Y0049300D03*
D28*
X0174300Y0075550D03*
X0174300Y0083675D03*
X0174300Y0128675D03*
X0174300Y0136800D03*
X0234300Y0156800D03*
X0246800Y0196800D03*
X0311800Y0138050D03*
X0311800Y0075550D03*
D29*
X0160550Y0046800D03*
X0151800Y0039300D03*
X0149300Y0029300D03*
X0134300Y0034300D03*
X0126800Y0021800D03*
X0121800Y0021800D03*
X0116800Y0021800D03*
X0096800Y0019300D03*
X0096800Y0040550D03*
X0116800Y0039300D03*
X0119300Y0061800D03*
X0119300Y0066800D03*
X0141800Y0066800D03*
X0141800Y0061800D03*
X0154925Y0089300D03*
X0149300Y0094300D03*
X0138050Y0101800D03*
X0126800Y0106800D03*
X0123050Y0101800D03*
X0138675Y0111800D03*
X0091800Y0094925D03*
X0091800Y0083050D03*
X0073675Y0074925D03*
X0073675Y0067425D03*
X0066175Y0067425D03*
X0058675Y0067425D03*
X0051175Y0067425D03*
X0043675Y0067425D03*
X0031175Y0067425D03*
X0023675Y0067425D03*
X0016175Y0067425D03*
X0008675Y0067425D03*
X0029300Y0059300D03*
X0060550Y0076175D03*
X0070550Y0081800D03*
X0073675Y0099925D03*
X0068675Y0103675D03*
X0073675Y0107425D03*
X0073675Y0114925D03*
X0073675Y0124925D03*
X0060550Y0118675D03*
X0054925Y0111175D03*
X0031800Y0118675D03*
X0024300Y0129300D03*
X0046800Y0129300D03*
X0054925Y0134925D03*
X0059925Y0134925D03*
X0073675Y0134925D03*
X0073675Y0144925D03*
X0073675Y0154925D03*
X0059925Y0154925D03*
X0059925Y0144925D03*
X0059925Y0164925D03*
X0073675Y0164925D03*
X0073675Y0174925D03*
X0051800Y0179300D03*
X0035550Y0082425D03*
X0044300Y0033675D03*
X0149300Y0014300D03*
D30*
X0131800Y0021800D03*
X0309300Y0029674D03*
X0309300Y0013675D03*
X0314300Y0006800D03*
D31*
X0086800Y0071800D03*
X0086800Y0106800D03*
X0086800Y0119300D03*
X0086800Y0131800D03*
X0086800Y0144300D03*
X0086800Y0156800D03*
X0086800Y0169300D03*
X0071800Y0186800D03*
X0071800Y0196800D03*
M02*
