G75*
%MOIN*%
%OFA0B0*%
%FSLAX25Y25*%
%IPPOS*%
%LPD*%
%AMOC8*
5,1,8,0,0,1.08239X$1,22.5*
%
%ADD10R,0.55000X0.30000*%
%ADD11R,0.15000X0.25000*%
%ADD12C,0.01300*%
%ADD13R,0.06299X0.05118*%
%ADD14OC8,0.10000*%
%ADD15OC8,0.15000*%
%ADD16C,0.06496*%
%ADD17C,0.07087*%
%ADD18R,0.05512X0.04331*%
%ADD19C,0.06000*%
%ADD20C,0.05000*%
%ADD21OC8,0.05000*%
%ADD22R,0.03562X0.03562*%
%ADD23C,0.02400*%
%ADD24C,0.01600*%
%ADD25R,0.04000X0.04000*%
%ADD26R,0.05600X0.05600*%
D10*
X0109300Y0191800D03*
D11*
X0109300Y0114300D03*
D12*
X0189819Y0121029D02*
X0190870Y0121029D01*
X0192972Y0118927D01*
X0192972Y0116825D02*
X0192972Y0121029D01*
X0195766Y0119978D02*
X0195766Y0118927D01*
X0199970Y0118927D01*
X0199970Y0119978D02*
X0198919Y0121029D01*
X0196817Y0121029D01*
X0195766Y0119978D01*
X0196817Y0116825D02*
X0198919Y0116825D01*
X0199970Y0117876D01*
X0199970Y0119978D01*
X0202533Y0121029D02*
X0204635Y0121029D01*
X0203584Y0122079D02*
X0203584Y0117876D01*
X0202533Y0116825D01*
X0207429Y0118927D02*
X0211633Y0118927D01*
X0211633Y0119978D02*
X0210582Y0121029D01*
X0208480Y0121029D01*
X0207429Y0119978D01*
X0207429Y0118927D01*
X0208480Y0116825D02*
X0210582Y0116825D01*
X0211633Y0117876D01*
X0211633Y0119978D01*
X0214427Y0119978D02*
X0214427Y0116825D01*
X0216529Y0116825D02*
X0216529Y0119978D01*
X0215478Y0121029D01*
X0214427Y0119978D01*
X0216529Y0119978D02*
X0217580Y0121029D01*
X0218631Y0121029D01*
X0218631Y0116825D01*
X0221195Y0116825D02*
X0223296Y0116825D01*
X0222245Y0116825D02*
X0222245Y0121029D01*
X0223296Y0121029D01*
X0222245Y0123130D02*
X0222245Y0124181D01*
X0225860Y0121029D02*
X0227962Y0121029D01*
X0226911Y0122079D02*
X0226911Y0117876D01*
X0225860Y0116825D01*
X0230525Y0116825D02*
X0232627Y0116825D01*
X0231576Y0116825D02*
X0231576Y0123130D01*
X0232627Y0123130D01*
X0235421Y0121029D02*
X0235421Y0116825D01*
X0238574Y0116825D01*
X0239625Y0117876D01*
X0239625Y0121029D01*
X0242419Y0119978D02*
X0242419Y0116825D01*
X0244521Y0116825D02*
X0244521Y0119978D01*
X0243470Y0121029D01*
X0242419Y0119978D01*
X0244521Y0119978D02*
X0245572Y0121029D01*
X0246623Y0121029D01*
X0246623Y0116825D01*
X0256415Y0117876D02*
X0257466Y0118927D01*
X0259568Y0118927D01*
X0260619Y0119978D01*
X0259568Y0121029D01*
X0256415Y0121029D01*
X0256415Y0117876D02*
X0257466Y0116825D01*
X0260619Y0116825D01*
X0264118Y0121029D02*
X0263067Y0122079D01*
X0263067Y0124181D01*
X0266912Y0121029D02*
X0270065Y0121029D01*
X0271116Y0119978D01*
X0271116Y0117876D01*
X0270065Y0116825D01*
X0266912Y0116825D01*
X0273910Y0118927D02*
X0278114Y0118927D01*
X0278114Y0119978D02*
X0277063Y0121029D01*
X0274961Y0121029D01*
X0273910Y0119978D01*
X0273910Y0118927D01*
X0274961Y0116825D02*
X0277063Y0116825D01*
X0278114Y0117876D01*
X0278114Y0119978D01*
X0280677Y0116825D02*
X0282779Y0116825D01*
X0281728Y0116825D02*
X0281728Y0123130D01*
X0282779Y0123130D01*
X0285573Y0119978D02*
X0286624Y0121029D01*
X0288726Y0121029D01*
X0289777Y0119978D01*
X0289777Y0117876D01*
X0288726Y0116825D01*
X0286624Y0116825D01*
X0285573Y0118927D02*
X0289777Y0118927D01*
X0294673Y0116825D02*
X0294673Y0123130D01*
X0296775Y0123130D02*
X0292571Y0123130D01*
X0285573Y0119978D02*
X0285573Y0118927D01*
D13*
X0304300Y0130560D03*
X0304300Y0138040D03*
X0304300Y0083040D03*
X0304300Y0075560D03*
X0182425Y0075560D03*
X0182425Y0083040D03*
X0181800Y0129310D03*
X0181800Y0136790D03*
D14*
X0109300Y0119300D03*
X0109300Y0109300D03*
X0089300Y0189300D03*
X0094300Y0199300D03*
X0124300Y0199300D03*
X0129300Y0189300D03*
D15*
X0109300Y0189300D03*
D16*
X0166800Y0193552D02*
X0166800Y0200048D01*
X0176800Y0200048D02*
X0176800Y0193552D01*
X0186800Y0193552D02*
X0186800Y0200048D01*
X0286800Y0200048D02*
X0286800Y0193552D01*
X0296800Y0193552D02*
X0296800Y0200048D01*
X0306800Y0200048D02*
X0306800Y0193552D01*
D17*
X0061800Y0195343D02*
X0061800Y0188257D01*
X0051800Y0188257D02*
X0051800Y0195343D01*
X0026800Y0195343D02*
X0026800Y0188257D01*
X0016800Y0188257D02*
X0016800Y0195343D01*
X0020343Y0174300D02*
X0013257Y0174300D01*
X0013257Y0164300D02*
X0020343Y0164300D01*
X0020343Y0149300D02*
X0013257Y0149300D01*
X0013257Y0139300D02*
X0020343Y0139300D01*
X0020343Y0119300D02*
X0013257Y0119300D01*
X0013257Y0109300D02*
X0020343Y0109300D01*
X0020343Y0094300D02*
X0013257Y0094300D01*
X0013257Y0084300D02*
X0020343Y0084300D01*
D18*
X0050550Y0087612D03*
X0050550Y0079738D03*
X0067425Y0089113D03*
X0067425Y0096987D03*
X0085550Y0093237D03*
X0085550Y0085363D03*
X0046175Y0115988D03*
X0046175Y0123862D03*
X0096800Y0033237D03*
X0096800Y0025363D03*
D19*
X0063050Y0021050D02*
X0063050Y0015050D01*
X0053050Y0015050D02*
X0053050Y0021050D01*
X0043050Y0021050D02*
X0043050Y0015050D01*
X0030550Y0015050D02*
X0030550Y0021050D01*
X0020550Y0021050D02*
X0020550Y0015050D01*
X0010550Y0015050D02*
X0010550Y0021050D01*
D20*
X0010550Y0023675D02*
X0010550Y0018050D01*
X0010550Y0023674D02*
X0010545Y0023909D01*
X0010546Y0024143D01*
X0010553Y0024377D01*
X0010565Y0024611D01*
X0010583Y0024845D01*
X0010607Y0025078D01*
X0010636Y0025310D01*
X0010670Y0025542D01*
X0010711Y0025772D01*
X0010757Y0026002D01*
X0010808Y0026231D01*
X0010865Y0026458D01*
X0010928Y0026684D01*
X0010996Y0026908D01*
X0011069Y0027130D01*
X0011147Y0027351D01*
X0011231Y0027570D01*
X0011321Y0027786D01*
X0011415Y0028000D01*
X0011515Y0028213D01*
X0011619Y0028422D01*
X0011729Y0028629D01*
X0011843Y0028833D01*
X0011963Y0029035D01*
X0012087Y0029233D01*
X0012217Y0029429D01*
X0012350Y0029621D01*
X0012489Y0029810D01*
X0012632Y0029995D01*
X0012779Y0030177D01*
X0012931Y0030356D01*
X0013087Y0030531D01*
X0013247Y0030701D01*
X0013412Y0030868D01*
X0013580Y0031031D01*
X0013752Y0031190D01*
X0013928Y0031345D01*
X0014108Y0031495D01*
X0014291Y0031641D01*
X0014477Y0031783D01*
X0014667Y0031919D01*
X0014861Y0032052D01*
X0015057Y0032179D01*
X0015257Y0032302D01*
X0015459Y0032420D01*
X0015664Y0032533D01*
X0015872Y0032641D01*
X0016082Y0032744D01*
X0016295Y0032842D01*
X0016510Y0032935D01*
X0016728Y0033022D01*
X0016947Y0033104D01*
X0017168Y0033181D01*
X0017391Y0033253D01*
X0017616Y0033319D01*
X0017842Y0033379D01*
X0018070Y0033434D01*
X0018299Y0033484D01*
X0018529Y0033528D01*
X0018760Y0033567D01*
X0018992Y0033600D01*
X0019225Y0033627D01*
X0019458Y0033649D01*
X0019691Y0033665D01*
X0019925Y0033675D01*
X0044300Y0033675D01*
X0049300Y0033675D01*
X0074925Y0033675D01*
X0088050Y0033050D02*
X0088050Y0049300D01*
X0088050Y0056800D01*
X0088052Y0056940D01*
X0088058Y0057080D01*
X0088068Y0057220D01*
X0088081Y0057360D01*
X0088099Y0057499D01*
X0088121Y0057638D01*
X0088146Y0057775D01*
X0088175Y0057913D01*
X0088208Y0058049D01*
X0088245Y0058184D01*
X0088286Y0058318D01*
X0088331Y0058451D01*
X0088379Y0058583D01*
X0088431Y0058713D01*
X0088486Y0058842D01*
X0088545Y0058969D01*
X0088608Y0059095D01*
X0088674Y0059219D01*
X0088743Y0059340D01*
X0088816Y0059460D01*
X0088893Y0059578D01*
X0088972Y0059693D01*
X0089055Y0059807D01*
X0089141Y0059917D01*
X0089230Y0060026D01*
X0089322Y0060132D01*
X0089417Y0060235D01*
X0089514Y0060336D01*
X0089615Y0060433D01*
X0089718Y0060528D01*
X0089824Y0060620D01*
X0089933Y0060709D01*
X0090043Y0060795D01*
X0090157Y0060878D01*
X0090272Y0060957D01*
X0090390Y0061034D01*
X0090510Y0061107D01*
X0090631Y0061176D01*
X0090755Y0061242D01*
X0090881Y0061305D01*
X0091008Y0061364D01*
X0091137Y0061419D01*
X0091267Y0061471D01*
X0091399Y0061519D01*
X0091532Y0061564D01*
X0091666Y0061605D01*
X0091801Y0061642D01*
X0091937Y0061675D01*
X0092075Y0061704D01*
X0092212Y0061729D01*
X0092351Y0061751D01*
X0092490Y0061769D01*
X0092630Y0061782D01*
X0092770Y0061792D01*
X0092910Y0061798D01*
X0093050Y0061800D01*
X0093187Y0061836D01*
X0093324Y0061876D01*
X0093459Y0061920D01*
X0093592Y0061968D01*
X0093725Y0062019D01*
X0093856Y0062074D01*
X0093985Y0062132D01*
X0094113Y0062194D01*
X0094239Y0062260D01*
X0094363Y0062329D01*
X0094486Y0062401D01*
X0094606Y0062477D01*
X0094724Y0062556D01*
X0094840Y0062638D01*
X0094953Y0062723D01*
X0095064Y0062812D01*
X0095173Y0062903D01*
X0095279Y0062997D01*
X0095383Y0063095D01*
X0095483Y0063195D01*
X0095581Y0063298D01*
X0095676Y0063403D01*
X0095768Y0063511D01*
X0095858Y0063622D01*
X0095944Y0063735D01*
X0096026Y0063850D01*
X0096106Y0063968D01*
X0096183Y0064088D01*
X0096256Y0064209D01*
X0096325Y0064333D01*
X0096392Y0064459D01*
X0096454Y0064586D01*
X0096514Y0064715D01*
X0096569Y0064846D01*
X0096621Y0064978D01*
X0096670Y0065112D01*
X0096714Y0065246D01*
X0096755Y0065382D01*
X0096792Y0065520D01*
X0096826Y0065658D01*
X0096855Y0065797D01*
X0096881Y0065936D01*
X0096903Y0066077D01*
X0096921Y0066217D01*
X0096935Y0066359D01*
X0096945Y0066500D01*
X0096952Y0066642D01*
X0096954Y0066784D01*
X0096952Y0066926D01*
X0096947Y0067068D01*
X0096938Y0067210D01*
X0096924Y0067351D01*
X0096907Y0067492D01*
X0096886Y0067633D01*
X0096861Y0067773D01*
X0096833Y0067912D01*
X0096800Y0068050D01*
X0096800Y0096800D01*
X0096800Y0154300D01*
X0096833Y0154514D01*
X0096872Y0154728D01*
X0096916Y0154940D01*
X0096964Y0155152D01*
X0097019Y0155362D01*
X0097078Y0155570D01*
X0097142Y0155778D01*
X0097212Y0155983D01*
X0097286Y0156187D01*
X0097366Y0156389D01*
X0097450Y0156589D01*
X0097539Y0156786D01*
X0097634Y0156982D01*
X0097732Y0157175D01*
X0097836Y0157365D01*
X0097944Y0157553D01*
X0098057Y0157739D01*
X0098174Y0157921D01*
X0098296Y0158101D01*
X0098422Y0158277D01*
X0098553Y0158451D01*
X0098687Y0158621D01*
X0098826Y0158787D01*
X0098969Y0158951D01*
X0099116Y0159110D01*
X0099266Y0159266D01*
X0099421Y0159419D01*
X0099579Y0159567D01*
X0099741Y0159712D01*
X0099906Y0159852D01*
X0100075Y0159989D01*
X0100247Y0160121D01*
X0100422Y0160249D01*
X0100600Y0160373D01*
X0100781Y0160492D01*
X0100965Y0160607D01*
X0101152Y0160717D01*
X0101342Y0160823D01*
X0101534Y0160924D01*
X0101728Y0161020D01*
X0101925Y0161111D01*
X0102124Y0161198D01*
X0102325Y0161280D01*
X0102528Y0161356D01*
X0102732Y0161428D01*
X0102939Y0161495D01*
X0103147Y0161556D01*
X0103356Y0161612D01*
X0103567Y0161664D01*
X0103779Y0161710D01*
X0103992Y0161751D01*
X0104206Y0161786D01*
X0104421Y0161817D01*
X0104636Y0161842D01*
X0104852Y0161861D01*
X0105069Y0161876D01*
X0105286Y0161885D01*
X0105503Y0161889D01*
X0105720Y0161887D01*
X0105936Y0161881D01*
X0106153Y0161868D01*
X0106369Y0161851D01*
X0106585Y0161828D01*
X0106800Y0161800D01*
X0141800Y0161800D01*
X0146800Y0151800D02*
X0119300Y0151800D01*
X0119058Y0151797D01*
X0118817Y0151788D01*
X0118576Y0151774D01*
X0118335Y0151753D01*
X0118095Y0151727D01*
X0117855Y0151695D01*
X0117616Y0151657D01*
X0117379Y0151614D01*
X0117142Y0151564D01*
X0116907Y0151509D01*
X0116673Y0151449D01*
X0116441Y0151382D01*
X0116210Y0151311D01*
X0115981Y0151233D01*
X0115754Y0151150D01*
X0115529Y0151062D01*
X0115306Y0150968D01*
X0115086Y0150869D01*
X0114868Y0150764D01*
X0114653Y0150655D01*
X0114440Y0150540D01*
X0114230Y0150420D01*
X0114024Y0150295D01*
X0113820Y0150165D01*
X0113619Y0150030D01*
X0113422Y0149890D01*
X0113228Y0149746D01*
X0113038Y0149597D01*
X0112852Y0149443D01*
X0112669Y0149285D01*
X0112490Y0149123D01*
X0112315Y0148956D01*
X0112144Y0148785D01*
X0111977Y0148610D01*
X0111815Y0148431D01*
X0111657Y0148248D01*
X0111503Y0148062D01*
X0111354Y0147872D01*
X0111210Y0147678D01*
X0111070Y0147481D01*
X0110935Y0147280D01*
X0110805Y0147076D01*
X0110680Y0146870D01*
X0110560Y0146660D01*
X0110445Y0146447D01*
X0110336Y0146232D01*
X0110231Y0146014D01*
X0110132Y0145794D01*
X0110038Y0145571D01*
X0109950Y0145346D01*
X0109867Y0145119D01*
X0109789Y0144890D01*
X0109718Y0144659D01*
X0109651Y0144427D01*
X0109591Y0144193D01*
X0109536Y0143958D01*
X0109486Y0143721D01*
X0109443Y0143484D01*
X0109405Y0143245D01*
X0109373Y0143005D01*
X0109347Y0142765D01*
X0109326Y0142524D01*
X0109312Y0142283D01*
X0109303Y0142042D01*
X0109300Y0141800D01*
X0109300Y0119300D01*
X0109300Y0056800D01*
X0109297Y0056558D01*
X0109288Y0056317D01*
X0109274Y0056076D01*
X0109253Y0055835D01*
X0109227Y0055595D01*
X0109195Y0055355D01*
X0109157Y0055116D01*
X0109114Y0054879D01*
X0109064Y0054642D01*
X0109009Y0054407D01*
X0108949Y0054173D01*
X0108882Y0053941D01*
X0108811Y0053710D01*
X0108733Y0053481D01*
X0108650Y0053254D01*
X0108562Y0053029D01*
X0108468Y0052806D01*
X0108369Y0052586D01*
X0108264Y0052368D01*
X0108155Y0052153D01*
X0108040Y0051940D01*
X0107920Y0051730D01*
X0107795Y0051524D01*
X0107665Y0051320D01*
X0107530Y0051119D01*
X0107390Y0050922D01*
X0107246Y0050728D01*
X0107097Y0050538D01*
X0106943Y0050352D01*
X0106785Y0050169D01*
X0106623Y0049990D01*
X0106456Y0049815D01*
X0106285Y0049644D01*
X0106110Y0049477D01*
X0105931Y0049315D01*
X0105748Y0049157D01*
X0105562Y0049003D01*
X0105372Y0048854D01*
X0105178Y0048710D01*
X0104981Y0048570D01*
X0104780Y0048435D01*
X0104576Y0048305D01*
X0104370Y0048180D01*
X0104160Y0048060D01*
X0103947Y0047945D01*
X0103732Y0047836D01*
X0103514Y0047731D01*
X0103294Y0047632D01*
X0103071Y0047538D01*
X0102846Y0047450D01*
X0102619Y0047367D01*
X0102390Y0047289D01*
X0102159Y0047218D01*
X0101927Y0047151D01*
X0101693Y0047091D01*
X0101458Y0047036D01*
X0101221Y0046986D01*
X0100984Y0046943D01*
X0100745Y0046905D01*
X0100505Y0046873D01*
X0100265Y0046847D01*
X0100024Y0046826D01*
X0099783Y0046812D01*
X0099542Y0046803D01*
X0099300Y0046800D01*
X0098690Y0046800D01*
X0098605Y0046798D01*
X0098521Y0046792D01*
X0098436Y0046783D01*
X0098353Y0046770D01*
X0098269Y0046753D01*
X0098187Y0046732D01*
X0098106Y0046707D01*
X0098026Y0046679D01*
X0097947Y0046648D01*
X0097870Y0046613D01*
X0097794Y0046574D01*
X0097721Y0046532D01*
X0097649Y0046487D01*
X0097579Y0046439D01*
X0097512Y0046388D01*
X0097446Y0046333D01*
X0097384Y0046276D01*
X0097324Y0046216D01*
X0097267Y0046154D01*
X0097212Y0046088D01*
X0097161Y0046021D01*
X0097113Y0045951D01*
X0097068Y0045879D01*
X0097026Y0045806D01*
X0096987Y0045730D01*
X0096952Y0045653D01*
X0096921Y0045574D01*
X0096893Y0045494D01*
X0096868Y0045413D01*
X0096847Y0045331D01*
X0096830Y0045247D01*
X0096817Y0045164D01*
X0096808Y0045079D01*
X0096802Y0044995D01*
X0096800Y0044910D01*
X0096800Y0036800D01*
X0096800Y0034300D01*
X0088050Y0033050D02*
X0088053Y0032839D01*
X0088060Y0032627D01*
X0088073Y0032416D01*
X0088091Y0032206D01*
X0088114Y0031995D01*
X0088142Y0031786D01*
X0088175Y0031577D01*
X0088213Y0031369D01*
X0088256Y0031162D01*
X0088304Y0030956D01*
X0088357Y0030751D01*
X0088415Y0030548D01*
X0088478Y0030346D01*
X0088546Y0030146D01*
X0088619Y0029947D01*
X0088696Y0029750D01*
X0088778Y0029556D01*
X0088865Y0029363D01*
X0088956Y0029172D01*
X0089052Y0028984D01*
X0089153Y0028798D01*
X0089258Y0028614D01*
X0089367Y0028433D01*
X0089481Y0028255D01*
X0089599Y0028079D01*
X0089721Y0027907D01*
X0089847Y0027737D01*
X0089978Y0027571D01*
X0090112Y0027408D01*
X0090251Y0027248D01*
X0090393Y0027091D01*
X0090539Y0026938D01*
X0090688Y0026789D01*
X0090841Y0026643D01*
X0090998Y0026501D01*
X0091158Y0026362D01*
X0091321Y0026228D01*
X0091487Y0026097D01*
X0091657Y0025971D01*
X0091829Y0025849D01*
X0092005Y0025731D01*
X0092183Y0025617D01*
X0092364Y0025508D01*
X0092548Y0025403D01*
X0092734Y0025302D01*
X0092922Y0025206D01*
X0093113Y0025115D01*
X0093306Y0025028D01*
X0093500Y0024946D01*
X0093697Y0024869D01*
X0093896Y0024796D01*
X0094096Y0024728D01*
X0094298Y0024665D01*
X0094501Y0024607D01*
X0094706Y0024554D01*
X0094912Y0024506D01*
X0095119Y0024463D01*
X0095327Y0024425D01*
X0095536Y0024392D01*
X0095745Y0024364D01*
X0095956Y0024341D01*
X0096166Y0024323D01*
X0096377Y0024310D01*
X0096589Y0024303D01*
X0096800Y0024300D01*
X0121800Y0046800D02*
X0160550Y0046800D01*
X0121800Y0046800D02*
X0121528Y0046773D01*
X0121255Y0046753D01*
X0120982Y0046739D01*
X0120708Y0046732D01*
X0120435Y0046732D01*
X0120161Y0046738D01*
X0119888Y0046750D01*
X0119615Y0046770D01*
X0119343Y0046796D01*
X0119071Y0046828D01*
X0118801Y0046867D01*
X0118531Y0046913D01*
X0118262Y0046965D01*
X0117995Y0047023D01*
X0117730Y0047088D01*
X0117465Y0047159D01*
X0117203Y0047237D01*
X0116943Y0047321D01*
X0116685Y0047411D01*
X0116429Y0047508D01*
X0116175Y0047611D01*
X0115924Y0047719D01*
X0115676Y0047834D01*
X0115431Y0047955D01*
X0115188Y0048082D01*
X0114949Y0048214D01*
X0114713Y0048352D01*
X0114480Y0048496D01*
X0114251Y0048646D01*
X0114026Y0048801D01*
X0113804Y0048961D01*
X0113586Y0049127D01*
X0113373Y0049297D01*
X0113163Y0049473D01*
X0112958Y0049654D01*
X0112758Y0049840D01*
X0112562Y0050031D01*
X0112370Y0050226D01*
X0112183Y0050426D01*
X0112002Y0050631D01*
X0111825Y0050839D01*
X0111653Y0051052D01*
X0111487Y0051269D01*
X0111326Y0051490D01*
X0111170Y0051715D01*
X0111019Y0051944D01*
X0110875Y0052176D01*
X0110735Y0052411D01*
X0110602Y0052650D01*
X0110475Y0052892D01*
X0110353Y0053137D01*
X0110237Y0053385D01*
X0110127Y0053635D01*
X0110024Y0053889D01*
X0109926Y0054144D01*
X0109835Y0054402D01*
X0109750Y0054662D01*
X0109671Y0054924D01*
X0109599Y0055188D01*
X0109533Y0055453D01*
X0109473Y0055720D01*
X0109420Y0055988D01*
X0109374Y0056258D01*
X0109334Y0056529D01*
X0109300Y0056800D01*
X0088050Y0049300D02*
X0088076Y0048952D01*
X0088093Y0048604D01*
X0088103Y0048255D01*
X0088103Y0047907D01*
X0088096Y0047558D01*
X0088080Y0047210D01*
X0088055Y0046862D01*
X0088022Y0046515D01*
X0087981Y0046169D01*
X0087931Y0045824D01*
X0087873Y0045480D01*
X0087807Y0045137D01*
X0087732Y0044797D01*
X0087650Y0044458D01*
X0087559Y0044121D01*
X0087460Y0043787D01*
X0087353Y0043455D01*
X0087238Y0043126D01*
X0087115Y0042800D01*
X0086984Y0042477D01*
X0086846Y0042157D01*
X0086699Y0041840D01*
X0086545Y0041527D01*
X0086384Y0041218D01*
X0086215Y0040913D01*
X0086039Y0040612D01*
X0085856Y0040315D01*
X0085665Y0040023D01*
X0085468Y0039736D01*
X0085264Y0039453D01*
X0085052Y0039176D01*
X0084835Y0038904D01*
X0084610Y0038637D01*
X0084380Y0038375D01*
X0084143Y0038119D01*
X0083900Y0037869D01*
X0083651Y0037625D01*
X0083396Y0037387D01*
X0083136Y0037155D01*
X0082870Y0036930D01*
X0082598Y0036711D01*
X0082322Y0036499D01*
X0082040Y0036293D01*
X0081753Y0036094D01*
X0081462Y0035903D01*
X0081166Y0035718D01*
X0080866Y0035541D01*
X0080562Y0035371D01*
X0080253Y0035208D01*
X0079941Y0035053D01*
X0079625Y0034905D01*
X0079306Y0034765D01*
X0078983Y0034633D01*
X0078657Y0034509D01*
X0078329Y0034392D01*
X0077997Y0034284D01*
X0077663Y0034183D01*
X0077327Y0034091D01*
X0076989Y0034007D01*
X0076649Y0033931D01*
X0076307Y0033863D01*
X0075963Y0033804D01*
X0075618Y0033752D01*
X0075272Y0033710D01*
X0074925Y0033675D01*
X0036800Y0066800D02*
X0036800Y0069300D01*
X0036798Y0069440D01*
X0036792Y0069580D01*
X0036782Y0069720D01*
X0036769Y0069860D01*
X0036751Y0069999D01*
X0036729Y0070138D01*
X0036704Y0070275D01*
X0036675Y0070413D01*
X0036642Y0070549D01*
X0036605Y0070684D01*
X0036564Y0070818D01*
X0036519Y0070951D01*
X0036471Y0071083D01*
X0036419Y0071213D01*
X0036364Y0071342D01*
X0036305Y0071469D01*
X0036242Y0071595D01*
X0036176Y0071719D01*
X0036107Y0071840D01*
X0036034Y0071960D01*
X0035957Y0072078D01*
X0035878Y0072193D01*
X0035795Y0072307D01*
X0035709Y0072417D01*
X0035620Y0072526D01*
X0035528Y0072632D01*
X0035433Y0072735D01*
X0035336Y0072836D01*
X0035235Y0072933D01*
X0035132Y0073028D01*
X0035026Y0073120D01*
X0034917Y0073209D01*
X0034807Y0073295D01*
X0034693Y0073378D01*
X0034578Y0073457D01*
X0034460Y0073534D01*
X0034340Y0073607D01*
X0034219Y0073676D01*
X0034095Y0073742D01*
X0033969Y0073805D01*
X0033842Y0073864D01*
X0033713Y0073919D01*
X0033583Y0073971D01*
X0033451Y0074019D01*
X0033318Y0074064D01*
X0033184Y0074105D01*
X0033049Y0074142D01*
X0032913Y0074175D01*
X0032775Y0074204D01*
X0032638Y0074229D01*
X0032499Y0074251D01*
X0032360Y0074269D01*
X0032220Y0074282D01*
X0032080Y0074292D01*
X0031940Y0074298D01*
X0031800Y0074300D01*
X0011800Y0074300D01*
X0011644Y0074302D01*
X0011488Y0074308D01*
X0011333Y0074317D01*
X0011178Y0074331D01*
X0011023Y0074349D01*
X0010868Y0074370D01*
X0010715Y0074395D01*
X0010562Y0074424D01*
X0010409Y0074457D01*
X0010258Y0074493D01*
X0010107Y0074534D01*
X0009958Y0074578D01*
X0009809Y0074625D01*
X0009662Y0074677D01*
X0009517Y0074732D01*
X0009372Y0074791D01*
X0009229Y0074853D01*
X0009088Y0074919D01*
X0008949Y0074988D01*
X0008811Y0075061D01*
X0008675Y0075137D01*
X0008541Y0075217D01*
X0008409Y0075300D01*
X0008279Y0075386D01*
X0008152Y0075475D01*
X0008026Y0075568D01*
X0007903Y0075664D01*
X0007783Y0075762D01*
X0007664Y0075864D01*
X0007549Y0075968D01*
X0007436Y0076076D01*
X0007326Y0076186D01*
X0007218Y0076299D01*
X0007114Y0076414D01*
X0007012Y0076533D01*
X0006914Y0076653D01*
X0006818Y0076776D01*
X0006725Y0076902D01*
X0006636Y0077029D01*
X0006550Y0077159D01*
X0006467Y0077291D01*
X0006387Y0077425D01*
X0006311Y0077561D01*
X0006238Y0077699D01*
X0006169Y0077838D01*
X0006103Y0077979D01*
X0006041Y0078122D01*
X0005982Y0078267D01*
X0005927Y0078412D01*
X0005875Y0078559D01*
X0005828Y0078708D01*
X0005784Y0078857D01*
X0005743Y0079008D01*
X0005707Y0079159D01*
X0005674Y0079312D01*
X0005645Y0079465D01*
X0005620Y0079618D01*
X0005599Y0079773D01*
X0005581Y0079928D01*
X0005567Y0080083D01*
X0005558Y0080238D01*
X0005552Y0080394D01*
X0005550Y0080550D01*
X0005550Y0168675D01*
X0024300Y0129300D02*
X0044300Y0129300D01*
X0046800Y0124487D01*
X0046798Y0124438D01*
X0046792Y0124389D01*
X0046783Y0124341D01*
X0046769Y0124294D01*
X0046752Y0124248D01*
X0046732Y0124203D01*
X0046708Y0124160D01*
X0046681Y0124120D01*
X0046650Y0124081D01*
X0046617Y0124045D01*
X0046581Y0124012D01*
X0046542Y0123981D01*
X0046502Y0123954D01*
X0046459Y0123930D01*
X0046414Y0123910D01*
X0046368Y0123893D01*
X0046321Y0123879D01*
X0046273Y0123870D01*
X0046224Y0123864D01*
X0046175Y0123862D01*
X0046800Y0129300D02*
X0044300Y0129300D01*
X0036800Y0066800D02*
X0036798Y0066619D01*
X0036791Y0066438D01*
X0036780Y0066257D01*
X0036765Y0066076D01*
X0036745Y0065896D01*
X0036721Y0065716D01*
X0036693Y0065537D01*
X0036660Y0065359D01*
X0036623Y0065182D01*
X0036582Y0065005D01*
X0036537Y0064830D01*
X0036487Y0064655D01*
X0036433Y0064482D01*
X0036375Y0064311D01*
X0036313Y0064140D01*
X0036246Y0063972D01*
X0036176Y0063805D01*
X0036102Y0063639D01*
X0036023Y0063476D01*
X0035941Y0063315D01*
X0035855Y0063155D01*
X0035765Y0062998D01*
X0035671Y0062843D01*
X0035574Y0062690D01*
X0035472Y0062540D01*
X0035368Y0062392D01*
X0035259Y0062246D01*
X0035148Y0062104D01*
X0035032Y0061964D01*
X0034914Y0061827D01*
X0034792Y0061692D01*
X0034667Y0061561D01*
X0034539Y0061433D01*
X0034408Y0061308D01*
X0034273Y0061186D01*
X0034136Y0061068D01*
X0033996Y0060952D01*
X0033854Y0060841D01*
X0033708Y0060732D01*
X0033560Y0060628D01*
X0033410Y0060526D01*
X0033257Y0060429D01*
X0033102Y0060335D01*
X0032945Y0060245D01*
X0032785Y0060159D01*
X0032624Y0060077D01*
X0032461Y0059998D01*
X0032295Y0059924D01*
X0032128Y0059854D01*
X0031960Y0059787D01*
X0031789Y0059725D01*
X0031618Y0059667D01*
X0031445Y0059613D01*
X0031270Y0059563D01*
X0031095Y0059518D01*
X0030918Y0059477D01*
X0030741Y0059440D01*
X0030563Y0059407D01*
X0030384Y0059379D01*
X0030204Y0059355D01*
X0030024Y0059335D01*
X0029843Y0059320D01*
X0029662Y0059309D01*
X0029481Y0059302D01*
X0029300Y0059300D01*
X0146800Y0151800D02*
X0147601Y0151783D01*
X0148402Y0151747D01*
X0149201Y0151692D01*
X0149999Y0151618D01*
X0150796Y0151526D01*
X0151589Y0151415D01*
X0152380Y0151285D01*
X0153168Y0151137D01*
X0153952Y0150971D01*
X0154731Y0150786D01*
X0155507Y0150583D01*
X0156277Y0150362D01*
X0157042Y0150124D01*
X0157801Y0149867D01*
X0158554Y0149592D01*
X0159300Y0149300D01*
X0151800Y0171800D02*
X0151800Y0174300D01*
X0151803Y0174542D01*
X0151812Y0174783D01*
X0151826Y0175024D01*
X0151847Y0175265D01*
X0151873Y0175505D01*
X0151905Y0175745D01*
X0151943Y0175984D01*
X0151986Y0176221D01*
X0152036Y0176458D01*
X0152091Y0176693D01*
X0152151Y0176927D01*
X0152218Y0177159D01*
X0152289Y0177390D01*
X0152367Y0177619D01*
X0152450Y0177846D01*
X0152538Y0178071D01*
X0152632Y0178294D01*
X0152731Y0178514D01*
X0152836Y0178732D01*
X0152945Y0178947D01*
X0153060Y0179160D01*
X0153180Y0179370D01*
X0153305Y0179576D01*
X0153435Y0179780D01*
X0153570Y0179981D01*
X0153710Y0180178D01*
X0153854Y0180372D01*
X0154003Y0180562D01*
X0154157Y0180748D01*
X0154315Y0180931D01*
X0154477Y0181110D01*
X0154644Y0181285D01*
X0154815Y0181456D01*
X0154990Y0181623D01*
X0155169Y0181785D01*
X0155352Y0181943D01*
X0155538Y0182097D01*
X0155728Y0182246D01*
X0155922Y0182390D01*
X0156119Y0182530D01*
X0156320Y0182665D01*
X0156524Y0182795D01*
X0156730Y0182920D01*
X0156940Y0183040D01*
X0157153Y0183155D01*
X0157368Y0183264D01*
X0157586Y0183369D01*
X0157806Y0183468D01*
X0158029Y0183562D01*
X0158254Y0183650D01*
X0158481Y0183733D01*
X0158710Y0183811D01*
X0158941Y0183882D01*
X0159173Y0183949D01*
X0159407Y0184009D01*
X0159642Y0184064D01*
X0159879Y0184114D01*
X0160116Y0184157D01*
X0160355Y0184195D01*
X0160595Y0184227D01*
X0160835Y0184253D01*
X0161076Y0184274D01*
X0161317Y0184288D01*
X0161558Y0184297D01*
X0161800Y0184300D01*
X0176800Y0184300D01*
X0174300Y0146800D02*
X0173450Y0146764D01*
X0172598Y0146749D01*
X0171746Y0146754D01*
X0170895Y0146781D01*
X0170045Y0146828D01*
X0169196Y0146896D01*
X0168349Y0146984D01*
X0167504Y0147093D01*
X0166663Y0147223D01*
X0165824Y0147373D01*
X0164990Y0147544D01*
X0164160Y0147735D01*
X0163335Y0147946D01*
X0162515Y0148177D01*
X0161702Y0148428D01*
X0160894Y0148699D01*
X0160094Y0148990D01*
X0159300Y0149300D01*
X0174300Y0128675D02*
X0174300Y0083675D01*
X0182425Y0083040D02*
X0182425Y0095550D01*
X0182428Y0095792D01*
X0182437Y0096033D01*
X0182451Y0096274D01*
X0182472Y0096515D01*
X0182498Y0096755D01*
X0182530Y0096995D01*
X0182568Y0097234D01*
X0182611Y0097471D01*
X0182661Y0097708D01*
X0182716Y0097943D01*
X0182776Y0098177D01*
X0182843Y0098409D01*
X0182914Y0098640D01*
X0182992Y0098869D01*
X0183075Y0099096D01*
X0183163Y0099321D01*
X0183257Y0099544D01*
X0183356Y0099764D01*
X0183461Y0099982D01*
X0183570Y0100197D01*
X0183685Y0100410D01*
X0183805Y0100620D01*
X0183930Y0100826D01*
X0184060Y0101030D01*
X0184195Y0101231D01*
X0184335Y0101428D01*
X0184479Y0101622D01*
X0184628Y0101812D01*
X0184782Y0101998D01*
X0184940Y0102181D01*
X0185102Y0102360D01*
X0185269Y0102535D01*
X0185440Y0102706D01*
X0185615Y0102873D01*
X0185794Y0103035D01*
X0185977Y0103193D01*
X0186163Y0103347D01*
X0186353Y0103496D01*
X0186547Y0103640D01*
X0186744Y0103780D01*
X0186945Y0103915D01*
X0187149Y0104045D01*
X0187355Y0104170D01*
X0187565Y0104290D01*
X0187778Y0104405D01*
X0187993Y0104514D01*
X0188211Y0104619D01*
X0188431Y0104718D01*
X0188654Y0104812D01*
X0188879Y0104900D01*
X0189106Y0104983D01*
X0189335Y0105061D01*
X0189566Y0105132D01*
X0189798Y0105199D01*
X0190032Y0105259D01*
X0190267Y0105314D01*
X0190504Y0105364D01*
X0190741Y0105407D01*
X0190980Y0105445D01*
X0191220Y0105477D01*
X0191460Y0105503D01*
X0191701Y0105524D01*
X0191942Y0105538D01*
X0192183Y0105547D01*
X0192425Y0105550D01*
X0244300Y0105550D01*
X0244496Y0105567D01*
X0244692Y0105590D01*
X0244887Y0105617D01*
X0245081Y0105648D01*
X0245275Y0105685D01*
X0245467Y0105726D01*
X0245659Y0105771D01*
X0245849Y0105821D01*
X0246039Y0105876D01*
X0246226Y0105936D01*
X0246413Y0106000D01*
X0246597Y0106068D01*
X0246780Y0106141D01*
X0246961Y0106218D01*
X0247141Y0106300D01*
X0247318Y0106386D01*
X0247493Y0106476D01*
X0247666Y0106570D01*
X0247836Y0106669D01*
X0248004Y0106771D01*
X0248170Y0106878D01*
X0248333Y0106988D01*
X0248493Y0107103D01*
X0248650Y0107221D01*
X0248805Y0107343D01*
X0248956Y0107469D01*
X0249105Y0107599D01*
X0249250Y0107732D01*
X0249392Y0107868D01*
X0249531Y0108008D01*
X0249666Y0108151D01*
X0249798Y0108297D01*
X0249926Y0108447D01*
X0250050Y0108599D01*
X0250171Y0108755D01*
X0250288Y0108913D01*
X0250401Y0109075D01*
X0250510Y0109238D01*
X0250616Y0109405D01*
X0250717Y0109574D01*
X0250814Y0109745D01*
X0250907Y0109919D01*
X0250995Y0110095D01*
X0251080Y0110273D01*
X0251160Y0110453D01*
X0251235Y0110634D01*
X0251307Y0110818D01*
X0251374Y0111003D01*
X0251436Y0111190D01*
X0251494Y0111378D01*
X0251547Y0111568D01*
X0251595Y0111759D01*
X0251639Y0111951D01*
X0251679Y0112144D01*
X0251713Y0112337D01*
X0251743Y0112532D01*
X0251769Y0112727D01*
X0251789Y0112923D01*
X0251805Y0113119D01*
X0251816Y0113316D01*
X0251822Y0113513D01*
X0251824Y0113710D01*
X0251821Y0113907D01*
X0251813Y0114103D01*
X0251800Y0114300D01*
X0251800Y0115550D01*
X0251800Y0141800D01*
X0251802Y0141981D01*
X0251809Y0142162D01*
X0251820Y0142343D01*
X0251835Y0142524D01*
X0251855Y0142704D01*
X0251879Y0142884D01*
X0251907Y0143063D01*
X0251940Y0143241D01*
X0251977Y0143418D01*
X0252018Y0143595D01*
X0252063Y0143770D01*
X0252113Y0143945D01*
X0252167Y0144118D01*
X0252225Y0144289D01*
X0252287Y0144460D01*
X0252354Y0144628D01*
X0252424Y0144795D01*
X0252498Y0144961D01*
X0252577Y0145124D01*
X0252659Y0145285D01*
X0252745Y0145445D01*
X0252835Y0145602D01*
X0252929Y0145757D01*
X0253026Y0145910D01*
X0253128Y0146060D01*
X0253232Y0146208D01*
X0253341Y0146354D01*
X0253452Y0146496D01*
X0253568Y0146636D01*
X0253686Y0146773D01*
X0253808Y0146908D01*
X0253933Y0147039D01*
X0254061Y0147167D01*
X0254192Y0147292D01*
X0254327Y0147414D01*
X0254464Y0147532D01*
X0254604Y0147648D01*
X0254746Y0147759D01*
X0254892Y0147868D01*
X0255040Y0147972D01*
X0255190Y0148074D01*
X0255343Y0148171D01*
X0255498Y0148265D01*
X0255655Y0148355D01*
X0255815Y0148441D01*
X0255976Y0148523D01*
X0256139Y0148602D01*
X0256305Y0148676D01*
X0256472Y0148746D01*
X0256640Y0148813D01*
X0256811Y0148875D01*
X0256982Y0148933D01*
X0257155Y0148987D01*
X0257330Y0149037D01*
X0257505Y0149082D01*
X0257682Y0149123D01*
X0257859Y0149160D01*
X0258037Y0149193D01*
X0258216Y0149221D01*
X0258396Y0149245D01*
X0258576Y0149265D01*
X0258757Y0149280D01*
X0258938Y0149291D01*
X0259119Y0149298D01*
X0259300Y0149300D01*
X0299300Y0149300D01*
X0299481Y0149302D01*
X0299662Y0149309D01*
X0299843Y0149320D01*
X0300024Y0149335D01*
X0300204Y0149355D01*
X0300384Y0149379D01*
X0300563Y0149407D01*
X0300741Y0149440D01*
X0300918Y0149477D01*
X0301095Y0149518D01*
X0301270Y0149563D01*
X0301445Y0149613D01*
X0301618Y0149667D01*
X0301789Y0149725D01*
X0301960Y0149787D01*
X0302128Y0149854D01*
X0302295Y0149924D01*
X0302461Y0149998D01*
X0302624Y0150077D01*
X0302785Y0150159D01*
X0302945Y0150245D01*
X0303102Y0150335D01*
X0303257Y0150429D01*
X0303410Y0150526D01*
X0303560Y0150628D01*
X0303708Y0150732D01*
X0303854Y0150841D01*
X0303996Y0150952D01*
X0304136Y0151068D01*
X0304273Y0151186D01*
X0304408Y0151308D01*
X0304539Y0151433D01*
X0304667Y0151561D01*
X0304792Y0151692D01*
X0304914Y0151827D01*
X0305032Y0151964D01*
X0305148Y0152104D01*
X0305259Y0152246D01*
X0305368Y0152392D01*
X0305472Y0152540D01*
X0305574Y0152690D01*
X0305671Y0152843D01*
X0305765Y0152998D01*
X0305855Y0153155D01*
X0305941Y0153315D01*
X0306023Y0153476D01*
X0306102Y0153639D01*
X0306176Y0153805D01*
X0306246Y0153972D01*
X0306313Y0154140D01*
X0306375Y0154311D01*
X0306433Y0154482D01*
X0306487Y0154655D01*
X0306537Y0154830D01*
X0306582Y0155005D01*
X0306623Y0155182D01*
X0306660Y0155359D01*
X0306693Y0155537D01*
X0306721Y0155716D01*
X0306745Y0155896D01*
X0306765Y0156076D01*
X0306780Y0156257D01*
X0306791Y0156438D01*
X0306798Y0156619D01*
X0306800Y0156800D01*
X0306800Y0196800D01*
X0296800Y0196800D02*
X0296800Y0164300D01*
X0296767Y0164089D01*
X0296730Y0163879D01*
X0296687Y0163669D01*
X0296639Y0163461D01*
X0296586Y0163254D01*
X0296528Y0163049D01*
X0296465Y0162845D01*
X0296397Y0162642D01*
X0296324Y0162441D01*
X0296247Y0162242D01*
X0296164Y0162045D01*
X0296077Y0161850D01*
X0295986Y0161657D01*
X0295889Y0161467D01*
X0295788Y0161278D01*
X0295683Y0161093D01*
X0295573Y0160909D01*
X0295459Y0160729D01*
X0295340Y0160551D01*
X0295217Y0160377D01*
X0295090Y0160205D01*
X0294959Y0160037D01*
X0294823Y0159871D01*
X0294684Y0159709D01*
X0294541Y0159551D01*
X0294394Y0159395D01*
X0294244Y0159244D01*
X0294090Y0159096D01*
X0293932Y0158952D01*
X0293771Y0158812D01*
X0293606Y0158676D01*
X0293438Y0158543D01*
X0293268Y0158415D01*
X0293094Y0158291D01*
X0292917Y0158171D01*
X0292737Y0158056D01*
X0292555Y0157945D01*
X0292370Y0157838D01*
X0292182Y0157736D01*
X0291992Y0157639D01*
X0291800Y0157546D01*
X0291605Y0157457D01*
X0291408Y0157374D01*
X0291210Y0157295D01*
X0291010Y0157221D01*
X0290807Y0157152D01*
X0290604Y0157088D01*
X0290398Y0157029D01*
X0290192Y0156974D01*
X0289984Y0156925D01*
X0289775Y0156881D01*
X0289565Y0156842D01*
X0289354Y0156808D01*
X0289143Y0156779D01*
X0288930Y0156755D01*
X0288718Y0156736D01*
X0288504Y0156723D01*
X0288291Y0156714D01*
X0288077Y0156711D01*
X0287864Y0156713D01*
X0287650Y0156720D01*
X0287437Y0156732D01*
X0287224Y0156750D01*
X0287012Y0156772D01*
X0286800Y0156800D01*
X0234300Y0156800D01*
X0181800Y0129310D02*
X0181800Y0115550D01*
X0181803Y0115308D01*
X0181812Y0115067D01*
X0181826Y0114826D01*
X0181847Y0114585D01*
X0181873Y0114345D01*
X0181905Y0114105D01*
X0181943Y0113866D01*
X0181986Y0113629D01*
X0182036Y0113392D01*
X0182091Y0113157D01*
X0182151Y0112923D01*
X0182218Y0112691D01*
X0182289Y0112460D01*
X0182367Y0112231D01*
X0182450Y0112004D01*
X0182538Y0111779D01*
X0182632Y0111556D01*
X0182731Y0111336D01*
X0182836Y0111118D01*
X0182945Y0110903D01*
X0183060Y0110690D01*
X0183180Y0110480D01*
X0183305Y0110274D01*
X0183435Y0110070D01*
X0183570Y0109869D01*
X0183710Y0109672D01*
X0183854Y0109478D01*
X0184003Y0109288D01*
X0184157Y0109102D01*
X0184315Y0108919D01*
X0184477Y0108740D01*
X0184644Y0108565D01*
X0184815Y0108394D01*
X0184990Y0108227D01*
X0185169Y0108065D01*
X0185352Y0107907D01*
X0185538Y0107753D01*
X0185728Y0107604D01*
X0185922Y0107460D01*
X0186119Y0107320D01*
X0186320Y0107185D01*
X0186524Y0107055D01*
X0186730Y0106930D01*
X0186940Y0106810D01*
X0187153Y0106695D01*
X0187368Y0106586D01*
X0187586Y0106481D01*
X0187806Y0106382D01*
X0188029Y0106288D01*
X0188254Y0106200D01*
X0188481Y0106117D01*
X0188710Y0106039D01*
X0188941Y0105968D01*
X0189173Y0105901D01*
X0189407Y0105841D01*
X0189642Y0105786D01*
X0189879Y0105736D01*
X0190116Y0105693D01*
X0190355Y0105655D01*
X0190595Y0105623D01*
X0190835Y0105597D01*
X0191076Y0105576D01*
X0191317Y0105562D01*
X0191558Y0105553D01*
X0191800Y0105550D01*
X0192425Y0105550D01*
X0261800Y0105550D02*
X0294300Y0105550D01*
X0294542Y0105547D01*
X0294783Y0105538D01*
X0295024Y0105524D01*
X0295265Y0105503D01*
X0295505Y0105477D01*
X0295745Y0105445D01*
X0295984Y0105407D01*
X0296221Y0105364D01*
X0296458Y0105314D01*
X0296693Y0105259D01*
X0296927Y0105199D01*
X0297159Y0105132D01*
X0297390Y0105061D01*
X0297619Y0104983D01*
X0297846Y0104900D01*
X0298071Y0104812D01*
X0298294Y0104718D01*
X0298514Y0104619D01*
X0298732Y0104514D01*
X0298947Y0104405D01*
X0299160Y0104290D01*
X0299370Y0104170D01*
X0299576Y0104045D01*
X0299780Y0103915D01*
X0299981Y0103780D01*
X0300178Y0103640D01*
X0300372Y0103496D01*
X0300562Y0103347D01*
X0300748Y0103193D01*
X0300931Y0103035D01*
X0301110Y0102873D01*
X0301285Y0102706D01*
X0301456Y0102535D01*
X0301623Y0102360D01*
X0301785Y0102181D01*
X0301943Y0101998D01*
X0302097Y0101812D01*
X0302246Y0101622D01*
X0302390Y0101428D01*
X0302530Y0101231D01*
X0302665Y0101030D01*
X0302795Y0100826D01*
X0302920Y0100620D01*
X0303040Y0100410D01*
X0303155Y0100197D01*
X0303264Y0099982D01*
X0303369Y0099764D01*
X0303468Y0099544D01*
X0303562Y0099321D01*
X0303650Y0099096D01*
X0303733Y0098869D01*
X0303811Y0098640D01*
X0303882Y0098409D01*
X0303949Y0098177D01*
X0304009Y0097943D01*
X0304064Y0097708D01*
X0304114Y0097471D01*
X0304157Y0097234D01*
X0304195Y0096995D01*
X0304227Y0096755D01*
X0304253Y0096515D01*
X0304274Y0096274D01*
X0304288Y0096033D01*
X0304297Y0095792D01*
X0304300Y0095550D01*
X0304300Y0083040D01*
X0304300Y0115550D02*
X0304300Y0130560D01*
X0304300Y0115550D02*
X0304297Y0115308D01*
X0304288Y0115067D01*
X0304274Y0114826D01*
X0304253Y0114585D01*
X0304227Y0114345D01*
X0304195Y0114105D01*
X0304157Y0113866D01*
X0304114Y0113629D01*
X0304064Y0113392D01*
X0304009Y0113157D01*
X0303949Y0112923D01*
X0303882Y0112691D01*
X0303811Y0112460D01*
X0303733Y0112231D01*
X0303650Y0112004D01*
X0303562Y0111779D01*
X0303468Y0111556D01*
X0303369Y0111336D01*
X0303264Y0111118D01*
X0303155Y0110903D01*
X0303040Y0110690D01*
X0302920Y0110480D01*
X0302795Y0110274D01*
X0302665Y0110070D01*
X0302530Y0109869D01*
X0302390Y0109672D01*
X0302246Y0109478D01*
X0302097Y0109288D01*
X0301943Y0109102D01*
X0301785Y0108919D01*
X0301623Y0108740D01*
X0301456Y0108565D01*
X0301285Y0108394D01*
X0301110Y0108227D01*
X0300931Y0108065D01*
X0300748Y0107907D01*
X0300562Y0107753D01*
X0300372Y0107604D01*
X0300178Y0107460D01*
X0299981Y0107320D01*
X0299780Y0107185D01*
X0299576Y0107055D01*
X0299370Y0106930D01*
X0299160Y0106810D01*
X0298947Y0106695D01*
X0298732Y0106586D01*
X0298514Y0106481D01*
X0298294Y0106382D01*
X0298071Y0106288D01*
X0297846Y0106200D01*
X0297619Y0106117D01*
X0297390Y0106039D01*
X0297159Y0105968D01*
X0296927Y0105901D01*
X0296693Y0105841D01*
X0296458Y0105786D01*
X0296221Y0105736D01*
X0295984Y0105693D01*
X0295745Y0105655D01*
X0295505Y0105623D01*
X0295265Y0105597D01*
X0295024Y0105576D01*
X0294783Y0105562D01*
X0294542Y0105553D01*
X0294300Y0105550D01*
X0261800Y0105550D02*
X0261558Y0105553D01*
X0261317Y0105562D01*
X0261076Y0105576D01*
X0260835Y0105597D01*
X0260595Y0105623D01*
X0260355Y0105655D01*
X0260116Y0105693D01*
X0259879Y0105736D01*
X0259642Y0105786D01*
X0259407Y0105841D01*
X0259173Y0105901D01*
X0258941Y0105968D01*
X0258710Y0106039D01*
X0258481Y0106117D01*
X0258254Y0106200D01*
X0258029Y0106288D01*
X0257806Y0106382D01*
X0257586Y0106481D01*
X0257368Y0106586D01*
X0257153Y0106695D01*
X0256940Y0106810D01*
X0256730Y0106930D01*
X0256524Y0107055D01*
X0256320Y0107185D01*
X0256119Y0107320D01*
X0255922Y0107460D01*
X0255728Y0107604D01*
X0255538Y0107753D01*
X0255352Y0107907D01*
X0255169Y0108065D01*
X0254990Y0108227D01*
X0254815Y0108394D01*
X0254644Y0108565D01*
X0254477Y0108740D01*
X0254315Y0108919D01*
X0254157Y0109102D01*
X0254003Y0109288D01*
X0253854Y0109478D01*
X0253710Y0109672D01*
X0253570Y0109869D01*
X0253435Y0110070D01*
X0253305Y0110274D01*
X0253180Y0110480D01*
X0253060Y0110690D01*
X0252945Y0110903D01*
X0252836Y0111118D01*
X0252731Y0111336D01*
X0252632Y0111556D01*
X0252538Y0111779D01*
X0252450Y0112004D01*
X0252367Y0112231D01*
X0252289Y0112460D01*
X0252218Y0112691D01*
X0252151Y0112923D01*
X0252091Y0113157D01*
X0252036Y0113392D01*
X0251986Y0113629D01*
X0251943Y0113866D01*
X0251905Y0114105D01*
X0251873Y0114345D01*
X0251847Y0114585D01*
X0251826Y0114826D01*
X0251812Y0115067D01*
X0251803Y0115308D01*
X0251800Y0115550D01*
X0234300Y0156800D02*
X0231761Y0156770D01*
X0229223Y0156681D01*
X0226689Y0156532D01*
X0224158Y0156323D01*
X0221633Y0156055D01*
X0219115Y0155728D01*
X0216605Y0155342D01*
X0214105Y0154897D01*
X0211616Y0154394D01*
X0209140Y0153832D01*
X0206678Y0153212D01*
X0204231Y0152535D01*
X0201800Y0151800D01*
X0151800Y0171800D02*
X0151797Y0171558D01*
X0151788Y0171317D01*
X0151774Y0171076D01*
X0151753Y0170835D01*
X0151727Y0170595D01*
X0151695Y0170355D01*
X0151657Y0170116D01*
X0151614Y0169879D01*
X0151564Y0169642D01*
X0151509Y0169407D01*
X0151449Y0169173D01*
X0151382Y0168941D01*
X0151311Y0168710D01*
X0151233Y0168481D01*
X0151150Y0168254D01*
X0151062Y0168029D01*
X0150968Y0167806D01*
X0150869Y0167586D01*
X0150764Y0167368D01*
X0150655Y0167153D01*
X0150540Y0166940D01*
X0150420Y0166730D01*
X0150295Y0166524D01*
X0150165Y0166320D01*
X0150030Y0166119D01*
X0149890Y0165922D01*
X0149746Y0165728D01*
X0149597Y0165538D01*
X0149443Y0165352D01*
X0149285Y0165169D01*
X0149123Y0164990D01*
X0148956Y0164815D01*
X0148785Y0164644D01*
X0148610Y0164477D01*
X0148431Y0164315D01*
X0148248Y0164157D01*
X0148062Y0164003D01*
X0147872Y0163854D01*
X0147678Y0163710D01*
X0147481Y0163570D01*
X0147280Y0163435D01*
X0147076Y0163305D01*
X0146870Y0163180D01*
X0146660Y0163060D01*
X0146447Y0162945D01*
X0146232Y0162836D01*
X0146014Y0162731D01*
X0145794Y0162632D01*
X0145571Y0162538D01*
X0145346Y0162450D01*
X0145119Y0162367D01*
X0144890Y0162289D01*
X0144659Y0162218D01*
X0144427Y0162151D01*
X0144193Y0162091D01*
X0143958Y0162036D01*
X0143721Y0161986D01*
X0143484Y0161943D01*
X0143245Y0161905D01*
X0143005Y0161873D01*
X0142765Y0161847D01*
X0142524Y0161826D01*
X0142283Y0161812D01*
X0142042Y0161803D01*
X0141800Y0161800D01*
X0176800Y0184300D02*
X0177042Y0184303D01*
X0177283Y0184312D01*
X0177524Y0184326D01*
X0177765Y0184347D01*
X0178005Y0184373D01*
X0178245Y0184405D01*
X0178484Y0184443D01*
X0178721Y0184486D01*
X0178958Y0184536D01*
X0179193Y0184591D01*
X0179427Y0184651D01*
X0179659Y0184718D01*
X0179890Y0184789D01*
X0180119Y0184867D01*
X0180346Y0184950D01*
X0180571Y0185038D01*
X0180794Y0185132D01*
X0181014Y0185231D01*
X0181232Y0185336D01*
X0181447Y0185445D01*
X0181660Y0185560D01*
X0181870Y0185680D01*
X0182076Y0185805D01*
X0182280Y0185935D01*
X0182481Y0186070D01*
X0182678Y0186210D01*
X0182872Y0186354D01*
X0183062Y0186503D01*
X0183248Y0186657D01*
X0183431Y0186815D01*
X0183610Y0186977D01*
X0183785Y0187144D01*
X0183956Y0187315D01*
X0184123Y0187490D01*
X0184285Y0187669D01*
X0184443Y0187852D01*
X0184597Y0188038D01*
X0184746Y0188228D01*
X0184890Y0188422D01*
X0185030Y0188619D01*
X0185165Y0188820D01*
X0185295Y0189024D01*
X0185420Y0189230D01*
X0185540Y0189440D01*
X0185655Y0189653D01*
X0185764Y0189868D01*
X0185869Y0190086D01*
X0185968Y0190306D01*
X0186062Y0190529D01*
X0186150Y0190754D01*
X0186233Y0190981D01*
X0186311Y0191210D01*
X0186382Y0191441D01*
X0186449Y0191673D01*
X0186509Y0191907D01*
X0186564Y0192142D01*
X0186614Y0192379D01*
X0186657Y0192616D01*
X0186695Y0192855D01*
X0186727Y0193095D01*
X0186753Y0193335D01*
X0186774Y0193576D01*
X0186788Y0193817D01*
X0186797Y0194058D01*
X0186800Y0194300D01*
X0186800Y0196800D01*
X0246800Y0196800D01*
X0176800Y0196800D02*
X0166800Y0196800D01*
X0121800Y0196800D01*
X0124300Y0199300D01*
X0174300Y0146800D02*
X0176842Y0146968D01*
X0179380Y0147193D01*
X0181912Y0147477D01*
X0184437Y0147818D01*
X0186953Y0148216D01*
X0189459Y0148672D01*
X0191955Y0149184D01*
X0194438Y0149754D01*
X0196907Y0150380D01*
X0199362Y0151062D01*
X0201800Y0151800D01*
D21*
X0174300Y0136800D03*
X0174300Y0128675D03*
X0234300Y0156800D03*
X0246800Y0196800D03*
X0311800Y0138050D03*
X0311800Y0075550D03*
X0174300Y0075550D03*
X0174300Y0083675D03*
D22*
X0154925Y0089300D03*
X0149300Y0094300D03*
X0138050Y0101800D03*
X0126800Y0106800D03*
X0123050Y0101800D03*
X0138675Y0111800D03*
X0091800Y0094925D03*
X0091800Y0083050D03*
X0073675Y0074925D03*
X0073675Y0067425D03*
X0066175Y0067425D03*
X0058675Y0067425D03*
X0051175Y0067425D03*
X0043675Y0067425D03*
X0031175Y0067425D03*
X0023675Y0067425D03*
X0016175Y0067425D03*
X0008675Y0067425D03*
X0029300Y0059300D03*
X0060550Y0076175D03*
X0070550Y0081800D03*
X0073675Y0099925D03*
X0068675Y0103675D03*
X0073675Y0107425D03*
X0073675Y0114925D03*
X0073675Y0124925D03*
X0060550Y0118675D03*
X0054925Y0111175D03*
X0031800Y0118675D03*
X0024300Y0129300D03*
X0046800Y0129300D03*
X0054925Y0134925D03*
X0059925Y0134925D03*
X0073675Y0134925D03*
X0073675Y0144925D03*
X0073675Y0154925D03*
X0059925Y0154925D03*
X0059925Y0144925D03*
X0059925Y0164925D03*
X0073675Y0164925D03*
X0073675Y0174925D03*
X0051800Y0179300D03*
X0035550Y0082425D03*
X0096800Y0040550D03*
X0116800Y0039300D03*
X0134300Y0034300D03*
X0149300Y0029300D03*
X0151800Y0039300D03*
X0160550Y0046800D03*
X0141800Y0061800D03*
X0141800Y0066800D03*
X0119300Y0066800D03*
X0119300Y0061800D03*
X0116800Y0021800D03*
X0121800Y0021800D03*
X0126800Y0021800D03*
X0149300Y0014300D03*
X0096800Y0019300D03*
X0044300Y0033675D03*
D23*
X0025550Y0026800D02*
X0069300Y0026800D01*
X0069440Y0026798D01*
X0069580Y0026792D01*
X0069720Y0026782D01*
X0069860Y0026769D01*
X0069999Y0026751D01*
X0070138Y0026729D01*
X0070275Y0026704D01*
X0070413Y0026675D01*
X0070549Y0026642D01*
X0070684Y0026605D01*
X0070818Y0026564D01*
X0070951Y0026519D01*
X0071083Y0026471D01*
X0071213Y0026419D01*
X0071342Y0026364D01*
X0071469Y0026305D01*
X0071595Y0026242D01*
X0071719Y0026176D01*
X0071840Y0026107D01*
X0071960Y0026034D01*
X0072078Y0025957D01*
X0072193Y0025878D01*
X0072307Y0025795D01*
X0072417Y0025709D01*
X0072526Y0025620D01*
X0072632Y0025528D01*
X0072735Y0025433D01*
X0072836Y0025336D01*
X0072933Y0025235D01*
X0073028Y0025132D01*
X0073120Y0025026D01*
X0073209Y0024917D01*
X0073295Y0024807D01*
X0073378Y0024693D01*
X0073457Y0024578D01*
X0073534Y0024460D01*
X0073607Y0024340D01*
X0073676Y0024219D01*
X0073742Y0024095D01*
X0073805Y0023969D01*
X0073864Y0023842D01*
X0073919Y0023713D01*
X0073971Y0023583D01*
X0074019Y0023451D01*
X0074064Y0023318D01*
X0074105Y0023184D01*
X0074142Y0023049D01*
X0074175Y0022913D01*
X0074204Y0022775D01*
X0074229Y0022638D01*
X0074251Y0022499D01*
X0074269Y0022360D01*
X0074282Y0022220D01*
X0074292Y0022080D01*
X0074298Y0021940D01*
X0074300Y0021800D01*
X0074300Y0020550D01*
X0074302Y0020410D01*
X0074308Y0020270D01*
X0074318Y0020130D01*
X0074331Y0019990D01*
X0074349Y0019851D01*
X0074371Y0019712D01*
X0074396Y0019575D01*
X0074425Y0019437D01*
X0074458Y0019301D01*
X0074495Y0019166D01*
X0074536Y0019032D01*
X0074581Y0018899D01*
X0074629Y0018767D01*
X0074681Y0018637D01*
X0074736Y0018508D01*
X0074795Y0018381D01*
X0074858Y0018255D01*
X0074924Y0018131D01*
X0074993Y0018010D01*
X0075066Y0017890D01*
X0075143Y0017772D01*
X0075222Y0017657D01*
X0075305Y0017543D01*
X0075391Y0017433D01*
X0075480Y0017324D01*
X0075572Y0017218D01*
X0075667Y0017115D01*
X0075764Y0017014D01*
X0075865Y0016917D01*
X0075968Y0016822D01*
X0076074Y0016730D01*
X0076183Y0016641D01*
X0076293Y0016555D01*
X0076407Y0016472D01*
X0076522Y0016393D01*
X0076640Y0016316D01*
X0076760Y0016243D01*
X0076881Y0016174D01*
X0077005Y0016108D01*
X0077131Y0016045D01*
X0077258Y0015986D01*
X0077387Y0015931D01*
X0077517Y0015879D01*
X0077649Y0015831D01*
X0077782Y0015786D01*
X0077916Y0015745D01*
X0078051Y0015708D01*
X0078187Y0015675D01*
X0078325Y0015646D01*
X0078462Y0015621D01*
X0078601Y0015599D01*
X0078740Y0015581D01*
X0078880Y0015568D01*
X0079020Y0015558D01*
X0079160Y0015552D01*
X0079300Y0015550D01*
X0099300Y0015550D01*
X0096800Y0019300D02*
X0096800Y0024300D01*
X0096800Y0025363D01*
X0104300Y0020550D02*
X0104298Y0020410D01*
X0104292Y0020270D01*
X0104282Y0020130D01*
X0104269Y0019990D01*
X0104251Y0019851D01*
X0104229Y0019712D01*
X0104204Y0019575D01*
X0104175Y0019437D01*
X0104142Y0019301D01*
X0104105Y0019166D01*
X0104064Y0019032D01*
X0104019Y0018899D01*
X0103971Y0018767D01*
X0103919Y0018637D01*
X0103864Y0018508D01*
X0103805Y0018381D01*
X0103742Y0018255D01*
X0103676Y0018131D01*
X0103607Y0018010D01*
X0103534Y0017890D01*
X0103457Y0017772D01*
X0103378Y0017657D01*
X0103295Y0017543D01*
X0103209Y0017433D01*
X0103120Y0017324D01*
X0103028Y0017218D01*
X0102933Y0017115D01*
X0102836Y0017014D01*
X0102735Y0016917D01*
X0102632Y0016822D01*
X0102526Y0016730D01*
X0102417Y0016641D01*
X0102307Y0016555D01*
X0102193Y0016472D01*
X0102078Y0016393D01*
X0101960Y0016316D01*
X0101840Y0016243D01*
X0101719Y0016174D01*
X0101595Y0016108D01*
X0101469Y0016045D01*
X0101342Y0015986D01*
X0101213Y0015931D01*
X0101083Y0015879D01*
X0100951Y0015831D01*
X0100818Y0015786D01*
X0100684Y0015745D01*
X0100549Y0015708D01*
X0100413Y0015675D01*
X0100275Y0015646D01*
X0100138Y0015621D01*
X0099999Y0015599D01*
X0099860Y0015581D01*
X0099720Y0015568D01*
X0099580Y0015558D01*
X0099440Y0015552D01*
X0099300Y0015550D01*
X0104300Y0020550D02*
X0104300Y0034300D01*
X0104302Y0034440D01*
X0104308Y0034580D01*
X0104318Y0034720D01*
X0104331Y0034860D01*
X0104349Y0034999D01*
X0104371Y0035138D01*
X0104396Y0035275D01*
X0104425Y0035413D01*
X0104458Y0035549D01*
X0104495Y0035684D01*
X0104536Y0035818D01*
X0104581Y0035951D01*
X0104629Y0036083D01*
X0104681Y0036213D01*
X0104736Y0036342D01*
X0104795Y0036469D01*
X0104858Y0036595D01*
X0104924Y0036719D01*
X0104993Y0036840D01*
X0105066Y0036960D01*
X0105143Y0037078D01*
X0105222Y0037193D01*
X0105305Y0037307D01*
X0105391Y0037417D01*
X0105480Y0037526D01*
X0105572Y0037632D01*
X0105667Y0037735D01*
X0105764Y0037836D01*
X0105865Y0037933D01*
X0105968Y0038028D01*
X0106074Y0038120D01*
X0106183Y0038209D01*
X0106293Y0038295D01*
X0106407Y0038378D01*
X0106522Y0038457D01*
X0106640Y0038534D01*
X0106760Y0038607D01*
X0106881Y0038676D01*
X0107005Y0038742D01*
X0107131Y0038805D01*
X0107258Y0038864D01*
X0107387Y0038919D01*
X0107517Y0038971D01*
X0107649Y0039019D01*
X0107782Y0039064D01*
X0107916Y0039105D01*
X0108051Y0039142D01*
X0108187Y0039175D01*
X0108325Y0039204D01*
X0108462Y0039229D01*
X0108601Y0039251D01*
X0108740Y0039269D01*
X0108880Y0039282D01*
X0109020Y0039292D01*
X0109160Y0039298D01*
X0109300Y0039300D01*
X0116800Y0039300D01*
X0134300Y0034300D02*
X0146800Y0034300D01*
X0149300Y0029300D02*
X0149300Y0014300D01*
X0134300Y0004300D02*
X0134202Y0004302D01*
X0134104Y0004308D01*
X0134006Y0004317D01*
X0133909Y0004331D01*
X0133812Y0004348D01*
X0133716Y0004369D01*
X0133621Y0004394D01*
X0133527Y0004422D01*
X0133435Y0004455D01*
X0133343Y0004490D01*
X0133253Y0004530D01*
X0133165Y0004572D01*
X0133078Y0004619D01*
X0132994Y0004668D01*
X0132911Y0004721D01*
X0132831Y0004777D01*
X0132752Y0004837D01*
X0132676Y0004899D01*
X0132603Y0004964D01*
X0132532Y0005032D01*
X0132464Y0005103D01*
X0132399Y0005176D01*
X0132337Y0005252D01*
X0132277Y0005331D01*
X0132221Y0005411D01*
X0132168Y0005494D01*
X0132119Y0005578D01*
X0132072Y0005665D01*
X0132030Y0005753D01*
X0131990Y0005843D01*
X0131955Y0005935D01*
X0131922Y0006027D01*
X0131894Y0006121D01*
X0131869Y0006216D01*
X0131848Y0006312D01*
X0131831Y0006409D01*
X0131817Y0006506D01*
X0131808Y0006604D01*
X0131802Y0006702D01*
X0131800Y0006800D01*
X0131800Y0021800D01*
X0126800Y0021800D02*
X0126800Y0009300D01*
X0126798Y0009160D01*
X0126792Y0009020D01*
X0126782Y0008880D01*
X0126769Y0008740D01*
X0126751Y0008601D01*
X0126729Y0008462D01*
X0126704Y0008325D01*
X0126675Y0008187D01*
X0126642Y0008051D01*
X0126605Y0007916D01*
X0126564Y0007782D01*
X0126519Y0007649D01*
X0126471Y0007517D01*
X0126419Y0007387D01*
X0126364Y0007258D01*
X0126305Y0007131D01*
X0126242Y0007005D01*
X0126176Y0006881D01*
X0126107Y0006760D01*
X0126034Y0006640D01*
X0125957Y0006522D01*
X0125878Y0006407D01*
X0125795Y0006293D01*
X0125709Y0006183D01*
X0125620Y0006074D01*
X0125528Y0005968D01*
X0125433Y0005865D01*
X0125336Y0005764D01*
X0125235Y0005667D01*
X0125132Y0005572D01*
X0125026Y0005480D01*
X0124917Y0005391D01*
X0124807Y0005305D01*
X0124693Y0005222D01*
X0124578Y0005143D01*
X0124460Y0005066D01*
X0124340Y0004993D01*
X0124219Y0004924D01*
X0124095Y0004858D01*
X0123969Y0004795D01*
X0123842Y0004736D01*
X0123713Y0004681D01*
X0123583Y0004629D01*
X0123451Y0004581D01*
X0123318Y0004536D01*
X0123184Y0004495D01*
X0123049Y0004458D01*
X0122913Y0004425D01*
X0122775Y0004396D01*
X0122638Y0004371D01*
X0122499Y0004349D01*
X0122360Y0004331D01*
X0122220Y0004318D01*
X0122080Y0004308D01*
X0121940Y0004302D01*
X0121800Y0004300D01*
X0048050Y0004300D01*
X0047910Y0004302D01*
X0047770Y0004308D01*
X0047630Y0004318D01*
X0047490Y0004331D01*
X0047351Y0004349D01*
X0047212Y0004371D01*
X0047075Y0004396D01*
X0046937Y0004425D01*
X0046801Y0004458D01*
X0046666Y0004495D01*
X0046532Y0004536D01*
X0046399Y0004581D01*
X0046267Y0004629D01*
X0046137Y0004681D01*
X0046008Y0004736D01*
X0045881Y0004795D01*
X0045755Y0004858D01*
X0045631Y0004924D01*
X0045510Y0004993D01*
X0045390Y0005066D01*
X0045272Y0005143D01*
X0045157Y0005222D01*
X0045043Y0005305D01*
X0044933Y0005391D01*
X0044824Y0005480D01*
X0044718Y0005572D01*
X0044615Y0005667D01*
X0044514Y0005764D01*
X0044417Y0005865D01*
X0044322Y0005968D01*
X0044230Y0006074D01*
X0044141Y0006183D01*
X0044055Y0006293D01*
X0043972Y0006407D01*
X0043893Y0006522D01*
X0043816Y0006640D01*
X0043743Y0006760D01*
X0043674Y0006881D01*
X0043608Y0007005D01*
X0043545Y0007131D01*
X0043486Y0007258D01*
X0043431Y0007387D01*
X0043379Y0007517D01*
X0043331Y0007649D01*
X0043286Y0007782D01*
X0043245Y0007916D01*
X0043208Y0008051D01*
X0043175Y0008187D01*
X0043146Y0008325D01*
X0043121Y0008462D01*
X0043099Y0008601D01*
X0043081Y0008740D01*
X0043068Y0008880D01*
X0043058Y0009020D01*
X0043052Y0009160D01*
X0043050Y0009300D01*
X0043050Y0018050D01*
X0053050Y0018050D02*
X0053050Y0013050D01*
X0053052Y0012910D01*
X0053058Y0012770D01*
X0053068Y0012630D01*
X0053081Y0012490D01*
X0053099Y0012351D01*
X0053121Y0012212D01*
X0053146Y0012075D01*
X0053175Y0011937D01*
X0053208Y0011801D01*
X0053245Y0011666D01*
X0053286Y0011532D01*
X0053331Y0011399D01*
X0053379Y0011267D01*
X0053431Y0011137D01*
X0053486Y0011008D01*
X0053545Y0010881D01*
X0053608Y0010755D01*
X0053674Y0010631D01*
X0053743Y0010510D01*
X0053816Y0010390D01*
X0053893Y0010272D01*
X0053972Y0010157D01*
X0054055Y0010043D01*
X0054141Y0009933D01*
X0054230Y0009824D01*
X0054322Y0009718D01*
X0054417Y0009615D01*
X0054514Y0009514D01*
X0054615Y0009417D01*
X0054718Y0009322D01*
X0054824Y0009230D01*
X0054933Y0009141D01*
X0055043Y0009055D01*
X0055157Y0008972D01*
X0055272Y0008893D01*
X0055390Y0008816D01*
X0055510Y0008743D01*
X0055631Y0008674D01*
X0055755Y0008608D01*
X0055881Y0008545D01*
X0056008Y0008486D01*
X0056137Y0008431D01*
X0056267Y0008379D01*
X0056399Y0008331D01*
X0056532Y0008286D01*
X0056666Y0008245D01*
X0056801Y0008208D01*
X0056937Y0008175D01*
X0057075Y0008146D01*
X0057212Y0008121D01*
X0057351Y0008099D01*
X0057490Y0008081D01*
X0057630Y0008068D01*
X0057770Y0008058D01*
X0057910Y0008052D01*
X0058050Y0008050D01*
X0116800Y0008050D01*
X0111800Y0011800D02*
X0068050Y0011800D01*
X0067910Y0011802D01*
X0067770Y0011808D01*
X0067630Y0011818D01*
X0067490Y0011831D01*
X0067351Y0011849D01*
X0067212Y0011871D01*
X0067075Y0011896D01*
X0066937Y0011925D01*
X0066801Y0011958D01*
X0066666Y0011995D01*
X0066532Y0012036D01*
X0066399Y0012081D01*
X0066267Y0012129D01*
X0066137Y0012181D01*
X0066008Y0012236D01*
X0065881Y0012295D01*
X0065755Y0012358D01*
X0065631Y0012424D01*
X0065510Y0012493D01*
X0065390Y0012566D01*
X0065272Y0012643D01*
X0065157Y0012722D01*
X0065043Y0012805D01*
X0064933Y0012891D01*
X0064824Y0012980D01*
X0064718Y0013072D01*
X0064615Y0013167D01*
X0064514Y0013264D01*
X0064417Y0013365D01*
X0064322Y0013468D01*
X0064230Y0013574D01*
X0064141Y0013683D01*
X0064055Y0013793D01*
X0063972Y0013907D01*
X0063893Y0014022D01*
X0063816Y0014140D01*
X0063743Y0014260D01*
X0063674Y0014381D01*
X0063608Y0014505D01*
X0063545Y0014631D01*
X0063486Y0014758D01*
X0063431Y0014887D01*
X0063379Y0015017D01*
X0063331Y0015149D01*
X0063286Y0015282D01*
X0063245Y0015416D01*
X0063208Y0015551D01*
X0063175Y0015687D01*
X0063146Y0015825D01*
X0063121Y0015962D01*
X0063099Y0016101D01*
X0063081Y0016240D01*
X0063068Y0016380D01*
X0063058Y0016520D01*
X0063052Y0016660D01*
X0063050Y0016800D01*
X0063050Y0018050D01*
X0096800Y0033237D02*
X0096800Y0034300D01*
X0096800Y0036800D02*
X0096800Y0040550D01*
X0116800Y0021800D02*
X0116800Y0016800D01*
X0121800Y0013050D02*
X0121798Y0012910D01*
X0121792Y0012770D01*
X0121782Y0012630D01*
X0121769Y0012490D01*
X0121751Y0012351D01*
X0121729Y0012212D01*
X0121704Y0012075D01*
X0121675Y0011937D01*
X0121642Y0011801D01*
X0121605Y0011666D01*
X0121564Y0011532D01*
X0121519Y0011399D01*
X0121471Y0011267D01*
X0121419Y0011137D01*
X0121364Y0011008D01*
X0121305Y0010881D01*
X0121242Y0010755D01*
X0121176Y0010631D01*
X0121107Y0010510D01*
X0121034Y0010390D01*
X0120957Y0010272D01*
X0120878Y0010157D01*
X0120795Y0010043D01*
X0120709Y0009933D01*
X0120620Y0009824D01*
X0120528Y0009718D01*
X0120433Y0009615D01*
X0120336Y0009514D01*
X0120235Y0009417D01*
X0120132Y0009322D01*
X0120026Y0009230D01*
X0119917Y0009141D01*
X0119807Y0009055D01*
X0119693Y0008972D01*
X0119578Y0008893D01*
X0119460Y0008816D01*
X0119340Y0008743D01*
X0119219Y0008674D01*
X0119095Y0008608D01*
X0118969Y0008545D01*
X0118842Y0008486D01*
X0118713Y0008431D01*
X0118583Y0008379D01*
X0118451Y0008331D01*
X0118318Y0008286D01*
X0118184Y0008245D01*
X0118049Y0008208D01*
X0117913Y0008175D01*
X0117775Y0008146D01*
X0117638Y0008121D01*
X0117499Y0008099D01*
X0117360Y0008081D01*
X0117220Y0008068D01*
X0117080Y0008058D01*
X0116940Y0008052D01*
X0116800Y0008050D01*
X0121800Y0013050D02*
X0121800Y0021800D01*
X0116800Y0016800D02*
X0116798Y0016660D01*
X0116792Y0016520D01*
X0116782Y0016380D01*
X0116769Y0016240D01*
X0116751Y0016101D01*
X0116729Y0015962D01*
X0116704Y0015825D01*
X0116675Y0015687D01*
X0116642Y0015551D01*
X0116605Y0015416D01*
X0116564Y0015282D01*
X0116519Y0015149D01*
X0116471Y0015017D01*
X0116419Y0014887D01*
X0116364Y0014758D01*
X0116305Y0014631D01*
X0116242Y0014505D01*
X0116176Y0014381D01*
X0116107Y0014260D01*
X0116034Y0014140D01*
X0115957Y0014022D01*
X0115878Y0013907D01*
X0115795Y0013793D01*
X0115709Y0013683D01*
X0115620Y0013574D01*
X0115528Y0013468D01*
X0115433Y0013365D01*
X0115336Y0013264D01*
X0115235Y0013167D01*
X0115132Y0013072D01*
X0115026Y0012980D01*
X0114917Y0012891D01*
X0114807Y0012805D01*
X0114693Y0012722D01*
X0114578Y0012643D01*
X0114460Y0012566D01*
X0114340Y0012493D01*
X0114219Y0012424D01*
X0114095Y0012358D01*
X0113969Y0012295D01*
X0113842Y0012236D01*
X0113713Y0012181D01*
X0113583Y0012129D01*
X0113451Y0012081D01*
X0113318Y0012036D01*
X0113184Y0011995D01*
X0113049Y0011958D01*
X0112913Y0011925D01*
X0112775Y0011896D01*
X0112638Y0011871D01*
X0112499Y0011849D01*
X0112360Y0011831D01*
X0112220Y0011818D01*
X0112080Y0011808D01*
X0111940Y0011802D01*
X0111800Y0011800D01*
X0134300Y0004300D02*
X0291800Y0004300D01*
X0291898Y0004302D01*
X0291996Y0004308D01*
X0292094Y0004317D01*
X0292191Y0004331D01*
X0292288Y0004348D01*
X0292384Y0004369D01*
X0292479Y0004394D01*
X0292573Y0004422D01*
X0292665Y0004455D01*
X0292757Y0004490D01*
X0292847Y0004530D01*
X0292935Y0004572D01*
X0293022Y0004619D01*
X0293106Y0004668D01*
X0293189Y0004721D01*
X0293269Y0004777D01*
X0293348Y0004837D01*
X0293424Y0004899D01*
X0293497Y0004964D01*
X0293568Y0005032D01*
X0293636Y0005103D01*
X0293701Y0005176D01*
X0293763Y0005252D01*
X0293823Y0005331D01*
X0293879Y0005411D01*
X0293932Y0005494D01*
X0293981Y0005578D01*
X0294028Y0005665D01*
X0294070Y0005753D01*
X0294110Y0005843D01*
X0294145Y0005935D01*
X0294178Y0006027D01*
X0294206Y0006121D01*
X0294231Y0006216D01*
X0294252Y0006312D01*
X0294269Y0006409D01*
X0294283Y0006506D01*
X0294292Y0006604D01*
X0294298Y0006702D01*
X0294300Y0006800D01*
X0294300Y0008926D01*
X0294302Y0009066D01*
X0294308Y0009206D01*
X0294318Y0009346D01*
X0294331Y0009486D01*
X0294349Y0009625D01*
X0294371Y0009764D01*
X0294396Y0009901D01*
X0294425Y0010039D01*
X0294458Y0010175D01*
X0294495Y0010310D01*
X0294536Y0010444D01*
X0294581Y0010577D01*
X0294629Y0010709D01*
X0294681Y0010839D01*
X0294736Y0010968D01*
X0294795Y0011095D01*
X0294858Y0011221D01*
X0294924Y0011345D01*
X0294993Y0011466D01*
X0295066Y0011586D01*
X0295143Y0011704D01*
X0295222Y0011819D01*
X0295305Y0011933D01*
X0295391Y0012043D01*
X0295480Y0012152D01*
X0295572Y0012258D01*
X0295667Y0012361D01*
X0295764Y0012462D01*
X0295865Y0012559D01*
X0295968Y0012654D01*
X0296074Y0012746D01*
X0296183Y0012835D01*
X0296293Y0012921D01*
X0296407Y0013004D01*
X0296522Y0013083D01*
X0296640Y0013160D01*
X0296760Y0013233D01*
X0296881Y0013302D01*
X0297005Y0013368D01*
X0297131Y0013431D01*
X0297258Y0013490D01*
X0297387Y0013545D01*
X0297517Y0013597D01*
X0297649Y0013645D01*
X0297782Y0013690D01*
X0297916Y0013731D01*
X0298051Y0013768D01*
X0298187Y0013801D01*
X0298325Y0013830D01*
X0298462Y0013855D01*
X0298601Y0013877D01*
X0298740Y0013895D01*
X0298880Y0013908D01*
X0299020Y0013918D01*
X0299160Y0013924D01*
X0299300Y0013926D01*
X0309049Y0013926D01*
X0309079Y0013924D01*
X0309109Y0013919D01*
X0309138Y0013910D01*
X0309166Y0013897D01*
X0309192Y0013882D01*
X0309215Y0013863D01*
X0309237Y0013841D01*
X0309256Y0013818D01*
X0309271Y0013792D01*
X0309284Y0013764D01*
X0309293Y0013735D01*
X0309298Y0013705D01*
X0309300Y0013675D01*
X0314300Y0006800D02*
X0314300Y0024674D01*
X0314298Y0024814D01*
X0314292Y0024954D01*
X0314282Y0025094D01*
X0314269Y0025234D01*
X0314251Y0025373D01*
X0314229Y0025512D01*
X0314204Y0025649D01*
X0314175Y0025787D01*
X0314142Y0025923D01*
X0314105Y0026058D01*
X0314064Y0026192D01*
X0314019Y0026325D01*
X0313971Y0026457D01*
X0313919Y0026587D01*
X0313864Y0026716D01*
X0313805Y0026843D01*
X0313742Y0026969D01*
X0313676Y0027093D01*
X0313607Y0027214D01*
X0313534Y0027334D01*
X0313457Y0027452D01*
X0313378Y0027567D01*
X0313295Y0027681D01*
X0313209Y0027791D01*
X0313120Y0027900D01*
X0313028Y0028006D01*
X0312933Y0028109D01*
X0312836Y0028210D01*
X0312735Y0028307D01*
X0312632Y0028402D01*
X0312526Y0028494D01*
X0312417Y0028583D01*
X0312307Y0028669D01*
X0312193Y0028752D01*
X0312078Y0028831D01*
X0311960Y0028908D01*
X0311840Y0028981D01*
X0311719Y0029050D01*
X0311595Y0029116D01*
X0311469Y0029179D01*
X0311342Y0029238D01*
X0311213Y0029293D01*
X0311083Y0029345D01*
X0310951Y0029393D01*
X0310818Y0029438D01*
X0310684Y0029479D01*
X0310549Y0029516D01*
X0310413Y0029549D01*
X0310275Y0029578D01*
X0310138Y0029603D01*
X0309999Y0029625D01*
X0309860Y0029643D01*
X0309720Y0029656D01*
X0309580Y0029666D01*
X0309440Y0029672D01*
X0309300Y0029674D01*
X0306800Y0075550D02*
X0304300Y0075560D01*
X0306800Y0075550D02*
X0311800Y0075550D01*
X0311800Y0138050D02*
X0313050Y0138040D01*
X0304300Y0138040D01*
X0181800Y0136790D02*
X0180550Y0136800D01*
X0174300Y0136800D01*
X0138050Y0101800D02*
X0123050Y0101800D01*
X0174300Y0075550D02*
X0180550Y0075550D01*
X0182425Y0075560D01*
X0141800Y0066800D02*
X0119300Y0066800D01*
X0146800Y0034300D02*
X0146940Y0034302D01*
X0147080Y0034308D01*
X0147220Y0034318D01*
X0147360Y0034331D01*
X0147499Y0034349D01*
X0147638Y0034371D01*
X0147775Y0034396D01*
X0147913Y0034425D01*
X0148049Y0034458D01*
X0148184Y0034495D01*
X0148318Y0034536D01*
X0148451Y0034581D01*
X0148583Y0034629D01*
X0148713Y0034681D01*
X0148842Y0034736D01*
X0148969Y0034795D01*
X0149095Y0034858D01*
X0149219Y0034924D01*
X0149340Y0034993D01*
X0149460Y0035066D01*
X0149578Y0035143D01*
X0149693Y0035222D01*
X0149807Y0035305D01*
X0149917Y0035391D01*
X0150026Y0035480D01*
X0150132Y0035572D01*
X0150235Y0035667D01*
X0150336Y0035764D01*
X0150433Y0035865D01*
X0150528Y0035968D01*
X0150620Y0036074D01*
X0150709Y0036183D01*
X0150795Y0036293D01*
X0150878Y0036407D01*
X0150957Y0036522D01*
X0151034Y0036640D01*
X0151107Y0036760D01*
X0151176Y0036881D01*
X0151242Y0037005D01*
X0151305Y0037131D01*
X0151364Y0037258D01*
X0151419Y0037387D01*
X0151471Y0037517D01*
X0151519Y0037649D01*
X0151564Y0037782D01*
X0151605Y0037916D01*
X0151642Y0038051D01*
X0151675Y0038187D01*
X0151704Y0038325D01*
X0151729Y0038462D01*
X0151751Y0038601D01*
X0151769Y0038740D01*
X0151782Y0038880D01*
X0151792Y0039020D01*
X0151798Y0039160D01*
X0151800Y0039300D01*
X0054925Y0111175D02*
X0054925Y0134925D01*
X0016800Y0149300D02*
X0014300Y0149300D01*
X0014144Y0149329D01*
X0013987Y0149355D01*
X0013829Y0149376D01*
X0013672Y0149394D01*
X0013513Y0149407D01*
X0013355Y0149417D01*
X0013196Y0149422D01*
X0013037Y0149424D01*
X0012878Y0149422D01*
X0012719Y0149415D01*
X0012561Y0149405D01*
X0012402Y0149391D01*
X0012244Y0149373D01*
X0012087Y0149351D01*
X0011930Y0149325D01*
X0011774Y0149295D01*
X0011619Y0149261D01*
X0011464Y0149224D01*
X0011311Y0149182D01*
X0011159Y0149137D01*
X0011007Y0149088D01*
X0010858Y0149035D01*
X0010709Y0148979D01*
X0010562Y0148918D01*
X0010416Y0148854D01*
X0010273Y0148787D01*
X0010130Y0148716D01*
X0009990Y0148641D01*
X0009852Y0148563D01*
X0009715Y0148482D01*
X0009581Y0148397D01*
X0009449Y0148309D01*
X0009319Y0148218D01*
X0009191Y0148123D01*
X0009066Y0148025D01*
X0008943Y0147924D01*
X0008823Y0147820D01*
X0008705Y0147713D01*
X0008590Y0147604D01*
X0008478Y0147491D01*
X0008369Y0147376D01*
X0008262Y0147258D01*
X0008159Y0147137D01*
X0008058Y0147014D01*
X0007961Y0146888D01*
X0007867Y0146760D01*
X0007776Y0146630D01*
X0007689Y0146497D01*
X0007604Y0146362D01*
X0007523Y0146226D01*
X0007446Y0146087D01*
X0007372Y0145946D01*
X0007302Y0145804D01*
X0007235Y0145660D01*
X0007171Y0145514D01*
X0007112Y0145366D01*
X0007056Y0145218D01*
X0007004Y0145068D01*
X0006955Y0144916D01*
X0006911Y0144764D01*
X0006870Y0144610D01*
X0006833Y0144455D01*
X0006800Y0144300D01*
X0011800Y0119300D02*
X0016800Y0119300D01*
X0011800Y0119300D02*
X0011660Y0119298D01*
X0011520Y0119292D01*
X0011380Y0119282D01*
X0011240Y0119269D01*
X0011101Y0119251D01*
X0010962Y0119229D01*
X0010825Y0119204D01*
X0010687Y0119175D01*
X0010551Y0119142D01*
X0010416Y0119105D01*
X0010282Y0119064D01*
X0010149Y0119019D01*
X0010017Y0118971D01*
X0009887Y0118919D01*
X0009758Y0118864D01*
X0009631Y0118805D01*
X0009505Y0118742D01*
X0009381Y0118676D01*
X0009260Y0118607D01*
X0009140Y0118534D01*
X0009022Y0118457D01*
X0008907Y0118378D01*
X0008793Y0118295D01*
X0008683Y0118209D01*
X0008574Y0118120D01*
X0008468Y0118028D01*
X0008365Y0117933D01*
X0008264Y0117836D01*
X0008167Y0117735D01*
X0008072Y0117632D01*
X0007980Y0117526D01*
X0007891Y0117417D01*
X0007805Y0117307D01*
X0007722Y0117193D01*
X0007643Y0117078D01*
X0007566Y0116960D01*
X0007493Y0116840D01*
X0007424Y0116719D01*
X0007358Y0116595D01*
X0007295Y0116469D01*
X0007236Y0116342D01*
X0007181Y0116213D01*
X0007129Y0116083D01*
X0007081Y0115951D01*
X0007036Y0115818D01*
X0006995Y0115684D01*
X0006958Y0115549D01*
X0006925Y0115413D01*
X0006896Y0115275D01*
X0006871Y0115138D01*
X0006849Y0114999D01*
X0006831Y0114860D01*
X0006818Y0114720D01*
X0006808Y0114580D01*
X0006802Y0114440D01*
X0006800Y0114300D01*
X0011800Y0094300D02*
X0016800Y0094300D01*
X0011800Y0094300D02*
X0011660Y0094298D01*
X0011520Y0094292D01*
X0011380Y0094282D01*
X0011240Y0094269D01*
X0011101Y0094251D01*
X0010962Y0094229D01*
X0010825Y0094204D01*
X0010687Y0094175D01*
X0010551Y0094142D01*
X0010416Y0094105D01*
X0010282Y0094064D01*
X0010149Y0094019D01*
X0010017Y0093971D01*
X0009887Y0093919D01*
X0009758Y0093864D01*
X0009631Y0093805D01*
X0009505Y0093742D01*
X0009381Y0093676D01*
X0009260Y0093607D01*
X0009140Y0093534D01*
X0009022Y0093457D01*
X0008907Y0093378D01*
X0008793Y0093295D01*
X0008683Y0093209D01*
X0008574Y0093120D01*
X0008468Y0093028D01*
X0008365Y0092933D01*
X0008264Y0092836D01*
X0008167Y0092735D01*
X0008072Y0092632D01*
X0007980Y0092526D01*
X0007891Y0092417D01*
X0007805Y0092307D01*
X0007722Y0092193D01*
X0007643Y0092078D01*
X0007566Y0091960D01*
X0007493Y0091840D01*
X0007424Y0091719D01*
X0007358Y0091595D01*
X0007295Y0091469D01*
X0007236Y0091342D01*
X0007181Y0091213D01*
X0007129Y0091083D01*
X0007081Y0090951D01*
X0007036Y0090818D01*
X0006995Y0090684D01*
X0006958Y0090549D01*
X0006925Y0090413D01*
X0006896Y0090275D01*
X0006871Y0090138D01*
X0006849Y0089999D01*
X0006831Y0089860D01*
X0006818Y0089720D01*
X0006808Y0089580D01*
X0006802Y0089440D01*
X0006800Y0089300D01*
X0020550Y0021800D02*
X0020550Y0018050D01*
X0020550Y0021800D02*
X0020552Y0021940D01*
X0020558Y0022080D01*
X0020568Y0022220D01*
X0020581Y0022360D01*
X0020599Y0022499D01*
X0020621Y0022638D01*
X0020646Y0022775D01*
X0020675Y0022913D01*
X0020708Y0023049D01*
X0020745Y0023184D01*
X0020786Y0023318D01*
X0020831Y0023451D01*
X0020879Y0023583D01*
X0020931Y0023713D01*
X0020986Y0023842D01*
X0021045Y0023969D01*
X0021108Y0024095D01*
X0021174Y0024219D01*
X0021243Y0024340D01*
X0021316Y0024460D01*
X0021393Y0024578D01*
X0021472Y0024693D01*
X0021555Y0024807D01*
X0021641Y0024917D01*
X0021730Y0025026D01*
X0021822Y0025132D01*
X0021917Y0025235D01*
X0022014Y0025336D01*
X0022115Y0025433D01*
X0022218Y0025528D01*
X0022324Y0025620D01*
X0022433Y0025709D01*
X0022543Y0025795D01*
X0022657Y0025878D01*
X0022772Y0025957D01*
X0022890Y0026034D01*
X0023010Y0026107D01*
X0023131Y0026176D01*
X0023255Y0026242D01*
X0023381Y0026305D01*
X0023508Y0026364D01*
X0023637Y0026419D01*
X0023767Y0026471D01*
X0023899Y0026519D01*
X0024032Y0026564D01*
X0024166Y0026605D01*
X0024301Y0026642D01*
X0024437Y0026675D01*
X0024575Y0026704D01*
X0024712Y0026729D01*
X0024851Y0026751D01*
X0024990Y0026769D01*
X0025130Y0026782D01*
X0025270Y0026792D01*
X0025410Y0026798D01*
X0025550Y0026800D01*
X0006800Y0169300D02*
X0006802Y0169440D01*
X0006808Y0169580D01*
X0006818Y0169720D01*
X0006831Y0169860D01*
X0006849Y0169999D01*
X0006871Y0170138D01*
X0006896Y0170275D01*
X0006925Y0170413D01*
X0006958Y0170549D01*
X0006995Y0170684D01*
X0007036Y0170818D01*
X0007081Y0170951D01*
X0007129Y0171083D01*
X0007181Y0171213D01*
X0007236Y0171342D01*
X0007295Y0171469D01*
X0007358Y0171595D01*
X0007424Y0171719D01*
X0007493Y0171840D01*
X0007566Y0171960D01*
X0007643Y0172078D01*
X0007722Y0172193D01*
X0007805Y0172307D01*
X0007891Y0172417D01*
X0007980Y0172526D01*
X0008072Y0172632D01*
X0008167Y0172735D01*
X0008264Y0172836D01*
X0008365Y0172933D01*
X0008468Y0173028D01*
X0008574Y0173120D01*
X0008683Y0173209D01*
X0008793Y0173295D01*
X0008907Y0173378D01*
X0009022Y0173457D01*
X0009140Y0173534D01*
X0009260Y0173607D01*
X0009381Y0173676D01*
X0009505Y0173742D01*
X0009631Y0173805D01*
X0009758Y0173864D01*
X0009887Y0173919D01*
X0010017Y0173971D01*
X0010149Y0174019D01*
X0010282Y0174064D01*
X0010416Y0174105D01*
X0010551Y0174142D01*
X0010687Y0174175D01*
X0010825Y0174204D01*
X0010962Y0174229D01*
X0011101Y0174251D01*
X0011240Y0174269D01*
X0011380Y0174282D01*
X0011520Y0174292D01*
X0011660Y0174298D01*
X0011800Y0174300D01*
X0016800Y0174300D01*
X0051800Y0179300D02*
X0051800Y0191800D01*
D24*
X0041712Y0003900D02*
X0003900Y0003900D01*
X0003900Y0039300D01*
X0073926Y0039300D01*
X0075158Y0039397D01*
X0076359Y0039685D01*
X0077501Y0040158D01*
X0078554Y0040804D01*
X0079494Y0041606D01*
X0080296Y0042546D01*
X0080942Y0043599D01*
X0081415Y0044741D01*
X0081703Y0045942D01*
X0081800Y0047174D01*
X0081800Y0081693D01*
X0082099Y0081520D01*
X0082557Y0081398D01*
X0085267Y0081398D01*
X0085267Y0085080D01*
X0085833Y0085080D01*
X0085833Y0085646D01*
X0090106Y0085646D01*
X0090106Y0087765D01*
X0089983Y0088223D01*
X0089746Y0088634D01*
X0089411Y0088969D01*
X0089260Y0089056D01*
X0090406Y0090202D01*
X0090406Y0090775D01*
X0091072Y0090775D01*
X0091545Y0090741D01*
X0091646Y0090775D01*
X0091752Y0090775D01*
X0092190Y0090956D01*
X0092200Y0090960D01*
X0092200Y0068390D01*
X0092115Y0067822D01*
X0092200Y0067484D01*
X0092200Y0067135D01*
X0092347Y0066780D01*
X0092340Y0066676D01*
X0092275Y0066515D01*
X0092179Y0066400D01*
X0091530Y0066400D01*
X0088637Y0065460D01*
X0086177Y0063673D01*
X0084390Y0061213D01*
X0083450Y0058320D01*
X0083450Y0050009D01*
X0083388Y0049813D01*
X0083450Y0049100D01*
X0083450Y0047364D01*
X0083048Y0045089D01*
X0081962Y0042764D01*
X0080312Y0040800D01*
X0078209Y0039329D01*
X0075797Y0038453D01*
X0074639Y0038275D01*
X0020763Y0038275D01*
X0020691Y0038302D01*
X0019851Y0038275D01*
X0019010Y0038275D01*
X0018939Y0038246D01*
X0017896Y0038212D01*
X0014294Y0037121D01*
X0011098Y0035135D01*
X0011097Y0035135D01*
X0008524Y0032390D01*
X0006748Y0029072D01*
X0006748Y0029072D01*
X0005892Y0025407D01*
X0005950Y0023601D01*
X0005950Y0023272D01*
X0005450Y0022064D01*
X0005450Y0014036D01*
X0006226Y0012161D01*
X0007661Y0010726D01*
X0009536Y0009950D01*
X0011564Y0009950D01*
X0013439Y0010726D01*
X0014874Y0012161D01*
X0015550Y0013794D01*
X0016226Y0012161D01*
X0017661Y0010726D01*
X0019536Y0009950D01*
X0021564Y0009950D01*
X0023439Y0010726D01*
X0024874Y0012161D01*
X0025650Y0014036D01*
X0025650Y0022064D01*
X0025091Y0023415D01*
X0025218Y0023467D01*
X0025550Y0023500D01*
X0026411Y0023500D01*
X0026102Y0022893D01*
X0025868Y0022174D01*
X0025750Y0021428D01*
X0025750Y0018250D01*
X0030350Y0018250D01*
X0030350Y0017850D01*
X0030750Y0017850D01*
X0030750Y0018250D01*
X0035350Y0018250D01*
X0035350Y0021428D01*
X0035232Y0022174D01*
X0034998Y0022893D01*
X0034689Y0023500D01*
X0038545Y0023500D01*
X0037950Y0022064D01*
X0037950Y0014036D01*
X0038726Y0012161D01*
X0039750Y0011137D01*
X0039750Y0007649D01*
X0041014Y0004598D01*
X0041712Y0003900D01*
X0041014Y0004598D02*
X0041014Y0004598D01*
X0040848Y0004997D02*
X0003900Y0004997D01*
X0003900Y0006596D02*
X0040186Y0006596D01*
X0039750Y0008194D02*
X0003900Y0008194D01*
X0003900Y0009793D02*
X0039750Y0009793D01*
X0039496Y0011391D02*
X0033679Y0011391D01*
X0033677Y0011389D02*
X0034211Y0011923D01*
X0034655Y0012534D01*
X0034998Y0013207D01*
X0035232Y0013926D01*
X0035350Y0014672D01*
X0035350Y0017850D01*
X0030750Y0017850D01*
X0030750Y0010250D01*
X0030928Y0010250D01*
X0031674Y0010368D01*
X0032393Y0010602D01*
X0033066Y0010945D01*
X0033677Y0011389D01*
X0034887Y0012990D02*
X0038383Y0012990D01*
X0037950Y0014588D02*
X0035337Y0014588D01*
X0035350Y0016187D02*
X0037950Y0016187D01*
X0037950Y0017785D02*
X0035350Y0017785D01*
X0035350Y0019384D02*
X0037950Y0019384D01*
X0037950Y0020982D02*
X0035350Y0020982D01*
X0035100Y0022581D02*
X0038164Y0022581D01*
X0030750Y0017785D02*
X0030350Y0017785D01*
X0030350Y0017850D02*
X0030350Y0010250D01*
X0030172Y0010250D01*
X0029426Y0010368D01*
X0028707Y0010602D01*
X0028034Y0010945D01*
X0027423Y0011389D01*
X0026889Y0011923D01*
X0026445Y0012534D01*
X0026102Y0013207D01*
X0025868Y0013926D01*
X0025750Y0014672D01*
X0025750Y0017850D01*
X0030350Y0017850D01*
X0030350Y0016187D02*
X0030750Y0016187D01*
X0030750Y0014588D02*
X0030350Y0014588D01*
X0030350Y0012990D02*
X0030750Y0012990D01*
X0030750Y0011391D02*
X0030350Y0011391D01*
X0027421Y0011391D02*
X0024104Y0011391D01*
X0025217Y0012990D02*
X0026213Y0012990D01*
X0025763Y0014588D02*
X0025650Y0014588D01*
X0025650Y0016187D02*
X0025750Y0016187D01*
X0025750Y0017785D02*
X0025650Y0017785D01*
X0025650Y0019384D02*
X0025750Y0019384D01*
X0025750Y0020982D02*
X0025650Y0020982D01*
X0025436Y0022581D02*
X0026000Y0022581D01*
X0015883Y0012990D02*
X0015217Y0012990D01*
X0014104Y0011391D02*
X0016996Y0011391D01*
X0006996Y0011391D02*
X0003900Y0011391D01*
X0003900Y0012990D02*
X0005883Y0012990D01*
X0005450Y0014588D02*
X0003900Y0014588D01*
X0003900Y0016187D02*
X0005450Y0016187D01*
X0005450Y0017785D02*
X0003900Y0017785D01*
X0003900Y0019384D02*
X0005450Y0019384D01*
X0005450Y0020982D02*
X0003900Y0020982D01*
X0003900Y0022581D02*
X0005664Y0022581D01*
X0005931Y0024179D02*
X0003900Y0024179D01*
X0003900Y0025778D02*
X0005978Y0025778D01*
X0005892Y0025407D02*
X0005892Y0025407D01*
X0006352Y0027376D02*
X0003900Y0027376D01*
X0003900Y0028975D02*
X0006725Y0028975D01*
X0007551Y0030573D02*
X0003900Y0030573D01*
X0003900Y0032172D02*
X0008407Y0032172D01*
X0008524Y0032390D02*
X0008524Y0032390D01*
X0009818Y0033770D02*
X0003900Y0033770D01*
X0003900Y0035369D02*
X0011473Y0035369D01*
X0014046Y0036967D02*
X0003900Y0036967D01*
X0003900Y0038566D02*
X0076109Y0038566D01*
X0077511Y0040164D02*
X0079403Y0040164D01*
X0079627Y0041763D02*
X0081121Y0041763D01*
X0080796Y0043361D02*
X0082241Y0043361D01*
X0082987Y0044960D02*
X0081467Y0044960D01*
X0081752Y0046558D02*
X0083308Y0046558D01*
X0083450Y0048157D02*
X0081800Y0048157D01*
X0081800Y0049755D02*
X0083393Y0049755D01*
X0083450Y0051354D02*
X0081800Y0051354D01*
X0081800Y0052952D02*
X0083450Y0052952D01*
X0083450Y0054551D02*
X0081800Y0054551D01*
X0081800Y0056149D02*
X0083450Y0056149D01*
X0083450Y0057748D02*
X0081800Y0057748D01*
X0081800Y0059346D02*
X0083783Y0059346D01*
X0084303Y0060945D02*
X0081800Y0060945D01*
X0081800Y0062543D02*
X0085357Y0062543D01*
X0086177Y0063673D02*
X0086177Y0063673D01*
X0086823Y0064142D02*
X0081800Y0064142D01*
X0081800Y0065740D02*
X0089500Y0065740D01*
X0088637Y0065460D02*
X0088637Y0065460D01*
X0092200Y0067339D02*
X0081800Y0067339D01*
X0081800Y0068937D02*
X0092200Y0068937D01*
X0092200Y0070536D02*
X0081800Y0070536D01*
X0081800Y0072134D02*
X0092200Y0072134D01*
X0092200Y0073733D02*
X0081800Y0073733D01*
X0081800Y0075332D02*
X0092200Y0075332D01*
X0092200Y0076930D02*
X0081800Y0076930D01*
X0081800Y0078529D02*
X0092200Y0078529D01*
X0092200Y0080127D02*
X0081800Y0080127D01*
X0085267Y0081726D02*
X0085833Y0081726D01*
X0085833Y0081398D02*
X0088543Y0081398D01*
X0089001Y0081520D01*
X0089411Y0081757D01*
X0089746Y0082092D01*
X0089983Y0082503D01*
X0090106Y0082961D01*
X0090106Y0085080D01*
X0085833Y0085080D01*
X0085833Y0081398D01*
X0085833Y0083324D02*
X0085267Y0083324D01*
X0085550Y0085363D02*
X0085634Y0085361D01*
X0085718Y0085355D01*
X0085802Y0085346D01*
X0085885Y0085333D01*
X0085967Y0085316D01*
X0086049Y0085295D01*
X0086129Y0085271D01*
X0086209Y0085243D01*
X0086287Y0085212D01*
X0086364Y0085177D01*
X0086439Y0085139D01*
X0086512Y0085098D01*
X0086583Y0085053D01*
X0086652Y0085005D01*
X0086719Y0084954D01*
X0086784Y0084900D01*
X0086846Y0084843D01*
X0086905Y0084784D01*
X0086962Y0084722D01*
X0087016Y0084657D01*
X0087067Y0084590D01*
X0087115Y0084521D01*
X0087160Y0084450D01*
X0087201Y0084377D01*
X0087239Y0084302D01*
X0087274Y0084225D01*
X0087305Y0084147D01*
X0087333Y0084067D01*
X0087357Y0083987D01*
X0087378Y0083905D01*
X0087395Y0083823D01*
X0087408Y0083740D01*
X0087417Y0083656D01*
X0087423Y0083572D01*
X0087425Y0083488D01*
X0091800Y0083050D01*
X0092200Y0083324D02*
X0090106Y0083324D01*
X0090106Y0084923D02*
X0092200Y0084923D01*
X0092200Y0086521D02*
X0090106Y0086521D01*
X0090011Y0088120D02*
X0092200Y0088120D01*
X0092200Y0089718D02*
X0089922Y0089718D01*
X0091175Y0093675D02*
X0085988Y0093675D01*
X0085948Y0093673D01*
X0085908Y0093668D01*
X0085868Y0093658D01*
X0085830Y0093645D01*
X0085793Y0093629D01*
X0085757Y0093609D01*
X0085724Y0093587D01*
X0085693Y0093561D01*
X0085664Y0093532D01*
X0085638Y0093501D01*
X0085616Y0093468D01*
X0085596Y0093432D01*
X0085580Y0093395D01*
X0085567Y0093357D01*
X0085557Y0093317D01*
X0085552Y0093277D01*
X0085550Y0093237D01*
X0087919Y0097502D02*
X0081924Y0097502D01*
X0081800Y0097378D01*
X0081800Y0174700D01*
X0137670Y0174700D01*
X0138900Y0175930D01*
X0138900Y0192200D01*
X0161571Y0192200D01*
X0162266Y0190523D01*
X0163771Y0189018D01*
X0164056Y0188900D01*
X0159878Y0188900D01*
X0156165Y0187905D01*
X0156165Y0187905D01*
X0152835Y0185983D01*
X0150117Y0183265D01*
X0150117Y0183265D01*
X0148195Y0179935D01*
X0147200Y0176222D01*
X0147200Y0171800D01*
X0147154Y0171095D01*
X0146789Y0169734D01*
X0146084Y0168513D01*
X0145087Y0167516D01*
X0143866Y0166811D01*
X0142505Y0166446D01*
X0141800Y0166400D01*
X0107127Y0166400D01*
X0105343Y0166655D01*
X0101149Y0165925D01*
X0097386Y0163935D01*
X0094422Y0160880D01*
X0094422Y0160880D01*
X0092547Y0157058D01*
X0092547Y0157058D01*
X0092328Y0155525D01*
X0092200Y0155215D01*
X0092200Y0154627D01*
X0092117Y0154045D01*
X0092200Y0153720D01*
X0092200Y0098806D01*
X0089149Y0098806D01*
X0087919Y0097576D01*
X0087919Y0097502D01*
X0088054Y0097711D02*
X0081800Y0097711D01*
X0081800Y0099309D02*
X0092200Y0099309D01*
X0095550Y0098050D02*
X0095548Y0097938D01*
X0095542Y0097827D01*
X0095532Y0097716D01*
X0095518Y0097605D01*
X0095500Y0097495D01*
X0095479Y0097386D01*
X0095453Y0097277D01*
X0095423Y0097170D01*
X0095390Y0097063D01*
X0095353Y0096958D01*
X0095312Y0096854D01*
X0095268Y0096752D01*
X0095219Y0096651D01*
X0095168Y0096552D01*
X0095113Y0096455D01*
X0095054Y0096360D01*
X0094992Y0096268D01*
X0094927Y0096177D01*
X0094858Y0096089D01*
X0094787Y0096004D01*
X0094712Y0095921D01*
X0094635Y0095840D01*
X0094554Y0095763D01*
X0094471Y0095688D01*
X0094386Y0095617D01*
X0094298Y0095548D01*
X0094207Y0095483D01*
X0094115Y0095421D01*
X0094020Y0095362D01*
X0093923Y0095307D01*
X0093824Y0095256D01*
X0093723Y0095207D01*
X0093621Y0095163D01*
X0093517Y0095122D01*
X0093412Y0095085D01*
X0093305Y0095052D01*
X0093198Y0095022D01*
X0093089Y0094996D01*
X0092980Y0094975D01*
X0092870Y0094957D01*
X0092759Y0094943D01*
X0092648Y0094933D01*
X0092537Y0094927D01*
X0092425Y0094925D01*
X0091800Y0094925D01*
X0091799Y0094924D02*
X0091817Y0094865D01*
X0091831Y0094804D01*
X0091841Y0094743D01*
X0091848Y0094682D01*
X0091850Y0094620D01*
X0091848Y0094557D01*
X0091843Y0094496D01*
X0091834Y0094434D01*
X0091821Y0094374D01*
X0091804Y0094314D01*
X0091783Y0094255D01*
X0091759Y0094198D01*
X0091731Y0094143D01*
X0091700Y0094089D01*
X0091666Y0094037D01*
X0091628Y0093988D01*
X0091587Y0093941D01*
X0091544Y0093897D01*
X0091498Y0093856D01*
X0091449Y0093817D01*
X0091398Y0093782D01*
X0091345Y0093750D01*
X0091289Y0093721D01*
X0091233Y0093696D01*
X0091174Y0093675D01*
X0095550Y0098050D02*
X0095550Y0111800D01*
X0096800Y0096800D01*
X0101400Y0096112D02*
X0145419Y0096112D01*
X0145419Y0096951D02*
X0145419Y0091649D01*
X0146649Y0090419D01*
X0151044Y0090419D01*
X0151044Y0086649D01*
X0152274Y0085419D01*
X0157576Y0085419D01*
X0157644Y0085487D01*
X0158430Y0084700D01*
X0165170Y0084700D01*
X0166400Y0085930D01*
X0166400Y0102670D01*
X0165170Y0103900D01*
X0158430Y0103900D01*
X0157825Y0103295D01*
X0157825Y0110374D01*
X0157003Y0112359D01*
X0155484Y0113878D01*
X0155484Y0113878D01*
X0155484Y0113878D01*
X0153499Y0114700D01*
X0142307Y0114700D01*
X0141326Y0115681D01*
X0136024Y0115681D01*
X0134794Y0114451D01*
X0134794Y0109700D01*
X0130432Y0109700D01*
X0129451Y0110681D01*
X0124149Y0110681D01*
X0122919Y0109451D01*
X0122919Y0105681D01*
X0120399Y0105681D01*
X0119169Y0104451D01*
X0119169Y0099149D01*
X0120399Y0097919D01*
X0125701Y0097919D01*
X0126282Y0098500D01*
X0134818Y0098500D01*
X0135399Y0097919D01*
X0140701Y0097919D01*
X0141931Y0099149D01*
X0141931Y0103900D01*
X0146400Y0103900D01*
X0146400Y0097932D01*
X0145419Y0096951D01*
X0146179Y0097711D02*
X0101400Y0097711D01*
X0101400Y0099309D02*
X0119169Y0099309D01*
X0117670Y0099700D02*
X0118900Y0100930D01*
X0118900Y0127670D01*
X0117670Y0128900D01*
X0101400Y0128900D01*
X0101400Y0153856D01*
X0101499Y0154299D01*
X0102083Y0155489D01*
X0103007Y0156441D01*
X0104179Y0157061D01*
X0105486Y0157288D01*
X0105705Y0157274D01*
X0105885Y0157200D01*
X0106473Y0157200D01*
X0107055Y0157117D01*
X0107380Y0157200D01*
X0143722Y0157200D01*
X0147435Y0158195D01*
X0147435Y0158195D01*
X0150765Y0160117D01*
X0153483Y0162835D01*
X0155405Y0166165D01*
X0156400Y0169878D01*
X0156400Y0174300D01*
X0156446Y0175005D01*
X0156811Y0176366D01*
X0157200Y0177040D01*
X0157200Y0163430D01*
X0158430Y0162200D01*
X0165170Y0162200D01*
X0166400Y0163430D01*
X0166400Y0179700D01*
X0178722Y0179700D01*
X0182435Y0180695D01*
X0182435Y0180695D01*
X0185765Y0182617D01*
X0188483Y0185335D01*
X0190405Y0188665D01*
X0190745Y0189934D01*
X0191334Y0190523D01*
X0192029Y0192200D01*
X0248705Y0192200D01*
X0251400Y0194895D01*
X0251400Y0198705D01*
X0248705Y0201400D01*
X0192029Y0201400D01*
X0191334Y0203077D01*
X0189829Y0204582D01*
X0188035Y0205325D01*
X0285565Y0205325D01*
X0283771Y0204582D01*
X0282266Y0203077D01*
X0281452Y0201112D01*
X0281452Y0192488D01*
X0282266Y0190523D01*
X0283771Y0189018D01*
X0285736Y0188204D01*
X0287864Y0188204D01*
X0289829Y0189018D01*
X0291334Y0190523D01*
X0291974Y0192069D01*
X0292122Y0191614D01*
X0292483Y0190906D01*
X0292950Y0190263D01*
X0293511Y0189702D01*
X0294154Y0189234D01*
X0294862Y0188874D01*
X0295618Y0188628D01*
X0296403Y0188504D01*
X0296517Y0188504D01*
X0296517Y0196517D01*
X0297083Y0196517D01*
X0297083Y0188504D01*
X0297197Y0188504D01*
X0297982Y0188628D01*
X0298738Y0188874D01*
X0299446Y0189234D01*
X0300089Y0189702D01*
X0300650Y0190263D01*
X0301117Y0190906D01*
X0301478Y0191614D01*
X0301626Y0192069D01*
X0302200Y0190682D01*
X0302200Y0156800D01*
X0302164Y0156346D01*
X0301884Y0155483D01*
X0301351Y0154749D01*
X0300617Y0154216D01*
X0299754Y0153936D01*
X0299300Y0153900D01*
X0257384Y0153900D01*
X0253738Y0152716D01*
X0250637Y0150463D01*
X0250637Y0150463D01*
X0250637Y0150463D01*
X0248384Y0147362D01*
X0247200Y0143716D01*
X0247200Y0123766D01*
X0247170Y0123779D01*
X0245025Y0123779D01*
X0244521Y0123570D01*
X0244017Y0123779D01*
X0242923Y0123779D01*
X0241912Y0123360D01*
X0241548Y0122995D01*
X0241183Y0123360D01*
X0240172Y0123779D01*
X0239078Y0123779D01*
X0238067Y0123360D01*
X0237523Y0122816D01*
X0236979Y0123360D01*
X0235968Y0123779D01*
X0235335Y0123779D01*
X0234958Y0124688D01*
X0234185Y0125462D01*
X0233174Y0125880D01*
X0231029Y0125880D01*
X0230018Y0125462D01*
X0229245Y0124688D01*
X0228936Y0123943D01*
X0228468Y0124411D01*
X0227458Y0124829D01*
X0226364Y0124829D01*
X0225353Y0124411D01*
X0224995Y0124053D01*
X0224995Y0124728D01*
X0224577Y0125739D01*
X0223803Y0126513D01*
X0222792Y0126931D01*
X0221698Y0126931D01*
X0220688Y0126513D01*
X0219914Y0125739D01*
X0219495Y0124728D01*
X0219495Y0123647D01*
X0219178Y0123779D01*
X0217033Y0123779D01*
X0216529Y0123570D01*
X0216025Y0123779D01*
X0214931Y0123779D01*
X0213921Y0123360D01*
X0213030Y0122470D01*
X0212913Y0122586D01*
X0212140Y0123360D01*
X0211129Y0123779D01*
X0207933Y0123779D01*
X0206923Y0123360D01*
X0206558Y0122995D01*
X0206193Y0123360D01*
X0205997Y0123441D01*
X0205915Y0123637D01*
X0205142Y0124411D01*
X0204131Y0124829D01*
X0203037Y0124829D01*
X0202026Y0124411D01*
X0201253Y0123637D01*
X0201172Y0123441D01*
X0200976Y0123360D01*
X0200726Y0123110D01*
X0200477Y0123360D01*
X0199466Y0123779D01*
X0196270Y0123779D01*
X0195259Y0123360D01*
X0194894Y0122995D01*
X0194530Y0123360D01*
X0193519Y0123779D01*
X0192425Y0123779D01*
X0191921Y0123570D01*
X0191417Y0123779D01*
X0189272Y0123779D01*
X0188261Y0123360D01*
X0187488Y0122586D01*
X0187069Y0121576D01*
X0187069Y0120482D01*
X0187488Y0119471D01*
X0188261Y0118697D01*
X0189272Y0118279D01*
X0189731Y0118279D01*
X0190222Y0117788D01*
X0190222Y0116278D01*
X0190640Y0115267D01*
X0191414Y0114494D01*
X0192425Y0114075D01*
X0193519Y0114075D01*
X0194530Y0114494D01*
X0194894Y0114859D01*
X0195259Y0114494D01*
X0196270Y0114075D01*
X0199466Y0114075D01*
X0200477Y0114494D01*
X0200726Y0114743D01*
X0200976Y0114494D01*
X0201986Y0114075D01*
X0203080Y0114075D01*
X0204091Y0114494D01*
X0205773Y0116175D01*
X0206149Y0115267D01*
X0206923Y0114494D01*
X0207933Y0114075D01*
X0211129Y0114075D01*
X0212140Y0114494D01*
X0212505Y0114859D01*
X0212870Y0114494D01*
X0213880Y0114075D01*
X0214974Y0114075D01*
X0215478Y0114284D01*
X0215982Y0114075D01*
X0217076Y0114075D01*
X0217580Y0114284D01*
X0218084Y0114075D01*
X0219178Y0114075D01*
X0219913Y0114379D01*
X0220647Y0114075D01*
X0223843Y0114075D01*
X0224578Y0114379D01*
X0225313Y0114075D01*
X0226407Y0114075D01*
X0227418Y0114494D01*
X0228193Y0115269D01*
X0228194Y0115267D01*
X0228967Y0114494D01*
X0229978Y0114075D01*
X0233174Y0114075D01*
X0234024Y0114427D01*
X0234874Y0114075D01*
X0239121Y0114075D01*
X0240132Y0114494D01*
X0240497Y0114859D01*
X0240862Y0114494D01*
X0241872Y0114075D01*
X0242966Y0114075D01*
X0243470Y0114284D01*
X0243974Y0114075D01*
X0245068Y0114075D01*
X0245572Y0114284D01*
X0246076Y0114075D01*
X0247170Y0114075D01*
X0247200Y0114087D01*
X0247200Y0113385D01*
X0247207Y0113368D01*
X0246951Y0112311D01*
X0246370Y0111365D01*
X0245524Y0110646D01*
X0244497Y0110223D01*
X0244034Y0110150D01*
X0191800Y0110150D01*
X0191095Y0110196D01*
X0189734Y0110561D01*
X0188513Y0111266D01*
X0187516Y0112263D01*
X0186811Y0113484D01*
X0186446Y0114845D01*
X0186400Y0115550D01*
X0186400Y0125231D01*
X0187050Y0125881D01*
X0187050Y0132739D01*
X0186738Y0133050D01*
X0187050Y0133361D01*
X0187050Y0140219D01*
X0185819Y0141449D01*
X0177781Y0141449D01*
X0176968Y0140637D01*
X0176205Y0141400D01*
X0172395Y0141400D01*
X0169700Y0138705D01*
X0169700Y0134895D01*
X0171857Y0132737D01*
X0171694Y0132575D01*
X0170400Y0131281D01*
X0169700Y0130580D01*
X0169700Y0081770D01*
X0171857Y0079613D01*
X0169700Y0077455D01*
X0169700Y0073645D01*
X0172395Y0070950D01*
X0176205Y0070950D01*
X0177281Y0072025D01*
X0178406Y0070901D01*
X0186444Y0070901D01*
X0187675Y0072131D01*
X0187675Y0078989D01*
X0187363Y0079300D01*
X0187675Y0079611D01*
X0187675Y0086469D01*
X0187025Y0087119D01*
X0187025Y0095550D01*
X0187071Y0096255D01*
X0187436Y0097616D01*
X0188141Y0098837D01*
X0189138Y0099834D01*
X0190359Y0100539D01*
X0191720Y0100904D01*
X0192425Y0100950D01*
X0243567Y0100950D01*
X0243740Y0100893D01*
X0244477Y0100950D01*
X0245215Y0100950D01*
X0245383Y0101020D01*
X0246666Y0101118D01*
X0250400Y0102657D01*
X0252369Y0104333D01*
X0252835Y0103867D01*
X0252835Y0103867D01*
X0256165Y0101945D01*
X0259878Y0100950D01*
X0294300Y0100950D01*
X0295005Y0100904D01*
X0296366Y0100539D01*
X0297587Y0099834D01*
X0298584Y0098837D01*
X0299289Y0097616D01*
X0299654Y0096255D01*
X0299700Y0095550D01*
X0299700Y0087119D01*
X0299050Y0086469D01*
X0299050Y0079611D01*
X0299362Y0079300D01*
X0299050Y0078989D01*
X0299050Y0072131D01*
X0300281Y0070901D01*
X0308319Y0070901D01*
X0309132Y0071713D01*
X0309895Y0070950D01*
X0313705Y0070950D01*
X0316400Y0073645D01*
X0316400Y0077455D01*
X0313705Y0080150D01*
X0309895Y0080150D01*
X0309550Y0079805D01*
X0309550Y0086469D01*
X0308900Y0087119D01*
X0308900Y0097472D01*
X0307905Y0101185D01*
X0307905Y0101185D01*
X0305983Y0104515D01*
X0304948Y0105550D01*
X0305983Y0106585D01*
X0307905Y0109915D01*
X0308900Y0113628D01*
X0308900Y0126481D01*
X0309550Y0127131D01*
X0309550Y0133795D01*
X0309895Y0133450D01*
X0313705Y0133450D01*
X0316400Y0136145D01*
X0316400Y0139955D01*
X0313705Y0142650D01*
X0309895Y0142650D01*
X0309132Y0141887D01*
X0308319Y0142699D01*
X0300281Y0142699D01*
X0299050Y0141469D01*
X0299050Y0134611D01*
X0299362Y0134300D01*
X0299050Y0133989D01*
X0299050Y0127131D01*
X0299700Y0126481D01*
X0299700Y0115550D01*
X0299654Y0114845D01*
X0299289Y0113483D01*
X0298584Y0112263D01*
X0297587Y0111266D01*
X0296366Y0110561D01*
X0295005Y0110196D01*
X0294300Y0110150D01*
X0261800Y0110150D01*
X0261095Y0110196D01*
X0259734Y0110561D01*
X0258513Y0111266D01*
X0257516Y0112263D01*
X0256811Y0113484D01*
X0256619Y0114199D01*
X0256919Y0114075D01*
X0261166Y0114075D01*
X0262177Y0114494D01*
X0262950Y0115267D01*
X0263369Y0116278D01*
X0263369Y0117372D01*
X0262950Y0118383D01*
X0262932Y0118401D01*
X0262950Y0118420D01*
X0262991Y0118519D01*
X0263571Y0118279D01*
X0264538Y0118279D01*
X0264162Y0117372D01*
X0264162Y0116278D01*
X0264581Y0115267D01*
X0265354Y0114494D01*
X0266365Y0114075D01*
X0270612Y0114075D01*
X0271623Y0114494D01*
X0272396Y0115267D01*
X0272561Y0115432D01*
X0272630Y0115267D01*
X0273403Y0114494D01*
X0274414Y0114075D01*
X0277610Y0114075D01*
X0278621Y0114494D01*
X0278870Y0114743D01*
X0279120Y0114494D01*
X0280130Y0114075D01*
X0283326Y0114075D01*
X0284337Y0114494D01*
X0284702Y0114859D01*
X0285067Y0114494D01*
X0286077Y0114075D01*
X0289273Y0114075D01*
X0290284Y0114494D01*
X0291335Y0115545D01*
X0291966Y0116175D01*
X0292342Y0115267D01*
X0293115Y0114494D01*
X0294126Y0114075D01*
X0295220Y0114075D01*
X0296231Y0114494D01*
X0297005Y0115267D01*
X0297423Y0116278D01*
X0297423Y0120422D01*
X0298333Y0120799D01*
X0299106Y0121573D01*
X0299525Y0122583D01*
X0299525Y0123677D01*
X0299106Y0124688D01*
X0298333Y0125462D01*
X0297322Y0125880D01*
X0292024Y0125880D01*
X0291014Y0125462D01*
X0290240Y0124688D01*
X0289821Y0123677D01*
X0289821Y0123551D01*
X0289273Y0123779D01*
X0286077Y0123779D01*
X0285529Y0123551D01*
X0285529Y0123677D01*
X0285110Y0124688D01*
X0284337Y0125462D01*
X0283326Y0125880D01*
X0281181Y0125880D01*
X0280170Y0125462D01*
X0279397Y0124688D01*
X0278978Y0123677D01*
X0278978Y0123002D01*
X0278621Y0123360D01*
X0277610Y0123779D01*
X0274414Y0123779D01*
X0273403Y0123360D01*
X0272513Y0122470D01*
X0271623Y0123360D01*
X0270612Y0123779D01*
X0266365Y0123779D01*
X0265817Y0123551D01*
X0265817Y0124728D01*
X0265398Y0125739D01*
X0264625Y0126513D01*
X0263614Y0126931D01*
X0262520Y0126931D01*
X0261509Y0126513D01*
X0260736Y0125739D01*
X0260317Y0124728D01*
X0260317Y0123695D01*
X0260115Y0123779D01*
X0256400Y0123779D01*
X0256400Y0141800D01*
X0256436Y0142254D01*
X0256716Y0143117D01*
X0257249Y0143851D01*
X0257983Y0144384D01*
X0258846Y0144664D01*
X0259300Y0144700D01*
X0301216Y0144700D01*
X0304862Y0145884D01*
X0307963Y0148137D01*
X0307963Y0148137D01*
X0307963Y0148137D01*
X0310216Y0151238D01*
X0311400Y0154884D01*
X0311400Y0190682D01*
X0312148Y0192488D01*
X0312148Y0201112D01*
X0311334Y0203077D01*
X0309829Y0204582D01*
X0308035Y0205325D01*
X0328450Y0205325D01*
X0328450Y0003900D01*
X0296877Y0003900D01*
X0297600Y0005646D01*
X0297600Y0008926D01*
X0297633Y0009258D01*
X0297886Y0009870D01*
X0298356Y0010339D01*
X0298968Y0010593D01*
X0299300Y0010626D01*
X0305379Y0010626D01*
X0306430Y0009575D01*
X0312170Y0009575D01*
X0313400Y0010805D01*
X0313400Y0016545D01*
X0312170Y0017775D01*
X0306430Y0017775D01*
X0305881Y0017226D01*
X0297649Y0017226D01*
X0294598Y0015962D01*
X0292264Y0013628D01*
X0292264Y0013628D01*
X0291000Y0010577D01*
X0291000Y0007600D01*
X0135100Y0007600D01*
X0135100Y0018130D01*
X0135900Y0018930D01*
X0135900Y0024670D01*
X0134670Y0025900D01*
X0128930Y0025900D01*
X0128711Y0025681D01*
X0119451Y0025681D01*
X0114149Y0025681D01*
X0112919Y0024451D01*
X0112919Y0019149D01*
X0113500Y0018568D01*
X0113500Y0016800D01*
X0113467Y0016468D01*
X0113213Y0015856D01*
X0112744Y0015386D01*
X0112132Y0015133D01*
X0111800Y0015100D01*
X0105588Y0015100D01*
X0106336Y0015848D01*
X0106336Y0015848D01*
X0107600Y0018899D01*
X0107600Y0034300D01*
X0107633Y0034632D01*
X0107886Y0035244D01*
X0108356Y0035713D01*
X0108968Y0035967D01*
X0109300Y0036000D01*
X0113568Y0036000D01*
X0114149Y0035419D01*
X0119451Y0035419D01*
X0120681Y0036649D01*
X0120681Y0041951D01*
X0119451Y0043181D01*
X0114149Y0043181D01*
X0113568Y0042600D01*
X0107649Y0042600D01*
X0104598Y0041336D01*
X0102264Y0039002D01*
X0102264Y0039002D01*
X0101133Y0036271D01*
X0100996Y0036508D01*
X0100661Y0036843D01*
X0100251Y0037080D01*
X0099793Y0037202D01*
X0097083Y0037202D01*
X0097083Y0033520D01*
X0096517Y0033520D01*
X0096517Y0037202D01*
X0093807Y0037202D01*
X0093349Y0037080D01*
X0092939Y0036843D01*
X0092650Y0036554D01*
X0092650Y0046073D01*
X0092850Y0047203D01*
X0092650Y0049500D01*
X0092650Y0056800D01*
X0092655Y0056863D01*
X0092694Y0056982D01*
X0092767Y0057083D01*
X0092868Y0057156D01*
X0092911Y0057170D01*
X0093278Y0057115D01*
X0093616Y0057200D01*
X0093965Y0057200D01*
X0094496Y0057420D01*
X0095664Y0057712D01*
X0095664Y0057712D01*
X0098284Y0059351D01*
X0100268Y0061719D01*
X0101424Y0064585D01*
X0101637Y0067667D01*
X0101400Y0068616D01*
X0101400Y0099700D01*
X0117670Y0099700D01*
X0118878Y0100908D02*
X0119169Y0100908D01*
X0119169Y0102506D02*
X0118900Y0102506D01*
X0118900Y0104105D02*
X0119169Y0104105D01*
X0118900Y0105703D02*
X0122919Y0105703D01*
X0122919Y0107302D02*
X0118900Y0107302D01*
X0118900Y0108900D02*
X0122919Y0108900D01*
X0123967Y0110499D02*
X0118900Y0110499D01*
X0118900Y0112097D02*
X0134794Y0112097D01*
X0134794Y0110499D02*
X0129633Y0110499D01*
X0134794Y0113696D02*
X0118900Y0113696D01*
X0118900Y0115294D02*
X0135637Y0115294D01*
X0138675Y0111800D02*
X0152425Y0111800D01*
X0152523Y0111798D01*
X0152621Y0111792D01*
X0152719Y0111783D01*
X0152816Y0111769D01*
X0152913Y0111752D01*
X0153009Y0111731D01*
X0153104Y0111706D01*
X0153198Y0111678D01*
X0153290Y0111645D01*
X0153382Y0111610D01*
X0153472Y0111570D01*
X0153560Y0111528D01*
X0153647Y0111481D01*
X0153731Y0111432D01*
X0153814Y0111379D01*
X0153894Y0111323D01*
X0153973Y0111263D01*
X0154049Y0111201D01*
X0154122Y0111136D01*
X0154193Y0111068D01*
X0154261Y0110997D01*
X0154326Y0110924D01*
X0154388Y0110848D01*
X0154448Y0110769D01*
X0154504Y0110689D01*
X0154557Y0110606D01*
X0154606Y0110522D01*
X0154653Y0110435D01*
X0154695Y0110347D01*
X0154735Y0110257D01*
X0154770Y0110165D01*
X0154803Y0110073D01*
X0154831Y0109979D01*
X0154856Y0109884D01*
X0154877Y0109788D01*
X0154894Y0109691D01*
X0154908Y0109594D01*
X0154917Y0109496D01*
X0154923Y0109398D01*
X0154925Y0109300D01*
X0154925Y0089300D01*
X0151044Y0089718D02*
X0101400Y0089718D01*
X0101400Y0088120D02*
X0151044Y0088120D01*
X0151172Y0086521D02*
X0101400Y0086521D01*
X0101400Y0084923D02*
X0158208Y0084923D01*
X0165392Y0084923D02*
X0169700Y0084923D01*
X0169700Y0086521D02*
X0166400Y0086521D01*
X0166400Y0088120D02*
X0169700Y0088120D01*
X0169700Y0089718D02*
X0166400Y0089718D01*
X0166400Y0091317D02*
X0169700Y0091317D01*
X0169700Y0092915D02*
X0166400Y0092915D01*
X0166400Y0094514D02*
X0169700Y0094514D01*
X0169700Y0096112D02*
X0166400Y0096112D01*
X0166400Y0097711D02*
X0169700Y0097711D01*
X0169700Y0099309D02*
X0166400Y0099309D01*
X0166400Y0100908D02*
X0169700Y0100908D01*
X0169700Y0102506D02*
X0166400Y0102506D01*
X0169700Y0104105D02*
X0157825Y0104105D01*
X0157825Y0105703D02*
X0169700Y0105703D01*
X0169700Y0107302D02*
X0157825Y0107302D01*
X0157825Y0108900D02*
X0169700Y0108900D01*
X0169700Y0110499D02*
X0157773Y0110499D01*
X0157111Y0112097D02*
X0169700Y0112097D01*
X0169700Y0113696D02*
X0155666Y0113696D01*
X0157003Y0112359D02*
X0157003Y0112359D01*
X0146800Y0106800D02*
X0126800Y0106800D01*
X0141931Y0102506D02*
X0146400Y0102506D01*
X0146400Y0100908D02*
X0141931Y0100908D01*
X0141931Y0099309D02*
X0146400Y0099309D01*
X0149300Y0104300D02*
X0149298Y0104398D01*
X0149292Y0104496D01*
X0149283Y0104594D01*
X0149269Y0104691D01*
X0149252Y0104788D01*
X0149231Y0104884D01*
X0149206Y0104979D01*
X0149178Y0105073D01*
X0149145Y0105165D01*
X0149110Y0105257D01*
X0149070Y0105347D01*
X0149028Y0105435D01*
X0148981Y0105522D01*
X0148932Y0105606D01*
X0148879Y0105689D01*
X0148823Y0105769D01*
X0148763Y0105848D01*
X0148701Y0105924D01*
X0148636Y0105997D01*
X0148568Y0106068D01*
X0148497Y0106136D01*
X0148424Y0106201D01*
X0148348Y0106263D01*
X0148269Y0106323D01*
X0148189Y0106379D01*
X0148106Y0106432D01*
X0148022Y0106481D01*
X0147935Y0106528D01*
X0147847Y0106570D01*
X0147757Y0106610D01*
X0147665Y0106645D01*
X0147573Y0106678D01*
X0147479Y0106706D01*
X0147384Y0106731D01*
X0147288Y0106752D01*
X0147191Y0106769D01*
X0147094Y0106783D01*
X0146996Y0106792D01*
X0146898Y0106798D01*
X0146800Y0106800D01*
X0149300Y0104300D02*
X0149300Y0094300D01*
X0145419Y0094514D02*
X0101400Y0094514D01*
X0101400Y0092915D02*
X0145419Y0092915D01*
X0145751Y0091317D02*
X0101400Y0091317D01*
X0101400Y0083324D02*
X0169700Y0083324D01*
X0169744Y0081726D02*
X0101400Y0081726D01*
X0101400Y0080127D02*
X0171343Y0080127D01*
X0170773Y0078529D02*
X0101400Y0078529D01*
X0101400Y0076930D02*
X0169700Y0076930D01*
X0169700Y0075332D02*
X0101400Y0075332D01*
X0101400Y0073733D02*
X0169700Y0073733D01*
X0171210Y0072134D02*
X0101400Y0072134D01*
X0101400Y0070536D02*
X0116504Y0070536D01*
X0116649Y0070681D02*
X0115419Y0069451D01*
X0115419Y0059149D01*
X0116649Y0057919D01*
X0121951Y0057919D01*
X0122932Y0058900D01*
X0138168Y0058900D01*
X0139149Y0057919D01*
X0144451Y0057919D01*
X0145681Y0059149D01*
X0145681Y0064451D01*
X0145681Y0069451D01*
X0144451Y0070681D01*
X0139149Y0070681D01*
X0138568Y0070100D01*
X0122532Y0070100D01*
X0121951Y0070681D01*
X0116649Y0070681D01*
X0115419Y0068937D02*
X0101400Y0068937D01*
X0101637Y0067667D02*
X0101637Y0067667D01*
X0101615Y0067339D02*
X0115419Y0067339D01*
X0115419Y0065740D02*
X0101504Y0065740D01*
X0101424Y0064585D02*
X0101424Y0064585D01*
X0101245Y0064142D02*
X0115419Y0064142D01*
X0115419Y0062543D02*
X0100601Y0062543D01*
X0100268Y0061719D02*
X0100268Y0061719D01*
X0099619Y0060945D02*
X0115419Y0060945D01*
X0115419Y0059346D02*
X0098276Y0059346D01*
X0098284Y0059351D02*
X0098284Y0059351D01*
X0095722Y0057748D02*
X0304200Y0057748D01*
X0304200Y0057814D02*
X0304200Y0055786D01*
X0304976Y0053911D01*
X0306411Y0052476D01*
X0308286Y0051700D01*
X0310314Y0051700D01*
X0312189Y0052476D01*
X0313624Y0053911D01*
X0314400Y0055786D01*
X0314400Y0057814D01*
X0313624Y0059689D01*
X0312189Y0061124D01*
X0310314Y0061900D01*
X0308286Y0061900D01*
X0306411Y0061124D01*
X0304976Y0059689D01*
X0304200Y0057814D01*
X0304835Y0059346D02*
X0145681Y0059346D01*
X0145681Y0060945D02*
X0306232Y0060945D01*
X0312368Y0060945D02*
X0328450Y0060945D01*
X0328450Y0062543D02*
X0145681Y0062543D01*
X0145681Y0064142D02*
X0328450Y0064142D01*
X0328450Y0065740D02*
X0145681Y0065740D01*
X0145681Y0067339D02*
X0328450Y0067339D01*
X0328450Y0068937D02*
X0145681Y0068937D01*
X0144596Y0070536D02*
X0328450Y0070536D01*
X0328450Y0072134D02*
X0314890Y0072134D01*
X0316400Y0073733D02*
X0328450Y0073733D01*
X0328450Y0075332D02*
X0316400Y0075332D01*
X0316400Y0076930D02*
X0328450Y0076930D01*
X0328450Y0078529D02*
X0315327Y0078529D01*
X0313728Y0080127D02*
X0328450Y0080127D01*
X0328450Y0081726D02*
X0309550Y0081726D01*
X0309550Y0083324D02*
X0328450Y0083324D01*
X0328450Y0084923D02*
X0325392Y0084923D01*
X0325170Y0084700D02*
X0320170Y0084700D01*
X0318430Y0084700D01*
X0317200Y0085930D01*
X0317200Y0102670D01*
X0318430Y0103900D01*
X0325170Y0103900D01*
X0326400Y0102670D01*
X0326400Y0085930D01*
X0325170Y0084700D01*
X0326400Y0086521D02*
X0328450Y0086521D01*
X0328450Y0088120D02*
X0326400Y0088120D01*
X0326400Y0089718D02*
X0328450Y0089718D01*
X0328450Y0091317D02*
X0326400Y0091317D01*
X0326400Y0092915D02*
X0328450Y0092915D01*
X0328450Y0094514D02*
X0326400Y0094514D01*
X0326400Y0096112D02*
X0328450Y0096112D01*
X0328450Y0097711D02*
X0326400Y0097711D01*
X0326400Y0099309D02*
X0328450Y0099309D01*
X0328450Y0100908D02*
X0326400Y0100908D01*
X0326400Y0102506D02*
X0328450Y0102506D01*
X0328450Y0104105D02*
X0306220Y0104105D01*
X0305983Y0104515D02*
X0305983Y0104515D01*
X0305101Y0105703D02*
X0328450Y0105703D01*
X0328450Y0107302D02*
X0306396Y0107302D01*
X0307319Y0108900D02*
X0328450Y0108900D01*
X0328450Y0110499D02*
X0308062Y0110499D01*
X0307905Y0109915D02*
X0307905Y0109915D01*
X0308490Y0112097D02*
X0328450Y0112097D01*
X0328450Y0113696D02*
X0308900Y0113696D01*
X0308900Y0115294D02*
X0328450Y0115294D01*
X0328450Y0116893D02*
X0308900Y0116893D01*
X0308900Y0118491D02*
X0328450Y0118491D01*
X0328450Y0120090D02*
X0308900Y0120090D01*
X0308900Y0121688D02*
X0328450Y0121688D01*
X0328450Y0123287D02*
X0308900Y0123287D01*
X0308900Y0124885D02*
X0328450Y0124885D01*
X0328450Y0126484D02*
X0308903Y0126484D01*
X0309550Y0128082D02*
X0328450Y0128082D01*
X0328450Y0129681D02*
X0309550Y0129681D01*
X0309550Y0131279D02*
X0328450Y0131279D01*
X0328450Y0132878D02*
X0309550Y0132878D01*
X0314732Y0134476D02*
X0328450Y0134476D01*
X0328450Y0136075D02*
X0316330Y0136075D01*
X0316400Y0137673D02*
X0328450Y0137673D01*
X0328450Y0139272D02*
X0316400Y0139272D01*
X0315485Y0140870D02*
X0328450Y0140870D01*
X0328450Y0142469D02*
X0313886Y0142469D01*
X0309714Y0142469D02*
X0308550Y0142469D01*
X0304862Y0145884D02*
X0304862Y0145884D01*
X0304190Y0145666D02*
X0328450Y0145666D01*
X0328450Y0144068D02*
X0257548Y0144068D01*
X0256506Y0142469D02*
X0300050Y0142469D01*
X0299050Y0140870D02*
X0256400Y0140870D01*
X0256400Y0139272D02*
X0299050Y0139272D01*
X0299050Y0137673D02*
X0256400Y0137673D01*
X0256400Y0136075D02*
X0299050Y0136075D01*
X0299185Y0134476D02*
X0256400Y0134476D01*
X0256400Y0132878D02*
X0299050Y0132878D01*
X0299050Y0131279D02*
X0256400Y0131279D01*
X0256400Y0129681D02*
X0299050Y0129681D01*
X0299050Y0128082D02*
X0256400Y0128082D01*
X0256400Y0126484D02*
X0261480Y0126484D01*
X0260382Y0124885D02*
X0256400Y0124885D01*
X0264653Y0126484D02*
X0299697Y0126484D01*
X0299700Y0124885D02*
X0298909Y0124885D01*
X0299525Y0123287D02*
X0299700Y0123287D01*
X0299700Y0121688D02*
X0299154Y0121688D01*
X0299700Y0120090D02*
X0297423Y0120090D01*
X0297423Y0118491D02*
X0299700Y0118491D01*
X0299700Y0116893D02*
X0297423Y0116893D01*
X0297016Y0115294D02*
X0299683Y0115294D01*
X0299346Y0113696D02*
X0256754Y0113696D01*
X0257681Y0112097D02*
X0298419Y0112097D01*
X0298584Y0112263D02*
X0298584Y0112263D01*
X0296134Y0110499D02*
X0259966Y0110499D01*
X0262961Y0115294D02*
X0264570Y0115294D01*
X0264162Y0116893D02*
X0263369Y0116893D01*
X0263057Y0118491D02*
X0262980Y0118491D01*
X0272423Y0115294D02*
X0272619Y0115294D01*
X0273330Y0123287D02*
X0271696Y0123287D01*
X0265752Y0124885D02*
X0279594Y0124885D01*
X0278978Y0123287D02*
X0278694Y0123287D01*
X0284913Y0124885D02*
X0290437Y0124885D01*
X0291085Y0115294D02*
X0292331Y0115294D01*
X0307142Y0102506D02*
X0317200Y0102506D01*
X0317200Y0100908D02*
X0307979Y0100908D01*
X0308408Y0099309D02*
X0317200Y0099309D01*
X0317200Y0097711D02*
X0308836Y0097711D01*
X0308900Y0096112D02*
X0317200Y0096112D01*
X0317200Y0094514D02*
X0308900Y0094514D01*
X0308900Y0092915D02*
X0317200Y0092915D01*
X0317200Y0091317D02*
X0308900Y0091317D01*
X0308900Y0089718D02*
X0317200Y0089718D01*
X0317200Y0088120D02*
X0308900Y0088120D01*
X0309498Y0086521D02*
X0317200Y0086521D01*
X0318208Y0084923D02*
X0309550Y0084923D01*
X0309550Y0080127D02*
X0309872Y0080127D01*
X0299700Y0088120D02*
X0187025Y0088120D01*
X0187025Y0089718D02*
X0299700Y0089718D01*
X0299700Y0091317D02*
X0187025Y0091317D01*
X0187025Y0092915D02*
X0299700Y0092915D01*
X0299700Y0094514D02*
X0187025Y0094514D01*
X0187062Y0096112D02*
X0299663Y0096112D01*
X0299235Y0097711D02*
X0187490Y0097711D01*
X0188613Y0099309D02*
X0298112Y0099309D01*
X0294945Y0100908D02*
X0243927Y0100908D01*
X0243697Y0100908D02*
X0191780Y0100908D01*
X0189966Y0110499D02*
X0245168Y0110499D01*
X0246820Y0112097D02*
X0187681Y0112097D01*
X0186754Y0113696D02*
X0247200Y0113696D01*
X0252101Y0104105D02*
X0252598Y0104105D01*
X0250400Y0102657D02*
X0250400Y0102657D01*
X0250033Y0102506D02*
X0255192Y0102506D01*
X0256165Y0101945D02*
X0256165Y0101945D01*
X0246666Y0101118D02*
X0246666Y0101118D01*
X0241839Y0123287D02*
X0241256Y0123287D01*
X0237994Y0123287D02*
X0237052Y0123287D01*
X0234761Y0124885D02*
X0247200Y0124885D01*
X0247200Y0126484D02*
X0223832Y0126484D01*
X0224930Y0124885D02*
X0229442Y0124885D01*
X0220659Y0126484D02*
X0187050Y0126484D01*
X0187050Y0128082D02*
X0247200Y0128082D01*
X0247200Y0129681D02*
X0187050Y0129681D01*
X0187050Y0131279D02*
X0247200Y0131279D01*
X0247200Y0132878D02*
X0186910Y0132878D01*
X0187050Y0134476D02*
X0247200Y0134476D01*
X0247200Y0136075D02*
X0187050Y0136075D01*
X0187050Y0137673D02*
X0247200Y0137673D01*
X0247200Y0139272D02*
X0187050Y0139272D01*
X0186398Y0140870D02*
X0247200Y0140870D01*
X0247200Y0142469D02*
X0101400Y0142469D01*
X0101400Y0144068D02*
X0247314Y0144068D01*
X0247833Y0145666D02*
X0101400Y0145666D01*
X0101400Y0147265D02*
X0248353Y0147265D01*
X0248384Y0147362D02*
X0248384Y0147362D01*
X0249475Y0148863D02*
X0101400Y0148863D01*
X0101400Y0150462D02*
X0250637Y0150462D01*
X0252836Y0152060D02*
X0176184Y0152060D01*
X0175314Y0151700D02*
X0177189Y0152476D01*
X0178624Y0153911D01*
X0179400Y0155786D01*
X0179400Y0157814D01*
X0178624Y0159689D01*
X0177189Y0161124D01*
X0175314Y0161900D01*
X0173286Y0161900D01*
X0171411Y0161124D01*
X0169976Y0159689D01*
X0169200Y0157814D01*
X0169200Y0155786D01*
X0169976Y0153911D01*
X0171411Y0152476D01*
X0173286Y0151700D01*
X0175314Y0151700D01*
X0172416Y0152060D02*
X0101400Y0152060D01*
X0101400Y0153659D02*
X0170229Y0153659D01*
X0169419Y0155257D02*
X0101969Y0155257D01*
X0103791Y0156856D02*
X0169200Y0156856D01*
X0169465Y0158454D02*
X0147884Y0158454D01*
X0150653Y0160053D02*
X0170340Y0160053D01*
X0172685Y0161651D02*
X0152299Y0161651D01*
X0153483Y0162835D02*
X0153483Y0162835D01*
X0153722Y0163250D02*
X0157380Y0163250D01*
X0157200Y0164848D02*
X0154645Y0164848D01*
X0155405Y0166165D02*
X0155405Y0166165D01*
X0155481Y0166447D02*
X0157200Y0166447D01*
X0157200Y0168045D02*
X0155909Y0168045D01*
X0156337Y0169644D02*
X0157200Y0169644D01*
X0157200Y0171242D02*
X0156400Y0171242D01*
X0156400Y0172841D02*
X0157200Y0172841D01*
X0157200Y0174439D02*
X0156409Y0174439D01*
X0156723Y0176038D02*
X0157200Y0176038D01*
X0166400Y0176038D02*
X0302200Y0176038D01*
X0302200Y0177636D02*
X0166400Y0177636D01*
X0166400Y0179235D02*
X0302200Y0179235D01*
X0302200Y0180833D02*
X0182675Y0180833D01*
X0185444Y0182432D02*
X0302200Y0182432D01*
X0302200Y0184030D02*
X0187178Y0184030D01*
X0188483Y0185335D02*
X0188483Y0185335D01*
X0188652Y0185629D02*
X0302200Y0185629D01*
X0302200Y0187227D02*
X0189575Y0187227D01*
X0190405Y0188665D02*
X0190405Y0188665D01*
X0190448Y0188826D02*
X0284235Y0188826D01*
X0282364Y0190424D02*
X0191236Y0190424D01*
X0191955Y0192023D02*
X0281645Y0192023D01*
X0281452Y0193621D02*
X0250127Y0193621D01*
X0251400Y0195220D02*
X0281452Y0195220D01*
X0281452Y0196818D02*
X0251400Y0196818D01*
X0251400Y0198417D02*
X0281452Y0198417D01*
X0281452Y0200015D02*
X0250090Y0200015D01*
X0281660Y0201614D02*
X0191940Y0201614D01*
X0191199Y0203212D02*
X0282401Y0203212D01*
X0284324Y0204811D02*
X0189276Y0204811D01*
X0161645Y0192023D02*
X0138900Y0192023D01*
X0138900Y0190424D02*
X0162364Y0190424D01*
X0159601Y0188826D02*
X0138900Y0188826D01*
X0138900Y0187227D02*
X0154991Y0187227D01*
X0152835Y0185983D02*
X0152835Y0185983D01*
X0152481Y0185629D02*
X0138900Y0185629D01*
X0138900Y0184030D02*
X0150883Y0184030D01*
X0149636Y0182432D02*
X0138900Y0182432D01*
X0138900Y0180833D02*
X0148713Y0180833D01*
X0148195Y0179935D02*
X0148195Y0179935D01*
X0148007Y0179235D02*
X0138900Y0179235D01*
X0138900Y0177636D02*
X0147579Y0177636D01*
X0147200Y0176038D02*
X0138900Y0176038D01*
X0147200Y0174439D02*
X0081800Y0174439D01*
X0081800Y0172841D02*
X0147200Y0172841D01*
X0147163Y0171242D02*
X0081800Y0171242D01*
X0081800Y0169644D02*
X0146737Y0169644D01*
X0145617Y0168045D02*
X0081800Y0168045D01*
X0081800Y0166447D02*
X0104147Y0166447D01*
X0105343Y0166655D02*
X0105343Y0166655D01*
X0106800Y0166447D02*
X0142507Y0166447D01*
X0150765Y0160117D02*
X0150765Y0160117D01*
X0166219Y0163250D02*
X0302200Y0163250D01*
X0302200Y0164848D02*
X0166400Y0164848D01*
X0166400Y0166447D02*
X0302200Y0166447D01*
X0302200Y0168045D02*
X0166400Y0168045D01*
X0166400Y0169644D02*
X0302200Y0169644D01*
X0302200Y0171242D02*
X0166400Y0171242D01*
X0166400Y0172841D02*
X0302200Y0172841D01*
X0302200Y0174439D02*
X0166400Y0174439D01*
X0185765Y0182617D02*
X0185765Y0182617D01*
X0175915Y0161651D02*
X0302200Y0161651D01*
X0302200Y0160053D02*
X0178260Y0160053D01*
X0179135Y0158454D02*
X0302200Y0158454D01*
X0302200Y0156856D02*
X0179400Y0156856D01*
X0179181Y0155257D02*
X0301719Y0155257D01*
X0301884Y0155483D02*
X0301884Y0155483D01*
X0309651Y0150462D02*
X0328450Y0150462D01*
X0328450Y0152060D02*
X0310483Y0152060D01*
X0311002Y0153659D02*
X0328450Y0153659D01*
X0328450Y0155257D02*
X0311400Y0155257D01*
X0311400Y0156856D02*
X0328450Y0156856D01*
X0328450Y0158454D02*
X0311400Y0158454D01*
X0311400Y0160053D02*
X0328450Y0160053D01*
X0328450Y0161651D02*
X0311400Y0161651D01*
X0311400Y0163250D02*
X0317380Y0163250D01*
X0317200Y0163430D02*
X0318430Y0162200D01*
X0325170Y0162200D01*
X0326400Y0163430D01*
X0326400Y0165170D01*
X0326400Y0178430D01*
X0326400Y0180170D01*
X0325170Y0181400D01*
X0318430Y0181400D01*
X0317200Y0180170D01*
X0317200Y0163430D01*
X0317200Y0164848D02*
X0311400Y0164848D01*
X0311400Y0166447D02*
X0317200Y0166447D01*
X0317200Y0168045D02*
X0311400Y0168045D01*
X0311400Y0169644D02*
X0317200Y0169644D01*
X0317200Y0171242D02*
X0311400Y0171242D01*
X0311400Y0172841D02*
X0317200Y0172841D01*
X0317200Y0174439D02*
X0311400Y0174439D01*
X0311400Y0176038D02*
X0317200Y0176038D01*
X0317200Y0177636D02*
X0311400Y0177636D01*
X0311400Y0179235D02*
X0317200Y0179235D01*
X0317863Y0180833D02*
X0311400Y0180833D01*
X0311400Y0182432D02*
X0328450Y0182432D01*
X0328450Y0184030D02*
X0311400Y0184030D01*
X0311400Y0185629D02*
X0328450Y0185629D01*
X0328450Y0187227D02*
X0311400Y0187227D01*
X0311400Y0188826D02*
X0328450Y0188826D01*
X0328450Y0190424D02*
X0311400Y0190424D01*
X0311955Y0192023D02*
X0328450Y0192023D01*
X0328450Y0193621D02*
X0312148Y0193621D01*
X0312148Y0195220D02*
X0328450Y0195220D01*
X0328450Y0196818D02*
X0312148Y0196818D01*
X0312148Y0198417D02*
X0328450Y0198417D01*
X0328450Y0200015D02*
X0312148Y0200015D01*
X0311940Y0201614D02*
X0328450Y0201614D01*
X0328450Y0203212D02*
X0311199Y0203212D01*
X0309276Y0204811D02*
X0328450Y0204811D01*
X0305565Y0205325D02*
X0303771Y0204582D01*
X0302266Y0203077D01*
X0301626Y0201531D01*
X0301478Y0201986D01*
X0301117Y0202694D01*
X0300650Y0203337D01*
X0300089Y0203898D01*
X0299446Y0204365D01*
X0298738Y0204726D01*
X0297982Y0204972D01*
X0297197Y0205096D01*
X0297083Y0205096D01*
X0297083Y0197083D01*
X0296517Y0197083D01*
X0296517Y0205096D01*
X0296403Y0205096D01*
X0295618Y0204972D01*
X0294862Y0204726D01*
X0294154Y0204365D01*
X0293511Y0203898D01*
X0292950Y0203337D01*
X0292483Y0202694D01*
X0292122Y0201986D01*
X0291974Y0201531D01*
X0291334Y0203077D01*
X0289829Y0204582D01*
X0288035Y0205325D01*
X0305565Y0205325D01*
X0304324Y0204811D02*
X0298477Y0204811D01*
X0297083Y0204811D02*
X0296517Y0204811D01*
X0295123Y0204811D02*
X0289276Y0204811D01*
X0291199Y0203212D02*
X0292859Y0203212D01*
X0292001Y0201614D02*
X0291940Y0201614D01*
X0296517Y0201614D02*
X0297083Y0201614D01*
X0297083Y0203212D02*
X0296517Y0203212D01*
X0300741Y0203212D02*
X0302401Y0203212D01*
X0301660Y0201614D02*
X0301599Y0201614D01*
X0297083Y0200015D02*
X0296517Y0200015D01*
X0296517Y0198417D02*
X0297083Y0198417D01*
X0297083Y0195220D02*
X0296517Y0195220D01*
X0296517Y0193621D02*
X0297083Y0193621D01*
X0297083Y0192023D02*
X0296517Y0192023D01*
X0296517Y0190424D02*
X0297083Y0190424D01*
X0297083Y0188826D02*
X0296517Y0188826D01*
X0295010Y0188826D02*
X0289365Y0188826D01*
X0291236Y0190424D02*
X0292833Y0190424D01*
X0291989Y0192023D02*
X0291955Y0192023D01*
X0298590Y0188826D02*
X0302200Y0188826D01*
X0302200Y0190424D02*
X0300767Y0190424D01*
X0301611Y0192023D02*
X0301645Y0192023D01*
X0325737Y0180833D02*
X0328450Y0180833D01*
X0328450Y0179235D02*
X0326400Y0179235D01*
X0326400Y0177636D02*
X0328450Y0177636D01*
X0328450Y0176038D02*
X0326400Y0176038D01*
X0326400Y0174439D02*
X0328450Y0174439D01*
X0328450Y0172841D02*
X0326400Y0172841D01*
X0326400Y0171242D02*
X0328450Y0171242D01*
X0328450Y0169644D02*
X0326400Y0169644D01*
X0326400Y0168045D02*
X0328450Y0168045D01*
X0328450Y0166447D02*
X0326400Y0166447D01*
X0326400Y0164848D02*
X0328450Y0164848D01*
X0328450Y0163250D02*
X0326219Y0163250D01*
X0328450Y0148863D02*
X0308490Y0148863D01*
X0306761Y0147265D02*
X0328450Y0147265D01*
X0256641Y0153659D02*
X0178371Y0153659D01*
X0177202Y0140870D02*
X0176735Y0140870D01*
X0171865Y0140870D02*
X0101400Y0140870D01*
X0101400Y0139272D02*
X0170267Y0139272D01*
X0169700Y0137673D02*
X0101400Y0137673D01*
X0101400Y0136075D02*
X0169700Y0136075D01*
X0170118Y0134476D02*
X0101400Y0134476D01*
X0101400Y0132878D02*
X0171717Y0132878D01*
X0171694Y0132575D02*
X0171694Y0132575D01*
X0170400Y0131281D02*
X0170400Y0131281D01*
X0170399Y0131279D02*
X0101400Y0131279D01*
X0101400Y0129681D02*
X0169700Y0129681D01*
X0169700Y0128082D02*
X0118487Y0128082D01*
X0118900Y0126484D02*
X0169700Y0126484D01*
X0169700Y0124885D02*
X0118900Y0124885D01*
X0118900Y0123287D02*
X0169700Y0123287D01*
X0169700Y0121688D02*
X0118900Y0121688D01*
X0118900Y0120090D02*
X0169700Y0120090D01*
X0169700Y0118491D02*
X0118900Y0118491D01*
X0118900Y0116893D02*
X0169700Y0116893D01*
X0169700Y0115294D02*
X0141713Y0115294D01*
X0186417Y0115294D02*
X0190629Y0115294D01*
X0190222Y0116893D02*
X0186400Y0116893D01*
X0186400Y0118491D02*
X0188758Y0118491D01*
X0187231Y0120090D02*
X0186400Y0120090D01*
X0186400Y0121688D02*
X0187116Y0121688D01*
X0186400Y0123287D02*
X0188188Y0123287D01*
X0186400Y0124885D02*
X0219560Y0124885D01*
X0213848Y0123287D02*
X0212213Y0123287D01*
X0206850Y0123287D02*
X0206266Y0123287D01*
X0200902Y0123287D02*
X0200550Y0123287D01*
X0195186Y0123287D02*
X0194603Y0123287D01*
X0204892Y0115294D02*
X0206138Y0115294D01*
X0187623Y0086521D02*
X0299102Y0086521D01*
X0299050Y0084923D02*
X0187675Y0084923D01*
X0187675Y0083324D02*
X0299050Y0083324D01*
X0299050Y0081726D02*
X0187675Y0081726D01*
X0187675Y0080127D02*
X0299050Y0080127D01*
X0299050Y0078529D02*
X0187675Y0078529D01*
X0187675Y0076930D02*
X0299050Y0076930D01*
X0299050Y0075332D02*
X0187675Y0075332D01*
X0187675Y0073733D02*
X0299050Y0073733D01*
X0299050Y0072134D02*
X0187675Y0072134D01*
X0155681Y0041951D02*
X0154451Y0043181D01*
X0149149Y0043181D01*
X0147919Y0041951D01*
X0147919Y0038061D01*
X0147744Y0037886D01*
X0147132Y0037633D01*
X0146800Y0037600D01*
X0137532Y0037600D01*
X0136951Y0038181D01*
X0131649Y0038181D01*
X0130419Y0036951D01*
X0130419Y0031649D01*
X0131649Y0030419D01*
X0136951Y0030419D01*
X0137532Y0031000D01*
X0145419Y0031000D01*
X0145419Y0026649D01*
X0146000Y0026068D01*
X0146000Y0017532D01*
X0145419Y0016951D01*
X0145419Y0011649D01*
X0146649Y0010419D01*
X0151951Y0010419D01*
X0153181Y0011649D01*
X0153181Y0016951D01*
X0152600Y0017532D01*
X0152600Y0026068D01*
X0153181Y0026649D01*
X0153181Y0031951D01*
X0152185Y0032947D01*
X0153836Y0034598D01*
X0153836Y0034598D01*
X0154176Y0035419D01*
X0154451Y0035419D01*
X0155681Y0036649D01*
X0155681Y0041951D01*
X0155681Y0041763D02*
X0328450Y0041763D01*
X0328450Y0043361D02*
X0092650Y0043361D01*
X0092650Y0041763D02*
X0105628Y0041763D01*
X0104598Y0041336D02*
X0104598Y0041336D01*
X0103426Y0040164D02*
X0092650Y0040164D01*
X0092650Y0038566D02*
X0102083Y0038566D01*
X0101421Y0036967D02*
X0100445Y0036967D01*
X0097083Y0036967D02*
X0096517Y0036967D01*
X0096517Y0035369D02*
X0097083Y0035369D01*
X0097083Y0033770D02*
X0096517Y0033770D01*
X0093155Y0036967D02*
X0092650Y0036967D01*
X0092650Y0044960D02*
X0328450Y0044960D01*
X0328450Y0046558D02*
X0092736Y0046558D01*
X0092850Y0047203D02*
X0092850Y0047203D01*
X0092767Y0048157D02*
X0328450Y0048157D01*
X0328450Y0049755D02*
X0092650Y0049755D01*
X0092650Y0051354D02*
X0328450Y0051354D01*
X0328450Y0052952D02*
X0312665Y0052952D01*
X0313889Y0054551D02*
X0328450Y0054551D01*
X0328450Y0056149D02*
X0314400Y0056149D01*
X0314400Y0057748D02*
X0328450Y0057748D01*
X0328450Y0059346D02*
X0313765Y0059346D01*
X0304200Y0056149D02*
X0092650Y0056149D01*
X0092650Y0054551D02*
X0304711Y0054551D01*
X0305935Y0052952D02*
X0092650Y0052952D01*
X0074925Y0064300D02*
X0074925Y0205025D01*
X0004200Y0205025D01*
X0004200Y0064300D01*
X0074925Y0064300D01*
X0074925Y0065740D02*
X0004200Y0065740D01*
X0004200Y0067339D02*
X0074925Y0067339D01*
X0074925Y0068937D02*
X0004200Y0068937D01*
X0004200Y0070536D02*
X0074925Y0070536D01*
X0074925Y0072134D02*
X0004200Y0072134D01*
X0004200Y0073733D02*
X0074925Y0073733D01*
X0074925Y0075332D02*
X0004200Y0075332D01*
X0004200Y0076930D02*
X0046103Y0076930D01*
X0046117Y0076878D02*
X0046354Y0076467D01*
X0046689Y0076132D01*
X0047099Y0075895D01*
X0047557Y0075773D01*
X0050267Y0075773D01*
X0050267Y0079455D01*
X0050833Y0079455D01*
X0050833Y0080021D01*
X0055106Y0080021D01*
X0055106Y0082140D01*
X0054983Y0082598D01*
X0054746Y0083009D01*
X0054437Y0083318D01*
X0054665Y0083412D01*
X0055341Y0084087D01*
X0055706Y0084969D01*
X0055706Y0090255D01*
X0055341Y0091137D01*
X0054665Y0091812D01*
X0053783Y0092177D01*
X0047317Y0092177D01*
X0046435Y0091812D01*
X0045759Y0091137D01*
X0045394Y0090255D01*
X0045394Y0089783D01*
X0043871Y0088260D01*
X0042975Y0086096D01*
X0042975Y0085625D01*
X0039306Y0085625D01*
X0038691Y0086241D01*
X0037808Y0086606D01*
X0033291Y0086606D01*
X0032409Y0086241D01*
X0031734Y0085566D01*
X0031369Y0084683D01*
X0031369Y0080166D01*
X0031734Y0079284D01*
X0032409Y0078609D01*
X0033291Y0078244D01*
X0037808Y0078244D01*
X0038691Y0078609D01*
X0039306Y0079225D01*
X0044809Y0079225D01*
X0046730Y0080021D01*
X0050267Y0080021D01*
X0050267Y0079455D01*
X0045994Y0079455D01*
X0045994Y0077336D01*
X0046117Y0076878D01*
X0045994Y0078529D02*
X0038496Y0078529D01*
X0035550Y0082425D02*
X0043675Y0082425D01*
X0043773Y0082427D01*
X0043871Y0082433D01*
X0043969Y0082442D01*
X0044066Y0082456D01*
X0044163Y0082473D01*
X0044259Y0082494D01*
X0044354Y0082519D01*
X0044448Y0082547D01*
X0044540Y0082580D01*
X0044632Y0082615D01*
X0044722Y0082655D01*
X0044810Y0082697D01*
X0044897Y0082744D01*
X0044981Y0082793D01*
X0045064Y0082846D01*
X0045144Y0082902D01*
X0045223Y0082962D01*
X0045299Y0083024D01*
X0045372Y0083089D01*
X0045443Y0083157D01*
X0045511Y0083228D01*
X0045576Y0083301D01*
X0045638Y0083377D01*
X0045698Y0083456D01*
X0045754Y0083536D01*
X0045807Y0083619D01*
X0045856Y0083703D01*
X0045903Y0083790D01*
X0045945Y0083878D01*
X0045985Y0083968D01*
X0046020Y0084060D01*
X0046053Y0084152D01*
X0046081Y0084246D01*
X0046106Y0084341D01*
X0046127Y0084437D01*
X0046144Y0084534D01*
X0046158Y0084631D01*
X0046167Y0084729D01*
X0046173Y0084827D01*
X0046175Y0084925D01*
X0046177Y0085028D01*
X0046183Y0085131D01*
X0046193Y0085233D01*
X0046206Y0085335D01*
X0046224Y0085437D01*
X0046246Y0085537D01*
X0046271Y0085637D01*
X0046300Y0085736D01*
X0046333Y0085833D01*
X0046370Y0085929D01*
X0046410Y0086024D01*
X0046454Y0086117D01*
X0046501Y0086209D01*
X0046552Y0086298D01*
X0046607Y0086386D01*
X0046664Y0086471D01*
X0046725Y0086554D01*
X0046789Y0086635D01*
X0046856Y0086713D01*
X0046926Y0086788D01*
X0046999Y0086861D01*
X0047074Y0086931D01*
X0047152Y0086998D01*
X0047233Y0087062D01*
X0047316Y0087123D01*
X0047401Y0087180D01*
X0047489Y0087235D01*
X0047578Y0087286D01*
X0047670Y0087333D01*
X0047763Y0087377D01*
X0047858Y0087417D01*
X0047954Y0087454D01*
X0048051Y0087487D01*
X0048150Y0087516D01*
X0048250Y0087541D01*
X0048350Y0087563D01*
X0048452Y0087581D01*
X0048554Y0087594D01*
X0048656Y0087604D01*
X0048759Y0087610D01*
X0048862Y0087612D01*
X0050550Y0087612D01*
X0055706Y0088120D02*
X0062869Y0088120D01*
X0062869Y0088830D02*
X0062869Y0086711D01*
X0062992Y0086253D01*
X0063229Y0085842D01*
X0063564Y0085507D01*
X0063974Y0085270D01*
X0064432Y0085148D01*
X0067142Y0085148D01*
X0067142Y0088830D01*
X0067708Y0088830D01*
X0067708Y0089396D01*
X0071981Y0089396D01*
X0071981Y0091515D01*
X0071858Y0091973D01*
X0071621Y0092384D01*
X0071312Y0092693D01*
X0071540Y0092787D01*
X0072216Y0093462D01*
X0072581Y0094344D01*
X0072581Y0099630D01*
X0072290Y0100333D01*
X0072491Y0100534D01*
X0072856Y0101416D01*
X0072856Y0105933D01*
X0072491Y0106816D01*
X0071816Y0107491D01*
X0070933Y0107856D01*
X0066416Y0107856D01*
X0065534Y0107491D01*
X0064859Y0106816D01*
X0064494Y0105933D01*
X0064494Y0104014D01*
X0064470Y0103978D01*
X0064100Y0102107D01*
X0064211Y0101552D01*
X0064192Y0101552D01*
X0063310Y0101187D01*
X0062634Y0100512D01*
X0062269Y0099630D01*
X0062269Y0094344D01*
X0062634Y0093462D01*
X0063310Y0092787D01*
X0063538Y0092693D01*
X0063229Y0092384D01*
X0062992Y0091973D01*
X0062869Y0091515D01*
X0062869Y0089396D01*
X0067142Y0089396D01*
X0067142Y0088830D01*
X0062869Y0088830D01*
X0062869Y0089718D02*
X0055706Y0089718D01*
X0055161Y0091317D02*
X0062869Y0091317D01*
X0063181Y0092915D02*
X0025512Y0092915D01*
X0025555Y0093049D02*
X0025687Y0093879D01*
X0025687Y0093919D01*
X0017181Y0093919D01*
X0017181Y0094681D01*
X0016419Y0094681D01*
X0016419Y0099643D01*
X0012836Y0099643D01*
X0012005Y0099512D01*
X0011206Y0099252D01*
X0010456Y0098870D01*
X0009776Y0098376D01*
X0009181Y0097781D01*
X0008687Y0097100D01*
X0008305Y0096351D01*
X0008045Y0095551D01*
X0007913Y0094721D01*
X0007913Y0094681D01*
X0016419Y0094681D01*
X0016419Y0093919D01*
X0007913Y0093919D01*
X0007913Y0093879D01*
X0008045Y0093049D01*
X0008305Y0092249D01*
X0008687Y0091499D01*
X0009181Y0090819D01*
X0009776Y0090224D01*
X0010456Y0089730D01*
X0010626Y0089643D01*
X0009890Y0089338D01*
X0008218Y0087667D01*
X0007313Y0085482D01*
X0007313Y0083118D01*
X0008218Y0080933D01*
X0009890Y0079262D01*
X0012074Y0078357D01*
X0021526Y0078357D01*
X0023710Y0079262D01*
X0025382Y0080933D01*
X0026287Y0083118D01*
X0026287Y0085482D01*
X0025382Y0087667D01*
X0023710Y0089338D01*
X0022974Y0089643D01*
X0023144Y0089730D01*
X0023824Y0090224D01*
X0024419Y0090819D01*
X0024913Y0091499D01*
X0025295Y0092249D01*
X0025555Y0093049D01*
X0025687Y0094681D02*
X0025687Y0094721D01*
X0025555Y0095551D01*
X0025295Y0096351D01*
X0024913Y0097100D01*
X0024419Y0097781D01*
X0023824Y0098376D01*
X0023144Y0098870D01*
X0022394Y0099252D01*
X0021595Y0099512D01*
X0020764Y0099643D01*
X0017181Y0099643D01*
X0017181Y0094681D01*
X0025687Y0094681D01*
X0025373Y0096112D02*
X0062269Y0096112D01*
X0062269Y0094514D02*
X0017181Y0094514D01*
X0016419Y0094514D02*
X0004200Y0094514D01*
X0004200Y0096112D02*
X0008227Y0096112D01*
X0009130Y0097711D02*
X0004200Y0097711D01*
X0004200Y0099309D02*
X0011382Y0099309D01*
X0012074Y0103357D02*
X0021526Y0103357D01*
X0023710Y0104262D01*
X0025382Y0105933D01*
X0026287Y0108118D01*
X0026287Y0110482D01*
X0025382Y0112667D01*
X0023710Y0114338D01*
X0022974Y0114643D01*
X0023144Y0114730D01*
X0023824Y0115224D01*
X0024419Y0115819D01*
X0024913Y0116499D01*
X0025295Y0117249D01*
X0025555Y0118049D01*
X0025687Y0118879D01*
X0025687Y0118919D01*
X0017181Y0118919D01*
X0017181Y0119681D01*
X0016419Y0119681D01*
X0016419Y0124643D01*
X0012836Y0124643D01*
X0012005Y0124512D01*
X0011206Y0124252D01*
X0010456Y0123870D01*
X0009776Y0123376D01*
X0009181Y0122781D01*
X0008687Y0122100D01*
X0008305Y0121351D01*
X0008045Y0120551D01*
X0007913Y0119721D01*
X0007913Y0119681D01*
X0016419Y0119681D01*
X0016419Y0118919D01*
X0007913Y0118919D01*
X0007913Y0118879D01*
X0008045Y0118049D01*
X0008305Y0117249D01*
X0008687Y0116499D01*
X0009181Y0115819D01*
X0009776Y0115224D01*
X0010456Y0114730D01*
X0010626Y0114643D01*
X0009890Y0114338D01*
X0008218Y0112667D01*
X0007313Y0110482D01*
X0007313Y0108118D01*
X0008218Y0105933D01*
X0009890Y0104262D01*
X0012074Y0103357D01*
X0010269Y0104105D02*
X0004200Y0104105D01*
X0004200Y0105703D02*
X0008448Y0105703D01*
X0007651Y0107302D02*
X0004200Y0107302D01*
X0004200Y0108900D02*
X0007313Y0108900D01*
X0007320Y0110499D02*
X0004200Y0110499D01*
X0004200Y0112097D02*
X0007982Y0112097D01*
X0009247Y0113696D02*
X0004200Y0113696D01*
X0004200Y0115294D02*
X0009706Y0115294D01*
X0008486Y0116893D02*
X0004200Y0116893D01*
X0004200Y0118491D02*
X0007975Y0118491D01*
X0007972Y0120090D02*
X0004200Y0120090D01*
X0004200Y0121688D02*
X0008477Y0121688D01*
X0009687Y0123287D02*
X0004200Y0123287D01*
X0004200Y0124885D02*
X0022154Y0124885D01*
X0021595Y0124512D02*
X0020764Y0124643D01*
X0017181Y0124643D01*
X0017181Y0119681D01*
X0025687Y0119681D01*
X0025687Y0119721D01*
X0025555Y0120551D01*
X0025295Y0121351D01*
X0024913Y0122100D01*
X0024419Y0122781D01*
X0023824Y0123376D01*
X0023144Y0123870D01*
X0022394Y0124252D01*
X0021595Y0124512D01*
X0021524Y0125146D02*
X0023325Y0124400D01*
X0039243Y0124400D01*
X0038600Y0122847D01*
X0038600Y0121875D01*
X0035556Y0121875D01*
X0034941Y0122491D01*
X0034058Y0122856D01*
X0029541Y0122856D01*
X0028659Y0122491D01*
X0027984Y0121816D01*
X0027619Y0120933D01*
X0027619Y0116416D01*
X0027984Y0115534D01*
X0028659Y0114859D01*
X0029541Y0114494D01*
X0034058Y0114494D01*
X0034941Y0114859D01*
X0035556Y0115475D01*
X0040434Y0115475D01*
X0042355Y0116271D01*
X0045892Y0116271D01*
X0045892Y0115705D01*
X0046458Y0115705D01*
X0046458Y0116271D01*
X0050731Y0116271D01*
X0050731Y0118390D01*
X0050608Y0118848D01*
X0050371Y0119259D01*
X0050062Y0119568D01*
X0050290Y0119662D01*
X0050966Y0120337D01*
X0051325Y0121205D01*
X0051325Y0114531D01*
X0051109Y0114316D01*
X0050744Y0113433D01*
X0050744Y0108916D01*
X0051109Y0108034D01*
X0051784Y0107359D01*
X0052666Y0106994D01*
X0057183Y0106994D01*
X0058066Y0107359D01*
X0058741Y0108034D01*
X0059106Y0108916D01*
X0059106Y0113433D01*
X0058741Y0114316D01*
X0058525Y0114531D01*
X0058525Y0131569D01*
X0058741Y0131784D01*
X0059106Y0132666D01*
X0059106Y0137183D01*
X0058741Y0138066D01*
X0058066Y0138741D01*
X0057183Y0139106D01*
X0052666Y0139106D01*
X0051784Y0138741D01*
X0051109Y0138066D01*
X0050744Y0137183D01*
X0050744Y0132666D01*
X0051109Y0131784D01*
X0051325Y0131569D01*
X0051325Y0131180D01*
X0050954Y0132076D01*
X0050635Y0132395D01*
X0050616Y0132441D01*
X0049941Y0133116D01*
X0049895Y0133135D01*
X0049576Y0133454D01*
X0047775Y0134200D01*
X0045056Y0134200D01*
X0044848Y0134266D01*
X0044088Y0134200D01*
X0023561Y0134200D01*
X0023710Y0134262D01*
X0025382Y0135933D01*
X0026287Y0138118D01*
X0026287Y0140482D01*
X0025382Y0142667D01*
X0023710Y0144338D01*
X0022974Y0144643D01*
X0023144Y0144730D01*
X0023824Y0145224D01*
X0024419Y0145819D01*
X0024913Y0146499D01*
X0025295Y0147249D01*
X0025555Y0148049D01*
X0025687Y0148879D01*
X0025687Y0148919D01*
X0017181Y0148919D01*
X0017181Y0149681D01*
X0016419Y0149681D01*
X0016419Y0148919D01*
X0007913Y0148919D01*
X0007913Y0148879D01*
X0008045Y0148049D01*
X0008305Y0147249D01*
X0008687Y0146499D01*
X0009181Y0145819D01*
X0009776Y0145224D01*
X0010456Y0144730D01*
X0010626Y0144643D01*
X0009890Y0144338D01*
X0008218Y0142667D01*
X0007313Y0140482D01*
X0007313Y0138118D01*
X0008218Y0135933D01*
X0009890Y0134262D01*
X0012074Y0133357D01*
X0021427Y0133357D01*
X0021205Y0133135D01*
X0021159Y0133116D01*
X0020484Y0132441D01*
X0020465Y0132395D01*
X0020146Y0132076D01*
X0019400Y0130275D01*
X0019400Y0128325D01*
X0020146Y0126524D01*
X0020465Y0126205D01*
X0020484Y0126159D01*
X0021159Y0125484D01*
X0021205Y0125465D01*
X0021524Y0125146D01*
X0020186Y0126484D02*
X0004200Y0126484D01*
X0004200Y0128082D02*
X0019501Y0128082D01*
X0019400Y0129681D02*
X0004200Y0129681D01*
X0004200Y0131279D02*
X0019816Y0131279D01*
X0020922Y0132878D02*
X0004200Y0132878D01*
X0004200Y0134476D02*
X0009675Y0134476D01*
X0008160Y0136075D02*
X0004200Y0136075D01*
X0004200Y0137673D02*
X0007497Y0137673D01*
X0007313Y0139272D02*
X0004200Y0139272D01*
X0004200Y0140870D02*
X0007474Y0140870D01*
X0008136Y0142469D02*
X0004200Y0142469D01*
X0004200Y0144068D02*
X0009619Y0144068D01*
X0009334Y0145666D02*
X0004200Y0145666D01*
X0004200Y0147265D02*
X0008300Y0147265D01*
X0007916Y0148863D02*
X0004200Y0148863D01*
X0004200Y0150462D02*
X0008031Y0150462D01*
X0008045Y0150551D02*
X0007913Y0149721D01*
X0007913Y0149681D01*
X0016419Y0149681D01*
X0016419Y0154643D01*
X0012836Y0154643D01*
X0012005Y0154512D01*
X0011206Y0154252D01*
X0010456Y0153870D01*
X0009776Y0153376D01*
X0009181Y0152781D01*
X0008687Y0152100D01*
X0008305Y0151351D01*
X0008045Y0150551D01*
X0008666Y0152060D02*
X0004200Y0152060D01*
X0004200Y0153659D02*
X0010165Y0153659D01*
X0016419Y0153659D02*
X0017181Y0153659D01*
X0017181Y0154643D02*
X0017181Y0149681D01*
X0025687Y0149681D01*
X0025687Y0149721D01*
X0025555Y0150551D01*
X0025295Y0151351D01*
X0024913Y0152100D01*
X0024419Y0152781D01*
X0023824Y0153376D01*
X0023144Y0153870D01*
X0022394Y0154252D01*
X0021595Y0154512D01*
X0020764Y0154643D01*
X0017181Y0154643D01*
X0017181Y0152060D02*
X0016419Y0152060D01*
X0016419Y0150462D02*
X0017181Y0150462D01*
X0023435Y0153659D02*
X0074925Y0153659D01*
X0074925Y0155257D02*
X0004200Y0155257D01*
X0004200Y0156856D02*
X0074925Y0156856D01*
X0074925Y0158454D02*
X0021761Y0158454D01*
X0021526Y0158357D02*
X0023710Y0159262D01*
X0025382Y0160933D01*
X0026287Y0163118D01*
X0026287Y0165482D01*
X0025382Y0167667D01*
X0023710Y0169338D01*
X0022974Y0169643D01*
X0023144Y0169730D01*
X0023824Y0170224D01*
X0024419Y0170819D01*
X0024913Y0171499D01*
X0025295Y0172249D01*
X0025555Y0173049D01*
X0025687Y0173879D01*
X0025687Y0173919D01*
X0017181Y0173919D01*
X0017181Y0174681D01*
X0016419Y0174681D01*
X0016419Y0179643D01*
X0012836Y0179643D01*
X0012005Y0179512D01*
X0011206Y0179252D01*
X0010456Y0178870D01*
X0009776Y0178376D01*
X0009181Y0177781D01*
X0008687Y0177100D01*
X0008305Y0176351D01*
X0008045Y0175551D01*
X0007913Y0174721D01*
X0007913Y0174681D01*
X0016419Y0174681D01*
X0016419Y0173919D01*
X0007913Y0173919D01*
X0007913Y0173879D01*
X0008045Y0173049D01*
X0008305Y0172249D01*
X0008687Y0171499D01*
X0009181Y0170819D01*
X0009776Y0170224D01*
X0010456Y0169730D01*
X0010626Y0169643D01*
X0009890Y0169338D01*
X0008218Y0167667D01*
X0007313Y0165482D01*
X0007313Y0163118D01*
X0008218Y0160933D01*
X0009890Y0159262D01*
X0012074Y0158357D01*
X0021526Y0158357D01*
X0024501Y0160053D02*
X0074925Y0160053D01*
X0074925Y0161651D02*
X0025679Y0161651D01*
X0026287Y0163250D02*
X0074925Y0163250D01*
X0074925Y0164848D02*
X0026287Y0164848D01*
X0025887Y0166447D02*
X0074925Y0166447D01*
X0074925Y0168045D02*
X0025003Y0168045D01*
X0022974Y0169644D02*
X0074925Y0169644D01*
X0074925Y0171242D02*
X0024726Y0171242D01*
X0025487Y0172841D02*
X0074925Y0172841D01*
X0074925Y0174439D02*
X0017181Y0174439D01*
X0017181Y0174681D02*
X0025687Y0174681D01*
X0025687Y0174721D01*
X0025555Y0175551D01*
X0025295Y0176351D01*
X0024913Y0177100D01*
X0024419Y0177781D01*
X0023824Y0178376D01*
X0023144Y0178870D01*
X0022394Y0179252D01*
X0021595Y0179512D01*
X0020764Y0179643D01*
X0017181Y0179643D01*
X0017181Y0174681D01*
X0016419Y0174439D02*
X0004200Y0174439D01*
X0004200Y0172841D02*
X0008113Y0172841D01*
X0008874Y0171242D02*
X0004200Y0171242D01*
X0004200Y0169644D02*
X0010626Y0169644D01*
X0008597Y0168045D02*
X0004200Y0168045D01*
X0004200Y0166447D02*
X0007713Y0166447D01*
X0007313Y0164848D02*
X0004200Y0164848D01*
X0004200Y0163250D02*
X0007313Y0163250D01*
X0007921Y0161651D02*
X0004200Y0161651D01*
X0004200Y0160053D02*
X0009099Y0160053D01*
X0011839Y0158454D02*
X0004200Y0158454D01*
X0024934Y0152060D02*
X0074925Y0152060D01*
X0074925Y0150462D02*
X0025569Y0150462D01*
X0025684Y0148863D02*
X0074925Y0148863D01*
X0074925Y0147265D02*
X0025300Y0147265D01*
X0024266Y0145666D02*
X0074925Y0145666D01*
X0074925Y0144068D02*
X0023981Y0144068D01*
X0025464Y0142469D02*
X0074925Y0142469D01*
X0074925Y0140870D02*
X0026126Y0140870D01*
X0026287Y0139272D02*
X0074925Y0139272D01*
X0074925Y0137673D02*
X0058903Y0137673D01*
X0059106Y0136075D02*
X0074925Y0136075D01*
X0074925Y0134476D02*
X0059106Y0134476D01*
X0059106Y0132878D02*
X0074925Y0132878D01*
X0074925Y0131279D02*
X0058525Y0131279D01*
X0058525Y0129681D02*
X0074925Y0129681D01*
X0074925Y0128082D02*
X0058525Y0128082D01*
X0058525Y0126484D02*
X0074925Y0126484D01*
X0074925Y0124885D02*
X0058525Y0124885D01*
X0058525Y0123287D02*
X0074925Y0123287D01*
X0074925Y0121688D02*
X0058525Y0121688D01*
X0058525Y0120090D02*
X0074925Y0120090D01*
X0074925Y0118491D02*
X0058525Y0118491D01*
X0058525Y0116893D02*
X0074925Y0116893D01*
X0074925Y0115294D02*
X0058525Y0115294D01*
X0058997Y0113696D02*
X0074925Y0113696D01*
X0074925Y0112097D02*
X0059106Y0112097D01*
X0059106Y0110499D02*
X0074925Y0110499D01*
X0074925Y0108900D02*
X0059099Y0108900D01*
X0057927Y0107302D02*
X0065345Y0107302D01*
X0064494Y0105703D02*
X0025152Y0105703D01*
X0025949Y0107302D02*
X0051923Y0107302D01*
X0050751Y0108900D02*
X0026287Y0108900D01*
X0026280Y0110499D02*
X0050744Y0110499D01*
X0050744Y0112097D02*
X0049446Y0112097D01*
X0049626Y0112145D02*
X0050036Y0112382D01*
X0050371Y0112717D01*
X0050608Y0113128D01*
X0050731Y0113586D01*
X0050731Y0115705D01*
X0046458Y0115705D01*
X0046458Y0112023D01*
X0049168Y0112023D01*
X0049626Y0112145D01*
X0050731Y0113696D02*
X0050853Y0113696D01*
X0050731Y0115294D02*
X0051325Y0115294D01*
X0051325Y0116893D02*
X0050731Y0116893D01*
X0050704Y0118491D02*
X0051325Y0118491D01*
X0051325Y0120090D02*
X0050718Y0120090D01*
X0046175Y0123862D02*
X0043862Y0123862D01*
X0043772Y0123860D01*
X0043682Y0123854D01*
X0043593Y0123844D01*
X0043504Y0123831D01*
X0043416Y0123813D01*
X0043328Y0123792D01*
X0043242Y0123767D01*
X0043157Y0123738D01*
X0043073Y0123705D01*
X0042991Y0123669D01*
X0042910Y0123629D01*
X0042831Y0123586D01*
X0042754Y0123539D01*
X0042679Y0123489D01*
X0042607Y0123436D01*
X0042537Y0123380D01*
X0042469Y0123320D01*
X0042404Y0123258D01*
X0042342Y0123193D01*
X0042282Y0123125D01*
X0042226Y0123055D01*
X0042173Y0122983D01*
X0042123Y0122908D01*
X0042076Y0122831D01*
X0042033Y0122752D01*
X0041993Y0122671D01*
X0041957Y0122589D01*
X0041924Y0122505D01*
X0041895Y0122420D01*
X0041870Y0122334D01*
X0041849Y0122246D01*
X0041831Y0122158D01*
X0041818Y0122069D01*
X0041808Y0121980D01*
X0041802Y0121890D01*
X0041800Y0121800D01*
X0041800Y0121175D01*
X0041798Y0121077D01*
X0041792Y0120979D01*
X0041783Y0120881D01*
X0041769Y0120784D01*
X0041752Y0120687D01*
X0041731Y0120591D01*
X0041706Y0120496D01*
X0041678Y0120402D01*
X0041645Y0120310D01*
X0041610Y0120218D01*
X0041570Y0120128D01*
X0041528Y0120040D01*
X0041481Y0119953D01*
X0041432Y0119869D01*
X0041379Y0119786D01*
X0041323Y0119706D01*
X0041263Y0119627D01*
X0041201Y0119551D01*
X0041136Y0119478D01*
X0041068Y0119407D01*
X0040997Y0119339D01*
X0040924Y0119274D01*
X0040848Y0119212D01*
X0040769Y0119152D01*
X0040689Y0119096D01*
X0040606Y0119043D01*
X0040522Y0118994D01*
X0040435Y0118947D01*
X0040347Y0118905D01*
X0040257Y0118865D01*
X0040165Y0118830D01*
X0040073Y0118797D01*
X0039979Y0118769D01*
X0039884Y0118744D01*
X0039788Y0118723D01*
X0039691Y0118706D01*
X0039594Y0118692D01*
X0039496Y0118683D01*
X0039398Y0118677D01*
X0039300Y0118675D01*
X0031800Y0118675D01*
X0027619Y0118491D02*
X0025625Y0118491D01*
X0025628Y0120090D02*
X0027619Y0120090D01*
X0027932Y0121688D02*
X0025123Y0121688D01*
X0023913Y0123287D02*
X0038782Y0123287D01*
X0027619Y0116893D02*
X0025114Y0116893D01*
X0023894Y0115294D02*
X0028224Y0115294D01*
X0024353Y0113696D02*
X0041619Y0113696D01*
X0041619Y0113586D02*
X0041742Y0113128D01*
X0041979Y0112717D01*
X0042314Y0112382D01*
X0042724Y0112145D01*
X0043182Y0112023D01*
X0045892Y0112023D01*
X0045892Y0115705D01*
X0041619Y0115705D01*
X0041619Y0113586D01*
X0041619Y0115294D02*
X0035376Y0115294D01*
X0042904Y0112097D02*
X0025618Y0112097D01*
X0023331Y0104105D02*
X0064494Y0104105D01*
X0064470Y0103978D02*
X0064470Y0103978D01*
X0064179Y0102506D02*
X0004200Y0102506D01*
X0004200Y0100908D02*
X0063030Y0100908D01*
X0064100Y0102107D02*
X0064100Y0102107D01*
X0067425Y0101800D02*
X0067425Y0096987D01*
X0072581Y0097711D02*
X0074925Y0097711D01*
X0074925Y0099309D02*
X0072581Y0099309D01*
X0072645Y0100908D02*
X0074925Y0100908D01*
X0074925Y0102506D02*
X0072856Y0102506D01*
X0072856Y0104105D02*
X0074925Y0104105D01*
X0074925Y0105703D02*
X0072856Y0105703D01*
X0072005Y0107302D02*
X0074925Y0107302D01*
X0081800Y0107302D02*
X0092200Y0107302D01*
X0092200Y0108900D02*
X0081800Y0108900D01*
X0081800Y0110499D02*
X0092200Y0110499D01*
X0092200Y0112097D02*
X0081800Y0112097D01*
X0081800Y0113696D02*
X0092200Y0113696D01*
X0092200Y0115294D02*
X0081800Y0115294D01*
X0081800Y0116893D02*
X0092200Y0116893D01*
X0092200Y0118491D02*
X0081800Y0118491D01*
X0081800Y0120090D02*
X0092200Y0120090D01*
X0092200Y0121688D02*
X0081800Y0121688D01*
X0081800Y0123287D02*
X0092200Y0123287D01*
X0092200Y0124885D02*
X0081800Y0124885D01*
X0081800Y0126484D02*
X0092200Y0126484D01*
X0092200Y0128082D02*
X0081800Y0128082D01*
X0081800Y0129681D02*
X0092200Y0129681D01*
X0092200Y0131279D02*
X0081800Y0131279D01*
X0081800Y0132878D02*
X0092200Y0132878D01*
X0092200Y0134476D02*
X0081800Y0134476D01*
X0081800Y0136075D02*
X0092200Y0136075D01*
X0092200Y0137673D02*
X0081800Y0137673D01*
X0081800Y0139272D02*
X0092200Y0139272D01*
X0092200Y0140870D02*
X0081800Y0140870D01*
X0081800Y0142469D02*
X0092200Y0142469D01*
X0092200Y0144068D02*
X0081800Y0144068D01*
X0081800Y0145666D02*
X0092200Y0145666D01*
X0092200Y0147265D02*
X0081800Y0147265D01*
X0081800Y0148863D02*
X0092200Y0148863D01*
X0092200Y0150462D02*
X0081800Y0150462D01*
X0081800Y0152060D02*
X0092200Y0152060D01*
X0092200Y0153659D02*
X0081800Y0153659D01*
X0081800Y0155257D02*
X0092217Y0155257D01*
X0092518Y0156856D02*
X0081800Y0156856D01*
X0081800Y0158454D02*
X0093232Y0158454D01*
X0094016Y0160053D02*
X0081800Y0160053D01*
X0081800Y0161651D02*
X0095171Y0161651D01*
X0096721Y0163250D02*
X0081800Y0163250D01*
X0081800Y0164848D02*
X0099113Y0164848D01*
X0097386Y0163935D02*
X0097386Y0163935D01*
X0101149Y0165925D02*
X0101149Y0165925D01*
X0074925Y0176038D02*
X0055494Y0176038D01*
X0055616Y0176159D02*
X0055981Y0177041D01*
X0055981Y0181558D01*
X0055616Y0182441D01*
X0055400Y0182656D01*
X0055400Y0183452D01*
X0056800Y0184852D01*
X0058433Y0183218D01*
X0060618Y0182313D01*
X0062982Y0182313D01*
X0065167Y0183218D01*
X0066838Y0184890D01*
X0067743Y0187074D01*
X0067743Y0196526D01*
X0066838Y0198710D01*
X0065167Y0200382D01*
X0062982Y0201287D01*
X0060618Y0201287D01*
X0058433Y0200382D01*
X0056800Y0198748D01*
X0055167Y0200382D01*
X0052982Y0201287D01*
X0050618Y0201287D01*
X0048433Y0200382D01*
X0046762Y0198710D01*
X0045857Y0196526D01*
X0045857Y0187074D01*
X0046762Y0184890D01*
X0048200Y0183452D01*
X0048200Y0182656D01*
X0047984Y0182441D01*
X0047619Y0181558D01*
X0047619Y0177041D01*
X0047984Y0176159D01*
X0048659Y0175484D01*
X0049541Y0175119D01*
X0054058Y0175119D01*
X0054941Y0175484D01*
X0055616Y0176159D01*
X0055981Y0177636D02*
X0074925Y0177636D01*
X0074925Y0179235D02*
X0055981Y0179235D01*
X0055981Y0180833D02*
X0074925Y0180833D01*
X0074925Y0182432D02*
X0063268Y0182432D01*
X0060332Y0182432D02*
X0055619Y0182432D01*
X0055979Y0184030D02*
X0057621Y0184030D01*
X0065979Y0184030D02*
X0074925Y0184030D01*
X0074925Y0185629D02*
X0067144Y0185629D01*
X0067743Y0187227D02*
X0074925Y0187227D01*
X0074925Y0188826D02*
X0067743Y0188826D01*
X0067743Y0190424D02*
X0074925Y0190424D01*
X0074925Y0192023D02*
X0067743Y0192023D01*
X0067743Y0193621D02*
X0074925Y0193621D01*
X0074925Y0195220D02*
X0067743Y0195220D01*
X0067622Y0196818D02*
X0074925Y0196818D01*
X0074925Y0198417D02*
X0066960Y0198417D01*
X0065533Y0200015D02*
X0074925Y0200015D01*
X0074925Y0201614D02*
X0004200Y0201614D01*
X0004200Y0203212D02*
X0074925Y0203212D01*
X0074925Y0204811D02*
X0004200Y0204811D01*
X0004200Y0200015D02*
X0013067Y0200015D01*
X0013433Y0200382D02*
X0011762Y0198710D01*
X0010857Y0196526D01*
X0010857Y0187074D01*
X0011762Y0184890D01*
X0013433Y0183218D01*
X0015618Y0182313D01*
X0017982Y0182313D01*
X0020167Y0183218D01*
X0021800Y0184852D01*
X0023433Y0183218D01*
X0025618Y0182313D01*
X0027982Y0182313D01*
X0030167Y0183218D01*
X0031838Y0184890D01*
X0032743Y0187074D01*
X0032743Y0196526D01*
X0031838Y0198710D01*
X0030167Y0200382D01*
X0027982Y0201287D01*
X0025618Y0201287D01*
X0023433Y0200382D01*
X0021800Y0198748D01*
X0020167Y0200382D01*
X0017982Y0201287D01*
X0015618Y0201287D01*
X0013433Y0200382D01*
X0011640Y0198417D02*
X0004200Y0198417D01*
X0004200Y0196818D02*
X0010978Y0196818D01*
X0010857Y0195220D02*
X0004200Y0195220D01*
X0004200Y0193621D02*
X0010857Y0193621D01*
X0010857Y0192023D02*
X0004200Y0192023D01*
X0004200Y0190424D02*
X0010857Y0190424D01*
X0010857Y0188826D02*
X0004200Y0188826D01*
X0004200Y0187227D02*
X0010857Y0187227D01*
X0011456Y0185629D02*
X0004200Y0185629D01*
X0004200Y0184030D02*
X0012621Y0184030D01*
X0015332Y0182432D02*
X0004200Y0182432D01*
X0004200Y0180833D02*
X0047619Y0180833D01*
X0047619Y0179235D02*
X0022428Y0179235D01*
X0024524Y0177636D02*
X0047619Y0177636D01*
X0048106Y0176038D02*
X0025397Y0176038D01*
X0017181Y0176038D02*
X0016419Y0176038D01*
X0016419Y0177636D02*
X0017181Y0177636D01*
X0017181Y0179235D02*
X0016419Y0179235D01*
X0018268Y0182432D02*
X0025332Y0182432D01*
X0028268Y0182432D02*
X0047981Y0182432D01*
X0047621Y0184030D02*
X0030979Y0184030D01*
X0032144Y0185629D02*
X0046456Y0185629D01*
X0045857Y0187227D02*
X0032743Y0187227D01*
X0032743Y0188826D02*
X0045857Y0188826D01*
X0045857Y0190424D02*
X0032743Y0190424D01*
X0032743Y0192023D02*
X0045857Y0192023D01*
X0045857Y0193621D02*
X0032743Y0193621D01*
X0032743Y0195220D02*
X0045857Y0195220D01*
X0045978Y0196818D02*
X0032622Y0196818D01*
X0031960Y0198417D02*
X0046640Y0198417D01*
X0048067Y0200015D02*
X0030533Y0200015D01*
X0023067Y0200015D02*
X0020533Y0200015D01*
X0020979Y0184030D02*
X0022621Y0184030D01*
X0011172Y0179235D02*
X0004200Y0179235D01*
X0004200Y0177636D02*
X0009076Y0177636D01*
X0008203Y0176038D02*
X0004200Y0176038D01*
X0055533Y0200015D02*
X0058067Y0200015D01*
X0050947Y0137673D02*
X0026103Y0137673D01*
X0025440Y0136075D02*
X0050744Y0136075D01*
X0050744Y0134476D02*
X0023925Y0134476D01*
X0017181Y0123287D02*
X0016419Y0123287D01*
X0016419Y0121688D02*
X0017181Y0121688D01*
X0017181Y0120090D02*
X0016419Y0120090D01*
X0016419Y0099309D02*
X0017181Y0099309D01*
X0017181Y0097711D02*
X0016419Y0097711D01*
X0016419Y0096112D02*
X0017181Y0096112D01*
X0022218Y0099309D02*
X0062269Y0099309D01*
X0062269Y0097711D02*
X0024470Y0097711D01*
X0024780Y0091317D02*
X0045939Y0091317D01*
X0045330Y0089718D02*
X0023120Y0089718D01*
X0024929Y0088120D02*
X0043813Y0088120D01*
X0043151Y0086521D02*
X0038014Y0086521D01*
X0033086Y0086521D02*
X0025856Y0086521D01*
X0026287Y0084923D02*
X0031468Y0084923D01*
X0031369Y0083324D02*
X0026287Y0083324D01*
X0025710Y0081726D02*
X0031369Y0081726D01*
X0031385Y0080127D02*
X0024575Y0080127D01*
X0021940Y0078529D02*
X0032604Y0078529D01*
X0050267Y0078529D02*
X0050833Y0078529D01*
X0050833Y0079455D02*
X0050833Y0075773D01*
X0053543Y0075773D01*
X0054001Y0075895D01*
X0054411Y0076132D01*
X0054746Y0076467D01*
X0054983Y0076878D01*
X0055106Y0077336D01*
X0055106Y0079455D01*
X0050833Y0079455D01*
X0050833Y0076930D02*
X0050267Y0076930D01*
X0054113Y0076175D02*
X0060550Y0076175D01*
X0054997Y0076930D02*
X0074925Y0076930D01*
X0074925Y0078529D02*
X0055106Y0078529D01*
X0054113Y0076175D02*
X0053996Y0076177D01*
X0053880Y0076183D01*
X0053764Y0076192D01*
X0053648Y0076205D01*
X0053533Y0076223D01*
X0053418Y0076243D01*
X0053304Y0076268D01*
X0053191Y0076296D01*
X0053079Y0076328D01*
X0052968Y0076364D01*
X0052858Y0076403D01*
X0052749Y0076446D01*
X0052643Y0076493D01*
X0052537Y0076542D01*
X0052433Y0076596D01*
X0052332Y0076652D01*
X0052231Y0076712D01*
X0052134Y0076775D01*
X0052038Y0076842D01*
X0051944Y0076911D01*
X0051853Y0076984D01*
X0051764Y0077059D01*
X0051677Y0077137D01*
X0051594Y0077219D01*
X0051512Y0077302D01*
X0051434Y0077389D01*
X0051359Y0077478D01*
X0051286Y0077569D01*
X0051217Y0077663D01*
X0051150Y0077759D01*
X0051087Y0077856D01*
X0051027Y0077956D01*
X0050971Y0078058D01*
X0050917Y0078162D01*
X0050868Y0078268D01*
X0050821Y0078374D01*
X0050778Y0078483D01*
X0050739Y0078593D01*
X0050703Y0078704D01*
X0050671Y0078816D01*
X0050643Y0078929D01*
X0050618Y0079043D01*
X0050598Y0079158D01*
X0050580Y0079273D01*
X0050567Y0079389D01*
X0050558Y0079505D01*
X0050552Y0079621D01*
X0050550Y0079738D01*
X0055106Y0080127D02*
X0074925Y0080127D01*
X0074925Y0081726D02*
X0055106Y0081726D01*
X0054453Y0083324D02*
X0074925Y0083324D01*
X0074925Y0084923D02*
X0055687Y0084923D01*
X0055706Y0086521D02*
X0062920Y0086521D01*
X0069925Y0080550D02*
X0069862Y0080385D01*
X0069796Y0080221D01*
X0069725Y0080059D01*
X0069651Y0079898D01*
X0069573Y0079740D01*
X0069491Y0079583D01*
X0069406Y0079428D01*
X0069316Y0079276D01*
X0069223Y0079126D01*
X0069127Y0078978D01*
X0069026Y0078832D01*
X0068923Y0078689D01*
X0068816Y0078548D01*
X0068705Y0078410D01*
X0068591Y0078275D01*
X0068474Y0078142D01*
X0068354Y0078013D01*
X0068231Y0077886D01*
X0068105Y0077762D01*
X0067975Y0077642D01*
X0067843Y0077524D01*
X0067708Y0077410D01*
X0067571Y0077299D01*
X0067430Y0077192D01*
X0067288Y0077087D01*
X0067142Y0076987D01*
X0066995Y0076890D01*
X0066845Y0076796D01*
X0066692Y0076706D01*
X0066538Y0076620D01*
X0066382Y0076538D01*
X0066223Y0076459D01*
X0066063Y0076384D01*
X0065901Y0076314D01*
X0065738Y0076247D01*
X0065572Y0076184D01*
X0065406Y0076125D01*
X0065238Y0076070D01*
X0065068Y0076019D01*
X0064898Y0075972D01*
X0064726Y0075930D01*
X0064554Y0075891D01*
X0064380Y0075857D01*
X0064206Y0075827D01*
X0064031Y0075801D01*
X0063856Y0075780D01*
X0063680Y0075762D01*
X0063504Y0075749D01*
X0063327Y0075740D01*
X0063150Y0075736D01*
X0062974Y0075735D01*
X0062797Y0075739D01*
X0062620Y0075748D01*
X0062444Y0075760D01*
X0062268Y0075777D01*
X0062092Y0075798D01*
X0061918Y0075823D01*
X0061743Y0075853D01*
X0061570Y0075886D01*
X0061397Y0075924D01*
X0061225Y0075966D01*
X0061055Y0076012D01*
X0060885Y0076063D01*
X0060717Y0076117D01*
X0060550Y0076175D01*
X0069925Y0080550D02*
X0070550Y0081800D01*
X0070418Y0085148D02*
X0067708Y0085148D01*
X0067708Y0088830D01*
X0071981Y0088830D01*
X0071981Y0086711D01*
X0071858Y0086253D01*
X0071621Y0085842D01*
X0071286Y0085507D01*
X0070876Y0085270D01*
X0070418Y0085148D01*
X0071930Y0086521D02*
X0074925Y0086521D01*
X0074925Y0088120D02*
X0071981Y0088120D01*
X0071981Y0089718D02*
X0074925Y0089718D01*
X0074925Y0091317D02*
X0071981Y0091317D01*
X0071669Y0092915D02*
X0074925Y0092915D01*
X0074925Y0094514D02*
X0072581Y0094514D01*
X0072581Y0096112D02*
X0074925Y0096112D01*
X0081800Y0100908D02*
X0092200Y0100908D01*
X0092200Y0102506D02*
X0081800Y0102506D01*
X0081800Y0104105D02*
X0092200Y0104105D01*
X0092200Y0105703D02*
X0081800Y0105703D01*
X0068676Y0103674D02*
X0068599Y0103657D01*
X0068524Y0103636D01*
X0068450Y0103611D01*
X0068377Y0103583D01*
X0068305Y0103551D01*
X0068236Y0103516D01*
X0068168Y0103478D01*
X0068102Y0103436D01*
X0068038Y0103391D01*
X0067976Y0103342D01*
X0067917Y0103291D01*
X0067860Y0103237D01*
X0067807Y0103181D01*
X0067756Y0103121D01*
X0067707Y0103060D01*
X0067663Y0102996D01*
X0067621Y0102930D01*
X0067582Y0102861D01*
X0067547Y0102792D01*
X0067516Y0102720D01*
X0067488Y0102647D01*
X0067463Y0102573D01*
X0067442Y0102497D01*
X0067425Y0102421D01*
X0067412Y0102344D01*
X0067403Y0102266D01*
X0067397Y0102189D01*
X0067395Y0102110D01*
X0067397Y0102032D01*
X0067403Y0101954D01*
X0067412Y0101877D01*
X0067426Y0101800D01*
X0067142Y0088120D02*
X0067708Y0088120D01*
X0067708Y0086521D02*
X0067142Y0086521D01*
X0085267Y0084923D02*
X0085833Y0084923D01*
X0089356Y0081726D02*
X0092200Y0081726D01*
X0122096Y0070536D02*
X0139004Y0070536D01*
X0141800Y0061800D02*
X0119300Y0061800D01*
X0120681Y0041763D02*
X0147919Y0041763D01*
X0147919Y0040164D02*
X0120681Y0040164D01*
X0120681Y0038566D02*
X0147919Y0038566D01*
X0153008Y0033770D02*
X0328450Y0033770D01*
X0328450Y0032172D02*
X0152960Y0032172D01*
X0153181Y0030573D02*
X0328450Y0030573D01*
X0328450Y0028975D02*
X0153181Y0028975D01*
X0153181Y0027376D02*
X0328450Y0027376D01*
X0328450Y0025778D02*
X0152600Y0025778D01*
X0152600Y0024179D02*
X0328450Y0024179D01*
X0328450Y0022581D02*
X0152600Y0022581D01*
X0152600Y0020982D02*
X0328450Y0020982D01*
X0328450Y0019384D02*
X0152600Y0019384D01*
X0152600Y0017785D02*
X0328450Y0017785D01*
X0328450Y0016187D02*
X0313400Y0016187D01*
X0313400Y0014588D02*
X0328450Y0014588D01*
X0328450Y0012990D02*
X0313400Y0012990D01*
X0313400Y0011391D02*
X0328450Y0011391D01*
X0328450Y0009793D02*
X0312387Y0009793D01*
X0306213Y0009793D02*
X0297854Y0009793D01*
X0297600Y0008194D02*
X0328450Y0008194D01*
X0328450Y0006596D02*
X0297600Y0006596D01*
X0297331Y0004997D02*
X0328450Y0004997D01*
X0295140Y0016187D02*
X0153181Y0016187D01*
X0153181Y0014588D02*
X0293224Y0014588D01*
X0294598Y0015962D02*
X0294598Y0015962D01*
X0291999Y0012990D02*
X0153181Y0012990D01*
X0152923Y0011391D02*
X0291337Y0011391D01*
X0291000Y0009793D02*
X0135100Y0009793D01*
X0135100Y0011391D02*
X0145677Y0011391D01*
X0145419Y0012990D02*
X0135100Y0012990D01*
X0135100Y0014588D02*
X0145419Y0014588D01*
X0145419Y0016187D02*
X0135100Y0016187D01*
X0135100Y0017785D02*
X0146000Y0017785D01*
X0146000Y0019384D02*
X0135900Y0019384D01*
X0135900Y0020982D02*
X0146000Y0020982D01*
X0146000Y0022581D02*
X0135900Y0022581D01*
X0135900Y0024179D02*
X0146000Y0024179D01*
X0146000Y0025778D02*
X0134792Y0025778D01*
X0128808Y0025778D02*
X0107600Y0025778D01*
X0107600Y0027376D02*
X0145419Y0027376D01*
X0145419Y0028975D02*
X0107600Y0028975D01*
X0107600Y0030573D02*
X0131495Y0030573D01*
X0130419Y0032172D02*
X0107600Y0032172D01*
X0107600Y0033770D02*
X0130419Y0033770D01*
X0130419Y0035369D02*
X0108011Y0035369D01*
X0120681Y0036967D02*
X0130435Y0036967D01*
X0137105Y0030573D02*
X0145419Y0030573D01*
X0154155Y0035369D02*
X0328450Y0035369D01*
X0328450Y0036967D02*
X0155681Y0036967D01*
X0155681Y0038566D02*
X0328450Y0038566D01*
X0328450Y0040164D02*
X0155681Y0040164D01*
X0113500Y0017785D02*
X0107139Y0017785D01*
X0107600Y0019384D02*
X0112919Y0019384D01*
X0112919Y0020982D02*
X0107600Y0020982D01*
X0107600Y0022581D02*
X0112919Y0022581D01*
X0112919Y0024179D02*
X0107600Y0024179D01*
X0106476Y0016187D02*
X0113351Y0016187D01*
X0135100Y0008194D02*
X0291000Y0008194D01*
X0253738Y0152716D02*
X0253738Y0152716D01*
X0061800Y0119300D02*
X0061175Y0119300D01*
X0061126Y0119298D01*
X0061077Y0119292D01*
X0061029Y0119283D01*
X0060982Y0119269D01*
X0060936Y0119252D01*
X0060891Y0119232D01*
X0060848Y0119208D01*
X0060808Y0119181D01*
X0060769Y0119150D01*
X0060733Y0119117D01*
X0060700Y0119081D01*
X0060669Y0119042D01*
X0060642Y0119002D01*
X0060618Y0118959D01*
X0060598Y0118914D01*
X0060581Y0118868D01*
X0060567Y0118821D01*
X0060558Y0118773D01*
X0060552Y0118724D01*
X0060550Y0118675D01*
X0046458Y0115294D02*
X0045892Y0115294D01*
X0045892Y0113696D02*
X0046458Y0113696D01*
X0046458Y0112097D02*
X0045892Y0112097D01*
X0051284Y0131279D02*
X0051325Y0131279D01*
X0050744Y0132878D02*
X0050178Y0132878D01*
X0008088Y0092915D02*
X0004200Y0092915D01*
X0004200Y0091317D02*
X0008820Y0091317D01*
X0010479Y0089718D02*
X0004200Y0089718D01*
X0004200Y0088120D02*
X0008671Y0088120D01*
X0007744Y0086521D02*
X0004200Y0086521D01*
X0004200Y0084923D02*
X0007313Y0084923D01*
X0007313Y0083324D02*
X0004200Y0083324D01*
X0004200Y0081726D02*
X0007890Y0081726D01*
X0009025Y0080127D02*
X0004200Y0080127D01*
X0004200Y0078529D02*
X0011660Y0078529D01*
X0017896Y0038212D02*
X0017896Y0038212D01*
X0014294Y0037121D02*
X0014294Y0037121D01*
D25*
X0131800Y0021800D03*
X0309300Y0029674D03*
X0309300Y0013675D03*
X0314300Y0006800D03*
D26*
X0086800Y0071800D03*
X0086800Y0106800D03*
X0086800Y0119300D03*
X0086800Y0131800D03*
X0086800Y0144300D03*
X0086800Y0156800D03*
X0086800Y0169300D03*
X0071800Y0186800D03*
X0071800Y0196800D03*
M02*
