G75*
%MOIN*%
%OFA0B0*%
%FSLAX25Y25*%
%IPPOS*%
%LPD*%
%AMOC8*
5,1,8,0,0,1.08239X$1,22.5*
%
%ADD10C,0.06800*%
%ADD11R,0.07099X0.05918*%
%ADD12OC8,0.10800*%
%ADD13OC8,0.15800*%
%ADD14C,0.07296*%
%ADD15C,0.07887*%
%ADD16R,0.06312X0.05131*%
%ADD17C,0.06800*%
%ADD18OC8,0.05800*%
%ADD19R,0.04362X0.04362*%
%ADD20R,0.04800X0.04800*%
%ADD21R,0.06400X0.06400*%
D10*
X0174300Y0156800D03*
X0309300Y0056800D03*
D11*
X0304300Y0075560D03*
X0304300Y0083040D03*
X0304300Y0130560D03*
X0304300Y0138040D03*
X0181800Y0136790D03*
X0181800Y0129310D03*
X0182425Y0083040D03*
X0182425Y0075560D03*
D12*
X0109300Y0109300D03*
X0109300Y0119300D03*
X0089300Y0189300D03*
X0094300Y0199300D03*
X0124300Y0199300D03*
X0129300Y0189300D03*
D13*
X0109300Y0189300D03*
D14*
X0166800Y0193552D02*
X0166800Y0200048D01*
X0176800Y0200048D02*
X0176800Y0193552D01*
X0186800Y0193552D02*
X0186800Y0200048D01*
X0286800Y0200048D02*
X0286800Y0193552D01*
X0296800Y0193552D02*
X0296800Y0200048D01*
X0306800Y0200048D02*
X0306800Y0193552D01*
D15*
X0061800Y0195343D02*
X0061800Y0188257D01*
X0051800Y0188257D02*
X0051800Y0195343D01*
X0026800Y0195343D02*
X0026800Y0188257D01*
X0016800Y0188257D02*
X0016800Y0195343D01*
X0020343Y0174300D02*
X0013257Y0174300D01*
X0013257Y0164300D02*
X0020343Y0164300D01*
X0020343Y0149300D02*
X0013257Y0149300D01*
X0013257Y0139300D02*
X0020343Y0139300D01*
X0020343Y0119300D02*
X0013257Y0119300D01*
X0013257Y0109300D02*
X0020343Y0109300D01*
X0020343Y0094300D02*
X0013257Y0094300D01*
X0013257Y0084300D02*
X0020343Y0084300D01*
D16*
X0050550Y0087612D03*
X0050550Y0079738D03*
X0067425Y0089113D03*
X0067425Y0096987D03*
X0085550Y0093237D03*
X0085550Y0085363D03*
X0046175Y0115988D03*
X0046175Y0123862D03*
X0096800Y0033237D03*
X0096800Y0025363D03*
D17*
X0010550Y0021050D02*
X0010550Y0015050D01*
X0020550Y0015050D02*
X0020550Y0021050D01*
X0030550Y0021050D02*
X0030550Y0015050D01*
X0043050Y0015050D02*
X0043050Y0021050D01*
X0053050Y0021050D02*
X0053050Y0015050D01*
X0063050Y0015050D02*
X0063050Y0021050D01*
D18*
X0174300Y0075550D03*
X0174300Y0083675D03*
X0174300Y0128675D03*
X0174300Y0136800D03*
X0234300Y0156800D03*
X0246800Y0196800D03*
X0311800Y0138050D03*
X0311800Y0075550D03*
D19*
X0160550Y0046800D03*
X0151800Y0039300D03*
X0149300Y0029300D03*
X0134300Y0034300D03*
X0126800Y0021800D03*
X0121800Y0021800D03*
X0116800Y0021800D03*
X0096800Y0019300D03*
X0096800Y0040550D03*
X0116800Y0039300D03*
X0119300Y0061800D03*
X0119300Y0066800D03*
X0141800Y0066800D03*
X0141800Y0061800D03*
X0154925Y0089300D03*
X0149300Y0094300D03*
X0138050Y0101800D03*
X0126800Y0106800D03*
X0123050Y0101800D03*
X0138675Y0111800D03*
X0091800Y0094925D03*
X0091800Y0083050D03*
X0073675Y0074925D03*
X0073675Y0067425D03*
X0066175Y0067425D03*
X0058675Y0067425D03*
X0051175Y0067425D03*
X0043675Y0067425D03*
X0031175Y0067425D03*
X0023675Y0067425D03*
X0016175Y0067425D03*
X0008675Y0067425D03*
X0029300Y0059300D03*
X0060550Y0076175D03*
X0070550Y0081800D03*
X0073675Y0099925D03*
X0068675Y0103675D03*
X0073675Y0107425D03*
X0073675Y0114925D03*
X0073675Y0124925D03*
X0060550Y0118675D03*
X0054925Y0111175D03*
X0031800Y0118675D03*
X0024300Y0129300D03*
X0046800Y0129300D03*
X0054925Y0134925D03*
X0059925Y0134925D03*
X0073675Y0134925D03*
X0073675Y0144925D03*
X0073675Y0154925D03*
X0059925Y0154925D03*
X0059925Y0144925D03*
X0059925Y0164925D03*
X0073675Y0164925D03*
X0073675Y0174925D03*
X0051800Y0179300D03*
X0035550Y0082425D03*
X0044300Y0033675D03*
X0149300Y0014300D03*
D20*
X0131800Y0021800D03*
X0309300Y0029674D03*
X0309300Y0013675D03*
X0314300Y0006800D03*
D21*
X0086800Y0071800D03*
X0086800Y0106800D03*
X0086800Y0119300D03*
X0086800Y0131800D03*
X0086800Y0144300D03*
X0086800Y0156800D03*
X0086800Y0169300D03*
X0071800Y0186800D03*
X0071800Y0196800D03*
M02*
