G75*
%MOIN*%
%OFA0B0*%
%FSLAX25Y25*%
%IPPOS*%
%LPD*%
%AMOC8*
5,1,8,0,0,1.08239X$1,22.5*
%
%ADD10C,0.01300*%
%ADD11R,0.45000X0.15000*%
%ADD12R,1.12800X0.00075*%
%ADD13R,1.13100X0.00075*%
%ADD14R,1.13250X0.00075*%
%ADD15R,0.00750X0.00075*%
%ADD16R,0.09750X0.00075*%
%ADD17R,0.00675X0.00075*%
%ADD18R,0.02325X0.00075*%
%ADD19R,0.10650X0.00075*%
%ADD20R,0.07125X0.00075*%
%ADD21R,0.01275X0.00075*%
%ADD22R,0.10950X0.00075*%
%ADD23R,0.01575X0.00075*%
%ADD24R,0.02925X0.00075*%
%ADD25R,0.11325X0.00075*%
%ADD26R,0.00150X0.00075*%
%ADD27R,0.01875X0.00075*%
%ADD28R,0.11625X0.00075*%
%ADD29R,0.02025X0.00075*%
%ADD30R,0.07950X0.00075*%
%ADD31R,0.11925X0.00075*%
%ADD32R,0.02175X0.00075*%
%ADD33R,0.03225X0.00075*%
%ADD34R,0.12150X0.00075*%
%ADD35R,0.00450X0.00075*%
%ADD36R,0.02475X0.00075*%
%ADD37R,0.12450X0.00075*%
%ADD38R,0.00525X0.00075*%
%ADD39R,0.02625X0.00075*%
%ADD40R,0.01350X0.00075*%
%ADD41R,0.00975X0.00075*%
%ADD42R,0.12750X0.00075*%
%ADD43R,0.00225X0.00075*%
%ADD44R,0.05700X0.00075*%
%ADD45R,0.12900X0.00075*%
%ADD46R,0.02775X0.00075*%
%ADD47R,0.00375X0.00075*%
%ADD48R,0.13125X0.00075*%
%ADD49R,0.00300X0.00075*%
%ADD50R,0.05925X0.00075*%
%ADD51R,0.01725X0.00075*%
%ADD52R,0.13350X0.00075*%
%ADD53R,0.05850X0.00075*%
%ADD54R,0.03075X0.00075*%
%ADD55R,0.13500X0.00075*%
%ADD56R,0.02400X0.00075*%
%ADD57R,0.03150X0.00075*%
%ADD58R,0.00825X0.00075*%
%ADD59R,0.13725X0.00075*%
%ADD60R,0.01125X0.00075*%
%ADD61R,0.13950X0.00075*%
%ADD62R,0.03000X0.00075*%
%ADD63R,0.06600X0.00075*%
%ADD64R,0.14100X0.00075*%
%ADD65R,0.03375X0.00075*%
%ADD66R,0.01425X0.00075*%
%ADD67R,0.14250X0.00075*%
%ADD68R,0.14325X0.00075*%
%ADD69R,0.00075X0.00075*%
%ADD70R,0.01650X0.00075*%
%ADD71R,0.14475X0.00075*%
%ADD72R,0.01500X0.00075*%
%ADD73R,0.01950X0.00075*%
%ADD74R,0.11475X0.00075*%
%ADD75R,0.02700X0.00075*%
%ADD76R,0.06900X0.00075*%
%ADD77R,0.03825X0.00075*%
%ADD78R,0.02250X0.00075*%
%ADD79R,0.03600X0.00075*%
%ADD80R,0.02850X0.00075*%
%ADD81R,0.06825X0.00075*%
%ADD82R,0.03750X0.00075*%
%ADD83R,0.09000X0.00075*%
%ADD84R,0.04725X0.00075*%
%ADD85R,0.03525X0.00075*%
%ADD86R,0.01050X0.00075*%
%ADD87R,0.02550X0.00075*%
%ADD88R,0.03675X0.00075*%
%ADD89R,0.00600X0.00075*%
%ADD90R,0.07275X0.00075*%
%ADD91R,0.04275X0.00075*%
%ADD92R,0.07050X0.00075*%
%ADD93R,0.04050X0.00075*%
%ADD94R,0.02100X0.00075*%
%ADD95R,0.07800X0.00075*%
%ADD96R,0.06750X0.00075*%
%ADD97R,0.03900X0.00075*%
%ADD98R,0.06675X0.00075*%
%ADD99R,0.03975X0.00075*%
%ADD100R,0.04125X0.00075*%
%ADD101R,0.04875X0.00075*%
%ADD102R,0.05025X0.00075*%
%ADD103R,0.04200X0.00075*%
%ADD104R,0.01800X0.00075*%
%ADD105R,0.05400X0.00075*%
%ADD106R,0.04350X0.00075*%
%ADD107R,0.04425X0.00075*%
%ADD108R,0.04500X0.00075*%
%ADD109R,0.04575X0.00075*%
%ADD110R,0.00900X0.00075*%
%ADD111R,0.04650X0.00075*%
%ADD112R,0.03450X0.00075*%
%ADD113R,0.08025X0.00075*%
%ADD114R,0.07650X0.00075*%
%ADD115R,0.07575X0.00075*%
%ADD116R,0.07725X0.00075*%
%ADD117R,0.01200X0.00075*%
%ADD118R,0.03300X0.00075*%
%ADD119R,0.07500X0.00075*%
%ADD120R,0.07425X0.00075*%
%ADD121R,0.06300X0.00075*%
%ADD122R,0.06450X0.00075*%
%ADD123R,0.06525X0.00075*%
%ADD124R,0.07200X0.00075*%
%ADD125R,0.08775X0.00075*%
%ADD126R,0.08925X0.00075*%
%ADD127R,0.07875X0.00075*%
%ADD128R,0.08175X0.00075*%
%ADD129R,0.08100X0.00075*%
%ADD130R,0.16500X0.00075*%
%ADD131R,0.25875X0.00075*%
%ADD132R,0.16425X0.00075*%
%ADD133R,0.22125X0.00075*%
%ADD134R,0.16350X0.00075*%
%ADD135R,0.21975X0.00075*%
%ADD136R,0.15000X0.00075*%
%ADD137R,0.21825X0.00075*%
%ADD138R,0.14850X0.00075*%
%ADD139R,0.21675X0.00075*%
%ADD140R,0.14625X0.00075*%
%ADD141R,0.14550X0.00075*%
%ADD142R,0.14175X0.00075*%
%ADD143R,0.15150X0.00075*%
%ADD144R,0.14700X0.00075*%
%ADD145R,0.14025X0.00075*%
%ADD146R,0.13575X0.00075*%
%ADD147R,0.04800X0.00075*%
%ADD148C,0.00000*%
%ADD149C,0.05000*%
%ADD150C,0.00600*%
%ADD151R,0.05600X0.01400*%
%ADD152C,0.00400*%
%ADD153R,0.05118X0.01969*%
%ADD154C,0.00300*%
D10*
X0189194Y0121654D02*
X0190245Y0121654D01*
X0192347Y0119552D01*
X0192347Y0117450D02*
X0192347Y0121654D01*
X0195141Y0120603D02*
X0195141Y0119552D01*
X0199345Y0119552D01*
X0199345Y0120603D02*
X0198294Y0121654D01*
X0196192Y0121654D01*
X0195141Y0120603D01*
X0196192Y0117450D02*
X0198294Y0117450D01*
X0199345Y0118501D01*
X0199345Y0120603D01*
X0201908Y0121654D02*
X0204010Y0121654D01*
X0202959Y0122704D02*
X0202959Y0118501D01*
X0201908Y0117450D01*
X0206804Y0119552D02*
X0211008Y0119552D01*
X0211008Y0120603D02*
X0209957Y0121654D01*
X0207855Y0121654D01*
X0206804Y0120603D01*
X0206804Y0119552D01*
X0207855Y0117450D02*
X0209957Y0117450D01*
X0211008Y0118501D01*
X0211008Y0120603D01*
X0213802Y0120603D02*
X0213802Y0117450D01*
X0215904Y0117450D02*
X0215904Y0120603D01*
X0214853Y0121654D01*
X0213802Y0120603D01*
X0215904Y0120603D02*
X0216955Y0121654D01*
X0218006Y0121654D01*
X0218006Y0117450D01*
X0220570Y0117450D02*
X0222671Y0117450D01*
X0221620Y0117450D02*
X0221620Y0121654D01*
X0222671Y0121654D01*
X0221620Y0123755D02*
X0221620Y0124806D01*
X0225235Y0121654D02*
X0227337Y0121654D01*
X0226286Y0122704D02*
X0226286Y0118501D01*
X0225235Y0117450D01*
X0229900Y0117450D02*
X0232002Y0117450D01*
X0230951Y0117450D02*
X0230951Y0123755D01*
X0232002Y0123755D01*
X0234796Y0121654D02*
X0234796Y0117450D01*
X0237949Y0117450D01*
X0239000Y0118501D01*
X0239000Y0121654D01*
X0241794Y0120603D02*
X0241794Y0117450D01*
X0243896Y0117450D02*
X0243896Y0120603D01*
X0242845Y0121654D01*
X0241794Y0120603D01*
X0243896Y0120603D02*
X0244947Y0121654D01*
X0245998Y0121654D01*
X0245998Y0117450D01*
X0255790Y0118501D02*
X0256841Y0119552D01*
X0258943Y0119552D01*
X0259994Y0120603D01*
X0258943Y0121654D01*
X0255790Y0121654D01*
X0255790Y0118501D02*
X0256841Y0117450D01*
X0259994Y0117450D01*
X0263493Y0121654D02*
X0262442Y0122704D01*
X0262442Y0124806D01*
X0266287Y0121654D02*
X0269440Y0121654D01*
X0270491Y0120603D01*
X0270491Y0118501D01*
X0269440Y0117450D01*
X0266287Y0117450D01*
X0273285Y0119552D02*
X0277489Y0119552D01*
X0277489Y0120603D02*
X0276438Y0121654D01*
X0274336Y0121654D01*
X0273285Y0120603D01*
X0273285Y0119552D01*
X0274336Y0117450D02*
X0276438Y0117450D01*
X0277489Y0118501D01*
X0277489Y0120603D01*
X0280052Y0117450D02*
X0282154Y0117450D01*
X0281103Y0117450D02*
X0281103Y0123755D01*
X0282154Y0123755D01*
X0284948Y0120603D02*
X0284948Y0119552D01*
X0289152Y0119552D01*
X0289152Y0120603D02*
X0288101Y0121654D01*
X0285999Y0121654D01*
X0284948Y0120603D01*
X0285999Y0117450D02*
X0288101Y0117450D01*
X0289152Y0118501D01*
X0289152Y0120603D01*
X0294048Y0123755D02*
X0294048Y0117450D01*
X0296150Y0123755D02*
X0291946Y0123755D01*
X0291150Y0091255D02*
X0289048Y0089154D01*
X0286946Y0091255D01*
X0286946Y0084950D01*
X0284152Y0086001D02*
X0283101Y0087052D01*
X0279948Y0087052D01*
X0279948Y0088103D02*
X0279948Y0084950D01*
X0283101Y0084950D01*
X0284152Y0086001D01*
X0280999Y0089154D02*
X0279948Y0088103D01*
X0280999Y0089154D02*
X0283101Y0089154D01*
X0277154Y0089154D02*
X0272950Y0084950D01*
X0277154Y0084950D02*
X0272950Y0089154D01*
X0263158Y0089154D02*
X0261056Y0084950D01*
X0258955Y0089154D01*
X0256160Y0088103D02*
X0256160Y0086001D01*
X0255109Y0084950D01*
X0253007Y0084950D01*
X0251957Y0086001D01*
X0251957Y0088103D01*
X0253007Y0089154D01*
X0255109Y0089154D01*
X0256160Y0088103D01*
X0249162Y0091255D02*
X0248111Y0091255D01*
X0248111Y0084950D01*
X0249162Y0084950D02*
X0247060Y0084950D01*
X0243446Y0086001D02*
X0242395Y0084950D01*
X0243446Y0086001D02*
X0243446Y0090204D01*
X0244497Y0089154D02*
X0242395Y0089154D01*
X0239832Y0089154D02*
X0239832Y0088103D01*
X0238781Y0088103D01*
X0238781Y0089154D01*
X0239832Y0089154D01*
X0239832Y0086001D02*
X0238781Y0086001D01*
X0238781Y0084950D01*
X0239832Y0084950D01*
X0239832Y0086001D01*
X0239664Y0069154D02*
X0238613Y0069154D01*
X0238613Y0068103D01*
X0239664Y0068103D01*
X0239664Y0069154D01*
X0242459Y0068103D02*
X0242459Y0066001D01*
X0243509Y0064950D01*
X0246662Y0064950D01*
X0246662Y0062848D02*
X0246662Y0069154D01*
X0243509Y0069154D01*
X0242459Y0068103D01*
X0239664Y0066001D02*
X0238613Y0066001D01*
X0238613Y0064950D01*
X0239664Y0064950D01*
X0239664Y0066001D01*
X0249457Y0064950D02*
X0249457Y0068103D01*
X0250507Y0069154D01*
X0251558Y0068103D01*
X0251558Y0064950D01*
X0253660Y0064950D02*
X0253660Y0069154D01*
X0252609Y0069154D01*
X0251558Y0068103D01*
X0256455Y0068103D02*
X0256455Y0064950D01*
X0259607Y0064950D01*
X0260658Y0066001D01*
X0259607Y0067052D01*
X0256455Y0067052D01*
X0256455Y0068103D02*
X0257505Y0069154D01*
X0259607Y0069154D01*
X0270450Y0069154D02*
X0274654Y0064950D01*
X0277448Y0064950D02*
X0277448Y0068103D01*
X0278499Y0069154D01*
X0280601Y0069154D01*
X0280601Y0067052D02*
X0277448Y0067052D01*
X0277448Y0064950D02*
X0280601Y0064950D01*
X0281652Y0066001D01*
X0280601Y0067052D01*
X0284446Y0064950D02*
X0284446Y0071255D01*
X0286548Y0069154D01*
X0288650Y0071255D01*
X0288650Y0064950D01*
X0274654Y0069154D02*
X0270450Y0064950D01*
X0291150Y0084950D02*
X0291150Y0091255D01*
D11*
X0214300Y0086800D03*
X0214300Y0066800D03*
D12*
X0241987Y0041400D03*
X0241987Y0005925D03*
D13*
X0241987Y0006000D03*
X0241987Y0006075D03*
X0241987Y0041250D03*
X0241987Y0041325D03*
D14*
X0241987Y0041175D03*
X0241987Y0041100D03*
X0241987Y0041025D03*
X0241987Y0040950D03*
X0241987Y0040875D03*
X0241987Y0040800D03*
X0241987Y0040725D03*
X0241987Y0006525D03*
X0241987Y0006450D03*
X0241987Y0006375D03*
X0241987Y0006300D03*
X0241987Y0006225D03*
X0241987Y0006150D03*
D15*
X0268688Y0011250D03*
X0268688Y0011325D03*
X0268688Y0011400D03*
X0268688Y0011475D03*
X0268688Y0011550D03*
X0268688Y0011625D03*
X0268688Y0011700D03*
X0268688Y0011775D03*
X0268688Y0011850D03*
X0268688Y0011925D03*
X0268688Y0012000D03*
X0268688Y0012075D03*
X0268688Y0012150D03*
X0268688Y0012225D03*
X0268688Y0012300D03*
X0268688Y0012375D03*
X0268688Y0012450D03*
X0268688Y0012525D03*
X0268688Y0012600D03*
X0268688Y0012675D03*
X0268688Y0012750D03*
X0268688Y0012825D03*
X0268688Y0012900D03*
X0268688Y0012975D03*
X0268688Y0013050D03*
X0268688Y0013125D03*
X0268688Y0013200D03*
X0268688Y0013275D03*
X0268688Y0013350D03*
X0268688Y0013425D03*
X0268688Y0013500D03*
X0268688Y0013575D03*
X0268688Y0013650D03*
X0268688Y0013725D03*
X0268688Y0013800D03*
X0268688Y0013875D03*
X0268688Y0013950D03*
X0268688Y0014025D03*
X0268688Y0014100D03*
X0268688Y0014175D03*
X0268688Y0014250D03*
X0268688Y0014325D03*
X0268688Y0014400D03*
X0268688Y0014475D03*
X0268688Y0014550D03*
X0268688Y0014625D03*
X0268688Y0014700D03*
X0268688Y0014775D03*
X0268688Y0014850D03*
X0268688Y0014925D03*
X0268688Y0015000D03*
X0268688Y0015075D03*
X0268688Y0015150D03*
X0268688Y0015225D03*
X0268688Y0015300D03*
X0268688Y0015375D03*
X0268688Y0017325D03*
X0268688Y0017400D03*
X0268688Y0017475D03*
X0268688Y0017550D03*
X0268688Y0017625D03*
X0268688Y0017700D03*
X0268688Y0017775D03*
X0268688Y0017850D03*
X0268688Y0017925D03*
X0268688Y0018000D03*
X0268688Y0018075D03*
X0268688Y0018150D03*
X0268688Y0018225D03*
X0268688Y0018300D03*
X0268688Y0018375D03*
X0268688Y0018450D03*
X0268688Y0018525D03*
X0268688Y0018600D03*
X0268688Y0018675D03*
X0268688Y0018750D03*
X0268688Y0018825D03*
X0268688Y0018900D03*
X0268688Y0018975D03*
X0268688Y0019050D03*
X0268688Y0019125D03*
X0268688Y0019200D03*
X0268688Y0019275D03*
X0268688Y0019350D03*
X0268688Y0019425D03*
X0268688Y0019500D03*
X0268688Y0019575D03*
X0268688Y0019650D03*
X0268688Y0019725D03*
X0268688Y0019800D03*
X0268688Y0019875D03*
X0268688Y0019950D03*
X0268688Y0020025D03*
X0268688Y0020100D03*
X0268688Y0020175D03*
X0268688Y0020250D03*
X0268688Y0020325D03*
X0268688Y0020400D03*
X0268688Y0020475D03*
X0268688Y0020550D03*
X0268688Y0020625D03*
X0268688Y0020700D03*
X0268688Y0020775D03*
X0268688Y0020850D03*
X0268688Y0020925D03*
X0268688Y0021000D03*
X0268688Y0021075D03*
X0268688Y0021150D03*
X0268688Y0021225D03*
X0268688Y0021300D03*
X0268688Y0021375D03*
X0268688Y0024675D03*
X0268688Y0024750D03*
X0268688Y0024825D03*
X0268688Y0024900D03*
X0268688Y0024975D03*
X0268688Y0025050D03*
X0268688Y0025125D03*
X0268688Y0025200D03*
X0268688Y0025275D03*
X0268688Y0025350D03*
X0268688Y0025425D03*
X0268688Y0025500D03*
X0268688Y0025575D03*
X0268688Y0025650D03*
X0268688Y0025725D03*
X0268688Y0025800D03*
X0268688Y0025875D03*
X0268688Y0025950D03*
X0268688Y0026025D03*
X0268688Y0026100D03*
X0268688Y0026175D03*
X0268688Y0026250D03*
X0268688Y0026325D03*
X0268688Y0026400D03*
X0268688Y0026475D03*
X0268688Y0026550D03*
X0268688Y0026625D03*
X0268688Y0026700D03*
X0268688Y0026775D03*
X0268688Y0026850D03*
X0268688Y0026925D03*
X0268688Y0027000D03*
X0268688Y0027075D03*
X0268688Y0027150D03*
X0268688Y0027225D03*
X0268688Y0027300D03*
X0268688Y0027375D03*
X0268688Y0027450D03*
X0268688Y0027525D03*
X0268688Y0027600D03*
X0268688Y0027675D03*
X0268688Y0027750D03*
X0268688Y0027825D03*
X0268688Y0027900D03*
X0268688Y0027975D03*
X0268688Y0028050D03*
X0268688Y0028125D03*
X0268688Y0028200D03*
X0268688Y0028275D03*
X0268688Y0028350D03*
X0268688Y0028425D03*
X0268688Y0030075D03*
X0268688Y0030150D03*
X0268688Y0030225D03*
X0268688Y0030300D03*
X0268688Y0030375D03*
X0268688Y0030450D03*
X0268688Y0030525D03*
X0268688Y0030600D03*
X0268688Y0030675D03*
X0268688Y0030750D03*
X0268688Y0030825D03*
X0268688Y0030900D03*
X0268688Y0030975D03*
X0268688Y0031050D03*
X0268688Y0031125D03*
X0268688Y0031200D03*
X0268688Y0031275D03*
X0268688Y0031350D03*
X0268688Y0031425D03*
X0268688Y0031500D03*
X0268688Y0031575D03*
X0268688Y0031650D03*
X0268688Y0031725D03*
X0268688Y0031800D03*
X0268688Y0031875D03*
X0268688Y0031950D03*
X0268688Y0032025D03*
X0268688Y0032100D03*
X0268688Y0032175D03*
X0268688Y0032250D03*
X0268688Y0032325D03*
X0268688Y0032400D03*
X0268688Y0032475D03*
X0268688Y0032550D03*
X0268688Y0032625D03*
X0268688Y0032700D03*
X0268688Y0032775D03*
X0268688Y0032850D03*
X0268688Y0032925D03*
X0268688Y0033000D03*
X0268688Y0033075D03*
X0268688Y0033150D03*
X0268688Y0033225D03*
X0268688Y0033300D03*
X0268688Y0033375D03*
X0268688Y0033450D03*
X0268688Y0033525D03*
X0268688Y0033600D03*
X0268688Y0033675D03*
X0268688Y0033750D03*
X0268688Y0033825D03*
X0268688Y0033900D03*
X0268688Y0033975D03*
X0268688Y0034050D03*
X0268688Y0034125D03*
X0268688Y0034200D03*
X0268688Y0034275D03*
X0268688Y0034350D03*
X0268688Y0034425D03*
X0268688Y0034500D03*
X0268688Y0034575D03*
X0268688Y0034650D03*
X0268688Y0034725D03*
X0268688Y0034800D03*
X0268688Y0034875D03*
X0245362Y0036375D03*
X0245362Y0036450D03*
X0245362Y0036525D03*
X0245362Y0036600D03*
X0245362Y0036675D03*
X0245362Y0036750D03*
X0245362Y0036825D03*
X0245362Y0036900D03*
X0245362Y0036975D03*
X0245362Y0037050D03*
X0245362Y0037125D03*
X0245362Y0037200D03*
X0245362Y0037275D03*
X0245362Y0037350D03*
X0245362Y0037425D03*
X0245362Y0037500D03*
X0206212Y0033450D03*
X0203587Y0032700D03*
X0203512Y0032775D03*
X0203437Y0032850D03*
X0205987Y0030300D03*
X0205987Y0030225D03*
X0205987Y0030150D03*
X0205987Y0029700D03*
X0205987Y0029625D03*
X0205987Y0029550D03*
X0205987Y0029475D03*
X0205987Y0029400D03*
X0205987Y0029325D03*
X0205987Y0023550D03*
X0205987Y0023475D03*
X0205987Y0023400D03*
X0205987Y0023325D03*
X0205987Y0023250D03*
X0205987Y0023175D03*
X0205987Y0023100D03*
X0205987Y0021975D03*
X0205987Y0021900D03*
X0205987Y0021825D03*
X0205987Y0021750D03*
X0205987Y0021675D03*
X0205987Y0021600D03*
X0205987Y0021525D03*
X0205987Y0021450D03*
X0206062Y0015675D03*
X0206062Y0015600D03*
X0206062Y0015525D03*
X0206062Y0015450D03*
X0206062Y0015375D03*
X0206062Y0015300D03*
X0213187Y0007725D03*
X0190237Y0011100D03*
X0190237Y0011175D03*
X0190237Y0011250D03*
X0190237Y0011475D03*
X0190237Y0011550D03*
X0185737Y0011550D03*
X0185737Y0011625D03*
X0185737Y0011700D03*
X0185737Y0011775D03*
X0185737Y0011850D03*
X0185737Y0011925D03*
X0185737Y0012000D03*
X0185737Y0012075D03*
X0185737Y0012150D03*
X0185737Y0012225D03*
X0185737Y0012300D03*
X0185737Y0012375D03*
X0185737Y0012450D03*
X0185737Y0012525D03*
X0185737Y0012600D03*
X0185737Y0012675D03*
X0185737Y0012750D03*
X0185737Y0012825D03*
X0185737Y0012900D03*
X0185737Y0012975D03*
X0185737Y0013050D03*
X0185737Y0013125D03*
X0185737Y0013200D03*
X0185737Y0013275D03*
X0185737Y0013350D03*
X0185737Y0013425D03*
X0185737Y0013500D03*
X0185737Y0013575D03*
X0185737Y0013650D03*
X0185737Y0013725D03*
X0185737Y0013800D03*
X0185737Y0013875D03*
X0185737Y0013950D03*
X0185737Y0014025D03*
X0185737Y0014100D03*
X0185737Y0014175D03*
X0185737Y0014250D03*
X0185737Y0014325D03*
X0185737Y0014400D03*
X0185737Y0014475D03*
X0185737Y0014550D03*
X0185737Y0014625D03*
X0185737Y0014700D03*
X0185737Y0014775D03*
X0185737Y0014850D03*
X0185737Y0014925D03*
X0185737Y0015000D03*
X0185737Y0015075D03*
X0185737Y0015150D03*
X0185737Y0015225D03*
X0185737Y0015300D03*
X0185737Y0015375D03*
X0185737Y0015450D03*
X0185737Y0015525D03*
X0185737Y0015600D03*
X0185737Y0015675D03*
X0185737Y0015750D03*
X0185737Y0015825D03*
X0185737Y0015900D03*
X0185737Y0015975D03*
X0185737Y0016050D03*
X0185737Y0016125D03*
X0185737Y0016200D03*
X0185737Y0016275D03*
X0185737Y0016350D03*
X0185737Y0016425D03*
X0185737Y0016500D03*
X0185737Y0016575D03*
X0185737Y0016650D03*
X0185737Y0016725D03*
X0185737Y0016800D03*
X0185737Y0016875D03*
X0185737Y0016950D03*
X0185737Y0017025D03*
X0185737Y0017100D03*
X0185737Y0017175D03*
X0185737Y0017250D03*
X0185737Y0017325D03*
X0185737Y0017400D03*
X0185737Y0017475D03*
X0185737Y0017550D03*
X0185737Y0017625D03*
X0185737Y0017700D03*
X0185737Y0017775D03*
X0185737Y0017850D03*
X0185737Y0017925D03*
X0185737Y0018000D03*
X0185737Y0018075D03*
X0185737Y0018150D03*
X0185737Y0018225D03*
X0185737Y0018300D03*
X0185737Y0018375D03*
X0185737Y0018450D03*
X0185737Y0018525D03*
X0185737Y0018600D03*
X0185737Y0018675D03*
X0185737Y0018750D03*
X0185737Y0018825D03*
X0185737Y0018900D03*
X0185737Y0018975D03*
X0185737Y0019050D03*
X0185737Y0019125D03*
X0185737Y0019200D03*
X0185737Y0019275D03*
X0185737Y0019350D03*
X0185737Y0019425D03*
X0185737Y0019500D03*
X0185737Y0019575D03*
X0185737Y0019650D03*
X0185737Y0019725D03*
X0185737Y0019800D03*
X0185737Y0019875D03*
X0185737Y0019950D03*
X0185737Y0020025D03*
X0185737Y0020100D03*
X0185737Y0020175D03*
X0185737Y0020250D03*
X0185737Y0020325D03*
X0185737Y0020400D03*
X0185737Y0020475D03*
X0185737Y0020550D03*
X0185737Y0020625D03*
X0185737Y0020700D03*
X0185737Y0020775D03*
X0185737Y0020850D03*
X0185737Y0020925D03*
X0185737Y0021000D03*
X0185737Y0021075D03*
X0185737Y0021150D03*
X0185737Y0021225D03*
X0185737Y0021300D03*
X0185737Y0021375D03*
X0185737Y0021450D03*
X0185737Y0021525D03*
X0185737Y0021600D03*
X0185737Y0021675D03*
X0185737Y0021750D03*
X0185737Y0021825D03*
X0185737Y0021900D03*
X0185737Y0021975D03*
X0185737Y0022050D03*
X0185737Y0022125D03*
X0185737Y0022200D03*
X0185737Y0022275D03*
X0185737Y0022350D03*
X0185737Y0022425D03*
X0185737Y0022500D03*
X0185737Y0022575D03*
X0185737Y0022650D03*
X0185737Y0022725D03*
X0185737Y0022800D03*
X0185737Y0022875D03*
X0185737Y0022950D03*
X0185737Y0023025D03*
X0185737Y0023100D03*
X0185737Y0023175D03*
X0185737Y0023250D03*
X0185737Y0023325D03*
X0185737Y0023400D03*
X0185737Y0023475D03*
X0185737Y0023550D03*
X0185737Y0023625D03*
X0185737Y0023700D03*
X0185737Y0023775D03*
X0185737Y0023850D03*
X0185737Y0023925D03*
X0185737Y0024000D03*
X0185737Y0024075D03*
X0185737Y0024150D03*
X0185737Y0024225D03*
X0185737Y0024300D03*
X0185737Y0024375D03*
X0185737Y0024450D03*
X0185737Y0024525D03*
X0185737Y0024600D03*
X0185737Y0024675D03*
X0185737Y0024750D03*
X0185737Y0024825D03*
X0185737Y0024900D03*
X0185737Y0024975D03*
X0185737Y0025050D03*
X0185737Y0025125D03*
X0185737Y0025200D03*
X0185737Y0025275D03*
X0185737Y0025350D03*
X0185737Y0025425D03*
X0185737Y0025500D03*
X0185737Y0025575D03*
X0185737Y0025650D03*
X0185737Y0025725D03*
X0185737Y0025800D03*
X0185737Y0025875D03*
X0185737Y0025950D03*
X0185737Y0026025D03*
X0185737Y0026100D03*
X0185737Y0026175D03*
X0185737Y0026250D03*
X0185737Y0026325D03*
X0185737Y0026400D03*
X0185737Y0026475D03*
X0185737Y0026550D03*
X0185737Y0026625D03*
X0185737Y0026700D03*
X0185737Y0026775D03*
X0185737Y0026850D03*
X0185737Y0026925D03*
X0185737Y0027000D03*
X0185737Y0027075D03*
X0185737Y0027150D03*
X0185737Y0027225D03*
X0185737Y0027300D03*
X0185737Y0027375D03*
X0185737Y0027450D03*
X0185737Y0027525D03*
X0185737Y0027600D03*
X0185737Y0027675D03*
X0185737Y0027750D03*
X0185737Y0027825D03*
X0185737Y0027900D03*
X0185737Y0027975D03*
X0185737Y0028050D03*
X0185737Y0028125D03*
X0185737Y0028200D03*
X0185737Y0028275D03*
X0185737Y0028350D03*
X0185737Y0028425D03*
X0185737Y0028500D03*
X0185737Y0028575D03*
X0185737Y0028650D03*
X0185737Y0028725D03*
X0185737Y0028800D03*
X0185737Y0028875D03*
X0185737Y0028950D03*
X0185737Y0029025D03*
X0185737Y0029100D03*
X0185737Y0029175D03*
X0185737Y0029250D03*
X0185737Y0029325D03*
X0185737Y0029400D03*
X0185737Y0029475D03*
X0185737Y0029550D03*
X0185737Y0029625D03*
X0185737Y0029700D03*
X0185737Y0029775D03*
X0185737Y0029850D03*
X0185737Y0029925D03*
X0185737Y0030000D03*
X0185737Y0030075D03*
X0185737Y0030150D03*
X0185737Y0030225D03*
X0185737Y0030300D03*
X0185737Y0030375D03*
X0185737Y0030450D03*
X0185737Y0030525D03*
X0185737Y0030600D03*
X0185737Y0030675D03*
X0185737Y0030750D03*
X0185737Y0030825D03*
X0185737Y0030900D03*
X0185737Y0030975D03*
X0185737Y0031050D03*
X0185737Y0031125D03*
X0185737Y0031200D03*
X0185737Y0031275D03*
X0185737Y0031350D03*
X0185737Y0031425D03*
X0185737Y0031500D03*
X0185737Y0031575D03*
X0185737Y0031650D03*
X0185737Y0031725D03*
X0185737Y0031800D03*
X0185737Y0031875D03*
X0185737Y0031950D03*
X0185737Y0032025D03*
X0185737Y0032100D03*
X0185737Y0032175D03*
X0185737Y0032250D03*
X0185737Y0032325D03*
X0185737Y0032400D03*
X0185737Y0032475D03*
X0185737Y0032550D03*
X0185737Y0032625D03*
X0185737Y0032700D03*
X0185737Y0032775D03*
X0185737Y0032850D03*
X0185737Y0032925D03*
X0185737Y0033000D03*
X0185737Y0033075D03*
X0185737Y0033150D03*
X0185737Y0033225D03*
X0185737Y0033300D03*
X0185737Y0033375D03*
X0185737Y0033450D03*
X0185737Y0033525D03*
X0185737Y0033600D03*
X0185737Y0033675D03*
X0185737Y0033750D03*
X0185737Y0033825D03*
X0185737Y0033900D03*
X0185737Y0033975D03*
X0185737Y0034050D03*
X0185737Y0034125D03*
X0185737Y0034200D03*
X0185737Y0034275D03*
X0185737Y0034350D03*
X0185737Y0034425D03*
X0185737Y0034500D03*
X0185737Y0034575D03*
X0185737Y0034650D03*
X0185737Y0034725D03*
X0185737Y0034800D03*
X0185737Y0034875D03*
X0185737Y0034950D03*
X0185737Y0035025D03*
X0185737Y0035100D03*
X0185737Y0035175D03*
X0185737Y0035250D03*
X0185737Y0035325D03*
X0185737Y0035400D03*
X0185737Y0035475D03*
X0185737Y0035550D03*
X0185737Y0035625D03*
X0185737Y0035700D03*
X0185737Y0035775D03*
X0185737Y0035850D03*
X0185737Y0035925D03*
X0185737Y0036000D03*
X0185737Y0036075D03*
X0185737Y0036150D03*
X0185737Y0036225D03*
X0185737Y0036300D03*
X0185737Y0036375D03*
X0185737Y0036450D03*
X0185737Y0036525D03*
X0185737Y0036600D03*
X0185737Y0036675D03*
X0185737Y0036750D03*
X0185737Y0036825D03*
X0185737Y0036900D03*
X0185737Y0036975D03*
X0185737Y0037050D03*
X0185737Y0037125D03*
X0185737Y0037200D03*
X0185737Y0037275D03*
X0185737Y0037350D03*
X0185737Y0037425D03*
X0185737Y0037500D03*
X0185737Y0037575D03*
X0185737Y0037650D03*
X0185737Y0037725D03*
X0185737Y0037800D03*
X0185737Y0037875D03*
X0185737Y0037950D03*
X0185737Y0038025D03*
X0185737Y0038100D03*
X0185737Y0038175D03*
X0185737Y0038250D03*
X0185737Y0038325D03*
X0185737Y0038400D03*
X0185737Y0038475D03*
X0185737Y0038550D03*
X0185737Y0038625D03*
X0185737Y0038700D03*
X0185737Y0038775D03*
X0185737Y0038850D03*
X0185737Y0038925D03*
X0185737Y0039000D03*
X0185737Y0039075D03*
X0185737Y0039150D03*
X0185737Y0039225D03*
X0185737Y0039300D03*
X0185737Y0039375D03*
X0185737Y0039450D03*
X0185737Y0039525D03*
X0185737Y0039600D03*
X0185737Y0039675D03*
X0185737Y0039750D03*
X0185737Y0039825D03*
X0185737Y0039900D03*
X0185737Y0039975D03*
X0185737Y0040050D03*
X0185737Y0040125D03*
X0185737Y0040200D03*
X0185737Y0040275D03*
X0185737Y0040350D03*
X0185737Y0040425D03*
X0185737Y0040500D03*
X0185737Y0040575D03*
X0185737Y0040650D03*
X0188662Y0035550D03*
X0188662Y0035475D03*
X0188662Y0035400D03*
X0188662Y0035325D03*
X0188662Y0035250D03*
X0185737Y0011475D03*
X0185737Y0011400D03*
X0185737Y0011325D03*
X0185737Y0011250D03*
X0185737Y0011175D03*
X0185737Y0011100D03*
X0185737Y0011025D03*
X0185737Y0010950D03*
X0185737Y0010875D03*
X0185737Y0010800D03*
X0185737Y0010725D03*
X0185737Y0010650D03*
X0185737Y0010575D03*
X0185737Y0010500D03*
X0185737Y0010425D03*
X0185737Y0010350D03*
X0185737Y0010275D03*
X0185737Y0010200D03*
X0185737Y0010125D03*
X0185737Y0010050D03*
X0185737Y0009975D03*
X0185737Y0009900D03*
X0185737Y0009825D03*
X0185737Y0009750D03*
X0185737Y0009675D03*
X0185737Y0009600D03*
X0185737Y0009525D03*
X0185737Y0009450D03*
X0185737Y0009375D03*
X0185737Y0009300D03*
X0185737Y0009225D03*
X0185737Y0009150D03*
X0185737Y0009075D03*
X0185737Y0009000D03*
X0185737Y0008925D03*
X0185737Y0008850D03*
X0185737Y0008775D03*
X0185737Y0008700D03*
X0185737Y0008625D03*
X0185737Y0008550D03*
X0185737Y0008475D03*
X0185737Y0008400D03*
X0185737Y0008325D03*
X0185737Y0008250D03*
X0185737Y0008175D03*
X0185737Y0008100D03*
X0185737Y0008025D03*
X0185737Y0007950D03*
X0185737Y0007875D03*
X0185737Y0007800D03*
X0185737Y0007725D03*
X0185737Y0007650D03*
X0185737Y0007575D03*
X0185737Y0007500D03*
X0185737Y0007425D03*
X0185737Y0007350D03*
X0185737Y0007275D03*
X0185737Y0007200D03*
X0185737Y0007125D03*
X0185737Y0007050D03*
X0185737Y0006975D03*
X0185737Y0006900D03*
X0185737Y0006825D03*
X0185737Y0006750D03*
X0185737Y0006675D03*
X0298238Y0006675D03*
X0298238Y0006750D03*
X0298238Y0006825D03*
X0298238Y0006900D03*
X0298238Y0006975D03*
X0298238Y0007050D03*
X0298238Y0007125D03*
X0298238Y0007200D03*
X0298238Y0007275D03*
X0298238Y0007350D03*
X0298238Y0007425D03*
X0298238Y0007500D03*
X0298238Y0007575D03*
X0298238Y0007650D03*
X0298238Y0007725D03*
X0298238Y0007800D03*
X0298238Y0007875D03*
X0298238Y0007950D03*
X0298238Y0008025D03*
X0298238Y0008100D03*
X0298238Y0008175D03*
X0298238Y0008250D03*
X0298238Y0008325D03*
X0298238Y0008400D03*
X0298238Y0008475D03*
X0298238Y0008550D03*
X0298238Y0008625D03*
X0298238Y0008700D03*
X0298238Y0008775D03*
X0298238Y0008850D03*
X0298238Y0008925D03*
X0298238Y0009000D03*
X0298238Y0009075D03*
X0298238Y0009150D03*
X0298238Y0009225D03*
X0298238Y0009300D03*
X0298238Y0009375D03*
X0298238Y0009450D03*
X0298238Y0009525D03*
X0298238Y0009600D03*
X0298238Y0009675D03*
X0298238Y0009750D03*
X0298238Y0009825D03*
X0298238Y0009900D03*
X0298238Y0009975D03*
X0298238Y0010050D03*
X0298238Y0010125D03*
X0298238Y0010200D03*
X0298238Y0010275D03*
X0298238Y0010350D03*
X0298238Y0010425D03*
X0298238Y0010500D03*
X0298238Y0010575D03*
X0298238Y0010650D03*
X0298238Y0010725D03*
X0298238Y0010800D03*
X0298238Y0010875D03*
X0298238Y0010950D03*
X0298238Y0011025D03*
X0298238Y0011100D03*
X0298238Y0011175D03*
X0298238Y0011250D03*
X0298238Y0011325D03*
X0298238Y0011400D03*
X0298238Y0011475D03*
X0298238Y0011550D03*
X0298238Y0011625D03*
X0298238Y0011700D03*
X0298238Y0011775D03*
X0298238Y0011850D03*
X0298238Y0011925D03*
X0298238Y0012000D03*
X0298238Y0012075D03*
X0298238Y0012150D03*
X0298238Y0012225D03*
X0298238Y0012300D03*
X0298238Y0012375D03*
X0298238Y0012450D03*
X0298238Y0012525D03*
X0298238Y0012600D03*
X0298238Y0012675D03*
X0298238Y0012750D03*
X0298238Y0012825D03*
X0298238Y0012900D03*
X0298238Y0012975D03*
X0298238Y0013050D03*
X0298238Y0013125D03*
X0298238Y0013200D03*
X0298238Y0013275D03*
X0298238Y0013350D03*
X0298238Y0013425D03*
X0298238Y0013500D03*
X0298238Y0013575D03*
X0298238Y0013650D03*
X0298238Y0013725D03*
X0298238Y0013800D03*
X0298238Y0013875D03*
X0298238Y0013950D03*
X0298238Y0014025D03*
X0298238Y0014100D03*
X0298238Y0014175D03*
X0298238Y0014250D03*
X0298238Y0014325D03*
X0298238Y0014400D03*
X0298238Y0014475D03*
X0298238Y0014550D03*
X0298238Y0014625D03*
X0298238Y0014700D03*
X0298238Y0014775D03*
X0298238Y0014850D03*
X0298238Y0014925D03*
X0298238Y0015000D03*
X0298238Y0015075D03*
X0298238Y0015150D03*
X0298238Y0015225D03*
X0298238Y0015300D03*
X0298238Y0015375D03*
X0298238Y0015450D03*
X0298238Y0015525D03*
X0298238Y0015600D03*
X0298238Y0015675D03*
X0298238Y0015750D03*
X0298238Y0015825D03*
X0298238Y0015900D03*
X0298238Y0015975D03*
X0298238Y0016050D03*
X0298238Y0016125D03*
X0298238Y0016200D03*
X0298238Y0016275D03*
X0298238Y0016350D03*
X0298238Y0016425D03*
X0298238Y0016500D03*
X0298238Y0016575D03*
X0298238Y0016650D03*
X0298238Y0016725D03*
X0298238Y0016800D03*
X0298238Y0016875D03*
X0298238Y0016950D03*
X0298238Y0017025D03*
X0298238Y0017100D03*
X0298238Y0017175D03*
X0298238Y0017250D03*
X0298238Y0017325D03*
X0298238Y0017400D03*
X0298238Y0017475D03*
X0298238Y0017550D03*
X0298238Y0017625D03*
X0298238Y0017700D03*
X0298238Y0017775D03*
X0298238Y0017850D03*
X0298238Y0017925D03*
X0298238Y0018000D03*
X0298238Y0018075D03*
X0298238Y0018150D03*
X0298238Y0018225D03*
X0298238Y0018300D03*
X0298238Y0018375D03*
X0298238Y0018450D03*
X0298238Y0018525D03*
X0298238Y0018600D03*
X0298238Y0018675D03*
X0298238Y0018750D03*
X0298238Y0018825D03*
X0298238Y0018900D03*
X0298238Y0018975D03*
X0298238Y0019050D03*
X0298238Y0019125D03*
X0298238Y0019200D03*
X0298238Y0019275D03*
X0298238Y0019350D03*
X0298238Y0019425D03*
X0298238Y0019500D03*
X0298238Y0019575D03*
X0298238Y0019650D03*
X0298238Y0019725D03*
X0298238Y0019800D03*
X0298238Y0019875D03*
X0298238Y0019950D03*
X0298238Y0020025D03*
X0298238Y0020100D03*
X0298238Y0020175D03*
X0298238Y0020250D03*
X0298238Y0020325D03*
X0298238Y0020400D03*
X0298238Y0020475D03*
X0298238Y0020550D03*
X0298238Y0020625D03*
X0298238Y0020700D03*
X0298238Y0020775D03*
X0298238Y0020850D03*
X0298238Y0020925D03*
X0298238Y0021000D03*
X0298238Y0021075D03*
X0298238Y0021150D03*
X0298238Y0021225D03*
X0298238Y0021300D03*
X0298238Y0021375D03*
X0298238Y0021450D03*
X0298238Y0021525D03*
X0298238Y0021600D03*
X0298238Y0021675D03*
X0298238Y0021750D03*
X0298238Y0021825D03*
X0298238Y0021900D03*
X0298238Y0021975D03*
X0298238Y0022050D03*
X0298238Y0022125D03*
X0298238Y0022200D03*
X0298238Y0022275D03*
X0298238Y0022350D03*
X0298238Y0022425D03*
X0298238Y0022500D03*
X0298238Y0022575D03*
X0298238Y0022650D03*
X0298238Y0022725D03*
X0298238Y0022800D03*
X0298238Y0022875D03*
X0298238Y0022950D03*
X0298238Y0023025D03*
X0298238Y0023100D03*
X0298238Y0023175D03*
X0298238Y0023250D03*
X0298238Y0023325D03*
X0298238Y0023400D03*
X0298238Y0023475D03*
X0298238Y0023550D03*
X0298238Y0023625D03*
X0298238Y0023700D03*
X0298238Y0023775D03*
X0298238Y0023850D03*
X0298238Y0023925D03*
X0298238Y0024000D03*
X0298238Y0024075D03*
X0298238Y0024150D03*
X0298238Y0024225D03*
X0298238Y0024300D03*
X0298238Y0024375D03*
X0298238Y0024450D03*
X0298238Y0024525D03*
X0298238Y0024600D03*
X0298238Y0024675D03*
X0298238Y0024750D03*
X0298238Y0024825D03*
X0298238Y0024900D03*
X0298238Y0024975D03*
X0298238Y0025050D03*
X0298238Y0025125D03*
X0298238Y0025200D03*
X0298238Y0025275D03*
X0298238Y0025350D03*
X0298238Y0025425D03*
X0298238Y0025500D03*
X0298238Y0025575D03*
X0298238Y0025650D03*
X0298238Y0025725D03*
X0298238Y0025800D03*
X0298238Y0025875D03*
X0298238Y0025950D03*
X0298238Y0026025D03*
X0298238Y0026100D03*
X0298238Y0026175D03*
X0298238Y0026250D03*
X0298238Y0026325D03*
X0298238Y0026400D03*
X0298238Y0026475D03*
X0298238Y0026550D03*
X0298238Y0026625D03*
X0298238Y0026700D03*
X0298238Y0026775D03*
X0298238Y0026850D03*
X0298238Y0026925D03*
X0298238Y0027000D03*
X0298238Y0027075D03*
X0298238Y0027150D03*
X0298238Y0027225D03*
X0298238Y0027300D03*
X0298238Y0027375D03*
X0298238Y0027450D03*
X0298238Y0027525D03*
X0298238Y0027600D03*
X0298238Y0027675D03*
X0298238Y0027750D03*
X0298238Y0027825D03*
X0298238Y0027900D03*
X0298238Y0027975D03*
X0298238Y0028050D03*
X0298238Y0028125D03*
X0298238Y0028200D03*
X0298238Y0028275D03*
X0298238Y0028350D03*
X0298238Y0028425D03*
X0298238Y0028500D03*
X0298238Y0028575D03*
X0298238Y0028650D03*
X0298238Y0028725D03*
X0298238Y0028800D03*
X0298238Y0028875D03*
X0298238Y0028950D03*
X0298238Y0029025D03*
X0298238Y0029100D03*
X0298238Y0029175D03*
X0298238Y0029250D03*
X0298238Y0029325D03*
X0298238Y0029400D03*
X0298238Y0029475D03*
X0298238Y0029550D03*
X0298238Y0029625D03*
X0298238Y0029700D03*
X0298238Y0029775D03*
X0298238Y0029850D03*
X0298238Y0029925D03*
X0298238Y0030000D03*
X0298238Y0030075D03*
X0298238Y0030150D03*
X0298238Y0030225D03*
X0298238Y0030300D03*
X0298238Y0030375D03*
X0298238Y0030450D03*
X0298238Y0030525D03*
X0298238Y0030600D03*
X0298238Y0030675D03*
X0298238Y0030750D03*
X0298238Y0030825D03*
X0298238Y0030900D03*
X0298238Y0030975D03*
X0298238Y0031050D03*
X0298238Y0031125D03*
X0298238Y0031200D03*
X0298238Y0031275D03*
X0298238Y0031350D03*
X0298238Y0031425D03*
X0298238Y0031500D03*
X0298238Y0031575D03*
X0298238Y0031650D03*
X0298238Y0031725D03*
X0298238Y0031800D03*
X0298238Y0031875D03*
X0298238Y0031950D03*
X0298238Y0032025D03*
X0298238Y0032100D03*
X0298238Y0032175D03*
X0298238Y0032250D03*
X0298238Y0032325D03*
X0298238Y0032400D03*
X0298238Y0032475D03*
X0298238Y0032550D03*
X0298238Y0032625D03*
X0298238Y0032700D03*
X0298238Y0032775D03*
X0298238Y0032850D03*
X0298238Y0032925D03*
X0298238Y0033000D03*
X0298238Y0033075D03*
X0298238Y0033150D03*
X0298238Y0033225D03*
X0298238Y0033300D03*
X0298238Y0033375D03*
X0298238Y0033450D03*
X0298238Y0033525D03*
X0298238Y0033600D03*
X0298238Y0033675D03*
X0298238Y0033750D03*
X0298238Y0033825D03*
X0298238Y0033900D03*
X0298238Y0033975D03*
X0298238Y0034050D03*
X0298238Y0034125D03*
X0298238Y0034200D03*
X0298238Y0034275D03*
X0298238Y0034350D03*
X0298238Y0034425D03*
X0298238Y0034500D03*
X0298238Y0034575D03*
X0298238Y0034650D03*
X0298238Y0034725D03*
X0298238Y0034800D03*
X0298238Y0034875D03*
X0298238Y0034950D03*
X0298238Y0035025D03*
X0298238Y0035100D03*
X0298238Y0035175D03*
X0298238Y0035250D03*
X0298238Y0035325D03*
X0298238Y0035400D03*
X0298238Y0035475D03*
X0298238Y0035550D03*
X0298238Y0035625D03*
X0298238Y0035700D03*
X0298238Y0035775D03*
X0298238Y0035850D03*
X0298238Y0035925D03*
X0298238Y0036000D03*
X0298238Y0036075D03*
X0298238Y0036150D03*
X0298238Y0036225D03*
X0298238Y0036300D03*
X0298238Y0036375D03*
X0298238Y0036450D03*
X0298238Y0036525D03*
X0298238Y0036600D03*
X0298238Y0036675D03*
X0298238Y0036750D03*
X0298238Y0036825D03*
X0298238Y0036900D03*
X0298238Y0036975D03*
X0298238Y0037050D03*
X0298238Y0037125D03*
X0298238Y0037200D03*
X0298238Y0037275D03*
X0298238Y0037350D03*
X0298238Y0037425D03*
X0298238Y0037500D03*
X0298238Y0037575D03*
X0298238Y0037650D03*
X0298238Y0037725D03*
X0298238Y0037800D03*
X0298238Y0037875D03*
X0298238Y0037950D03*
X0298238Y0038025D03*
X0298238Y0038100D03*
X0298238Y0038175D03*
X0298238Y0038250D03*
X0298238Y0038325D03*
X0298238Y0038400D03*
X0298238Y0038475D03*
X0298238Y0038550D03*
X0298238Y0038625D03*
X0298238Y0038700D03*
X0298238Y0038775D03*
X0298238Y0038850D03*
X0298238Y0038925D03*
X0298238Y0039000D03*
X0298238Y0039075D03*
X0298238Y0039150D03*
X0298238Y0039225D03*
X0298238Y0039300D03*
X0298238Y0039375D03*
X0298238Y0039450D03*
X0298238Y0039525D03*
X0298238Y0039600D03*
X0298238Y0039675D03*
X0298238Y0039750D03*
X0298238Y0039825D03*
X0298238Y0039900D03*
X0298238Y0039975D03*
X0298238Y0040050D03*
X0298238Y0040125D03*
X0298238Y0040200D03*
X0298238Y0040275D03*
X0298238Y0040350D03*
X0298238Y0040425D03*
X0298238Y0040500D03*
X0298238Y0040575D03*
X0298238Y0040650D03*
D16*
X0217312Y0007800D03*
D17*
X0228450Y0008325D03*
X0228450Y0010875D03*
X0228450Y0011700D03*
X0228450Y0014250D03*
X0233550Y0009000D03*
X0241425Y0009000D03*
X0251475Y0009375D03*
X0251550Y0009300D03*
X0251475Y0009825D03*
X0251550Y0009900D03*
X0268350Y0016125D03*
X0268425Y0016050D03*
X0268350Y0016575D03*
X0268425Y0016650D03*
X0269475Y0016650D03*
X0269550Y0016575D03*
X0269550Y0016125D03*
X0269475Y0016050D03*
X0260550Y0022725D03*
X0260475Y0022800D03*
X0260475Y0023250D03*
X0260550Y0023325D03*
X0267225Y0029025D03*
X0267300Y0028950D03*
X0267225Y0029475D03*
X0267300Y0029550D03*
X0273450Y0034800D03*
X0273450Y0038250D03*
X0251550Y0036825D03*
X0251475Y0036750D03*
X0251475Y0036300D03*
X0251550Y0036225D03*
X0245325Y0040050D03*
X0206175Y0033525D03*
X0206100Y0033600D03*
X0206025Y0033675D03*
X0203775Y0035850D03*
X0188475Y0035700D03*
X0203625Y0012375D03*
X0203550Y0012300D03*
X0203475Y0012225D03*
X0203400Y0012150D03*
X0206025Y0011325D03*
X0206100Y0011400D03*
X0206175Y0011475D03*
X0203775Y0009150D03*
X0284700Y0007875D03*
X0295950Y0034800D03*
X0295950Y0038250D03*
D18*
X0245325Y0038250D03*
X0245325Y0038175D03*
X0245325Y0039300D03*
X0245325Y0039375D03*
X0223575Y0026550D03*
X0222600Y0023700D03*
X0228450Y0013575D03*
X0228450Y0013500D03*
X0228450Y0012450D03*
X0228450Y0012375D03*
X0228450Y0010200D03*
X0228450Y0010125D03*
X0228450Y0009075D03*
X0228450Y0009000D03*
X0231075Y0009000D03*
X0231075Y0009075D03*
X0231075Y0009150D03*
X0231075Y0009225D03*
X0231075Y0008925D03*
X0231075Y0008850D03*
X0231075Y0008775D03*
X0231075Y0008700D03*
X0231075Y0008625D03*
X0231075Y0008550D03*
X0231075Y0008100D03*
X0231075Y0008025D03*
X0231075Y0007950D03*
X0231075Y0007875D03*
X0231075Y0010050D03*
X0231075Y0010125D03*
X0231075Y0010200D03*
X0231075Y0010275D03*
X0231075Y0010350D03*
X0231075Y0010425D03*
X0231075Y0010500D03*
X0231075Y0010575D03*
X0231075Y0010650D03*
X0231075Y0010725D03*
X0231075Y0010800D03*
X0231075Y0010875D03*
X0231075Y0010950D03*
X0231075Y0011025D03*
X0231075Y0011100D03*
X0231075Y0011175D03*
X0231075Y0011250D03*
X0231075Y0011325D03*
X0231075Y0011400D03*
X0231075Y0011475D03*
X0231075Y0011550D03*
X0231075Y0011625D03*
X0231075Y0011700D03*
X0231075Y0011775D03*
X0231075Y0011850D03*
X0231075Y0011925D03*
X0231075Y0012000D03*
X0231075Y0012075D03*
X0231075Y0012150D03*
X0231075Y0012225D03*
X0231075Y0012300D03*
X0231075Y0012375D03*
X0231075Y0012450D03*
X0231075Y0012525D03*
X0231075Y0012600D03*
X0231075Y0013425D03*
X0231075Y0013500D03*
X0231075Y0013575D03*
X0231075Y0013650D03*
X0231075Y0013725D03*
X0231075Y0013800D03*
X0231075Y0013875D03*
X0231075Y0013950D03*
X0231075Y0014400D03*
X0231075Y0014475D03*
X0231075Y0014550D03*
X0231075Y0014625D03*
X0235875Y0014625D03*
X0235875Y0014550D03*
X0235875Y0014475D03*
X0235875Y0014400D03*
X0235875Y0013950D03*
X0235875Y0013875D03*
X0235875Y0013800D03*
X0235875Y0013725D03*
X0235875Y0013650D03*
X0235875Y0013575D03*
X0235875Y0013500D03*
X0235875Y0013425D03*
X0235875Y0013350D03*
X0235875Y0013275D03*
X0235875Y0012750D03*
X0235875Y0012675D03*
X0235875Y0012600D03*
X0235875Y0012525D03*
X0235875Y0012450D03*
X0235875Y0010050D03*
X0235875Y0009975D03*
X0235875Y0009900D03*
X0235875Y0009825D03*
X0235875Y0009300D03*
X0235875Y0009225D03*
X0235875Y0009150D03*
X0235875Y0009075D03*
X0235875Y0009000D03*
X0235875Y0008925D03*
X0235875Y0008850D03*
X0235875Y0008775D03*
X0235875Y0008700D03*
X0235875Y0008625D03*
X0235875Y0008550D03*
X0235875Y0008100D03*
X0235875Y0008025D03*
X0235875Y0007950D03*
X0235875Y0007875D03*
X0238950Y0007875D03*
X0238950Y0007950D03*
X0238950Y0008025D03*
X0238950Y0008100D03*
X0238950Y0008550D03*
X0238950Y0008625D03*
X0238950Y0008700D03*
X0238950Y0008775D03*
X0238950Y0008850D03*
X0238950Y0008925D03*
X0238950Y0009000D03*
X0238950Y0009075D03*
X0238950Y0009150D03*
X0238950Y0009225D03*
X0238950Y0009300D03*
X0238950Y0009375D03*
X0238950Y0009825D03*
X0238950Y0009900D03*
X0238950Y0009975D03*
X0238950Y0010050D03*
X0238950Y0012450D03*
X0238950Y0012525D03*
X0238950Y0012600D03*
X0238950Y0012675D03*
X0238950Y0012750D03*
X0238950Y0013200D03*
X0238950Y0013275D03*
X0238950Y0013350D03*
X0238950Y0013425D03*
X0238950Y0013500D03*
X0238950Y0013575D03*
X0238950Y0013650D03*
X0238950Y0013725D03*
X0238950Y0013800D03*
X0238950Y0013875D03*
X0238950Y0013950D03*
X0238950Y0014400D03*
X0238950Y0014475D03*
X0238950Y0014550D03*
X0238950Y0014625D03*
X0243750Y0014625D03*
X0243750Y0014550D03*
X0243750Y0014475D03*
X0243750Y0014400D03*
X0243750Y0013950D03*
X0243750Y0013875D03*
X0243750Y0013800D03*
X0243750Y0013725D03*
X0243750Y0013650D03*
X0243750Y0013575D03*
X0243750Y0013500D03*
X0243750Y0013425D03*
X0243750Y0013350D03*
X0243750Y0013275D03*
X0243750Y0012750D03*
X0243750Y0012675D03*
X0243750Y0012600D03*
X0243750Y0012525D03*
X0243750Y0012450D03*
X0243750Y0012375D03*
X0243750Y0012300D03*
X0243750Y0012225D03*
X0243750Y0012150D03*
X0243750Y0012075D03*
X0243750Y0012000D03*
X0243750Y0011925D03*
X0243750Y0011850D03*
X0243750Y0011775D03*
X0243750Y0011700D03*
X0243750Y0011625D03*
X0243750Y0011550D03*
X0243750Y0011475D03*
X0243750Y0011400D03*
X0243750Y0011325D03*
X0243750Y0011250D03*
X0243750Y0011175D03*
X0243750Y0011100D03*
X0243750Y0011025D03*
X0243750Y0010950D03*
X0243750Y0010875D03*
X0243750Y0010800D03*
X0243750Y0008850D03*
X0243750Y0008775D03*
X0243750Y0008700D03*
X0243750Y0008625D03*
X0243750Y0008550D03*
X0243750Y0008100D03*
X0243750Y0008025D03*
X0243750Y0007950D03*
X0243750Y0007875D03*
X0223950Y0009525D03*
X0206175Y0012300D03*
X0205800Y0013725D03*
X0201975Y0009375D03*
X0201975Y0009300D03*
X0201975Y0009225D03*
X0201975Y0009150D03*
X0201975Y0009075D03*
X0201975Y0009000D03*
X0201975Y0008925D03*
X0201975Y0008850D03*
X0201975Y0008775D03*
X0201975Y0008325D03*
X0201975Y0008250D03*
X0201975Y0008175D03*
X0198600Y0008175D03*
X0198600Y0008250D03*
X0198600Y0008325D03*
X0198600Y0008700D03*
X0198600Y0008775D03*
X0198600Y0008850D03*
X0198600Y0008925D03*
X0198600Y0009000D03*
X0198600Y0009075D03*
X0198600Y0009150D03*
X0198600Y0009225D03*
X0198600Y0010050D03*
X0198600Y0010125D03*
X0198600Y0010200D03*
X0198600Y0010275D03*
X0198600Y0010350D03*
X0198600Y0010425D03*
X0198600Y0010500D03*
X0198600Y0010575D03*
X0198600Y0010950D03*
X0198600Y0011025D03*
X0194100Y0011025D03*
X0194100Y0010950D03*
X0194100Y0010575D03*
X0194100Y0010500D03*
X0194100Y0010425D03*
X0194100Y0010350D03*
X0194100Y0010275D03*
X0194100Y0010200D03*
X0194100Y0010125D03*
X0194100Y0010050D03*
X0194100Y0009225D03*
X0194100Y0009150D03*
X0194100Y0009075D03*
X0194100Y0009000D03*
X0194100Y0008925D03*
X0194100Y0008850D03*
X0194100Y0008775D03*
X0194100Y0008700D03*
X0194100Y0008325D03*
X0194100Y0008250D03*
X0194100Y0008175D03*
X0190725Y0008175D03*
X0190725Y0008250D03*
X0190725Y0008325D03*
X0190725Y0008700D03*
X0190725Y0008775D03*
X0190725Y0008850D03*
X0190725Y0008925D03*
X0190725Y0009000D03*
X0190725Y0009075D03*
X0190725Y0009150D03*
X0190725Y0009225D03*
X0190725Y0009300D03*
X0190725Y0009375D03*
X0190725Y0009450D03*
X0190725Y0009525D03*
X0190725Y0009600D03*
X0190725Y0009675D03*
X0190725Y0009750D03*
X0190725Y0009825D03*
X0190725Y0009900D03*
X0190725Y0009975D03*
X0190725Y0010050D03*
X0190725Y0010125D03*
X0190725Y0010200D03*
X0190725Y0010275D03*
X0190725Y0010350D03*
X0190725Y0010425D03*
X0190725Y0010500D03*
X0190725Y0010575D03*
X0190725Y0010950D03*
X0190725Y0011025D03*
X0205800Y0031275D03*
X0206175Y0032700D03*
X0201975Y0035625D03*
X0201975Y0035700D03*
X0201975Y0035775D03*
X0201975Y0035850D03*
X0201975Y0035925D03*
X0201975Y0036000D03*
X0201975Y0036075D03*
X0201975Y0036150D03*
X0201975Y0036225D03*
X0201975Y0036300D03*
X0201975Y0036750D03*
X0201975Y0036825D03*
X0198600Y0036825D03*
X0198600Y0036750D03*
X0198600Y0036375D03*
X0198600Y0036300D03*
X0198600Y0036225D03*
X0198600Y0036150D03*
X0198600Y0036075D03*
X0198600Y0036000D03*
X0198600Y0035925D03*
X0198600Y0035850D03*
X0198600Y0035025D03*
X0198600Y0034950D03*
X0198600Y0034875D03*
X0198600Y0034800D03*
X0198600Y0034725D03*
X0198600Y0034650D03*
X0198600Y0034575D03*
X0198600Y0034500D03*
X0198600Y0034125D03*
X0198600Y0034050D03*
X0198600Y0033975D03*
X0194100Y0033975D03*
X0194100Y0034050D03*
X0194100Y0034125D03*
X0194100Y0034500D03*
X0194100Y0034575D03*
X0194100Y0034650D03*
X0194100Y0034725D03*
X0194100Y0034800D03*
X0194100Y0034875D03*
X0194100Y0034950D03*
X0194100Y0035025D03*
X0194100Y0035850D03*
X0194100Y0035925D03*
X0194100Y0036000D03*
X0194100Y0036075D03*
X0194100Y0036150D03*
X0194100Y0036225D03*
X0194100Y0036300D03*
X0194100Y0036375D03*
X0194100Y0036750D03*
X0194100Y0036825D03*
X0190725Y0036825D03*
X0190725Y0036750D03*
X0190725Y0036375D03*
X0190725Y0036300D03*
X0190725Y0036225D03*
X0190725Y0036150D03*
X0190725Y0036075D03*
X0190725Y0036000D03*
X0190725Y0035925D03*
X0190725Y0035850D03*
X0190725Y0035775D03*
X0190725Y0035700D03*
X0190725Y0035625D03*
X0190725Y0035550D03*
X0190725Y0035475D03*
X0190725Y0035400D03*
X0190725Y0035325D03*
X0190725Y0035250D03*
X0190725Y0035175D03*
X0190725Y0035100D03*
X0190725Y0035025D03*
X0190725Y0034950D03*
X0190725Y0034875D03*
X0190725Y0034800D03*
X0190725Y0034725D03*
D19*
X0217462Y0007875D03*
D20*
X0233475Y0008175D03*
X0233475Y0008250D03*
X0233475Y0008325D03*
X0233475Y0008400D03*
X0233475Y0008475D03*
X0241350Y0008475D03*
X0241350Y0008400D03*
X0241350Y0008325D03*
X0241350Y0008250D03*
X0241350Y0008175D03*
X0241350Y0014025D03*
X0241350Y0014100D03*
X0241350Y0014175D03*
X0241350Y0014250D03*
X0241350Y0014325D03*
X0233475Y0014325D03*
X0233475Y0014250D03*
X0233475Y0014175D03*
X0233475Y0014100D03*
X0233475Y0014025D03*
X0200325Y0007950D03*
X0200325Y0007875D03*
X0192450Y0007875D03*
X0192450Y0007950D03*
X0192450Y0011325D03*
X0192450Y0011400D03*
X0192450Y0033675D03*
X0192450Y0033750D03*
X0191700Y0034200D03*
X0191700Y0034275D03*
X0191700Y0034350D03*
X0191700Y0034425D03*
X0192450Y0037125D03*
X0192450Y0037200D03*
X0200325Y0037200D03*
X0200325Y0037125D03*
D21*
X0209325Y0037500D03*
X0209325Y0035550D03*
X0205800Y0030750D03*
X0207600Y0021975D03*
X0216075Y0024300D03*
X0216075Y0026250D03*
X0205800Y0014250D03*
X0204225Y0014100D03*
X0206175Y0011775D03*
X0210450Y0011700D03*
X0228450Y0011850D03*
X0228450Y0010725D03*
X0228450Y0008475D03*
X0228450Y0014100D03*
X0233550Y0013500D03*
X0241425Y0013500D03*
X0252075Y0010275D03*
X0252075Y0008925D03*
X0268950Y0015675D03*
X0268950Y0017025D03*
X0261075Y0022350D03*
X0261075Y0023700D03*
X0252075Y0035850D03*
X0252075Y0037200D03*
X0245325Y0039900D03*
X0273450Y0038175D03*
X0273450Y0034875D03*
X0284700Y0034800D03*
X0284700Y0034725D03*
X0284700Y0034650D03*
X0295950Y0034875D03*
X0295950Y0038175D03*
X0284325Y0020925D03*
X0284325Y0020850D03*
X0284700Y0011250D03*
X0284700Y0007950D03*
X0190200Y0011850D03*
X0190200Y0012900D03*
X0187950Y0035925D03*
D22*
X0217462Y0007950D03*
D23*
X0224775Y0010500D03*
X0224850Y0010650D03*
X0224850Y0010725D03*
X0224925Y0010875D03*
X0224925Y0010950D03*
X0225000Y0011175D03*
X0225000Y0011250D03*
X0225075Y0011625D03*
X0225075Y0011700D03*
X0228450Y0011925D03*
X0228450Y0010650D03*
X0228450Y0008550D03*
X0228450Y0014025D03*
X0225075Y0018975D03*
X0225000Y0019575D03*
X0224925Y0019950D03*
X0224925Y0020025D03*
X0224925Y0020100D03*
X0224850Y0020250D03*
X0224850Y0020325D03*
X0224850Y0020400D03*
X0224775Y0020475D03*
X0224775Y0020550D03*
X0224775Y0020625D03*
X0224700Y0020700D03*
X0224700Y0020775D03*
X0224700Y0020850D03*
X0224625Y0021000D03*
X0216075Y0024450D03*
X0216075Y0026100D03*
X0224700Y0028050D03*
X0224775Y0028200D03*
X0224775Y0028275D03*
X0224850Y0028425D03*
X0224850Y0028500D03*
X0224850Y0028575D03*
X0224925Y0028650D03*
X0224925Y0028725D03*
X0224925Y0028800D03*
X0225000Y0029025D03*
X0225000Y0029100D03*
X0225075Y0029550D03*
X0225075Y0029625D03*
X0225075Y0033375D03*
X0225075Y0033450D03*
X0225000Y0033825D03*
X0225000Y0033900D03*
X0224925Y0034125D03*
X0224925Y0034200D03*
X0224850Y0034350D03*
X0224850Y0034425D03*
X0224775Y0034575D03*
X0209325Y0035700D03*
X0209325Y0037350D03*
X0203400Y0033300D03*
X0205800Y0030900D03*
X0188250Y0034725D03*
X0187950Y0035775D03*
X0204225Y0014250D03*
X0205800Y0014100D03*
X0206175Y0011925D03*
X0203400Y0011700D03*
X0210450Y0011550D03*
X0190200Y0012000D03*
X0190200Y0012750D03*
X0245325Y0039825D03*
X0252075Y0037050D03*
X0252075Y0036975D03*
X0252075Y0036075D03*
X0252075Y0036000D03*
X0261075Y0023550D03*
X0261075Y0023475D03*
X0261075Y0022575D03*
X0261075Y0022500D03*
X0268950Y0016875D03*
X0268950Y0016800D03*
X0268950Y0015900D03*
X0268950Y0015825D03*
X0284700Y0011175D03*
X0284700Y0008025D03*
X0252075Y0009075D03*
X0252075Y0009150D03*
X0252075Y0010050D03*
X0252075Y0010125D03*
X0273450Y0034950D03*
X0273450Y0038100D03*
X0284700Y0035100D03*
X0295950Y0034950D03*
X0295950Y0038100D03*
D24*
X0295950Y0037500D03*
X0295950Y0035550D03*
X0273450Y0035550D03*
X0273450Y0037500D03*
X0268650Y0037200D03*
X0268650Y0037125D03*
X0268650Y0037050D03*
X0268650Y0036975D03*
X0268650Y0036900D03*
X0268650Y0036825D03*
X0268650Y0036750D03*
X0268650Y0036675D03*
X0268650Y0036600D03*
X0268650Y0036525D03*
X0268650Y0036450D03*
X0268650Y0036375D03*
X0268650Y0036300D03*
X0268650Y0036225D03*
X0268650Y0036150D03*
X0268650Y0036075D03*
X0268650Y0036000D03*
X0268650Y0035925D03*
X0268650Y0035550D03*
X0268650Y0035475D03*
X0268650Y0035400D03*
X0268650Y0035325D03*
X0268650Y0035025D03*
X0268650Y0034950D03*
X0268650Y0038025D03*
X0268650Y0038100D03*
X0263625Y0038100D03*
X0263625Y0038025D03*
X0263625Y0037725D03*
X0263625Y0037650D03*
X0263625Y0037575D03*
X0263625Y0037125D03*
X0263625Y0037050D03*
X0263625Y0036975D03*
X0263625Y0036150D03*
X0263625Y0036075D03*
X0263625Y0036000D03*
X0263625Y0035550D03*
X0263625Y0035475D03*
X0263625Y0035400D03*
X0263625Y0035325D03*
X0263625Y0035025D03*
X0263625Y0034950D03*
X0259650Y0034950D03*
X0259650Y0035025D03*
X0259650Y0035325D03*
X0259650Y0035400D03*
X0259650Y0035475D03*
X0259650Y0035550D03*
X0259650Y0035925D03*
X0259650Y0036000D03*
X0259650Y0036075D03*
X0259650Y0036150D03*
X0259650Y0036975D03*
X0259650Y0037050D03*
X0259650Y0037125D03*
X0259650Y0037200D03*
X0259650Y0038025D03*
X0259650Y0038100D03*
X0254625Y0038100D03*
X0254625Y0038025D03*
X0254625Y0037725D03*
X0254625Y0037650D03*
X0254625Y0037575D03*
X0254625Y0037125D03*
X0254625Y0037050D03*
X0254625Y0036975D03*
X0254625Y0036150D03*
X0254625Y0036075D03*
X0254625Y0036000D03*
X0254625Y0035550D03*
X0254625Y0035475D03*
X0254625Y0035400D03*
X0254625Y0035325D03*
X0254625Y0035025D03*
X0254625Y0034950D03*
X0263625Y0024600D03*
X0263625Y0024525D03*
X0263625Y0024225D03*
X0263625Y0024150D03*
X0263625Y0024075D03*
X0263625Y0023625D03*
X0263625Y0023550D03*
X0263625Y0023475D03*
X0263625Y0022650D03*
X0263625Y0022575D03*
X0263625Y0022050D03*
X0263625Y0021975D03*
X0263625Y0021900D03*
X0263625Y0021600D03*
X0263625Y0021525D03*
X0263625Y0021450D03*
X0268650Y0021450D03*
X0268650Y0021525D03*
X0268650Y0021600D03*
X0268650Y0021900D03*
X0268650Y0021975D03*
X0268650Y0022050D03*
X0268650Y0022500D03*
X0268650Y0022575D03*
X0268650Y0022650D03*
X0268650Y0022725D03*
X0268650Y0022800D03*
X0268650Y0022875D03*
X0268650Y0022950D03*
X0268650Y0023025D03*
X0268650Y0023100D03*
X0268650Y0023175D03*
X0268650Y0023250D03*
X0268650Y0023325D03*
X0268650Y0023400D03*
X0268650Y0023475D03*
X0268650Y0023550D03*
X0268650Y0023625D03*
X0268650Y0023700D03*
X0268650Y0024525D03*
X0268650Y0024600D03*
X0268650Y0011175D03*
X0268650Y0011100D03*
X0268650Y0010275D03*
X0268650Y0010200D03*
X0268650Y0010125D03*
X0268650Y0010050D03*
X0268650Y0009975D03*
X0268650Y0009900D03*
X0268650Y0009825D03*
X0268650Y0009750D03*
X0268650Y0009675D03*
X0268650Y0009600D03*
X0268650Y0009525D03*
X0268650Y0009450D03*
X0268650Y0009375D03*
X0268650Y0009300D03*
X0268650Y0009225D03*
X0268650Y0009150D03*
X0268650Y0009075D03*
X0268650Y0009000D03*
X0268650Y0008625D03*
X0268650Y0008550D03*
X0268650Y0008475D03*
X0268650Y0008400D03*
X0268650Y0008100D03*
X0268650Y0008025D03*
X0263625Y0008025D03*
X0263625Y0008100D03*
X0263625Y0008400D03*
X0263625Y0008475D03*
X0263625Y0008550D03*
X0263625Y0008625D03*
X0263625Y0009075D03*
X0263625Y0009150D03*
X0263625Y0009225D03*
X0263625Y0010050D03*
X0263625Y0010125D03*
X0263625Y0010200D03*
X0263625Y0010650D03*
X0263625Y0010725D03*
X0263625Y0010800D03*
X0263625Y0011100D03*
X0263625Y0011175D03*
X0259650Y0011175D03*
X0259650Y0011100D03*
X0259650Y0010275D03*
X0259650Y0010200D03*
X0259650Y0010125D03*
X0259650Y0010050D03*
X0259650Y0009225D03*
X0259650Y0009150D03*
X0259650Y0009075D03*
X0259650Y0009000D03*
X0259650Y0008625D03*
X0259650Y0008550D03*
X0259650Y0008475D03*
X0259650Y0008400D03*
X0259650Y0008100D03*
X0259650Y0008025D03*
X0254625Y0008025D03*
X0254625Y0008100D03*
X0254625Y0008400D03*
X0254625Y0008475D03*
X0254625Y0008550D03*
X0254625Y0008625D03*
X0254625Y0009075D03*
X0254625Y0009150D03*
X0254625Y0009225D03*
X0254625Y0010050D03*
X0254625Y0010125D03*
X0254625Y0010200D03*
X0254625Y0010650D03*
X0254625Y0010725D03*
X0254625Y0010800D03*
X0254625Y0011100D03*
X0254625Y0011175D03*
X0239250Y0009525D03*
X0206175Y0012600D03*
X0205800Y0013425D03*
X0205950Y0015750D03*
X0205950Y0015825D03*
X0205950Y0015900D03*
X0205950Y0015975D03*
X0205950Y0016050D03*
X0205950Y0016125D03*
X0205950Y0016200D03*
X0205950Y0016275D03*
X0205950Y0016350D03*
X0205950Y0016425D03*
X0205950Y0016500D03*
X0205950Y0016575D03*
X0205950Y0016650D03*
X0205950Y0016725D03*
X0205950Y0016800D03*
X0205950Y0016875D03*
X0205950Y0016950D03*
X0205950Y0017025D03*
X0205950Y0017100D03*
X0205950Y0017175D03*
X0205950Y0017250D03*
X0205950Y0017325D03*
X0205950Y0017400D03*
X0205950Y0017475D03*
X0205950Y0017550D03*
X0205950Y0017625D03*
X0205950Y0017700D03*
X0205950Y0017775D03*
X0205950Y0017850D03*
X0205950Y0017925D03*
X0205950Y0018000D03*
X0205950Y0019125D03*
X0205950Y0019200D03*
X0205950Y0019275D03*
X0205950Y0019350D03*
X0205950Y0019425D03*
X0205950Y0019500D03*
X0205950Y0019575D03*
X0205950Y0019650D03*
X0205950Y0019725D03*
X0205950Y0019800D03*
X0205950Y0019875D03*
X0205950Y0019950D03*
X0205950Y0020025D03*
X0205950Y0020100D03*
X0205950Y0020175D03*
X0205950Y0020250D03*
X0205950Y0020325D03*
X0205950Y0020400D03*
X0205950Y0020475D03*
X0205950Y0020550D03*
X0205950Y0020625D03*
X0205950Y0020700D03*
X0205950Y0020775D03*
X0205950Y0020850D03*
X0205950Y0020925D03*
X0205950Y0021000D03*
X0205950Y0021075D03*
X0205950Y0021150D03*
X0205950Y0021225D03*
X0205950Y0021300D03*
X0205950Y0021375D03*
X0205950Y0023625D03*
X0205950Y0023700D03*
X0205950Y0023775D03*
X0205950Y0023850D03*
X0205950Y0023925D03*
X0205950Y0024000D03*
X0205950Y0024075D03*
X0205950Y0024150D03*
X0205950Y0024225D03*
X0205950Y0024300D03*
X0205950Y0024375D03*
X0205950Y0024450D03*
X0205950Y0024525D03*
X0205950Y0024600D03*
X0205950Y0024675D03*
X0205950Y0024750D03*
X0205950Y0024825D03*
X0205950Y0024900D03*
X0205950Y0024975D03*
X0205950Y0025050D03*
X0205950Y0025125D03*
X0205950Y0025200D03*
X0205950Y0025275D03*
X0205950Y0025350D03*
X0205950Y0025425D03*
X0205950Y0025500D03*
X0205950Y0025575D03*
X0205950Y0025650D03*
X0205950Y0025725D03*
X0205950Y0025800D03*
X0205950Y0025875D03*
X0205950Y0027000D03*
X0205950Y0027075D03*
X0205950Y0027150D03*
X0205950Y0027225D03*
X0205950Y0027300D03*
X0205950Y0027375D03*
X0205950Y0027450D03*
X0205950Y0027525D03*
X0205950Y0027600D03*
X0205950Y0027675D03*
X0205950Y0027750D03*
X0205950Y0027825D03*
X0205950Y0027900D03*
X0205950Y0027975D03*
X0205950Y0028050D03*
X0205950Y0028125D03*
X0205950Y0028200D03*
X0205950Y0028275D03*
X0205950Y0028350D03*
X0205950Y0028425D03*
X0205950Y0028500D03*
X0205950Y0028575D03*
X0205950Y0028650D03*
X0205950Y0028725D03*
X0205950Y0028800D03*
X0205950Y0028875D03*
X0205950Y0028950D03*
X0205950Y0029025D03*
X0205950Y0029100D03*
X0205950Y0029175D03*
X0205950Y0029250D03*
X0205800Y0031575D03*
X0206175Y0032400D03*
X0284700Y0010575D03*
X0284700Y0008625D03*
D25*
X0217500Y0008025D03*
D26*
X0206362Y0010950D03*
X0206287Y0010875D03*
X0206212Y0010800D03*
X0206137Y0010725D03*
X0206062Y0010650D03*
X0205987Y0010575D03*
X0205912Y0010500D03*
X0205837Y0010425D03*
X0205762Y0010350D03*
X0203812Y0008850D03*
X0203812Y0008775D03*
X0203812Y0008700D03*
X0203812Y0008175D03*
X0203812Y0008100D03*
X0203812Y0008025D03*
X0203587Y0008175D03*
X0196837Y0008175D03*
X0196837Y0008250D03*
X0196837Y0008325D03*
X0196837Y0008400D03*
X0196837Y0008475D03*
X0196837Y0008550D03*
X0196837Y0008625D03*
X0196837Y0008700D03*
X0196837Y0008775D03*
X0196837Y0008850D03*
X0196837Y0008925D03*
X0196837Y0009000D03*
X0196837Y0009075D03*
X0196837Y0009150D03*
X0196837Y0009225D03*
X0196837Y0010050D03*
X0196837Y0010125D03*
X0196837Y0010200D03*
X0196837Y0010275D03*
X0196837Y0010350D03*
X0196837Y0010425D03*
X0196837Y0010500D03*
X0196837Y0010575D03*
X0196837Y0010650D03*
X0196837Y0010725D03*
X0196837Y0010800D03*
X0196837Y0010875D03*
X0196837Y0010950D03*
X0196837Y0011025D03*
X0196837Y0011100D03*
X0196837Y0011175D03*
X0196837Y0011250D03*
X0195937Y0011250D03*
X0195937Y0011175D03*
X0195937Y0011100D03*
X0195937Y0011025D03*
X0195937Y0010950D03*
X0195937Y0010875D03*
X0195937Y0010800D03*
X0195937Y0010725D03*
X0195937Y0010650D03*
X0195937Y0010575D03*
X0195937Y0010500D03*
X0195937Y0010425D03*
X0195937Y0010350D03*
X0195937Y0010275D03*
X0195937Y0010200D03*
X0195937Y0010125D03*
X0195937Y0010050D03*
X0195937Y0009225D03*
X0195937Y0009150D03*
X0195937Y0009075D03*
X0195937Y0009000D03*
X0195937Y0008925D03*
X0195937Y0008850D03*
X0195937Y0008775D03*
X0195937Y0008700D03*
X0195937Y0008625D03*
X0195937Y0008550D03*
X0195937Y0008475D03*
X0195937Y0008400D03*
X0195937Y0008325D03*
X0195937Y0008250D03*
X0195937Y0008175D03*
X0195937Y0008100D03*
X0195937Y0008025D03*
X0196837Y0008025D03*
X0196837Y0008100D03*
X0188962Y0008100D03*
X0188962Y0008175D03*
X0188962Y0008250D03*
X0188962Y0008325D03*
X0188962Y0008400D03*
X0188962Y0008475D03*
X0188962Y0008550D03*
X0188962Y0008625D03*
X0188962Y0008700D03*
X0188962Y0008775D03*
X0188962Y0008850D03*
X0188962Y0008925D03*
X0188962Y0009000D03*
X0188962Y0009075D03*
X0188962Y0009150D03*
X0188962Y0009225D03*
X0188962Y0009300D03*
X0188962Y0009375D03*
X0188962Y0009450D03*
X0188962Y0009525D03*
X0188962Y0009600D03*
X0188962Y0009675D03*
X0188962Y0009750D03*
X0188962Y0009825D03*
X0188962Y0009900D03*
X0188962Y0009975D03*
X0188962Y0010050D03*
X0188962Y0010125D03*
X0188962Y0010200D03*
X0188962Y0010275D03*
X0188962Y0010350D03*
X0188962Y0010425D03*
X0188962Y0010500D03*
X0188962Y0010575D03*
X0188962Y0010650D03*
X0188962Y0010725D03*
X0188962Y0010800D03*
X0188962Y0010875D03*
X0188962Y0010950D03*
X0188962Y0011025D03*
X0188962Y0011100D03*
X0188962Y0011175D03*
X0188962Y0011250D03*
X0188962Y0008025D03*
X0204187Y0015525D03*
X0204187Y0015600D03*
X0204187Y0015675D03*
X0204187Y0015750D03*
X0204187Y0015825D03*
X0204187Y0015900D03*
X0204187Y0015975D03*
X0204187Y0016050D03*
X0204187Y0016125D03*
X0204187Y0016200D03*
X0204187Y0016275D03*
X0204187Y0016350D03*
X0204187Y0016425D03*
X0204187Y0016500D03*
X0204187Y0016575D03*
X0204187Y0016650D03*
X0204187Y0016725D03*
X0204187Y0016800D03*
X0204187Y0016875D03*
X0204187Y0016950D03*
X0204187Y0017025D03*
X0204187Y0017100D03*
X0204187Y0017175D03*
X0204187Y0017250D03*
X0204187Y0017325D03*
X0204187Y0017400D03*
X0204187Y0017475D03*
X0204187Y0017550D03*
X0204187Y0017625D03*
X0204187Y0017700D03*
X0204187Y0017775D03*
X0204187Y0017850D03*
X0204187Y0017925D03*
X0204187Y0018000D03*
X0204187Y0018075D03*
X0204187Y0018150D03*
X0204187Y0018225D03*
X0204187Y0018300D03*
X0204187Y0018375D03*
X0204187Y0018450D03*
X0204187Y0018525D03*
X0204187Y0018600D03*
X0204187Y0018675D03*
X0204187Y0018750D03*
X0204187Y0018825D03*
X0204187Y0018900D03*
X0204187Y0018975D03*
X0204187Y0019050D03*
X0204187Y0019125D03*
X0204187Y0019200D03*
X0204187Y0019275D03*
X0204187Y0019350D03*
X0204187Y0019425D03*
X0204187Y0019500D03*
X0204187Y0019575D03*
X0204187Y0019650D03*
X0204187Y0019725D03*
X0204187Y0019800D03*
X0204187Y0019875D03*
X0204187Y0019950D03*
X0204187Y0020025D03*
X0204187Y0020100D03*
X0204187Y0020175D03*
X0204187Y0020250D03*
X0204187Y0020325D03*
X0204187Y0020400D03*
X0204187Y0020475D03*
X0204187Y0020550D03*
X0204187Y0020625D03*
X0204187Y0020700D03*
X0204187Y0020775D03*
X0204187Y0020850D03*
X0204187Y0020925D03*
X0204187Y0021000D03*
X0204187Y0021075D03*
X0204187Y0021150D03*
X0204187Y0021225D03*
X0204187Y0021300D03*
X0204187Y0021375D03*
X0204187Y0021450D03*
X0204187Y0021525D03*
X0204187Y0021600D03*
X0204187Y0021675D03*
X0204187Y0021750D03*
X0204187Y0021825D03*
X0204187Y0021900D03*
X0204187Y0021975D03*
X0204187Y0023100D03*
X0204187Y0023175D03*
X0204187Y0023250D03*
X0204187Y0023325D03*
X0204187Y0023400D03*
X0204187Y0023475D03*
X0204187Y0023550D03*
X0204187Y0023625D03*
X0204187Y0023700D03*
X0204187Y0023775D03*
X0204187Y0023850D03*
X0204187Y0023925D03*
X0204187Y0024000D03*
X0204187Y0024075D03*
X0204187Y0024150D03*
X0204187Y0024225D03*
X0204187Y0024300D03*
X0204187Y0024375D03*
X0204187Y0024450D03*
X0204187Y0024525D03*
X0204187Y0024600D03*
X0204187Y0024675D03*
X0204187Y0024750D03*
X0204187Y0024825D03*
X0204187Y0024900D03*
X0204187Y0024975D03*
X0204187Y0025050D03*
X0204187Y0025125D03*
X0204187Y0025200D03*
X0204187Y0025275D03*
X0204187Y0025350D03*
X0204187Y0025425D03*
X0204187Y0025500D03*
X0204187Y0025575D03*
X0204187Y0025650D03*
X0204187Y0025725D03*
X0204187Y0025800D03*
X0204187Y0025875D03*
X0204187Y0025950D03*
X0204187Y0026025D03*
X0204187Y0026100D03*
X0204187Y0026175D03*
X0204187Y0026250D03*
X0204187Y0026325D03*
X0204187Y0026400D03*
X0204187Y0026475D03*
X0204187Y0026550D03*
X0204187Y0026625D03*
X0204187Y0026700D03*
X0204187Y0026775D03*
X0204187Y0026850D03*
X0204187Y0026925D03*
X0204187Y0027000D03*
X0204187Y0027075D03*
X0204187Y0027150D03*
X0204187Y0027225D03*
X0204187Y0027300D03*
X0204187Y0027375D03*
X0204187Y0027450D03*
X0204187Y0027525D03*
X0204187Y0027600D03*
X0204187Y0027675D03*
X0204187Y0027750D03*
X0204187Y0027825D03*
X0204187Y0027900D03*
X0204187Y0027975D03*
X0204187Y0028050D03*
X0204187Y0028125D03*
X0204187Y0028200D03*
X0204187Y0028275D03*
X0204187Y0028350D03*
X0204187Y0028425D03*
X0204187Y0028500D03*
X0204187Y0028575D03*
X0204187Y0028650D03*
X0204187Y0028725D03*
X0204187Y0028800D03*
X0204187Y0028875D03*
X0204187Y0028950D03*
X0204187Y0029025D03*
X0204187Y0029100D03*
X0204187Y0029175D03*
X0204187Y0029250D03*
X0204187Y0029325D03*
X0204187Y0029400D03*
X0204187Y0029475D03*
X0204187Y0029550D03*
X0204187Y0029625D03*
X0204187Y0029700D03*
X0204187Y0029775D03*
X0204187Y0029850D03*
X0207712Y0029850D03*
X0207712Y0029775D03*
X0207712Y0029700D03*
X0207712Y0029625D03*
X0207712Y0029550D03*
X0207712Y0029475D03*
X0207712Y0029400D03*
X0207712Y0029325D03*
X0207712Y0029250D03*
X0207712Y0029175D03*
X0207712Y0029100D03*
X0207712Y0029025D03*
X0207712Y0028950D03*
X0207712Y0028875D03*
X0207712Y0028800D03*
X0207712Y0028725D03*
X0207712Y0028650D03*
X0207712Y0028575D03*
X0207712Y0028500D03*
X0207712Y0028425D03*
X0207712Y0028350D03*
X0207712Y0028275D03*
X0207712Y0028200D03*
X0207712Y0028125D03*
X0207712Y0028050D03*
X0207712Y0027975D03*
X0207712Y0027900D03*
X0207712Y0027825D03*
X0207712Y0027750D03*
X0207712Y0027675D03*
X0207712Y0027600D03*
X0207712Y0027525D03*
X0207712Y0027450D03*
X0207712Y0027375D03*
X0207712Y0027300D03*
X0207712Y0027225D03*
X0207712Y0027150D03*
X0207712Y0027075D03*
X0207712Y0027000D03*
X0207712Y0026925D03*
X0207712Y0026850D03*
X0207712Y0026775D03*
X0207712Y0026700D03*
X0207712Y0026625D03*
X0207712Y0026550D03*
X0207712Y0026475D03*
X0207712Y0026400D03*
X0207712Y0026325D03*
X0207712Y0026250D03*
X0207712Y0026175D03*
X0207712Y0026100D03*
X0207712Y0026025D03*
X0207712Y0025950D03*
X0207712Y0025875D03*
X0207712Y0025800D03*
X0207712Y0025725D03*
X0207712Y0025650D03*
X0207712Y0025575D03*
X0207712Y0025500D03*
X0207712Y0025425D03*
X0207712Y0025350D03*
X0207712Y0025275D03*
X0207712Y0025200D03*
X0207712Y0025125D03*
X0207712Y0025050D03*
X0207712Y0024975D03*
X0207712Y0024900D03*
X0207712Y0024825D03*
X0207712Y0024750D03*
X0207712Y0024675D03*
X0207712Y0024600D03*
X0207712Y0024525D03*
X0207712Y0024450D03*
X0207712Y0024375D03*
X0207712Y0024300D03*
X0207712Y0024225D03*
X0207712Y0024150D03*
X0207712Y0024075D03*
X0207712Y0024000D03*
X0207712Y0023925D03*
X0207712Y0023850D03*
X0207712Y0023775D03*
X0207712Y0023700D03*
X0207712Y0023625D03*
X0207712Y0023550D03*
X0207712Y0023475D03*
X0207712Y0023400D03*
X0207712Y0021600D03*
X0207712Y0021525D03*
X0207712Y0021450D03*
X0207712Y0021375D03*
X0207712Y0021300D03*
X0207712Y0021225D03*
X0207712Y0021150D03*
X0207712Y0021075D03*
X0207712Y0021000D03*
X0207712Y0020925D03*
X0207712Y0020850D03*
X0207712Y0020775D03*
X0207712Y0020700D03*
X0207712Y0020625D03*
X0207712Y0020550D03*
X0207712Y0020475D03*
X0207712Y0020400D03*
X0207712Y0020325D03*
X0207712Y0020250D03*
X0207712Y0020175D03*
X0207712Y0020100D03*
X0207712Y0020025D03*
X0207712Y0019950D03*
X0207712Y0019875D03*
X0207712Y0019800D03*
X0207712Y0019725D03*
X0207712Y0019650D03*
X0207712Y0019575D03*
X0207712Y0019500D03*
X0207712Y0019425D03*
X0207712Y0019350D03*
X0207712Y0019275D03*
X0207712Y0019200D03*
X0207712Y0019125D03*
X0207712Y0019050D03*
X0207712Y0018975D03*
X0207712Y0018900D03*
X0207712Y0018825D03*
X0207712Y0018750D03*
X0207712Y0018675D03*
X0207712Y0018600D03*
X0207712Y0018525D03*
X0207712Y0018450D03*
X0207712Y0018375D03*
X0207712Y0018300D03*
X0207712Y0018225D03*
X0207712Y0018150D03*
X0207712Y0018075D03*
X0207712Y0018000D03*
X0207712Y0017925D03*
X0207712Y0017850D03*
X0207712Y0017775D03*
X0207712Y0017700D03*
X0207712Y0017625D03*
X0207712Y0017550D03*
X0207712Y0017475D03*
X0207712Y0017400D03*
X0207712Y0017325D03*
X0207712Y0017250D03*
X0207712Y0017175D03*
X0207712Y0017100D03*
X0207712Y0017025D03*
X0207712Y0016950D03*
X0207712Y0016875D03*
X0207712Y0016800D03*
X0207712Y0016725D03*
X0207712Y0016650D03*
X0207712Y0016575D03*
X0207712Y0016500D03*
X0207712Y0016425D03*
X0207712Y0016350D03*
X0207712Y0016275D03*
X0207712Y0016200D03*
X0207712Y0016125D03*
X0207712Y0016050D03*
X0207712Y0015975D03*
X0207712Y0015900D03*
X0207712Y0015825D03*
X0207712Y0015750D03*
X0207712Y0015675D03*
X0207712Y0015600D03*
X0207712Y0015525D03*
X0207712Y0015450D03*
X0207712Y0015375D03*
X0207712Y0015300D03*
X0207712Y0015225D03*
X0206212Y0033750D03*
X0206362Y0034125D03*
X0206287Y0034200D03*
X0206212Y0034275D03*
X0206137Y0034350D03*
X0206062Y0034425D03*
X0205987Y0034500D03*
X0205912Y0034575D03*
X0205837Y0034650D03*
X0205762Y0034725D03*
X0203812Y0036150D03*
X0203812Y0036225D03*
X0203812Y0036300D03*
X0203812Y0036375D03*
X0203812Y0036900D03*
X0203812Y0036975D03*
X0203812Y0037050D03*
X0203587Y0036900D03*
X0196837Y0036900D03*
X0196837Y0036975D03*
X0196837Y0037050D03*
X0196837Y0036825D03*
X0196837Y0036750D03*
X0196837Y0036675D03*
X0196837Y0036600D03*
X0196837Y0036525D03*
X0196837Y0036450D03*
X0196837Y0036375D03*
X0196837Y0036300D03*
X0196837Y0036225D03*
X0196837Y0036150D03*
X0196837Y0036075D03*
X0196837Y0036000D03*
X0196837Y0035925D03*
X0196837Y0035850D03*
X0196837Y0035025D03*
X0196837Y0034950D03*
X0196837Y0034875D03*
X0196837Y0034800D03*
X0196837Y0034725D03*
X0196837Y0034650D03*
X0196837Y0034575D03*
X0196837Y0034500D03*
X0196837Y0034425D03*
X0196837Y0034350D03*
X0196837Y0034275D03*
X0196837Y0034200D03*
X0196837Y0034125D03*
X0196837Y0034050D03*
X0196837Y0033975D03*
X0196837Y0033900D03*
X0196837Y0033825D03*
X0195937Y0033825D03*
X0195937Y0033900D03*
X0195937Y0033975D03*
X0195937Y0034050D03*
X0195937Y0034125D03*
X0195937Y0034200D03*
X0195937Y0034275D03*
X0195937Y0034350D03*
X0195937Y0034425D03*
X0195937Y0034500D03*
X0195937Y0034575D03*
X0195937Y0034650D03*
X0195937Y0034725D03*
X0195937Y0034800D03*
X0195937Y0034875D03*
X0195937Y0034950D03*
X0195937Y0035025D03*
X0195937Y0035850D03*
X0195937Y0035925D03*
X0195937Y0036000D03*
X0195937Y0036075D03*
X0195937Y0036150D03*
X0195937Y0036225D03*
X0195937Y0036300D03*
X0195937Y0036375D03*
X0195937Y0036450D03*
X0195937Y0036525D03*
X0195937Y0036600D03*
X0195937Y0036675D03*
X0195937Y0036750D03*
X0195937Y0036825D03*
X0195937Y0036900D03*
X0195937Y0036975D03*
X0195937Y0037050D03*
X0188962Y0037050D03*
X0188962Y0036975D03*
X0188962Y0036900D03*
X0188962Y0036825D03*
X0188962Y0036750D03*
X0188962Y0036675D03*
X0188962Y0036600D03*
X0188962Y0036525D03*
X0188962Y0036450D03*
X0188962Y0036375D03*
X0188962Y0036300D03*
X0188962Y0036225D03*
X0188962Y0036150D03*
X0188962Y0036075D03*
X0188962Y0036000D03*
X0188962Y0035925D03*
X0188962Y0035850D03*
X0188962Y0035775D03*
X0188962Y0035700D03*
X0188962Y0035625D03*
X0188962Y0033900D03*
X0188962Y0033825D03*
X0284363Y0022650D03*
X0284363Y0022350D03*
X0284363Y0022275D03*
X0284363Y0022200D03*
X0284363Y0022125D03*
X0284363Y0022050D03*
X0284363Y0021975D03*
X0284363Y0021900D03*
X0284363Y0021825D03*
X0284363Y0021750D03*
X0284363Y0021675D03*
X0284363Y0021600D03*
X0284363Y0021525D03*
X0284363Y0021450D03*
X0284363Y0021375D03*
X0284363Y0021300D03*
X0284363Y0021225D03*
X0284363Y0021150D03*
X0284363Y0021075D03*
X0284363Y0021000D03*
X0284888Y0021975D03*
X0284663Y0022275D03*
D27*
X0284700Y0011100D03*
X0284700Y0008100D03*
X0268125Y0028575D03*
X0268125Y0029925D03*
X0273450Y0035025D03*
X0273450Y0038025D03*
X0295950Y0038025D03*
X0295950Y0035025D03*
X0245325Y0039675D03*
X0224475Y0035100D03*
X0224325Y0027375D03*
X0224250Y0027300D03*
X0224175Y0027225D03*
X0223725Y0022575D03*
X0223800Y0022500D03*
X0223875Y0022425D03*
X0223875Y0022350D03*
X0223950Y0022275D03*
X0228450Y0013875D03*
X0228450Y0012075D03*
X0228450Y0010500D03*
X0228450Y0008700D03*
X0224475Y0009975D03*
X0233550Y0013425D03*
X0241425Y0013425D03*
X0210450Y0011400D03*
X0206175Y0012075D03*
X0205800Y0013950D03*
X0205500Y0014475D03*
X0205500Y0014550D03*
X0205500Y0014625D03*
X0205500Y0014700D03*
X0205500Y0014775D03*
X0205800Y0031050D03*
X0203400Y0033450D03*
X0188100Y0035025D03*
D28*
X0217500Y0008100D03*
D29*
X0210975Y0009675D03*
X0210750Y0009825D03*
X0210675Y0009900D03*
X0210600Y0009975D03*
X0210525Y0010050D03*
X0210450Y0010200D03*
X0210450Y0011250D03*
X0210450Y0011325D03*
X0206175Y0012150D03*
X0205800Y0013875D03*
X0205425Y0014325D03*
X0205425Y0014925D03*
X0224250Y0009750D03*
X0224325Y0009825D03*
X0228450Y0010425D03*
X0228450Y0008775D03*
X0228450Y0012150D03*
X0228450Y0013800D03*
X0223575Y0022800D03*
X0223500Y0022875D03*
X0223425Y0022950D03*
X0223350Y0023025D03*
X0223275Y0023100D03*
X0223875Y0026850D03*
X0223950Y0026925D03*
X0224025Y0027000D03*
X0224325Y0035250D03*
X0224250Y0035325D03*
X0206175Y0032850D03*
X0205800Y0031125D03*
X0203400Y0033525D03*
X0245325Y0037950D03*
X0245325Y0039600D03*
X0268050Y0029775D03*
X0268050Y0029700D03*
X0268050Y0028800D03*
X0268050Y0028725D03*
X0273450Y0035100D03*
X0273450Y0037950D03*
X0284700Y0032775D03*
X0284700Y0032700D03*
X0284700Y0032625D03*
X0284700Y0032550D03*
X0284700Y0032475D03*
X0284700Y0032400D03*
X0284700Y0032325D03*
X0284700Y0032250D03*
X0284700Y0032175D03*
X0284700Y0032100D03*
X0284700Y0032025D03*
X0284700Y0031950D03*
X0284700Y0031875D03*
X0284700Y0031800D03*
X0284700Y0031725D03*
X0284700Y0031650D03*
X0284700Y0031575D03*
X0284700Y0031500D03*
X0284700Y0031425D03*
X0284700Y0031350D03*
X0284700Y0031275D03*
X0284700Y0031200D03*
X0284700Y0031125D03*
X0284700Y0031050D03*
X0284700Y0030975D03*
X0284700Y0030900D03*
X0284700Y0030825D03*
X0284700Y0030750D03*
X0284700Y0030675D03*
X0284700Y0030600D03*
X0284700Y0030525D03*
X0284700Y0030450D03*
X0295950Y0035100D03*
X0295950Y0037950D03*
X0284700Y0015675D03*
X0284700Y0015600D03*
X0284700Y0015525D03*
X0284700Y0015450D03*
X0284700Y0015375D03*
X0284700Y0015300D03*
X0284700Y0015225D03*
X0284700Y0015150D03*
X0284700Y0015075D03*
X0284700Y0015000D03*
X0284700Y0014925D03*
X0284700Y0014850D03*
X0284700Y0014775D03*
X0284700Y0014700D03*
X0284700Y0014625D03*
X0284700Y0014550D03*
X0284700Y0014475D03*
X0284700Y0014400D03*
X0284700Y0014325D03*
X0284700Y0014250D03*
X0284700Y0014175D03*
X0284700Y0014100D03*
X0284700Y0014025D03*
X0284700Y0013950D03*
X0284700Y0013875D03*
X0284700Y0013800D03*
X0284700Y0013725D03*
X0284700Y0013650D03*
X0284700Y0013575D03*
X0284700Y0013500D03*
X0284700Y0013425D03*
X0284700Y0013350D03*
X0284700Y0013275D03*
X0284700Y0011025D03*
X0284700Y0008175D03*
D30*
X0266138Y0008175D03*
X0266138Y0008250D03*
X0266138Y0008325D03*
X0266138Y0010875D03*
X0266138Y0010950D03*
X0266138Y0011025D03*
X0257137Y0011025D03*
X0257137Y0010950D03*
X0257137Y0010875D03*
X0257137Y0008325D03*
X0257137Y0008250D03*
X0257137Y0008175D03*
X0266138Y0021675D03*
X0266138Y0021750D03*
X0266138Y0021825D03*
X0266138Y0024300D03*
X0266138Y0024375D03*
X0266138Y0024450D03*
X0266138Y0035100D03*
X0266138Y0035175D03*
X0266138Y0035250D03*
X0266138Y0037800D03*
X0266138Y0037875D03*
X0266138Y0037950D03*
X0257137Y0037950D03*
X0257137Y0037875D03*
X0257137Y0037800D03*
X0257137Y0035250D03*
X0257137Y0035175D03*
X0257137Y0035100D03*
X0201412Y0034425D03*
X0200737Y0033750D03*
X0201412Y0010650D03*
D31*
X0217500Y0008175D03*
D32*
X0211275Y0009450D03*
X0210450Y0010275D03*
X0210450Y0010350D03*
X0210450Y0011100D03*
X0210450Y0011175D03*
X0206175Y0012225D03*
X0205800Y0013800D03*
X0224100Y0009600D03*
X0224175Y0009675D03*
X0228450Y0010275D03*
X0228450Y0010350D03*
X0228450Y0008925D03*
X0228450Y0008850D03*
X0228450Y0012225D03*
X0228450Y0012300D03*
X0228450Y0013650D03*
X0228450Y0013725D03*
X0233550Y0013350D03*
X0241425Y0013350D03*
X0247575Y0011700D03*
X0247575Y0011625D03*
X0247575Y0011475D03*
X0223050Y0023325D03*
X0222975Y0023400D03*
X0222900Y0023475D03*
X0222825Y0023550D03*
X0223725Y0026700D03*
X0224175Y0035400D03*
X0206175Y0032775D03*
X0205800Y0031200D03*
X0245325Y0038025D03*
X0245325Y0038100D03*
X0245325Y0039450D03*
X0245325Y0039525D03*
X0247575Y0034650D03*
X0247575Y0034500D03*
X0247575Y0034425D03*
X0273450Y0035175D03*
X0273450Y0037875D03*
X0295950Y0037875D03*
X0295950Y0035175D03*
X0284700Y0010950D03*
X0284700Y0008250D03*
D33*
X0284700Y0008850D03*
X0284700Y0008925D03*
X0284700Y0010275D03*
X0284700Y0010350D03*
X0268500Y0010350D03*
X0268500Y0010425D03*
X0268500Y0010500D03*
X0268500Y0010575D03*
X0268500Y0008700D03*
X0263775Y0008700D03*
X0263775Y0010575D03*
X0259500Y0010575D03*
X0259500Y0010500D03*
X0259500Y0010425D03*
X0259500Y0010350D03*
X0259500Y0008700D03*
X0254775Y0008700D03*
X0254775Y0010575D03*
X0247575Y0010800D03*
X0247575Y0010875D03*
X0247575Y0010950D03*
X0247575Y0011025D03*
X0247575Y0011100D03*
X0247575Y0011175D03*
X0247575Y0011250D03*
X0247575Y0011325D03*
X0247575Y0011400D03*
X0247575Y0008850D03*
X0247575Y0008775D03*
X0247575Y0008700D03*
X0247575Y0008625D03*
X0247575Y0008550D03*
X0247575Y0008475D03*
X0247575Y0008400D03*
X0247575Y0008325D03*
X0247575Y0008250D03*
X0263775Y0022200D03*
X0263775Y0024000D03*
X0268500Y0024000D03*
X0268500Y0023925D03*
X0268500Y0023850D03*
X0268500Y0022200D03*
X0268500Y0035625D03*
X0268500Y0037275D03*
X0268500Y0037350D03*
X0268500Y0037425D03*
X0268500Y0037500D03*
X0263775Y0037500D03*
X0263775Y0035625D03*
X0259500Y0035625D03*
X0259500Y0037275D03*
X0259500Y0037350D03*
X0259500Y0037425D03*
X0259500Y0037500D03*
X0254775Y0037500D03*
X0254775Y0035625D03*
X0247575Y0035550D03*
X0247575Y0035475D03*
X0247575Y0035400D03*
X0247575Y0035325D03*
X0247575Y0035250D03*
X0247575Y0035175D03*
X0247575Y0035100D03*
X0247575Y0035025D03*
X0247575Y0034950D03*
X0247575Y0034875D03*
X0247575Y0034800D03*
X0247575Y0034725D03*
X0247575Y0036375D03*
X0247575Y0036450D03*
X0247575Y0036525D03*
X0247575Y0036600D03*
X0247575Y0036675D03*
X0247575Y0036750D03*
X0247575Y0036825D03*
X0247575Y0036900D03*
X0247575Y0036975D03*
X0247575Y0037050D03*
X0247575Y0037125D03*
X0247575Y0037200D03*
X0247575Y0037275D03*
X0247575Y0037350D03*
X0247575Y0037425D03*
X0247575Y0037500D03*
X0247575Y0037575D03*
X0273450Y0037275D03*
X0273450Y0037200D03*
X0273450Y0035850D03*
X0273450Y0035775D03*
X0295950Y0035775D03*
X0295950Y0035850D03*
X0295950Y0037200D03*
X0295950Y0037275D03*
X0206175Y0032250D03*
X0205800Y0031725D03*
X0205800Y0013275D03*
X0206175Y0012750D03*
D34*
X0217537Y0008250D03*
D35*
X0203662Y0008250D03*
X0203812Y0012450D03*
X0203887Y0012525D03*
X0203962Y0012600D03*
X0204037Y0012675D03*
X0204112Y0012750D03*
X0204187Y0012825D03*
X0204187Y0032250D03*
X0204112Y0032325D03*
X0204037Y0032400D03*
X0203962Y0032475D03*
X0203887Y0032550D03*
X0203812Y0032625D03*
X0205462Y0034125D03*
X0205537Y0034050D03*
X0205612Y0033975D03*
X0205687Y0033900D03*
X0205762Y0033825D03*
X0205837Y0033750D03*
X0203662Y0036825D03*
X0284513Y0022425D03*
D36*
X0284700Y0010875D03*
X0284700Y0008325D03*
X0243675Y0012900D03*
X0239025Y0012825D03*
X0239025Y0009750D03*
X0235800Y0009675D03*
X0235800Y0012900D03*
X0228450Y0012600D03*
X0228450Y0012525D03*
X0228450Y0013425D03*
X0228450Y0010050D03*
X0228450Y0009225D03*
X0228450Y0009150D03*
X0206175Y0012375D03*
X0205800Y0013650D03*
X0222450Y0023850D03*
X0223350Y0026400D03*
X0223800Y0035625D03*
X0206175Y0032625D03*
X0205800Y0031350D03*
X0245325Y0038325D03*
X0245325Y0038400D03*
X0245325Y0039150D03*
X0245325Y0039225D03*
X0273450Y0037800D03*
X0273450Y0035250D03*
X0295950Y0035250D03*
X0295950Y0037800D03*
D37*
X0217537Y0008325D03*
D38*
X0210450Y0011850D03*
X0204225Y0013800D03*
X0203625Y0014475D03*
X0203625Y0014550D03*
X0203625Y0014625D03*
X0203625Y0014700D03*
X0203625Y0014775D03*
X0204225Y0015450D03*
X0203775Y0009075D03*
X0203625Y0008325D03*
X0190800Y0012225D03*
X0190800Y0012300D03*
X0190800Y0012375D03*
X0190800Y0012450D03*
X0190800Y0012525D03*
X0190200Y0013200D03*
X0189600Y0012525D03*
X0189600Y0012450D03*
X0189600Y0012375D03*
X0189600Y0012300D03*
X0189600Y0012225D03*
X0207600Y0021675D03*
X0208200Y0022350D03*
X0208200Y0022425D03*
X0208200Y0022500D03*
X0208200Y0022575D03*
X0208200Y0022650D03*
X0207600Y0023325D03*
X0216075Y0024150D03*
X0216075Y0026400D03*
X0209325Y0035400D03*
X0209325Y0037650D03*
X0203625Y0036750D03*
X0203775Y0035925D03*
X0187950Y0036225D03*
X0187350Y0035550D03*
X0187350Y0035475D03*
X0187350Y0035400D03*
X0187350Y0035325D03*
X0187350Y0035250D03*
X0252075Y0035625D03*
X0252075Y0037425D03*
X0256650Y0035400D03*
X0257625Y0035400D03*
X0265650Y0035400D03*
X0266625Y0035400D03*
X0267825Y0030150D03*
X0267825Y0028350D03*
X0265650Y0024225D03*
X0261075Y0023925D03*
X0261075Y0022125D03*
X0252075Y0010500D03*
X0252075Y0008700D03*
X0256650Y0008475D03*
X0257625Y0008475D03*
X0265650Y0008475D03*
X0266625Y0008475D03*
D39*
X0284700Y0008475D03*
X0284700Y0008400D03*
X0284700Y0010725D03*
X0284700Y0010800D03*
X0273450Y0035325D03*
X0273450Y0035400D03*
X0273450Y0037650D03*
X0273450Y0037725D03*
X0295950Y0037725D03*
X0295950Y0037650D03*
X0295950Y0035400D03*
X0295950Y0035325D03*
X0243600Y0012975D03*
X0235725Y0012975D03*
X0235725Y0009600D03*
X0222075Y0024075D03*
X0205800Y0031425D03*
X0205800Y0013575D03*
D40*
X0257137Y0008400D03*
X0266138Y0008400D03*
X0283613Y0009450D03*
X0283613Y0009525D03*
X0283613Y0009600D03*
X0283613Y0009675D03*
X0283613Y0009750D03*
X0285788Y0009750D03*
X0285788Y0009675D03*
X0285788Y0009600D03*
X0285788Y0009525D03*
X0285788Y0009450D03*
X0297038Y0036375D03*
X0297038Y0036450D03*
X0297038Y0036525D03*
X0297038Y0036600D03*
X0297038Y0036675D03*
X0272363Y0036675D03*
X0272363Y0036600D03*
X0272363Y0036525D03*
X0272363Y0036450D03*
X0272363Y0036375D03*
X0266138Y0035325D03*
X0257137Y0035325D03*
D41*
X0257100Y0036525D03*
X0266100Y0036525D03*
X0268575Y0029475D03*
X0268575Y0029025D03*
X0266100Y0023025D03*
X0266100Y0009600D03*
X0257100Y0009600D03*
X0247575Y0023025D03*
X0228450Y0014175D03*
X0227625Y0013125D03*
X0227625Y0013050D03*
X0227625Y0012975D03*
X0227625Y0012900D03*
X0227625Y0012825D03*
X0228450Y0011775D03*
X0228450Y0010800D03*
X0227625Y0009750D03*
X0227625Y0009675D03*
X0227625Y0009600D03*
X0227625Y0009525D03*
X0227625Y0009450D03*
X0228450Y0008400D03*
X0210450Y0011775D03*
X0206175Y0011625D03*
X0203400Y0012000D03*
X0204225Y0013950D03*
X0204225Y0015300D03*
X0205950Y0018600D03*
X0207600Y0021825D03*
X0207600Y0023175D03*
X0205950Y0026400D03*
X0205875Y0030075D03*
X0205875Y0030525D03*
X0203400Y0033000D03*
X0203775Y0035700D03*
X0209325Y0035475D03*
X0209325Y0037575D03*
X0216075Y0026325D03*
X0216075Y0024225D03*
X0203775Y0009300D03*
X0190200Y0011700D03*
X0190200Y0013050D03*
X0187950Y0036075D03*
X0244500Y0038625D03*
X0244500Y0038700D03*
X0244500Y0038775D03*
X0244500Y0038850D03*
X0244500Y0038925D03*
X0245325Y0039975D03*
X0246150Y0038925D03*
X0246150Y0038850D03*
X0246150Y0038775D03*
X0246150Y0038700D03*
X0246150Y0038625D03*
X0245325Y0037575D03*
D42*
X0217537Y0008400D03*
D43*
X0208500Y0013050D03*
X0208500Y0013125D03*
X0208425Y0013200D03*
X0208350Y0013275D03*
X0208275Y0013350D03*
X0208200Y0013425D03*
X0208125Y0013500D03*
X0208050Y0013575D03*
X0207975Y0013650D03*
X0207900Y0013725D03*
X0207825Y0013800D03*
X0207750Y0013875D03*
X0207675Y0013950D03*
X0207600Y0014025D03*
X0207525Y0014100D03*
X0207450Y0014175D03*
X0207375Y0014250D03*
X0207300Y0014325D03*
X0207225Y0014400D03*
X0207150Y0014475D03*
X0207075Y0014550D03*
X0207000Y0014625D03*
X0206925Y0014700D03*
X0206850Y0014775D03*
X0206775Y0014850D03*
X0206700Y0014925D03*
X0206625Y0015000D03*
X0208425Y0012975D03*
X0208350Y0012900D03*
X0208275Y0012825D03*
X0208200Y0012750D03*
X0208125Y0012675D03*
X0208050Y0012600D03*
X0207975Y0012525D03*
X0207900Y0012450D03*
X0207825Y0012375D03*
X0207750Y0012300D03*
X0207675Y0012225D03*
X0207600Y0012150D03*
X0207525Y0012075D03*
X0207450Y0012000D03*
X0207375Y0011925D03*
X0207300Y0011850D03*
X0207225Y0011775D03*
X0207150Y0011700D03*
X0207075Y0011625D03*
X0207000Y0011550D03*
X0206925Y0011475D03*
X0206850Y0011400D03*
X0206775Y0011325D03*
X0206700Y0011250D03*
X0206625Y0011175D03*
X0206550Y0011100D03*
X0206475Y0011025D03*
X0206175Y0011250D03*
X0205650Y0010275D03*
X0205575Y0010200D03*
X0205500Y0010125D03*
X0205425Y0010050D03*
X0205350Y0009975D03*
X0205275Y0009900D03*
X0205200Y0009825D03*
X0205125Y0009750D03*
X0205050Y0009675D03*
X0204975Y0009600D03*
X0204900Y0009525D03*
X0204825Y0009450D03*
X0204750Y0009375D03*
X0204675Y0009300D03*
X0204600Y0009225D03*
X0204525Y0009150D03*
X0204450Y0009075D03*
X0204375Y0009000D03*
X0204300Y0008925D03*
X0204225Y0008850D03*
X0204150Y0008775D03*
X0204075Y0008700D03*
X0203850Y0008475D03*
X0203775Y0008400D03*
X0203400Y0008400D03*
X0203325Y0008475D03*
X0203775Y0008925D03*
X0201600Y0011100D03*
X0201675Y0011175D03*
X0201750Y0011250D03*
X0201975Y0011475D03*
X0202050Y0011550D03*
X0202125Y0011625D03*
X0202200Y0011700D03*
X0202275Y0011775D03*
X0202350Y0011850D03*
X0202425Y0011925D03*
X0202500Y0012000D03*
X0202575Y0012075D03*
X0202650Y0012150D03*
X0202725Y0012225D03*
X0202800Y0012300D03*
X0202875Y0012375D03*
X0202950Y0012450D03*
X0203025Y0012525D03*
X0203100Y0012600D03*
X0203175Y0012675D03*
X0203250Y0012750D03*
X0203325Y0012825D03*
X0203400Y0012900D03*
X0203475Y0012975D03*
X0203550Y0013050D03*
X0203625Y0013125D03*
X0203700Y0013200D03*
X0203775Y0013275D03*
X0203850Y0013350D03*
X0203925Y0013425D03*
X0204000Y0013500D03*
X0204075Y0013575D03*
X0204150Y0013650D03*
X0204225Y0013725D03*
X0205425Y0030150D03*
X0205350Y0030225D03*
X0205275Y0030300D03*
X0205200Y0030375D03*
X0205125Y0030450D03*
X0205050Y0030525D03*
X0204975Y0030600D03*
X0204900Y0030675D03*
X0204825Y0030750D03*
X0204750Y0030825D03*
X0204675Y0030900D03*
X0204600Y0030975D03*
X0204525Y0031050D03*
X0204450Y0031125D03*
X0204375Y0031200D03*
X0204300Y0031275D03*
X0204225Y0031350D03*
X0204150Y0031425D03*
X0204075Y0031500D03*
X0204000Y0031575D03*
X0203925Y0031650D03*
X0203850Y0031725D03*
X0203775Y0031800D03*
X0203700Y0031875D03*
X0203625Y0031950D03*
X0203550Y0032025D03*
X0203475Y0032100D03*
X0203400Y0032175D03*
X0203325Y0032250D03*
X0203250Y0032325D03*
X0203175Y0032400D03*
X0203100Y0032475D03*
X0203025Y0032550D03*
X0202950Y0032625D03*
X0202875Y0032700D03*
X0202800Y0032775D03*
X0202725Y0032850D03*
X0202650Y0032925D03*
X0202575Y0033000D03*
X0202500Y0033075D03*
X0202425Y0033150D03*
X0202350Y0033225D03*
X0202275Y0033300D03*
X0202200Y0033375D03*
X0202125Y0033450D03*
X0202050Y0033525D03*
X0201975Y0033600D03*
X0201750Y0033825D03*
X0201675Y0033900D03*
X0203400Y0032625D03*
X0205575Y0034875D03*
X0205500Y0034950D03*
X0205425Y0035025D03*
X0205350Y0035100D03*
X0205275Y0035175D03*
X0205200Y0035250D03*
X0205125Y0035325D03*
X0205050Y0035400D03*
X0204975Y0035475D03*
X0204900Y0035550D03*
X0204825Y0035625D03*
X0204750Y0035700D03*
X0204675Y0035775D03*
X0204600Y0035850D03*
X0204525Y0035925D03*
X0204450Y0036000D03*
X0204375Y0036075D03*
X0204300Y0036150D03*
X0204225Y0036225D03*
X0204150Y0036300D03*
X0204075Y0036375D03*
X0203850Y0036600D03*
X0203775Y0036675D03*
X0203400Y0036675D03*
X0203325Y0036600D03*
X0203775Y0036075D03*
X0205650Y0034800D03*
X0206475Y0034050D03*
X0206550Y0033975D03*
X0206625Y0033900D03*
X0206700Y0033825D03*
X0206775Y0033750D03*
X0206850Y0033675D03*
X0206925Y0033600D03*
X0207000Y0033525D03*
X0207075Y0033450D03*
X0207150Y0033375D03*
X0207225Y0033300D03*
X0207300Y0033225D03*
X0207375Y0033150D03*
X0207450Y0033075D03*
X0207525Y0033000D03*
X0207600Y0032925D03*
X0207675Y0032850D03*
X0207750Y0032775D03*
X0207825Y0032700D03*
X0207900Y0032625D03*
X0207975Y0032550D03*
X0208050Y0032475D03*
X0208125Y0032400D03*
X0208200Y0032325D03*
X0208275Y0032250D03*
X0208350Y0032175D03*
X0208425Y0032100D03*
X0208500Y0032025D03*
X0208500Y0031950D03*
X0208425Y0031875D03*
X0208350Y0031800D03*
X0208275Y0031725D03*
X0208200Y0031650D03*
X0208125Y0031575D03*
X0208050Y0031500D03*
X0207975Y0031425D03*
X0207900Y0031350D03*
X0207825Y0031275D03*
X0207750Y0031200D03*
X0207675Y0031125D03*
X0207600Y0031050D03*
X0207525Y0030975D03*
X0207450Y0030900D03*
X0207375Y0030825D03*
X0207300Y0030750D03*
X0207225Y0030675D03*
X0207150Y0030600D03*
X0207075Y0030525D03*
X0207000Y0030450D03*
X0206925Y0030375D03*
X0206850Y0030300D03*
X0206775Y0030225D03*
X0206700Y0030150D03*
X0206625Y0030075D03*
X0284400Y0022575D03*
X0284625Y0022350D03*
X0284700Y0022200D03*
X0284775Y0022125D03*
X0284850Y0022050D03*
D44*
X0200287Y0008475D03*
X0200287Y0008400D03*
X0192412Y0008400D03*
X0192412Y0008475D03*
X0192412Y0008550D03*
X0192412Y0008625D03*
X0192412Y0010650D03*
X0192412Y0010725D03*
X0192412Y0010800D03*
X0192412Y0010875D03*
X0192412Y0036450D03*
X0192412Y0036525D03*
X0192412Y0036600D03*
X0192412Y0036675D03*
X0200287Y0036675D03*
X0200287Y0036600D03*
D45*
X0217537Y0008475D03*
D46*
X0206175Y0012525D03*
X0205800Y0013500D03*
X0203475Y0011100D03*
X0207000Y0022875D03*
X0205800Y0031500D03*
X0206175Y0032475D03*
X0203475Y0033825D03*
X0235650Y0013050D03*
X0235650Y0009525D03*
X0243525Y0013050D03*
X0273450Y0035475D03*
X0273450Y0037575D03*
X0284700Y0030375D03*
X0284700Y0030300D03*
X0284700Y0030225D03*
X0284700Y0030150D03*
X0284700Y0030075D03*
X0284700Y0030000D03*
X0284700Y0029925D03*
X0284700Y0029850D03*
X0284700Y0029775D03*
X0284700Y0029700D03*
X0284700Y0029625D03*
X0284700Y0029550D03*
X0284700Y0029475D03*
X0284700Y0029400D03*
X0284700Y0029325D03*
X0284700Y0029250D03*
X0284700Y0029175D03*
X0284700Y0029100D03*
X0284700Y0029025D03*
X0284700Y0028950D03*
X0295950Y0035475D03*
X0295950Y0037575D03*
X0284700Y0017250D03*
X0284700Y0017175D03*
X0284700Y0017100D03*
X0284700Y0017025D03*
X0284700Y0016950D03*
X0284700Y0016875D03*
X0284700Y0016800D03*
X0284700Y0016725D03*
X0284700Y0016650D03*
X0284700Y0016575D03*
X0284700Y0016500D03*
X0284700Y0016425D03*
X0284700Y0016350D03*
X0284700Y0016275D03*
X0284700Y0016200D03*
X0284700Y0016125D03*
X0284700Y0016050D03*
X0284700Y0015975D03*
X0284700Y0015900D03*
X0284700Y0015825D03*
X0284700Y0015750D03*
X0284700Y0010650D03*
X0284700Y0008550D03*
D47*
X0266925Y0008625D03*
X0266850Y0008550D03*
X0266100Y0009450D03*
X0266100Y0009525D03*
X0266100Y0009675D03*
X0266100Y0009750D03*
X0265350Y0010650D03*
X0265425Y0010725D03*
X0265350Y0008625D03*
X0265425Y0008550D03*
X0257925Y0008625D03*
X0257850Y0008550D03*
X0257100Y0009450D03*
X0257100Y0009525D03*
X0257100Y0009675D03*
X0257100Y0009750D03*
X0256350Y0010650D03*
X0256425Y0010725D03*
X0256350Y0008625D03*
X0256425Y0008550D03*
X0249525Y0012150D03*
X0249525Y0012225D03*
X0249525Y0012300D03*
X0249525Y0012375D03*
X0249525Y0012450D03*
X0249525Y0012525D03*
X0249525Y0012600D03*
X0249525Y0012675D03*
X0249525Y0012750D03*
X0249525Y0012825D03*
X0249525Y0012900D03*
X0249525Y0012975D03*
X0249525Y0013050D03*
X0249525Y0013125D03*
X0249525Y0013200D03*
X0249525Y0013275D03*
X0249525Y0013350D03*
X0249525Y0013425D03*
X0249525Y0013500D03*
X0249525Y0013575D03*
X0249525Y0013650D03*
X0249525Y0013725D03*
X0249525Y0013800D03*
X0249525Y0013875D03*
X0249525Y0013950D03*
X0249525Y0014025D03*
X0249525Y0014100D03*
X0249525Y0014175D03*
X0249525Y0014250D03*
X0249525Y0014325D03*
X0249525Y0014400D03*
X0249525Y0014475D03*
X0249525Y0014550D03*
X0249525Y0014625D03*
X0249525Y0014700D03*
X0249525Y0014775D03*
X0249525Y0014850D03*
X0249525Y0014925D03*
X0249525Y0015000D03*
X0249525Y0015075D03*
X0249525Y0015150D03*
X0249525Y0015225D03*
X0249525Y0015300D03*
X0249525Y0015375D03*
X0249525Y0015450D03*
X0249525Y0015525D03*
X0249525Y0015600D03*
X0249525Y0015675D03*
X0249525Y0015750D03*
X0249525Y0015825D03*
X0249525Y0015900D03*
X0249525Y0015975D03*
X0249525Y0016050D03*
X0249525Y0016125D03*
X0249525Y0016200D03*
X0249525Y0016275D03*
X0249525Y0016350D03*
X0249525Y0016425D03*
X0249525Y0016500D03*
X0249525Y0016575D03*
X0249525Y0016650D03*
X0249525Y0016725D03*
X0249525Y0016800D03*
X0249525Y0016875D03*
X0249525Y0016950D03*
X0249525Y0017025D03*
X0249525Y0017100D03*
X0249525Y0017175D03*
X0249525Y0017250D03*
X0249525Y0017325D03*
X0249525Y0017400D03*
X0249525Y0017475D03*
X0249525Y0017550D03*
X0249525Y0017625D03*
X0249525Y0017700D03*
X0249525Y0017775D03*
X0249525Y0017850D03*
X0249525Y0017925D03*
X0249525Y0018000D03*
X0249525Y0018075D03*
X0249525Y0018150D03*
X0249525Y0018225D03*
X0249525Y0018300D03*
X0249525Y0018375D03*
X0249525Y0018450D03*
X0249525Y0018525D03*
X0249525Y0018600D03*
X0249525Y0018675D03*
X0249525Y0018750D03*
X0249525Y0018825D03*
X0249525Y0018900D03*
X0249525Y0018975D03*
X0249525Y0019050D03*
X0249525Y0019125D03*
X0249525Y0019200D03*
X0249525Y0019275D03*
X0249525Y0019350D03*
X0249525Y0019425D03*
X0249525Y0019500D03*
X0249525Y0019575D03*
X0249525Y0019650D03*
X0249525Y0019725D03*
X0249525Y0019800D03*
X0249525Y0019875D03*
X0249525Y0019950D03*
X0249525Y0020025D03*
X0249525Y0020100D03*
X0249525Y0020175D03*
X0249525Y0020250D03*
X0249525Y0020325D03*
X0249525Y0020400D03*
X0249525Y0020475D03*
X0249525Y0020550D03*
X0249525Y0020625D03*
X0249525Y0020700D03*
X0249525Y0020775D03*
X0249525Y0020850D03*
X0249525Y0020925D03*
X0249525Y0021000D03*
X0249525Y0021075D03*
X0249525Y0021150D03*
X0249525Y0021225D03*
X0249525Y0021300D03*
X0249525Y0021375D03*
X0249525Y0021450D03*
X0249525Y0021525D03*
X0249525Y0021600D03*
X0249525Y0021675D03*
X0249525Y0021750D03*
X0249525Y0021825D03*
X0249525Y0021900D03*
X0249525Y0021975D03*
X0249525Y0022050D03*
X0249525Y0022125D03*
X0249525Y0022200D03*
X0249525Y0022275D03*
X0249525Y0022350D03*
X0249525Y0022425D03*
X0249525Y0022500D03*
X0249525Y0022575D03*
X0249525Y0022650D03*
X0249525Y0022725D03*
X0249525Y0022800D03*
X0249525Y0022875D03*
X0249525Y0022950D03*
X0249525Y0023025D03*
X0249525Y0023100D03*
X0249525Y0023175D03*
X0249525Y0023250D03*
X0249525Y0023325D03*
X0249525Y0023400D03*
X0249525Y0023475D03*
X0249525Y0023550D03*
X0249525Y0023625D03*
X0249525Y0023700D03*
X0249525Y0023775D03*
X0249525Y0023850D03*
X0249525Y0023925D03*
X0249525Y0024000D03*
X0249525Y0024075D03*
X0249525Y0024150D03*
X0249525Y0024225D03*
X0249525Y0024300D03*
X0249525Y0024375D03*
X0249525Y0024450D03*
X0249525Y0024525D03*
X0249525Y0024600D03*
X0249525Y0024675D03*
X0249525Y0024750D03*
X0249525Y0024825D03*
X0249525Y0024900D03*
X0249525Y0024975D03*
X0249525Y0025050D03*
X0249525Y0025125D03*
X0249525Y0025200D03*
X0249525Y0025275D03*
X0249525Y0025350D03*
X0249525Y0025425D03*
X0249525Y0025500D03*
X0249525Y0025575D03*
X0249525Y0025650D03*
X0249525Y0025725D03*
X0249525Y0025800D03*
X0249525Y0025875D03*
X0249525Y0025950D03*
X0249525Y0026025D03*
X0249525Y0026100D03*
X0249525Y0026175D03*
X0249525Y0026250D03*
X0249525Y0026325D03*
X0249525Y0026400D03*
X0249525Y0026475D03*
X0249525Y0026550D03*
X0249525Y0026625D03*
X0249525Y0026700D03*
X0249525Y0026775D03*
X0249525Y0026850D03*
X0249525Y0026925D03*
X0249525Y0027000D03*
X0249525Y0027075D03*
X0249525Y0027150D03*
X0249525Y0027225D03*
X0249525Y0027300D03*
X0249525Y0027375D03*
X0249525Y0027450D03*
X0249525Y0027525D03*
X0249525Y0027600D03*
X0249525Y0027675D03*
X0249525Y0027750D03*
X0249525Y0027825D03*
X0249525Y0027900D03*
X0249525Y0027975D03*
X0249525Y0028050D03*
X0249525Y0028125D03*
X0249525Y0028200D03*
X0249525Y0028275D03*
X0249525Y0028350D03*
X0249525Y0028425D03*
X0249525Y0028500D03*
X0249525Y0028575D03*
X0249525Y0028650D03*
X0249525Y0028725D03*
X0249525Y0028800D03*
X0249525Y0028875D03*
X0249525Y0028950D03*
X0249525Y0029025D03*
X0249525Y0029100D03*
X0249525Y0029175D03*
X0249525Y0029250D03*
X0249525Y0029325D03*
X0249525Y0029400D03*
X0249525Y0029475D03*
X0249525Y0029550D03*
X0249525Y0029625D03*
X0249525Y0029700D03*
X0249525Y0029775D03*
X0249525Y0029850D03*
X0249525Y0029925D03*
X0249525Y0030000D03*
X0249525Y0030075D03*
X0249525Y0030150D03*
X0249525Y0030225D03*
X0249525Y0030300D03*
X0249525Y0030375D03*
X0249525Y0030450D03*
X0249525Y0030525D03*
X0249525Y0030600D03*
X0249525Y0030675D03*
X0249525Y0030750D03*
X0249525Y0030825D03*
X0249525Y0030900D03*
X0249525Y0030975D03*
X0249525Y0031050D03*
X0249525Y0031125D03*
X0249525Y0031200D03*
X0249525Y0031275D03*
X0249525Y0031350D03*
X0249525Y0031425D03*
X0249525Y0031500D03*
X0249525Y0031575D03*
X0249525Y0031650D03*
X0249525Y0031725D03*
X0249525Y0031800D03*
X0249525Y0031875D03*
X0249525Y0031950D03*
X0249525Y0032025D03*
X0249525Y0032100D03*
X0249525Y0032175D03*
X0249525Y0032250D03*
X0249525Y0032325D03*
X0249525Y0032400D03*
X0249525Y0032475D03*
X0249525Y0032550D03*
X0249525Y0032625D03*
X0249525Y0032700D03*
X0249525Y0032775D03*
X0249525Y0032850D03*
X0249525Y0032925D03*
X0249525Y0033000D03*
X0249525Y0033075D03*
X0249525Y0033150D03*
X0249525Y0033225D03*
X0249525Y0033300D03*
X0249525Y0033375D03*
X0249525Y0033450D03*
X0249525Y0033525D03*
X0249525Y0033600D03*
X0249525Y0033675D03*
X0249525Y0033750D03*
X0249525Y0033825D03*
X0249525Y0033900D03*
X0249525Y0033975D03*
X0245625Y0033975D03*
X0245625Y0033900D03*
X0245625Y0033825D03*
X0245625Y0033750D03*
X0245625Y0033675D03*
X0245625Y0033600D03*
X0245625Y0033525D03*
X0245625Y0033450D03*
X0245625Y0033375D03*
X0245625Y0033300D03*
X0245625Y0033225D03*
X0245625Y0033150D03*
X0245625Y0033075D03*
X0245625Y0033000D03*
X0245625Y0032925D03*
X0245625Y0032850D03*
X0245625Y0032775D03*
X0245625Y0032700D03*
X0245625Y0032625D03*
X0245625Y0032550D03*
X0245625Y0032475D03*
X0245625Y0032400D03*
X0245625Y0032325D03*
X0245625Y0032250D03*
X0245625Y0032175D03*
X0245625Y0032100D03*
X0245625Y0032025D03*
X0245625Y0031950D03*
X0245625Y0031875D03*
X0245625Y0031800D03*
X0245625Y0031725D03*
X0245625Y0031650D03*
X0245625Y0031575D03*
X0245625Y0031500D03*
X0245625Y0031425D03*
X0245625Y0031350D03*
X0245625Y0031275D03*
X0245625Y0031200D03*
X0245625Y0031125D03*
X0245625Y0031050D03*
X0245625Y0030975D03*
X0245625Y0030900D03*
X0245625Y0030825D03*
X0245625Y0030750D03*
X0245625Y0030675D03*
X0245625Y0030600D03*
X0245625Y0030525D03*
X0245625Y0030450D03*
X0245625Y0030375D03*
X0245625Y0030300D03*
X0245625Y0030225D03*
X0245625Y0030150D03*
X0245625Y0030075D03*
X0245625Y0030000D03*
X0245625Y0029925D03*
X0245625Y0029850D03*
X0245625Y0029775D03*
X0245625Y0029700D03*
X0245625Y0029625D03*
X0245625Y0029550D03*
X0245625Y0029475D03*
X0245625Y0029400D03*
X0245625Y0029325D03*
X0245625Y0029250D03*
X0245625Y0029175D03*
X0245625Y0029100D03*
X0245625Y0029025D03*
X0245625Y0028950D03*
X0245625Y0028875D03*
X0245625Y0028800D03*
X0245625Y0028725D03*
X0245625Y0028650D03*
X0245625Y0028575D03*
X0245625Y0028500D03*
X0245625Y0028425D03*
X0245625Y0028350D03*
X0245625Y0028275D03*
X0245625Y0028200D03*
X0245625Y0028125D03*
X0245625Y0028050D03*
X0245625Y0027975D03*
X0245625Y0027900D03*
X0245625Y0027825D03*
X0245625Y0027750D03*
X0245625Y0027675D03*
X0245625Y0027600D03*
X0245625Y0027525D03*
X0245625Y0027450D03*
X0245625Y0027375D03*
X0245625Y0027300D03*
X0245625Y0027225D03*
X0245625Y0027150D03*
X0245625Y0027075D03*
X0245625Y0027000D03*
X0245625Y0026925D03*
X0245625Y0026850D03*
X0245625Y0026775D03*
X0245625Y0026700D03*
X0245625Y0026625D03*
X0245625Y0026550D03*
X0245625Y0026475D03*
X0245625Y0026400D03*
X0245625Y0026325D03*
X0245625Y0026250D03*
X0245625Y0026175D03*
X0245625Y0026100D03*
X0245625Y0026025D03*
X0245625Y0025950D03*
X0245625Y0025875D03*
X0245625Y0025800D03*
X0245625Y0025725D03*
X0245625Y0025650D03*
X0245625Y0025575D03*
X0245625Y0025500D03*
X0245625Y0025425D03*
X0245625Y0025350D03*
X0245625Y0025275D03*
X0245625Y0025200D03*
X0245625Y0025125D03*
X0245625Y0025050D03*
X0245625Y0024975D03*
X0245625Y0024900D03*
X0245625Y0024825D03*
X0245625Y0024750D03*
X0245625Y0024675D03*
X0245625Y0024600D03*
X0245625Y0024525D03*
X0245625Y0024450D03*
X0245625Y0024375D03*
X0245625Y0024300D03*
X0245625Y0024225D03*
X0245625Y0024150D03*
X0245625Y0024075D03*
X0245625Y0024000D03*
X0245625Y0023925D03*
X0245625Y0023850D03*
X0245625Y0023775D03*
X0245625Y0023700D03*
X0245625Y0023625D03*
X0245625Y0023550D03*
X0245625Y0023475D03*
X0245625Y0023400D03*
X0245625Y0023325D03*
X0245625Y0023250D03*
X0245625Y0023175D03*
X0245625Y0023100D03*
X0245625Y0023025D03*
X0245625Y0022950D03*
X0245625Y0022875D03*
X0245625Y0022800D03*
X0245625Y0022725D03*
X0245625Y0022650D03*
X0245625Y0022575D03*
X0245625Y0022500D03*
X0245625Y0022425D03*
X0245625Y0022350D03*
X0245625Y0022275D03*
X0245625Y0022200D03*
X0245625Y0022125D03*
X0245625Y0022050D03*
X0245625Y0021975D03*
X0245625Y0021900D03*
X0245625Y0021825D03*
X0245625Y0021750D03*
X0245625Y0021675D03*
X0245625Y0021600D03*
X0245625Y0021525D03*
X0245625Y0021450D03*
X0245625Y0021375D03*
X0245625Y0021300D03*
X0245625Y0021225D03*
X0245625Y0021150D03*
X0245625Y0021075D03*
X0245625Y0021000D03*
X0245625Y0020925D03*
X0245625Y0020850D03*
X0245625Y0020775D03*
X0245625Y0020700D03*
X0245625Y0020625D03*
X0245625Y0020550D03*
X0245625Y0020475D03*
X0245625Y0020400D03*
X0245625Y0020325D03*
X0245625Y0020250D03*
X0245625Y0020175D03*
X0245625Y0020100D03*
X0245625Y0020025D03*
X0245625Y0019950D03*
X0245625Y0019875D03*
X0245625Y0019800D03*
X0245625Y0019725D03*
X0245625Y0019650D03*
X0245625Y0019575D03*
X0245625Y0019500D03*
X0245625Y0019425D03*
X0245625Y0019350D03*
X0245625Y0019275D03*
X0245625Y0019200D03*
X0245625Y0019125D03*
X0245625Y0019050D03*
X0245625Y0018975D03*
X0245625Y0018900D03*
X0245625Y0018825D03*
X0245625Y0018750D03*
X0245625Y0018675D03*
X0245625Y0018600D03*
X0245625Y0018525D03*
X0245625Y0018450D03*
X0245625Y0018375D03*
X0245625Y0018300D03*
X0245625Y0018225D03*
X0245625Y0018150D03*
X0245625Y0018075D03*
X0245625Y0018000D03*
X0245625Y0017925D03*
X0245625Y0017850D03*
X0245625Y0017775D03*
X0245625Y0017700D03*
X0245625Y0017625D03*
X0245625Y0017550D03*
X0245625Y0017475D03*
X0245625Y0017400D03*
X0245625Y0017325D03*
X0245625Y0017250D03*
X0245625Y0017175D03*
X0245625Y0017100D03*
X0245625Y0017025D03*
X0245625Y0016950D03*
X0245625Y0016875D03*
X0245625Y0016800D03*
X0245625Y0016725D03*
X0245625Y0016650D03*
X0245625Y0016575D03*
X0245625Y0016500D03*
X0245625Y0016425D03*
X0245625Y0016350D03*
X0245625Y0016275D03*
X0245625Y0016200D03*
X0245625Y0016125D03*
X0245625Y0016050D03*
X0245625Y0015975D03*
X0245625Y0015900D03*
X0245625Y0015825D03*
X0245625Y0015750D03*
X0245625Y0015675D03*
X0245625Y0015600D03*
X0245625Y0015525D03*
X0245625Y0015450D03*
X0245625Y0015375D03*
X0245625Y0015300D03*
X0245625Y0015225D03*
X0245625Y0015150D03*
X0245625Y0015075D03*
X0245625Y0015000D03*
X0245625Y0014925D03*
X0245625Y0014850D03*
X0245625Y0014775D03*
X0245625Y0014700D03*
X0245625Y0014625D03*
X0245625Y0014550D03*
X0245625Y0014475D03*
X0245625Y0014400D03*
X0245625Y0014325D03*
X0245625Y0014250D03*
X0245625Y0014175D03*
X0245625Y0014100D03*
X0245625Y0014025D03*
X0245625Y0013950D03*
X0245625Y0013875D03*
X0245625Y0013800D03*
X0245625Y0013725D03*
X0245625Y0013650D03*
X0245625Y0013575D03*
X0245625Y0013500D03*
X0245625Y0013425D03*
X0245625Y0013350D03*
X0245625Y0013275D03*
X0245625Y0013200D03*
X0245625Y0013125D03*
X0245625Y0013050D03*
X0245625Y0012975D03*
X0245625Y0012900D03*
X0245625Y0012825D03*
X0245625Y0012750D03*
X0245625Y0012675D03*
X0245625Y0012600D03*
X0245625Y0012525D03*
X0245625Y0012450D03*
X0245625Y0012375D03*
X0245625Y0012300D03*
X0245625Y0012225D03*
X0245625Y0012150D03*
X0265500Y0021975D03*
X0266100Y0022875D03*
X0266100Y0022950D03*
X0266100Y0023100D03*
X0266100Y0023175D03*
X0265350Y0024075D03*
X0265425Y0024150D03*
X0266775Y0021975D03*
X0266850Y0035475D03*
X0266925Y0035550D03*
X0266100Y0036375D03*
X0266100Y0036450D03*
X0266100Y0036600D03*
X0266100Y0036675D03*
X0265350Y0037575D03*
X0265425Y0037650D03*
X0265350Y0035550D03*
X0265425Y0035475D03*
X0257925Y0035550D03*
X0257850Y0035475D03*
X0257100Y0036375D03*
X0257100Y0036450D03*
X0257100Y0036600D03*
X0257100Y0036675D03*
X0256350Y0037575D03*
X0256425Y0037650D03*
X0256350Y0035550D03*
X0256425Y0035475D03*
X0203925Y0036450D03*
X0203775Y0036000D03*
X0205800Y0011250D03*
X0205725Y0011175D03*
X0205650Y0011100D03*
X0205575Y0011025D03*
X0205500Y0010950D03*
X0205425Y0010875D03*
X0205350Y0010800D03*
X0203775Y0009000D03*
X0203925Y0008625D03*
D48*
X0217575Y0008550D03*
D49*
X0203887Y0008550D03*
X0204862Y0018075D03*
X0204862Y0018150D03*
X0204862Y0018225D03*
X0204862Y0018300D03*
X0204862Y0018375D03*
X0204862Y0018450D03*
X0204862Y0018525D03*
X0204862Y0018600D03*
X0204862Y0018675D03*
X0204862Y0018750D03*
X0204862Y0018825D03*
X0204862Y0018900D03*
X0204862Y0018975D03*
X0204862Y0019050D03*
X0207112Y0019050D03*
X0207112Y0018975D03*
X0207112Y0018900D03*
X0207112Y0018825D03*
X0207112Y0018750D03*
X0207112Y0018675D03*
X0207112Y0018600D03*
X0207112Y0018525D03*
X0207112Y0018450D03*
X0207112Y0018375D03*
X0207112Y0018300D03*
X0207112Y0018225D03*
X0207112Y0018150D03*
X0207112Y0018075D03*
X0207112Y0025950D03*
X0207112Y0026025D03*
X0207112Y0026100D03*
X0207112Y0026175D03*
X0207112Y0026250D03*
X0207112Y0026325D03*
X0207112Y0026400D03*
X0207112Y0026475D03*
X0207112Y0026550D03*
X0207112Y0026625D03*
X0207112Y0026700D03*
X0207112Y0026775D03*
X0207112Y0026850D03*
X0207112Y0026925D03*
X0204862Y0026925D03*
X0204862Y0026850D03*
X0204862Y0026775D03*
X0204862Y0026700D03*
X0204862Y0026625D03*
X0204862Y0026550D03*
X0204862Y0026475D03*
X0204862Y0026400D03*
X0204862Y0026325D03*
X0204862Y0026250D03*
X0204862Y0026175D03*
X0204862Y0026100D03*
X0204862Y0026025D03*
X0204862Y0025950D03*
X0203887Y0036525D03*
X0265388Y0022050D03*
X0266888Y0022050D03*
X0281363Y0022050D03*
X0281363Y0022125D03*
X0281363Y0022200D03*
X0281363Y0022275D03*
X0281363Y0022350D03*
X0281363Y0022425D03*
X0281363Y0022500D03*
X0281363Y0022575D03*
X0281363Y0022650D03*
X0281363Y0022725D03*
X0281363Y0022800D03*
X0281363Y0022875D03*
X0281363Y0022950D03*
X0281363Y0023025D03*
X0281363Y0023100D03*
X0281363Y0023175D03*
X0281363Y0023250D03*
X0281363Y0023325D03*
X0281363Y0023400D03*
X0281363Y0023475D03*
X0281363Y0023550D03*
X0281363Y0023625D03*
X0281363Y0023700D03*
X0281363Y0023775D03*
X0281363Y0023850D03*
X0281363Y0023925D03*
X0281363Y0024000D03*
X0281363Y0024075D03*
X0281363Y0024150D03*
X0281363Y0024225D03*
X0281363Y0024300D03*
X0281363Y0024375D03*
X0281363Y0024450D03*
X0281363Y0024525D03*
X0281363Y0024600D03*
X0281363Y0024675D03*
X0281363Y0024750D03*
X0281363Y0024825D03*
X0281363Y0024900D03*
X0281363Y0024975D03*
X0281363Y0025050D03*
X0281363Y0025125D03*
X0281363Y0025200D03*
X0281363Y0025275D03*
X0281363Y0025350D03*
X0281363Y0025425D03*
X0281363Y0025500D03*
X0281363Y0025575D03*
X0281363Y0025650D03*
X0281363Y0025725D03*
X0281363Y0025800D03*
X0281363Y0025875D03*
X0281363Y0025950D03*
X0281363Y0026025D03*
X0281363Y0026100D03*
X0281363Y0026175D03*
X0281363Y0026250D03*
X0281363Y0026325D03*
X0281363Y0026400D03*
X0281363Y0026475D03*
X0281363Y0026550D03*
X0281363Y0026625D03*
X0281363Y0026700D03*
X0281363Y0026775D03*
X0281363Y0026850D03*
X0281363Y0026925D03*
X0281363Y0027000D03*
X0281363Y0027075D03*
X0281363Y0027150D03*
X0281363Y0027225D03*
X0281363Y0027300D03*
X0281363Y0027375D03*
X0281363Y0027450D03*
X0281363Y0027525D03*
X0281363Y0027600D03*
X0281363Y0027675D03*
X0281363Y0027750D03*
X0281363Y0027825D03*
X0281363Y0027900D03*
X0281363Y0027975D03*
X0281363Y0028050D03*
X0281363Y0028125D03*
X0281363Y0028200D03*
X0281363Y0028275D03*
X0281363Y0028350D03*
X0281363Y0028425D03*
X0281363Y0028500D03*
X0281363Y0028575D03*
X0283388Y0023850D03*
X0283388Y0023775D03*
X0283388Y0023700D03*
X0283388Y0023625D03*
X0283388Y0023550D03*
X0283388Y0023475D03*
X0283388Y0023400D03*
X0283388Y0023325D03*
X0283388Y0023250D03*
X0283388Y0023175D03*
X0283388Y0023100D03*
X0283388Y0023025D03*
X0283388Y0022950D03*
X0283388Y0022875D03*
X0283388Y0022800D03*
X0283388Y0022725D03*
X0283388Y0022650D03*
X0283388Y0022575D03*
X0283388Y0022500D03*
X0283388Y0022425D03*
X0283388Y0022350D03*
X0283388Y0022275D03*
X0283388Y0022200D03*
X0283388Y0022125D03*
X0283388Y0022050D03*
X0283388Y0021975D03*
X0283388Y0021900D03*
X0283388Y0021825D03*
X0283388Y0021750D03*
X0283388Y0021675D03*
X0283388Y0021600D03*
X0283388Y0021525D03*
X0283388Y0021450D03*
X0283388Y0021375D03*
X0283388Y0021300D03*
X0283388Y0021225D03*
X0283388Y0021150D03*
X0283388Y0021075D03*
X0283388Y0021000D03*
X0283388Y0020925D03*
X0283388Y0020850D03*
X0283388Y0020775D03*
X0283388Y0020700D03*
X0283388Y0020625D03*
X0283388Y0020550D03*
X0283388Y0020475D03*
X0283388Y0020400D03*
X0283388Y0020325D03*
X0283388Y0020250D03*
X0283388Y0020175D03*
X0283388Y0020100D03*
X0283388Y0020025D03*
X0283388Y0019950D03*
X0283388Y0019875D03*
X0283388Y0019800D03*
X0283388Y0019725D03*
X0281363Y0019725D03*
X0281363Y0019800D03*
X0281363Y0019875D03*
X0281363Y0019950D03*
X0281363Y0020025D03*
X0281363Y0020100D03*
X0281363Y0020175D03*
X0281363Y0020250D03*
X0281363Y0020325D03*
X0281363Y0020400D03*
X0281363Y0020475D03*
X0281363Y0020550D03*
X0281363Y0020625D03*
X0281363Y0020700D03*
X0281363Y0020775D03*
X0281363Y0020850D03*
X0281363Y0020925D03*
X0281363Y0021000D03*
X0281363Y0021075D03*
X0281363Y0021150D03*
X0281363Y0021225D03*
X0281363Y0021300D03*
X0281363Y0021375D03*
X0281363Y0021450D03*
X0281363Y0021525D03*
X0281363Y0021600D03*
X0281363Y0021675D03*
X0281363Y0021750D03*
X0281363Y0021825D03*
X0281363Y0021900D03*
X0281363Y0021975D03*
X0281363Y0019650D03*
X0281363Y0019575D03*
X0281363Y0019500D03*
X0281363Y0019425D03*
X0281363Y0019350D03*
X0281363Y0019275D03*
X0281363Y0019200D03*
X0281363Y0019125D03*
X0281363Y0019050D03*
X0281363Y0018975D03*
X0281363Y0018900D03*
X0281363Y0018825D03*
X0281363Y0018750D03*
X0281363Y0018675D03*
X0281363Y0018600D03*
X0281363Y0018525D03*
X0281363Y0018450D03*
X0281363Y0018375D03*
X0281363Y0018300D03*
X0281363Y0018225D03*
X0281363Y0018150D03*
X0281363Y0018075D03*
X0281363Y0018000D03*
X0281363Y0017925D03*
X0281363Y0017850D03*
X0281363Y0017775D03*
X0281363Y0017700D03*
X0281363Y0017625D03*
X0286088Y0019725D03*
X0286088Y0019800D03*
X0286088Y0019875D03*
X0286088Y0019950D03*
X0286088Y0020025D03*
X0286088Y0020100D03*
X0286088Y0020175D03*
X0286088Y0020250D03*
X0286088Y0020325D03*
X0286088Y0020400D03*
X0286088Y0020475D03*
X0286088Y0020550D03*
X0286088Y0020625D03*
X0286088Y0020700D03*
X0286088Y0020775D03*
X0286088Y0020850D03*
X0286088Y0020925D03*
X0286088Y0021000D03*
X0286088Y0021075D03*
X0286088Y0021150D03*
X0286088Y0021225D03*
X0286088Y0021300D03*
X0286088Y0021375D03*
X0286088Y0021450D03*
X0286088Y0021525D03*
X0286088Y0021600D03*
X0286088Y0021675D03*
X0286088Y0021750D03*
X0286088Y0021825D03*
X0286088Y0021900D03*
X0286088Y0021975D03*
X0286088Y0022050D03*
X0286088Y0022125D03*
X0286088Y0022200D03*
X0286088Y0022275D03*
X0286088Y0022350D03*
X0286088Y0022425D03*
X0286088Y0022500D03*
X0286088Y0022575D03*
X0286088Y0022650D03*
X0286088Y0022725D03*
X0286088Y0022800D03*
X0286088Y0022875D03*
X0286088Y0022950D03*
X0286088Y0023025D03*
X0286088Y0023100D03*
X0286088Y0023175D03*
X0286088Y0023250D03*
X0286088Y0023325D03*
X0286088Y0023400D03*
X0286088Y0023475D03*
X0286088Y0023550D03*
X0286088Y0023625D03*
X0286088Y0023700D03*
X0286088Y0023775D03*
X0286088Y0023850D03*
X0288113Y0023850D03*
X0288113Y0023925D03*
X0288113Y0024000D03*
X0288113Y0024075D03*
X0288113Y0024150D03*
X0288113Y0024225D03*
X0288113Y0024300D03*
X0288113Y0024375D03*
X0288113Y0024450D03*
X0288113Y0024525D03*
X0288113Y0024600D03*
X0288113Y0024675D03*
X0288113Y0024750D03*
X0288113Y0024825D03*
X0288113Y0024900D03*
X0288113Y0024975D03*
X0288113Y0025050D03*
X0288113Y0025125D03*
X0288113Y0025200D03*
X0288113Y0025275D03*
X0288113Y0025350D03*
X0288113Y0025425D03*
X0288113Y0025500D03*
X0288113Y0025575D03*
X0288113Y0025650D03*
X0288113Y0025725D03*
X0288113Y0025800D03*
X0288113Y0025875D03*
X0288113Y0025950D03*
X0288113Y0026025D03*
X0288113Y0026100D03*
X0288113Y0026175D03*
X0288113Y0026250D03*
X0288113Y0026325D03*
X0288113Y0026400D03*
X0288113Y0026475D03*
X0288113Y0026550D03*
X0288113Y0026625D03*
X0288113Y0026700D03*
X0288113Y0026775D03*
X0288113Y0026850D03*
X0288113Y0026925D03*
X0288113Y0027000D03*
X0288113Y0027075D03*
X0288113Y0027150D03*
X0288113Y0027225D03*
X0288113Y0027300D03*
X0288113Y0027375D03*
X0288113Y0027450D03*
X0288113Y0027525D03*
X0288113Y0027600D03*
X0288113Y0027675D03*
X0288113Y0027750D03*
X0288113Y0027825D03*
X0288113Y0027900D03*
X0288113Y0027975D03*
X0288113Y0028050D03*
X0288113Y0028125D03*
X0288113Y0028200D03*
X0288113Y0028275D03*
X0288113Y0028350D03*
X0288113Y0028425D03*
X0288113Y0028500D03*
X0288113Y0028575D03*
X0288113Y0023775D03*
X0288113Y0023700D03*
X0288113Y0023625D03*
X0288113Y0023550D03*
X0288113Y0023475D03*
X0288113Y0023400D03*
X0288113Y0023325D03*
X0288113Y0023250D03*
X0288113Y0023175D03*
X0288113Y0023100D03*
X0288113Y0023025D03*
X0288113Y0022950D03*
X0288113Y0022875D03*
X0288113Y0022800D03*
X0288113Y0022725D03*
X0288113Y0022650D03*
X0288113Y0022575D03*
X0288113Y0022500D03*
X0288113Y0022425D03*
X0288113Y0022350D03*
X0288113Y0022275D03*
X0288113Y0022200D03*
X0288113Y0022125D03*
X0288113Y0022050D03*
X0288113Y0021975D03*
X0288113Y0021900D03*
X0288113Y0021825D03*
X0288113Y0021750D03*
X0288113Y0021675D03*
X0288113Y0021600D03*
X0288113Y0021525D03*
X0288113Y0021450D03*
X0288113Y0021375D03*
X0288113Y0021300D03*
X0288113Y0021225D03*
X0288113Y0021150D03*
X0288113Y0021075D03*
X0288113Y0021000D03*
X0288113Y0020925D03*
X0288113Y0020850D03*
X0288113Y0020775D03*
X0288113Y0020700D03*
X0288113Y0020625D03*
X0288113Y0020550D03*
X0288113Y0020475D03*
X0288113Y0020400D03*
X0288113Y0020325D03*
X0288113Y0020250D03*
X0288113Y0020175D03*
X0288113Y0020100D03*
X0288113Y0020025D03*
X0288113Y0019950D03*
X0288113Y0019875D03*
X0288113Y0019800D03*
X0288113Y0019725D03*
X0288113Y0019650D03*
X0288113Y0019575D03*
X0288113Y0019500D03*
X0288113Y0019425D03*
X0288113Y0019350D03*
X0288113Y0019275D03*
X0288113Y0019200D03*
X0288113Y0019125D03*
X0288113Y0019050D03*
X0288113Y0018975D03*
X0288113Y0018900D03*
X0288113Y0018825D03*
X0288113Y0018750D03*
X0288113Y0018675D03*
X0288113Y0018600D03*
X0288113Y0018525D03*
X0288113Y0018450D03*
X0288113Y0018375D03*
X0288113Y0018300D03*
X0288113Y0018225D03*
X0288113Y0018150D03*
X0288113Y0018075D03*
X0288113Y0018000D03*
X0288113Y0017925D03*
X0288113Y0017850D03*
X0288113Y0017775D03*
X0288113Y0017700D03*
X0288113Y0017625D03*
X0284438Y0022500D03*
D50*
X0200400Y0008550D03*
X0200400Y0036525D03*
D51*
X0203400Y0033375D03*
X0205800Y0030975D03*
X0209325Y0035775D03*
X0216075Y0024525D03*
X0224100Y0022050D03*
X0224175Y0021975D03*
X0224250Y0021825D03*
X0224325Y0021675D03*
X0224400Y0021525D03*
X0224475Y0021375D03*
X0224475Y0027600D03*
X0224550Y0027675D03*
X0224550Y0027750D03*
X0224625Y0027900D03*
X0224700Y0034725D03*
X0224625Y0034800D03*
X0224625Y0034875D03*
X0224550Y0034950D03*
X0245325Y0039750D03*
X0252075Y0036150D03*
X0261075Y0022650D03*
X0268950Y0016725D03*
X0268950Y0015975D03*
X0252075Y0009225D03*
X0228450Y0008625D03*
X0228450Y0010575D03*
X0228450Y0012000D03*
X0228450Y0013950D03*
X0224700Y0010350D03*
X0224625Y0010200D03*
X0224550Y0010125D03*
X0210450Y0011475D03*
X0206175Y0012000D03*
X0205800Y0014025D03*
X0206475Y0022275D03*
X0206475Y0022725D03*
X0188175Y0034875D03*
D52*
X0217537Y0008625D03*
D53*
X0200362Y0008625D03*
X0200362Y0036450D03*
D54*
X0206175Y0032325D03*
X0205800Y0031650D03*
X0222825Y0026175D03*
X0223425Y0035775D03*
X0254700Y0035775D03*
X0254700Y0037350D03*
X0259575Y0035775D03*
X0263700Y0035775D03*
X0263700Y0037350D03*
X0268575Y0035775D03*
X0273450Y0035700D03*
X0273450Y0035625D03*
X0273450Y0037350D03*
X0273450Y0037425D03*
X0263700Y0023850D03*
X0263700Y0022350D03*
X0268575Y0022350D03*
X0263700Y0010425D03*
X0263700Y0008850D03*
X0259575Y0008850D03*
X0254700Y0008850D03*
X0254700Y0010425D03*
X0268575Y0008850D03*
X0284700Y0008775D03*
X0284700Y0008700D03*
X0284700Y0010425D03*
X0284700Y0010500D03*
X0295950Y0035625D03*
X0295950Y0035700D03*
X0295950Y0037350D03*
X0295950Y0037425D03*
X0239325Y0013125D03*
X0206175Y0012675D03*
X0205800Y0013350D03*
D55*
X0217537Y0008700D03*
D56*
X0211462Y0009300D03*
X0203437Y0011250D03*
X0202012Y0008700D03*
X0223837Y0009450D03*
X0235837Y0009750D03*
X0235837Y0012825D03*
X0243712Y0012825D03*
X0222487Y0023775D03*
X0223462Y0026475D03*
X0223912Y0035550D03*
X0202012Y0036375D03*
X0284738Y0035625D03*
D57*
X0268538Y0035700D03*
X0263738Y0035700D03*
X0263738Y0037425D03*
X0259537Y0035700D03*
X0254737Y0035700D03*
X0254737Y0037425D03*
X0263738Y0023925D03*
X0263738Y0022275D03*
X0268538Y0022275D03*
X0263738Y0010500D03*
X0263738Y0008775D03*
X0259537Y0008775D03*
X0254737Y0008775D03*
X0254737Y0010500D03*
X0268538Y0008775D03*
X0239362Y0009450D03*
X0221512Y0024375D03*
D58*
X0215325Y0025125D03*
X0215325Y0025200D03*
X0215325Y0025275D03*
X0215325Y0025350D03*
X0215325Y0025425D03*
X0207600Y0023250D03*
X0207600Y0021750D03*
X0204225Y0015375D03*
X0204225Y0013875D03*
X0203400Y0012075D03*
X0206175Y0011550D03*
X0203775Y0009225D03*
X0209700Y0010575D03*
X0209700Y0010650D03*
X0209700Y0010725D03*
X0209700Y0010800D03*
X0209700Y0010875D03*
X0211200Y0010875D03*
X0211200Y0010800D03*
X0211200Y0010725D03*
X0211200Y0010650D03*
X0211200Y0010575D03*
X0190200Y0011625D03*
X0190200Y0013125D03*
X0206025Y0029775D03*
X0205950Y0030375D03*
X0203400Y0032925D03*
X0203775Y0035775D03*
X0208575Y0036375D03*
X0208575Y0036450D03*
X0208575Y0036525D03*
X0208575Y0036600D03*
X0208575Y0036675D03*
X0188625Y0035175D03*
X0187950Y0036150D03*
X0252075Y0035700D03*
X0252075Y0037350D03*
X0267825Y0030075D03*
X0267825Y0028425D03*
X0261075Y0023850D03*
X0261075Y0022200D03*
X0252075Y0010425D03*
X0252075Y0008775D03*
D59*
X0217575Y0008775D03*
D60*
X0227700Y0009300D03*
X0227700Y0009900D03*
X0227700Y0012675D03*
X0227700Y0013275D03*
X0233550Y0009075D03*
X0241425Y0009075D03*
X0252075Y0008850D03*
X0252075Y0010350D03*
X0261075Y0022275D03*
X0261075Y0023775D03*
X0252075Y0035775D03*
X0252075Y0037275D03*
X0246075Y0038475D03*
X0246075Y0039075D03*
X0244575Y0039075D03*
X0244575Y0038475D03*
X0207600Y0023100D03*
X0207600Y0021900D03*
X0204225Y0015225D03*
X0204225Y0014025D03*
X0203400Y0011925D03*
X0203775Y0009375D03*
X0206175Y0011700D03*
X0190200Y0011775D03*
X0190200Y0012975D03*
X0205800Y0030675D03*
X0203400Y0033075D03*
X0203775Y0035625D03*
X0187950Y0036000D03*
X0284700Y0034275D03*
X0284700Y0034200D03*
X0284700Y0034125D03*
X0284700Y0034050D03*
X0284700Y0033975D03*
X0284700Y0033900D03*
X0284700Y0033825D03*
X0284700Y0033750D03*
X0284700Y0033675D03*
X0284700Y0033600D03*
X0284700Y0033525D03*
X0284700Y0033450D03*
X0284700Y0033375D03*
X0284700Y0033300D03*
X0284700Y0033225D03*
X0284700Y0033150D03*
X0284700Y0033075D03*
X0284700Y0033000D03*
X0284700Y0032925D03*
X0284700Y0032850D03*
X0284700Y0013200D03*
X0284700Y0013125D03*
X0284700Y0013050D03*
X0284700Y0012975D03*
X0284700Y0012900D03*
X0284700Y0012825D03*
X0284700Y0012750D03*
X0284700Y0012675D03*
X0284700Y0012600D03*
X0284700Y0012525D03*
X0284700Y0012450D03*
X0284700Y0012375D03*
X0284700Y0012300D03*
X0284700Y0012225D03*
X0284700Y0012150D03*
X0284700Y0012075D03*
X0284700Y0012000D03*
X0284700Y0011925D03*
X0284700Y0011850D03*
X0284700Y0011775D03*
X0284700Y0011700D03*
X0284700Y0011625D03*
X0284700Y0011550D03*
X0284700Y0011475D03*
X0284700Y0011400D03*
X0284700Y0011325D03*
D61*
X0217537Y0008850D03*
D62*
X0204937Y0015000D03*
X0221662Y0024300D03*
X0235537Y0013125D03*
X0235537Y0009450D03*
X0243412Y0013125D03*
X0254662Y0010350D03*
X0254662Y0010275D03*
X0254662Y0009000D03*
X0254662Y0008925D03*
X0259612Y0008925D03*
X0263663Y0008925D03*
X0263663Y0009000D03*
X0263663Y0010275D03*
X0263663Y0010350D03*
X0268613Y0008925D03*
X0284738Y0019500D03*
X0284738Y0019575D03*
X0284738Y0019650D03*
X0284738Y0023925D03*
X0284738Y0024000D03*
X0284738Y0024075D03*
X0284738Y0024150D03*
X0284738Y0024225D03*
X0284738Y0024300D03*
X0284738Y0024375D03*
X0284738Y0024450D03*
X0284738Y0024525D03*
X0284738Y0024600D03*
X0284738Y0024675D03*
X0284738Y0024750D03*
X0284738Y0024825D03*
X0284738Y0024900D03*
X0284738Y0024975D03*
X0284738Y0025050D03*
X0284738Y0025125D03*
X0284738Y0025200D03*
X0284738Y0025275D03*
X0284738Y0025350D03*
X0284738Y0025425D03*
X0284738Y0025500D03*
X0284738Y0025575D03*
X0284738Y0025650D03*
X0284738Y0025725D03*
X0284738Y0025800D03*
X0284738Y0025875D03*
X0284738Y0025950D03*
X0284738Y0026025D03*
X0284738Y0026100D03*
X0284738Y0026175D03*
X0284738Y0026250D03*
X0284738Y0026325D03*
X0284738Y0026400D03*
X0284738Y0026475D03*
X0284738Y0026550D03*
X0284738Y0026625D03*
X0284738Y0026700D03*
X0284738Y0035775D03*
X0268613Y0035850D03*
X0263663Y0035850D03*
X0263663Y0035925D03*
X0263663Y0037200D03*
X0263663Y0037275D03*
X0259612Y0035850D03*
X0254662Y0035850D03*
X0254662Y0035925D03*
X0254662Y0037200D03*
X0254662Y0037275D03*
X0263663Y0023775D03*
X0263663Y0023700D03*
X0263663Y0022500D03*
X0263663Y0022425D03*
X0268613Y0022425D03*
X0268613Y0023775D03*
D63*
X0245887Y0010725D03*
X0245887Y0010650D03*
X0245887Y0010575D03*
X0245887Y0010500D03*
X0245887Y0010425D03*
X0245887Y0010350D03*
X0245887Y0010275D03*
X0245887Y0010200D03*
X0245887Y0010125D03*
X0245887Y0010050D03*
X0245887Y0009975D03*
X0245887Y0009900D03*
X0245887Y0009825D03*
X0245887Y0009300D03*
X0245887Y0009225D03*
X0245887Y0009150D03*
X0245887Y0009075D03*
X0245887Y0009000D03*
X0245887Y0008925D03*
D64*
X0217537Y0008925D03*
X0216562Y0036825D03*
D65*
X0205950Y0031950D03*
X0205875Y0031875D03*
X0205800Y0031800D03*
X0205800Y0013200D03*
X0205875Y0013125D03*
X0206175Y0012825D03*
X0259425Y0010650D03*
X0268425Y0010650D03*
X0284700Y0010200D03*
X0284700Y0010125D03*
X0284700Y0010050D03*
X0284700Y0009150D03*
X0284700Y0009075D03*
X0284700Y0009000D03*
X0268425Y0024075D03*
X0273450Y0035925D03*
X0273450Y0037125D03*
X0268425Y0037575D03*
X0259425Y0037575D03*
X0295950Y0037125D03*
X0295950Y0035925D03*
D66*
X0297000Y0036300D03*
X0297000Y0036750D03*
X0284700Y0034950D03*
X0284700Y0034875D03*
X0272400Y0036300D03*
X0272400Y0036750D03*
X0252075Y0037125D03*
X0252075Y0035925D03*
X0261075Y0023625D03*
X0261075Y0022425D03*
X0268950Y0016950D03*
X0268950Y0015750D03*
X0283650Y0009825D03*
X0283650Y0009375D03*
X0285750Y0009375D03*
X0285750Y0009825D03*
X0284700Y0023025D03*
X0252075Y0010200D03*
X0252075Y0009000D03*
X0216075Y0024375D03*
X0216075Y0026175D03*
X0205800Y0030825D03*
X0203400Y0033225D03*
X0209325Y0035625D03*
X0209325Y0037425D03*
X0187950Y0035850D03*
X0204225Y0014175D03*
X0205800Y0014175D03*
X0203400Y0011775D03*
X0210450Y0011625D03*
X0190200Y0011925D03*
X0190200Y0012825D03*
D67*
X0217612Y0009000D03*
X0216787Y0036675D03*
D68*
X0216825Y0036600D03*
X0217575Y0009075D03*
D69*
X0206175Y0011175D03*
X0204825Y0011175D03*
X0204825Y0011250D03*
X0204825Y0011325D03*
X0204825Y0011400D03*
X0204825Y0011475D03*
X0204825Y0011550D03*
X0204825Y0011625D03*
X0204825Y0011700D03*
X0204825Y0011775D03*
X0204825Y0011925D03*
X0204825Y0012000D03*
X0204825Y0012075D03*
X0204825Y0012150D03*
X0204825Y0012225D03*
X0204825Y0012300D03*
X0204825Y0012375D03*
X0203400Y0012450D03*
X0200325Y0010050D03*
X0200325Y0009975D03*
X0200325Y0009900D03*
X0200325Y0009825D03*
X0200325Y0009750D03*
X0200325Y0009675D03*
X0200325Y0009525D03*
X0200325Y0009450D03*
X0200325Y0009375D03*
X0200325Y0009300D03*
X0200325Y0009225D03*
X0200325Y0009150D03*
X0192450Y0009150D03*
X0192450Y0009225D03*
X0192450Y0009300D03*
X0192450Y0009375D03*
X0192450Y0009450D03*
X0192450Y0009525D03*
X0192450Y0009675D03*
X0192450Y0009750D03*
X0192450Y0009825D03*
X0192450Y0009900D03*
X0192450Y0009975D03*
X0192450Y0010050D03*
X0205950Y0018150D03*
X0205950Y0018225D03*
X0205950Y0018300D03*
X0205950Y0018375D03*
X0205950Y0018450D03*
X0205950Y0018525D03*
X0205950Y0018675D03*
X0205950Y0018750D03*
X0205950Y0018825D03*
X0205950Y0018900D03*
X0205950Y0018975D03*
X0205950Y0019050D03*
X0205950Y0025950D03*
X0205950Y0026025D03*
X0205950Y0026100D03*
X0205950Y0026175D03*
X0205950Y0026250D03*
X0205950Y0026325D03*
X0205950Y0026475D03*
X0205950Y0026550D03*
X0205950Y0026625D03*
X0205950Y0026700D03*
X0205950Y0026775D03*
X0205950Y0026850D03*
X0204825Y0032625D03*
X0204825Y0032700D03*
X0204825Y0032775D03*
X0204825Y0032850D03*
X0204825Y0032925D03*
X0204825Y0033000D03*
X0204825Y0033075D03*
X0204825Y0033225D03*
X0204825Y0033300D03*
X0204825Y0033375D03*
X0204825Y0033450D03*
X0204825Y0033525D03*
X0204825Y0033600D03*
X0204825Y0033675D03*
X0204825Y0033750D03*
X0203400Y0032550D03*
X0200325Y0034950D03*
X0200325Y0035025D03*
X0200325Y0035100D03*
X0200325Y0035175D03*
X0200325Y0035250D03*
X0200325Y0035325D03*
X0200325Y0035475D03*
X0200325Y0035550D03*
X0200325Y0035625D03*
X0200325Y0035700D03*
X0200325Y0035775D03*
X0200325Y0035850D03*
X0192450Y0035850D03*
X0192450Y0035775D03*
X0192450Y0035700D03*
X0192450Y0035625D03*
X0192450Y0035550D03*
X0192450Y0035475D03*
X0192450Y0035325D03*
X0192450Y0035250D03*
X0192450Y0035175D03*
X0192450Y0035100D03*
X0192450Y0035025D03*
X0192450Y0034950D03*
X0233475Y0012000D03*
X0233475Y0011925D03*
X0233475Y0011850D03*
X0233475Y0011775D03*
X0233475Y0011700D03*
X0233475Y0011625D03*
X0233475Y0011550D03*
X0233475Y0011475D03*
X0233475Y0011400D03*
X0233475Y0011325D03*
X0233475Y0011175D03*
X0233475Y0011100D03*
X0233475Y0011025D03*
X0233475Y0010950D03*
X0233475Y0010875D03*
X0233475Y0010800D03*
X0233475Y0010725D03*
X0233475Y0010650D03*
X0233475Y0010575D03*
X0241350Y0010575D03*
X0241350Y0010650D03*
X0241350Y0010725D03*
X0241350Y0010800D03*
X0241350Y0010875D03*
X0241350Y0010950D03*
X0241350Y0011025D03*
X0241350Y0011100D03*
X0241350Y0011175D03*
X0241350Y0011325D03*
X0241350Y0011400D03*
X0241350Y0011475D03*
X0241350Y0011550D03*
X0241350Y0011625D03*
X0241350Y0011700D03*
X0241350Y0011775D03*
X0241350Y0011850D03*
X0241350Y0011925D03*
X0241350Y0012000D03*
X0245250Y0012000D03*
X0245250Y0012075D03*
X0245250Y0012150D03*
X0245250Y0012225D03*
X0245250Y0012300D03*
X0245250Y0012375D03*
X0245250Y0012450D03*
X0245250Y0012525D03*
X0245250Y0012600D03*
X0245250Y0012675D03*
X0245250Y0012750D03*
X0245250Y0012825D03*
X0245250Y0012900D03*
X0245250Y0012975D03*
X0245250Y0013050D03*
X0245250Y0013125D03*
X0245250Y0013200D03*
X0245250Y0013275D03*
X0245250Y0013350D03*
X0245250Y0013425D03*
X0245250Y0013500D03*
X0245250Y0013575D03*
X0245250Y0013650D03*
X0245250Y0013725D03*
X0245250Y0013800D03*
X0245250Y0013875D03*
X0245250Y0013950D03*
X0245250Y0014025D03*
X0245250Y0014100D03*
X0245250Y0014175D03*
X0245250Y0014250D03*
X0245250Y0014325D03*
X0245250Y0014400D03*
X0245250Y0014475D03*
X0245250Y0014550D03*
X0245250Y0014625D03*
X0245250Y0014700D03*
X0245250Y0014775D03*
X0245250Y0014850D03*
X0245250Y0014925D03*
X0245250Y0015000D03*
X0245250Y0015075D03*
X0245250Y0015150D03*
X0245250Y0015225D03*
X0245250Y0015300D03*
X0245250Y0015375D03*
X0245250Y0015450D03*
X0245250Y0015525D03*
X0245250Y0015600D03*
X0245250Y0015675D03*
X0245250Y0015750D03*
X0245250Y0015825D03*
X0245250Y0015900D03*
X0245250Y0015975D03*
X0245250Y0016050D03*
X0245250Y0016125D03*
X0245250Y0016200D03*
X0245250Y0016275D03*
X0245250Y0016350D03*
X0245250Y0016425D03*
X0245250Y0016500D03*
X0245250Y0016575D03*
X0245250Y0016650D03*
X0245250Y0016725D03*
X0245250Y0016800D03*
X0245250Y0016875D03*
X0245250Y0016950D03*
X0245250Y0017025D03*
X0245250Y0017100D03*
X0245250Y0017175D03*
X0245250Y0017250D03*
X0245250Y0017325D03*
X0245250Y0017400D03*
X0245250Y0017475D03*
X0245250Y0017550D03*
X0245250Y0017625D03*
X0245250Y0017700D03*
X0245250Y0017775D03*
X0245250Y0017850D03*
X0245250Y0017925D03*
X0245250Y0018000D03*
X0245250Y0018075D03*
X0245250Y0018150D03*
X0245250Y0018225D03*
X0245250Y0018300D03*
X0245250Y0018375D03*
X0245250Y0018450D03*
X0245250Y0018525D03*
X0245250Y0018600D03*
X0245250Y0018675D03*
X0245250Y0018750D03*
X0245250Y0018825D03*
X0245250Y0018900D03*
X0245250Y0018975D03*
X0245250Y0019050D03*
X0245250Y0019125D03*
X0245250Y0019200D03*
X0245250Y0019275D03*
X0245250Y0019350D03*
X0245250Y0019425D03*
X0245250Y0019500D03*
X0245250Y0019575D03*
X0245250Y0019650D03*
X0245250Y0019725D03*
X0245250Y0019800D03*
X0245250Y0019875D03*
X0245250Y0019950D03*
X0245250Y0020025D03*
X0245250Y0020100D03*
X0245250Y0020175D03*
X0245250Y0020250D03*
X0245250Y0020325D03*
X0245250Y0020400D03*
X0245250Y0020475D03*
X0245250Y0020550D03*
X0245250Y0020625D03*
X0245250Y0020700D03*
X0245250Y0020775D03*
X0245250Y0020850D03*
X0245250Y0020925D03*
X0245250Y0021000D03*
X0245250Y0021075D03*
X0245250Y0021150D03*
X0245250Y0021225D03*
X0245250Y0021300D03*
X0245250Y0021375D03*
X0245250Y0021450D03*
X0245250Y0021525D03*
X0245250Y0021600D03*
X0245250Y0021675D03*
X0245250Y0021750D03*
X0245250Y0021825D03*
X0245250Y0021900D03*
X0245250Y0021975D03*
X0245250Y0022050D03*
X0245250Y0022125D03*
X0245250Y0022200D03*
X0245250Y0022275D03*
X0245250Y0022350D03*
X0245250Y0022425D03*
X0245250Y0022500D03*
X0245250Y0022575D03*
X0245250Y0022650D03*
X0245250Y0022725D03*
X0245250Y0022800D03*
X0245250Y0022875D03*
X0245250Y0022950D03*
X0245250Y0023025D03*
X0245250Y0023100D03*
X0245250Y0023175D03*
X0245250Y0023250D03*
X0245250Y0023325D03*
X0245250Y0023400D03*
X0245250Y0023475D03*
X0245250Y0023550D03*
X0245250Y0023625D03*
X0245250Y0023700D03*
X0245250Y0023775D03*
X0245250Y0023850D03*
X0245250Y0023925D03*
X0245250Y0024000D03*
X0245250Y0024075D03*
X0245250Y0024150D03*
X0245250Y0024225D03*
X0245250Y0024300D03*
X0245250Y0024375D03*
X0245250Y0024450D03*
X0245250Y0024525D03*
X0245250Y0024600D03*
X0245250Y0024675D03*
X0245250Y0024750D03*
X0245250Y0024825D03*
X0245250Y0024900D03*
X0245250Y0024975D03*
X0245250Y0025050D03*
X0245250Y0025125D03*
X0245250Y0025200D03*
X0245250Y0025275D03*
X0245250Y0025350D03*
X0245250Y0025425D03*
X0245250Y0025500D03*
X0245250Y0025575D03*
X0245250Y0025650D03*
X0245250Y0025725D03*
X0245250Y0025800D03*
X0245250Y0025875D03*
X0245250Y0025950D03*
X0245250Y0026025D03*
X0245250Y0026100D03*
X0245250Y0026175D03*
X0245250Y0026250D03*
X0245250Y0026325D03*
X0245250Y0026400D03*
X0245250Y0026475D03*
X0245250Y0026550D03*
X0245250Y0026625D03*
X0245250Y0026700D03*
X0245250Y0026775D03*
X0245250Y0026850D03*
X0245250Y0026925D03*
X0245250Y0027000D03*
X0245250Y0027075D03*
X0245250Y0027150D03*
X0245250Y0027225D03*
X0245250Y0027300D03*
X0245250Y0027375D03*
X0245250Y0027450D03*
X0245250Y0027525D03*
X0245250Y0027600D03*
X0245250Y0027675D03*
X0245250Y0027750D03*
X0245250Y0027825D03*
X0245250Y0027900D03*
X0245250Y0027975D03*
X0245250Y0028050D03*
X0245250Y0028125D03*
X0245250Y0028200D03*
X0245250Y0028275D03*
X0245250Y0028350D03*
X0245250Y0028425D03*
X0245250Y0028500D03*
X0245250Y0028575D03*
X0245250Y0028650D03*
X0245250Y0028725D03*
X0245250Y0028800D03*
X0245250Y0028875D03*
X0245250Y0028950D03*
X0245250Y0029025D03*
X0245250Y0029100D03*
X0245250Y0029175D03*
X0245250Y0029250D03*
X0245250Y0029325D03*
X0245250Y0029400D03*
X0245250Y0029475D03*
X0245250Y0029550D03*
X0245250Y0029625D03*
X0245250Y0029700D03*
X0245250Y0029775D03*
X0245250Y0029850D03*
X0245250Y0029925D03*
X0245250Y0030000D03*
X0245250Y0030075D03*
X0245250Y0030150D03*
X0245250Y0030225D03*
X0245250Y0030300D03*
X0245250Y0030375D03*
X0245250Y0030450D03*
X0245250Y0030525D03*
X0245250Y0030600D03*
X0245250Y0030675D03*
X0245250Y0030750D03*
X0245250Y0030825D03*
X0245250Y0030900D03*
X0245250Y0030975D03*
X0245250Y0031050D03*
X0245250Y0031125D03*
X0245250Y0031200D03*
X0245250Y0031275D03*
X0245250Y0031350D03*
X0245250Y0031425D03*
X0245250Y0031500D03*
X0245250Y0031575D03*
X0245250Y0031650D03*
X0245250Y0031725D03*
X0245250Y0031800D03*
X0245250Y0031875D03*
X0245250Y0031950D03*
X0245250Y0032025D03*
X0245250Y0032100D03*
X0245250Y0032175D03*
X0245250Y0032250D03*
X0245250Y0032325D03*
X0245250Y0032400D03*
X0245250Y0032475D03*
X0245250Y0032550D03*
X0245250Y0032625D03*
X0245250Y0032700D03*
X0245250Y0032775D03*
X0245250Y0032850D03*
X0245250Y0032925D03*
X0245250Y0033000D03*
X0245250Y0033075D03*
X0245250Y0033150D03*
X0245250Y0033225D03*
X0245250Y0033300D03*
X0245250Y0033375D03*
X0245250Y0033450D03*
X0245250Y0033525D03*
X0245250Y0033600D03*
X0245250Y0033675D03*
X0245250Y0033750D03*
X0245250Y0033825D03*
X0245250Y0033900D03*
X0245250Y0033975D03*
X0245250Y0034050D03*
X0245250Y0034125D03*
X0245250Y0034200D03*
X0245250Y0034275D03*
X0245250Y0034350D03*
X0245250Y0034425D03*
X0245250Y0034500D03*
X0249900Y0034500D03*
X0249900Y0034425D03*
X0249900Y0034350D03*
X0249900Y0034275D03*
X0249900Y0034200D03*
X0249900Y0034125D03*
X0249900Y0034050D03*
X0249900Y0033975D03*
X0249900Y0033900D03*
X0249900Y0033825D03*
X0249900Y0033750D03*
X0249900Y0033675D03*
X0249900Y0033600D03*
X0249900Y0033525D03*
X0249900Y0033450D03*
X0249900Y0033375D03*
X0249900Y0033300D03*
X0249900Y0033225D03*
X0249900Y0033150D03*
X0249900Y0033075D03*
X0249900Y0033000D03*
X0249900Y0032925D03*
X0249900Y0032850D03*
X0249900Y0032775D03*
X0249900Y0032700D03*
X0249900Y0032625D03*
X0249900Y0032550D03*
X0249900Y0032475D03*
X0249900Y0032400D03*
X0249900Y0032325D03*
X0249900Y0032250D03*
X0249900Y0032175D03*
X0249900Y0032100D03*
X0249900Y0032025D03*
X0249900Y0031950D03*
X0249900Y0031875D03*
X0249900Y0031800D03*
X0249900Y0031725D03*
X0249900Y0031650D03*
X0249900Y0031575D03*
X0249900Y0031500D03*
X0249900Y0031425D03*
X0249900Y0031350D03*
X0249900Y0031275D03*
X0249900Y0031200D03*
X0249900Y0031125D03*
X0249900Y0031050D03*
X0249900Y0030975D03*
X0249900Y0030900D03*
X0249900Y0030825D03*
X0249900Y0030750D03*
X0249900Y0030675D03*
X0249900Y0030600D03*
X0249900Y0030525D03*
X0249900Y0030450D03*
X0249900Y0030375D03*
X0249900Y0030300D03*
X0249900Y0030225D03*
X0249900Y0030150D03*
X0249900Y0030075D03*
X0249900Y0030000D03*
X0249900Y0029925D03*
X0249900Y0029850D03*
X0249900Y0029775D03*
X0249900Y0029700D03*
X0249900Y0029625D03*
X0249900Y0029550D03*
X0249900Y0029475D03*
X0249900Y0029400D03*
X0249900Y0029325D03*
X0249900Y0029250D03*
X0249900Y0029175D03*
X0249900Y0029100D03*
X0249900Y0029025D03*
X0249900Y0028950D03*
X0249900Y0028875D03*
X0249900Y0028800D03*
X0249900Y0028725D03*
X0249900Y0028650D03*
X0249900Y0028575D03*
X0249900Y0028500D03*
X0249900Y0028425D03*
X0249900Y0028350D03*
X0249900Y0028275D03*
X0249900Y0028200D03*
X0249900Y0028125D03*
X0249900Y0028050D03*
X0249900Y0027975D03*
X0249900Y0027900D03*
X0249900Y0027825D03*
X0249900Y0027750D03*
X0249900Y0027675D03*
X0249900Y0027600D03*
X0249900Y0027525D03*
X0249900Y0027450D03*
X0249900Y0027375D03*
X0249900Y0027300D03*
X0249900Y0027225D03*
X0249900Y0027150D03*
X0249900Y0027075D03*
X0249900Y0027000D03*
X0249900Y0026925D03*
X0249900Y0026850D03*
X0249900Y0026775D03*
X0249900Y0026700D03*
X0249900Y0026625D03*
X0249900Y0026550D03*
X0249900Y0026475D03*
X0249900Y0026400D03*
X0249900Y0026325D03*
X0249900Y0026250D03*
X0249900Y0026175D03*
X0249900Y0026100D03*
X0249900Y0026025D03*
X0249900Y0025950D03*
X0249900Y0025875D03*
X0249900Y0025800D03*
X0249900Y0025725D03*
X0249900Y0025650D03*
X0249900Y0025575D03*
X0249900Y0025500D03*
X0249900Y0025425D03*
X0249900Y0025350D03*
X0249900Y0025275D03*
X0249900Y0025200D03*
X0249900Y0025125D03*
X0249900Y0025050D03*
X0249900Y0024975D03*
X0249900Y0024900D03*
X0249900Y0024825D03*
X0249900Y0024750D03*
X0249900Y0024675D03*
X0249900Y0024600D03*
X0249900Y0024525D03*
X0249900Y0024450D03*
X0249900Y0024375D03*
X0249900Y0024300D03*
X0249900Y0024225D03*
X0249900Y0024150D03*
X0249900Y0024075D03*
X0249900Y0024000D03*
X0249900Y0023925D03*
X0249900Y0023850D03*
X0249900Y0023775D03*
X0249900Y0023700D03*
X0249900Y0023625D03*
X0249900Y0023550D03*
X0249900Y0023475D03*
X0249900Y0023400D03*
X0249900Y0023325D03*
X0249900Y0023250D03*
X0249900Y0023175D03*
X0249900Y0023100D03*
X0249900Y0023025D03*
X0249900Y0022950D03*
X0249900Y0022875D03*
X0249900Y0022800D03*
X0249900Y0022725D03*
X0249900Y0022650D03*
X0249900Y0022575D03*
X0249900Y0022500D03*
X0249900Y0022425D03*
X0249900Y0022350D03*
X0249900Y0022275D03*
X0249900Y0022200D03*
X0249900Y0022125D03*
X0249900Y0022050D03*
X0249900Y0021975D03*
X0249900Y0021900D03*
X0249900Y0021825D03*
X0249900Y0021750D03*
X0249900Y0021675D03*
X0249900Y0021600D03*
X0249900Y0021525D03*
X0249900Y0021450D03*
X0249900Y0021375D03*
X0249900Y0021300D03*
X0249900Y0021225D03*
X0249900Y0021150D03*
X0249900Y0021075D03*
X0249900Y0021000D03*
X0249900Y0020925D03*
X0249900Y0020850D03*
X0249900Y0020775D03*
X0249900Y0020700D03*
X0249900Y0020625D03*
X0249900Y0020550D03*
X0249900Y0020475D03*
X0249900Y0020400D03*
X0249900Y0020325D03*
X0249900Y0020250D03*
X0249900Y0020175D03*
X0249900Y0020100D03*
X0249900Y0020025D03*
X0249900Y0019950D03*
X0249900Y0019875D03*
X0249900Y0019800D03*
X0249900Y0019725D03*
X0249900Y0019650D03*
X0249900Y0019575D03*
X0249900Y0019500D03*
X0249900Y0019425D03*
X0249900Y0019350D03*
X0249900Y0019275D03*
X0249900Y0019200D03*
X0249900Y0019125D03*
X0249900Y0019050D03*
X0249900Y0018975D03*
X0249900Y0018900D03*
X0249900Y0018825D03*
X0249900Y0018750D03*
X0249900Y0018675D03*
X0249900Y0018600D03*
X0249900Y0018525D03*
X0249900Y0018450D03*
X0249900Y0018375D03*
X0249900Y0018300D03*
X0249900Y0018225D03*
X0249900Y0018150D03*
X0249900Y0018075D03*
X0249900Y0018000D03*
X0249900Y0017925D03*
X0249900Y0017850D03*
X0249900Y0017775D03*
X0249900Y0017700D03*
X0249900Y0017625D03*
X0249900Y0017550D03*
X0249900Y0017475D03*
X0249900Y0017400D03*
X0249900Y0017325D03*
X0249900Y0017250D03*
X0249900Y0017175D03*
X0249900Y0017100D03*
X0249900Y0017025D03*
X0249900Y0016950D03*
X0249900Y0016875D03*
X0249900Y0016800D03*
X0249900Y0016725D03*
X0249900Y0016650D03*
X0249900Y0016575D03*
X0249900Y0016500D03*
X0249900Y0016425D03*
X0249900Y0016350D03*
X0249900Y0016275D03*
X0249900Y0016200D03*
X0249900Y0016125D03*
X0249900Y0016050D03*
X0249900Y0015975D03*
X0249900Y0015900D03*
X0249900Y0015825D03*
X0249900Y0015750D03*
X0249900Y0015675D03*
X0249900Y0015600D03*
X0249900Y0015525D03*
X0249900Y0015450D03*
X0249900Y0015375D03*
X0249900Y0015300D03*
X0249900Y0015225D03*
X0249900Y0015150D03*
X0249900Y0015075D03*
X0249900Y0015000D03*
X0249900Y0014925D03*
X0249900Y0014850D03*
X0249900Y0014775D03*
X0249900Y0014700D03*
X0249900Y0014625D03*
X0249900Y0014550D03*
X0249900Y0014475D03*
X0249900Y0014400D03*
X0249900Y0014325D03*
X0249900Y0014250D03*
X0249900Y0014175D03*
X0249900Y0014100D03*
X0249900Y0014025D03*
X0249900Y0013950D03*
X0249900Y0013875D03*
X0249900Y0013800D03*
X0249900Y0013725D03*
X0249900Y0013650D03*
X0249900Y0013575D03*
X0249900Y0013500D03*
X0249900Y0013425D03*
X0249900Y0013350D03*
X0249900Y0013275D03*
X0249900Y0013200D03*
X0249900Y0013125D03*
X0249900Y0013050D03*
X0249900Y0012975D03*
X0249900Y0012900D03*
X0249900Y0012825D03*
X0249900Y0012750D03*
X0249900Y0012675D03*
X0249900Y0012600D03*
X0249900Y0012525D03*
X0249900Y0012450D03*
X0249900Y0012375D03*
X0249900Y0012300D03*
X0249900Y0012225D03*
X0249900Y0012150D03*
X0249900Y0012075D03*
X0249900Y0012000D03*
X0249900Y0011925D03*
X0249900Y0011850D03*
X0249900Y0011775D03*
X0249900Y0011700D03*
X0249900Y0011625D03*
X0245250Y0011625D03*
X0245250Y0011700D03*
X0245250Y0011775D03*
X0245250Y0011850D03*
X0245250Y0011925D03*
X0257100Y0010050D03*
X0257100Y0009975D03*
X0257100Y0009900D03*
X0257100Y0009825D03*
X0257100Y0009375D03*
X0257100Y0009300D03*
X0257100Y0009225D03*
X0257100Y0009150D03*
X0266100Y0009150D03*
X0266100Y0009225D03*
X0266100Y0009300D03*
X0266100Y0009375D03*
X0266100Y0009825D03*
X0266100Y0009900D03*
X0266100Y0009975D03*
X0266100Y0010050D03*
X0266100Y0022575D03*
X0266100Y0022650D03*
X0266100Y0022725D03*
X0266100Y0022800D03*
X0266100Y0023250D03*
X0266100Y0023325D03*
X0266100Y0023400D03*
X0266100Y0023475D03*
X0284700Y0023475D03*
X0284700Y0023550D03*
X0284700Y0023625D03*
X0284700Y0023700D03*
X0284700Y0023775D03*
X0284700Y0023400D03*
X0284700Y0023325D03*
X0284700Y0023250D03*
X0284700Y0023175D03*
X0284700Y0023100D03*
X0284700Y0022950D03*
X0284700Y0022875D03*
X0284700Y0022800D03*
X0284700Y0022725D03*
X0284700Y0022650D03*
X0284700Y0022575D03*
X0284700Y0022500D03*
X0266100Y0036075D03*
X0266100Y0036150D03*
X0266100Y0036225D03*
X0266100Y0036300D03*
X0266100Y0036750D03*
X0266100Y0036825D03*
X0266100Y0036900D03*
X0266100Y0036975D03*
X0257100Y0036975D03*
X0257100Y0036900D03*
X0257100Y0036825D03*
X0257100Y0036750D03*
X0257100Y0036300D03*
X0257100Y0036225D03*
X0257100Y0036150D03*
X0257100Y0036075D03*
X0247575Y0023550D03*
X0247575Y0023475D03*
X0247575Y0023400D03*
X0247575Y0023325D03*
X0247575Y0023250D03*
X0247575Y0023175D03*
X0247575Y0023100D03*
X0247575Y0022950D03*
X0247575Y0022875D03*
X0247575Y0022800D03*
X0247575Y0022725D03*
X0247575Y0022650D03*
X0247575Y0022575D03*
D70*
X0241387Y0009150D03*
X0233512Y0009150D03*
X0224887Y0010800D03*
X0224812Y0010575D03*
X0224737Y0010425D03*
X0224662Y0010275D03*
X0224587Y0021075D03*
X0224587Y0021150D03*
X0224512Y0021225D03*
X0224512Y0021300D03*
X0224437Y0021450D03*
X0224362Y0021600D03*
X0224287Y0021750D03*
X0224212Y0021900D03*
X0224587Y0027825D03*
X0224662Y0027975D03*
X0224737Y0028125D03*
X0224887Y0034275D03*
X0224812Y0034500D03*
X0224737Y0034650D03*
X0206212Y0033000D03*
X0206437Y0022650D03*
X0206437Y0022575D03*
X0206437Y0022500D03*
X0206437Y0022425D03*
X0206437Y0022350D03*
X0203437Y0011625D03*
X0188212Y0034800D03*
X0284738Y0035175D03*
D71*
X0216900Y0036525D03*
X0215550Y0037125D03*
X0217575Y0009150D03*
D72*
X0224962Y0011025D03*
X0224962Y0011100D03*
X0225037Y0011325D03*
X0225037Y0011400D03*
X0225037Y0011475D03*
X0225037Y0011550D03*
X0225112Y0011775D03*
X0225112Y0011850D03*
X0225112Y0011925D03*
X0225112Y0012000D03*
X0225112Y0012075D03*
X0225112Y0012150D03*
X0225112Y0012225D03*
X0225112Y0012300D03*
X0225112Y0012375D03*
X0225112Y0012450D03*
X0225112Y0012525D03*
X0225112Y0012600D03*
X0225112Y0012675D03*
X0225112Y0012750D03*
X0225112Y0012825D03*
X0225112Y0012900D03*
X0225112Y0012975D03*
X0225112Y0013050D03*
X0225112Y0013125D03*
X0225112Y0013200D03*
X0225112Y0013275D03*
X0225112Y0013350D03*
X0225112Y0013425D03*
X0225112Y0013500D03*
X0225112Y0013575D03*
X0225112Y0013650D03*
X0225112Y0013725D03*
X0225112Y0013800D03*
X0225112Y0013875D03*
X0225112Y0013950D03*
X0225112Y0014025D03*
X0225112Y0014100D03*
X0225112Y0014175D03*
X0225112Y0014250D03*
X0225112Y0014325D03*
X0225112Y0014400D03*
X0225112Y0014475D03*
X0225112Y0014550D03*
X0225112Y0014625D03*
X0225112Y0014700D03*
X0225112Y0014775D03*
X0225112Y0014850D03*
X0225112Y0014925D03*
X0225112Y0015000D03*
X0225112Y0015075D03*
X0225112Y0015150D03*
X0225112Y0015225D03*
X0225112Y0015300D03*
X0225112Y0015375D03*
X0225112Y0015450D03*
X0225112Y0015525D03*
X0225112Y0015600D03*
X0225112Y0015675D03*
X0225112Y0015750D03*
X0225112Y0015825D03*
X0225112Y0015900D03*
X0225112Y0015975D03*
X0225112Y0016050D03*
X0225112Y0016125D03*
X0225112Y0016200D03*
X0225112Y0016275D03*
X0225112Y0016350D03*
X0225112Y0016425D03*
X0225112Y0016500D03*
X0225112Y0016575D03*
X0225112Y0016650D03*
X0225112Y0016725D03*
X0225112Y0016800D03*
X0225112Y0016875D03*
X0225112Y0016950D03*
X0225112Y0017025D03*
X0225112Y0017100D03*
X0225112Y0017175D03*
X0225112Y0017250D03*
X0225112Y0017325D03*
X0225112Y0017400D03*
X0225112Y0017475D03*
X0225112Y0017550D03*
X0225112Y0017625D03*
X0225112Y0017700D03*
X0225112Y0017775D03*
X0225112Y0017850D03*
X0225112Y0017925D03*
X0225112Y0018000D03*
X0225112Y0018075D03*
X0225112Y0018150D03*
X0225112Y0018225D03*
X0225112Y0018300D03*
X0225112Y0018375D03*
X0225112Y0018450D03*
X0225112Y0018525D03*
X0225112Y0018600D03*
X0225112Y0018675D03*
X0225112Y0018750D03*
X0225112Y0018825D03*
X0225112Y0018900D03*
X0225037Y0019050D03*
X0225037Y0019125D03*
X0225037Y0019200D03*
X0225037Y0019275D03*
X0225037Y0019350D03*
X0225037Y0019425D03*
X0225037Y0019500D03*
X0224962Y0019650D03*
X0224962Y0019725D03*
X0224962Y0019800D03*
X0224962Y0019875D03*
X0224887Y0020175D03*
X0224662Y0020925D03*
X0224812Y0028350D03*
X0224962Y0028875D03*
X0224962Y0028950D03*
X0225037Y0029175D03*
X0225037Y0029250D03*
X0225037Y0029325D03*
X0225037Y0029400D03*
X0225037Y0029475D03*
X0225112Y0029700D03*
X0225112Y0029775D03*
X0225112Y0029850D03*
X0225112Y0029925D03*
X0225112Y0030000D03*
X0225112Y0030075D03*
X0225112Y0030150D03*
X0225112Y0030225D03*
X0225112Y0030300D03*
X0225112Y0030375D03*
X0225112Y0030450D03*
X0225112Y0030525D03*
X0225112Y0030600D03*
X0225112Y0030675D03*
X0225112Y0030750D03*
X0225112Y0030825D03*
X0225112Y0030900D03*
X0225112Y0030975D03*
X0225112Y0031050D03*
X0225112Y0031125D03*
X0225112Y0031200D03*
X0225112Y0031275D03*
X0225112Y0031350D03*
X0225112Y0031425D03*
X0225112Y0031500D03*
X0225112Y0031575D03*
X0225112Y0031650D03*
X0225112Y0031725D03*
X0225112Y0031800D03*
X0225112Y0031875D03*
X0225112Y0031950D03*
X0225112Y0032025D03*
X0225112Y0032100D03*
X0225112Y0032175D03*
X0225112Y0032250D03*
X0225112Y0032325D03*
X0225112Y0032400D03*
X0225112Y0032475D03*
X0225112Y0032550D03*
X0225112Y0032625D03*
X0225112Y0032700D03*
X0225112Y0032775D03*
X0225112Y0032850D03*
X0225112Y0032925D03*
X0225112Y0033000D03*
X0225112Y0033075D03*
X0225112Y0033150D03*
X0225112Y0033225D03*
X0225112Y0033300D03*
X0225037Y0033525D03*
X0225037Y0033600D03*
X0225037Y0033675D03*
X0225037Y0033750D03*
X0224962Y0033975D03*
X0224962Y0034050D03*
X0206212Y0033075D03*
X0233512Y0011250D03*
X0241387Y0011250D03*
X0266138Y0021900D03*
X0272513Y0036150D03*
X0272438Y0036225D03*
X0272438Y0036825D03*
X0272513Y0036900D03*
X0284738Y0035025D03*
X0296888Y0036150D03*
X0296963Y0036225D03*
X0296963Y0036825D03*
X0296888Y0036900D03*
X0285638Y0009975D03*
X0285713Y0009900D03*
X0285713Y0009300D03*
X0285638Y0009225D03*
X0283763Y0009225D03*
X0283688Y0009300D03*
X0283688Y0009900D03*
X0283763Y0009975D03*
D73*
X0268088Y0028650D03*
X0268088Y0029850D03*
X0284738Y0035400D03*
X0241387Y0009225D03*
X0233512Y0009225D03*
X0224362Y0009900D03*
X0211087Y0009600D03*
X0205462Y0014400D03*
X0205462Y0014850D03*
X0203437Y0011475D03*
X0223612Y0022725D03*
X0223687Y0022650D03*
X0224062Y0027075D03*
X0224137Y0027150D03*
X0224362Y0035175D03*
D74*
X0219150Y0009225D03*
D75*
X0211687Y0009225D03*
X0206137Y0012450D03*
X0221962Y0024150D03*
X0223162Y0026325D03*
X0223612Y0035700D03*
X0206137Y0032550D03*
X0239137Y0012975D03*
X0239137Y0009600D03*
X0284738Y0035700D03*
D76*
X0284738Y0028875D03*
X0284738Y0017325D03*
X0261637Y0009975D03*
X0261637Y0009900D03*
X0261637Y0009825D03*
X0261637Y0009750D03*
X0261637Y0009675D03*
X0261637Y0009600D03*
X0261637Y0009525D03*
X0261637Y0009450D03*
X0261637Y0009375D03*
X0261637Y0009300D03*
X0245737Y0009600D03*
X0219862Y0025350D03*
X0261637Y0036225D03*
X0261637Y0036300D03*
X0261637Y0036375D03*
X0261637Y0036450D03*
X0261637Y0036525D03*
X0261637Y0036600D03*
X0261637Y0036675D03*
X0261637Y0036750D03*
X0261637Y0036825D03*
X0261637Y0036900D03*
D77*
X0254175Y0036825D03*
X0254175Y0036225D03*
X0263175Y0023325D03*
X0263175Y0022725D03*
X0254175Y0009900D03*
X0254175Y0009300D03*
X0230700Y0009600D03*
X0230700Y0012975D03*
X0205950Y0032175D03*
X0202725Y0035325D03*
D78*
X0203437Y0033600D03*
X0224062Y0035475D03*
X0223612Y0026625D03*
X0222712Y0023625D03*
X0233512Y0013275D03*
X0233512Y0009300D03*
X0241387Y0009300D03*
X0241387Y0013275D03*
X0211387Y0009375D03*
X0284738Y0035550D03*
D79*
X0230437Y0013275D03*
X0230587Y0012825D03*
X0230437Y0012675D03*
X0230437Y0009900D03*
X0230587Y0009750D03*
X0230437Y0009300D03*
X0205912Y0012975D03*
X0202612Y0009450D03*
X0202612Y0035550D03*
D80*
X0203437Y0033900D03*
X0221812Y0024225D03*
X0223012Y0026250D03*
X0239212Y0013050D03*
X0223537Y0009300D03*
X0284738Y0019425D03*
X0284738Y0026775D03*
D81*
X0196350Y0035100D03*
X0196350Y0035175D03*
X0196350Y0035250D03*
X0196350Y0035325D03*
X0196350Y0035475D03*
X0196350Y0035550D03*
X0196350Y0035625D03*
X0196350Y0035700D03*
X0196350Y0035775D03*
X0196350Y0009975D03*
X0196350Y0009900D03*
X0196350Y0009825D03*
X0196350Y0009750D03*
X0196350Y0009675D03*
X0196350Y0009525D03*
X0196350Y0009450D03*
X0196350Y0009375D03*
X0196350Y0009300D03*
D82*
X0205912Y0012900D03*
X0190012Y0034500D03*
X0254212Y0036300D03*
X0254212Y0036750D03*
X0268238Y0024225D03*
X0263213Y0023250D03*
X0263213Y0022800D03*
X0254212Y0009825D03*
X0254212Y0009375D03*
D83*
X0244687Y0009375D03*
X0219562Y0025875D03*
X0219637Y0025950D03*
X0219712Y0026025D03*
D84*
X0234675Y0013200D03*
X0234675Y0009375D03*
X0242550Y0013200D03*
X0247575Y0011550D03*
X0258750Y0010800D03*
X0267750Y0010800D03*
X0247575Y0034575D03*
X0246825Y0037800D03*
X0258750Y0037725D03*
X0267750Y0037725D03*
X0202200Y0035400D03*
X0202200Y0009600D03*
D85*
X0222525Y0026100D03*
X0205950Y0032025D03*
X0190125Y0033975D03*
X0230475Y0013200D03*
X0230475Y0012750D03*
X0230475Y0009825D03*
X0230475Y0009375D03*
D86*
X0227662Y0009375D03*
X0227662Y0009825D03*
X0227662Y0012750D03*
X0227662Y0013200D03*
X0205837Y0030600D03*
X0206212Y0033300D03*
X0244537Y0038550D03*
X0244537Y0039000D03*
X0246112Y0039000D03*
X0246112Y0038550D03*
X0268538Y0029550D03*
X0268538Y0028950D03*
X0268838Y0017175D03*
X0268838Y0015525D03*
D87*
X0239062Y0012900D03*
X0239062Y0009675D03*
X0223762Y0009375D03*
X0203437Y0011175D03*
X0222187Y0024000D03*
X0222337Y0023925D03*
D88*
X0205950Y0029925D03*
X0205950Y0030000D03*
X0205950Y0032100D03*
X0202650Y0035475D03*
X0190050Y0034125D03*
X0190050Y0034050D03*
X0202650Y0009525D03*
X0230625Y0009675D03*
X0230625Y0012900D03*
X0254250Y0009750D03*
X0254250Y0009675D03*
X0254250Y0009600D03*
X0254250Y0009525D03*
X0254250Y0009450D03*
X0263250Y0022875D03*
X0263250Y0022950D03*
X0263250Y0023025D03*
X0263250Y0023100D03*
X0263250Y0023175D03*
X0254250Y0036375D03*
X0254250Y0036450D03*
X0254250Y0036525D03*
X0254250Y0036600D03*
X0254250Y0036675D03*
D89*
X0251437Y0036675D03*
X0251437Y0036600D03*
X0251437Y0036525D03*
X0251437Y0036450D03*
X0251437Y0036375D03*
X0267188Y0029400D03*
X0267188Y0029325D03*
X0267188Y0029250D03*
X0267188Y0029175D03*
X0267188Y0029100D03*
X0260437Y0023175D03*
X0260437Y0023100D03*
X0260437Y0023025D03*
X0260437Y0022950D03*
X0260437Y0022875D03*
X0268313Y0016500D03*
X0268313Y0016425D03*
X0268313Y0016350D03*
X0268313Y0016275D03*
X0268313Y0016200D03*
X0269588Y0016200D03*
X0269588Y0016275D03*
X0269588Y0016350D03*
X0269588Y0016425D03*
X0269588Y0016500D03*
X0251437Y0009750D03*
X0251437Y0009675D03*
X0251437Y0009600D03*
X0251437Y0009525D03*
X0251437Y0009450D03*
X0208162Y0022275D03*
X0208087Y0022200D03*
X0208162Y0022725D03*
X0208087Y0022800D03*
X0203737Y0014925D03*
X0203662Y0014850D03*
X0203662Y0014400D03*
X0203737Y0014325D03*
X0190762Y0012600D03*
X0190687Y0012675D03*
X0190762Y0012150D03*
X0190687Y0012075D03*
X0189712Y0012075D03*
X0189637Y0012150D03*
X0189637Y0012600D03*
X0189712Y0012675D03*
X0187462Y0035100D03*
X0187387Y0035175D03*
X0187387Y0035625D03*
X0187462Y0035700D03*
X0188512Y0035625D03*
D90*
X0245550Y0009450D03*
D91*
X0247575Y0012000D03*
X0247575Y0012075D03*
X0230925Y0009450D03*
X0206250Y0022125D03*
X0205650Y0015075D03*
X0202950Y0010050D03*
X0202950Y0034125D03*
X0202950Y0034875D03*
X0247575Y0034200D03*
X0247575Y0034125D03*
X0247575Y0034050D03*
D92*
X0219937Y0025425D03*
X0245662Y0009525D03*
X0284738Y0017400D03*
X0284738Y0017475D03*
X0284738Y0017550D03*
X0284738Y0028650D03*
X0284738Y0028725D03*
X0284738Y0028800D03*
D93*
X0230812Y0009525D03*
X0202837Y0009825D03*
X0202837Y0011025D03*
X0202837Y0035100D03*
D94*
X0223837Y0026775D03*
X0223087Y0023250D03*
X0223162Y0023175D03*
X0211162Y0009525D03*
X0210862Y0009750D03*
X0210487Y0010125D03*
X0268013Y0028875D03*
X0268013Y0029625D03*
X0284738Y0035475D03*
D95*
X0200662Y0011325D03*
X0195862Y0009600D03*
X0195862Y0035400D03*
D96*
X0219787Y0025275D03*
X0245812Y0009675D03*
D97*
X0247612Y0011775D03*
X0220912Y0024525D03*
X0202762Y0035250D03*
X0202762Y0009675D03*
X0284738Y0035925D03*
D98*
X0245850Y0009750D03*
X0219750Y0025200D03*
D99*
X0230775Y0013050D03*
X0202800Y0009750D03*
X0202800Y0035175D03*
X0247200Y0035625D03*
D100*
X0247125Y0035700D03*
X0247125Y0035775D03*
X0206175Y0023025D03*
X0204825Y0033150D03*
X0202875Y0033975D03*
X0202875Y0035025D03*
X0204825Y0011850D03*
X0202875Y0010950D03*
X0202875Y0009900D03*
D101*
X0253650Y0009975D03*
X0262650Y0023400D03*
X0253650Y0036900D03*
D102*
X0229725Y0013350D03*
X0229725Y0009975D03*
D103*
X0230887Y0013125D03*
X0247612Y0011925D03*
X0247612Y0011850D03*
X0247612Y0034275D03*
X0247612Y0034350D03*
X0247087Y0035850D03*
X0247087Y0035925D03*
X0247087Y0036000D03*
X0247087Y0036075D03*
X0247087Y0036150D03*
X0247087Y0036225D03*
X0247087Y0036300D03*
X0206212Y0022950D03*
X0206212Y0022050D03*
X0205687Y0015150D03*
X0202912Y0009975D03*
X0202912Y0034050D03*
X0202912Y0034950D03*
X0189787Y0034575D03*
D104*
X0188137Y0034950D03*
X0206212Y0032925D03*
X0206512Y0022800D03*
X0206512Y0022200D03*
X0203437Y0011550D03*
X0224512Y0010050D03*
X0224062Y0022125D03*
X0223987Y0022200D03*
X0224362Y0027450D03*
X0224437Y0027525D03*
X0224512Y0035025D03*
X0268163Y0030000D03*
X0268163Y0028500D03*
X0284738Y0035250D03*
X0284738Y0035325D03*
D105*
X0237412Y0012375D03*
X0237412Y0012300D03*
X0237412Y0012225D03*
X0237412Y0012150D03*
X0237412Y0012075D03*
X0237412Y0012000D03*
X0237412Y0011925D03*
X0237412Y0011850D03*
X0237412Y0011775D03*
X0237412Y0011700D03*
X0237412Y0011625D03*
X0237412Y0011550D03*
X0237412Y0011475D03*
X0237412Y0011400D03*
X0237412Y0011325D03*
X0237412Y0011250D03*
X0237412Y0011175D03*
X0237412Y0011100D03*
X0237412Y0011025D03*
X0237412Y0010950D03*
X0237412Y0010875D03*
X0237412Y0010800D03*
X0237412Y0010725D03*
X0237412Y0010650D03*
X0237412Y0010575D03*
X0237412Y0010500D03*
X0237412Y0010425D03*
X0237412Y0010350D03*
X0237412Y0010275D03*
X0237412Y0010200D03*
X0237412Y0010125D03*
D106*
X0202987Y0010125D03*
X0202987Y0034800D03*
X0189712Y0034650D03*
D107*
X0203025Y0034725D03*
X0203025Y0010200D03*
D108*
X0203062Y0010275D03*
X0203062Y0010575D03*
X0203062Y0034650D03*
X0246937Y0037650D03*
D109*
X0203100Y0034575D03*
X0203100Y0010500D03*
X0203100Y0010350D03*
D110*
X0209737Y0010500D03*
X0209812Y0010425D03*
X0209737Y0010950D03*
X0209812Y0011025D03*
X0211087Y0011025D03*
X0211162Y0010950D03*
X0211162Y0010500D03*
X0211087Y0010425D03*
X0206062Y0015225D03*
X0215437Y0024975D03*
X0215362Y0025050D03*
X0215362Y0025500D03*
X0215437Y0025575D03*
X0206062Y0029850D03*
X0205912Y0030450D03*
X0206212Y0033375D03*
X0208687Y0036225D03*
X0208612Y0036300D03*
X0208612Y0036750D03*
X0208687Y0036825D03*
X0188587Y0035100D03*
X0268613Y0029400D03*
X0268613Y0029325D03*
X0268613Y0029250D03*
X0268613Y0029175D03*
X0268613Y0029100D03*
X0268763Y0017250D03*
X0268763Y0015450D03*
D111*
X0246862Y0037725D03*
X0203137Y0034500D03*
X0203137Y0010425D03*
D112*
X0205912Y0013050D03*
X0259387Y0010725D03*
X0268388Y0010725D03*
X0268388Y0024150D03*
X0284738Y0035850D03*
X0268388Y0037650D03*
X0259387Y0037650D03*
D113*
X0201450Y0034350D03*
X0201450Y0010725D03*
D114*
X0201262Y0010800D03*
X0218887Y0024675D03*
X0218962Y0024600D03*
D115*
X0218850Y0024750D03*
X0201225Y0010875D03*
D116*
X0200625Y0011400D03*
D117*
X0206212Y0033225D03*
X0268913Y0017100D03*
X0268913Y0015600D03*
X0284738Y0034350D03*
X0284738Y0034425D03*
X0284738Y0034500D03*
X0284738Y0034575D03*
D118*
X0268463Y0022125D03*
X0263813Y0022125D03*
X0221287Y0024450D03*
D119*
X0218737Y0024825D03*
D120*
X0218700Y0024900D03*
X0219975Y0025575D03*
D121*
X0219412Y0024975D03*
D122*
X0219562Y0025050D03*
D123*
X0219675Y0025125D03*
D124*
X0219937Y0025500D03*
D125*
X0219375Y0025650D03*
D126*
X0219450Y0025725D03*
X0219525Y0025800D03*
D127*
X0200700Y0033675D03*
D128*
X0201525Y0034200D03*
D129*
X0201487Y0034275D03*
D130*
X0216487Y0036075D03*
X0216562Y0035925D03*
X0216637Y0035850D03*
D131*
X0284700Y0036000D03*
X0284700Y0036075D03*
X0284700Y0036975D03*
X0284700Y0037050D03*
D132*
X0216525Y0036000D03*
D133*
X0284700Y0036150D03*
X0284700Y0036900D03*
D134*
X0216412Y0036150D03*
D135*
X0284700Y0036225D03*
X0284700Y0036825D03*
D136*
X0217012Y0036225D03*
X0215737Y0036975D03*
D137*
X0284700Y0036750D03*
X0284700Y0036300D03*
D138*
X0217012Y0036300D03*
D139*
X0284700Y0036375D03*
X0284700Y0036450D03*
X0284700Y0036525D03*
X0284700Y0036600D03*
X0284700Y0036675D03*
D140*
X0216975Y0036375D03*
D141*
X0216937Y0036450D03*
D142*
X0216675Y0036750D03*
D143*
X0215812Y0036900D03*
D144*
X0215662Y0037050D03*
D145*
X0215400Y0037200D03*
D146*
X0215250Y0037275D03*
D147*
X0246787Y0037875D03*
D148*
X0293480Y0005475D02*
X0293480Y0005425D01*
X0293505Y0005400D01*
X0293580Y0005400D01*
X0293618Y0005400D02*
X0293618Y0005475D01*
X0293643Y0005500D01*
X0293668Y0005475D01*
X0293668Y0005400D01*
X0293718Y0005400D02*
X0293718Y0005500D01*
X0293693Y0005500D01*
X0293668Y0005475D01*
X0293756Y0005475D02*
X0293781Y0005500D01*
X0293856Y0005500D01*
X0293856Y0005550D02*
X0293856Y0005400D01*
X0293781Y0005400D01*
X0293756Y0005425D01*
X0293756Y0005475D01*
X0293900Y0005425D02*
X0293900Y0005400D01*
X0293925Y0005400D01*
X0293925Y0005425D01*
X0293900Y0005425D01*
X0293963Y0005400D02*
X0293963Y0005550D01*
X0294063Y0005550D02*
X0294063Y0005400D01*
X0294013Y0005450D01*
X0293963Y0005400D01*
X0294101Y0005425D02*
X0294126Y0005400D01*
X0294201Y0005400D01*
X0294201Y0005550D01*
X0294126Y0005550D01*
X0294101Y0005525D01*
X0294101Y0005500D01*
X0294126Y0005475D01*
X0294201Y0005475D01*
X0294239Y0005475D02*
X0294264Y0005500D01*
X0294314Y0005500D01*
X0294339Y0005475D01*
X0294339Y0005425D01*
X0294314Y0005400D01*
X0294264Y0005400D01*
X0294239Y0005425D01*
X0294239Y0005475D01*
X0294126Y0005475D02*
X0294101Y0005450D01*
X0294101Y0005425D01*
X0294378Y0005400D02*
X0294453Y0005400D01*
X0294478Y0005425D01*
X0294478Y0005475D01*
X0294453Y0005500D01*
X0294378Y0005500D01*
X0294378Y0005375D01*
X0294403Y0005350D01*
X0294428Y0005350D01*
X0294516Y0005425D02*
X0294516Y0005475D01*
X0294541Y0005500D01*
X0294591Y0005500D01*
X0294616Y0005475D01*
X0294616Y0005425D01*
X0294591Y0005400D01*
X0294541Y0005400D01*
X0294516Y0005425D01*
X0294658Y0005400D02*
X0294708Y0005400D01*
X0294683Y0005400D02*
X0294683Y0005550D01*
X0294708Y0005550D01*
X0294746Y0005550D02*
X0294846Y0005400D01*
X0294884Y0005425D02*
X0294884Y0005475D01*
X0294909Y0005500D01*
X0294959Y0005500D01*
X0294984Y0005475D01*
X0294984Y0005425D01*
X0294959Y0005400D01*
X0294909Y0005400D01*
X0294884Y0005425D01*
X0295022Y0005400D02*
X0295097Y0005400D01*
X0295122Y0005425D01*
X0295122Y0005475D01*
X0295097Y0005500D01*
X0295022Y0005500D01*
X0295022Y0005375D01*
X0295047Y0005350D01*
X0295072Y0005350D01*
X0295160Y0005425D02*
X0295160Y0005475D01*
X0295185Y0005500D01*
X0295235Y0005500D01*
X0295260Y0005475D01*
X0295260Y0005425D01*
X0295235Y0005400D01*
X0295185Y0005400D01*
X0295160Y0005425D01*
X0295298Y0005400D02*
X0295398Y0005400D01*
X0295398Y0005550D01*
X0295436Y0005550D02*
X0295536Y0005400D01*
X0295575Y0005450D02*
X0295675Y0005450D01*
X0295675Y0005425D02*
X0295675Y0005475D01*
X0295650Y0005500D01*
X0295600Y0005500D01*
X0295575Y0005475D01*
X0295575Y0005450D01*
X0295600Y0005400D02*
X0295650Y0005400D01*
X0295675Y0005425D01*
X0295717Y0005400D02*
X0295767Y0005400D01*
X0295742Y0005400D02*
X0295742Y0005550D01*
X0295767Y0005550D01*
X0295805Y0005500D02*
X0295880Y0005500D01*
X0295905Y0005475D01*
X0295905Y0005425D01*
X0295880Y0005400D01*
X0295805Y0005400D01*
X0295805Y0005375D02*
X0295805Y0005500D01*
X0295805Y0005375D02*
X0295830Y0005350D01*
X0295855Y0005350D01*
X0295943Y0005400D02*
X0296018Y0005400D01*
X0296043Y0005425D01*
X0296018Y0005450D01*
X0295943Y0005450D01*
X0295943Y0005475D02*
X0295943Y0005400D01*
X0295943Y0005475D02*
X0295968Y0005500D01*
X0296018Y0005500D01*
X0296081Y0005475D02*
X0296081Y0005450D01*
X0296181Y0005450D01*
X0296181Y0005425D02*
X0296181Y0005475D01*
X0296156Y0005500D01*
X0296106Y0005500D01*
X0296081Y0005475D01*
X0296106Y0005400D02*
X0296156Y0005400D01*
X0296181Y0005425D01*
X0296219Y0005550D02*
X0296319Y0005400D01*
X0296357Y0005400D02*
X0296432Y0005400D01*
X0296457Y0005425D01*
X0296457Y0005475D01*
X0296432Y0005500D01*
X0296357Y0005500D01*
X0296495Y0005475D02*
X0296520Y0005500D01*
X0296570Y0005500D01*
X0296595Y0005475D01*
X0296595Y0005425D01*
X0296570Y0005400D01*
X0296520Y0005400D01*
X0296495Y0005425D01*
X0296495Y0005475D01*
X0296633Y0005425D02*
X0296633Y0005525D01*
X0296658Y0005550D01*
X0296733Y0005550D01*
X0296733Y0005400D01*
X0296658Y0005400D01*
X0296633Y0005425D01*
X0296772Y0005550D02*
X0296872Y0005400D01*
X0296910Y0005425D02*
X0296935Y0005400D01*
X0297010Y0005400D01*
X0297048Y0005400D02*
X0297048Y0005500D01*
X0297010Y0005500D02*
X0296935Y0005500D01*
X0296910Y0005475D01*
X0296910Y0005425D01*
X0297010Y0005350D02*
X0297010Y0005500D01*
X0297048Y0005400D02*
X0297123Y0005400D01*
X0297148Y0005425D01*
X0297148Y0005500D01*
X0297186Y0005475D02*
X0297211Y0005500D01*
X0297261Y0005500D01*
X0297286Y0005475D01*
X0297286Y0005425D01*
X0297261Y0005400D01*
X0297211Y0005400D01*
X0297186Y0005425D01*
X0297186Y0005475D01*
X0297324Y0005400D02*
X0297424Y0005400D01*
X0297424Y0005550D01*
X0297462Y0005550D02*
X0297562Y0005400D01*
X0297600Y0005425D02*
X0297625Y0005450D01*
X0297675Y0005450D01*
X0297700Y0005475D01*
X0297675Y0005500D01*
X0297600Y0005500D01*
X0297600Y0005425D02*
X0297625Y0005400D01*
X0297700Y0005400D01*
X0297740Y0005500D02*
X0297765Y0005500D01*
X0297815Y0005450D01*
X0297853Y0005450D02*
X0297953Y0005450D01*
X0297953Y0005425D02*
X0297953Y0005475D01*
X0297928Y0005500D01*
X0297878Y0005500D01*
X0297853Y0005475D01*
X0297853Y0005450D01*
X0297878Y0005400D02*
X0297928Y0005400D01*
X0297953Y0005425D01*
X0297992Y0005425D02*
X0298017Y0005450D01*
X0298067Y0005450D01*
X0298092Y0005475D01*
X0298067Y0005500D01*
X0297992Y0005500D01*
X0297992Y0005425D02*
X0298017Y0005400D01*
X0298092Y0005400D01*
X0298130Y0005425D02*
X0298130Y0005550D01*
X0298230Y0005550D02*
X0298230Y0005425D01*
X0298205Y0005400D01*
X0298155Y0005400D01*
X0298130Y0005425D01*
X0298268Y0005550D02*
X0298368Y0005400D01*
X0298412Y0005400D02*
X0298437Y0005400D01*
X0298437Y0005425D01*
X0298412Y0005425D01*
X0298412Y0005400D01*
X0298412Y0005475D02*
X0298437Y0005475D01*
X0298437Y0005500D01*
X0298412Y0005500D01*
X0298412Y0005475D01*
X0298475Y0005550D02*
X0298575Y0005550D01*
X0298575Y0005400D01*
X0298575Y0005475D02*
X0298525Y0005475D01*
X0297815Y0005500D02*
X0297815Y0005400D01*
X0293580Y0005350D02*
X0293580Y0005500D01*
X0293505Y0005500D01*
X0293480Y0005475D01*
D149*
X0015394Y0061800D02*
X0004300Y0061800D01*
X0025394Y0061800D02*
X0036488Y0061800D01*
X0046487Y0061800D02*
X0057581Y0061800D01*
X0067581Y0061800D02*
X0078675Y0061800D01*
X0078675Y0073675D01*
X0078675Y0083675D02*
X0078675Y0095550D01*
X0078675Y0105550D02*
X0078675Y0117425D01*
X0078675Y0127425D02*
X0078675Y0139300D01*
X0078675Y0149300D02*
X0078675Y0161175D01*
X0078675Y0171175D02*
X0078675Y0183050D01*
X0078675Y0193050D02*
X0078675Y0204925D01*
D150*
X0179300Y0135850D02*
X0179300Y0130250D01*
X0184300Y0130250D02*
X0184300Y0135850D01*
X0184925Y0082100D02*
X0184925Y0076500D01*
X0179925Y0076500D02*
X0179925Y0082100D01*
X0301800Y0082100D02*
X0301800Y0076500D01*
X0306800Y0076500D02*
X0306800Y0082100D01*
X0306800Y0131500D02*
X0306800Y0137100D01*
X0301800Y0137100D02*
X0301800Y0131500D01*
D151*
X0304300Y0130900D03*
X0304300Y0137700D03*
X0304300Y0082700D03*
X0304300Y0075900D03*
X0182425Y0075900D03*
X0182425Y0082700D03*
X0181800Y0129650D03*
X0181800Y0136450D03*
D152*
X0187000Y0137458D02*
X0187000Y0140527D01*
X0187000Y0137458D02*
X0190069Y0140527D01*
X0190837Y0140527D01*
X0191604Y0139760D01*
X0191604Y0138225D01*
X0190837Y0137458D01*
X0191604Y0135923D02*
X0190837Y0134389D01*
X0189302Y0132854D01*
X0189302Y0135156D01*
X0188535Y0135923D01*
X0187767Y0135923D01*
X0187000Y0135156D01*
X0187000Y0133621D01*
X0187767Y0132854D01*
X0189302Y0132854D01*
X0189302Y0131319D02*
X0188535Y0130552D01*
X0188535Y0128250D01*
X0188535Y0129785D02*
X0187000Y0131319D01*
X0189302Y0131319D02*
X0190837Y0131319D01*
X0191604Y0130552D01*
X0191604Y0128250D01*
X0187000Y0128250D01*
X0187625Y0086777D02*
X0187625Y0083708D01*
X0187625Y0085242D02*
X0192229Y0085242D01*
X0190694Y0083708D01*
X0189160Y0082173D02*
X0189927Y0081406D01*
X0189927Y0079104D01*
X0188392Y0079104D01*
X0187625Y0079871D01*
X0187625Y0081406D01*
X0188392Y0082173D01*
X0189160Y0082173D01*
X0191462Y0080639D02*
X0189927Y0079104D01*
X0189927Y0077569D02*
X0189160Y0076802D01*
X0189160Y0074500D01*
X0189160Y0076035D02*
X0187625Y0077569D01*
X0189927Y0077569D02*
X0191462Y0077569D01*
X0192229Y0076802D01*
X0192229Y0074500D01*
X0187625Y0074500D01*
X0191462Y0080639D02*
X0192229Y0082173D01*
X0099162Y0032942D02*
X0099162Y0025658D01*
X0094438Y0025658D02*
X0094438Y0032942D01*
X0052912Y0080033D02*
X0052912Y0087317D01*
X0048188Y0087317D02*
X0048188Y0080033D01*
X0065063Y0089408D02*
X0065063Y0096692D01*
X0069787Y0096692D02*
X0069787Y0089408D01*
X0083188Y0092942D02*
X0083188Y0085658D01*
X0087912Y0085658D02*
X0087912Y0092942D01*
X0048537Y0116283D02*
X0048537Y0123567D01*
X0043813Y0123567D02*
X0043813Y0116283D01*
X0294500Y0125688D02*
X0299104Y0125688D01*
X0299104Y0127990D01*
X0298337Y0128757D01*
X0296802Y0128757D01*
X0296035Y0127990D01*
X0296035Y0125688D01*
X0296035Y0127223D02*
X0294500Y0128757D01*
X0295267Y0130292D02*
X0294500Y0131059D01*
X0294500Y0132594D01*
X0295267Y0133361D01*
X0296035Y0133361D01*
X0296802Y0132594D01*
X0296802Y0130292D01*
X0295267Y0130292D01*
X0296802Y0130292D02*
X0298337Y0131827D01*
X0299104Y0133361D01*
X0298337Y0134896D02*
X0299104Y0135663D01*
X0299104Y0137198D01*
X0298337Y0137965D01*
X0297569Y0137965D01*
X0296802Y0137198D01*
X0296035Y0137965D01*
X0295267Y0137965D01*
X0294500Y0137198D01*
X0294500Y0135663D01*
X0295267Y0134896D01*
X0296802Y0136431D02*
X0296802Y0137198D01*
X0296802Y0082965D02*
X0296802Y0079896D01*
X0299104Y0082198D01*
X0294500Y0082198D01*
X0295267Y0078361D02*
X0296035Y0078361D01*
X0296802Y0077594D01*
X0296802Y0075292D01*
X0295267Y0075292D01*
X0294500Y0076059D01*
X0294500Y0077594D01*
X0295267Y0078361D01*
X0298337Y0076827D02*
X0296802Y0075292D01*
X0296802Y0073757D02*
X0296035Y0072990D01*
X0296035Y0070688D01*
X0296035Y0072223D02*
X0294500Y0073757D01*
X0296802Y0073757D02*
X0298337Y0073757D01*
X0299104Y0072990D01*
X0299104Y0070688D01*
X0294500Y0070688D01*
X0298337Y0076827D02*
X0299104Y0078361D01*
D153*
X0096800Y0032253D03*
X0096800Y0026347D03*
X0050550Y0080722D03*
X0050550Y0086628D03*
X0067425Y0090097D03*
X0067425Y0096003D03*
X0085550Y0092253D03*
X0085550Y0086347D03*
X0046175Y0116972D03*
X0046175Y0122878D03*
D154*
X0041958Y0120930D02*
X0041958Y0119696D01*
X0041341Y0119079D01*
X0041341Y0117864D02*
X0041958Y0117247D01*
X0041958Y0116013D01*
X0041341Y0115396D01*
X0038872Y0115396D01*
X0038255Y0116013D01*
X0038255Y0117247D01*
X0038872Y0117864D01*
X0038255Y0119079D02*
X0040724Y0121548D01*
X0041341Y0121548D01*
X0041958Y0120930D01*
X0038255Y0121548D02*
X0038255Y0119079D01*
X0060130Y0095305D02*
X0063833Y0095305D01*
X0061982Y0093454D01*
X0061982Y0095923D01*
X0063216Y0092239D02*
X0063833Y0091622D01*
X0063833Y0090388D01*
X0063216Y0089771D01*
X0060747Y0089771D01*
X0060130Y0090388D01*
X0060130Y0091622D01*
X0060747Y0092239D01*
X0057099Y0086125D02*
X0056615Y0086125D01*
X0056131Y0085642D01*
X0055648Y0086125D01*
X0055164Y0086125D01*
X0054680Y0085642D01*
X0054680Y0084674D01*
X0055164Y0084190D01*
X0055164Y0083179D02*
X0054680Y0082695D01*
X0054680Y0081728D01*
X0055164Y0081244D01*
X0057099Y0081244D01*
X0057583Y0081728D01*
X0057583Y0082695D01*
X0057099Y0083179D01*
X0057099Y0084190D02*
X0057583Y0084674D01*
X0057583Y0085642D01*
X0057099Y0086125D01*
X0056131Y0085642D02*
X0056131Y0085158D01*
X0071055Y0084873D02*
X0071055Y0082404D01*
X0071055Y0083639D02*
X0074758Y0083639D01*
X0073524Y0082404D01*
X0074141Y0086088D02*
X0071673Y0086088D01*
X0074141Y0088556D01*
X0071673Y0088556D01*
X0071055Y0087939D01*
X0071055Y0086705D01*
X0071673Y0086088D01*
X0074141Y0086088D02*
X0074758Y0086705D01*
X0074758Y0087939D01*
X0074141Y0088556D01*
X0074141Y0089771D02*
X0074758Y0090388D01*
X0074758Y0091622D01*
X0074141Y0092239D01*
X0071673Y0089771D01*
X0071055Y0090388D01*
X0071055Y0091622D01*
X0071673Y0092239D01*
X0074141Y0092239D01*
X0073524Y0093454D02*
X0071055Y0093454D01*
X0071055Y0095923D02*
X0072907Y0095923D01*
X0073524Y0095305D01*
X0073524Y0093454D01*
X0074141Y0089771D02*
X0071673Y0089771D01*
X0090305Y0090299D02*
X0090789Y0089815D01*
X0090305Y0090299D02*
X0090305Y0091267D01*
X0090789Y0091750D01*
X0091756Y0091750D01*
X0092240Y0091267D01*
X0092240Y0090783D01*
X0091756Y0089815D01*
X0093208Y0089815D01*
X0093208Y0091750D01*
X0092724Y0088804D02*
X0093208Y0088320D01*
X0093208Y0087353D01*
X0092724Y0086869D01*
X0090789Y0086869D01*
X0090305Y0087353D01*
X0090305Y0088320D01*
X0090789Y0088804D01*
X0101645Y0032290D02*
X0101645Y0029821D01*
X0101645Y0031056D02*
X0105348Y0031056D01*
X0104114Y0029821D01*
X0104731Y0028607D02*
X0105348Y0027990D01*
X0105348Y0026755D01*
X0104731Y0026138D01*
X0102262Y0026138D01*
X0101645Y0026755D01*
X0101645Y0027990D01*
X0102262Y0028607D01*
M02*
