G75*
%MOIN*%
%OFA0B0*%
%FSLAX25Y25*%
%IPPOS*%
%LPD*%
%AMOC8*
5,1,8,0,0,1.08239X$1,22.5*
%
%ADD10C,0.00000*%
%ADD11R,0.05000X0.15000*%
D10*
X0001800Y0001800D02*
X0001800Y0207425D01*
X0330550Y0207425D01*
X0330550Y0001800D01*
X0001800Y0001800D01*
X0159300Y0086800D02*
X0159300Y0101800D01*
X0164300Y0101800D01*
X0164300Y0086800D01*
X0159300Y0086800D01*
X0171300Y0156800D02*
X0171302Y0156909D01*
X0171308Y0157018D01*
X0171318Y0157126D01*
X0171332Y0157234D01*
X0171349Y0157342D01*
X0171371Y0157449D01*
X0171396Y0157555D01*
X0171426Y0157659D01*
X0171459Y0157763D01*
X0171496Y0157866D01*
X0171536Y0157967D01*
X0171580Y0158066D01*
X0171628Y0158164D01*
X0171680Y0158261D01*
X0171734Y0158355D01*
X0171792Y0158447D01*
X0171854Y0158537D01*
X0171919Y0158624D01*
X0171986Y0158710D01*
X0172057Y0158793D01*
X0172131Y0158873D01*
X0172208Y0158950D01*
X0172287Y0159025D01*
X0172369Y0159096D01*
X0172454Y0159165D01*
X0172541Y0159230D01*
X0172630Y0159293D01*
X0172722Y0159351D01*
X0172816Y0159407D01*
X0172911Y0159459D01*
X0173009Y0159508D01*
X0173108Y0159553D01*
X0173209Y0159595D01*
X0173311Y0159632D01*
X0173414Y0159666D01*
X0173519Y0159697D01*
X0173625Y0159723D01*
X0173731Y0159746D01*
X0173839Y0159764D01*
X0173947Y0159779D01*
X0174055Y0159790D01*
X0174164Y0159797D01*
X0174273Y0159800D01*
X0174382Y0159799D01*
X0174491Y0159794D01*
X0174599Y0159785D01*
X0174707Y0159772D01*
X0174815Y0159755D01*
X0174922Y0159735D01*
X0175028Y0159710D01*
X0175133Y0159682D01*
X0175237Y0159650D01*
X0175340Y0159614D01*
X0175442Y0159574D01*
X0175542Y0159531D01*
X0175640Y0159484D01*
X0175737Y0159434D01*
X0175831Y0159380D01*
X0175924Y0159322D01*
X0176015Y0159262D01*
X0176103Y0159198D01*
X0176189Y0159131D01*
X0176272Y0159061D01*
X0176353Y0158988D01*
X0176431Y0158912D01*
X0176506Y0158833D01*
X0176579Y0158751D01*
X0176648Y0158667D01*
X0176714Y0158581D01*
X0176777Y0158492D01*
X0176837Y0158401D01*
X0176894Y0158308D01*
X0176947Y0158213D01*
X0176996Y0158116D01*
X0177042Y0158017D01*
X0177084Y0157917D01*
X0177123Y0157815D01*
X0177158Y0157711D01*
X0177189Y0157607D01*
X0177217Y0157502D01*
X0177240Y0157395D01*
X0177260Y0157288D01*
X0177276Y0157180D01*
X0177288Y0157072D01*
X0177296Y0156963D01*
X0177300Y0156854D01*
X0177300Y0156746D01*
X0177296Y0156637D01*
X0177288Y0156528D01*
X0177276Y0156420D01*
X0177260Y0156312D01*
X0177240Y0156205D01*
X0177217Y0156098D01*
X0177189Y0155993D01*
X0177158Y0155889D01*
X0177123Y0155785D01*
X0177084Y0155683D01*
X0177042Y0155583D01*
X0176996Y0155484D01*
X0176947Y0155387D01*
X0176894Y0155292D01*
X0176837Y0155199D01*
X0176777Y0155108D01*
X0176714Y0155019D01*
X0176648Y0154933D01*
X0176579Y0154849D01*
X0176506Y0154767D01*
X0176431Y0154688D01*
X0176353Y0154612D01*
X0176272Y0154539D01*
X0176189Y0154469D01*
X0176103Y0154402D01*
X0176015Y0154338D01*
X0175924Y0154278D01*
X0175831Y0154220D01*
X0175737Y0154166D01*
X0175640Y0154116D01*
X0175542Y0154069D01*
X0175442Y0154026D01*
X0175340Y0153986D01*
X0175237Y0153950D01*
X0175133Y0153918D01*
X0175028Y0153890D01*
X0174922Y0153865D01*
X0174815Y0153845D01*
X0174707Y0153828D01*
X0174599Y0153815D01*
X0174491Y0153806D01*
X0174382Y0153801D01*
X0174273Y0153800D01*
X0174164Y0153803D01*
X0174055Y0153810D01*
X0173947Y0153821D01*
X0173839Y0153836D01*
X0173731Y0153854D01*
X0173625Y0153877D01*
X0173519Y0153903D01*
X0173414Y0153934D01*
X0173311Y0153968D01*
X0173209Y0154005D01*
X0173108Y0154047D01*
X0173009Y0154092D01*
X0172911Y0154141D01*
X0172816Y0154193D01*
X0172722Y0154249D01*
X0172630Y0154307D01*
X0172541Y0154370D01*
X0172454Y0154435D01*
X0172369Y0154504D01*
X0172287Y0154575D01*
X0172208Y0154650D01*
X0172131Y0154727D01*
X0172057Y0154807D01*
X0171986Y0154890D01*
X0171919Y0154976D01*
X0171854Y0155063D01*
X0171792Y0155153D01*
X0171734Y0155245D01*
X0171680Y0155339D01*
X0171628Y0155436D01*
X0171580Y0155534D01*
X0171536Y0155633D01*
X0171496Y0155734D01*
X0171459Y0155837D01*
X0171426Y0155941D01*
X0171396Y0156045D01*
X0171371Y0156151D01*
X0171349Y0156258D01*
X0171332Y0156366D01*
X0171318Y0156474D01*
X0171308Y0156582D01*
X0171302Y0156691D01*
X0171300Y0156800D01*
X0164300Y0164300D02*
X0159300Y0164300D01*
X0159300Y0179300D01*
X0164300Y0179300D01*
X0164300Y0164300D01*
X0319300Y0164300D02*
X0324300Y0164300D01*
X0324300Y0179300D01*
X0319300Y0179300D01*
X0319300Y0164300D01*
X0319300Y0101800D02*
X0319300Y0086800D01*
X0324300Y0086800D01*
X0324300Y0101800D01*
X0319300Y0101800D01*
X0306300Y0056800D02*
X0306302Y0056909D01*
X0306308Y0057018D01*
X0306318Y0057126D01*
X0306332Y0057234D01*
X0306349Y0057342D01*
X0306371Y0057449D01*
X0306396Y0057555D01*
X0306426Y0057659D01*
X0306459Y0057763D01*
X0306496Y0057866D01*
X0306536Y0057967D01*
X0306580Y0058066D01*
X0306628Y0058164D01*
X0306680Y0058261D01*
X0306734Y0058355D01*
X0306792Y0058447D01*
X0306854Y0058537D01*
X0306919Y0058624D01*
X0306986Y0058710D01*
X0307057Y0058793D01*
X0307131Y0058873D01*
X0307208Y0058950D01*
X0307287Y0059025D01*
X0307369Y0059096D01*
X0307454Y0059165D01*
X0307541Y0059230D01*
X0307630Y0059293D01*
X0307722Y0059351D01*
X0307816Y0059407D01*
X0307911Y0059459D01*
X0308009Y0059508D01*
X0308108Y0059553D01*
X0308209Y0059595D01*
X0308311Y0059632D01*
X0308414Y0059666D01*
X0308519Y0059697D01*
X0308625Y0059723D01*
X0308731Y0059746D01*
X0308839Y0059764D01*
X0308947Y0059779D01*
X0309055Y0059790D01*
X0309164Y0059797D01*
X0309273Y0059800D01*
X0309382Y0059799D01*
X0309491Y0059794D01*
X0309599Y0059785D01*
X0309707Y0059772D01*
X0309815Y0059755D01*
X0309922Y0059735D01*
X0310028Y0059710D01*
X0310133Y0059682D01*
X0310237Y0059650D01*
X0310340Y0059614D01*
X0310442Y0059574D01*
X0310542Y0059531D01*
X0310640Y0059484D01*
X0310737Y0059434D01*
X0310831Y0059380D01*
X0310924Y0059322D01*
X0311015Y0059262D01*
X0311103Y0059198D01*
X0311189Y0059131D01*
X0311272Y0059061D01*
X0311353Y0058988D01*
X0311431Y0058912D01*
X0311506Y0058833D01*
X0311579Y0058751D01*
X0311648Y0058667D01*
X0311714Y0058581D01*
X0311777Y0058492D01*
X0311837Y0058401D01*
X0311894Y0058308D01*
X0311947Y0058213D01*
X0311996Y0058116D01*
X0312042Y0058017D01*
X0312084Y0057917D01*
X0312123Y0057815D01*
X0312158Y0057711D01*
X0312189Y0057607D01*
X0312217Y0057502D01*
X0312240Y0057395D01*
X0312260Y0057288D01*
X0312276Y0057180D01*
X0312288Y0057072D01*
X0312296Y0056963D01*
X0312300Y0056854D01*
X0312300Y0056746D01*
X0312296Y0056637D01*
X0312288Y0056528D01*
X0312276Y0056420D01*
X0312260Y0056312D01*
X0312240Y0056205D01*
X0312217Y0056098D01*
X0312189Y0055993D01*
X0312158Y0055889D01*
X0312123Y0055785D01*
X0312084Y0055683D01*
X0312042Y0055583D01*
X0311996Y0055484D01*
X0311947Y0055387D01*
X0311894Y0055292D01*
X0311837Y0055199D01*
X0311777Y0055108D01*
X0311714Y0055019D01*
X0311648Y0054933D01*
X0311579Y0054849D01*
X0311506Y0054767D01*
X0311431Y0054688D01*
X0311353Y0054612D01*
X0311272Y0054539D01*
X0311189Y0054469D01*
X0311103Y0054402D01*
X0311015Y0054338D01*
X0310924Y0054278D01*
X0310831Y0054220D01*
X0310737Y0054166D01*
X0310640Y0054116D01*
X0310542Y0054069D01*
X0310442Y0054026D01*
X0310340Y0053986D01*
X0310237Y0053950D01*
X0310133Y0053918D01*
X0310028Y0053890D01*
X0309922Y0053865D01*
X0309815Y0053845D01*
X0309707Y0053828D01*
X0309599Y0053815D01*
X0309491Y0053806D01*
X0309382Y0053801D01*
X0309273Y0053800D01*
X0309164Y0053803D01*
X0309055Y0053810D01*
X0308947Y0053821D01*
X0308839Y0053836D01*
X0308731Y0053854D01*
X0308625Y0053877D01*
X0308519Y0053903D01*
X0308414Y0053934D01*
X0308311Y0053968D01*
X0308209Y0054005D01*
X0308108Y0054047D01*
X0308009Y0054092D01*
X0307911Y0054141D01*
X0307816Y0054193D01*
X0307722Y0054249D01*
X0307630Y0054307D01*
X0307541Y0054370D01*
X0307454Y0054435D01*
X0307369Y0054504D01*
X0307287Y0054575D01*
X0307208Y0054650D01*
X0307131Y0054727D01*
X0307057Y0054807D01*
X0306986Y0054890D01*
X0306919Y0054976D01*
X0306854Y0055063D01*
X0306792Y0055153D01*
X0306734Y0055245D01*
X0306680Y0055339D01*
X0306628Y0055436D01*
X0306580Y0055534D01*
X0306536Y0055633D01*
X0306496Y0055734D01*
X0306459Y0055837D01*
X0306426Y0055941D01*
X0306396Y0056045D01*
X0306371Y0056151D01*
X0306349Y0056258D01*
X0306332Y0056366D01*
X0306318Y0056474D01*
X0306308Y0056582D01*
X0306302Y0056691D01*
X0306300Y0056800D01*
D11*
X0321800Y0094300D03*
X0321800Y0171800D03*
X0161800Y0171800D03*
X0161800Y0094300D03*
M02*
