%
M48
M72
T01C0.0236
T02C0.0400
T03C0.0433
T04C0.0440
T05C0.0472
T06C0.0600
T07C0.0710
%
T01
X4430Y3368
X2930Y5930
X3118Y6743
X2368Y6743
X1618Y6743
X868Y6743
X3555Y8243
X4368Y6743
X5118Y6743
X5868Y6743
X6618Y6743
X7368Y6743
X7368Y7493
X7055Y8180
X6055Y7618
X8680Y7180
X9180Y8305
X9180Y9493
X7368Y9993
X6868Y10368
X7368Y10743
X7368Y11493
X7368Y12493
X8680Y11930
X8680Y10680
X6055Y11868
X5493Y11118
X3180Y11868
X2430Y12930
X4680Y12930
X5493Y13493
X5993Y13493
X7368Y13493
X8680Y13180
X8680Y14430
X7368Y14493
X7368Y15493
X8680Y15680
X7368Y16493
X5993Y16493
X5993Y15493
X5993Y14493
X8680Y16930
X7368Y17493
X7180Y18680
X7180Y19680
X5180Y17930
X13868Y11180
X12680Y10680
X12305Y10180
X13805Y10180
X14930Y9430
X15493Y8930
X17430Y8368
X17430Y7555
X14180Y6680
X14180Y6180
X11930Y6180
X11930Y6680
X11680Y3930
X13430Y3430
X14930Y2930
X15180Y3930
X16055Y4680
X13180Y2180
X12680Y2180
X12180Y2180
X11680Y2180
X9680Y1930
X9680Y4055
X14930Y1430
X30930Y1368
X31430Y680
X30930Y2967
X31180Y7555
X31180Y13805
X23430Y15680
X17430Y13680
X17430Y12868
X24680Y19680
T02
X1055Y1805
X2055Y1805
X3055Y1805
X4305Y1805
X5305Y1805
X6305Y1805
T03
X16680Y19680
X17680Y19680
X18680Y19680
X28680Y19680
X29680Y19680
X30680Y19680
T04
X12930Y18930
X12430Y19930
X9430Y19930
X8930Y18930
X10930Y11930
X10930Y10930
T05
X1680Y10930
X1680Y11930
X1680Y13930
X1680Y14930
X1680Y16430
X1680Y17430
X1680Y19180
X2680Y19180
X5180Y19180
X6180Y19180
X1680Y9430
X1680Y8430
T06
X17430Y15680
X30930Y5680
T07
X10930Y18930
M30
